<?xml version="1.0" encoding="UTF-8"?>
<svg xmlns="http://www.w3.org/2000/svg" version="1.1" width="400" height="400" viewBox="0 0 400 400"><rect x="0" y="0" width="400" height="400" fill="#fefefe"/><g transform="scale(9.756)"><g transform="translate(4,4)"><path fill-rule="evenodd" d="M10 0L10 2L11 2L11 0ZM12 0L12 1L13 1L13 2L12 2L12 4L14 4L14 3L13 3L13 2L14 2L14 1L15 1L15 2L16 2L16 1L15 1L15 0ZM18 0L18 1L17 1L17 2L18 2L18 3L17 3L17 5L18 5L18 8L17 8L17 6L16 6L16 5L15 5L15 6L14 6L14 5L11 5L11 6L10 6L10 4L11 4L11 3L8 3L8 4L9 4L9 5L8 5L8 7L9 7L9 8L6 8L6 9L5 9L5 8L0 8L0 9L1 9L1 10L2 10L2 11L0 11L0 13L1 13L1 14L0 14L0 17L1 17L1 16L3 16L3 17L4 17L4 18L0 18L0 25L1 25L1 22L2 22L2 23L5 23L5 24L6 24L6 25L7 25L7 24L8 24L8 20L5 20L5 22L2 22L2 20L3 20L3 21L4 21L4 20L3 20L3 19L4 19L4 18L5 18L5 17L7 17L7 16L5 16L5 17L4 17L4 14L5 14L5 15L7 15L7 14L8 14L8 13L11 13L11 12L9 12L9 11L8 11L8 10L9 10L9 9L10 9L10 11L11 11L11 9L12 9L12 10L13 10L13 11L12 11L12 13L14 13L14 14L15 14L15 15L16 15L16 17L14 17L14 16L12 16L12 15L13 15L13 14L10 14L10 15L11 15L11 16L9 16L9 18L6 18L6 19L10 19L10 20L9 20L9 22L10 22L10 23L9 23L9 24L10 24L10 25L8 25L8 27L10 27L10 28L8 28L8 33L10 33L10 32L11 32L11 31L10 31L10 28L11 28L11 26L13 26L13 25L14 25L14 26L15 26L15 29L14 29L14 28L13 28L13 27L12 27L12 28L13 28L13 29L11 29L11 30L12 30L12 32L13 32L13 33L14 33L14 32L13 32L13 29L14 29L14 30L15 30L15 33L16 33L16 32L17 32L17 33L18 33L18 32L17 32L17 31L16 31L16 30L17 30L17 29L18 29L18 28L20 28L20 27L18 27L18 28L17 28L17 25L18 25L18 24L17 24L17 23L19 23L19 22L21 22L21 23L20 23L20 25L19 25L19 26L20 26L20 25L21 25L21 26L23 26L23 27L24 27L24 29L19 29L19 30L20 30L20 31L21 31L21 32L19 32L19 33L21 33L21 32L22 32L22 30L24 30L24 31L26 31L26 32L23 32L23 33L26 33L26 32L27 32L27 33L28 33L28 32L29 32L29 33L30 33L30 32L31 32L31 33L32 33L32 32L31 32L31 31L32 31L32 30L31 30L31 29L32 29L32 28L33 28L33 27L32 27L32 26L33 26L33 23L30 23L30 24L32 24L32 25L30 25L30 26L31 26L31 27L30 27L30 28L29 28L29 24L28 24L28 23L29 23L29 22L28 22L28 21L30 21L30 20L31 20L31 19L32 19L32 20L33 20L33 19L32 19L32 18L33 18L33 17L32 17L32 14L33 14L33 13L32 13L32 10L33 10L33 9L32 9L32 8L31 8L31 9L32 9L32 10L28 10L28 8L27 8L27 9L26 9L26 8L25 8L25 6L24 6L24 9L23 9L23 8L22 8L22 7L23 7L23 6L22 6L22 7L21 7L21 5L22 5L22 4L23 4L23 5L25 5L25 4L23 4L23 1L25 1L25 0L23 0L23 1L21 1L21 0ZM8 1L8 2L9 2L9 1ZM18 1L18 2L20 2L20 3L19 3L19 4L18 4L18 5L19 5L19 7L20 7L20 8L19 8L19 9L20 9L20 10L19 10L19 13L25 13L25 15L24 15L24 14L23 14L23 16L19 16L19 17L21 17L21 18L19 18L19 19L20 19L20 20L18 20L18 19L17 19L17 18L18 18L18 17L17 17L17 18L16 18L16 19L17 19L17 20L18 20L18 21L17 21L17 22L16 22L16 21L15 21L15 18L14 18L14 17L13 17L13 18L12 18L12 17L11 17L11 18L10 18L10 19L11 19L11 20L10 20L10 22L11 22L11 23L10 23L10 24L11 24L11 25L10 25L10 26L11 26L11 25L12 25L12 24L11 24L11 23L12 23L12 22L13 22L13 24L14 24L14 25L15 25L15 26L16 26L16 25L17 25L17 24L16 24L16 23L17 23L17 22L19 22L19 21L21 21L21 22L23 22L23 24L21 24L21 25L24 25L24 24L27 24L27 22L26 22L26 21L28 21L28 20L27 20L27 19L26 19L26 21L25 21L25 22L23 22L23 20L25 20L25 18L26 18L26 17L28 17L28 19L29 19L29 20L30 20L30 19L31 19L31 18L30 18L30 17L31 17L31 16L30 16L30 14L29 14L29 13L31 13L31 12L29 12L29 11L28 11L28 12L29 12L29 13L27 13L27 12L26 12L26 13L25 13L25 12L24 12L24 11L27 11L27 10L25 10L25 9L24 9L24 10L23 10L23 9L22 9L22 8L21 8L21 7L20 7L20 5L19 5L19 4L22 4L22 3L21 3L21 1ZM24 2L24 3L25 3L25 2ZM15 3L15 4L16 4L16 3ZM9 6L9 7L10 7L10 6ZM11 6L11 7L12 7L12 9L13 9L13 10L14 10L14 11L13 11L13 12L14 12L14 13L15 13L15 14L16 14L16 13L17 13L17 12L18 12L18 11L16 11L16 12L15 12L15 10L16 10L16 9L17 9L17 10L18 10L18 9L17 9L17 8L16 8L16 9L15 9L15 7L16 7L16 6L15 6L15 7L14 7L14 6L13 6L13 7L12 7L12 6ZM10 8L10 9L11 9L11 8ZM13 8L13 9L14 9L14 10L15 10L15 9L14 9L14 8ZM20 8L20 9L21 9L21 11L20 11L20 12L23 12L23 10L22 10L22 9L21 9L21 8ZM29 8L29 9L30 9L30 8ZM4 9L4 10L5 10L5 9ZM6 9L6 10L8 10L8 9ZM3 11L3 12L2 12L2 13L4 13L4 11ZM6 11L6 12L5 12L5 13L6 13L6 14L7 14L7 13L8 13L8 11ZM6 12L6 13L7 13L7 12ZM26 13L26 14L27 14L27 15L26 15L26 16L28 16L28 17L29 17L29 16L28 16L28 14L27 14L27 13ZM1 14L1 15L3 15L3 14ZM17 14L17 16L18 16L18 15L21 15L21 14ZM22 17L22 18L21 18L21 20L23 20L23 19L22 19L22 18L25 18L25 17ZM13 18L13 19L14 19L14 18ZM1 19L1 20L2 20L2 19ZM11 20L11 22L12 22L12 20ZM13 20L13 21L14 21L14 24L15 24L15 23L16 23L16 22L15 22L15 21L14 21L14 20ZM6 21L6 22L7 22L7 21ZM32 21L32 22L33 22L33 21ZM25 22L25 23L26 23L26 22ZM6 23L6 24L7 24L7 23ZM2 24L2 25L3 25L3 24ZM25 25L25 28L28 28L28 25ZM26 26L26 27L27 27L27 26ZM21 27L21 28L22 28L22 27ZM16 28L16 29L15 29L15 30L16 30L16 29L17 29L17 28ZM30 28L30 29L29 29L29 30L27 30L27 29L24 29L24 30L27 30L27 31L29 31L29 32L30 32L30 29L31 29L31 28ZM0 0L0 7L7 7L7 0ZM1 1L1 6L6 6L6 1ZM2 2L2 5L5 5L5 2ZM26 0L26 7L33 7L33 0ZM27 1L27 6L32 6L32 1ZM28 2L28 5L31 5L31 2ZM0 26L0 33L7 33L7 26ZM1 27L1 32L6 32L6 27ZM2 28L2 31L5 31L5 28Z" fill="#000000"/></g></g></svg>
