<?xml version="1.0" encoding="UTF-8"?>
<svg xmlns="http://www.w3.org/2000/svg" version="1.1" width="400" height="400" viewBox="0 0 400 400"><rect x="0" y="0" width="400" height="400" fill="#fefefe"/><g transform="scale(9.756)"><g transform="translate(4,4)"><path fill-rule="evenodd" d="M8 0L8 4L10 4L10 3L11 3L11 4L12 4L12 2L11 2L11 0ZM12 0L12 1L13 1L13 0ZM15 0L15 1L14 1L14 2L15 2L15 1L16 1L16 0ZM20 0L20 1L19 1L19 2L16 2L16 3L15 3L15 4L14 4L14 3L13 3L13 5L11 5L11 6L10 6L10 7L9 7L9 5L8 5L8 7L9 7L9 8L10 8L10 7L11 7L11 6L12 6L12 8L11 8L11 9L9 9L9 10L8 10L8 11L7 11L7 10L6 10L6 9L7 9L7 8L4 8L4 10L2 10L2 8L0 8L0 10L2 10L2 11L1 11L1 12L0 12L0 14L2 14L2 17L1 17L1 15L0 15L0 17L1 17L1 18L0 18L0 19L1 19L1 21L0 21L0 22L2 22L2 23L3 23L3 25L4 25L4 23L3 23L3 22L4 22L4 20L3 20L3 21L2 21L2 19L3 19L3 18L4 18L4 19L5 19L5 18L6 18L6 19L7 19L7 20L5 20L5 23L7 23L7 22L9 22L9 19L8 19L8 18L6 18L6 17L7 17L7 16L8 16L8 17L9 17L9 18L10 18L10 19L11 19L11 23L10 23L10 24L9 24L9 23L8 23L8 26L11 26L11 27L8 27L8 29L9 29L9 30L10 30L10 31L8 31L8 33L9 33L9 32L10 32L10 33L11 33L11 31L13 31L13 30L14 30L14 29L15 29L15 31L14 31L14 33L15 33L15 32L16 32L16 31L17 31L17 33L18 33L18 32L19 32L19 33L20 33L20 32L19 32L19 30L17 30L17 29L18 29L18 27L19 27L19 29L23 29L23 28L24 28L24 30L22 30L22 31L21 31L21 30L20 30L20 31L21 31L21 33L22 33L22 32L23 32L23 31L24 31L24 33L26 33L26 31L27 31L27 29L28 29L28 31L29 31L29 33L30 33L30 30L31 30L31 31L32 31L32 30L33 30L33 27L32 27L32 26L31 26L31 25L32 25L32 24L33 24L33 23L31 23L31 22L32 22L32 21L33 21L33 19L32 19L32 18L31 18L31 17L30 17L30 18L29 18L29 19L28 19L28 17L29 17L29 16L30 16L30 14L31 14L31 16L32 16L32 17L33 17L33 16L32 16L32 14L31 14L31 13L29 13L29 10L28 10L28 13L27 13L27 11L25 11L25 9L24 9L24 7L25 7L25 6L24 6L24 7L23 7L23 6L22 6L22 7L21 7L21 5L25 5L25 2L24 2L24 3L22 3L22 2L23 2L23 1L25 1L25 0L23 0L23 1L22 1L22 0ZM20 1L20 2L22 2L22 1ZM9 2L9 3L10 3L10 2ZM17 3L17 4L16 4L16 5L15 5L15 7L14 7L14 5L13 5L13 8L12 8L12 9L11 9L11 10L9 10L9 11L8 11L8 14L7 14L7 13L6 13L6 14L7 14L7 15L5 15L5 13L4 13L4 12L7 12L7 11L6 11L6 10L5 10L5 11L4 11L4 12L3 12L3 11L2 11L2 12L3 12L3 13L4 13L4 14L3 14L3 15L5 15L5 16L7 16L7 15L8 15L8 16L9 16L9 17L11 17L11 18L12 18L12 17L11 17L11 16L12 16L12 15L13 15L13 17L14 17L14 19L13 19L13 20L12 20L12 23L11 23L11 24L10 24L10 25L12 25L12 24L13 24L13 25L14 25L14 26L12 26L12 28L10 28L10 29L14 29L14 28L15 28L15 29L17 29L17 26L19 26L19 27L20 27L20 28L21 28L21 27L20 27L20 25L21 25L21 23L20 23L20 22L21 22L21 21L19 21L19 19L20 19L20 20L21 20L21 18L22 18L22 17L25 17L25 16L22 16L22 17L21 17L21 15L23 15L23 13L24 13L24 15L26 15L26 16L27 16L27 17L26 17L26 18L27 18L27 17L28 17L28 15L29 15L29 13L28 13L28 15L27 15L27 13L24 13L24 12L25 12L25 11L22 11L22 9L23 9L23 7L22 7L22 9L21 9L21 8L20 8L20 6L19 6L19 5L20 5L20 3ZM21 3L21 4L22 4L22 3ZM17 5L17 6L16 6L16 7L15 7L15 8L14 8L14 9L12 9L12 10L11 10L11 11L10 11L10 13L11 13L11 12L12 12L12 13L13 13L13 14L14 14L14 13L15 13L15 15L16 15L16 14L17 14L17 16L14 16L14 17L16 17L16 18L15 18L15 20L14 20L14 21L13 21L13 22L14 22L14 25L15 25L15 28L16 28L16 26L17 26L17 25L18 25L18 24L19 24L19 25L20 25L20 24L19 24L19 23L17 23L17 21L18 21L18 19L17 19L17 17L18 17L18 18L19 18L19 17L20 17L20 18L21 18L21 17L20 17L20 15L19 15L19 13L20 13L20 14L21 14L21 13L23 13L23 12L22 12L22 11L21 11L21 13L20 13L20 12L18 12L18 11L16 11L16 10L17 10L17 9L18 9L18 10L19 10L19 9L20 9L20 10L21 10L21 9L20 9L20 8L19 8L19 6L18 6L18 5ZM17 6L17 7L16 7L16 8L15 8L15 9L14 9L14 11L12 11L12 12L13 12L13 13L14 13L14 12L15 12L15 9L17 9L17 7L18 7L18 6ZM27 8L27 9L28 9L28 8ZM29 8L29 9L31 9L31 12L32 12L32 13L33 13L33 12L32 12L32 9L33 9L33 8ZM16 12L16 13L17 13L17 12ZM9 14L9 15L10 15L10 16L11 16L11 14ZM18 15L18 16L19 16L19 15ZM3 16L3 17L4 17L4 16ZM16 19L16 20L15 20L15 21L14 21L14 22L15 22L15 21L16 21L16 20L17 20L17 19ZM26 19L26 20L27 20L27 19ZM30 19L30 21L25 21L25 23L24 23L24 24L25 24L25 23L26 23L26 24L27 24L27 23L28 23L28 22L31 22L31 20L32 20L32 19ZM22 20L22 25L23 25L23 20ZM6 21L6 22L7 22L7 21ZM15 23L15 24L16 24L16 25L17 25L17 23ZM30 23L30 24L29 24L29 26L30 26L30 25L31 25L31 23ZM0 24L0 25L2 25L2 24ZM6 24L6 25L7 25L7 24ZM25 25L25 28L28 28L28 25ZM23 26L23 27L24 27L24 26ZM26 26L26 27L27 27L27 26ZM30 27L30 29L29 29L29 30L30 30L30 29L32 29L32 28L31 28L31 27ZM32 32L32 33L33 33L33 32ZM0 0L0 7L7 7L7 0ZM1 1L1 6L6 6L6 1ZM2 2L2 5L5 5L5 2ZM26 0L26 7L33 7L33 0ZM27 1L27 6L32 6L32 1ZM28 2L28 5L31 5L31 2ZM0 26L0 33L7 33L7 26ZM1 27L1 32L6 32L6 27ZM2 28L2 31L5 31L5 28Z" fill="#000000"/></g></g></svg>
