<?xml version="1.0" encoding="UTF-8"?>
<svg xmlns="http://www.w3.org/2000/svg" version="1.1" width="400" height="400" viewBox="0 0 400 400"><rect x="0" y="0" width="400" height="400" fill="#fefefe"/><g transform="scale(9.756)"><g transform="translate(4,4)"><path fill-rule="evenodd" d="M8 0L8 1L11 1L11 2L10 2L10 4L9 4L9 2L8 2L8 5L11 5L11 4L12 4L12 1L13 1L13 4L14 4L14 5L16 5L16 12L17 12L17 13L15 13L15 14L17 14L17 13L19 13L19 14L18 14L18 16L20 16L20 13L19 13L19 12L21 12L21 11L19 11L19 12L17 12L17 9L18 9L18 10L21 10L21 9L22 9L22 10L23 10L23 11L22 11L22 13L23 13L23 11L24 11L24 14L25 14L25 16L23 16L23 14L21 14L21 17L22 17L22 16L23 16L23 18L20 18L20 20L18 20L18 19L19 19L19 18L17 18L17 19L16 19L16 18L15 18L15 17L17 17L17 15L16 15L16 16L13 16L13 15L14 15L14 14L13 14L13 13L14 13L14 11L15 11L15 9L14 9L14 10L13 10L13 9L11 9L11 6L10 6L10 9L11 9L11 10L8 10L8 11L7 11L7 10L6 10L6 11L4 11L4 12L5 12L5 14L4 14L4 13L3 13L3 11L2 11L2 12L0 12L0 13L1 13L1 14L0 14L0 16L1 16L1 17L0 17L0 20L1 20L1 21L0 21L0 22L2 22L2 21L3 21L3 20L2 20L2 19L1 19L1 17L2 17L2 18L3 18L3 19L4 19L4 22L3 22L3 23L1 23L1 24L0 24L0 25L1 25L1 24L3 24L3 25L4 25L4 24L3 24L3 23L5 23L5 24L6 24L6 25L7 25L7 24L9 24L9 25L8 25L8 26L9 26L9 28L10 28L10 27L11 27L11 24L12 24L12 25L14 25L14 24L16 24L16 23L13 23L13 24L12 24L12 22L13 22L13 21L12 21L12 20L13 20L13 19L14 19L14 20L15 20L15 19L16 19L16 20L17 20L17 21L16 21L16 22L17 22L17 21L19 21L19 22L21 22L21 21L23 21L23 22L22 22L22 23L24 23L24 25L22 25L22 26L23 26L23 27L21 27L21 29L22 29L22 30L23 30L23 29L27 29L27 30L26 30L26 32L27 32L27 33L31 33L31 32L30 32L30 31L32 31L32 32L33 32L33 31L32 31L32 27L31 27L31 26L32 26L32 25L33 25L33 21L32 21L32 20L30 20L30 19L28 19L28 18L29 18L29 17L32 17L32 18L31 18L31 19L32 19L32 18L33 18L33 16L32 16L32 15L30 15L30 16L28 16L28 14L27 14L27 15L26 15L26 13L25 13L25 11L26 11L26 12L27 12L27 10L28 10L28 9L31 9L31 8L28 8L28 9L26 9L26 8L25 8L25 3L24 3L24 1L25 1L25 0L23 0L23 1L22 1L22 2L23 2L23 3L22 3L22 4L23 4L23 3L24 3L24 7L23 7L23 5L21 5L21 3L20 3L20 2L19 2L19 5L18 5L18 3L17 3L17 2L15 2L15 0ZM19 0L19 1L20 1L20 0ZM14 2L14 4L15 4L15 2ZM16 3L16 5L17 5L17 3ZM8 6L8 7L9 7L9 6ZM12 6L12 7L13 7L13 6ZM14 6L14 8L15 8L15 6ZM17 6L17 7L18 7L18 9L19 9L19 8L20 8L20 9L21 9L21 8L23 8L23 9L24 9L24 10L25 10L25 8L23 8L23 7L22 7L22 6L21 6L21 7L20 7L20 6L19 6L19 7L18 7L18 6ZM0 8L0 11L1 11L1 9L3 9L3 10L5 10L5 9L4 9L4 8ZM6 8L6 9L7 9L7 8ZM8 8L8 9L9 9L9 8ZM32 8L32 10L31 10L31 11L33 11L33 8ZM12 10L12 11L13 11L13 10ZM6 11L6 12L7 12L7 11ZM29 11L29 12L28 12L28 13L29 13L29 12L30 12L30 11ZM11 12L11 13L10 13L10 15L9 15L9 14L8 14L8 13L6 13L6 14L8 14L8 15L9 15L9 16L7 16L7 15L6 15L6 16L2 16L2 17L5 17L5 18L4 18L4 19L5 19L5 20L7 20L7 21L5 21L5 23L6 23L6 24L7 24L7 23L8 23L8 22L7 22L7 21L9 21L9 22L10 22L10 23L9 23L9 24L10 24L10 23L11 23L11 22L10 22L10 21L11 21L11 19L12 19L12 18L13 18L13 16L12 16L12 18L11 18L11 19L10 19L10 20L7 20L7 19L8 19L8 18L9 18L9 16L10 16L10 17L11 17L11 15L13 15L13 14L12 14L12 13L13 13L13 12ZM31 12L31 14L32 14L32 12ZM3 14L3 15L4 15L4 14ZM6 16L6 17L7 17L7 16ZM25 16L25 17L24 17L24 18L23 18L23 19L21 19L21 20L20 20L20 21L21 21L21 20L23 20L23 19L25 19L25 17L26 17L26 16ZM27 16L27 17L28 17L28 16ZM5 18L5 19L7 19L7 18ZM14 18L14 19L15 19L15 18ZM27 19L27 20L24 20L24 21L25 21L25 22L24 22L24 23L26 23L26 21L27 21L27 20L28 20L28 23L27 23L27 24L28 24L28 23L29 23L29 25L30 25L30 26L29 26L29 29L28 29L28 31L27 31L27 32L29 32L29 31L30 31L30 30L31 30L31 29L30 29L30 26L31 26L31 25L32 25L32 21L29 21L29 20L28 20L28 19ZM14 21L14 22L15 22L15 21ZM6 22L6 23L7 23L7 22ZM29 22L29 23L31 23L31 22ZM18 23L18 24L17 24L17 25L15 25L15 26L18 26L18 30L19 30L19 28L20 28L20 26L21 26L21 24L20 24L20 23ZM18 24L18 25L20 25L20 24ZM25 25L25 28L28 28L28 25ZM12 26L12 29L8 29L8 33L9 33L9 30L12 30L12 29L13 29L13 30L15 30L15 31L14 31L14 32L15 32L15 31L16 31L16 33L23 33L23 31L22 31L22 32L19 32L19 31L16 31L16 29L15 29L15 28L17 28L17 27L15 27L15 28L13 28L13 27L14 27L14 26ZM26 26L26 27L27 27L27 26ZM20 30L20 31L21 31L21 30ZM24 30L24 32L25 32L25 30ZM10 31L10 33L13 33L13 32L12 32L12 31ZM0 0L0 7L7 7L7 0ZM1 1L1 6L6 6L6 1ZM2 2L2 5L5 5L5 2ZM26 0L26 7L33 7L33 0ZM27 1L27 6L32 6L32 1ZM28 2L28 5L31 5L31 2ZM0 26L0 33L7 33L7 26ZM1 27L1 32L6 32L6 27ZM2 28L2 31L5 31L5 28Z" fill="#000000"/></g></g></svg>
