<?xml version="1.0" encoding="UTF-8"?>
<svg xmlns="http://www.w3.org/2000/svg" version="1.1" width="400" height="400" viewBox="0 0 400 400"><rect x="0" y="0" width="400" height="400" fill="#fefefe"/><g transform="scale(9.756)"><g transform="translate(4,4)"><path fill-rule="evenodd" d="M8 0L8 1L10 1L10 0ZM12 0L12 2L9 2L9 4L10 4L10 5L11 5L11 6L10 6L10 8L9 8L9 6L8 6L8 8L9 8L9 9L7 9L7 8L6 8L6 9L7 9L7 10L5 10L5 12L6 12L6 13L7 13L7 14L5 14L5 13L4 13L4 12L3 12L3 13L1 13L1 12L2 12L2 11L4 11L4 10L1 10L1 9L2 9L2 8L0 8L0 11L1 11L1 12L0 12L0 14L2 14L2 15L0 15L0 17L1 17L1 16L2 16L2 15L3 15L3 17L5 17L5 18L6 18L6 19L8 19L8 21L7 21L7 20L6 20L6 21L7 21L7 22L5 22L5 23L4 23L4 22L3 22L3 23L2 23L2 24L1 24L1 21L4 21L4 19L3 19L3 18L2 18L2 20L1 20L1 21L0 21L0 25L2 25L2 24L4 24L4 25L5 25L5 23L7 23L7 22L8 22L8 24L6 24L6 25L8 25L8 26L9 26L9 28L8 28L8 30L9 30L9 31L8 31L8 33L11 33L11 31L12 31L12 32L15 32L15 33L18 33L18 32L17 32L17 31L18 31L18 29L17 29L17 30L16 30L16 28L15 28L15 27L16 27L16 26L17 26L17 24L18 24L18 23L19 23L19 25L20 25L20 26L19 26L19 27L18 27L18 28L20 28L20 26L21 26L21 27L22 27L22 28L23 28L23 29L24 29L24 30L22 30L22 29L21 29L21 31L20 31L20 29L19 29L19 33L20 33L20 32L21 32L21 31L22 31L22 32L24 32L24 33L25 33L25 32L27 32L27 31L28 31L28 33L30 33L30 32L33 32L33 30L32 30L32 31L31 31L31 29L32 29L32 28L33 28L33 27L30 27L30 28L31 28L31 29L29 29L29 25L30 25L30 26L31 26L31 25L32 25L32 24L33 24L33 22L32 22L32 23L30 23L30 22L29 22L29 21L30 21L30 20L31 20L31 21L32 21L32 19L33 19L33 15L31 15L31 13L30 13L30 12L32 12L32 13L33 13L33 12L32 12L32 11L33 11L33 10L30 10L30 12L29 12L29 11L27 11L27 10L26 10L26 9L27 9L27 8L26 8L26 9L25 9L25 6L24 6L24 5L25 5L25 4L24 4L24 5L23 5L23 3L22 3L22 2L23 2L23 0L22 0L22 2L21 2L21 3L20 3L20 1L21 1L21 0L20 0L20 1L18 1L18 0L16 0L16 1L18 1L18 3L17 3L17 2L16 2L16 4L19 4L19 5L16 5L16 8L15 8L15 6L14 6L14 5L15 5L15 3L14 3L14 2L15 2L15 1L14 1L14 2L13 2L13 0ZM24 0L24 1L25 1L25 0ZM24 2L24 3L25 3L25 2ZM10 3L10 4L11 4L11 5L12 5L12 4L13 4L13 5L14 5L14 4L13 4L13 3L12 3L12 4L11 4L11 3ZM19 3L19 4L20 4L20 5L19 5L19 7L20 7L20 10L19 10L19 12L20 12L20 13L19 13L19 14L16 14L16 16L15 16L15 18L17 18L17 20L16 20L16 19L15 19L15 20L13 20L13 19L14 19L14 17L13 17L13 19L11 19L11 18L12 18L12 17L11 17L11 16L8 16L8 17L11 17L11 18L8 18L8 19L11 19L11 20L9 20L9 21L8 21L8 22L9 22L9 23L10 23L10 24L8 24L8 25L10 25L10 24L12 24L12 23L10 23L10 22L9 22L9 21L11 21L11 20L13 20L13 22L14 22L14 23L13 23L13 25L14 25L14 27L12 27L12 26L11 26L11 27L10 27L10 28L11 28L11 27L12 27L12 29L9 29L9 30L12 30L12 31L13 31L13 30L14 30L14 29L13 29L13 28L14 28L14 27L15 27L15 25L16 25L16 24L17 24L17 23L18 23L18 22L19 22L19 23L20 23L20 25L21 25L21 26L22 26L22 24L25 24L25 23L21 23L21 22L19 22L19 20L18 20L18 18L17 18L17 17L18 17L18 15L19 15L19 17L20 17L20 19L21 19L21 21L22 21L22 19L21 19L21 18L22 18L22 12L24 12L24 11L26 11L26 12L27 12L27 13L24 13L24 14L23 14L23 16L24 16L24 17L23 17L23 18L24 18L24 19L23 19L23 20L26 20L26 22L27 22L27 24L28 24L28 23L29 23L29 22L27 22L27 20L26 20L26 19L28 19L28 21L29 21L29 20L30 20L30 19L32 19L32 18L30 18L30 19L28 19L28 15L29 15L29 16L30 16L30 17L31 17L31 16L30 16L30 14L29 14L29 12L27 12L27 11L26 11L26 10L25 10L25 9L24 9L24 6L23 6L23 7L22 7L22 4L20 4L20 3ZM11 6L11 7L12 7L12 6ZM13 6L13 7L14 7L14 6ZM17 6L17 8L18 8L18 6ZM20 6L20 7L21 7L21 6ZM3 8L3 9L5 9L5 8ZM11 8L11 9L12 9L12 8ZM13 8L13 10L15 10L15 8ZM22 8L22 9L21 9L21 10L20 10L20 11L22 11L22 9L23 9L23 11L24 11L24 9L23 9L23 8ZM32 8L32 9L33 9L33 8ZM16 9L16 10L17 10L17 11L18 11L18 9ZM28 9L28 10L29 10L29 9ZM7 10L7 11L6 11L6 12L7 12L7 13L8 13L8 15L12 15L12 14L13 14L13 13L14 13L14 15L13 15L13 16L14 16L14 15L15 15L15 13L16 13L16 11L11 11L11 12L10 12L10 13L8 13L8 11L10 11L10 10ZM11 12L11 14L12 14L12 12ZM14 12L14 13L15 13L15 12ZM17 12L17 13L18 13L18 12ZM3 13L3 15L4 15L4 13ZM20 13L20 14L19 14L19 15L20 15L20 14L21 14L21 13ZM24 14L24 15L26 15L26 18L27 18L27 15L28 15L28 14L27 14L27 15L26 15L26 14ZM6 15L6 16L5 16L5 17L6 17L6 18L7 18L7 17L6 17L6 16L7 16L7 15ZM16 16L16 17L17 17L17 16ZM24 17L24 18L25 18L25 17ZM0 18L0 19L1 19L1 18ZM15 20L15 24L14 24L14 25L15 25L15 24L16 24L16 20ZM17 20L17 21L18 21L18 20ZM30 24L30 25L31 25L31 24ZM25 25L25 28L28 28L28 25ZM26 26L26 27L27 27L27 26ZM23 27L23 28L24 28L24 27ZM12 29L12 30L13 30L13 29ZM26 29L26 31L27 31L27 29ZM28 29L28 30L29 30L29 29ZM9 31L9 32L10 32L10 31ZM15 31L15 32L16 32L16 31ZM24 31L24 32L25 32L25 31ZM29 31L29 32L30 32L30 31ZM0 0L0 7L7 7L7 0ZM1 1L1 6L6 6L6 1ZM2 2L2 5L5 5L5 2ZM26 0L26 7L33 7L33 0ZM27 1L27 6L32 6L32 1ZM28 2L28 5L31 5L31 2ZM0 26L0 33L7 33L7 26ZM1 27L1 32L6 32L6 27ZM2 28L2 31L5 31L5 28Z" fill="#000000"/></g></g></svg>
