<?xml version="1.0" encoding="UTF-8"?>
<svg xmlns="http://www.w3.org/2000/svg" version="1.1" width="400" height="400" viewBox="0 0 400 400"><rect x="0" y="0" width="400" height="400" fill="#fefefe"/><g transform="scale(9.756)"><g transform="translate(4,4)"><path fill-rule="evenodd" d="M8 0L8 4L10 4L10 3L11 3L11 4L12 4L12 2L11 2L11 0ZM12 0L12 1L13 1L13 0ZM15 0L15 1L14 1L14 2L15 2L15 1L16 1L16 0ZM17 0L17 1L18 1L18 2L16 2L16 3L15 3L15 4L14 4L14 3L13 3L13 5L11 5L11 6L10 6L10 7L9 7L9 5L8 5L8 7L9 7L9 8L10 8L10 7L11 7L11 6L12 6L12 8L11 8L11 9L9 9L9 10L11 10L11 11L10 11L10 13L9 13L9 12L8 12L8 11L7 11L7 10L8 10L8 9L7 9L7 8L4 8L4 9L3 9L3 10L4 10L4 9L5 9L5 10L6 10L6 11L3 11L3 12L2 12L2 13L1 13L1 14L0 14L0 16L1 16L1 15L2 15L2 17L0 17L0 22L2 22L2 21L3 21L3 19L4 19L4 18L6 18L6 19L5 19L5 20L4 20L4 23L3 23L3 24L0 24L0 25L5 25L5 24L6 24L6 25L7 25L7 24L8 24L8 26L10 26L10 27L8 27L8 29L10 29L10 31L8 31L8 33L9 33L9 32L11 32L11 33L12 33L12 31L13 31L13 30L14 30L14 29L15 29L15 32L14 32L14 33L15 33L15 32L16 32L16 31L17 31L17 33L18 33L18 32L19 32L19 33L23 33L23 32L22 32L22 31L24 31L24 33L25 33L25 31L24 31L24 30L25 30L25 29L26 29L26 31L27 31L27 32L26 32L26 33L28 33L28 31L29 31L29 33L30 33L30 30L31 30L31 31L32 31L32 30L33 30L33 27L32 27L32 26L31 26L31 25L32 25L32 24L33 24L33 23L31 23L31 22L32 22L32 21L33 21L33 19L32 19L32 18L31 18L31 17L30 17L30 18L26 18L26 17L29 17L29 16L30 16L30 14L31 14L31 16L32 16L32 17L33 17L33 16L32 16L32 14L31 14L31 13L29 13L29 10L28 10L28 8L27 8L27 11L26 11L26 9L22 9L22 7L23 7L23 8L25 8L25 6L24 6L24 7L23 7L23 6L22 6L22 7L21 7L21 3L22 3L22 2L23 2L23 1L25 1L25 0L23 0L23 1L22 1L22 0L20 0L20 1L18 1L18 0ZM20 1L20 2L22 2L22 1ZM9 2L9 3L10 3L10 2ZM17 3L17 4L16 4L16 5L15 5L15 7L14 7L14 5L13 5L13 8L12 8L12 9L11 9L11 10L12 10L12 9L14 9L14 11L12 11L12 12L11 12L11 13L10 13L10 14L11 14L11 16L9 16L9 15L6 15L6 14L7 14L7 13L8 13L8 14L9 14L9 13L8 13L8 12L7 12L7 11L6 11L6 12L7 12L7 13L6 13L6 14L3 14L3 13L4 13L4 12L3 12L3 13L2 13L2 15L3 15L3 17L2 17L2 18L4 18L4 17L6 17L6 18L7 18L7 17L6 17L6 16L8 16L8 17L11 17L11 18L12 18L12 17L11 17L11 16L12 16L12 15L13 15L13 17L14 17L14 19L13 19L13 20L12 20L12 23L10 23L10 26L11 26L11 25L12 25L12 24L13 24L13 25L14 25L14 26L13 26L13 28L12 28L12 27L10 27L10 28L11 28L11 29L14 29L14 28L15 28L15 29L17 29L17 30L19 30L19 32L21 32L21 31L22 31L22 30L23 30L23 29L24 29L24 28L23 28L23 29L21 29L21 27L20 27L20 26L22 26L22 27L24 27L24 26L23 26L23 25L24 25L24 24L25 24L25 22L24 22L24 23L23 23L23 20L22 20L22 24L23 24L23 25L19 25L19 24L18 24L18 25L17 25L17 23L21 23L21 22L20 22L20 21L21 21L21 19L22 19L22 17L25 17L25 16L22 16L22 17L21 17L21 16L20 16L20 17L19 17L19 18L18 18L18 17L17 17L17 19L16 19L16 20L15 20L15 18L16 18L16 17L14 17L14 16L17 16L17 14L16 14L16 15L15 15L15 13L14 13L14 12L15 12L15 9L17 9L17 10L16 10L16 11L18 11L18 12L20 12L20 13L19 13L19 15L18 15L18 16L19 16L19 15L20 15L20 13L21 13L21 14L22 14L22 15L23 15L23 14L22 14L22 13L25 13L25 14L24 14L24 15L28 15L28 14L29 14L29 13L25 13L25 12L26 12L26 11L24 11L24 12L22 12L22 13L21 13L21 11L23 11L23 10L22 10L22 9L21 9L21 8L20 8L20 6L19 6L19 8L20 8L20 9L19 9L19 10L18 10L18 9L17 9L17 7L18 7L18 6L17 6L17 5L20 5L20 3ZM23 3L23 5L25 5L25 3ZM16 6L16 7L15 7L15 8L14 8L14 9L15 9L15 8L16 8L16 7L17 7L17 6ZM0 8L0 9L2 9L2 8ZM29 8L29 9L31 9L31 12L32 12L32 13L33 13L33 12L32 12L32 9L33 9L33 8ZM6 9L6 10L7 10L7 9ZM20 9L20 11L21 11L21 9ZM0 10L0 12L1 12L1 10ZM12 12L12 13L13 13L13 14L14 14L14 13L13 13L13 12ZM16 12L16 13L17 13L17 12ZM4 15L4 16L5 16L5 15ZM20 17L20 19L21 19L21 17ZM8 18L8 19L6 19L6 20L7 20L7 21L5 21L5 22L7 22L7 23L6 23L6 24L7 24L7 23L8 23L8 24L9 24L9 23L8 23L8 20L9 20L9 21L10 21L10 20L11 20L11 19L10 19L10 18ZM1 19L1 20L2 20L2 19ZM9 19L9 20L10 20L10 19ZM17 19L17 20L16 20L16 21L15 21L15 20L14 20L14 21L13 21L13 22L14 22L14 25L15 25L15 28L16 28L16 26L17 26L17 29L18 29L18 27L19 27L19 26L17 26L17 25L16 25L16 24L15 24L15 23L17 23L17 21L18 21L18 19ZM26 19L26 20L25 20L25 21L26 21L26 24L27 24L27 22L28 22L28 23L29 23L29 22L31 22L31 20L32 20L32 19L30 19L30 21L26 21L26 20L27 20L27 19ZM28 19L28 20L29 20L29 19ZM14 21L14 22L15 22L15 21ZM4 23L4 24L5 24L5 23ZM30 23L30 24L29 24L29 26L30 26L30 25L31 25L31 23ZM25 25L25 28L28 28L28 25ZM26 26L26 27L27 27L27 26ZM30 27L30 29L29 29L29 30L30 30L30 29L32 29L32 28L31 28L31 27ZM20 29L20 31L21 31L21 29ZM27 29L27 31L28 31L28 29ZM32 32L32 33L33 33L33 32ZM0 0L0 7L7 7L7 0ZM1 1L1 6L6 6L6 1ZM2 2L2 5L5 5L5 2ZM26 0L26 7L33 7L33 0ZM27 1L27 6L32 6L32 1ZM28 2L28 5L31 5L31 2ZM0 26L0 33L7 33L7 26ZM1 27L1 32L6 32L6 27ZM2 28L2 31L5 31L5 28Z" fill="#000000"/></g></g></svg>
