<?xml version="1.0" encoding="UTF-8"?>
<svg xmlns="http://www.w3.org/2000/svg" version="1.1" width="400" height="400" viewBox="0 0 400 400"><rect x="0" y="0" width="400" height="400" fill="#fefefe"/><g transform="scale(9.756)"><g transform="translate(4,4)"><path fill-rule="evenodd" d="M11 0L11 1L8 1L8 3L9 3L9 2L10 2L10 4L8 4L8 8L6 8L6 9L4 9L4 8L3 8L3 9L4 9L4 10L2 10L2 11L3 11L3 12L2 12L2 13L3 13L3 14L1 14L1 13L0 13L0 15L2 15L2 16L0 16L0 18L1 18L1 17L2 17L2 18L3 18L3 19L5 19L5 22L4 22L4 21L3 21L3 24L2 24L2 22L0 22L0 23L1 23L1 24L0 24L0 25L1 25L1 24L2 24L2 25L3 25L3 24L4 24L4 23L5 23L5 22L6 22L6 23L8 23L8 24L6 24L6 25L8 25L8 27L9 27L9 29L8 29L8 30L10 30L10 31L8 31L8 33L9 33L9 32L10 32L10 33L12 33L12 31L13 31L13 30L14 30L14 31L15 31L15 32L16 32L16 33L17 33L17 32L20 32L20 33L23 33L23 32L24 32L24 33L25 33L25 31L26 31L26 32L27 32L27 33L29 33L29 32L30 32L30 31L33 31L33 29L31 29L31 30L30 30L30 31L29 31L29 29L30 29L30 25L29 25L29 24L26 24L26 23L27 23L27 22L28 22L28 23L29 23L29 22L31 22L31 23L33 23L33 21L29 21L29 22L28 22L28 20L30 20L30 19L28 19L28 18L27 18L27 21L26 21L26 22L25 22L25 24L24 24L24 27L23 27L23 25L22 25L22 24L23 24L23 22L22 22L22 23L21 23L21 22L19 22L19 21L16 21L16 22L17 22L17 23L16 23L16 24L14 24L14 22L15 22L15 21L14 21L14 20L13 20L13 19L15 19L15 20L16 20L16 19L17 19L17 20L18 20L18 19L19 19L19 18L17 18L17 17L21 17L21 18L20 18L20 21L23 21L23 20L24 20L24 21L25 21L25 20L26 20L26 17L27 17L27 16L28 16L28 17L29 17L29 16L30 16L30 15L32 15L32 14L33 14L33 9L32 9L32 8L30 8L30 9L29 9L29 8L26 8L26 9L25 9L25 10L24 10L24 11L27 11L27 12L26 12L26 13L25 13L25 14L23 14L23 16L25 16L25 19L23 19L23 20L22 20L22 18L24 18L24 17L22 17L22 13L23 13L23 9L24 9L24 8L25 8L25 6L24 6L24 7L23 7L23 6L22 6L22 5L21 5L21 2L22 2L22 1L23 1L23 3L22 3L22 4L23 4L23 5L24 5L24 2L25 2L25 0L21 0L21 1L20 1L20 0L18 0L18 1L17 1L17 0L15 0L15 4L13 4L13 2L14 2L14 0ZM12 1L12 2L11 2L11 4L12 4L12 2L13 2L13 1ZM19 1L19 3L16 3L16 6L15 6L15 7L14 7L14 5L11 5L11 7L10 7L10 6L9 6L9 7L10 7L10 8L8 8L8 9L6 9L6 10L4 10L4 12L3 12L3 13L5 13L5 14L4 14L4 15L3 15L3 18L5 18L5 19L6 19L6 20L7 20L7 21L6 21L6 22L7 22L7 21L8 21L8 20L7 20L7 19L9 19L9 20L11 20L11 21L9 21L9 23L10 23L10 22L11 22L11 23L12 23L12 24L9 24L9 26L10 26L10 30L11 30L11 31L12 31L12 30L13 30L13 29L14 29L14 30L15 30L15 31L16 31L16 32L17 32L17 31L22 31L22 30L20 30L20 29L21 29L21 26L18 26L18 29L17 29L17 28L15 28L15 27L17 27L17 25L15 25L15 26L14 26L14 25L12 25L12 24L13 24L13 23L12 23L12 22L13 22L13 21L12 21L12 20L11 20L11 19L12 19L12 18L13 18L13 17L14 17L14 18L15 18L15 19L16 19L16 18L15 18L15 17L14 17L14 16L16 16L16 15L17 15L17 14L18 14L18 16L19 16L19 15L20 15L20 16L21 16L21 15L20 15L20 14L19 14L19 13L20 13L20 11L22 11L22 10L20 10L20 9L21 9L21 7L22 7L22 8L23 8L23 7L22 7L22 6L21 6L21 5L20 5L20 4L19 4L19 3L20 3L20 1ZM17 5L17 6L16 6L16 7L15 7L15 8L16 8L16 11L15 11L15 9L14 9L14 8L10 8L10 9L13 9L13 10L12 10L12 11L11 11L11 10L6 10L6 11L7 11L7 12L6 12L6 13L7 13L7 12L8 12L8 13L9 13L9 14L8 14L8 16L6 16L6 15L7 15L7 14L5 14L5 15L4 15L4 16L5 16L5 18L6 18L6 19L7 19L7 18L6 18L6 17L8 17L8 18L9 18L9 19L10 19L10 18L12 18L12 17L13 17L13 16L14 16L14 15L13 15L13 13L14 13L14 14L15 14L15 13L19 13L19 12L16 12L16 11L20 11L20 10L18 10L18 9L19 9L19 8L18 8L18 7L19 7L19 6L20 6L20 7L21 7L21 6L20 6L20 5L19 5L19 6L18 6L18 5ZM12 6L12 7L13 7L13 6ZM17 6L17 7L16 7L16 8L17 8L17 9L18 9L18 8L17 8L17 7L18 7L18 6ZM0 8L0 9L2 9L2 8ZM27 9L27 10L28 10L28 13L29 13L29 14L28 14L28 16L29 16L29 14L31 14L31 12L32 12L32 10L31 10L31 11L30 11L30 12L29 12L29 9ZM13 10L13 11L14 11L14 10ZM0 11L0 12L1 12L1 11ZM8 11L8 12L9 12L9 13L11 13L11 14L9 14L9 15L11 15L11 16L9 16L9 18L10 18L10 17L12 17L12 16L13 16L13 15L11 15L11 14L12 14L12 13L13 13L13 12L11 12L11 11ZM26 14L26 15L25 15L25 16L26 16L26 15L27 15L27 14ZM32 16L32 17L33 17L33 16ZM31 18L31 19L32 19L32 20L33 20L33 18ZM0 20L0 21L1 21L1 20ZM17 23L17 24L18 24L18 25L20 25L20 24L21 24L21 23L20 23L20 24L18 24L18 23ZM25 25L25 28L28 28L28 25ZM31 25L31 27L32 27L32 26L33 26L33 25ZM11 26L11 30L12 30L12 26ZM26 26L26 27L27 27L27 26ZM13 27L13 28L14 28L14 29L15 29L15 28L14 28L14 27ZM19 27L19 29L18 29L18 30L19 30L19 29L20 29L20 27ZM22 27L22 29L24 29L24 30L23 30L23 31L24 31L24 30L25 30L25 29L24 29L24 28L23 28L23 27ZM16 29L16 31L17 31L17 29ZM26 30L26 31L27 31L27 30ZM28 31L28 32L29 32L29 31ZM13 32L13 33L14 33L14 32ZM31 32L31 33L32 33L32 32ZM0 0L0 7L7 7L7 0ZM1 1L1 6L6 6L6 1ZM2 2L2 5L5 5L5 2ZM26 0L26 7L33 7L33 0ZM27 1L27 6L32 6L32 1ZM28 2L28 5L31 5L31 2ZM0 26L0 33L7 33L7 26ZM1 27L1 32L6 32L6 27ZM2 28L2 31L5 31L5 28Z" fill="#000000"/></g></g></svg>
