<?xml version="1.0" encoding="UTF-8"?>
<svg xmlns="http://www.w3.org/2000/svg" version="1.1" width="400" height="400" viewBox="0 0 400 400"><rect x="0" y="0" width="400" height="400" fill="#fefefe"/><g transform="scale(9.756)"><g transform="translate(4,4)"><path fill-rule="evenodd" d="M9 0L9 1L8 1L8 3L9 3L9 4L8 4L8 8L6 8L6 9L7 9L7 10L6 10L6 11L2 11L2 12L6 12L6 13L8 13L8 14L6 14L6 15L5 15L5 17L3 17L3 18L2 18L2 17L1 17L1 16L2 16L2 15L4 15L4 14L5 14L5 13L4 13L4 14L3 14L3 13L2 13L2 14L1 14L1 9L2 9L2 8L0 8L0 15L1 15L1 16L0 16L0 21L1 21L1 22L0 22L0 23L1 23L1 24L0 24L0 25L1 25L1 24L2 24L2 25L7 25L7 24L5 24L5 23L7 23L7 22L5 22L5 21L8 21L8 27L9 27L9 26L10 26L10 28L9 28L9 29L8 29L8 30L9 30L9 31L8 31L8 33L9 33L9 31L10 31L10 32L12 32L12 31L13 31L13 30L14 30L14 31L15 31L15 32L16 32L16 33L17 33L17 32L19 32L19 31L17 31L17 29L18 29L18 30L19 30L19 29L20 29L20 32L21 32L21 33L22 33L22 31L23 31L23 30L24 30L24 32L23 32L23 33L25 33L25 32L26 32L26 33L29 33L29 32L30 32L30 31L33 31L33 27L32 27L32 26L33 26L33 25L31 25L31 27L32 27L32 29L31 29L31 30L30 30L30 31L29 31L29 29L30 29L30 25L29 25L29 24L25 24L25 22L24 22L24 23L23 23L23 22L22 22L22 23L21 23L21 25L23 25L23 24L24 24L24 27L23 27L23 26L22 26L22 27L19 27L19 29L18 29L18 26L20 26L20 25L18 25L18 24L19 24L19 23L20 23L20 22L19 22L19 21L16 21L16 22L17 22L17 23L16 23L16 24L14 24L14 22L15 22L15 21L14 21L14 20L13 20L13 19L15 19L15 20L16 20L16 19L17 19L17 20L18 20L18 19L19 19L19 18L17 18L17 17L20 17L20 18L22 18L22 17L23 17L23 18L24 18L24 17L23 17L23 16L25 16L25 19L23 19L23 20L22 20L22 19L21 19L21 20L20 20L20 21L23 21L23 20L24 20L24 21L25 21L25 20L26 20L26 17L27 17L27 16L28 16L28 17L29 17L29 16L30 16L30 15L32 15L32 14L33 14L33 9L32 9L32 8L30 8L30 9L29 9L29 8L26 8L26 10L25 10L25 6L24 6L24 7L23 7L23 6L22 6L22 7L21 7L21 6L20 6L20 5L21 5L21 2L22 2L22 1L23 1L23 3L22 3L22 4L23 4L23 5L25 5L25 3L24 3L24 2L25 2L25 0L19 0L19 1L21 1L21 2L19 2L19 3L18 3L18 2L17 2L17 0L15 0L15 4L13 4L13 5L14 5L14 7L15 7L15 8L16 8L16 11L15 11L15 9L14 9L14 8L13 8L13 6L12 6L12 5L11 5L11 6L10 6L10 5L9 5L9 4L12 4L12 3L13 3L13 2L14 2L14 0L12 0L12 1L11 1L11 2L9 2L9 1L10 1L10 0ZM16 3L16 6L15 6L15 7L16 7L16 8L17 8L17 9L18 9L18 10L20 10L20 11L22 11L22 13L23 13L23 14L21 14L21 15L22 15L22 16L23 16L23 14L24 14L24 11L25 11L25 10L24 10L24 9L23 9L23 8L22 8L22 10L20 10L20 9L21 9L21 7L20 7L20 6L19 6L19 9L18 9L18 8L17 8L17 7L18 7L18 3ZM19 4L19 5L20 5L20 4ZM9 6L9 7L10 7L10 8L8 8L8 10L7 10L7 11L6 11L6 12L7 12L7 11L9 11L9 12L8 12L8 13L12 13L12 12L13 12L13 11L14 11L14 10L13 10L13 8L12 8L12 6L11 6L11 7L10 7L10 6ZM16 6L16 7L17 7L17 6ZM3 8L3 9L4 9L4 10L5 10L5 9L4 9L4 8ZM10 8L10 10L9 10L9 11L11 11L11 10L12 10L12 9L11 9L11 8ZM28 9L28 10L26 10L26 11L28 11L28 13L29 13L29 14L26 14L26 13L25 13L25 14L26 14L26 16L27 16L27 15L28 15L28 16L29 16L29 14L31 14L31 12L32 12L32 10L31 10L31 11L30 11L30 12L29 12L29 11L28 11L28 10L29 10L29 9ZM22 10L22 11L23 11L23 10ZM16 11L16 12L19 12L19 13L15 13L15 14L14 14L14 13L13 13L13 15L14 15L14 16L13 16L13 17L9 17L9 18L8 18L8 15L6 15L6 16L7 16L7 17L5 17L5 18L7 18L7 19L4 19L4 20L3 20L3 19L2 19L2 18L1 18L1 20L3 20L3 24L4 24L4 20L9 20L9 19L10 19L10 21L9 21L9 23L10 23L10 21L11 21L11 23L12 23L12 24L10 24L10 25L11 25L11 26L13 26L13 27L12 27L12 30L11 30L11 28L10 28L10 29L9 29L9 30L11 30L11 31L12 31L12 30L13 30L13 29L14 29L14 30L15 30L15 31L16 31L16 32L17 32L17 31L16 31L16 29L17 29L17 28L15 28L15 27L17 27L17 25L15 25L15 26L14 26L14 25L12 25L12 24L13 24L13 23L12 23L12 21L13 21L13 20L11 20L11 19L13 19L13 17L14 17L14 18L15 18L15 19L16 19L16 18L15 18L15 17L14 17L14 16L16 16L16 15L17 15L17 14L18 14L18 16L20 16L20 17L21 17L21 16L20 16L20 14L19 14L19 13L20 13L20 12L19 12L19 11ZM9 14L9 15L11 15L11 16L12 16L12 14ZM32 16L32 17L33 17L33 16ZM27 18L27 21L26 21L26 23L27 23L27 22L28 22L28 23L29 23L29 22L31 22L31 23L33 23L33 21L29 21L29 22L28 22L28 20L30 20L30 19L29 19L29 18ZM31 18L31 19L32 19L32 20L33 20L33 18ZM17 23L17 24L18 24L18 23ZM25 25L25 28L28 28L28 25ZM26 26L26 27L27 27L27 26ZM13 27L13 28L14 28L14 29L15 29L15 28L14 28L14 27ZM22 27L22 29L24 29L24 28L23 28L23 27ZM20 28L20 29L21 29L21 28ZM27 29L27 30L26 30L26 32L29 32L29 31L28 31L28 29ZM13 32L13 33L14 33L14 32ZM31 32L31 33L32 33L32 32ZM0 0L0 7L7 7L7 0ZM1 1L1 6L6 6L6 1ZM2 2L2 5L5 5L5 2ZM26 0L26 7L33 7L33 0ZM27 1L27 6L32 6L32 1ZM28 2L28 5L31 5L31 2ZM0 26L0 33L7 33L7 26ZM1 27L1 32L6 32L6 27ZM2 28L2 31L5 31L5 28Z" fill="#000000"/></g></g></svg>
