<?xml version="1.0" encoding="UTF-8"?>
<svg xmlns="http://www.w3.org/2000/svg" version="1.1" width="400" height="400" viewBox="0 0 400 400"><rect x="0" y="0" width="400" height="400" fill="#fefefe"/><g transform="scale(9.756)"><g transform="translate(4,4)"><path fill-rule="evenodd" d="M9 0L9 1L10 1L10 0ZM12 0L12 2L11 2L11 4L10 4L10 2L9 2L9 3L8 3L8 5L9 5L9 4L10 4L10 8L9 8L9 10L10 10L10 11L9 11L9 13L7 13L7 12L8 12L8 10L5 10L5 9L8 9L8 8L5 8L5 9L3 9L3 10L5 10L5 11L1 11L1 12L0 12L0 13L2 13L2 12L3 12L3 13L4 13L4 14L2 14L2 16L0 16L0 17L2 17L2 18L3 18L3 20L2 20L2 19L1 19L1 18L0 18L0 19L1 19L1 20L2 20L2 21L3 21L3 22L2 22L2 23L3 23L3 24L1 24L1 21L0 21L0 25L4 25L4 24L5 24L5 25L8 25L8 28L9 28L9 31L8 31L8 33L9 33L9 31L10 31L10 33L12 33L12 32L13 32L13 33L14 33L14 32L15 32L15 33L16 33L16 32L17 32L17 33L18 33L18 32L17 32L17 31L18 31L18 30L17 30L17 29L18 29L18 28L19 28L19 27L18 27L18 28L17 28L17 29L16 29L16 28L15 28L15 27L17 27L17 23L19 23L19 22L20 22L20 23L22 23L22 24L23 24L23 25L24 25L24 26L23 26L23 28L24 28L24 30L23 30L23 29L22 29L22 30L21 30L21 31L20 31L20 29L21 29L21 28L20 28L20 29L19 29L19 31L20 31L20 33L21 33L21 31L22 31L22 32L24 32L24 33L30 33L30 32L31 32L31 33L32 33L32 32L31 32L31 29L33 29L33 27L32 27L32 26L33 26L33 25L32 25L32 24L33 24L33 23L30 23L30 24L28 24L28 22L29 22L29 21L30 21L30 20L31 20L31 19L30 19L30 18L32 18L32 20L33 20L33 17L32 17L32 16L33 16L33 15L32 15L32 14L33 14L33 12L32 12L32 10L29 10L29 9L30 9L30 8L28 8L28 9L27 9L27 10L29 10L29 14L30 14L30 16L31 16L31 17L30 17L30 18L28 18L28 17L29 17L29 15L28 15L28 16L27 16L27 15L26 15L26 14L27 14L27 12L28 12L28 11L27 11L27 12L26 12L26 11L25 11L25 12L23 12L23 14L22 14L22 16L23 16L23 14L24 14L24 15L25 15L25 16L27 16L27 17L26 17L26 18L28 18L28 19L27 19L27 20L28 20L28 22L26 22L26 21L25 21L25 20L26 20L26 19L25 19L25 20L23 20L23 21L21 21L21 19L24 19L24 18L25 18L25 17L22 17L22 18L21 18L21 17L19 17L19 15L18 15L18 16L16 16L16 15L17 15L17 14L21 14L21 11L22 11L22 10L21 10L21 6L20 6L20 9L19 9L19 6L18 6L18 5L17 5L17 6L16 6L16 8L15 8L15 11L18 11L18 13L17 13L17 12L16 12L16 13L15 13L15 12L14 12L14 14L15 14L15 15L14 15L14 16L13 16L13 14L12 14L12 11L14 11L14 10L13 10L13 9L14 9L14 8L13 8L13 6L14 6L14 7L15 7L15 6L14 6L14 5L13 5L13 4L15 4L15 3L13 3L13 2L14 2L14 1L13 1L13 0ZM16 0L16 1L17 1L17 2L19 2L19 3L16 3L16 4L19 4L19 5L20 5L20 4L19 4L19 3L21 3L21 4L22 4L22 5L24 5L24 8L25 8L25 4L23 4L23 3L24 3L24 2L25 2L25 0L24 0L24 2L23 2L23 0L22 0L22 2L19 2L19 1L18 1L18 0ZM20 0L20 1L21 1L21 0ZM12 3L12 4L13 4L13 3ZM11 5L11 7L12 7L12 5ZM8 6L8 7L9 7L9 6ZM17 6L17 8L16 8L16 10L18 10L18 9L17 9L17 8L18 8L18 6ZM22 6L22 8L23 8L23 6ZM0 8L0 9L1 9L1 10L2 10L2 8ZM10 8L10 9L12 9L12 8ZM23 9L23 10L25 10L25 9ZM11 10L11 11L10 11L10 14L8 14L8 15L9 15L9 17L10 17L10 18L9 18L9 19L8 19L8 16L7 16L7 15L5 15L5 14L4 14L4 15L3 15L3 16L2 16L2 17L3 17L3 18L4 18L4 19L5 19L5 22L7 22L7 23L5 23L5 24L7 24L7 23L8 23L8 24L9 24L9 23L10 23L10 26L11 26L11 27L10 27L10 29L13 29L13 30L12 30L12 31L11 31L11 32L12 32L12 31L13 31L13 32L14 32L14 31L13 31L13 30L14 30L14 29L15 29L15 28L14 28L14 27L15 27L15 26L14 26L14 22L15 22L15 20L16 20L16 19L14 19L14 17L15 17L15 18L16 18L16 16L14 16L14 17L13 17L13 19L11 19L11 17L12 17L12 16L11 16L11 17L10 17L10 14L11 14L11 15L12 15L12 14L11 14L11 11L12 11L12 10ZM19 10L19 11L21 11L21 10ZM6 11L6 12L4 12L4 13L6 13L6 14L7 14L7 13L6 13L6 12L7 12L7 11ZM30 12L30 13L32 13L32 12ZM24 13L24 14L25 14L25 13ZM0 14L0 15L1 15L1 14ZM4 16L4 17L5 17L5 16ZM6 16L6 17L7 17L7 16ZM17 17L17 20L18 20L18 21L16 21L16 23L17 23L17 22L19 22L19 21L20 21L20 19L21 19L21 18L20 18L20 19L19 19L19 20L18 20L18 17ZM5 18L5 19L7 19L7 18ZM10 19L10 21L8 21L8 20L6 20L6 21L8 21L8 22L10 22L10 23L11 23L11 26L13 26L13 21L14 21L14 20L11 20L11 19ZM28 19L28 20L30 20L30 19ZM3 22L3 23L4 23L4 22ZM11 22L11 23L12 23L12 22ZM23 22L23 24L27 24L27 23L26 23L26 22L25 22L25 23L24 23L24 22ZM15 24L15 25L16 25L16 24ZM30 24L30 25L29 25L29 28L30 28L30 29L29 29L29 30L30 30L30 29L31 29L31 28L30 28L30 27L31 27L31 26L30 26L30 25L31 25L31 24ZM19 25L19 26L20 26L20 25ZM25 25L25 28L28 28L28 25ZM26 26L26 27L27 27L27 26ZM11 27L11 28L13 28L13 29L14 29L14 28L13 28L13 27ZM25 29L25 30L24 30L24 32L25 32L25 31L26 31L26 32L27 32L27 29ZM32 30L32 31L33 31L33 30ZM15 31L15 32L16 32L16 31ZM28 31L28 32L30 32L30 31ZM0 0L0 7L7 7L7 0ZM1 1L1 6L6 6L6 1ZM2 2L2 5L5 5L5 2ZM26 0L26 7L33 7L33 0ZM27 1L27 6L32 6L32 1ZM28 2L28 5L31 5L31 2ZM0 26L0 33L7 33L7 26ZM1 27L1 32L6 32L6 27ZM2 28L2 31L5 31L5 28Z" fill="#000000"/></g></g></svg>
