<?xml version="1.0" encoding="UTF-8"?>
<svg xmlns="http://www.w3.org/2000/svg" version="1.1" width="400" height="400" viewBox="0 0 400 400"><rect x="0" y="0" width="400" height="400" fill="#fefefe"/><g transform="scale(9.756)"><g transform="translate(4,4)"><path fill-rule="evenodd" d="M11 0L11 1L8 1L8 3L9 3L9 2L10 2L10 4L8 4L8 8L6 8L6 9L8 9L8 13L7 13L7 12L6 12L6 11L7 11L7 10L6 10L6 11L5 11L5 9L4 9L4 8L3 8L3 9L2 9L2 8L0 8L0 9L2 9L2 10L0 10L0 11L2 11L2 12L4 12L4 13L0 13L0 14L1 14L1 15L0 15L0 17L2 17L2 18L0 18L0 21L1 21L1 22L0 22L0 23L1 23L1 24L0 24L0 25L1 25L1 24L4 24L4 25L8 25L8 27L9 27L9 29L8 29L8 30L10 30L10 31L11 31L11 32L12 32L12 31L13 31L13 30L14 30L14 31L15 31L15 32L16 32L16 33L17 33L17 32L19 32L19 33L26 33L26 32L25 32L25 31L26 31L26 30L27 30L27 29L28 29L28 33L30 33L30 32L29 32L29 29L30 29L30 25L29 25L29 24L28 24L28 23L29 23L29 22L31 22L31 23L33 23L33 21L29 21L29 22L28 22L28 20L30 20L30 19L29 19L29 18L28 18L28 17L29 17L29 16L30 16L30 15L32 15L32 14L33 14L33 9L32 9L32 8L30 8L30 9L29 9L29 8L26 8L26 9L25 9L25 10L24 10L24 11L23 11L23 9L24 9L24 8L23 8L23 6L22 6L22 7L21 7L21 6L20 6L20 5L21 5L21 3L20 3L20 5L18 5L18 7L17 7L17 6L16 6L16 3L18 3L18 1L17 1L17 0L15 0L15 4L13 4L13 2L14 2L14 0ZM19 0L19 1L21 1L21 2L22 2L22 1L23 1L23 3L22 3L22 4L23 4L23 5L24 5L24 2L25 2L25 0ZM12 1L12 2L11 2L11 4L12 4L12 2L13 2L13 1ZM11 5L11 7L10 7L10 6L9 6L9 7L10 7L10 8L8 8L8 9L9 9L9 10L11 10L11 11L9 11L9 13L8 13L8 14L7 14L7 13L5 13L5 14L7 14L7 15L6 15L6 16L5 16L5 15L4 15L4 14L2 14L2 15L1 15L1 16L3 16L3 15L4 15L4 17L5 17L5 18L2 18L2 19L1 19L1 20L5 20L5 21L2 21L2 22L3 22L3 23L4 23L4 24L5 24L5 23L4 23L4 22L7 22L7 23L6 23L6 24L7 24L7 23L8 23L8 22L9 22L9 23L10 23L10 22L9 22L9 21L11 21L11 23L12 23L12 24L11 24L11 25L9 25L9 26L12 26L12 27L11 27L11 28L10 28L10 29L12 29L12 30L11 30L11 31L12 31L12 30L13 30L13 29L14 29L14 30L15 30L15 31L16 31L16 32L17 32L17 31L19 31L19 32L21 32L21 31L23 31L23 32L24 32L24 31L25 31L25 29L24 29L24 28L22 28L22 29L24 29L24 30L21 30L21 29L19 29L19 27L20 27L20 26L18 26L18 29L17 29L17 28L15 28L15 27L17 27L17 25L15 25L15 26L14 26L14 25L12 25L12 24L13 24L13 23L12 23L12 22L13 22L13 21L12 21L12 20L11 20L11 19L12 19L12 18L13 18L13 17L14 17L14 18L15 18L15 19L13 19L13 20L14 20L14 21L15 21L15 22L14 22L14 24L16 24L16 23L17 23L17 24L18 24L18 25L20 25L20 23L19 23L19 24L18 24L18 23L17 23L17 22L16 22L16 21L19 21L19 22L21 22L21 23L22 23L22 22L23 22L23 25L22 25L22 26L21 26L21 27L24 27L24 23L25 23L25 24L26 24L26 23L25 23L25 21L24 21L24 20L23 20L23 21L20 21L20 20L21 20L21 18L20 18L20 17L21 17L21 16L20 16L20 17L17 17L17 18L19 18L19 19L18 19L18 20L17 20L17 19L16 19L16 18L15 18L15 17L14 17L14 16L16 16L16 15L17 15L17 14L18 14L18 16L19 16L19 15L20 15L20 14L21 14L21 9L20 9L20 8L21 8L21 7L20 7L20 6L19 6L19 9L18 9L18 8L17 8L17 7L16 7L16 6L15 6L15 7L14 7L14 5ZM12 6L12 7L13 7L13 6ZM24 6L24 7L25 7L25 6ZM15 7L15 8L16 8L16 11L15 11L15 9L14 9L14 8L10 8L10 9L13 9L13 10L12 10L12 11L11 11L11 12L13 12L13 13L12 13L12 14L11 14L11 13L10 13L10 15L13 15L13 16L12 16L12 17L11 17L11 16L10 16L10 17L9 17L9 16L8 16L8 15L9 15L9 14L8 14L8 15L7 15L7 16L6 16L6 17L8 17L8 18L6 18L6 19L7 19L7 20L6 20L6 21L8 21L8 18L9 18L9 20L10 20L10 19L11 19L11 18L12 18L12 17L13 17L13 16L14 16L14 15L13 15L13 13L14 13L14 14L15 14L15 13L19 13L19 14L20 14L20 13L19 13L19 12L16 12L16 11L20 11L20 10L18 10L18 9L17 9L17 8L16 8L16 7ZM27 9L27 10L28 10L28 11L27 11L27 12L28 12L28 13L29 13L29 14L27 14L27 15L26 15L26 14L25 14L25 16L22 16L22 17L24 17L24 18L23 18L23 19L25 19L25 16L29 16L29 14L31 14L31 12L32 12L32 10L31 10L31 11L30 11L30 12L29 12L29 9ZM3 10L3 11L4 11L4 12L5 12L5 11L4 11L4 10ZM13 10L13 11L14 11L14 10ZM22 11L22 12L23 12L23 13L22 13L22 14L24 14L24 12L23 12L23 11ZM25 11L25 13L26 13L26 11ZM32 16L32 17L33 17L33 16ZM26 17L26 21L27 21L27 17ZM31 18L31 19L32 19L32 20L33 20L33 18ZM15 19L15 20L16 20L16 19ZM25 25L25 28L28 28L28 25ZM31 25L31 27L32 27L32 26L33 26L33 25ZM26 26L26 27L27 27L27 26ZM12 27L12 28L14 28L14 29L15 29L15 28L14 28L14 27ZM16 29L16 31L17 31L17 29ZM18 29L18 30L19 30L19 29ZM31 29L31 30L30 30L30 31L33 31L33 29ZM20 30L20 31L21 31L21 30ZM8 31L8 33L10 33L10 32L9 32L9 31ZM13 32L13 33L14 33L14 32ZM31 32L31 33L32 33L32 32ZM0 0L0 7L7 7L7 0ZM1 1L1 6L6 6L6 1ZM2 2L2 5L5 5L5 2ZM26 0L26 7L33 7L33 0ZM27 1L27 6L32 6L32 1ZM28 2L28 5L31 5L31 2ZM0 26L0 33L7 33L7 26ZM1 27L1 32L6 32L6 27ZM2 28L2 31L5 31L5 28Z" fill="#000000"/></g></g></svg>
