<?xml version="1.0" encoding="UTF-8"?>
<svg xmlns="http://www.w3.org/2000/svg" version="1.1" width="400" height="400" viewBox="0 0 400 400"><rect x="0" y="0" width="400" height="400" fill="#fefefe"/><g transform="scale(9.756)"><g transform="translate(4,4)"><path fill-rule="evenodd" d="M11 0L11 1L8 1L8 3L9 3L9 2L10 2L10 4L8 4L8 8L6 8L6 9L5 9L5 10L4 10L4 8L3 8L3 9L2 9L2 8L0 8L0 10L3 10L3 11L0 11L0 12L1 12L1 13L2 13L2 14L4 14L4 15L5 15L5 16L4 16L4 17L3 17L3 15L0 15L0 17L1 17L1 18L0 18L0 20L1 20L1 22L0 22L0 23L1 23L1 24L0 24L0 25L1 25L1 24L2 24L2 25L7 25L7 24L6 24L6 23L10 23L10 24L8 24L8 27L9 27L9 29L8 29L8 30L9 30L9 31L8 31L8 33L10 33L10 32L12 32L12 31L11 31L11 30L12 30L12 29L11 29L11 28L12 28L12 26L11 26L11 28L10 28L10 26L9 26L9 25L11 25L11 24L12 24L12 25L14 25L14 26L15 26L15 25L17 25L17 27L15 27L15 28L14 28L14 27L13 27L13 28L14 28L14 29L13 29L13 30L14 30L14 32L13 32L13 33L14 33L14 32L16 32L16 33L17 33L17 32L19 32L19 31L17 31L17 29L18 29L18 30L19 30L19 29L20 29L20 30L21 30L21 31L20 31L20 32L21 32L21 33L22 33L22 32L24 32L24 33L25 33L25 32L26 32L26 33L27 33L27 32L26 32L26 30L27 30L27 31L28 31L28 33L30 33L30 32L29 32L29 29L30 29L30 25L29 25L29 24L28 24L28 23L29 23L29 22L31 22L31 23L33 23L33 21L29 21L29 22L28 22L28 23L27 23L27 21L26 21L26 17L27 17L27 20L30 20L30 19L28 19L28 17L29 17L29 16L30 16L30 15L32 15L32 14L33 14L33 9L32 9L32 8L30 8L30 9L29 9L29 8L26 8L26 9L25 9L25 11L26 11L26 13L25 13L25 14L22 14L22 13L23 13L23 12L24 12L24 11L23 11L23 10L22 10L22 8L23 8L23 9L24 9L24 7L25 7L25 6L24 6L24 7L23 7L23 6L22 6L22 5L24 5L24 3L25 3L25 2L24 2L24 1L25 1L25 0L19 0L19 1L17 1L17 0L15 0L15 4L13 4L13 2L14 2L14 0ZM12 1L12 2L11 2L11 4L12 4L12 2L13 2L13 1ZM19 1L19 3L16 3L16 6L15 6L15 7L14 7L14 5L11 5L11 7L10 7L10 6L9 6L9 7L10 7L10 8L8 8L8 9L6 9L6 10L5 10L5 11L3 11L3 12L2 12L2 13L4 13L4 12L5 12L5 13L6 13L6 14L7 14L7 15L6 15L6 16L7 16L7 15L8 15L8 17L4 17L4 18L5 18L5 20L7 20L7 21L6 21L6 22L9 22L9 20L10 20L10 23L12 23L12 24L13 24L13 23L12 23L12 22L13 22L13 21L12 21L12 20L10 20L10 19L12 19L12 18L13 18L13 17L14 17L14 18L15 18L15 19L13 19L13 20L14 20L14 21L15 21L15 22L14 22L14 24L16 24L16 23L17 23L17 24L18 24L18 25L20 25L20 26L18 26L18 29L19 29L19 27L20 27L20 29L21 29L21 27L22 27L22 28L23 28L23 29L22 29L22 31L24 31L24 30L25 30L25 29L24 29L24 28L23 28L23 27L24 27L24 24L25 24L25 21L24 21L24 20L23 20L23 19L25 19L25 16L29 16L29 14L31 14L31 12L32 12L32 10L31 10L31 11L30 11L30 12L28 12L28 13L29 13L29 14L28 14L28 15L27 15L27 14L25 14L25 16L23 16L23 15L22 15L22 17L24 17L24 18L23 18L23 19L22 19L22 20L23 20L23 21L20 21L20 20L19 20L19 19L21 19L21 18L20 18L20 17L21 17L21 15L20 15L20 14L19 14L19 13L20 13L20 12L21 12L21 11L22 11L22 10L21 10L21 11L20 11L20 12L19 12L19 11L16 11L16 8L17 8L17 9L18 9L18 10L20 10L20 9L21 9L21 7L22 7L22 6L21 6L21 4L23 4L23 3L24 3L24 2L23 2L23 1L22 1L22 2L21 2L21 3L20 3L20 1ZM19 3L19 4L20 4L20 3ZM17 5L17 6L16 6L16 7L15 7L15 8L16 8L16 7L17 7L17 8L18 8L18 9L19 9L19 8L18 8L18 7L19 7L19 6L20 6L20 7L21 7L21 6L20 6L20 5L19 5L19 6L18 6L18 5ZM12 6L12 7L13 7L13 6ZM17 6L17 7L18 7L18 6ZM10 8L10 9L13 9L13 10L12 10L12 11L11 11L11 10L8 10L8 11L7 11L7 10L6 10L6 11L5 11L5 12L6 12L6 13L7 13L7 14L8 14L8 15L9 15L9 16L10 16L10 14L11 14L11 15L13 15L13 16L12 16L12 17L8 17L8 18L6 18L6 19L7 19L7 20L8 20L8 19L10 19L10 18L12 18L12 17L13 17L13 16L14 16L14 17L15 17L15 18L16 18L16 19L15 19L15 20L16 20L16 19L17 19L17 20L18 20L18 19L19 19L19 18L17 18L17 17L20 17L20 16L18 16L18 14L17 14L17 15L16 15L16 16L14 16L14 15L13 15L13 13L14 13L14 14L15 14L15 13L19 13L19 12L16 12L16 11L15 11L15 9L14 9L14 8ZM27 9L27 11L29 11L29 9ZM13 10L13 11L14 11L14 10ZM6 11L6 12L7 12L7 13L8 13L8 12L7 12L7 11ZM9 11L9 14L10 14L10 13L11 13L11 14L12 14L12 13L13 13L13 12L11 12L11 11ZM1 16L1 17L2 17L2 18L3 18L3 17L2 17L2 16ZM32 16L32 17L33 17L33 16ZM31 18L31 19L32 19L32 20L33 20L33 18ZM1 19L1 20L2 20L2 22L5 22L5 21L3 21L3 19ZM16 21L16 22L17 22L17 23L18 23L18 24L21 24L21 25L23 25L23 22L22 22L22 23L21 23L21 22L19 22L19 21ZM26 23L26 24L27 24L27 23ZM25 25L25 28L28 28L28 25ZM31 25L31 27L32 27L32 26L33 26L33 25ZM22 26L22 27L23 27L23 26ZM26 26L26 27L27 27L27 26ZM15 28L15 29L14 29L14 30L15 30L15 31L16 31L16 32L17 32L17 31L16 31L16 29L17 29L17 28ZM9 29L9 30L11 30L11 29ZM23 29L23 30L24 30L24 29ZM31 29L31 30L30 30L30 31L33 31L33 29ZM31 32L31 33L32 33L32 32ZM0 0L0 7L7 7L7 0ZM1 1L1 6L6 6L6 1ZM2 2L2 5L5 5L5 2ZM26 0L26 7L33 7L33 0ZM27 1L27 6L32 6L32 1ZM28 2L28 5L31 5L31 2ZM0 26L0 33L7 33L7 26ZM1 27L1 32L6 32L6 27ZM2 28L2 31L5 31L5 28Z" fill="#000000"/></g></g></svg>
