<?xml version="1.0" encoding="UTF-8"?>
<svg xmlns="http://www.w3.org/2000/svg" version="1.1" width="400" height="400" viewBox="0 0 400 400"><rect x="0" y="0" width="400" height="400" fill="#fefefe"/><g transform="scale(9.756)"><g transform="translate(4,4)"><path fill-rule="evenodd" d="M8 0L8 4L9 4L9 5L8 5L8 7L9 7L9 8L10 8L10 7L11 7L11 5L12 5L12 7L13 7L13 5L14 5L14 7L15 7L15 8L14 8L14 9L13 9L13 8L12 8L12 9L11 9L11 11L10 11L10 13L9 13L9 12L8 12L8 10L10 10L10 9L8 9L8 10L5 10L5 11L3 11L3 10L4 10L4 9L7 9L7 8L4 8L4 9L2 9L2 8L0 8L0 11L1 11L1 12L2 12L2 11L3 11L3 13L0 13L0 14L4 14L4 15L2 15L2 16L1 16L1 15L0 15L0 16L1 16L1 17L0 17L0 18L1 18L1 19L0 19L0 20L1 20L1 21L0 21L0 22L1 22L1 21L2 21L2 23L4 23L4 24L3 24L3 25L5 25L5 24L6 24L6 25L7 25L7 24L6 24L6 23L9 23L9 24L8 24L8 26L11 26L11 27L10 27L10 28L11 28L11 27L12 27L12 26L14 26L14 25L15 25L15 28L14 28L14 29L9 29L9 27L8 27L8 29L9 29L9 31L8 31L8 33L9 33L9 31L12 31L12 30L14 30L14 29L15 29L15 32L14 32L14 33L15 33L15 32L16 32L16 31L17 31L17 33L18 33L18 32L19 32L19 33L25 33L25 32L26 32L26 31L27 31L27 29L28 29L28 32L29 32L29 31L30 31L30 30L31 30L31 31L32 31L32 30L33 30L33 29L30 29L30 27L31 27L31 28L32 28L32 26L31 26L31 25L32 25L32 24L33 24L33 23L31 23L31 22L32 22L32 21L33 21L33 19L32 19L32 18L31 18L31 17L30 17L30 18L26 18L26 17L29 17L29 16L30 16L30 14L31 14L31 16L32 16L32 17L33 17L33 16L32 16L32 14L31 14L31 13L29 13L29 10L27 10L27 12L26 12L26 10L25 10L25 9L23 9L23 8L22 8L22 7L23 7L23 6L22 6L22 7L21 7L21 6L20 6L20 5L24 5L24 8L25 8L25 5L24 5L24 3L25 3L25 0L23 0L23 1L22 1L22 0L21 0L21 1L22 1L22 2L21 2L21 3L20 3L20 5L19 5L19 3L18 3L18 2L16 2L16 3L15 3L15 4L14 4L14 3L12 3L12 4L9 4L9 3L11 3L11 2L9 2L9 0ZM10 0L10 1L12 1L12 2L13 2L13 0ZM15 0L15 1L14 1L14 2L15 2L15 1L16 1L16 0ZM18 0L18 1L19 1L19 2L20 2L20 1L19 1L19 0ZM23 1L23 2L22 2L22 3L21 3L21 4L22 4L22 3L23 3L23 2L24 2L24 1ZM17 3L17 4L16 4L16 5L15 5L15 7L16 7L16 8L15 8L15 9L14 9L14 11L13 11L13 10L12 10L12 11L11 11L11 13L10 13L10 15L11 15L11 16L10 16L10 18L9 18L9 17L8 17L8 13L6 13L6 12L7 12L7 11L6 11L6 12L4 12L4 14L7 14L7 15L6 15L6 16L7 16L7 17L6 17L6 18L8 18L8 19L6 19L6 20L5 20L5 21L3 21L3 20L4 20L4 19L5 19L5 16L2 16L2 18L3 18L3 20L2 20L2 19L1 19L1 20L2 20L2 21L3 21L3 22L5 22L5 21L6 21L6 22L7 22L7 21L8 21L8 19L9 19L9 20L10 20L10 21L11 21L11 20L10 20L10 18L11 18L11 17L12 17L12 16L13 16L13 17L14 17L14 19L13 19L13 18L12 18L12 19L13 19L13 21L14 21L14 22L15 22L15 21L16 21L16 20L17 20L17 19L18 19L18 21L17 21L17 23L13 23L13 22L12 22L12 23L11 23L11 22L10 22L10 23L11 23L11 24L10 24L10 25L12 25L12 24L13 24L13 25L14 25L14 24L16 24L16 25L17 25L17 26L16 26L16 28L15 28L15 29L17 29L17 30L19 30L19 31L20 31L20 32L21 32L21 30L23 30L23 31L22 31L22 32L23 32L23 31L25 31L25 30L23 30L23 29L24 29L24 24L27 24L27 23L29 23L29 22L31 22L31 20L32 20L32 19L30 19L30 21L26 21L26 20L27 20L27 19L26 19L26 20L25 20L25 21L26 21L26 23L25 23L25 22L24 22L24 23L23 23L23 20L22 20L22 25L19 25L19 24L20 24L20 23L21 23L21 22L20 22L20 21L21 21L21 17L19 17L19 18L18 18L18 17L17 17L17 19L16 19L16 20L15 20L15 18L16 18L16 17L14 17L14 16L17 16L17 14L16 14L16 15L15 15L15 13L14 13L14 12L15 12L15 9L17 9L17 10L16 10L16 11L18 11L18 12L19 12L19 11L20 11L20 13L19 13L19 15L18 15L18 16L19 16L19 15L20 15L20 16L21 16L21 15L22 15L22 17L25 17L25 16L26 16L26 15L27 15L27 16L28 16L28 15L29 15L29 13L25 13L25 12L24 12L24 11L25 11L25 10L24 10L24 11L23 11L23 9L21 9L21 8L20 8L20 9L19 9L19 10L18 10L18 9L17 9L17 7L18 7L18 8L19 8L19 7L20 7L20 6L19 6L19 5L18 5L18 3ZM9 5L9 7L10 7L10 5ZM17 5L17 6L16 6L16 7L17 7L17 6L18 6L18 7L19 7L19 6L18 6L18 5ZM27 8L27 9L28 9L28 8ZM29 8L29 9L31 9L31 12L32 12L32 13L33 13L33 12L32 12L32 9L33 9L33 8ZM1 9L1 11L2 11L2 9ZM20 9L20 11L21 11L21 13L20 13L20 15L21 15L21 13L23 13L23 14L22 14L22 15L23 15L23 16L25 16L25 15L24 15L24 14L25 14L25 13L23 13L23 11L22 11L22 10L21 10L21 9ZM12 11L12 12L13 12L13 11ZM16 12L16 13L17 13L17 12ZM11 13L11 15L12 15L12 13ZM13 13L13 14L14 14L14 13ZM3 17L3 18L4 18L4 17ZM28 19L28 20L29 20L29 19ZM6 20L6 21L7 21L7 20ZM14 20L14 21L15 21L15 20ZM19 20L19 21L20 21L20 20ZM17 23L17 25L18 25L18 24L19 24L19 23ZM30 23L30 24L29 24L29 26L30 26L30 25L31 25L31 23ZM0 24L0 25L2 25L2 24ZM22 25L22 26L20 26L20 27L19 27L19 26L17 26L17 29L18 29L18 27L19 27L19 29L20 29L20 30L21 30L21 29L23 29L23 27L22 27L22 26L23 26L23 25ZM25 25L25 28L28 28L28 25ZM26 26L26 27L27 27L27 26ZM20 27L20 29L21 29L21 27ZM29 29L29 30L30 30L30 29ZM10 32L10 33L11 33L11 32ZM32 32L32 33L33 33L33 32ZM0 0L0 7L7 7L7 0ZM1 1L1 6L6 6L6 1ZM2 2L2 5L5 5L5 2ZM26 0L26 7L33 7L33 0ZM27 1L27 6L32 6L32 1ZM28 2L28 5L31 5L31 2ZM0 26L0 33L7 33L7 26ZM1 27L1 32L6 32L6 27ZM2 28L2 31L5 31L5 28Z" fill="#000000"/></g></g></svg>
