<?xml version="1.0" encoding="UTF-8"?>
<svg xmlns="http://www.w3.org/2000/svg" version="1.1" width="400" height="400" viewBox="0 0 400 400"><rect x="0" y="0" width="400" height="400" fill="#fefefe"/><g transform="scale(9.756)"><g transform="translate(4,4)"><path fill-rule="evenodd" d="M11 0L11 1L8 1L8 3L9 3L9 2L10 2L10 4L8 4L8 8L6 8L6 9L4 9L4 8L3 8L3 9L2 9L2 8L0 8L0 10L1 10L1 11L0 11L0 12L4 12L4 13L3 13L3 15L4 15L4 14L5 14L5 15L8 15L8 14L9 14L9 11L11 11L11 12L13 12L13 13L12 13L12 14L11 14L11 13L10 13L10 17L8 17L8 16L2 16L2 15L1 15L1 13L0 13L0 15L1 15L1 17L8 17L8 19L7 19L7 18L6 18L6 19L5 19L5 18L4 18L4 19L2 19L2 20L1 20L1 19L0 19L0 20L1 20L1 21L2 21L2 22L0 22L0 23L1 23L1 24L0 24L0 25L1 25L1 24L2 24L2 25L4 25L4 24L5 24L5 25L7 25L7 24L8 24L8 23L7 23L7 22L4 22L4 24L2 24L2 23L3 23L3 20L4 20L4 19L5 19L5 21L7 21L7 20L8 20L8 19L9 19L9 18L10 18L10 19L11 19L11 20L12 20L12 21L13 21L13 22L12 22L12 23L11 23L11 21L10 21L10 22L9 22L9 23L11 23L11 24L12 24L12 25L14 25L14 26L15 26L15 25L17 25L17 27L15 27L15 28L14 28L14 27L13 27L13 26L10 26L10 24L9 24L9 25L8 25L8 27L9 27L9 26L10 26L10 29L8 29L8 30L9 30L9 31L8 31L8 33L10 33L10 32L9 32L9 31L10 31L10 29L11 29L11 30L12 30L12 27L13 27L13 28L14 28L14 29L13 29L13 30L14 30L14 31L15 31L15 32L16 32L16 33L17 33L17 32L19 32L19 31L17 31L17 29L18 29L18 30L19 30L19 29L21 29L21 30L20 30L20 32L21 32L21 33L22 33L22 32L24 32L24 33L25 33L25 32L26 32L26 33L27 33L27 32L26 32L26 30L27 30L27 29L28 29L28 31L29 31L29 29L30 29L30 25L29 25L29 24L27 24L27 21L26 21L26 17L27 17L27 16L28 16L28 17L29 17L29 16L30 16L30 15L32 15L32 14L33 14L33 9L32 9L32 8L30 8L30 9L29 9L29 8L26 8L26 11L24 11L24 12L25 12L25 13L26 13L26 14L27 14L27 15L26 15L26 16L25 16L25 14L23 14L23 16L25 16L25 19L22 19L22 18L24 18L24 17L22 17L22 15L21 15L21 14L22 14L22 13L23 13L23 11L22 11L22 10L23 10L23 9L24 9L24 10L25 10L25 8L22 8L22 7L23 7L23 6L22 6L22 5L19 5L19 4L20 4L20 3L21 3L21 2L22 2L22 1L23 1L23 2L24 2L24 3L22 3L22 4L23 4L23 5L24 5L24 7L25 7L25 0L21 0L21 2L20 2L20 3L19 3L19 1L20 1L20 0L18 0L18 2L17 2L17 0L15 0L15 4L13 4L13 2L14 2L14 0ZM12 1L12 2L11 2L11 4L12 4L12 2L13 2L13 1ZM16 3L16 6L15 6L15 7L14 7L14 5L11 5L11 7L10 7L10 6L9 6L9 7L10 7L10 8L8 8L8 9L6 9L6 10L11 10L11 11L12 11L12 10L13 10L13 11L14 11L14 10L13 10L13 9L10 9L10 8L14 8L14 9L15 9L15 11L16 11L16 12L19 12L19 13L15 13L15 14L14 14L14 13L13 13L13 15L11 15L11 17L12 17L12 18L11 18L11 19L12 19L12 18L13 18L13 17L14 17L14 18L15 18L15 19L13 19L13 20L14 20L14 21L15 21L15 22L14 22L14 24L16 24L16 23L17 23L17 24L18 24L18 25L20 25L20 26L18 26L18 29L19 29L19 27L20 27L20 26L21 26L21 27L22 27L22 26L21 26L21 24L18 24L18 23L17 23L17 22L16 22L16 21L19 21L19 22L21 22L21 23L22 23L22 22L23 22L23 24L22 24L22 25L24 25L24 22L25 22L25 23L26 23L26 22L25 22L25 21L24 21L24 20L23 20L23 21L20 21L20 20L19 20L19 19L21 19L21 17L17 17L17 18L19 18L19 19L18 19L18 20L17 20L17 19L16 19L16 18L15 18L15 17L14 17L14 16L16 16L16 15L17 15L17 14L18 14L18 16L19 16L19 15L20 15L20 16L21 16L21 15L20 15L20 14L21 14L21 9L20 9L20 6L19 6L19 5L18 5L18 3ZM17 5L17 6L16 6L16 7L15 7L15 8L16 8L16 11L20 11L20 10L18 10L18 9L19 9L19 8L18 8L18 7L19 7L19 6L18 6L18 5ZM12 6L12 7L13 7L13 6ZM17 6L17 7L16 7L16 8L17 8L17 9L18 9L18 8L17 8L17 7L18 7L18 6ZM21 6L21 7L22 7L22 6ZM1 9L1 10L2 10L2 11L4 11L4 12L5 12L5 13L6 13L6 14L8 14L8 13L6 13L6 12L8 12L8 11L6 11L6 12L5 12L5 11L4 11L4 9L3 9L3 10L2 10L2 9ZM28 9L28 10L27 10L27 11L26 11L26 12L27 12L27 14L28 14L28 16L29 16L29 14L31 14L31 12L32 12L32 10L31 10L31 11L30 11L30 12L29 12L29 9ZM19 13L19 14L20 14L20 13ZM28 13L28 14L29 14L29 13ZM13 15L13 16L12 16L12 17L13 17L13 16L14 16L14 15ZM32 16L32 17L33 17L33 16ZM31 18L31 19L32 19L32 20L33 20L33 18ZM6 19L6 20L7 20L7 19ZM15 19L15 20L16 20L16 19ZM27 19L27 20L30 20L30 19ZM29 21L29 22L31 22L31 23L33 23L33 21ZM6 23L6 24L7 24L7 23ZM12 23L12 24L13 24L13 23ZM25 25L25 28L28 28L28 25ZM31 25L31 27L32 27L32 26L33 26L33 25ZM23 26L23 28L22 28L22 29L24 29L24 26ZM26 26L26 27L27 27L27 26ZM15 28L15 29L14 29L14 30L15 30L15 31L16 31L16 32L17 32L17 31L16 31L16 29L17 29L17 28ZM31 29L31 30L30 30L30 31L33 31L33 29ZM21 30L21 31L22 31L22 30ZM23 30L23 31L24 31L24 30ZM11 31L11 33L12 33L12 32L13 32L13 33L14 33L14 32L13 32L13 31ZM28 32L28 33L30 33L30 32ZM31 32L31 33L32 33L32 32ZM0 0L0 7L7 7L7 0ZM1 1L1 6L6 6L6 1ZM2 2L2 5L5 5L5 2ZM26 0L26 7L33 7L33 0ZM27 1L27 6L32 6L32 1ZM28 2L28 5L31 5L31 2ZM0 26L0 33L7 33L7 26ZM1 27L1 32L6 32L6 27ZM2 28L2 31L5 31L5 28Z" fill="#000000"/></g></g></svg>
