<?xml version="1.0" encoding="UTF-8"?>
<svg xmlns="http://www.w3.org/2000/svg" version="1.1" width="400" height="400" viewBox="0 0 400 400"><rect x="0" y="0" width="400" height="400" fill="#fefefe"/><g transform="scale(9.756)"><g transform="translate(4,4)"><path fill-rule="evenodd" d="M11 0L11 1L8 1L8 3L9 3L9 2L10 2L10 4L8 4L8 8L6 8L6 9L5 9L5 10L4 10L4 8L3 8L3 9L2 9L2 8L0 8L0 10L1 10L1 9L2 9L2 12L3 12L3 13L5 13L5 14L6 14L6 15L4 15L4 16L3 16L3 15L2 15L2 14L1 14L1 12L0 12L0 14L1 14L1 15L0 15L0 16L1 16L1 15L2 15L2 18L0 18L0 21L1 21L1 22L0 22L0 23L1 23L1 24L0 24L0 25L1 25L1 24L2 24L2 23L3 23L3 22L2 22L2 21L7 21L7 22L4 22L4 23L5 23L5 24L3 24L3 25L5 25L5 24L6 24L6 25L7 25L7 24L6 24L6 23L7 23L7 22L8 22L8 23L9 23L9 21L10 21L10 23L11 23L11 24L12 24L12 25L14 25L14 26L15 26L15 25L17 25L17 27L15 27L15 28L14 28L14 27L13 27L13 26L11 26L11 25L10 25L10 27L11 27L11 28L14 28L14 29L13 29L13 30L12 30L12 29L11 29L11 30L10 30L10 33L11 33L11 32L12 32L12 31L13 31L13 30L14 30L14 31L15 31L15 32L16 32L16 33L17 33L17 32L19 32L19 31L17 31L17 29L18 29L18 30L19 30L19 29L22 29L22 31L20 31L20 33L25 33L25 31L26 31L26 30L27 30L27 29L28 29L28 32L27 32L27 33L30 33L30 32L29 32L29 29L30 29L30 25L29 25L29 24L23 24L23 22L22 22L22 23L21 23L21 24L20 24L20 22L19 22L19 21L16 21L16 22L17 22L17 23L16 23L16 24L14 24L14 22L15 22L15 21L14 21L14 20L13 20L13 19L15 19L15 20L16 20L16 19L17 19L17 20L18 20L18 19L19 19L19 20L20 20L20 21L23 21L23 20L24 20L24 21L25 21L25 20L26 20L26 17L27 17L27 19L28 19L28 20L30 20L30 19L29 19L29 18L28 18L28 17L29 17L29 16L30 16L30 15L32 15L32 14L33 14L33 9L32 9L32 8L30 8L30 9L29 9L29 8L26 8L26 9L25 9L25 10L26 10L26 11L23 11L23 9L24 9L24 7L25 7L25 6L24 6L24 7L23 7L23 6L22 6L22 7L21 7L21 6L20 6L20 5L19 5L19 4L20 4L20 2L22 2L22 1L23 1L23 2L24 2L24 3L22 3L22 4L23 4L23 5L24 5L24 3L25 3L25 0L21 0L21 1L20 1L20 0L18 0L18 1L17 1L17 0L15 0L15 4L13 4L13 2L14 2L14 0ZM12 1L12 2L11 2L11 4L12 4L12 2L13 2L13 1ZM18 1L18 3L16 3L16 6L15 6L15 7L14 7L14 5L11 5L11 7L10 7L10 6L9 6L9 7L10 7L10 8L8 8L8 9L6 9L6 10L7 10L7 11L5 11L5 12L7 12L7 11L9 11L9 13L8 13L8 14L9 14L9 15L10 15L10 16L8 16L8 19L9 19L9 20L10 20L10 21L11 21L11 23L12 23L12 24L13 24L13 23L12 23L12 22L13 22L13 21L12 21L12 20L11 20L11 19L12 19L12 18L13 18L13 17L14 17L14 18L15 18L15 19L16 19L16 18L15 18L15 17L14 17L14 16L16 16L16 15L17 15L17 14L18 14L18 16L20 16L20 17L17 17L17 18L19 18L19 19L20 19L20 20L21 20L21 19L22 19L22 20L23 20L23 19L25 19L25 16L29 16L29 15L28 15L28 13L29 13L29 14L31 14L31 12L32 12L32 10L31 10L31 11L30 11L30 12L29 12L29 11L28 11L28 10L29 10L29 9L27 9L27 14L25 14L25 13L26 13L26 12L22 12L22 13L23 13L23 14L19 14L19 13L20 13L20 12L21 12L21 11L20 11L20 12L19 12L19 11L16 11L16 8L17 8L17 9L18 9L18 10L21 10L21 9L20 9L20 8L21 8L21 7L20 7L20 6L19 6L19 5L18 5L18 3L19 3L19 2L20 2L20 1ZM12 6L12 7L13 7L13 6ZM16 6L16 7L15 7L15 8L16 8L16 7L17 7L17 8L18 8L18 9L19 9L19 6L18 6L18 7L17 7L17 6ZM10 8L10 9L13 9L13 10L12 10L12 11L11 11L11 10L9 10L9 11L11 11L11 12L13 12L13 13L12 13L12 14L11 14L11 13L9 13L9 14L11 14L11 15L13 15L13 16L12 16L12 17L11 17L11 16L10 16L10 18L9 18L9 19L11 19L11 18L12 18L12 17L13 17L13 16L14 16L14 15L13 15L13 13L14 13L14 14L15 14L15 13L19 13L19 12L16 12L16 11L15 11L15 9L14 9L14 8ZM3 10L3 12L4 12L4 10ZM13 10L13 11L14 11L14 10ZM6 13L6 14L7 14L7 13ZM23 14L23 16L22 16L22 15L20 15L20 16L21 16L21 17L20 17L20 18L22 18L22 17L23 17L23 18L24 18L24 17L23 17L23 16L25 16L25 14ZM6 15L6 16L4 16L4 17L3 17L3 18L5 18L5 17L6 17L6 18L7 18L7 17L6 17L6 16L7 16L7 15ZM32 16L32 17L33 17L33 16ZM31 18L31 19L32 19L32 20L33 20L33 18ZM2 19L2 20L5 20L5 19ZM6 19L6 20L7 20L7 19ZM26 21L26 22L24 22L24 23L28 23L28 22L27 22L27 21ZM29 21L29 22L31 22L31 23L33 23L33 21ZM17 23L17 24L18 24L18 25L20 25L20 24L18 24L18 23ZM8 24L8 27L9 27L9 24ZM22 25L22 26L21 26L21 27L20 27L20 26L18 26L18 29L19 29L19 27L20 27L20 28L21 28L21 27L22 27L22 26L23 26L23 27L24 27L24 25ZM25 25L25 28L28 28L28 25ZM31 25L31 27L32 27L32 26L33 26L33 25ZM26 26L26 27L27 27L27 26ZM9 28L9 29L8 29L8 30L9 30L9 29L10 29L10 28ZM15 28L15 29L14 29L14 30L15 30L15 31L16 31L16 32L17 32L17 31L16 31L16 29L17 29L17 28ZM22 28L22 29L24 29L24 30L25 30L25 29L24 29L24 28ZM31 29L31 30L30 30L30 31L33 31L33 29ZM11 30L11 31L12 31L12 30ZM8 31L8 33L9 33L9 31ZM23 31L23 32L24 32L24 31ZM13 32L13 33L14 33L14 32ZM31 32L31 33L32 33L32 32ZM0 0L0 7L7 7L7 0ZM1 1L1 6L6 6L6 1ZM2 2L2 5L5 5L5 2ZM26 0L26 7L33 7L33 0ZM27 1L27 6L32 6L32 1ZM28 2L28 5L31 5L31 2ZM0 26L0 33L7 33L7 26ZM1 27L1 32L6 32L6 27ZM2 28L2 31L5 31L5 28Z" fill="#000000"/></g></g></svg>
