<?xml version="1.0" encoding="UTF-8"?>
<svg xmlns="http://www.w3.org/2000/svg" version="1.1" width="400" height="400" viewBox="0 0 400 400"><rect x="0" y="0" width="400" height="400" fill="#fefefe"/><g transform="scale(9.756)"><g transform="translate(4,4)"><path fill-rule="evenodd" d="M9 0L9 1L10 1L10 0ZM12 0L12 2L11 2L11 4L10 4L10 2L9 2L9 3L8 3L8 5L9 5L9 4L10 4L10 8L9 8L9 10L8 10L8 8L5 8L5 9L2 9L2 8L0 8L0 9L1 9L1 10L0 10L0 12L1 12L1 15L0 15L0 16L1 16L1 17L0 17L0 18L2 18L2 17L3 17L3 16L4 16L4 15L3 15L3 14L2 14L2 13L3 13L3 10L6 10L6 11L4 11L4 12L6 12L6 13L4 13L4 14L6 14L6 15L7 15L7 16L5 16L5 17L4 17L4 18L3 18L3 19L4 19L4 21L2 21L2 19L1 19L1 21L0 21L0 25L2 25L2 24L3 24L3 25L5 25L5 24L3 24L3 23L4 23L4 22L6 22L6 23L7 23L7 22L9 22L9 23L10 23L10 24L9 24L9 25L8 25L8 28L9 28L9 26L12 26L12 27L11 27L11 28L10 28L10 29L9 29L9 31L8 31L8 33L11 33L11 32L12 32L12 31L14 31L14 32L13 32L13 33L14 33L14 32L15 32L15 33L16 33L16 32L17 32L17 33L18 33L18 32L17 32L17 31L18 31L18 30L17 30L17 29L18 29L18 28L20 28L20 29L19 29L19 31L20 31L20 33L21 33L21 31L22 31L22 32L24 32L24 33L25 33L25 32L24 32L24 31L25 31L25 30L23 30L23 29L22 29L22 30L20 30L20 29L21 29L21 27L22 27L22 28L23 28L23 27L24 27L24 29L28 29L28 31L27 31L27 32L28 32L28 31L29 31L29 32L31 32L31 33L32 33L32 32L31 32L31 29L33 29L33 27L32 27L32 26L33 26L33 25L32 25L32 24L33 24L33 23L30 23L30 24L26 24L26 22L25 22L25 21L26 21L26 19L25 19L25 20L23 20L23 21L21 21L21 19L20 19L20 17L21 17L21 15L22 15L22 16L23 16L23 14L24 14L24 15L25 15L25 13L24 13L24 12L23 12L23 11L22 11L22 9L21 9L21 8L20 8L20 9L19 9L19 5L20 5L20 7L21 7L21 4L22 4L22 5L24 5L24 8L25 8L25 4L24 4L24 3L25 3L25 2L24 2L24 3L23 3L23 0L22 0L22 2L21 2L21 0L20 0L20 2L21 2L21 3L20 3L20 4L19 4L19 1L18 1L18 0L16 0L16 1L18 1L18 3L16 3L16 4L19 4L19 5L17 5L17 6L16 6L16 8L15 8L15 11L18 11L18 13L17 13L17 12L16 12L16 13L15 13L15 12L14 12L14 14L15 14L15 15L14 15L14 16L13 16L13 14L12 14L12 11L14 11L14 10L13 10L13 9L14 9L14 8L13 8L13 6L14 6L14 7L15 7L15 6L14 6L14 5L13 5L13 4L15 4L15 3L13 3L13 2L14 2L14 1L13 1L13 0ZM24 0L24 1L25 1L25 0ZM12 3L12 4L13 4L13 3ZM11 5L11 7L12 7L12 5ZM8 6L8 7L9 7L9 6ZM17 6L17 8L16 8L16 10L18 10L18 9L17 9L17 8L18 8L18 6ZM22 6L22 8L23 8L23 6ZM10 8L10 9L12 9L12 8ZM28 8L28 10L29 10L29 14L28 14L28 16L27 16L27 17L26 17L26 18L28 18L28 19L30 19L30 20L28 20L28 23L29 23L29 21L30 21L30 20L31 20L31 19L30 19L30 18L32 18L32 20L33 20L33 17L32 17L32 16L33 16L33 15L32 15L32 14L33 14L33 12L32 12L32 10L29 10L29 9L30 9L30 8ZM6 9L6 10L7 10L7 11L6 11L6 12L9 12L9 11L10 11L10 13L9 13L9 14L8 14L8 16L7 16L7 17L6 17L6 18L5 18L5 19L6 19L6 20L5 20L5 21L6 21L6 22L7 22L7 21L6 21L6 20L7 20L7 19L6 19L6 18L8 18L8 20L14 20L14 21L13 21L13 22L15 22L15 20L16 20L16 19L14 19L14 17L15 17L15 18L16 18L16 16L18 16L18 15L21 15L21 14L22 14L22 11L21 11L21 10L19 10L19 12L20 12L20 14L17 14L17 15L16 15L16 16L14 16L14 17L13 17L13 19L9 19L9 18L10 18L10 17L12 17L12 16L11 16L11 15L12 15L12 14L11 14L11 11L12 11L12 10L11 10L11 11L10 11L10 10L9 10L9 11L8 11L8 10L7 10L7 9ZM23 9L23 10L24 10L24 11L25 11L25 12L26 12L26 14L27 14L27 11L25 11L25 10L26 10L26 9ZM1 10L1 11L2 11L2 10ZM20 11L20 12L21 12L21 11ZM30 12L30 13L32 13L32 12ZM6 13L6 14L7 14L7 13ZM10 14L10 15L9 15L9 16L8 16L8 17L9 17L9 16L10 16L10 15L11 15L11 14ZM29 14L29 17L28 17L28 18L30 18L30 17L31 17L31 16L30 16L30 14ZM1 15L1 16L3 16L3 15ZM19 16L19 17L20 17L20 16ZM17 17L17 20L18 20L18 21L16 21L16 23L17 23L17 27L15 27L15 26L14 26L14 24L15 24L15 25L16 25L16 24L15 24L15 23L13 23L13 27L12 27L12 28L11 28L11 29L13 29L13 30L14 30L14 29L15 29L15 28L16 28L16 29L17 29L17 28L18 28L18 27L21 27L21 26L22 26L22 27L23 27L23 26L22 26L22 23L21 23L21 22L19 22L19 21L20 21L20 20L18 20L18 17ZM22 17L22 18L23 18L23 19L24 19L24 18L25 18L25 17ZM1 21L1 24L2 24L2 23L3 23L3 22L2 22L2 21ZM9 21L9 22L11 22L11 23L12 23L12 22L11 22L11 21ZM17 22L17 23L19 23L19 26L21 26L21 24L20 24L20 23L19 23L19 22ZM23 22L23 24L25 24L25 23L24 23L24 22ZM6 24L6 25L7 25L7 24ZM30 24L30 25L29 25L29 28L30 28L30 29L29 29L29 30L30 30L30 29L31 29L31 28L30 28L30 27L31 27L31 26L30 26L30 25L31 25L31 24ZM25 25L25 28L28 28L28 25ZM26 26L26 27L27 27L27 26ZM14 27L14 28L13 28L13 29L14 29L14 28L15 28L15 27ZM10 30L10 31L9 31L9 32L10 32L10 31L11 31L11 30ZM22 30L22 31L23 31L23 30ZM32 30L32 31L33 31L33 30ZM15 31L15 32L16 32L16 31ZM0 0L0 7L7 7L7 0ZM1 1L1 6L6 6L6 1ZM2 2L2 5L5 5L5 2ZM26 0L26 7L33 7L33 0ZM27 1L27 6L32 6L32 1ZM28 2L28 5L31 5L31 2ZM0 26L0 33L7 33L7 26ZM1 27L1 32L6 32L6 27ZM2 28L2 31L5 31L5 28Z" fill="#000000"/></g></g></svg>
