<?xml version="1.0" encoding="UTF-8"?>
<svg xmlns="http://www.w3.org/2000/svg" version="1.1" width="400" height="400" viewBox="0 0 400 400"><rect x="0" y="0" width="400" height="400" fill="#fefefe"/><g transform="scale(9.756)"><g transform="translate(4,4)"><path fill-rule="evenodd" d="M8 0L8 1L9 1L9 2L10 2L10 3L11 3L11 1L13 1L13 0L11 0L11 1L9 1L9 0ZM16 0L16 1L18 1L18 2L19 2L19 3L20 3L20 4L18 4L18 3L17 3L17 2L16 2L16 4L17 4L17 5L16 5L16 8L15 8L15 6L14 6L14 5L15 5L15 3L14 3L14 2L15 2L15 1L14 1L14 2L12 2L12 4L11 4L11 5L10 5L10 4L9 4L9 5L10 5L10 8L9 8L9 6L8 6L8 8L9 8L9 10L6 10L6 9L7 9L7 8L6 8L6 9L5 9L5 8L3 8L3 10L2 10L2 8L0 8L0 9L1 9L1 11L0 11L0 13L1 13L1 14L0 14L0 15L1 15L1 16L0 16L0 18L1 18L1 16L2 16L2 18L3 18L3 21L2 21L2 22L3 22L3 23L4 23L4 25L5 25L5 22L6 22L6 23L7 23L7 24L6 24L6 25L7 25L7 24L8 24L8 26L9 26L9 28L8 28L8 30L9 30L9 31L8 31L8 33L11 33L11 32L15 32L15 33L18 33L18 32L17 32L17 31L18 31L18 29L17 29L17 30L16 30L16 28L15 28L15 27L16 27L16 26L17 26L17 24L18 24L18 23L19 23L19 25L20 25L20 26L19 26L19 27L18 27L18 28L19 28L19 31L20 31L20 32L19 32L19 33L21 33L21 31L23 31L23 30L22 30L22 29L21 29L21 30L20 30L20 28L21 28L21 27L20 27L20 26L21 26L21 25L20 25L20 24L21 24L21 23L23 23L23 24L22 24L22 26L23 26L23 27L24 27L24 28L23 28L23 29L24 29L24 31L25 31L25 29L29 29L29 30L28 30L28 31L26 31L26 32L22 32L22 33L27 33L27 32L28 32L28 33L29 33L29 32L33 32L33 30L32 30L32 31L31 31L31 29L33 29L33 28L32 28L32 27L30 27L30 28L31 28L31 29L29 29L29 25L30 25L30 26L31 26L31 25L32 25L32 24L33 24L33 22L32 22L32 23L30 23L30 22L29 22L29 21L30 21L30 20L31 20L31 21L32 21L32 19L33 19L33 15L31 15L31 13L30 13L30 12L32 12L32 13L33 13L33 12L32 12L32 11L33 11L33 10L30 10L30 12L29 12L29 14L28 14L28 15L27 15L27 14L24 14L24 13L27 13L27 10L26 10L26 9L27 9L27 8L26 8L26 9L23 9L23 8L25 8L25 6L24 6L24 5L23 5L23 3L24 3L24 4L25 4L25 2L23 2L23 0L22 0L22 2L21 2L21 3L20 3L20 1L19 1L19 0ZM24 0L24 1L25 1L25 0ZM22 2L22 3L23 3L23 2ZM12 4L12 5L11 5L11 7L12 7L12 9L10 9L10 10L9 10L9 11L8 11L8 12L7 12L7 11L6 11L6 10L5 10L5 11L6 11L6 12L7 12L7 13L6 13L6 14L7 14L7 15L6 15L6 16L7 16L7 17L6 17L6 18L5 18L5 17L4 17L4 18L5 18L5 20L4 20L4 21L3 21L3 22L4 22L4 21L5 21L5 20L7 20L7 19L8 19L8 21L6 21L6 22L8 22L8 23L9 23L9 25L10 25L10 24L12 24L12 23L11 23L11 22L10 22L10 21L11 21L11 20L12 20L12 22L13 22L13 25L14 25L14 27L13 27L13 26L10 26L10 28L9 28L9 29L10 29L10 28L11 28L11 27L12 27L12 29L11 29L11 30L10 30L10 31L9 31L9 32L10 32L10 31L11 31L11 30L12 30L12 31L13 31L13 30L14 30L14 29L13 29L13 28L14 28L14 27L15 27L15 25L16 25L16 24L17 24L17 23L18 23L18 22L19 22L19 23L21 23L21 22L19 22L19 21L20 21L20 20L18 20L18 18L17 18L17 17L18 17L18 15L19 15L19 17L20 17L20 19L21 19L21 21L22 21L22 20L25 20L25 22L24 22L24 23L25 23L25 24L27 24L27 23L29 23L29 22L27 22L27 20L28 20L28 21L29 21L29 20L30 20L30 19L32 19L32 18L30 18L30 19L29 19L29 18L28 18L28 16L27 16L27 18L26 18L26 15L24 15L24 14L23 14L23 15L22 15L22 11L23 11L23 12L24 12L24 11L23 11L23 9L22 9L22 4L20 4L20 5L19 5L19 8L21 8L21 12L20 12L20 10L19 10L19 12L20 12L20 13L19 13L19 14L16 14L16 16L15 16L15 18L17 18L17 20L16 20L16 19L15 19L15 20L13 20L13 19L14 19L14 17L13 17L13 18L12 18L12 19L11 19L11 20L10 20L10 18L11 18L11 17L12 17L12 16L14 16L14 15L15 15L15 13L16 13L16 11L13 11L13 10L15 10L15 8L13 8L13 7L14 7L14 6L13 6L13 7L12 7L12 5L14 5L14 4ZM17 5L17 8L18 8L18 5ZM20 6L20 7L21 7L21 6ZM23 6L23 7L24 7L24 6ZM32 8L32 9L33 9L33 8ZM12 9L12 10L10 10L10 11L9 11L9 14L8 14L8 13L7 13L7 14L8 14L8 15L7 15L7 16L9 16L9 18L10 18L10 17L11 17L11 16L12 16L12 15L14 15L14 13L15 13L15 12L14 12L14 13L13 13L13 11L12 11L12 10L13 10L13 9ZM16 9L16 10L17 10L17 11L18 11L18 9ZM28 9L28 10L29 10L29 9ZM25 10L25 12L26 12L26 10ZM1 11L1 12L2 12L2 11ZM3 11L3 16L5 16L5 15L4 15L4 14L5 14L5 12L4 12L4 11ZM10 12L10 15L11 15L11 14L13 14L13 13L11 13L11 12ZM17 12L17 13L18 13L18 12ZM20 13L20 14L19 14L19 15L20 15L20 16L21 16L21 15L20 15L20 14L21 14L21 13ZM1 14L1 15L2 15L2 14ZM29 14L29 16L30 16L30 17L31 17L31 16L30 16L30 14ZM16 16L16 17L17 17L17 16ZM23 16L23 17L24 17L24 18L23 18L23 19L24 19L24 18L25 18L25 17L24 17L24 16ZM7 17L7 18L6 18L6 19L7 19L7 18L8 18L8 17ZM21 18L21 19L22 19L22 18ZM0 19L0 20L2 20L2 19ZM26 19L26 20L27 20L27 19ZM15 20L15 23L14 23L14 25L15 25L15 24L16 24L16 20ZM17 20L17 21L18 21L18 20ZM0 21L0 25L3 25L3 24L1 24L1 21ZM9 22L9 23L10 23L10 22ZM25 22L25 23L27 23L27 22ZM30 24L30 25L31 25L31 24ZM25 25L25 28L28 28L28 25ZM26 26L26 27L27 27L27 26ZM19 27L19 28L20 28L20 27ZM12 29L12 30L13 30L13 29ZM15 31L15 32L16 32L16 31ZM28 31L28 32L29 32L29 31ZM0 0L0 7L7 7L7 0ZM1 1L1 6L6 6L6 1ZM2 2L2 5L5 5L5 2ZM26 0L26 7L33 7L33 0ZM27 1L27 6L32 6L32 1ZM28 2L28 5L31 5L31 2ZM0 26L0 33L7 33L7 26ZM1 27L1 32L6 32L6 27ZM2 28L2 31L5 31L5 28Z" fill="#000000"/></g></g></svg>
