<?xml version="1.0" encoding="UTF-8"?>
<svg xmlns="http://www.w3.org/2000/svg" version="1.1" width="400" height="400" viewBox="0 0 400 400"><rect x="0" y="0" width="400" height="400" fill="#fefefe"/><g transform="scale(9.756)"><g transform="translate(4,4)"><path fill-rule="evenodd" d="M9 0L9 1L8 1L8 2L9 2L9 3L8 3L8 4L9 4L9 3L10 3L10 5L8 5L8 7L9 7L9 8L6 8L6 9L5 9L5 8L0 8L0 10L1 10L1 9L4 9L4 10L2 10L2 11L7 11L7 10L8 10L8 11L9 11L9 9L10 9L10 8L12 8L12 9L11 9L11 10L10 10L10 11L11 11L11 12L9 12L9 13L8 13L8 12L5 12L5 13L4 13L4 14L3 14L3 12L2 12L2 14L3 14L3 15L0 15L0 16L1 16L1 17L2 17L2 16L3 16L3 18L1 18L1 19L0 19L0 25L1 25L1 21L2 21L2 20L1 20L1 19L3 19L3 20L4 20L4 18L5 18L5 19L7 19L7 20L5 20L5 21L3 21L3 22L2 22L2 23L3 23L3 22L5 22L5 24L3 24L3 25L7 25L7 24L8 24L8 27L9 27L9 28L8 28L8 33L11 33L11 32L13 32L13 33L14 33L14 32L13 32L13 29L14 29L14 30L15 30L15 33L16 33L16 32L17 32L17 33L18 33L18 32L17 32L17 31L16 31L16 30L17 30L17 29L18 29L18 28L20 28L20 29L19 29L19 30L20 30L20 29L21 29L21 28L22 28L22 26L23 26L23 28L24 28L24 29L25 29L25 30L23 30L23 29L22 29L22 30L21 30L21 32L20 32L20 31L19 31L19 32L20 32L20 33L21 33L21 32L23 32L23 33L26 33L26 32L23 32L23 31L25 31L25 30L26 30L26 31L27 31L27 32L31 32L31 33L32 33L32 32L31 32L31 31L32 31L32 30L31 30L31 29L33 29L33 28L32 28L32 26L33 26L33 23L30 23L30 24L32 24L32 25L30 25L30 26L31 26L31 27L30 27L30 28L29 28L29 24L28 24L28 23L29 23L29 22L28 22L28 21L30 21L30 20L31 20L31 19L32 19L32 20L33 20L33 19L32 19L32 18L33 18L33 17L32 17L32 14L33 14L33 13L32 13L32 10L33 10L33 9L32 9L32 8L31 8L31 9L32 9L32 10L29 10L29 12L28 12L28 13L26 13L26 12L27 12L27 11L28 11L28 10L27 10L27 9L28 9L28 8L27 8L27 9L26 9L26 8L25 8L25 6L24 6L24 9L23 9L23 8L22 8L22 7L23 7L23 6L22 6L22 5L25 5L25 4L24 4L24 3L25 3L25 2L24 2L24 3L23 3L23 1L25 1L25 0L23 0L23 1L20 1L20 0L19 0L19 1L20 1L20 2L21 2L21 3L20 3L20 4L19 4L19 2L18 2L18 3L17 3L17 4L19 4L19 5L20 5L20 7L21 7L21 8L17 8L17 6L16 6L16 5L15 5L15 6L14 6L14 5L13 5L13 4L14 4L14 3L13 3L13 2L14 2L14 1L15 1L15 2L16 2L16 1L15 1L15 0ZM10 1L10 3L11 3L11 2L12 2L12 1ZM12 3L12 4L13 4L13 3ZM15 3L15 4L16 4L16 3ZM21 3L21 4L20 4L20 5L22 5L22 4L23 4L23 3ZM11 5L11 7L12 7L12 5ZM9 6L9 7L10 7L10 6ZM13 6L13 8L14 8L14 9L13 9L13 10L14 10L14 11L12 11L12 10L11 10L11 11L12 11L12 12L11 12L11 13L10 13L10 14L9 14L9 15L8 15L8 14L7 14L7 13L5 13L5 14L4 14L4 15L3 15L3 16L4 16L4 17L6 17L6 18L8 18L8 17L6 17L6 16L9 16L9 19L8 19L8 20L7 20L7 21L5 21L5 22L7 22L7 23L6 23L6 24L7 24L7 23L9 23L9 26L11 26L11 27L10 27L10 29L13 29L13 28L14 28L14 29L15 29L15 30L16 30L16 29L17 29L17 28L18 28L18 27L20 27L20 28L21 28L21 27L20 27L20 26L21 26L21 25L23 25L23 26L24 26L24 24L21 24L21 23L20 23L20 22L23 22L23 23L24 23L24 22L23 22L23 20L25 20L25 18L26 18L26 17L28 17L28 18L27 18L27 19L26 19L26 21L25 21L25 24L26 24L26 23L27 23L27 22L26 22L26 21L28 21L28 20L30 20L30 19L31 19L31 18L30 18L30 17L31 17L31 16L30 16L30 14L29 14L29 13L31 13L31 12L29 12L29 13L28 13L28 14L26 14L26 13L25 13L25 12L26 12L26 11L27 11L27 10L26 10L26 9L24 9L24 10L23 10L23 9L22 9L22 8L21 8L21 9L20 9L20 10L19 10L19 12L21 12L21 13L20 13L20 14L17 14L17 16L18 16L18 15L19 15L19 17L22 17L22 18L23 18L23 20L21 20L21 21L20 21L20 18L19 18L19 20L18 20L18 19L17 19L17 18L18 18L18 17L17 17L17 18L16 18L16 19L17 19L17 20L18 20L18 21L17 21L17 22L16 22L16 21L15 21L15 18L14 18L14 17L16 17L16 15L15 15L15 14L16 14L16 13L17 13L17 12L18 12L18 11L16 11L16 12L15 12L15 10L16 10L16 9L17 9L17 10L18 10L18 9L17 9L17 8L16 8L16 9L15 9L15 7L16 7L16 6L15 6L15 7L14 7L14 6ZM18 6L18 7L19 7L19 6ZM21 6L21 7L22 7L22 6ZM29 8L29 9L30 9L30 8ZM6 9L6 10L7 10L7 9ZM14 9L14 10L15 10L15 9ZM21 9L21 10L20 10L20 11L21 11L21 12L22 12L22 13L21 13L21 14L20 14L20 15L21 15L21 16L22 16L22 17L23 17L23 18L25 18L25 17L23 17L23 16L22 16L22 15L21 15L21 14L22 14L22 13L23 13L23 14L24 14L24 15L26 15L26 14L25 14L25 13L23 13L23 12L25 12L25 11L26 11L26 10L25 10L25 11L23 11L23 10L22 10L22 9ZM0 11L0 14L1 14L1 11ZM22 11L22 12L23 12L23 11ZM13 12L13 13L14 13L14 14L15 14L15 13L14 13L14 12ZM11 13L11 14L10 14L10 15L11 15L11 16L10 16L10 17L11 17L11 18L10 18L10 19L9 19L9 21L7 21L7 22L9 22L9 21L10 21L10 25L11 25L11 26L13 26L13 25L14 25L14 26L15 26L15 29L16 29L16 28L17 28L17 25L18 25L18 24L17 24L17 23L19 23L19 22L20 22L20 21L19 21L19 22L17 22L17 23L16 23L16 22L15 22L15 21L14 21L14 20L11 20L11 18L12 18L12 19L14 19L14 18L13 18L13 17L14 17L14 16L13 16L13 14L12 14L12 13ZM6 14L6 15L5 15L5 16L6 16L6 15L7 15L7 14ZM11 14L11 15L12 15L12 14ZM28 14L28 15L29 15L29 14ZM11 16L11 17L12 17L12 16ZM28 16L28 17L29 17L29 16ZM27 19L27 20L28 20L28 19ZM13 21L13 22L14 22L14 21ZM32 21L32 22L33 22L33 21ZM11 22L11 23L12 23L12 22ZM13 23L13 24L14 24L14 25L15 25L15 26L16 26L16 25L17 25L17 24L16 24L16 23ZM11 24L11 25L12 25L12 24ZM19 24L19 26L20 26L20 25L21 25L21 24ZM25 25L25 28L28 28L28 25ZM26 26L26 27L27 27L27 26ZM12 27L12 28L13 28L13 27ZM30 28L30 29L29 29L29 30L28 30L28 29L26 29L26 30L28 30L28 31L30 31L30 29L31 29L31 28ZM11 30L11 31L12 31L12 30ZM22 30L22 31L23 31L23 30ZM9 31L9 32L10 32L10 31ZM0 0L0 7L7 7L7 0ZM1 1L1 6L6 6L6 1ZM2 2L2 5L5 5L5 2ZM26 0L26 7L33 7L33 0ZM27 1L27 6L32 6L32 1ZM28 2L28 5L31 5L31 2ZM0 26L0 33L7 33L7 26ZM1 27L1 32L6 32L6 27ZM2 28L2 31L5 31L5 28Z" fill="#000000"/></g></g></svg>
