<?xml version="1.0" encoding="UTF-8"?>
<svg xmlns="http://www.w3.org/2000/svg" version="1.1" width="400" height="400" viewBox="0 0 400 400"><rect x="0" y="0" width="400" height="400" fill="#fefefe"/><g transform="scale(9.756)"><g transform="translate(4,4)"><path fill-rule="evenodd" d="M9 0L9 1L8 1L8 2L9 2L9 3L8 3L8 4L9 4L9 3L10 3L10 5L8 5L8 7L9 7L9 8L6 8L6 9L10 9L10 8L12 8L12 9L11 9L11 10L10 10L10 11L11 11L11 12L8 12L8 10L5 10L5 8L0 8L0 10L1 10L1 9L2 9L2 10L3 10L3 12L4 12L4 15L7 15L7 14L5 14L5 11L7 11L7 12L6 12L6 13L7 13L7 12L8 12L8 14L9 14L9 13L11 13L11 14L10 14L10 17L9 17L9 18L8 18L8 16L9 16L9 15L8 15L8 16L5 16L5 20L4 20L4 21L3 21L3 19L4 19L4 18L3 18L3 16L2 16L2 14L3 14L3 13L2 13L2 12L1 12L1 13L2 13L2 14L1 14L1 16L0 16L0 17L1 17L1 19L2 19L2 20L0 20L0 25L1 25L1 21L2 21L2 22L3 22L3 23L4 23L4 24L5 24L5 25L7 25L7 24L6 24L6 23L7 23L7 22L8 22L8 27L9 27L9 28L8 28L8 33L10 33L10 32L13 32L13 33L14 33L14 32L15 32L15 33L16 33L16 32L17 32L17 33L18 33L18 32L17 32L17 31L16 31L16 30L17 30L17 29L18 29L18 28L19 28L19 27L18 27L18 28L17 28L17 25L18 25L18 24L17 24L17 23L19 23L19 24L20 24L20 25L19 25L19 26L20 26L20 27L21 27L21 28L20 28L20 29L19 29L19 30L20 30L20 33L21 33L21 32L22 32L22 31L21 31L21 30L22 30L22 29L23 29L23 32L24 32L24 33L25 33L25 32L26 32L26 31L27 31L27 33L28 33L28 30L29 30L29 31L30 31L30 32L29 32L29 33L30 33L30 32L31 32L31 33L32 33L32 32L31 32L31 31L32 31L32 30L31 30L31 29L33 29L33 28L32 28L32 26L33 26L33 23L30 23L30 24L32 24L32 25L30 25L30 26L31 26L31 27L30 27L30 28L29 28L29 24L28 24L28 23L25 23L25 21L26 21L26 22L28 22L28 21L30 21L30 20L31 20L31 19L32 19L32 20L33 20L33 19L32 19L32 18L33 18L33 17L32 17L32 14L33 14L33 13L32 13L32 10L33 10L33 9L32 9L32 8L31 8L31 9L32 9L32 10L29 10L29 12L28 12L28 13L26 13L26 12L25 12L25 13L21 13L21 12L23 12L23 11L22 11L22 10L24 10L24 11L26 11L26 10L27 10L27 9L28 9L28 8L27 8L27 9L26 9L26 8L25 8L25 6L24 6L24 7L23 7L23 6L22 6L22 4L23 4L23 5L24 5L24 4L25 4L25 3L24 3L24 4L23 4L23 1L24 1L24 2L25 2L25 0L23 0L23 1L21 1L21 2L20 2L20 4L19 4L19 2L18 2L18 1L17 1L17 2L18 2L18 3L17 3L17 4L19 4L19 5L17 5L17 6L16 6L16 5L15 5L15 6L14 6L14 5L13 5L13 4L14 4L14 3L13 3L13 2L14 2L14 1L15 1L15 2L16 2L16 1L15 1L15 0ZM19 0L19 1L20 1L20 0ZM10 1L10 3L11 3L11 2L12 2L12 1ZM12 3L12 4L13 4L13 3ZM15 3L15 4L16 4L16 3ZM21 3L21 4L20 4L20 5L19 5L19 7L18 7L18 6L17 6L17 8L16 8L16 9L15 9L15 7L16 7L16 6L15 6L15 7L14 7L14 6L13 6L13 8L14 8L14 9L13 9L13 10L14 10L14 11L12 11L12 10L11 10L11 11L12 11L12 12L11 12L11 13L12 13L12 14L11 14L11 15L12 15L12 14L13 14L13 16L14 16L14 17L13 17L13 18L14 18L14 19L12 19L12 18L11 18L11 20L14 20L14 21L13 21L13 24L14 24L14 25L13 25L13 26L10 26L10 25L12 25L12 24L11 24L11 23L12 23L12 22L11 22L11 21L10 21L10 19L9 19L9 20L7 20L7 19L8 19L8 18L7 18L7 17L6 17L6 18L7 18L7 19L6 19L6 20L5 20L5 22L4 22L4 23L5 23L5 22L7 22L7 21L10 21L10 22L9 22L9 24L10 24L10 25L9 25L9 26L10 26L10 28L9 28L9 32L10 32L10 31L12 31L12 30L10 30L10 29L13 29L13 32L14 32L14 31L15 31L15 30L16 30L16 29L17 29L17 28L16 28L16 29L15 29L15 26L16 26L16 25L17 25L17 24L16 24L16 23L17 23L17 22L19 22L19 23L20 23L20 24L21 24L21 25L20 25L20 26L21 26L21 27L22 27L22 28L21 28L21 29L20 29L20 30L21 30L21 29L22 29L22 28L23 28L23 29L24 29L24 28L23 28L23 26L24 26L24 24L25 24L25 23L24 23L24 22L23 22L23 20L25 20L25 18L26 18L26 17L28 17L28 19L26 19L26 21L28 21L28 20L30 20L30 19L31 19L31 18L30 18L30 17L31 17L31 16L30 16L30 14L29 14L29 13L31 13L31 12L29 12L29 13L28 13L28 14L29 14L29 15L28 15L28 16L26 16L26 15L27 15L27 14L26 14L26 13L25 13L25 14L26 14L26 15L24 15L24 14L21 14L21 13L20 13L20 12L19 12L19 13L20 13L20 14L17 14L17 16L18 16L18 15L19 15L19 17L20 17L20 18L19 18L19 19L20 19L20 20L18 20L18 19L17 19L17 18L18 18L18 17L17 17L17 18L16 18L16 19L17 19L17 20L18 20L18 21L17 21L17 22L16 22L16 21L15 21L15 18L14 18L14 17L16 17L16 15L15 15L15 14L16 14L16 13L17 13L17 12L18 12L18 11L16 11L16 12L15 12L15 10L16 10L16 9L17 9L17 10L18 10L18 9L17 9L17 8L21 8L21 9L20 9L20 10L19 10L19 11L21 11L21 9L25 9L25 10L26 10L26 9L25 9L25 8L21 8L21 7L22 7L22 6L21 6L21 4L22 4L22 3ZM11 5L11 7L12 7L12 5ZM9 6L9 7L10 7L10 6ZM20 6L20 7L21 7L21 6ZM29 8L29 9L30 9L30 8ZM3 9L3 10L4 10L4 9ZM14 9L14 10L15 10L15 9ZM13 12L13 13L14 13L14 14L15 14L15 13L14 13L14 12ZM20 14L20 17L21 17L21 18L20 18L20 19L21 19L21 20L20 20L20 21L19 21L19 22L20 22L20 21L21 21L21 20L23 20L23 19L21 19L21 18L22 18L22 17L23 17L23 18L25 18L25 17L23 17L23 15L21 15L21 14ZM11 16L11 17L12 17L12 16ZM21 16L21 17L22 17L22 16ZM28 16L28 17L29 17L29 16ZM6 20L6 21L7 21L7 20ZM14 21L14 24L15 24L15 23L16 23L16 22L15 22L15 21ZM32 21L32 22L33 22L33 21ZM21 22L21 24L23 24L23 22ZM2 24L2 25L3 25L3 24ZM14 25L14 26L15 26L15 25ZM21 25L21 26L23 26L23 25ZM25 25L25 28L28 28L28 25ZM26 26L26 27L27 27L27 26ZM12 27L12 28L13 28L13 29L14 29L14 30L15 30L15 29L14 29L14 28L13 28L13 27ZM30 28L30 29L29 29L29 30L30 30L30 29L31 29L31 28ZM26 29L26 30L25 30L25 31L24 31L24 32L25 32L25 31L26 31L26 30L28 30L28 29ZM0 0L0 7L7 7L7 0ZM1 1L1 6L6 6L6 1ZM2 2L2 5L5 5L5 2ZM26 0L26 7L33 7L33 0ZM27 1L27 6L32 6L32 1ZM28 2L28 5L31 5L31 2ZM0 26L0 33L7 33L7 26ZM1 27L1 32L6 32L6 27ZM2 28L2 31L5 31L5 28Z" fill="#000000"/></g></g></svg>
