<?xml version="1.0" encoding="UTF-8"?>
<svg xmlns="http://www.w3.org/2000/svg" version="1.1" width="400" height="400" viewBox="0 0 400 400"><rect x="0" y="0" width="400" height="400" fill="#fefefe"/><g transform="scale(9.756)"><g transform="translate(4,4)"><path fill-rule="evenodd" d="M8 0L8 4L9 4L9 5L8 5L8 7L9 7L9 8L10 8L10 7L11 7L11 5L12 5L12 7L13 7L13 5L14 5L14 7L15 7L15 8L14 8L14 9L13 9L13 8L12 8L12 9L11 9L11 11L10 11L10 13L11 13L11 15L10 15L10 14L9 14L9 10L10 10L10 9L9 9L9 10L8 10L8 11L7 11L7 10L6 10L6 9L7 9L7 8L4 8L4 9L3 9L3 10L1 10L1 11L0 11L0 12L1 12L1 13L2 13L2 14L0 14L0 15L1 15L1 16L2 16L2 18L1 18L1 17L0 17L0 18L1 18L1 19L0 19L0 22L2 22L2 23L3 23L3 24L0 24L0 25L4 25L4 24L5 24L5 25L8 25L8 26L9 26L9 27L8 27L8 29L9 29L9 31L8 31L8 33L12 33L12 31L13 31L13 30L14 30L14 29L15 29L15 32L14 32L14 33L15 33L15 32L16 32L16 31L17 31L17 33L18 33L18 32L19 32L19 30L17 30L17 29L18 29L18 27L19 27L19 26L17 26L17 25L18 25L18 24L19 24L19 25L20 25L20 27L21 27L21 28L19 28L19 29L23 29L23 30L25 30L25 29L26 29L26 31L27 31L27 32L26 32L26 33L27 33L27 32L29 32L29 33L30 33L30 31L29 31L29 29L30 29L30 30L31 30L31 31L32 31L32 30L33 30L33 29L30 29L30 27L31 27L31 28L32 28L32 26L31 26L31 25L32 25L32 24L33 24L33 23L31 23L31 22L32 22L32 21L33 21L33 19L32 19L32 18L31 18L31 17L30 17L30 18L26 18L26 17L29 17L29 16L30 16L30 14L31 14L31 16L32 16L32 17L33 17L33 16L32 16L32 14L31 14L31 13L29 13L29 10L28 10L28 11L25 11L25 10L24 10L24 9L25 9L25 8L24 8L24 9L23 9L23 8L22 8L22 7L23 7L23 6L22 6L22 7L21 7L21 5L25 5L25 3L24 3L24 2L23 2L23 1L25 1L25 0L23 0L23 1L22 1L22 0L20 0L20 1L19 1L19 3L20 3L20 5L19 5L19 6L18 6L18 5L17 5L17 6L16 6L16 7L15 7L15 5L16 5L16 4L17 4L17 3L18 3L18 1L17 1L17 2L16 2L16 3L15 3L15 4L14 4L14 3L12 3L12 4L9 4L9 3L11 3L11 2L9 2L9 0ZM10 0L10 1L12 1L12 2L13 2L13 0ZM15 0L15 1L14 1L14 2L15 2L15 1L16 1L16 0ZM21 1L21 2L20 2L20 3L21 3L21 4L22 4L22 3L23 3L23 4L24 4L24 3L23 3L23 2L22 2L22 1ZM21 2L21 3L22 3L22 2ZM9 5L9 7L10 7L10 5ZM17 6L17 7L16 7L16 8L15 8L15 9L14 9L14 11L13 11L13 10L12 10L12 11L11 11L11 13L12 13L12 15L11 15L11 16L10 16L10 15L9 15L9 16L8 16L8 13L6 13L6 12L7 12L7 11L6 11L6 12L5 12L5 11L4 11L4 12L5 12L5 14L2 14L2 15L3 15L3 18L4 18L4 15L5 15L5 16L8 16L8 17L6 17L6 18L8 18L8 19L3 19L3 20L2 20L2 19L1 19L1 20L2 20L2 21L3 21L3 22L4 22L4 21L5 21L5 22L7 22L7 23L5 23L5 24L7 24L7 23L8 23L8 25L10 25L10 28L9 28L9 29L10 29L10 28L11 28L11 29L14 29L14 28L15 28L15 29L17 29L17 26L16 26L16 28L15 28L15 25L14 25L14 22L15 22L15 21L16 21L16 20L17 20L17 19L18 19L18 21L17 21L17 23L15 23L15 24L16 24L16 25L17 25L17 23L19 23L19 24L20 24L20 25L21 25L21 27L22 27L22 28L23 28L23 29L24 29L24 28L23 28L23 27L24 27L24 26L23 26L23 27L22 27L22 25L24 25L24 24L25 24L25 23L24 23L24 24L23 24L23 20L22 20L22 25L21 25L21 21L19 21L19 20L20 20L20 19L21 19L21 18L22 18L22 19L23 19L23 18L22 18L22 17L25 17L25 16L26 16L26 15L28 15L28 16L29 16L29 15L28 15L28 14L29 14L29 13L28 13L28 12L27 12L27 13L24 13L24 12L25 12L25 11L24 11L24 12L22 12L22 13L19 13L19 15L18 15L18 16L20 16L20 17L19 17L19 18L18 18L18 17L17 17L17 19L16 19L16 20L15 20L15 18L16 18L16 17L14 17L14 16L17 16L17 14L16 14L16 15L15 15L15 13L14 13L14 12L15 12L15 9L17 9L17 10L16 10L16 11L18 11L18 12L19 12L19 11L21 11L21 10L22 10L22 11L23 11L23 9L21 9L21 7L20 7L20 6L19 6L19 7L20 7L20 9L19 9L19 10L18 10L18 9L17 9L17 7L18 7L18 6ZM24 6L24 7L25 7L25 6ZM0 8L0 9L2 9L2 8ZM27 8L27 9L28 9L28 8ZM29 8L29 9L31 9L31 12L32 12L32 13L33 13L33 12L32 12L32 9L33 9L33 8ZM20 9L20 10L21 10L21 9ZM2 11L2 13L3 13L3 11ZM12 11L12 12L13 12L13 11ZM16 12L16 13L17 13L17 12ZM13 13L13 14L14 14L14 13ZM22 13L22 15L21 15L21 14L20 14L20 16L21 16L21 17L20 17L20 18L21 18L21 17L22 17L22 16L25 16L25 15L24 15L24 13ZM27 13L27 14L28 14L28 13ZM5 14L5 15L7 15L7 14ZM9 16L9 20L8 20L8 21L9 21L9 22L8 22L8 23L9 23L9 22L10 22L10 20L11 20L11 23L10 23L10 25L11 25L11 28L12 28L12 27L13 27L13 26L14 26L14 25L13 25L13 24L12 24L12 25L11 25L11 23L12 23L12 22L14 22L14 21L15 21L15 20L14 20L14 21L13 21L13 19L14 19L14 17L13 17L13 16L12 16L12 17L10 17L10 16ZM10 18L10 19L11 19L11 18ZM12 18L12 19L13 19L13 18ZM26 19L26 20L27 20L27 19ZM28 19L28 20L29 20L29 19ZM30 19L30 21L25 21L25 22L26 22L26 24L27 24L27 23L29 23L29 22L31 22L31 20L32 20L32 19ZM5 20L5 21L7 21L7 20ZM30 23L30 24L29 24L29 26L30 26L30 25L31 25L31 23ZM25 25L25 28L28 28L28 25ZM26 26L26 27L27 27L27 26ZM27 29L27 31L28 31L28 29ZM10 30L10 31L9 31L9 32L10 32L10 31L11 31L11 30ZM20 30L20 31L21 31L21 33L22 33L22 32L23 32L23 33L25 33L25 31L21 31L21 30ZM32 32L32 33L33 33L33 32ZM0 0L0 7L7 7L7 0ZM1 1L1 6L6 6L6 1ZM2 2L2 5L5 5L5 2ZM26 0L26 7L33 7L33 0ZM27 1L27 6L32 6L32 1ZM28 2L28 5L31 5L31 2ZM0 26L0 33L7 33L7 26ZM1 27L1 32L6 32L6 27ZM2 28L2 31L5 31L5 28Z" fill="#000000"/></g></g></svg>
