<?xml version="1.0" encoding="UTF-8"?>
<svg xmlns="http://www.w3.org/2000/svg" version="1.1" width="400" height="400" viewBox="0 0 400 400"><rect x="0" y="0" width="400" height="400" fill="#fefefe"/><g transform="scale(9.756)"><g transform="translate(4,4)"><path fill-rule="evenodd" d="M8 0L8 4L10 4L10 3L11 3L11 4L12 4L12 2L11 2L11 0ZM12 0L12 1L13 1L13 0ZM15 0L15 1L14 1L14 2L15 2L15 1L16 1L16 0ZM20 0L20 1L17 1L17 2L16 2L16 3L15 3L15 4L14 4L14 3L13 3L13 5L11 5L11 6L10 6L10 7L9 7L9 5L8 5L8 7L9 7L9 8L10 8L10 7L11 7L11 6L12 6L12 8L11 8L11 9L9 9L9 10L8 10L8 11L9 11L9 10L11 10L11 11L10 11L10 13L9 13L9 12L5 12L5 10L6 10L6 11L7 11L7 10L6 10L6 9L7 9L7 8L4 8L4 9L2 9L2 8L0 8L0 13L1 13L1 14L0 14L0 15L1 15L1 14L2 14L2 16L0 16L0 18L1 18L1 19L0 19L0 20L2 20L2 21L0 21L0 22L2 22L2 24L0 24L0 25L4 25L4 24L5 24L5 25L8 25L8 26L10 26L10 27L8 27L8 29L9 29L9 30L11 30L11 32L9 32L9 31L8 31L8 33L11 33L11 32L12 32L12 31L13 31L13 30L14 30L14 29L15 29L15 31L14 31L14 33L15 33L15 32L16 32L16 31L17 31L17 33L18 33L18 32L19 32L19 33L23 33L23 31L24 31L24 33L26 33L26 31L27 31L27 29L28 29L28 32L29 32L29 33L30 33L30 31L29 31L29 29L30 29L30 30L31 30L31 31L32 31L32 30L33 30L33 27L32 27L32 26L31 26L31 25L32 25L32 24L33 24L33 23L31 23L31 22L32 22L32 21L33 21L33 19L32 19L32 18L31 18L31 17L30 17L30 18L29 18L29 19L27 19L27 18L28 18L28 17L29 17L29 16L30 16L30 14L31 14L31 16L32 16L32 17L33 17L33 16L32 16L32 14L31 14L31 13L29 13L29 10L27 10L27 11L26 11L26 10L25 10L25 9L22 9L22 8L23 8L23 6L22 6L22 5L21 5L21 3L22 3L22 2L23 2L23 3L24 3L24 4L23 4L23 5L24 5L24 8L25 8L25 3L24 3L24 2L23 2L23 1L25 1L25 0L23 0L23 1L22 1L22 0ZM20 1L20 2L19 2L19 5L20 5L20 6L19 6L19 7L18 7L18 6L17 6L17 5L18 5L18 3L17 3L17 4L16 4L16 5L15 5L15 7L14 7L14 5L13 5L13 8L12 8L12 9L11 9L11 10L12 10L12 9L14 9L14 11L12 11L12 12L11 12L11 13L10 13L10 14L9 14L9 13L5 13L5 12L4 12L4 13L5 13L5 14L3 14L3 15L5 15L5 14L7 14L7 15L6 15L6 16L7 16L7 15L8 15L8 14L9 14L9 15L10 15L10 16L9 16L9 17L5 17L5 16L2 16L2 17L5 17L5 19L6 19L6 20L5 20L5 21L6 21L6 22L8 22L8 21L9 21L9 24L8 24L8 25L9 25L9 24L10 24L10 25L12 25L12 24L13 24L13 25L14 25L14 26L12 26L12 27L10 27L10 29L14 29L14 28L15 28L15 29L17 29L17 30L19 30L19 32L20 32L20 31L21 31L21 30L22 30L22 29L24 29L24 28L23 28L23 27L24 27L24 26L23 26L23 25L24 25L24 24L23 24L23 20L22 20L22 24L23 24L23 25L19 25L19 24L18 24L18 25L17 25L17 23L20 23L20 24L21 24L21 23L20 23L20 21L21 21L21 20L20 20L20 21L19 21L19 19L23 19L23 17L25 17L25 16L23 16L23 15L22 15L22 16L23 16L23 17L19 17L19 18L18 18L18 17L17 17L17 19L16 19L16 20L15 20L15 18L16 18L16 17L14 17L14 16L17 16L17 14L16 14L16 15L15 15L15 13L14 13L14 12L15 12L15 9L17 9L17 10L16 10L16 11L18 11L18 12L20 12L20 13L19 13L19 15L18 15L18 16L21 16L21 15L20 15L20 13L21 13L21 11L22 11L22 13L25 13L25 14L24 14L24 15L26 15L26 16L27 16L27 17L26 17L26 18L27 18L27 17L28 17L28 16L27 16L27 15L28 15L28 14L29 14L29 13L28 13L28 11L27 11L27 13L25 13L25 12L26 12L26 11L25 11L25 12L23 12L23 11L22 11L22 9L21 9L21 7L22 7L22 6L21 6L21 5L20 5L20 3L21 3L21 2L22 2L22 1ZM9 2L9 3L10 3L10 2ZM16 6L16 7L15 7L15 8L14 8L14 9L15 9L15 8L16 8L16 7L17 7L17 9L18 9L18 10L19 10L19 8L18 8L18 7L17 7L17 6ZM20 6L20 7L21 7L21 6ZM27 8L27 9L28 9L28 8ZM29 8L29 9L31 9L31 12L32 12L32 13L33 13L33 12L32 12L32 9L33 9L33 8ZM1 9L1 10L2 10L2 12L1 12L1 13L2 13L2 12L3 12L3 10L2 10L2 9ZM20 9L20 11L21 11L21 9ZM12 12L12 13L13 13L13 14L14 14L14 13L13 13L13 12ZM16 12L16 13L17 13L17 12ZM27 13L27 14L28 14L28 13ZM12 15L12 16L10 16L10 17L12 17L12 18L11 18L11 20L9 20L9 21L10 21L10 23L12 23L12 20L13 20L13 19L14 19L14 17L13 17L13 15ZM2 18L2 20L4 20L4 19L3 19L3 18ZM6 18L6 19L7 19L7 18ZM8 18L8 19L9 19L9 18ZM17 19L17 20L16 20L16 21L15 21L15 20L14 20L14 21L13 21L13 22L14 22L14 25L15 25L15 28L16 28L16 26L17 26L17 29L18 29L18 27L19 27L19 29L22 29L22 26L21 26L21 28L20 28L20 27L19 27L19 26L17 26L17 25L16 25L16 24L15 24L15 23L17 23L17 21L18 21L18 19ZM26 19L26 20L25 20L25 21L26 21L26 22L24 22L24 23L28 23L28 22L31 22L31 20L32 20L32 19L30 19L30 21L26 21L26 20L27 20L27 19ZM6 20L6 21L7 21L7 20ZM3 21L3 22L4 22L4 23L3 23L3 24L4 24L4 23L5 23L5 24L7 24L7 23L5 23L5 22L4 22L4 21ZM14 21L14 22L15 22L15 21ZM30 23L30 24L29 24L29 26L30 26L30 25L31 25L31 23ZM25 25L25 28L28 28L28 25ZM26 26L26 27L27 27L27 26ZM30 27L30 29L32 29L32 28L31 28L31 27ZM25 29L25 30L24 30L24 31L26 31L26 29ZM32 32L32 33L33 33L33 32ZM0 0L0 7L7 7L7 0ZM1 1L1 6L6 6L6 1ZM2 2L2 5L5 5L5 2ZM26 0L26 7L33 7L33 0ZM27 1L27 6L32 6L32 1ZM28 2L28 5L31 5L31 2ZM0 26L0 33L7 33L7 26ZM1 27L1 32L6 32L6 27ZM2 28L2 31L5 31L5 28Z" fill="#000000"/></g></g></svg>
