<?xml version="1.0" encoding="UTF-8"?>
<svg xmlns="http://www.w3.org/2000/svg" version="1.1" width="400" height="400" viewBox="0 0 400 400"><rect x="0" y="0" width="400" height="400" fill="#fefefe"/><g transform="scale(9.756)"><g transform="translate(4,4)"><path fill-rule="evenodd" d="M11 0L11 1L8 1L8 3L9 3L9 2L10 2L10 4L8 4L8 8L6 8L6 9L4 9L4 8L3 8L3 9L2 9L2 8L0 8L0 9L2 9L2 10L1 10L1 11L0 11L0 15L1 15L1 13L2 13L2 12L3 12L3 13L4 13L4 14L5 14L5 13L7 13L7 12L8 12L8 14L6 14L6 15L4 15L4 16L3 16L3 17L2 17L2 16L0 16L0 19L1 19L1 17L2 17L2 18L4 18L4 19L3 19L3 20L0 20L0 21L3 21L3 20L4 20L4 21L7 21L7 22L5 22L5 23L4 23L4 22L0 22L0 23L1 23L1 24L0 24L0 25L1 25L1 24L2 24L2 25L5 25L5 23L7 23L7 24L6 24L6 25L8 25L8 27L9 27L9 29L8 29L8 30L9 30L9 31L8 31L8 33L9 33L9 31L10 31L10 32L11 32L11 33L12 33L12 32L11 32L11 31L10 31L10 30L12 30L12 31L13 31L13 30L14 30L14 32L13 32L13 33L14 33L14 32L16 32L16 33L17 33L17 32L19 32L19 33L26 33L26 32L25 32L25 29L26 29L26 30L27 30L27 31L28 31L28 33L29 33L29 32L30 32L30 31L33 31L33 29L31 29L31 30L29 30L29 29L30 29L30 25L29 25L29 24L27 24L27 22L28 22L28 20L30 20L30 19L27 19L27 21L26 21L26 17L27 17L27 18L28 18L28 17L29 17L29 16L30 16L30 15L32 15L32 14L33 14L33 9L32 9L32 8L30 8L30 9L29 9L29 8L26 8L26 10L24 10L24 11L25 11L25 13L26 13L26 14L27 14L27 16L25 16L25 14L22 14L22 15L21 15L21 14L20 14L20 13L19 13L19 12L16 12L16 11L20 11L20 10L18 10L18 9L19 9L19 6L20 6L20 9L21 9L21 10L22 10L22 11L21 11L21 13L23 13L23 9L24 9L24 8L25 8L25 2L24 2L24 1L25 1L25 0L21 0L21 1L20 1L20 0L18 0L18 1L20 1L20 3L19 3L19 2L17 2L17 0L15 0L15 4L13 4L13 2L14 2L14 0ZM12 1L12 2L11 2L11 4L12 4L12 2L13 2L13 1ZM22 1L22 2L21 2L21 3L20 3L20 4L19 4L19 3L16 3L16 6L15 6L15 7L14 7L14 5L11 5L11 7L10 7L10 6L9 6L9 7L10 7L10 8L8 8L8 9L6 9L6 10L5 10L5 11L6 11L6 12L7 12L7 11L6 11L6 10L8 10L8 11L9 11L9 13L11 13L11 14L12 14L12 13L13 13L13 15L9 15L9 14L8 14L8 15L6 15L6 16L5 16L5 17L6 17L6 18L7 18L7 17L6 17L6 16L8 16L8 15L9 15L9 16L11 16L11 17L8 17L8 18L9 18L9 19L6 19L6 20L9 20L9 19L10 19L10 20L11 20L11 21L10 21L10 23L12 23L12 24L10 24L10 25L9 25L9 27L10 27L10 25L11 25L11 26L13 26L13 27L14 27L14 28L12 28L12 27L11 27L11 29L12 29L12 30L13 30L13 29L14 29L14 30L15 30L15 31L16 31L16 32L17 32L17 31L19 31L19 32L21 32L21 29L19 29L19 28L21 28L21 27L22 27L22 26L23 26L23 28L22 28L22 29L24 29L24 26L23 26L23 25L24 25L24 24L26 24L26 22L25 22L25 21L24 21L24 20L23 20L23 19L25 19L25 16L23 16L23 15L22 15L22 17L24 17L24 18L23 18L23 19L22 19L22 18L20 18L20 17L21 17L21 16L20 16L20 14L19 14L19 13L15 13L15 14L14 14L14 13L13 13L13 12L11 12L11 11L12 11L12 10L13 10L13 11L14 11L14 10L13 10L13 9L10 9L10 8L14 8L14 9L15 9L15 11L16 11L16 8L17 8L17 9L18 9L18 8L17 8L17 7L18 7L18 6L19 6L19 5L21 5L21 4L23 4L23 1ZM17 5L17 6L16 6L16 7L15 7L15 8L16 8L16 7L17 7L17 6L18 6L18 5ZM22 5L22 6L21 6L21 7L22 7L22 8L23 8L23 7L24 7L24 5ZM12 6L12 7L13 7L13 6ZM22 6L22 7L23 7L23 6ZM3 9L3 12L4 12L4 13L5 13L5 12L4 12L4 9ZM28 9L28 10L29 10L29 9ZM9 10L9 11L11 11L11 10ZM26 10L26 11L27 11L27 10ZM31 10L31 11L30 11L30 12L29 12L29 11L28 11L28 12L27 12L27 14L28 14L28 13L29 13L29 14L31 14L31 12L32 12L32 10ZM2 14L2 15L3 15L3 14ZM17 14L17 15L16 15L16 16L14 16L14 15L13 15L13 16L12 16L12 17L11 17L11 18L10 18L10 19L11 19L11 20L12 20L12 21L13 21L13 22L12 22L12 23L13 23L13 24L12 24L12 25L14 25L14 26L15 26L15 25L17 25L17 27L15 27L15 28L14 28L14 29L15 29L15 28L17 28L17 29L16 29L16 31L17 31L17 29L18 29L18 30L19 30L19 29L18 29L18 26L20 26L20 27L21 27L21 26L22 26L22 25L23 25L23 22L22 22L22 23L21 23L21 22L19 22L19 21L23 21L23 20L22 20L22 19L21 19L21 20L19 20L19 21L16 21L16 22L17 22L17 23L16 23L16 24L14 24L14 22L15 22L15 21L14 21L14 20L13 20L13 19L15 19L15 20L16 20L16 19L17 19L17 20L18 20L18 19L19 19L19 18L17 18L17 17L20 17L20 16L18 16L18 14ZM28 15L28 16L29 16L29 15ZM13 16L13 17L12 17L12 18L11 18L11 19L12 19L12 18L13 18L13 17L14 17L14 18L15 18L15 19L16 19L16 18L15 18L15 17L14 17L14 16ZM32 16L32 17L33 17L33 16ZM31 18L31 19L32 19L32 20L33 20L33 18ZM4 19L4 20L5 20L5 19ZM8 21L8 24L9 24L9 21ZM29 21L29 22L31 22L31 23L33 23L33 21ZM2 23L2 24L4 24L4 23ZM17 23L17 24L18 24L18 25L19 25L19 24L18 24L18 23ZM20 24L20 26L21 26L21 24ZM25 25L25 28L28 28L28 25ZM31 25L31 27L32 27L32 26L33 26L33 25ZM26 26L26 27L27 27L27 26ZM23 30L23 32L24 32L24 30ZM31 32L31 33L32 33L32 32ZM0 0L0 7L7 7L7 0ZM1 1L1 6L6 6L6 1ZM2 2L2 5L5 5L5 2ZM26 0L26 7L33 7L33 0ZM27 1L27 6L32 6L32 1ZM28 2L28 5L31 5L31 2ZM0 26L0 33L7 33L7 26ZM1 27L1 32L6 32L6 27ZM2 28L2 31L5 31L5 28Z" fill="#000000"/></g></g></svg>
