<?xml version="1.0" encoding="UTF-8"?>
<svg xmlns="http://www.w3.org/2000/svg" version="1.1" width="400" height="400" viewBox="0 0 400 400"><rect x="0" y="0" width="400" height="400" fill="#fefefe"/><g transform="scale(9.756)"><g transform="translate(4,4)"><path fill-rule="evenodd" d="M8 0L8 1L9 1L9 2L8 2L8 5L9 5L9 4L11 4L11 5L10 5L10 10L8 10L8 9L9 9L9 8L8 8L8 9L7 9L7 8L6 8L6 9L4 9L4 8L0 8L0 11L1 11L1 12L0 12L0 15L1 15L1 16L0 16L0 18L1 18L1 19L0 19L0 20L2 20L2 21L0 21L0 22L3 22L3 23L5 23L5 24L2 24L2 23L1 23L1 24L0 24L0 25L1 25L1 24L2 24L2 25L5 25L5 24L6 24L6 25L8 25L8 26L9 26L9 28L10 28L10 29L11 29L11 30L10 30L10 31L9 31L9 29L8 29L8 33L9 33L9 32L10 32L10 31L11 31L11 30L12 30L12 29L13 29L13 30L15 30L15 31L16 31L16 33L20 33L20 32L21 32L21 33L22 33L22 32L23 32L23 30L20 30L20 32L19 32L19 31L16 31L16 29L15 29L15 28L17 28L17 27L15 27L15 28L12 28L12 27L11 27L11 24L12 24L12 25L14 25L14 24L16 24L16 23L13 23L13 24L12 24L12 21L13 21L13 19L14 19L14 20L15 20L15 19L16 19L16 20L17 20L17 21L16 21L16 22L17 22L17 21L19 21L19 22L20 22L20 23L18 23L18 24L17 24L17 25L15 25L15 26L18 26L18 30L19 30L19 29L20 29L20 28L19 28L19 27L20 27L20 26L21 26L21 29L22 29L22 28L23 28L23 29L24 29L24 32L25 32L25 31L26 31L26 33L27 33L27 31L28 31L28 33L31 33L31 32L30 32L30 31L32 31L32 32L33 32L33 31L32 31L32 29L33 29L33 27L31 27L31 26L32 26L32 25L33 25L33 21L32 21L32 20L30 20L30 19L29 19L29 17L32 17L32 18L31 18L31 19L32 19L32 18L33 18L33 16L32 16L32 15L30 15L30 16L28 16L28 15L27 15L27 16L26 16L26 15L25 15L25 16L23 16L23 14L22 14L22 15L21 15L21 19L22 19L22 16L23 16L23 18L24 18L24 17L25 17L25 19L23 19L23 20L21 20L21 21L20 21L20 19L19 19L19 18L17 18L17 19L16 19L16 18L15 18L15 17L17 17L17 15L16 15L16 16L13 16L13 19L11 19L11 17L10 17L10 19L9 19L9 18L8 18L8 15L9 15L9 16L12 16L12 14L13 14L13 15L14 15L14 14L13 14L13 13L14 13L14 11L15 11L15 9L14 9L14 10L13 10L13 6L12 6L12 5L13 5L13 4L14 4L14 5L16 5L16 12L17 12L17 13L15 13L15 14L17 14L17 13L19 13L19 14L18 14L18 16L20 16L20 14L21 14L21 11L19 11L19 12L17 12L17 9L18 9L18 10L20 10L20 9L21 9L21 10L22 10L22 13L23 13L23 12L24 12L24 14L26 14L26 13L25 13L25 11L24 11L24 10L25 10L25 9L26 9L26 12L27 12L27 14L28 14L28 13L29 13L29 12L30 12L30 11L28 11L28 10L27 10L27 9L26 9L26 8L25 8L25 6L24 6L24 9L23 9L23 5L22 5L22 8L21 8L21 6L20 6L20 5L21 5L21 3L20 3L20 2L19 2L19 3L20 3L20 4L19 4L19 5L18 5L18 3L17 3L17 2L18 2L18 1L17 1L17 2L15 2L15 0L12 0L12 1L11 1L11 0L10 0L10 1L9 1L9 0ZM19 0L19 1L20 1L20 0ZM23 0L23 1L22 1L22 2L24 2L24 3L25 3L25 0ZM11 2L11 4L12 4L12 3L13 3L13 2ZM14 2L14 4L15 4L15 2ZM16 3L16 5L17 5L17 3ZM22 3L22 4L23 4L23 3ZM8 6L8 7L9 7L9 6ZM11 6L11 8L12 8L12 6ZM14 6L14 8L15 8L15 6ZM17 6L17 7L18 7L18 9L19 9L19 8L20 8L20 6L19 6L19 7L18 7L18 6ZM28 8L28 9L31 9L31 8ZM32 8L32 10L31 10L31 11L33 11L33 8ZM6 9L6 10L7 10L7 11L5 11L5 10L4 10L4 11L3 11L3 13L2 13L2 14L1 14L1 15L2 15L2 14L3 14L3 13L4 13L4 11L5 11L5 13L6 13L6 14L5 14L5 15L4 15L4 16L5 16L5 17L4 17L4 18L2 18L2 16L1 16L1 18L2 18L2 20L3 20L3 21L4 21L4 22L7 22L7 21L8 21L8 20L9 20L9 19L8 19L8 18L7 18L7 17L6 17L6 16L7 16L7 15L6 15L6 14L9 14L9 12L8 12L8 13L6 13L6 12L7 12L7 11L8 11L8 10L7 10L7 9ZM11 9L11 10L12 10L12 9ZM11 11L11 13L10 13L10 15L11 15L11 13L12 13L12 12L13 12L13 11ZM27 11L27 12L28 12L28 11ZM19 12L19 13L20 13L20 12ZM31 12L31 14L32 14L32 12ZM25 16L25 17L26 17L26 16ZM27 16L27 17L28 17L28 16ZM5 17L5 18L4 18L4 20L5 20L5 19L7 19L7 18L6 18L6 17ZM14 18L14 19L15 19L15 18ZM18 19L18 20L19 20L19 19ZM28 19L28 22L27 22L27 24L28 24L28 23L29 23L29 25L30 25L30 26L29 26L29 29L28 29L28 31L29 31L29 30L31 30L31 29L30 29L30 26L31 26L31 25L32 25L32 21L29 21L29 19ZM6 20L6 21L7 21L7 20ZM10 20L10 21L9 21L9 22L8 22L8 23L6 23L6 24L9 24L9 22L10 22L10 21L11 21L11 20ZM24 20L24 21L25 21L25 20ZM26 20L26 21L27 21L27 20ZM14 21L14 22L15 22L15 21ZM21 21L21 23L20 23L20 24L18 24L18 25L20 25L20 24L21 24L21 26L24 26L24 24L23 24L23 23L22 23L22 22L23 22L23 21ZM24 22L24 23L25 23L25 22ZM29 22L29 23L31 23L31 22ZM10 23L10 24L11 24L11 23ZM22 24L22 25L23 25L23 24ZM25 25L25 28L28 28L28 25ZM13 26L13 27L14 27L14 26ZM26 26L26 27L27 27L27 26ZM10 27L10 28L11 28L11 27ZM23 27L23 28L24 28L24 27ZM26 29L26 30L27 30L27 29ZM21 31L21 32L22 32L22 31ZM12 32L12 33L13 33L13 32ZM0 0L0 7L7 7L7 0ZM1 1L1 6L6 6L6 1ZM2 2L2 5L5 5L5 2ZM26 0L26 7L33 7L33 0ZM27 1L27 6L32 6L32 1ZM28 2L28 5L31 5L31 2ZM0 26L0 33L7 33L7 26ZM1 27L1 32L6 32L6 27ZM2 28L2 31L5 31L5 28Z" fill="#000000"/></g></g></svg>
