<?xml version="1.0" encoding="UTF-8"?>
<svg xmlns="http://www.w3.org/2000/svg" version="1.1" width="400" height="400" viewBox="0 0 400 400"><rect x="0" y="0" width="400" height="400" fill="#fefefe"/><g transform="scale(9.756)"><g transform="translate(4,4)"><path fill-rule="evenodd" d="M11 0L11 1L8 1L8 3L9 3L9 2L10 2L10 4L8 4L8 8L6 8L6 9L5 9L5 10L3 10L3 9L4 9L4 8L3 8L3 9L2 9L2 8L0 8L0 10L2 10L2 11L0 11L0 12L2 12L2 13L1 13L1 14L0 14L0 15L1 15L1 16L2 16L2 17L1 17L1 20L0 20L0 21L2 21L2 20L4 20L4 19L2 19L2 17L5 17L5 18L6 18L6 19L5 19L5 20L6 20L6 21L7 21L7 22L6 22L6 23L4 23L4 22L5 22L5 21L4 21L4 22L3 22L3 23L2 23L2 22L0 22L0 23L1 23L1 24L0 24L0 25L1 25L1 24L2 24L2 25L3 25L3 24L4 24L4 25L5 25L5 24L6 24L6 25L7 25L7 24L6 24L6 23L7 23L7 22L8 22L8 27L9 27L9 28L12 28L12 27L13 27L13 28L14 28L14 29L13 29L13 30L14 30L14 31L15 31L15 32L16 32L16 33L17 33L17 32L20 32L20 33L27 33L27 32L28 32L28 33L29 33L29 32L30 32L30 31L33 31L33 29L31 29L31 30L29 30L29 29L30 29L30 25L29 25L29 24L27 24L27 23L26 23L26 22L28 22L28 20L30 20L30 19L28 19L28 18L27 18L27 21L26 21L26 22L24 22L24 23L25 23L25 24L23 24L23 22L22 22L22 23L21 23L21 28L19 28L19 29L18 29L18 26L20 26L20 25L18 25L18 24L20 24L20 22L19 22L19 21L16 21L16 22L17 22L17 23L16 23L16 24L15 24L15 23L13 23L13 22L15 22L15 21L14 21L14 20L13 20L13 19L15 19L15 20L16 20L16 19L17 19L17 20L18 20L18 19L19 19L19 20L20 20L20 21L23 21L23 20L24 20L24 21L25 21L25 20L26 20L26 17L27 17L27 16L26 16L26 15L29 15L29 16L28 16L28 17L29 17L29 16L30 16L30 15L32 15L32 14L33 14L33 9L32 9L32 8L30 8L30 9L29 9L29 8L26 8L26 10L24 10L24 12L26 12L26 13L25 13L25 14L23 14L23 13L22 13L22 12L23 12L23 8L24 8L24 7L25 7L25 0L19 0L19 1L21 1L21 2L20 2L20 3L18 3L18 0L15 0L15 4L13 4L13 2L14 2L14 0ZM12 1L12 2L11 2L11 4L12 4L12 2L13 2L13 1ZM22 1L22 2L21 2L21 4L23 4L23 3L24 3L24 2L23 2L23 1ZM16 3L16 6L15 6L15 7L14 7L14 5L11 5L11 7L10 7L10 6L9 6L9 7L10 7L10 8L8 8L8 9L6 9L6 10L7 10L7 11L6 11L6 12L5 12L5 11L3 11L3 13L2 13L2 14L1 14L1 15L2 15L2 14L3 14L3 16L4 16L4 12L5 12L5 16L9 16L9 17L12 17L12 18L10 18L10 19L12 19L12 18L13 18L13 17L14 17L14 18L15 18L15 19L16 19L16 18L15 18L15 17L14 17L14 16L16 16L16 15L17 15L17 14L18 14L18 16L19 16L19 15L20 15L20 14L21 14L21 11L22 11L22 10L21 10L21 9L20 9L20 6L19 6L19 9L18 9L18 8L17 8L17 7L18 7L18 3ZM19 4L19 5L20 5L20 4ZM22 5L22 6L21 6L21 7L22 7L22 6L23 6L23 7L24 7L24 5ZM12 6L12 7L13 7L13 6ZM16 6L16 7L15 7L15 8L16 8L16 11L15 11L15 9L14 9L14 8L10 8L10 9L13 9L13 10L12 10L12 11L11 11L11 10L9 10L9 9L8 9L8 10L9 10L9 11L11 11L11 12L13 12L13 13L12 13L12 14L11 14L11 13L9 13L9 12L8 12L8 11L7 11L7 12L6 12L6 13L9 13L9 14L8 14L8 15L9 15L9 16L11 16L11 15L13 15L13 16L12 16L12 17L13 17L13 16L14 16L14 15L13 15L13 13L14 13L14 14L15 14L15 13L19 13L19 14L20 14L20 13L19 13L19 12L16 12L16 11L21 11L21 10L18 10L18 9L17 9L17 8L16 8L16 7L17 7L17 6ZM28 9L28 10L29 10L29 9ZM13 10L13 11L14 11L14 10ZM31 10L31 11L30 11L30 12L29 12L29 11L28 11L28 13L29 13L29 14L31 14L31 12L32 12L32 10ZM6 14L6 15L7 15L7 14ZM9 14L9 15L10 15L10 14ZM22 14L22 17L24 17L24 18L23 18L23 19L25 19L25 16L23 16L23 14ZM25 14L25 15L26 15L26 14ZM32 16L32 17L33 17L33 16ZM6 17L6 18L7 18L7 19L6 19L6 20L9 20L9 21L8 21L8 22L9 22L9 21L11 21L11 22L10 22L10 23L9 23L9 25L11 25L11 26L9 26L9 27L11 27L11 26L13 26L13 27L14 27L14 28L15 28L15 29L14 29L14 30L15 30L15 31L16 31L16 32L17 32L17 31L20 31L20 30L21 30L21 31L22 31L22 32L24 32L24 31L22 31L22 29L23 29L23 30L25 30L25 29L24 29L24 28L23 28L23 27L24 27L24 25L23 25L23 24L22 24L22 25L23 25L23 27L22 27L22 29L19 29L19 30L18 30L18 29L17 29L17 28L15 28L15 27L17 27L17 25L15 25L15 26L14 26L14 25L12 25L12 24L13 24L13 23L12 23L12 22L13 22L13 21L12 21L12 20L9 20L9 19L8 19L8 17ZM17 17L17 18L19 18L19 19L20 19L20 20L21 20L21 19L22 19L22 18L21 18L21 17ZM31 18L31 19L32 19L32 20L33 20L33 18ZM29 21L29 22L31 22L31 23L33 23L33 21ZM11 23L11 24L12 24L12 23ZM17 23L17 24L18 24L18 23ZM25 25L25 28L28 28L28 25ZM31 25L31 27L32 27L32 26L33 26L33 25ZM26 26L26 27L27 27L27 26ZM8 29L8 30L9 30L9 31L8 31L8 33L9 33L9 31L10 31L10 33L12 33L12 32L13 32L13 33L14 33L14 32L13 32L13 31L10 31L10 30L12 30L12 29ZM16 29L16 31L17 31L17 29ZM27 29L27 30L26 30L26 31L25 31L25 32L27 32L27 31L28 31L28 32L29 32L29 31L28 31L28 29ZM31 32L31 33L32 33L32 32ZM0 0L0 7L7 7L7 0ZM1 1L1 6L6 6L6 1ZM2 2L2 5L5 5L5 2ZM26 0L26 7L33 7L33 0ZM27 1L27 6L32 6L32 1ZM28 2L28 5L31 5L31 2ZM0 26L0 33L7 33L7 26ZM1 27L1 32L6 32L6 27ZM2 28L2 31L5 31L5 28Z" fill="#000000"/></g></g></svg>
