<?xml version="1.0" encoding="UTF-8"?>
<svg xmlns="http://www.w3.org/2000/svg" version="1.1" width="400" height="400" viewBox="0 0 400 400"><rect x="0" y="0" width="400" height="400" fill="#fefefe"/><g transform="scale(9.756)"><g transform="translate(4,4)"><path fill-rule="evenodd" d="M8 0L8 4L9 4L9 5L8 5L8 7L9 7L9 8L10 8L10 7L11 7L11 5L12 5L12 7L13 7L13 5L14 5L14 7L15 7L15 8L14 8L14 9L13 9L13 8L12 8L12 9L11 9L11 11L10 11L10 13L9 13L9 11L8 11L8 9L7 9L7 8L4 8L4 9L2 9L2 8L0 8L0 9L2 9L2 10L1 10L1 11L2 11L2 12L5 12L5 11L7 11L7 12L6 12L6 13L7 13L7 14L6 14L6 15L5 15L5 16L6 16L6 17L7 17L7 16L6 16L6 15L8 15L8 16L9 16L9 17L10 17L10 16L9 16L9 15L12 15L12 13L11 13L11 11L12 11L12 12L13 12L13 11L14 11L14 9L15 9L15 12L14 12L14 13L13 13L13 14L14 14L14 13L15 13L15 15L16 15L16 14L17 14L17 16L14 16L14 17L13 17L13 16L12 16L12 17L11 17L11 19L10 19L10 18L5 18L5 17L2 17L2 16L3 16L3 15L4 15L4 14L5 14L5 13L1 13L1 12L0 12L0 16L1 16L1 18L0 18L0 19L2 19L2 20L0 20L0 22L2 22L2 23L3 23L3 24L0 24L0 25L3 25L3 24L5 24L5 23L4 23L4 21L2 21L2 20L4 20L4 19L7 19L7 20L6 20L6 21L5 21L5 22L6 22L6 23L7 23L7 24L6 24L6 25L8 25L8 26L9 26L9 27L8 27L8 29L9 29L9 27L10 27L10 23L12 23L12 22L14 22L14 25L13 25L13 24L12 24L12 25L11 25L11 28L12 28L12 27L13 27L13 26L14 26L14 25L15 25L15 28L14 28L14 29L10 29L10 30L11 30L11 31L8 31L8 33L11 33L11 32L12 32L12 30L14 30L14 29L15 29L15 32L14 32L14 33L15 33L15 32L16 32L16 31L17 31L17 33L18 33L18 32L19 32L19 33L26 33L26 32L25 32L25 31L24 31L24 30L21 30L21 29L23 29L23 28L24 28L24 29L26 29L26 31L29 31L29 33L30 33L30 31L29 31L29 29L30 29L30 30L31 30L31 31L32 31L32 30L33 30L33 29L30 29L30 27L31 27L31 28L32 28L32 26L31 26L31 25L32 25L32 24L33 24L33 23L31 23L31 22L32 22L32 21L33 21L33 19L32 19L32 18L31 18L31 17L30 17L30 18L28 18L28 19L27 19L27 18L26 18L26 17L29 17L29 16L30 16L30 14L31 14L31 16L32 16L32 17L33 17L33 16L32 16L32 14L31 14L31 13L29 13L29 12L28 12L28 11L29 11L29 10L28 10L28 8L27 8L27 12L25 12L25 13L23 13L23 12L22 12L22 11L19 11L19 12L18 12L18 11L16 11L16 10L17 10L17 9L18 9L18 10L19 10L19 9L20 9L20 10L21 10L21 9L22 9L22 10L23 10L23 11L26 11L26 9L25 9L25 8L24 8L24 9L22 9L22 7L23 7L23 6L22 6L22 7L21 7L21 3L22 3L22 2L23 2L23 3L24 3L24 4L23 4L23 5L25 5L25 3L24 3L24 2L23 2L23 1L25 1L25 0L23 0L23 1L22 1L22 0L20 0L20 1L18 1L18 2L16 2L16 3L15 3L15 4L14 4L14 3L12 3L12 4L9 4L9 3L11 3L11 2L9 2L9 0ZM10 0L10 1L12 1L12 2L13 2L13 0ZM15 0L15 1L14 1L14 2L15 2L15 1L16 1L16 0ZM20 1L20 2L19 2L19 5L18 5L18 3L17 3L17 4L16 4L16 5L15 5L15 7L16 7L16 8L15 8L15 9L17 9L17 7L18 7L18 8L20 8L20 9L21 9L21 7L20 7L20 6L19 6L19 5L20 5L20 3L21 3L21 2L22 2L22 1ZM9 5L9 7L10 7L10 5ZM17 5L17 6L16 6L16 7L17 7L17 6L18 6L18 7L19 7L19 6L18 6L18 5ZM24 6L24 7L25 7L25 6ZM29 8L29 9L31 9L31 12L32 12L32 13L33 13L33 12L32 12L32 9L33 9L33 8ZM4 9L4 10L5 10L5 9ZM6 9L6 10L7 10L7 9ZM9 9L9 10L10 10L10 9ZM24 9L24 10L25 10L25 9ZM2 10L2 11L3 11L3 10ZM12 10L12 11L13 11L13 10ZM7 12L7 13L8 13L8 12ZM16 12L16 13L17 13L17 12ZM10 13L10 14L11 14L11 13ZM19 13L19 15L18 15L18 16L19 16L19 15L20 15L20 14L23 14L23 13ZM25 13L25 14L24 14L24 15L26 15L26 16L28 16L28 15L29 15L29 13ZM8 14L8 15L9 15L9 14ZM26 14L26 15L27 15L27 14ZM1 15L1 16L2 16L2 15ZM22 15L22 17L21 17L21 16L20 16L20 17L19 17L19 18L18 18L18 17L17 17L17 19L16 19L16 20L15 20L15 18L16 18L16 17L14 17L14 19L13 19L13 18L12 18L12 19L13 19L13 21L14 21L14 22L15 22L15 21L16 21L16 20L17 20L17 19L18 19L18 21L17 21L17 23L15 23L15 24L16 24L16 25L17 25L17 26L16 26L16 28L15 28L15 29L17 29L17 30L19 30L19 31L20 31L20 32L21 32L21 31L20 31L20 29L21 29L21 28L20 28L20 29L19 29L19 27L22 27L22 28L23 28L23 27L24 27L24 26L23 26L23 27L22 27L22 25L24 25L24 24L23 24L23 19L22 19L22 17L25 17L25 16L23 16L23 15ZM20 17L20 19L19 19L19 21L20 21L20 22L21 22L21 23L20 23L20 24L19 24L19 23L17 23L17 25L18 25L18 24L19 24L19 25L20 25L20 26L21 26L21 25L22 25L22 19L21 19L21 17ZM2 18L2 19L4 19L4 18ZM8 19L8 20L7 20L7 21L6 21L6 22L9 22L9 21L10 21L10 20L9 20L9 19ZM20 19L20 21L21 21L21 19ZM26 19L26 20L25 20L25 21L26 21L26 22L24 22L24 23L27 23L27 22L31 22L31 20L32 20L32 19L30 19L30 21L26 21L26 20L27 20L27 19ZM28 19L28 20L29 20L29 19ZM8 20L8 21L9 21L9 20ZM14 20L14 21L15 21L15 20ZM8 23L8 25L9 25L9 23ZM30 23L30 24L29 24L29 26L30 26L30 25L31 25L31 23ZM20 24L20 25L21 25L21 24ZM25 25L25 28L28 28L28 25ZM17 26L17 29L18 29L18 27L19 27L19 26ZM26 26L26 27L27 27L27 26ZM22 31L22 32L23 32L23 31ZM32 32L32 33L33 33L33 32ZM0 0L0 7L7 7L7 0ZM1 1L1 6L6 6L6 1ZM2 2L2 5L5 5L5 2ZM26 0L26 7L33 7L33 0ZM27 1L27 6L32 6L32 1ZM28 2L28 5L31 5L31 2ZM0 26L0 33L7 33L7 26ZM1 27L1 32L6 32L6 27ZM2 28L2 31L5 31L5 28Z" fill="#000000"/></g></g></svg>
