<?xml version="1.0" encoding="UTF-8"?>
<svg xmlns="http://www.w3.org/2000/svg" version="1.1" width="400" height="400" viewBox="0 0 400 400"><rect x="0" y="0" width="400" height="400" fill="#fefefe"/><g transform="scale(9.756)"><g transform="translate(4,4)"><path fill-rule="evenodd" d="M11 0L11 1L8 1L8 3L9 3L9 2L10 2L10 4L8 4L8 8L6 8L6 9L7 9L7 10L6 10L6 11L5 11L5 9L4 9L4 8L3 8L3 10L2 10L2 8L0 8L0 10L1 10L1 11L0 11L0 14L1 14L1 13L3 13L3 14L4 14L4 15L1 15L1 16L3 16L3 18L2 18L2 19L3 19L3 22L0 22L0 23L1 23L1 24L0 24L0 25L1 25L1 24L2 24L2 25L3 25L3 22L4 22L4 16L5 16L5 18L6 18L6 19L5 19L5 20L6 20L6 21L5 21L5 23L4 23L4 25L7 25L7 24L5 24L5 23L9 23L9 25L8 25L8 27L10 27L10 28L9 28L9 29L8 29L8 30L9 30L9 31L8 31L8 33L12 33L12 31L13 31L13 30L14 30L14 31L15 31L15 32L16 32L16 33L17 33L17 32L19 32L19 31L17 31L17 29L18 29L18 30L19 30L19 29L20 29L20 33L25 33L25 31L26 31L26 30L27 30L27 31L29 31L29 32L28 32L28 33L29 33L29 32L30 32L30 31L33 31L33 29L31 29L31 30L29 30L29 29L30 29L30 25L29 25L29 24L28 24L28 23L29 23L29 22L31 22L31 23L33 23L33 21L29 21L29 22L27 22L27 21L26 21L26 24L25 24L25 22L24 22L24 23L23 23L23 22L22 22L22 23L21 23L21 22L19 22L19 21L23 21L23 20L24 20L24 21L25 21L25 20L26 20L26 17L27 17L27 19L28 19L28 20L30 20L30 19L29 19L29 18L28 18L28 17L29 17L29 16L30 16L30 15L32 15L32 14L33 14L33 9L32 9L32 8L30 8L30 9L29 9L29 8L26 8L26 10L25 10L25 5L24 5L24 2L25 2L25 0L21 0L21 2L19 2L19 1L20 1L20 0L18 0L18 2L17 2L17 0L15 0L15 4L13 4L13 2L14 2L14 0ZM12 1L12 2L11 2L11 4L12 4L12 2L13 2L13 1ZM22 1L22 2L21 2L21 5L22 5L22 6L21 6L21 7L20 7L20 6L19 6L19 5L20 5L20 4L19 4L19 3L16 3L16 6L15 6L15 7L14 7L14 5L11 5L11 7L10 7L10 6L9 6L9 7L10 7L10 8L8 8L8 10L7 10L7 11L6 11L6 12L7 12L7 11L9 11L9 12L8 12L8 13L11 13L11 14L10 14L10 15L11 15L11 16L9 16L9 17L8 17L8 15L9 15L9 14L8 14L8 15L6 15L6 14L7 14L7 13L6 13L6 14L5 14L5 16L7 16L7 17L6 17L6 18L8 18L8 20L9 20L9 17L10 17L10 19L12 19L12 18L13 18L13 17L14 17L14 18L15 18L15 19L13 19L13 20L14 20L14 21L15 21L15 22L13 22L13 21L12 21L12 20L10 20L10 21L8 21L8 22L9 22L9 23L10 23L10 25L9 25L9 26L12 26L12 27L14 27L14 28L11 28L11 29L12 29L12 30L11 30L11 31L10 31L10 32L11 32L11 31L12 31L12 30L13 30L13 29L14 29L14 30L15 30L15 31L16 31L16 32L17 32L17 31L16 31L16 29L17 29L17 28L15 28L15 27L17 27L17 25L15 25L15 26L14 26L14 25L12 25L12 24L13 24L13 23L15 23L15 24L16 24L16 23L17 23L17 24L18 24L18 25L19 25L19 24L18 24L18 23L17 23L17 22L16 22L16 21L19 21L19 20L21 20L21 18L20 18L20 17L21 17L21 15L23 15L23 14L25 14L25 16L23 16L23 17L22 17L22 19L25 19L25 16L27 16L27 14L28 14L28 13L29 13L29 14L31 14L31 12L32 12L32 10L31 10L31 11L30 11L30 12L29 12L29 11L28 11L28 10L29 10L29 9L28 9L28 10L27 10L27 11L26 11L26 12L23 12L23 13L22 13L22 14L19 14L19 13L20 13L20 11L16 11L16 8L17 8L17 9L18 9L18 10L20 10L20 9L21 9L21 7L22 7L22 10L21 10L21 11L22 11L22 10L23 10L23 11L24 11L24 9L23 9L23 7L24 7L24 5L23 5L23 4L22 4L22 3L23 3L23 1ZM17 4L17 5L18 5L18 4ZM12 6L12 7L13 7L13 6ZM16 6L16 7L15 7L15 8L16 8L16 7L17 7L17 8L18 8L18 9L19 9L19 8L20 8L20 7L19 7L19 6L18 6L18 7L17 7L17 6ZM22 6L22 7L23 7L23 6ZM10 8L10 9L13 9L13 10L12 10L12 11L11 11L11 10L9 10L9 11L11 11L11 12L13 12L13 13L12 13L12 14L11 14L11 15L13 15L13 16L12 16L12 17L11 17L11 18L12 18L12 17L13 17L13 16L14 16L14 17L15 17L15 18L16 18L16 19L15 19L15 20L16 20L16 19L17 19L17 20L18 20L18 19L19 19L19 18L17 18L17 17L19 17L19 16L20 16L20 15L19 15L19 16L18 16L18 14L17 14L17 15L16 15L16 16L14 16L14 15L13 15L13 13L14 13L14 14L15 14L15 13L19 13L19 12L16 12L16 11L15 11L15 9L14 9L14 8ZM3 10L3 11L2 11L2 12L3 12L3 11L4 11L4 12L5 12L5 11L4 11L4 10ZM13 10L13 11L14 11L14 10ZM26 12L26 13L25 13L25 14L27 14L27 12ZM32 16L32 17L33 17L33 16ZM23 17L23 18L24 18L24 17ZM31 18L31 19L32 19L32 20L33 20L33 18ZM0 19L0 20L1 20L1 21L2 21L2 20L1 20L1 19ZM6 19L6 20L7 20L7 19ZM6 21L6 22L7 22L7 21ZM10 21L10 23L11 23L11 24L12 24L12 23L13 23L13 22L12 22L12 23L11 23L11 21ZM20 24L20 26L18 26L18 29L19 29L19 28L20 28L20 29L21 29L21 31L22 31L22 32L24 32L24 31L22 31L22 29L23 29L23 30L24 30L24 28L23 28L23 27L24 27L24 24L23 24L23 25L22 25L22 26L21 26L21 24ZM25 25L25 28L28 28L28 25ZM31 25L31 27L32 27L32 26L33 26L33 25ZM20 26L20 28L21 28L21 29L22 29L22 27L23 27L23 26L22 26L22 27L21 27L21 26ZM26 26L26 27L27 27L27 26ZM14 28L14 29L15 29L15 28ZM13 32L13 33L14 33L14 32ZM26 32L26 33L27 33L27 32ZM31 32L31 33L32 33L32 32ZM0 0L0 7L7 7L7 0ZM1 1L1 6L6 6L6 1ZM2 2L2 5L5 5L5 2ZM26 0L26 7L33 7L33 0ZM27 1L27 6L32 6L32 1ZM28 2L28 5L31 5L31 2ZM0 26L0 33L7 33L7 26ZM1 27L1 32L6 32L6 27ZM2 28L2 31L5 31L5 28Z" fill="#000000"/></g></g></svg>
