<?xml version="1.0" encoding="UTF-8"?>
<svg xmlns="http://www.w3.org/2000/svg" version="1.1" width="400" height="400" viewBox="0 0 400 400"><rect x="0" y="0" width="400" height="400" fill="#fefefe"/><g transform="scale(9.756)"><g transform="translate(4,4)"><path fill-rule="evenodd" d="M11 0L11 1L8 1L8 3L9 3L9 2L10 2L10 4L8 4L8 8L6 8L6 9L4 9L4 8L3 8L3 9L2 9L2 8L0 8L0 9L1 9L1 10L0 10L0 11L3 11L3 12L4 12L4 13L3 13L3 15L4 15L4 16L3 16L3 17L1 17L1 18L0 18L0 19L1 19L1 20L2 20L2 21L4 21L4 20L2 20L2 19L3 19L3 17L5 17L5 16L6 16L6 17L7 17L7 16L10 16L10 18L12 18L12 19L9 19L9 20L8 20L8 18L9 18L9 17L8 17L8 18L5 18L5 19L7 19L7 20L5 20L5 22L4 22L4 24L3 24L3 25L5 25L5 22L6 22L6 23L7 23L7 24L6 24L6 25L7 25L7 24L8 24L8 23L10 23L10 24L9 24L9 25L8 25L8 27L9 27L9 28L10 28L10 29L8 29L8 30L10 30L10 31L8 31L8 33L10 33L10 31L11 31L11 33L12 33L12 32L13 32L13 33L14 33L14 32L13 32L13 31L11 31L11 30L12 30L12 29L11 29L11 28L10 28L10 27L12 27L12 26L11 26L11 25L10 25L10 24L12 24L12 25L14 25L14 26L15 26L15 25L17 25L17 27L15 27L15 28L14 28L14 27L13 27L13 28L14 28L14 29L13 29L13 30L14 30L14 31L15 31L15 32L16 32L16 33L17 33L17 32L19 32L19 33L23 33L23 32L24 32L24 33L25 33L25 32L26 32L26 30L27 30L27 29L28 29L28 32L27 32L27 33L29 33L29 32L30 32L30 31L33 31L33 29L31 29L31 30L29 30L29 29L30 29L30 25L29 25L29 24L25 24L25 23L23 23L23 22L22 22L22 23L20 23L20 22L19 22L19 21L16 21L16 22L17 22L17 23L16 23L16 24L15 24L15 23L13 23L13 22L15 22L15 21L14 21L14 20L13 20L13 19L15 19L15 20L16 20L16 19L17 19L17 20L18 20L18 19L19 19L19 18L17 18L17 17L20 17L20 21L23 21L23 20L24 20L24 21L25 21L25 20L26 20L26 17L27 17L27 15L26 15L26 14L27 14L27 11L26 11L26 10L28 10L28 9L29 9L29 12L30 12L30 11L31 11L31 10L32 10L32 12L31 12L31 14L29 14L29 13L28 13L28 15L29 15L29 16L28 16L28 17L29 17L29 16L30 16L30 15L32 15L32 14L33 14L33 9L32 9L32 8L30 8L30 9L29 9L29 8L26 8L26 10L25 10L25 11L22 11L22 10L23 10L23 9L24 9L24 8L25 8L25 6L24 6L24 7L23 7L23 6L22 6L22 5L24 5L24 3L25 3L25 0L19 0L19 1L21 1L21 2L22 2L22 1L23 1L23 2L24 2L24 3L23 3L23 4L21 4L21 3L20 3L20 5L19 5L19 6L18 6L18 5L17 5L17 6L16 6L16 3L19 3L19 2L18 2L18 1L17 1L17 0L15 0L15 4L13 4L13 2L14 2L14 0ZM12 1L12 2L11 2L11 4L12 4L12 2L13 2L13 1ZM11 5L11 7L10 7L10 6L9 6L9 7L10 7L10 8L8 8L8 9L6 9L6 10L11 10L11 11L6 11L6 12L5 12L5 10L3 10L3 11L4 11L4 12L5 12L5 13L4 13L4 15L5 15L5 14L7 14L7 15L6 15L6 16L7 16L7 15L9 15L9 14L7 14L7 13L6 13L6 12L8 12L8 13L11 13L11 14L10 14L10 15L11 15L11 17L12 17L12 18L13 18L13 17L14 17L14 18L15 18L15 19L16 19L16 18L15 18L15 17L14 17L14 16L16 16L16 15L17 15L17 14L18 14L18 16L20 16L20 17L21 17L21 16L20 16L20 15L21 15L21 14L19 14L19 13L20 13L20 12L21 12L21 11L20 11L20 12L19 12L19 11L16 11L16 8L17 8L17 9L18 9L18 10L20 10L20 9L21 9L21 7L22 7L22 8L23 8L23 7L22 7L22 6L21 6L21 5L20 5L20 6L19 6L19 7L18 7L18 6L17 6L17 7L16 7L16 6L15 6L15 7L14 7L14 5ZM12 6L12 7L13 7L13 6ZM20 6L20 7L21 7L21 6ZM15 7L15 8L16 8L16 7ZM17 7L17 8L18 8L18 9L19 9L19 8L18 8L18 7ZM10 8L10 9L13 9L13 10L12 10L12 11L11 11L11 12L13 12L13 13L12 13L12 14L11 14L11 15L13 15L13 16L12 16L12 17L13 17L13 16L14 16L14 15L13 15L13 13L14 13L14 14L15 14L15 13L19 13L19 12L16 12L16 11L15 11L15 9L14 9L14 8ZM13 10L13 11L14 11L14 10ZM23 12L23 13L22 13L22 14L25 14L25 13L26 13L26 12ZM0 13L0 15L1 15L1 14L2 14L2 13ZM23 16L23 17L22 17L22 18L23 18L23 19L22 19L22 20L23 20L23 19L25 19L25 16ZM32 16L32 17L33 17L33 16ZM23 17L23 18L24 18L24 17ZM1 18L1 19L2 19L2 18ZM27 18L27 21L26 21L26 23L27 23L27 22L28 22L28 20L30 20L30 19L28 19L28 18ZM31 18L31 19L32 19L32 20L33 20L33 18ZM7 20L7 21L6 21L6 22L9 22L9 21L10 21L10 20L9 20L9 21L8 21L8 20ZM11 20L11 22L10 22L10 23L12 23L12 24L13 24L13 23L12 23L12 22L13 22L13 21L12 21L12 20ZM29 21L29 22L31 22L31 23L33 23L33 21ZM0 22L0 23L1 23L1 24L0 24L0 25L1 25L1 24L2 24L2 23L3 23L3 22ZM17 23L17 24L18 24L18 25L20 25L20 24L18 24L18 23ZM22 24L22 25L23 25L23 27L24 27L24 24ZM9 25L9 27L10 27L10 25ZM25 25L25 28L28 28L28 25ZM31 25L31 27L32 27L32 26L33 26L33 25ZM18 26L18 29L17 29L17 28L15 28L15 29L14 29L14 30L15 30L15 31L16 31L16 32L17 32L17 31L19 31L19 32L21 32L21 31L22 31L22 32L23 32L23 31L24 31L24 30L25 30L25 29L24 29L24 28L22 28L22 29L24 29L24 30L20 30L20 29L21 29L21 28L20 28L20 29L19 29L19 27L21 27L21 26ZM26 26L26 27L27 27L27 26ZM16 29L16 31L17 31L17 29ZM18 29L18 30L19 30L19 29ZM31 32L31 33L32 33L32 32ZM0 0L0 7L7 7L7 0ZM1 1L1 6L6 6L6 1ZM2 2L2 5L5 5L5 2ZM26 0L26 7L33 7L33 0ZM27 1L27 6L32 6L32 1ZM28 2L28 5L31 5L31 2ZM0 26L0 33L7 33L7 26ZM1 27L1 32L6 32L6 27ZM2 28L2 31L5 31L5 28Z" fill="#000000"/></g></g></svg>
