<?xml version="1.0" encoding="UTF-8"?>
<svg xmlns="http://www.w3.org/2000/svg" version="1.1" width="400" height="400" viewBox="0 0 400 400"><rect x="0" y="0" width="400" height="400" fill="#fefefe"/><g transform="scale(9.756)"><g transform="translate(4,4)"><path fill-rule="evenodd" d="M10 0L10 2L11 2L11 0ZM12 0L12 1L13 1L13 2L12 2L12 4L14 4L14 3L13 3L13 2L14 2L14 1L15 1L15 2L16 2L16 1L15 1L15 0ZM18 0L18 1L21 1L21 3L20 3L20 2L18 2L18 3L17 3L17 4L19 4L19 5L20 5L20 4L21 4L21 6L20 6L20 7L21 7L21 8L20 8L20 9L19 9L19 6L18 6L18 8L17 8L17 6L16 6L16 5L15 5L15 6L14 6L14 5L11 5L11 6L10 6L10 4L11 4L11 3L8 3L8 4L9 4L9 5L8 5L8 7L9 7L9 8L6 8L6 9L7 9L7 10L5 10L5 8L0 8L0 10L1 10L1 12L0 12L0 13L2 13L2 14L0 14L0 16L1 16L1 15L3 15L3 13L5 13L5 14L4 14L4 16L2 16L2 17L4 17L4 16L5 16L5 19L4 19L4 18L2 18L2 20L3 20L3 21L0 21L0 25L1 25L1 22L2 22L2 23L3 23L3 24L2 24L2 25L7 25L7 24L6 24L6 23L7 23L7 22L6 22L6 23L5 23L5 20L6 20L6 21L7 21L7 20L6 20L6 19L7 19L7 18L8 18L8 17L9 17L9 18L11 18L11 17L12 17L12 18L13 18L13 19L14 19L14 18L15 18L15 21L14 21L14 20L13 20L13 21L14 21L14 24L13 24L13 22L12 22L12 20L11 20L11 19L9 19L9 21L8 21L8 27L9 27L9 28L8 28L8 33L11 33L11 32L12 32L12 31L9 31L9 28L10 28L10 30L13 30L13 29L14 29L14 30L15 30L15 31L14 31L14 32L13 32L13 33L14 33L14 32L15 32L15 33L16 33L16 32L17 32L17 33L18 33L18 32L17 32L17 31L16 31L16 30L17 30L17 29L18 29L18 28L19 28L19 30L20 30L20 31L21 31L21 32L19 32L19 33L21 33L21 32L22 32L22 30L23 30L23 29L22 29L22 30L20 30L20 29L21 29L21 28L22 28L22 27L21 27L21 28L19 28L19 27L18 27L18 28L17 28L17 25L18 25L18 24L17 24L17 23L19 23L19 24L20 24L20 25L19 25L19 26L20 26L20 25L21 25L21 26L23 26L23 28L24 28L24 29L25 29L25 30L24 30L24 31L23 31L23 32L24 32L24 33L26 33L26 32L24 32L24 31L25 31L25 30L26 30L26 31L27 31L27 32L29 32L29 33L30 33L30 32L31 32L31 33L32 33L32 32L31 32L31 31L32 31L32 30L31 30L31 29L32 29L32 28L33 28L33 27L32 27L32 26L33 26L33 23L30 23L30 24L32 24L32 25L30 25L30 26L31 26L31 27L30 27L30 28L29 28L29 24L24 24L24 26L23 26L23 25L21 25L21 24L23 24L23 22L25 22L25 23L26 23L26 22L27 22L27 23L28 23L28 21L30 21L30 20L31 20L31 19L32 19L32 20L33 20L33 19L32 19L32 18L33 18L33 17L32 17L32 14L33 14L33 13L32 13L32 10L33 10L33 9L32 9L32 8L31 8L31 9L32 9L32 10L27 10L27 9L28 9L28 8L27 8L27 9L26 9L26 8L25 8L25 9L21 9L21 8L24 8L24 7L25 7L25 6L24 6L24 7L23 7L23 6L22 6L22 4L23 4L23 5L25 5L25 4L23 4L23 3L25 3L25 2L23 2L23 1L25 1L25 0L23 0L23 1L21 1L21 0ZM8 1L8 2L9 2L9 1ZM15 3L15 4L16 4L16 3ZM19 3L19 4L20 4L20 3ZM21 3L21 4L22 4L22 3ZM9 6L9 7L10 7L10 6ZM11 6L11 7L12 7L12 9L11 9L11 8L10 8L10 9L9 9L9 11L8 11L8 10L7 10L7 11L5 11L5 13L6 13L6 14L7 14L7 15L6 15L6 16L8 16L8 14L7 14L7 13L9 13L9 12L11 12L11 13L10 13L10 14L9 14L9 15L10 15L10 16L9 16L9 17L10 17L10 16L11 16L11 14L13 14L13 15L12 15L12 16L14 16L14 17L13 17L13 18L14 18L14 17L16 17L16 15L15 15L15 14L16 14L16 13L17 13L17 12L18 12L18 11L16 11L16 12L15 12L15 10L16 10L16 9L17 9L17 10L18 10L18 9L17 9L17 8L16 8L16 9L15 9L15 7L16 7L16 6L15 6L15 7L14 7L14 6L13 6L13 7L12 7L12 6ZM21 6L21 7L22 7L22 6ZM13 8L13 9L12 9L12 10L13 10L13 11L12 11L12 13L14 13L14 14L15 14L15 13L14 13L14 12L13 12L13 11L14 11L14 10L15 10L15 9L14 9L14 8ZM29 8L29 9L30 9L30 8ZM1 9L1 10L2 10L2 12L3 12L3 10L4 10L4 9ZM10 9L10 11L11 11L11 9ZM13 9L13 10L14 10L14 9ZM20 9L20 10L19 10L19 13L20 13L20 14L17 14L17 16L18 16L18 15L19 15L19 17L22 17L22 19L23 19L23 20L21 20L21 19L20 19L20 18L19 18L19 19L20 19L20 20L18 20L18 19L17 19L17 18L18 18L18 17L17 17L17 18L16 18L16 19L17 19L17 20L18 20L18 21L17 21L17 22L16 22L16 21L15 21L15 22L16 22L16 23L15 23L15 24L14 24L14 25L13 25L13 26L11 26L11 25L12 25L12 24L10 24L10 23L12 23L12 22L10 22L10 21L11 21L11 20L10 20L10 21L9 21L9 24L10 24L10 26L9 26L9 27L10 27L10 28L12 28L12 29L13 29L13 28L14 28L14 29L15 29L15 30L16 30L16 29L17 29L17 28L16 28L16 29L15 29L15 26L16 26L16 25L17 25L17 24L16 24L16 23L17 23L17 22L19 22L19 23L20 23L20 22L19 22L19 21L21 21L21 22L23 22L23 20L25 20L25 18L26 18L26 17L27 17L27 18L29 18L29 19L26 19L26 21L25 21L25 22L26 22L26 21L28 21L28 20L30 20L30 19L31 19L31 18L30 18L30 17L31 17L31 16L30 16L30 14L29 14L29 13L31 13L31 12L29 12L29 11L27 11L27 10L26 10L26 9L25 9L25 10L23 10L23 12L21 12L21 13L20 13L20 10L21 10L21 9ZM24 11L24 13L21 13L21 15L20 15L20 16L22 16L22 17L23 17L23 18L25 18L25 17L23 17L23 14L24 14L24 15L26 15L26 16L27 16L27 17L29 17L29 16L27 16L27 15L28 15L28 14L27 14L27 13L29 13L29 12L27 12L27 11L26 11L26 12L27 12L27 13L25 13L25 11ZM6 12L6 13L7 13L7 12ZM24 13L24 14L25 14L25 13ZM26 14L26 15L27 15L27 14ZM0 17L0 20L1 20L1 17ZM6 17L6 18L7 18L7 17ZM3 19L3 20L4 20L4 19ZM3 21L3 23L4 23L4 24L5 24L5 23L4 23L4 21ZM32 21L32 22L33 22L33 21ZM14 25L14 26L15 26L15 25ZM25 25L25 28L28 28L28 25ZM10 26L10 27L11 27L11 26ZM26 26L26 27L27 27L27 26ZM12 27L12 28L13 28L13 27ZM30 28L30 29L29 29L29 30L28 30L28 29L26 29L26 30L28 30L28 31L29 31L29 32L30 32L30 31L29 31L29 30L30 30L30 29L31 29L31 28ZM0 0L0 7L7 7L7 0ZM1 1L1 6L6 6L6 1ZM2 2L2 5L5 5L5 2ZM26 0L26 7L33 7L33 0ZM27 1L27 6L32 6L32 1ZM28 2L28 5L31 5L31 2ZM0 26L0 33L7 33L7 26ZM1 27L1 32L6 32L6 27ZM2 28L2 31L5 31L5 28Z" fill="#000000"/></g></g></svg>
