<?xml version="1.0" encoding="UTF-8"?>
<svg xmlns="http://www.w3.org/2000/svg" version="1.1" width="400" height="400" viewBox="0 0 400 400"><rect x="0" y="0" width="400" height="400" fill="#fefefe"/><g transform="scale(9.756)"><g transform="translate(4,4)"><path fill-rule="evenodd" d="M8 0L8 1L10 1L10 0ZM12 0L12 2L9 2L9 4L10 4L10 5L11 5L11 6L10 6L10 8L9 8L9 6L8 6L8 8L9 8L9 10L10 10L10 11L9 11L9 13L7 13L7 12L8 12L8 9L7 9L7 8L6 8L6 9L7 9L7 10L6 10L6 11L7 11L7 12L6 12L6 13L7 13L7 14L6 14L6 15L7 15L7 16L6 16L6 17L7 17L7 18L6 18L6 19L9 19L9 20L8 20L8 21L7 21L7 20L5 20L5 19L4 19L4 18L2 18L2 17L3 17L3 16L4 16L4 17L5 17L5 14L4 14L4 11L3 11L3 10L4 10L4 9L5 9L5 8L3 8L3 9L2 9L2 8L0 8L0 9L1 9L1 10L0 10L0 11L3 11L3 12L2 12L2 14L4 14L4 15L2 15L2 16L1 16L1 14L0 14L0 17L1 17L1 19L0 19L0 20L1 20L1 21L0 21L0 25L3 25L3 24L4 24L4 25L8 25L8 26L9 26L9 28L8 28L8 30L10 30L10 31L8 31L8 33L11 33L11 32L10 32L10 31L12 31L12 32L14 32L14 31L16 31L16 32L15 32L15 33L18 33L18 32L17 32L17 31L18 31L18 29L17 29L17 30L16 30L16 28L15 28L15 27L16 27L16 26L17 26L17 24L18 24L18 23L19 23L19 25L20 25L20 26L19 26L19 27L18 27L18 28L20 28L20 29L19 29L19 31L20 31L20 30L21 30L21 28L20 28L20 26L21 26L21 25L20 25L20 24L21 24L21 23L23 23L23 24L22 24L22 26L23 26L23 27L24 27L24 28L23 28L23 30L22 30L22 31L23 31L23 32L22 32L22 33L23 33L23 32L24 32L24 33L25 33L25 32L24 32L24 30L25 30L25 29L27 29L27 31L26 31L26 33L27 33L27 32L28 32L28 33L30 33L30 32L33 32L33 30L32 30L32 31L31 31L31 29L32 29L32 28L33 28L33 27L30 27L30 28L31 28L31 29L29 29L29 25L30 25L30 26L31 26L31 25L32 25L32 24L33 24L33 22L32 22L32 23L30 23L30 22L29 22L29 21L30 21L30 20L31 20L31 21L32 21L32 19L33 19L33 15L31 15L31 13L30 13L30 12L32 12L32 13L33 13L33 12L32 12L32 11L33 11L33 10L30 10L30 12L29 12L29 9L27 9L27 8L26 8L26 9L27 9L27 10L25 10L25 9L23 9L23 8L22 8L22 9L23 9L23 11L22 11L22 14L19 14L19 13L21 13L21 8L20 8L20 7L21 7L21 6L22 6L22 7L23 7L23 6L24 6L24 8L25 8L25 6L24 6L24 5L25 5L25 4L24 4L24 3L25 3L25 0L24 0L24 3L23 3L23 4L24 4L24 5L22 5L22 2L23 2L23 0L22 0L22 2L20 2L20 1L21 1L21 0L20 0L20 1L18 1L18 0L16 0L16 1L18 1L18 3L17 3L17 2L16 2L16 4L17 4L17 5L16 5L16 8L15 8L15 6L14 6L14 5L15 5L15 3L14 3L14 2L15 2L15 1L14 1L14 2L13 2L13 0ZM19 2L19 4L18 4L18 6L17 6L17 8L18 8L18 6L19 6L19 7L20 7L20 5L19 5L19 4L21 4L21 3L20 3L20 2ZM10 3L10 4L11 4L11 5L12 5L12 4L13 4L13 5L14 5L14 4L13 4L13 3L12 3L12 4L11 4L11 3ZM11 6L11 7L12 7L12 6ZM13 6L13 7L14 7L14 6ZM11 8L11 9L12 9L12 8ZM13 8L13 10L15 10L15 8ZM32 8L32 9L33 9L33 8ZM16 9L16 10L17 10L17 11L18 11L18 9ZM19 10L19 12L20 12L20 10ZM24 10L24 11L25 11L25 10ZM27 10L27 11L26 11L26 12L28 12L28 14L27 14L27 13L25 13L25 12L24 12L24 13L25 13L25 15L24 15L24 14L22 14L22 15L19 15L19 14L16 14L16 16L15 16L15 18L17 18L17 20L16 20L16 19L15 19L15 20L13 20L13 19L14 19L14 17L13 17L13 19L11 19L11 18L12 18L12 17L11 17L11 16L10 16L10 15L8 15L8 18L9 18L9 16L10 16L10 19L11 19L11 20L13 20L13 22L14 22L14 23L13 23L13 25L14 25L14 27L12 27L12 26L11 26L11 25L10 25L10 23L11 23L11 24L12 24L12 23L11 23L11 21L10 21L10 20L9 20L9 21L8 21L8 22L7 22L7 21L6 21L6 22L5 22L5 23L4 23L4 19L3 19L3 21L2 21L2 22L1 22L1 24L2 24L2 23L4 23L4 24L7 24L7 23L8 23L8 25L9 25L9 26L10 26L10 28L9 28L9 29L10 29L10 28L12 28L12 29L11 29L11 30L12 30L12 31L13 31L13 30L14 30L14 29L13 29L13 28L14 28L14 27L15 27L15 25L16 25L16 24L17 24L17 23L18 23L18 22L19 22L19 23L21 23L21 22L19 22L19 21L20 21L20 20L18 20L18 18L17 18L17 17L18 17L18 15L19 15L19 17L20 17L20 19L21 19L21 21L22 21L22 20L26 20L26 22L24 22L24 23L25 23L25 24L28 24L28 23L26 23L26 22L27 22L27 20L28 20L28 21L29 21L29 20L30 20L30 19L32 19L32 18L30 18L30 19L28 19L28 18L26 18L26 16L25 16L25 15L27 15L27 16L28 16L28 15L29 15L29 16L30 16L30 17L31 17L31 16L30 16L30 14L29 14L29 12L28 12L28 10ZM11 11L11 12L10 12L10 13L9 13L9 14L11 14L11 15L12 15L12 14L13 14L13 13L14 13L14 15L13 15L13 16L14 16L14 15L15 15L15 13L16 13L16 11ZM0 12L0 13L1 13L1 12ZM11 12L11 14L12 14L12 12ZM14 12L14 13L15 13L15 12ZM17 12L17 13L18 13L18 12ZM22 15L22 16L23 16L23 17L24 17L24 18L23 18L23 19L24 19L24 18L25 18L25 17L24 17L24 16L23 16L23 15ZM16 16L16 17L17 17L17 16ZM26 19L26 20L27 20L27 19ZM15 20L15 24L14 24L14 25L15 25L15 24L16 24L16 20ZM17 20L17 21L18 21L18 20ZM9 21L9 22L8 22L8 23L9 23L9 22L10 22L10 21ZM6 22L6 23L7 23L7 22ZM30 24L30 25L31 25L31 24ZM25 25L25 28L28 28L28 25ZM26 26L26 27L27 27L27 26ZM12 29L12 30L13 30L13 29ZM28 29L28 30L29 30L29 32L30 32L30 30L29 30L29 29ZM19 32L19 33L21 33L21 32ZM0 0L0 7L7 7L7 0ZM1 1L1 6L6 6L6 1ZM2 2L2 5L5 5L5 2ZM26 0L26 7L33 7L33 0ZM27 1L27 6L32 6L32 1ZM28 2L28 5L31 5L31 2ZM0 26L0 33L7 33L7 26ZM1 27L1 32L6 32L6 27ZM2 28L2 31L5 31L5 28Z" fill="#000000"/></g></g></svg>
