<?xml version="1.0" encoding="UTF-8"?>
<svg xmlns="http://www.w3.org/2000/svg" version="1.1" width="400" height="400" viewBox="0 0 400 400"><rect x="0" y="0" width="400" height="400" fill="#fefefe"/><g transform="scale(9.756)"><g transform="translate(4,4)"><path fill-rule="evenodd" d="M11 0L11 1L8 1L8 3L9 3L9 2L10 2L10 4L8 4L8 8L6 8L6 9L4 9L4 8L3 8L3 9L2 9L2 8L0 8L0 9L1 9L1 10L3 10L3 9L4 9L4 10L5 10L5 13L4 13L4 11L3 11L3 12L2 12L2 11L0 11L0 14L1 14L1 15L0 15L0 17L1 17L1 18L3 18L3 19L0 19L0 21L1 21L1 22L0 22L0 23L1 23L1 24L0 24L0 25L1 25L1 24L2 24L2 25L3 25L3 23L2 23L2 22L4 22L4 25L5 25L5 24L6 24L6 25L8 25L8 27L9 27L9 29L8 29L8 30L9 30L9 31L8 31L8 33L12 33L12 32L13 32L13 33L14 33L14 32L13 32L13 30L14 30L14 31L15 31L15 32L16 32L16 33L17 33L17 32L20 32L20 33L23 33L23 32L24 32L24 33L25 33L25 32L26 32L26 33L27 33L27 32L26 32L26 31L25 31L25 29L26 29L26 30L27 30L27 29L28 29L28 32L30 32L30 31L33 31L33 29L31 29L31 30L29 30L29 29L30 29L30 25L29 25L29 24L27 24L27 23L26 23L26 22L28 22L28 23L29 23L29 22L31 22L31 23L33 23L33 21L29 21L29 22L28 22L28 20L30 20L30 19L28 19L28 20L27 20L27 21L26 21L26 22L24 22L24 23L23 23L23 22L22 22L22 23L20 23L20 22L21 22L21 21L23 21L23 20L24 20L24 21L25 21L25 20L26 20L26 17L27 17L27 18L28 18L28 17L29 17L29 16L30 16L30 15L32 15L32 14L33 14L33 9L32 9L32 8L30 8L30 9L29 9L29 8L26 8L26 10L25 10L25 8L24 8L24 7L25 7L25 0L19 0L19 1L17 1L17 0L15 0L15 4L13 4L13 2L14 2L14 0ZM12 1L12 2L11 2L11 4L12 4L12 2L13 2L13 1ZM19 1L19 2L21 2L21 4L23 4L23 3L24 3L24 2L23 2L23 1L22 1L22 2L21 2L21 1ZM16 3L16 6L15 6L15 7L14 7L14 5L11 5L11 7L10 7L10 6L9 6L9 7L10 7L10 8L8 8L8 9L9 9L9 10L11 10L11 11L9 11L9 12L8 12L8 14L7 14L7 13L6 13L6 14L7 14L7 15L6 15L6 16L5 16L5 17L4 17L4 16L3 16L3 18L4 18L4 19L3 19L3 20L2 20L2 21L3 21L3 20L5 20L5 18L7 18L7 19L6 19L6 20L7 20L7 21L5 21L5 23L6 23L6 24L8 24L8 23L6 23L6 22L7 22L7 21L8 21L8 22L9 22L9 25L11 25L11 26L10 26L10 27L11 27L11 28L10 28L10 29L9 29L9 30L10 30L10 29L12 29L12 30L11 30L11 32L12 32L12 30L13 30L13 29L14 29L14 30L15 30L15 31L16 31L16 32L17 32L17 31L21 31L21 30L20 30L20 29L21 29L21 27L20 27L20 26L21 26L21 24L18 24L18 23L17 23L17 22L16 22L16 21L19 21L19 22L20 22L20 21L21 21L21 19L22 19L22 20L23 20L23 19L25 19L25 16L27 16L27 15L28 15L28 16L29 16L29 15L28 15L28 14L27 14L27 15L26 15L26 14L25 14L25 16L23 16L23 15L22 15L22 14L24 14L24 11L25 11L25 10L24 10L24 9L23 9L23 8L22 8L22 10L23 10L23 11L22 11L22 12L23 12L23 13L22 13L22 14L21 14L21 15L22 15L22 16L23 16L23 17L22 17L22 18L20 18L20 17L21 17L21 16L20 16L20 14L19 14L19 13L20 13L20 12L21 12L21 11L20 11L20 12L19 12L19 11L16 11L16 8L17 8L17 9L18 9L18 10L21 10L21 9L20 9L20 8L21 8L21 7L22 7L22 6L23 6L23 7L24 7L24 5L22 5L22 6L21 6L21 7L20 7L20 6L19 6L19 9L18 9L18 8L17 8L17 7L18 7L18 3ZM19 4L19 5L20 5L20 4ZM12 6L12 7L13 7L13 6ZM16 6L16 7L15 7L15 8L16 8L16 7L17 7L17 6ZM10 8L10 9L13 9L13 10L12 10L12 11L11 11L11 12L13 12L13 13L12 13L12 14L11 14L11 13L10 13L10 14L8 14L8 15L9 15L9 16L8 16L8 17L9 17L9 18L8 18L8 19L7 19L7 20L12 20L12 21L13 21L13 22L12 22L12 23L11 23L11 21L9 21L9 22L10 22L10 23L11 23L11 24L12 24L12 25L14 25L14 26L15 26L15 25L17 25L17 27L15 27L15 28L14 28L14 27L13 27L13 26L11 26L11 27L12 27L12 28L14 28L14 29L15 29L15 28L17 28L17 29L16 29L16 31L17 31L17 29L18 29L18 30L19 30L19 29L20 29L20 27L19 27L19 29L18 29L18 26L20 26L20 25L18 25L18 24L17 24L17 23L16 23L16 24L14 24L14 22L15 22L15 21L14 21L14 20L13 20L13 19L15 19L15 20L16 20L16 19L17 19L17 20L18 20L18 19L19 19L19 18L17 18L17 17L20 17L20 16L18 16L18 14L17 14L17 15L16 15L16 16L14 16L14 15L13 15L13 13L14 13L14 14L15 14L15 13L19 13L19 12L16 12L16 11L15 11L15 9L14 9L14 8ZM6 9L6 10L7 10L7 11L6 11L6 12L7 12L7 11L8 11L8 10L7 10L7 9ZM28 9L28 10L27 10L27 11L29 11L29 9ZM13 10L13 11L14 11L14 10ZM31 10L31 11L30 11L30 12L28 12L28 13L29 13L29 14L31 14L31 12L32 12L32 10ZM1 12L1 14L2 14L2 12ZM25 12L25 13L26 13L26 12ZM3 13L3 15L5 15L5 14L4 14L4 13ZM1 15L1 16L2 16L2 15ZM10 15L10 18L9 18L9 19L12 19L12 18L13 18L13 17L14 17L14 18L15 18L15 19L16 19L16 18L15 18L15 17L14 17L14 16L13 16L13 15ZM6 16L6 17L7 17L7 16ZM12 16L12 17L11 17L11 18L12 18L12 17L13 17L13 16ZM32 16L32 17L33 17L33 16ZM23 17L23 18L22 18L22 19L23 19L23 18L24 18L24 17ZM31 18L31 19L32 19L32 20L33 20L33 18ZM12 23L12 24L13 24L13 23ZM25 23L25 24L26 24L26 23ZM23 24L23 25L22 25L22 26L23 26L23 27L22 27L22 29L23 29L23 30L22 30L22 32L23 32L23 30L24 30L24 26L23 26L23 25L24 25L24 24ZM25 25L25 28L28 28L28 25ZM31 25L31 27L32 27L32 26L33 26L33 25ZM26 26L26 27L27 27L27 26ZM9 31L9 32L10 32L10 31ZM31 32L31 33L32 33L32 32ZM0 0L0 7L7 7L7 0ZM1 1L1 6L6 6L6 1ZM2 2L2 5L5 5L5 2ZM26 0L26 7L33 7L33 0ZM27 1L27 6L32 6L32 1ZM28 2L28 5L31 5L31 2ZM0 26L0 33L7 33L7 26ZM1 27L1 32L6 32L6 27ZM2 28L2 31L5 31L5 28Z" fill="#000000"/></g></g></svg>
