<?xml version="1.0" encoding="UTF-8"?>
<svg xmlns="http://www.w3.org/2000/svg" version="1.1" width="400" height="400" viewBox="0 0 400 400"><rect x="0" y="0" width="400" height="400" fill="#fefefe"/><g transform="scale(9.756)"><g transform="translate(4,4)"><path fill-rule="evenodd" d="M9 0L9 1L8 1L8 2L9 2L9 3L8 3L8 4L9 4L9 3L10 3L10 5L8 5L8 7L9 7L9 8L6 8L6 9L5 9L5 8L0 8L0 10L3 10L3 11L0 11L0 16L1 16L1 17L0 17L0 18L2 18L2 16L1 16L1 15L2 15L2 14L3 14L3 15L4 15L4 13L2 13L2 12L3 12L3 11L4 11L4 12L5 12L5 15L7 15L7 16L6 16L6 17L9 17L9 19L10 19L10 20L8 20L8 18L5 18L5 16L3 16L3 18L5 18L5 19L4 19L4 21L3 21L3 19L2 19L2 24L3 24L3 25L4 25L4 24L5 24L5 22L6 22L6 23L7 23L7 24L6 24L6 25L7 25L7 24L10 24L10 20L11 20L11 22L12 22L12 23L11 23L11 24L12 24L12 25L8 25L8 27L10 27L10 28L8 28L8 33L10 33L10 31L11 31L11 32L12 32L12 31L13 31L13 29L14 29L14 30L15 30L15 33L16 33L16 32L17 32L17 33L18 33L18 32L17 32L17 31L16 31L16 30L17 30L17 29L18 29L18 28L19 28L19 27L18 27L18 28L17 28L17 25L18 25L18 24L17 24L17 23L19 23L19 24L20 24L20 23L21 23L21 24L22 24L22 25L19 25L19 26L22 26L22 25L23 25L23 27L24 27L24 29L23 29L23 28L22 28L22 27L20 27L20 28L22 28L22 29L19 29L19 30L20 30L20 32L22 32L22 33L23 33L23 32L24 32L24 33L28 33L28 32L24 32L24 31L21 31L21 30L22 30L22 29L23 29L23 30L26 30L26 31L28 31L28 30L29 30L29 32L31 32L31 33L32 33L32 32L31 32L31 31L32 31L32 30L31 30L31 29L33 29L33 28L32 28L32 26L33 26L33 23L30 23L30 24L32 24L32 25L30 25L30 26L31 26L31 27L30 27L30 28L29 28L29 24L28 24L28 23L27 23L27 24L26 24L26 23L25 23L25 24L24 24L24 25L23 25L23 22L28 22L28 21L30 21L30 20L31 20L31 19L32 19L32 20L33 20L33 19L32 19L32 18L33 18L33 17L32 17L32 14L33 14L33 13L32 13L32 10L33 10L33 9L32 9L32 8L31 8L31 9L32 9L32 10L28 10L28 8L27 8L27 9L26 9L26 8L25 8L25 5L24 5L24 4L25 4L25 3L24 3L24 4L22 4L22 5L20 5L20 4L21 4L21 3L23 3L23 1L24 1L24 2L25 2L25 0L23 0L23 1L21 1L21 3L20 3L20 4L19 4L19 2L18 2L18 3L17 3L17 4L19 4L19 5L17 5L17 6L16 6L16 5L15 5L15 6L14 6L14 5L13 5L13 4L14 4L14 3L13 3L13 2L14 2L14 1L15 1L15 2L16 2L16 1L15 1L15 0ZM19 0L19 1L20 1L20 0ZM10 1L10 3L11 3L11 2L12 2L12 1ZM12 3L12 4L13 4L13 3ZM15 3L15 4L16 4L16 3ZM11 5L11 7L12 7L12 5ZM19 5L19 9L20 9L20 10L19 10L19 13L20 13L20 14L17 14L17 16L18 16L18 15L19 15L19 17L22 17L22 18L23 18L23 19L22 19L22 20L21 20L21 21L20 21L20 18L19 18L19 20L18 20L18 19L17 19L17 18L18 18L18 17L17 17L17 18L16 18L16 19L17 19L17 20L18 20L18 21L17 21L17 22L16 22L16 21L15 21L15 18L14 18L14 17L16 17L16 15L15 15L15 14L16 14L16 13L17 13L17 12L18 12L18 11L16 11L16 12L15 12L15 10L16 10L16 9L17 9L17 10L18 10L18 9L17 9L17 8L18 8L18 6L17 6L17 8L16 8L16 9L15 9L15 7L16 7L16 6L15 6L15 7L14 7L14 6L13 6L13 8L14 8L14 9L13 9L13 10L14 10L14 11L12 11L12 10L11 10L11 9L12 9L12 8L10 8L10 9L6 9L6 10L5 10L5 11L6 11L6 12L7 12L7 13L6 13L6 14L7 14L7 15L10 15L10 14L11 14L11 15L12 15L12 14L13 14L13 16L14 16L14 17L13 17L13 18L14 18L14 19L12 19L12 18L11 18L11 17L12 17L12 16L11 16L11 17L10 17L10 19L11 19L11 20L14 20L14 21L13 21L13 24L14 24L14 25L13 25L13 26L10 26L10 27L13 27L13 28L10 28L10 29L9 29L9 31L10 31L10 30L11 30L11 31L12 31L12 30L11 30L11 29L13 29L13 28L14 28L14 29L15 29L15 30L16 30L16 29L17 29L17 28L16 28L16 29L15 29L15 26L16 26L16 25L17 25L17 24L16 24L16 23L17 23L17 22L19 22L19 23L20 23L20 22L23 22L23 20L25 20L25 21L28 21L28 20L30 20L30 19L31 19L31 18L30 18L30 17L31 17L31 16L30 16L30 14L29 14L29 13L31 13L31 12L29 12L29 11L27 11L27 10L26 10L26 13L25 13L25 12L24 12L24 10L25 10L25 9L24 9L24 8L23 8L23 7L24 7L24 5L22 5L22 6L21 6L21 7L20 7L20 5ZM9 6L9 7L10 7L10 6ZM22 6L22 7L21 7L21 8L20 8L20 9L21 9L21 8L22 8L22 7L23 7L23 6ZM29 8L29 9L30 9L30 8ZM3 9L3 10L4 10L4 9ZM14 9L14 10L15 10L15 9ZM22 9L22 10L21 10L21 11L20 11L20 13L21 13L21 14L20 14L20 15L21 15L21 16L22 16L22 17L23 17L23 18L25 18L25 20L26 20L26 19L27 19L27 20L28 20L28 19L27 19L27 18L28 18L28 17L29 17L29 16L28 16L28 15L29 15L29 14L28 14L28 15L26 15L26 16L28 16L28 17L26 17L26 18L25 18L25 17L23 17L23 14L24 14L24 15L25 15L25 13L21 13L21 12L22 12L22 10L24 10L24 9ZM6 10L6 11L7 11L7 12L8 12L8 13L7 13L7 14L10 14L10 13L11 13L11 14L12 14L12 13L11 13L11 12L12 12L12 11L11 11L11 10L10 10L10 11L11 11L11 12L8 12L8 11L7 11L7 10ZM13 12L13 13L14 13L14 14L15 14L15 13L14 13L14 12ZM27 12L27 13L26 13L26 14L27 14L27 13L29 13L29 12ZM1 13L1 14L2 14L2 13ZM21 14L21 15L22 15L22 14ZM5 19L5 21L6 21L6 22L7 22L7 21L8 21L8 23L9 23L9 21L8 21L8 20L7 20L7 19ZM6 20L6 21L7 21L7 20ZM0 21L0 25L1 25L1 21ZM14 21L14 24L15 24L15 23L16 23L16 22L15 22L15 21ZM19 21L19 22L20 22L20 21ZM32 21L32 22L33 22L33 21ZM14 25L14 26L15 26L15 25ZM25 25L25 28L28 28L28 25ZM26 26L26 27L27 27L27 26ZM30 28L30 29L29 29L29 30L30 30L30 29L31 29L31 28ZM26 29L26 30L28 30L28 29ZM13 32L13 33L14 33L14 32ZM0 0L0 7L7 7L7 0ZM1 1L1 6L6 6L6 1ZM2 2L2 5L5 5L5 2ZM26 0L26 7L33 7L33 0ZM27 1L27 6L32 6L32 1ZM28 2L28 5L31 5L31 2ZM0 26L0 33L7 33L7 26ZM1 27L1 32L6 32L6 27ZM2 28L2 31L5 31L5 28Z" fill="#000000"/></g></g></svg>
