<?xml version="1.0" encoding="UTF-8"?>
<svg xmlns="http://www.w3.org/2000/svg" version="1.1" width="400" height="400" viewBox="0 0 400 400"><rect x="0" y="0" width="400" height="400" fill="#fefefe"/><g transform="scale(9.756)"><g transform="translate(4,4)"><path fill-rule="evenodd" d="M8 0L8 1L10 1L10 0ZM12 0L12 2L9 2L9 4L10 4L10 5L11 5L11 6L10 6L10 8L9 8L9 6L8 6L8 8L9 8L9 10L8 10L8 9L7 9L7 8L6 8L6 9L5 9L5 8L3 8L3 9L2 9L2 8L0 8L0 10L1 10L1 11L0 11L0 13L2 13L2 14L4 14L4 15L3 15L3 16L2 16L2 15L1 15L1 20L2 20L2 17L3 17L3 16L4 16L4 17L7 17L7 18L3 18L3 19L4 19L4 20L6 20L6 21L0 21L0 25L2 25L2 24L3 24L3 23L4 23L4 25L7 25L7 24L8 24L8 26L9 26L9 28L8 28L8 30L9 30L9 28L10 28L10 29L12 29L12 30L10 30L10 31L8 31L8 33L10 33L10 32L14 32L14 31L16 31L16 32L15 32L15 33L18 33L18 32L17 32L17 31L18 31L18 29L17 29L17 30L16 30L16 28L15 28L15 27L16 27L16 26L17 26L17 24L18 24L18 23L19 23L19 25L20 25L20 26L19 26L19 27L18 27L18 28L20 28L20 27L22 27L22 30L21 30L21 31L20 31L20 29L19 29L19 33L20 33L20 32L21 32L21 31L22 31L22 30L23 30L23 31L25 31L25 32L23 32L23 33L29 33L29 32L33 32L33 30L32 30L32 31L31 31L31 29L32 29L32 28L33 28L33 27L30 27L30 28L31 28L31 29L29 29L29 25L30 25L30 26L31 26L31 25L32 25L32 24L33 24L33 22L32 22L32 23L30 23L30 22L29 22L29 21L30 21L30 20L31 20L31 21L32 21L32 19L33 19L33 15L31 15L31 13L30 13L30 12L32 12L32 13L33 13L33 12L32 12L32 11L33 11L33 10L30 10L30 12L29 12L29 11L28 11L28 10L29 10L29 9L28 9L28 10L26 10L26 9L27 9L27 8L26 8L26 9L23 9L23 6L24 6L24 7L25 7L25 5L23 5L23 3L24 3L24 4L25 4L25 3L24 3L24 2L25 2L25 0L24 0L24 2L23 2L23 0L22 0L22 2L21 2L21 0L20 0L20 1L19 1L19 2L20 2L20 4L19 4L19 3L17 3L17 2L16 2L16 4L17 4L17 5L16 5L16 8L15 8L15 6L14 6L14 5L15 5L15 3L14 3L14 2L15 2L15 1L14 1L14 2L13 2L13 0ZM16 0L16 1L18 1L18 0ZM22 2L22 3L23 3L23 2ZM10 3L10 4L11 4L11 5L12 5L12 4L13 4L13 5L14 5L14 4L13 4L13 3L12 3L12 4L11 4L11 3ZM18 4L18 5L17 5L17 8L18 8L18 5L19 5L19 7L20 7L20 6L21 6L21 9L22 9L22 11L21 11L21 13L19 13L19 14L16 14L16 16L15 16L15 18L17 18L17 20L16 20L16 19L15 19L15 20L13 20L13 19L14 19L14 17L13 17L13 19L11 19L11 18L12 18L12 17L11 17L11 16L10 16L10 15L9 15L9 16L8 16L8 14L9 14L9 12L8 12L8 10L7 10L7 9L6 9L6 10L7 10L7 11L5 11L5 10L4 10L4 9L3 9L3 10L2 10L2 11L3 11L3 10L4 10L4 11L5 11L5 12L4 12L4 13L5 13L5 14L7 14L7 15L6 15L6 16L8 16L8 18L9 18L9 17L10 17L10 19L11 19L11 20L9 20L9 21L10 21L10 23L8 23L8 19L6 19L6 20L7 20L7 21L6 21L6 22L4 22L4 23L6 23L6 24L7 24L7 23L8 23L8 24L10 24L10 25L9 25L9 26L10 26L10 28L11 28L11 27L12 27L12 29L13 29L13 30L12 30L12 31L13 31L13 30L14 30L14 29L13 29L13 28L14 28L14 27L15 27L15 25L16 25L16 24L17 24L17 23L18 23L18 22L19 22L19 23L21 23L21 24L20 24L20 25L21 25L21 26L22 26L22 27L23 27L23 28L24 28L24 27L23 27L23 26L22 26L22 24L23 24L23 25L24 25L24 24L23 24L23 23L21 23L21 21L22 21L22 19L23 19L23 20L26 20L26 22L25 22L25 24L28 24L28 23L29 23L29 22L28 22L28 21L29 21L29 20L30 20L30 19L32 19L32 18L30 18L30 19L28 19L28 20L26 20L26 19L27 19L27 18L28 18L28 16L27 16L27 18L26 18L26 16L25 16L25 15L27 15L27 13L26 13L26 11L25 11L25 10L24 10L24 11L25 11L25 12L24 12L24 13L26 13L26 14L25 14L25 15L24 15L24 14L22 14L22 12L23 12L23 9L22 9L22 4L20 4L20 5L19 5L19 4ZM11 6L11 7L12 7L12 6ZM13 6L13 7L14 7L14 6ZM11 8L11 9L12 9L12 8ZM13 8L13 10L15 10L15 8ZM19 8L19 9L20 9L20 8ZM32 8L32 9L33 9L33 8ZM16 9L16 10L17 10L17 11L18 11L18 9ZM9 10L9 11L10 11L10 10ZM19 10L19 12L20 12L20 10ZM11 11L11 12L10 12L10 14L11 14L11 15L12 15L12 14L13 14L13 13L14 13L14 15L13 15L13 16L14 16L14 15L15 15L15 13L16 13L16 11ZM2 12L2 13L3 13L3 12ZM5 12L5 13L7 13L7 14L8 14L8 13L7 13L7 12ZM11 12L11 14L12 14L12 12ZM14 12L14 13L15 13L15 12ZM17 12L17 13L18 13L18 12ZM28 12L28 14L29 14L29 16L30 16L30 17L31 17L31 16L30 16L30 14L29 14L29 12ZM19 14L19 15L18 15L18 17L17 17L17 16L16 16L16 17L17 17L17 18L18 18L18 20L17 20L17 21L18 21L18 20L19 20L19 22L20 22L20 18L21 18L21 16L20 16L20 17L19 17L19 15L22 15L22 16L23 16L23 17L24 17L24 18L23 18L23 19L24 19L24 18L25 18L25 17L24 17L24 16L23 16L23 15L22 15L22 14ZM4 15L4 16L5 16L5 15ZM11 20L11 23L12 23L12 24L11 24L11 25L10 25L10 26L13 26L13 27L14 27L14 25L15 25L15 24L16 24L16 20L15 20L15 24L14 24L14 25L13 25L13 23L14 23L14 22L13 22L13 20ZM1 22L1 24L2 24L2 23L3 23L3 22ZM6 22L6 23L7 23L7 22ZM26 22L26 23L27 23L27 22ZM30 24L30 25L31 25L31 24ZM25 25L25 28L28 28L28 25ZM26 26L26 27L27 27L27 26ZM23 29L23 30L24 30L24 29ZM25 29L25 31L27 31L27 29ZM28 29L28 30L29 30L29 31L28 31L28 32L29 32L29 31L30 31L30 30L29 30L29 29ZM0 0L0 7L7 7L7 0ZM1 1L1 6L6 6L6 1ZM2 2L2 5L5 5L5 2ZM26 0L26 7L33 7L33 0ZM27 1L27 6L32 6L32 1ZM28 2L28 5L31 5L31 2ZM0 26L0 33L7 33L7 26ZM1 27L1 32L6 32L6 27ZM2 28L2 31L5 31L5 28Z" fill="#000000"/></g></g></svg>
