<?xml version="1.0" encoding="UTF-8"?>
<svg xmlns="http://www.w3.org/2000/svg" version="1.1" width="400" height="400" viewBox="0 0 400 400"><rect x="0" y="0" width="400" height="400" fill="#fefefe"/><g transform="scale(9.756)"><g transform="translate(4,4)"><path fill-rule="evenodd" d="M11 0L11 1L8 1L8 3L9 3L9 2L10 2L10 4L8 4L8 8L6 8L6 9L7 9L7 10L6 10L6 11L8 11L8 13L7 13L7 12L6 12L6 13L7 13L7 14L6 14L6 15L5 15L5 13L4 13L4 12L3 12L3 11L2 11L2 10L5 10L5 9L4 9L4 8L3 8L3 9L2 9L2 8L0 8L0 12L3 12L3 15L5 15L5 17L4 17L4 16L3 16L3 17L4 17L4 19L5 19L5 17L7 17L7 18L6 18L6 19L7 19L7 20L5 20L5 22L6 22L6 23L4 23L4 24L3 24L3 21L4 21L4 20L3 20L3 19L2 19L2 18L1 18L1 17L2 17L2 14L1 14L1 13L0 13L0 14L1 14L1 17L0 17L0 18L1 18L1 19L0 19L0 21L1 21L1 22L0 22L0 23L1 23L1 24L0 24L0 25L1 25L1 24L3 24L3 25L7 25L7 24L6 24L6 23L7 23L7 22L6 22L6 21L8 21L8 22L9 22L9 23L8 23L8 24L12 24L12 25L14 25L14 26L15 26L15 25L17 25L17 27L15 27L15 28L14 28L14 27L13 27L13 28L14 28L14 29L13 29L13 30L14 30L14 32L13 32L13 31L11 31L11 30L12 30L12 29L11 29L11 30L10 30L10 31L8 31L8 33L12 33L12 32L13 32L13 33L14 33L14 32L16 32L16 33L17 33L17 32L19 32L19 31L17 31L17 29L18 29L18 30L19 30L19 29L21 29L21 31L20 31L20 33L23 33L23 32L24 32L24 33L25 33L25 31L26 31L26 30L27 30L27 29L28 29L28 33L30 33L30 32L29 32L29 31L33 31L33 29L31 29L31 30L29 30L29 29L30 29L30 25L29 25L29 24L28 24L28 23L29 23L29 22L31 22L31 23L33 23L33 21L29 21L29 22L28 22L28 20L30 20L30 19L29 19L29 18L28 18L28 17L29 17L29 16L30 16L30 15L32 15L32 14L33 14L33 9L32 9L32 8L30 8L30 9L29 9L29 8L26 8L26 11L25 11L25 6L24 6L24 7L23 7L23 6L22 6L22 5L24 5L24 3L25 3L25 2L24 2L24 1L25 1L25 0L21 0L21 1L20 1L20 0L18 0L18 1L20 1L20 2L19 2L19 4L20 4L20 2L22 2L22 1L23 1L23 2L24 2L24 3L23 3L23 4L21 4L21 5L19 5L19 6L18 6L18 5L17 5L17 6L16 6L16 3L18 3L18 2L17 2L17 0L15 0L15 4L13 4L13 2L14 2L14 0ZM12 1L12 2L11 2L11 4L12 4L12 2L13 2L13 1ZM11 5L11 7L10 7L10 6L9 6L9 7L10 7L10 8L8 8L8 9L9 9L9 10L11 10L11 11L9 11L9 13L8 13L8 14L7 14L7 15L6 15L6 16L7 16L7 15L8 15L8 16L10 16L10 18L9 18L9 19L8 19L8 21L11 21L11 23L12 23L12 24L13 24L13 23L12 23L12 22L13 22L13 21L12 21L12 20L11 20L11 19L12 19L12 18L13 18L13 17L14 17L14 18L15 18L15 19L13 19L13 20L14 20L14 21L15 21L15 22L14 22L14 24L16 24L16 23L17 23L17 24L18 24L18 25L20 25L20 26L18 26L18 29L19 29L19 27L20 27L20 28L21 28L21 27L20 27L20 26L21 26L21 23L22 23L22 22L23 22L23 25L22 25L22 27L24 27L24 24L25 24L25 23L24 23L24 22L25 22L25 21L24 21L24 20L23 20L23 19L25 19L25 16L22 16L22 17L24 17L24 18L23 18L23 19L22 19L22 18L21 18L21 19L20 19L20 17L21 17L21 16L20 16L20 15L21 15L21 14L19 14L19 13L20 13L20 12L21 12L21 11L23 11L23 13L22 13L22 15L23 15L23 14L26 14L26 15L27 15L27 14L28 14L28 16L29 16L29 14L31 14L31 12L32 12L32 10L31 10L31 11L30 11L30 12L29 12L29 9L28 9L28 10L27 10L27 14L26 14L26 13L25 13L25 12L24 12L24 9L23 9L23 7L22 7L22 6L21 6L21 7L20 7L20 6L19 6L19 7L18 7L18 6L17 6L17 7L16 7L16 6L15 6L15 7L14 7L14 5ZM12 6L12 7L13 7L13 6ZM15 7L15 8L16 8L16 11L15 11L15 9L14 9L14 8L10 8L10 9L13 9L13 10L12 10L12 11L11 11L11 12L13 12L13 13L12 13L12 14L11 14L11 13L9 13L9 15L13 15L13 16L12 16L12 17L11 17L11 18L10 18L10 19L9 19L9 20L10 20L10 19L11 19L11 18L12 18L12 17L13 17L13 16L14 16L14 17L15 17L15 18L16 18L16 19L15 19L15 20L16 20L16 19L17 19L17 20L18 20L18 19L19 19L19 20L20 20L20 19L19 19L19 18L17 18L17 17L20 17L20 16L18 16L18 14L17 14L17 15L16 15L16 16L14 16L14 15L13 15L13 13L14 13L14 14L15 14L15 13L19 13L19 12L16 12L16 11L21 11L21 10L22 10L22 7L21 7L21 8L20 8L20 9L21 9L21 10L18 10L18 9L19 9L19 8L18 8L18 7L17 7L17 8L16 8L16 7ZM17 8L17 9L18 9L18 8ZM1 9L1 10L2 10L2 9ZM13 10L13 11L14 11L14 10ZM28 13L28 14L29 14L29 13ZM32 16L32 17L33 17L33 16ZM26 17L26 21L27 21L27 17ZM31 18L31 19L32 19L32 20L33 20L33 18ZM21 19L21 21L20 21L20 22L19 22L19 21L16 21L16 22L17 22L17 23L18 23L18 24L20 24L20 23L21 23L21 21L23 21L23 20L22 20L22 19ZM1 20L1 21L3 21L3 20ZM27 22L27 23L26 23L26 24L27 24L27 23L28 23L28 22ZM8 25L8 27L9 27L9 29L8 29L8 30L9 30L9 29L10 29L10 27L12 27L12 26L10 26L10 25ZM25 25L25 28L28 28L28 25ZM31 25L31 27L32 27L32 26L33 26L33 25ZM9 26L9 27L10 27L10 26ZM26 26L26 27L27 27L27 26ZM15 28L15 29L14 29L14 30L15 30L15 31L16 31L16 32L17 32L17 31L16 31L16 29L17 29L17 28ZM22 28L22 29L24 29L24 28ZM23 30L23 31L22 31L22 32L23 32L23 31L24 31L24 30ZM10 31L10 32L11 32L11 31ZM26 32L26 33L27 33L27 32ZM31 32L31 33L32 33L32 32ZM0 0L0 7L7 7L7 0ZM1 1L1 6L6 6L6 1ZM2 2L2 5L5 5L5 2ZM26 0L26 7L33 7L33 0ZM27 1L27 6L32 6L32 1ZM28 2L28 5L31 5L31 2ZM0 26L0 33L7 33L7 26ZM1 27L1 32L6 32L6 27ZM2 28L2 31L5 31L5 28Z" fill="#000000"/></g></g></svg>
