<?xml version="1.0" encoding="UTF-8"?>
<svg xmlns="http://www.w3.org/2000/svg" version="1.1" width="400" height="400" viewBox="0 0 400 400"><rect x="0" y="0" width="400" height="400" fill="#fefefe"/><g transform="scale(9.756)"><g transform="translate(4,4)"><path fill-rule="evenodd" d="M8 0L8 1L11 1L11 2L10 2L10 4L9 4L9 2L8 2L8 5L11 5L11 4L12 4L12 1L13 1L13 4L14 4L14 5L16 5L16 12L17 12L17 13L15 13L15 14L17 14L17 13L19 13L19 14L18 14L18 16L20 16L20 18L21 18L21 17L22 17L22 16L23 16L23 18L22 18L22 20L21 20L21 21L20 21L20 20L18 20L18 19L19 19L19 18L17 18L17 19L16 19L16 18L15 18L15 17L17 17L17 15L16 15L16 16L13 16L13 15L14 15L14 14L13 14L13 13L14 13L14 11L15 11L15 9L14 9L14 10L13 10L13 9L11 9L11 6L10 6L10 9L11 9L11 10L8 10L8 9L9 9L9 8L8 8L8 9L7 9L7 8L6 8L6 9L5 9L5 10L4 10L4 12L2 12L2 13L1 13L1 14L0 14L0 15L1 15L1 16L0 16L0 17L1 17L1 18L2 18L2 17L3 17L3 16L4 16L4 15L5 15L5 16L6 16L6 17L8 17L8 18L5 18L5 20L4 20L4 18L3 18L3 20L2 20L2 21L0 21L0 22L2 22L2 23L1 23L1 24L0 24L0 25L1 25L1 24L2 24L2 25L4 25L4 24L5 24L5 23L7 23L7 24L6 24L6 25L7 25L7 24L9 24L9 25L8 25L8 26L11 26L11 25L10 25L10 24L12 24L12 25L14 25L14 24L16 24L16 23L13 23L13 24L12 24L12 22L13 22L13 21L12 21L12 20L13 20L13 19L14 19L14 20L15 20L15 19L16 19L16 20L17 20L17 21L16 21L16 22L17 22L17 21L19 21L19 22L21 22L21 21L23 21L23 22L22 22L22 23L25 23L25 24L24 24L24 26L23 26L23 25L22 25L22 26L23 26L23 27L24 27L24 28L23 28L23 30L24 30L24 31L23 31L23 32L21 32L21 31L22 31L22 30L20 30L20 31L16 31L16 29L15 29L15 28L17 28L17 27L15 27L15 28L13 28L13 27L14 27L14 26L12 26L12 28L11 28L11 30L10 30L10 28L9 28L9 29L8 29L8 33L10 33L10 32L11 32L11 30L12 30L12 29L13 29L13 30L15 30L15 31L16 31L16 33L24 33L24 32L25 32L25 33L29 33L29 32L27 32L27 30L26 30L26 31L25 31L25 30L24 30L24 29L29 29L29 26L30 26L30 29L31 29L31 30L29 30L29 31L32 31L32 32L33 32L33 31L32 31L32 27L31 27L31 26L32 26L32 25L33 25L33 21L32 21L32 20L30 20L30 19L29 19L29 21L32 21L32 25L31 25L31 26L30 26L30 25L29 25L29 23L31 23L31 22L28 22L28 23L27 23L27 21L26 21L26 22L25 22L25 21L24 21L24 20L28 20L28 19L27 19L27 17L28 17L28 18L29 18L29 17L32 17L32 18L31 18L31 19L32 19L32 18L33 18L33 16L32 16L32 15L30 15L30 16L28 16L28 14L27 14L27 16L26 16L26 17L25 17L25 16L23 16L23 13L24 13L24 12L23 12L23 13L22 13L22 14L20 14L20 13L19 13L19 12L17 12L17 9L18 9L18 10L20 10L20 11L21 11L21 9L22 9L22 10L23 10L23 11L24 11L24 9L23 9L23 4L21 4L21 5L20 5L20 4L19 4L19 3L21 3L21 2L19 2L19 1L21 1L21 0L18 0L18 1L17 1L17 2L15 2L15 0ZM23 0L23 1L22 1L22 2L24 2L24 5L25 5L25 2L24 2L24 1L25 1L25 0ZM14 2L14 4L15 4L15 2ZM17 2L17 3L16 3L16 5L17 5L17 7L18 7L18 9L19 9L19 8L20 8L20 9L21 9L21 8L22 8L22 5L21 5L21 7L20 7L20 6L19 6L19 5L17 5L17 3L18 3L18 2ZM8 6L8 7L9 7L9 6ZM12 6L12 7L13 7L13 6ZM14 6L14 8L15 8L15 6ZM18 6L18 7L19 7L19 6ZM24 6L24 8L25 8L25 9L26 9L26 10L25 10L25 12L26 12L26 11L27 11L27 12L28 12L28 13L29 13L29 12L30 12L30 11L28 11L28 10L27 10L27 9L26 9L26 8L25 8L25 6ZM0 8L0 12L1 12L1 11L2 11L2 9L4 9L4 8ZM28 8L28 9L31 9L31 8ZM32 8L32 10L31 10L31 11L33 11L33 8ZM6 9L6 10L5 10L5 12L4 12L4 14L1 14L1 15L2 15L2 16L3 16L3 15L4 15L4 14L5 14L5 15L6 15L6 16L7 16L7 15L8 15L8 14L9 14L9 16L11 16L11 15L13 15L13 14L12 14L12 13L13 13L13 12L11 12L11 13L8 13L8 12L9 12L9 11L8 11L8 12L7 12L7 11L6 11L6 10L7 10L7 9ZM12 10L12 11L13 11L13 10ZM6 12L6 13L5 13L5 14L6 14L6 15L7 15L7 14L6 14L6 13L7 13L7 12ZM31 12L31 14L32 14L32 12ZM25 13L25 15L26 15L26 13ZM20 15L20 16L21 16L21 15ZM12 16L12 18L11 18L11 17L9 17L9 19L6 19L6 20L8 20L8 21L9 21L9 24L10 24L10 23L11 23L11 22L10 22L10 21L11 21L11 19L12 19L12 18L13 18L13 16ZM24 17L24 18L23 18L23 19L25 19L25 17ZM14 18L14 19L15 19L15 18ZM9 19L9 20L10 20L10 19ZM2 21L2 22L3 22L3 21ZM4 21L4 22L5 22L5 21ZM6 21L6 22L7 22L7 23L8 23L8 22L7 22L7 21ZM14 21L14 22L15 22L15 21ZM2 23L2 24L3 24L3 23ZM18 23L18 24L17 24L17 25L15 25L15 26L18 26L18 30L19 30L19 28L21 28L21 29L22 29L22 27L20 27L20 26L21 26L21 23ZM18 24L18 25L20 25L20 24ZM25 25L25 28L28 28L28 25ZM26 26L26 27L27 27L27 26ZM9 30L9 32L10 32L10 30ZM12 31L12 33L13 33L13 31ZM30 32L30 33L31 33L31 32ZM0 0L0 7L7 7L7 0ZM1 1L1 6L6 6L6 1ZM2 2L2 5L5 5L5 2ZM26 0L26 7L33 7L33 0ZM27 1L27 6L32 6L32 1ZM28 2L28 5L31 5L31 2ZM0 26L0 33L7 33L7 26ZM1 27L1 32L6 32L6 27ZM2 28L2 31L5 31L5 28Z" fill="#000000"/></g></g></svg>
