<?xml version="1.0" encoding="UTF-8"?>
<svg xmlns="http://www.w3.org/2000/svg" version="1.1" width="400" height="400" viewBox="0 0 400 400"><rect x="0" y="0" width="400" height="400" fill="#fefefe"/><g transform="scale(9.756)"><g transform="translate(4,4)"><path fill-rule="evenodd" d="M11 0L11 1L8 1L8 3L9 3L9 2L10 2L10 4L8 4L8 8L6 8L6 9L7 9L7 10L5 10L5 9L4 9L4 8L3 8L3 11L4 11L4 10L5 10L5 12L4 12L4 13L5 13L5 14L6 14L6 15L7 15L7 14L8 14L8 13L9 13L9 11L11 11L11 12L13 12L13 13L12 13L12 14L11 14L11 13L10 13L10 15L8 15L8 17L7 17L7 16L6 16L6 17L4 17L4 16L3 16L3 15L4 15L4 14L2 14L2 11L1 11L1 10L0 10L0 11L1 11L1 14L0 14L0 16L1 16L1 15L2 15L2 16L3 16L3 17L4 17L4 18L3 18L3 19L2 19L2 18L1 18L1 17L0 17L0 19L1 19L1 20L4 20L4 21L3 21L3 22L2 22L2 21L1 21L1 22L0 22L0 23L1 23L1 24L0 24L0 25L1 25L1 24L3 24L3 25L8 25L8 27L9 27L9 29L8 29L8 30L9 30L9 29L11 29L11 30L10 30L10 31L8 31L8 33L9 33L9 32L10 32L10 31L11 31L11 32L12 32L12 31L11 31L11 30L12 30L12 27L13 27L13 28L14 28L14 29L13 29L13 30L14 30L14 32L13 32L13 33L14 33L14 32L16 32L16 33L17 33L17 32L20 32L20 33L23 33L23 32L24 32L24 33L25 33L25 31L26 31L26 30L27 30L27 29L28 29L28 31L27 31L27 32L26 32L26 33L30 33L30 32L28 32L28 31L33 31L33 29L31 29L31 30L29 30L29 29L30 29L30 25L29 25L29 24L28 24L28 23L27 23L27 21L26 21L26 17L27 17L27 20L30 20L30 19L28 19L28 17L29 17L29 16L30 16L30 15L32 15L32 14L33 14L33 9L32 9L32 8L30 8L30 9L29 9L29 8L26 8L26 9L25 9L25 10L24 10L24 11L22 11L22 10L23 10L23 9L24 9L24 8L25 8L25 6L24 6L24 8L23 8L23 6L22 6L22 7L21 7L21 5L17 5L17 6L16 6L16 3L18 3L18 2L17 2L17 0L15 0L15 4L13 4L13 2L14 2L14 0ZM18 0L18 1L20 1L20 2L19 2L19 4L20 4L20 2L22 2L22 1L23 1L23 2L24 2L24 3L22 3L22 4L23 4L23 5L25 5L25 2L24 2L24 1L25 1L25 0L21 0L21 1L20 1L20 0ZM12 1L12 2L11 2L11 4L12 4L12 2L13 2L13 1ZM11 5L11 7L10 7L10 6L9 6L9 7L10 7L10 8L8 8L8 10L7 10L7 11L6 11L6 12L8 12L8 10L11 10L11 11L12 11L12 10L13 10L13 11L14 11L14 10L13 10L13 9L10 9L10 8L14 8L14 9L15 9L15 11L16 11L16 12L19 12L19 13L15 13L15 14L14 14L14 13L13 13L13 15L10 15L10 16L11 16L11 17L9 17L9 18L10 18L10 19L12 19L12 18L13 18L13 17L14 17L14 18L15 18L15 19L13 19L13 20L14 20L14 21L15 21L15 22L14 22L14 24L16 24L16 23L17 23L17 24L18 24L18 25L20 25L20 26L18 26L18 29L17 29L17 28L15 28L15 27L17 27L17 25L15 25L15 26L14 26L14 25L12 25L12 24L13 24L13 23L12 23L12 22L13 22L13 21L12 21L12 20L11 20L11 21L10 21L10 20L9 20L9 19L8 19L8 20L7 20L7 19L6 19L6 20L7 20L7 21L6 21L6 22L5 22L5 21L4 21L4 23L6 23L6 24L8 24L8 25L9 25L9 27L11 27L11 26L13 26L13 27L14 27L14 28L15 28L15 29L14 29L14 30L15 30L15 31L16 31L16 32L17 32L17 31L20 31L20 32L21 32L21 31L20 31L20 30L21 30L21 29L19 29L19 27L21 27L21 24L20 24L20 23L19 23L19 24L18 24L18 23L17 23L17 22L16 22L16 21L19 21L19 22L21 22L21 23L22 23L22 22L23 22L23 24L25 24L25 23L26 23L26 24L27 24L27 23L26 23L26 22L25 22L25 21L24 21L24 20L23 20L23 21L20 21L20 19L25 19L25 16L22 16L22 17L24 17L24 18L20 18L20 17L21 17L21 15L23 15L23 14L25 14L25 13L26 13L26 12L27 12L27 11L25 11L25 12L23 12L23 13L22 13L22 14L21 14L21 9L20 9L20 6L19 6L19 9L18 9L18 8L17 8L17 7L18 7L18 6L17 6L17 7L16 7L16 6L15 6L15 7L14 7L14 5ZM12 6L12 7L13 7L13 6ZM15 7L15 8L16 8L16 11L19 11L19 12L20 12L20 10L18 10L18 9L17 9L17 8L16 8L16 7ZM0 8L0 9L2 9L2 8ZM27 9L27 10L28 10L28 13L29 13L29 14L31 14L31 12L32 12L32 10L31 10L31 11L30 11L30 12L29 12L29 9ZM6 13L6 14L7 14L7 13ZM19 13L19 14L20 14L20 15L21 15L21 14L20 14L20 13ZM17 14L17 15L16 15L16 16L14 16L14 15L13 15L13 16L12 16L12 17L11 17L11 18L12 18L12 17L13 17L13 16L14 16L14 17L15 17L15 18L16 18L16 19L15 19L15 20L16 20L16 19L17 19L17 20L18 20L18 19L19 19L19 18L17 18L17 17L20 17L20 16L18 16L18 14ZM26 14L26 15L27 15L27 16L29 16L29 15L28 15L28 14ZM32 16L32 17L33 17L33 16ZM6 17L6 18L7 18L7 17ZM31 18L31 19L32 19L32 20L33 20L33 18ZM4 19L4 20L5 20L5 19ZM8 20L8 22L6 22L6 23L8 23L8 24L9 24L9 22L10 22L10 23L11 23L11 24L12 24L12 23L11 23L11 22L10 22L10 21L9 21L9 20ZM29 21L29 22L31 22L31 23L33 23L33 21ZM24 22L24 23L25 23L25 22ZM22 25L22 27L24 27L24 25ZM25 25L25 28L28 28L28 25ZM31 25L31 27L32 27L32 26L33 26L33 25ZM26 26L26 27L27 27L27 26ZM23 28L23 29L22 29L22 31L23 31L23 30L24 30L24 28ZM16 29L16 31L17 31L17 29ZM18 29L18 30L19 30L19 29ZM31 32L31 33L32 33L32 32ZM0 0L0 7L7 7L7 0ZM1 1L1 6L6 6L6 1ZM2 2L2 5L5 5L5 2ZM26 0L26 7L33 7L33 0ZM27 1L27 6L32 6L32 1ZM28 2L28 5L31 5L31 2ZM0 26L0 33L7 33L7 26ZM1 27L1 32L6 32L6 27ZM2 28L2 31L5 31L5 28Z" fill="#000000"/></g></g></svg>
