<?xml version="1.0" encoding="UTF-8"?>
<svg xmlns="http://www.w3.org/2000/svg" version="1.1" width="400" height="400" viewBox="0 0 400 400"><rect x="0" y="0" width="400" height="400" fill="#fefefe"/><g transform="scale(9.756)"><g transform="translate(4,4)"><path fill-rule="evenodd" d="M8 0L8 1L10 1L10 0ZM12 0L12 2L11 2L11 4L10 4L10 2L9 2L9 4L10 4L10 5L11 5L11 6L10 6L10 8L9 8L9 6L8 6L8 8L9 8L9 9L8 9L8 10L10 10L10 11L7 11L7 10L6 10L6 11L5 11L5 12L4 12L4 9L5 9L5 8L3 8L3 10L2 10L2 8L0 8L0 10L1 10L1 12L2 12L2 13L1 13L1 14L0 14L0 16L1 16L1 17L0 17L0 18L1 18L1 19L0 19L0 20L1 20L1 19L2 19L2 20L3 20L3 21L4 21L4 20L6 20L6 21L7 21L7 20L6 20L6 19L8 19L8 20L9 20L9 21L8 21L8 23L7 23L7 22L5 22L5 23L3 23L3 22L2 22L2 21L0 21L0 25L2 25L2 24L1 24L1 22L2 22L2 23L3 23L3 24L4 24L4 25L5 25L5 24L6 24L6 25L8 25L8 26L9 26L9 27L10 27L10 28L8 28L8 30L9 30L9 29L11 29L11 26L12 26L12 28L13 28L13 29L12 29L12 30L11 30L11 31L10 31L10 32L9 32L9 31L8 31L8 33L10 33L10 32L11 32L11 33L12 33L12 32L14 32L14 31L16 31L16 32L15 32L15 33L18 33L18 32L17 32L17 31L18 31L18 29L17 29L17 30L16 30L16 28L15 28L15 27L16 27L16 26L17 26L17 24L18 24L18 23L19 23L19 22L21 22L21 23L24 23L24 24L22 24L22 28L23 28L23 29L29 29L29 30L28 30L28 31L30 31L30 32L27 32L27 31L26 31L26 32L24 32L24 31L25 31L25 30L24 30L24 31L23 31L23 30L21 30L21 28L20 28L20 29L19 29L19 33L20 33L20 30L21 30L21 31L23 31L23 32L24 32L24 33L30 33L30 32L33 32L33 30L32 30L32 31L30 31L30 30L31 30L31 29L32 29L32 28L33 28L33 27L30 27L30 28L31 28L31 29L29 29L29 25L30 25L30 26L31 26L31 25L32 25L32 24L33 24L33 22L32 22L32 23L30 23L30 22L29 22L29 21L30 21L30 20L31 20L31 21L32 21L32 19L33 19L33 15L31 15L31 13L30 13L30 12L32 12L32 13L33 13L33 12L32 12L32 11L33 11L33 10L30 10L30 12L29 12L29 11L28 11L28 12L29 12L29 14L28 14L28 15L27 15L27 16L26 16L26 13L27 13L27 10L26 10L26 9L27 9L27 8L26 8L26 9L22 9L22 14L24 14L24 15L25 15L25 16L26 16L26 18L27 18L27 19L26 19L26 20L27 20L27 22L26 22L26 24L25 24L25 23L24 23L24 22L25 22L25 20L23 20L23 19L24 19L24 18L25 18L25 17L24 17L24 16L23 16L23 15L22 15L22 18L21 18L21 19L20 19L20 17L19 17L19 16L21 16L21 13L20 13L20 14L19 14L19 10L20 10L20 11L21 11L21 5L20 5L20 4L22 4L22 8L24 8L24 7L25 7L25 6L24 6L24 5L25 5L25 4L24 4L24 3L25 3L25 2L24 2L24 3L22 3L22 2L23 2L23 0L22 0L22 2L20 2L20 1L21 1L21 0L20 0L20 1L18 1L18 0L16 0L16 1L17 1L17 2L16 2L16 4L17 4L17 5L16 5L16 8L15 8L15 6L14 6L14 5L15 5L15 3L14 3L14 2L15 2L15 1L14 1L14 2L13 2L13 0ZM24 0L24 1L25 1L25 0ZM17 2L17 3L18 3L18 4L20 4L20 3L19 3L19 2ZM12 3L12 4L11 4L11 5L12 5L12 4L13 4L13 5L14 5L14 4L13 4L13 3ZM23 4L23 5L24 5L24 4ZM18 5L18 6L17 6L17 8L19 8L19 9L20 9L20 8L19 8L19 7L20 7L20 5ZM11 6L11 7L12 7L12 6ZM13 6L13 7L14 7L14 6ZM18 6L18 7L19 7L19 6ZM23 6L23 7L24 7L24 6ZM6 8L6 9L7 9L7 8ZM11 8L11 9L12 9L12 8ZM13 8L13 10L15 10L15 8ZM32 8L32 9L33 9L33 8ZM16 9L16 10L17 10L17 11L18 11L18 9ZM28 9L28 10L29 10L29 9ZM24 10L24 13L26 13L26 12L25 12L25 10ZM2 11L2 12L3 12L3 13L2 13L2 14L5 14L5 16L4 16L4 17L3 17L3 18L2 18L2 17L1 17L1 18L2 18L2 19L4 19L4 18L5 18L5 19L6 19L6 18L7 18L7 17L6 17L6 16L8 16L8 17L9 17L9 18L8 18L8 19L10 19L10 18L12 18L12 17L10 17L10 16L11 16L11 15L12 15L12 14L13 14L13 13L14 13L14 15L13 15L13 16L14 16L14 15L15 15L15 13L16 13L16 11L11 11L11 12L10 12L10 13L9 13L9 12L8 12L8 13L9 13L9 14L10 14L10 16L8 16L8 14L7 14L7 13L6 13L6 12L7 12L7 11L6 11L6 12L5 12L5 13L4 13L4 12L3 12L3 11ZM11 12L11 14L12 14L12 12ZM14 12L14 13L15 13L15 12ZM17 12L17 13L18 13L18 12ZM6 14L6 15L7 15L7 14ZM16 14L16 16L15 16L15 18L17 18L17 20L16 20L16 19L15 19L15 20L13 20L13 19L14 19L14 17L13 17L13 19L11 19L11 20L10 20L10 24L12 24L12 23L11 23L11 20L13 20L13 25L14 25L14 27L13 27L13 28L14 28L14 27L15 27L15 25L16 25L16 24L17 24L17 23L18 23L18 22L19 22L19 20L18 20L18 18L17 18L17 17L18 17L18 15L19 15L19 14ZM29 14L29 16L30 16L30 17L31 17L31 16L30 16L30 14ZM16 16L16 17L17 17L17 16ZM27 16L27 18L28 18L28 19L27 19L27 20L28 20L28 21L29 21L29 20L30 20L30 19L32 19L32 18L30 18L30 19L29 19L29 18L28 18L28 16ZM23 17L23 18L24 18L24 17ZM21 19L21 21L22 21L22 19ZM15 20L15 23L14 23L14 25L15 25L15 24L16 24L16 20ZM17 20L17 21L18 21L18 20ZM27 22L27 24L28 24L28 23L29 23L29 22ZM6 23L6 24L7 24L7 23ZM8 23L8 25L9 25L9 23ZM19 24L19 25L20 25L20 26L19 26L19 27L18 27L18 28L19 28L19 27L20 27L20 26L21 26L21 25L20 25L20 24ZM30 24L30 25L31 25L31 24ZM10 25L10 26L11 26L11 25ZM23 25L23 26L24 26L24 25ZM25 25L25 28L28 28L28 25ZM26 26L26 27L27 27L27 26ZM13 29L13 30L12 30L12 31L11 31L11 32L12 32L12 31L13 31L13 30L14 30L14 29ZM0 0L0 7L7 7L7 0ZM1 1L1 6L6 6L6 1ZM2 2L2 5L5 5L5 2ZM26 0L26 7L33 7L33 0ZM27 1L27 6L32 6L32 1ZM28 2L28 5L31 5L31 2ZM0 26L0 33L7 33L7 26ZM1 27L1 32L6 32L6 27ZM2 28L2 31L5 31L5 28Z" fill="#000000"/></g></g></svg>
