<?xml version="1.0" encoding="UTF-8"?>
<svg xmlns="http://www.w3.org/2000/svg" version="1.1" width="400" height="400" viewBox="0 0 400 400"><rect x="0" y="0" width="400" height="400" fill="#fefefe"/><g transform="scale(9.756)"><g transform="translate(4,4)"><path fill-rule="evenodd" d="M9 0L9 1L10 1L10 0ZM12 0L12 2L11 2L11 4L10 4L10 2L9 2L9 3L8 3L8 5L9 5L9 4L10 4L10 8L9 8L9 9L8 9L8 8L5 8L5 9L2 9L2 8L0 8L0 9L1 9L1 10L0 10L0 11L1 11L1 10L2 10L2 12L1 12L1 16L0 16L0 25L2 25L2 24L4 24L4 25L7 25L7 24L5 24L5 21L8 21L8 24L9 24L9 25L8 25L8 28L9 28L9 30L10 30L10 32L9 32L9 31L8 31L8 33L10 33L10 32L11 32L11 31L12 31L12 32L13 32L13 33L14 33L14 32L15 32L15 33L16 33L16 32L17 32L17 33L18 33L18 32L17 32L17 31L18 31L18 30L17 30L17 29L18 29L18 28L19 28L19 27L18 27L18 28L17 28L17 29L16 29L16 28L15 28L15 27L17 27L17 23L19 23L19 26L21 26L21 23L22 23L22 24L23 24L23 25L24 25L24 26L23 26L23 28L24 28L24 31L23 31L23 32L24 32L24 33L25 33L25 32L26 32L26 33L28 33L28 31L30 31L30 32L29 32L29 33L30 33L30 32L31 32L31 33L32 33L32 32L31 32L31 31L30 31L30 30L31 30L31 29L33 29L33 27L32 27L32 26L33 26L33 25L32 25L32 24L33 24L33 23L30 23L30 24L25 24L25 23L23 23L23 22L26 22L26 21L25 21L25 20L26 20L26 19L25 19L25 20L23 20L23 21L21 21L21 23L19 23L19 22L20 22L20 21L19 21L19 22L17 22L17 23L16 23L16 21L18 21L18 20L19 20L19 19L20 19L20 18L21 18L21 19L22 19L22 18L23 18L23 19L24 19L24 18L25 18L25 17L22 17L22 18L21 18L21 17L19 17L19 15L18 15L18 16L16 16L16 15L17 15L17 14L20 14L20 16L21 16L21 15L22 15L22 16L23 16L23 15L22 15L22 14L24 14L24 15L26 15L26 16L27 16L27 15L26 15L26 14L27 14L27 12L28 12L28 11L27 11L27 12L26 12L26 11L25 11L25 13L24 13L24 12L23 12L23 11L22 11L22 14L20 14L20 12L21 12L21 10L20 10L20 9L19 9L19 8L17 8L17 6L16 6L16 8L15 8L15 11L18 11L18 13L17 13L17 12L16 12L16 13L15 13L15 12L14 12L14 14L15 14L15 15L14 15L14 16L13 16L13 14L12 14L12 11L14 11L14 10L13 10L13 9L14 9L14 8L13 8L13 6L14 6L14 7L15 7L15 6L14 6L14 5L13 5L13 4L15 4L15 3L13 3L13 2L14 2L14 1L13 1L13 0ZM16 0L16 1L18 1L18 2L19 2L19 3L16 3L16 4L19 4L19 5L20 5L20 7L21 7L21 5L22 5L22 3L24 3L24 4L23 4L23 5L24 5L24 8L23 8L23 6L22 6L22 8L23 8L23 10L26 10L26 9L24 9L24 8L25 8L25 5L24 5L24 4L25 4L25 3L24 3L24 2L25 2L25 0L24 0L24 2L23 2L23 0L22 0L22 2L21 2L21 1L20 1L20 2L19 2L19 0ZM20 2L20 3L19 3L19 4L20 4L20 3L21 3L21 2ZM12 3L12 4L13 4L13 3ZM11 5L11 7L12 7L12 5ZM8 6L8 7L9 7L9 6ZM18 6L18 7L19 7L19 6ZM10 8L10 9L12 9L12 8ZM16 8L16 10L18 10L18 9L17 9L17 8ZM28 8L28 10L29 10L29 14L30 14L30 16L31 16L31 17L30 17L30 18L28 18L28 19L27 19L27 20L28 20L28 23L29 23L29 21L30 21L30 20L31 20L31 19L30 19L30 18L32 18L32 20L33 20L33 17L32 17L32 16L33 16L33 15L32 15L32 14L33 14L33 12L32 12L32 10L29 10L29 9L30 9L30 8ZM6 9L6 10L7 10L7 11L6 11L6 12L2 12L2 16L1 16L1 17L2 17L2 19L1 19L1 20L2 20L2 21L1 21L1 24L2 24L2 22L3 22L3 21L4 21L4 19L5 19L5 20L7 20L7 19L9 19L9 18L10 18L10 20L8 20L8 21L10 21L10 23L9 23L9 24L10 24L10 25L11 25L11 23L12 23L12 22L11 22L11 21L10 21L10 20L14 20L14 21L13 21L13 26L11 26L11 27L13 27L13 28L10 28L10 30L11 30L11 29L13 29L13 30L14 30L14 29L15 29L15 28L14 28L14 27L15 27L15 26L14 26L14 22L15 22L15 20L16 20L16 19L14 19L14 17L15 17L15 18L16 18L16 16L14 16L14 17L13 17L13 19L11 19L11 18L10 18L10 17L12 17L12 16L9 16L9 15L12 15L12 14L11 14L11 11L12 11L12 10L11 10L11 11L10 11L10 10L8 10L8 9ZM4 10L4 11L5 11L5 10ZM19 10L19 12L20 12L20 10ZM7 11L7 12L6 12L6 13L4 13L4 15L3 15L3 16L4 16L4 17L3 17L3 19L4 19L4 17L5 17L5 15L7 15L7 16L6 16L6 17L7 17L7 18L6 18L6 19L7 19L7 18L9 18L9 16L8 16L8 14L6 14L6 13L7 13L7 12L8 12L8 13L10 13L10 11L9 11L9 12L8 12L8 11ZM30 12L30 13L32 13L32 12ZM28 15L28 17L29 17L29 15ZM17 17L17 20L18 20L18 17ZM26 17L26 18L27 18L27 17ZM28 19L28 20L30 20L30 19ZM6 22L6 23L7 23L7 22ZM15 24L15 25L16 25L16 24ZM30 24L30 25L29 25L29 28L30 28L30 29L29 29L29 30L30 30L30 29L31 29L31 28L30 28L30 27L31 27L31 26L30 26L30 25L31 25L31 24ZM25 25L25 28L28 28L28 25ZM26 26L26 27L27 27L27 26ZM13 28L13 29L14 29L14 28ZM20 28L20 29L19 29L19 32L20 32L20 33L21 33L21 31L22 31L22 30L23 30L23 29L22 29L22 30L20 30L20 29L21 29L21 28ZM25 29L25 31L24 31L24 32L25 32L25 31L26 31L26 32L27 32L27 29ZM32 30L32 31L33 31L33 30ZM13 31L13 32L14 32L14 31ZM15 31L15 32L16 32L16 31ZM0 0L0 7L7 7L7 0ZM1 1L1 6L6 6L6 1ZM2 2L2 5L5 5L5 2ZM26 0L26 7L33 7L33 0ZM27 1L27 6L32 6L32 1ZM28 2L28 5L31 5L31 2ZM0 26L0 33L7 33L7 26ZM1 27L1 32L6 32L6 27ZM2 28L2 31L5 31L5 28Z" fill="#000000"/></g></g></svg>
