<?xml version="1.0" encoding="UTF-8"?>
<svg xmlns="http://www.w3.org/2000/svg" version="1.1" width="400" height="400" viewBox="0 0 400 400"><rect x="0" y="0" width="400" height="400" fill="#fefefe"/><g transform="scale(9.756)"><g transform="translate(4,4)"><path fill-rule="evenodd" d="M8 0L8 4L9 4L9 5L8 5L8 7L9 7L9 8L10 8L10 7L11 7L11 5L12 5L12 7L13 7L13 5L14 5L14 7L15 7L15 8L14 8L14 9L13 9L13 8L12 8L12 9L11 9L11 11L10 11L10 13L11 13L11 15L10 15L10 14L9 14L9 15L8 15L8 14L5 14L5 12L6 12L6 13L9 13L9 12L8 12L8 11L9 11L9 10L10 10L10 9L9 9L9 10L8 10L8 9L7 9L7 8L4 8L4 9L5 9L5 10L4 10L4 13L3 13L3 12L2 12L2 13L1 13L1 14L2 14L2 16L1 16L1 17L2 17L2 16L4 16L4 19L3 19L3 18L2 18L2 21L0 21L0 22L3 22L3 23L7 23L7 22L8 22L8 23L9 23L9 24L6 24L6 25L8 25L8 26L10 26L10 27L8 27L8 29L9 29L9 30L10 30L10 31L8 31L8 33L10 33L10 31L12 31L12 32L13 32L13 30L14 30L14 29L15 29L15 31L14 31L14 33L15 33L15 32L16 32L16 31L17 31L17 33L18 33L18 32L19 32L19 33L25 33L25 32L26 32L26 33L27 33L27 32L26 32L26 31L28 31L28 32L29 32L29 33L30 33L30 31L32 31L32 30L33 30L33 29L30 29L30 27L31 27L31 28L32 28L32 26L31 26L31 25L32 25L32 24L33 24L33 23L31 23L31 22L32 22L32 21L33 21L33 19L32 19L32 18L31 18L31 17L30 17L30 18L29 18L29 19L28 19L28 20L26 20L26 19L27 19L27 18L26 18L26 17L29 17L29 16L30 16L30 14L31 14L31 16L32 16L32 17L33 17L33 16L32 16L32 14L31 14L31 13L29 13L29 10L27 10L27 11L28 11L28 12L26 12L26 10L24 10L24 9L25 9L25 3L24 3L24 2L23 2L23 1L25 1L25 0L23 0L23 1L22 1L22 0L20 0L20 1L18 1L18 0L17 0L17 1L18 1L18 2L16 2L16 3L15 3L15 4L14 4L14 3L12 3L12 4L9 4L9 3L11 3L11 2L9 2L9 0ZM10 0L10 1L12 1L12 2L13 2L13 0ZM15 0L15 1L14 1L14 2L15 2L15 1L16 1L16 0ZM20 1L20 3L19 3L19 2L18 2L18 3L17 3L17 4L16 4L16 5L15 5L15 7L16 7L16 8L15 8L15 9L14 9L14 11L13 11L13 10L12 10L12 11L11 11L11 13L12 13L12 15L11 15L11 17L10 17L10 15L9 15L9 17L6 17L6 18L5 18L5 20L3 20L3 21L4 21L4 22L5 22L5 21L6 21L6 22L7 22L7 21L9 21L9 22L10 22L10 24L9 24L9 25L10 25L10 24L11 24L11 25L12 25L12 24L13 24L13 25L14 25L14 26L12 26L12 28L11 28L11 27L10 27L10 28L9 28L9 29L14 29L14 28L15 28L15 29L17 29L17 30L19 30L19 31L22 31L22 32L23 32L23 31L22 31L22 30L23 30L23 29L24 29L24 28L23 28L23 27L24 27L24 26L23 26L23 27L22 27L22 25L24 25L24 24L23 24L23 20L22 20L22 25L19 25L19 24L18 24L18 25L17 25L17 23L20 23L20 24L21 24L21 23L20 23L20 21L21 21L21 19L20 19L20 17L21 17L21 18L22 18L22 19L23 19L23 18L22 18L22 17L25 17L25 16L22 16L22 17L21 17L21 15L22 15L22 13L26 13L26 14L24 14L24 15L27 15L27 14L29 14L29 13L26 13L26 12L24 12L24 11L22 11L22 9L24 9L24 8L22 8L22 9L21 9L21 8L20 8L20 6L21 6L21 7L22 7L22 6L23 6L23 7L24 7L24 5L20 5L20 3L21 3L21 4L22 4L22 3L23 3L23 4L24 4L24 3L23 3L23 2L22 2L22 1ZM21 2L21 3L22 3L22 2ZM9 5L9 7L10 7L10 5ZM19 5L19 6L18 6L18 7L17 7L17 6L16 6L16 7L17 7L17 9L15 9L15 12L14 12L14 13L13 13L13 14L14 14L14 13L15 13L15 15L16 15L16 14L17 14L17 16L14 16L14 17L13 17L13 16L12 16L12 17L11 17L11 19L9 19L9 21L10 21L10 22L11 22L11 23L12 23L12 22L14 22L14 25L15 25L15 28L16 28L16 26L17 26L17 29L18 29L18 27L19 27L19 29L23 29L23 28L22 28L22 27L21 27L21 26L20 26L20 27L19 27L19 26L17 26L17 25L16 25L16 24L15 24L15 23L17 23L17 21L18 21L18 19L17 19L17 17L18 17L18 18L19 18L19 17L20 17L20 16L18 16L18 15L19 15L19 13L22 13L22 11L20 11L20 12L18 12L18 11L16 11L16 10L17 10L17 9L18 9L18 10L19 10L19 9L20 9L20 10L21 10L21 9L20 9L20 8L19 8L19 6L20 6L20 5ZM0 8L0 10L2 10L2 11L3 11L3 9L2 9L2 8ZM27 8L27 9L28 9L28 8ZM29 8L29 9L31 9L31 12L32 12L32 13L33 13L33 12L32 12L32 9L33 9L33 8ZM6 9L6 10L5 10L5 11L6 11L6 12L7 12L7 11L6 11L6 10L7 10L7 9ZM12 11L12 12L13 12L13 11ZM16 12L16 13L17 13L17 12ZM3 14L3 15L4 15L4 16L8 16L8 15L5 15L5 14ZM14 17L14 19L13 19L13 18L12 18L12 19L13 19L13 21L14 21L14 22L15 22L15 21L16 21L16 20L17 20L17 19L16 19L16 20L15 20L15 18L16 18L16 17ZM0 18L0 19L1 19L1 18ZM6 18L6 19L8 19L8 18ZM19 19L19 21L20 21L20 19ZM30 19L30 21L25 21L25 24L26 24L26 23L27 23L27 24L28 24L28 22L31 22L31 20L32 20L32 19ZM6 20L6 21L7 21L7 20ZM14 20L14 21L15 21L15 20ZM30 23L30 24L29 24L29 26L30 26L30 25L31 25L31 23ZM0 24L0 25L3 25L3 24ZM25 25L25 28L28 28L28 25ZM26 26L26 27L27 27L27 26ZM20 27L20 28L21 28L21 27ZM29 29L29 30L30 30L30 29ZM24 30L24 31L25 31L25 30ZM32 32L32 33L33 33L33 32ZM0 0L0 7L7 7L7 0ZM1 1L1 6L6 6L6 1ZM2 2L2 5L5 5L5 2ZM26 0L26 7L33 7L33 0ZM27 1L27 6L32 6L32 1ZM28 2L28 5L31 5L31 2ZM0 26L0 33L7 33L7 26ZM1 27L1 32L6 32L6 27ZM2 28L2 31L5 31L5 28Z" fill="#000000"/></g></g></svg>
