<?xml version="1.0" encoding="UTF-8"?>
<svg xmlns="http://www.w3.org/2000/svg" version="1.1" width="400" height="400" viewBox="0 0 400 400"><rect x="0" y="0" width="400" height="400" fill="#fefefe"/><g transform="scale(9.756)"><g transform="translate(4,4)"><path fill-rule="evenodd" d="M11 0L11 1L8 1L8 3L9 3L9 2L10 2L10 4L8 4L8 8L6 8L6 9L5 9L5 10L4 10L4 8L3 8L3 9L2 9L2 8L0 8L0 9L1 9L1 10L0 10L0 12L1 12L1 14L0 14L0 16L2 16L2 17L1 17L1 18L0 18L0 19L1 19L1 18L2 18L2 19L4 19L4 24L3 24L3 22L2 22L2 20L1 20L1 22L0 22L0 23L1 23L1 24L0 24L0 25L1 25L1 24L3 24L3 25L4 25L4 24L5 24L5 25L8 25L8 27L9 27L9 29L8 29L8 30L9 30L9 31L8 31L8 33L10 33L10 32L11 32L11 33L12 33L12 32L13 32L13 33L14 33L14 32L16 32L16 33L17 33L17 32L19 32L19 31L17 31L17 29L18 29L18 30L19 30L19 29L21 29L21 32L20 32L20 33L25 33L25 32L26 32L26 33L27 33L27 32L28 32L28 33L29 33L29 32L30 32L30 31L29 31L29 29L30 29L30 25L29 25L29 24L28 24L28 23L27 23L27 22L28 22L28 20L30 20L30 19L29 19L29 18L28 18L28 17L29 17L29 16L30 16L30 15L32 15L32 14L33 14L33 9L32 9L32 8L30 8L30 9L29 9L29 8L26 8L26 10L24 10L24 14L23 14L23 13L22 13L22 11L23 11L23 9L24 9L24 8L25 8L25 6L24 6L24 7L23 7L23 6L22 6L22 5L25 5L25 2L24 2L24 1L25 1L25 0L19 0L19 1L20 1L20 2L19 2L19 4L20 4L20 2L22 2L22 1L23 1L23 2L24 2L24 3L23 3L23 4L21 4L21 5L19 5L19 6L18 6L18 7L17 7L17 6L16 6L16 3L18 3L18 0L15 0L15 4L13 4L13 2L14 2L14 0ZM12 1L12 2L11 2L11 4L12 4L12 2L13 2L13 1ZM17 4L17 5L18 5L18 4ZM11 5L11 7L10 7L10 6L9 6L9 7L10 7L10 8L8 8L8 9L9 9L9 10L11 10L11 11L6 11L6 12L7 12L7 13L5 13L5 11L4 11L4 10L3 10L3 11L4 11L4 14L3 14L3 15L2 15L2 14L1 14L1 15L2 15L2 16L3 16L3 18L4 18L4 19L6 19L6 20L5 20L5 21L6 21L6 22L10 22L10 24L11 24L11 25L10 25L10 26L9 26L9 27L11 27L11 29L9 29L9 30L11 30L11 31L12 31L12 30L13 30L13 32L14 32L14 30L15 30L15 31L16 31L16 32L17 32L17 31L16 31L16 29L17 29L17 28L15 28L15 27L17 27L17 25L15 25L15 26L14 26L14 25L12 25L12 24L13 24L13 23L15 23L15 24L16 24L16 23L17 23L17 24L18 24L18 25L20 25L20 26L18 26L18 29L19 29L19 27L20 27L20 28L21 28L21 27L22 27L22 26L21 26L21 24L18 24L18 23L17 23L17 22L16 22L16 21L19 21L19 22L21 22L21 23L22 23L22 22L23 22L23 24L22 24L22 25L24 25L24 24L26 24L26 21L27 21L27 17L26 17L26 20L25 20L25 21L24 21L24 20L23 20L23 21L20 21L20 20L19 20L19 19L22 19L22 17L24 17L24 18L23 18L23 19L25 19L25 16L23 16L23 15L22 15L22 17L21 17L21 16L20 16L20 15L21 15L21 11L16 11L16 8L17 8L17 9L18 9L18 10L20 10L20 9L21 9L21 8L19 8L19 7L20 7L20 6L19 6L19 7L18 7L18 8L17 8L17 7L16 7L16 6L15 6L15 7L14 7L14 5ZM12 6L12 7L13 7L13 6ZM21 6L21 7L22 7L22 8L23 8L23 7L22 7L22 6ZM15 7L15 8L16 8L16 7ZM10 8L10 9L13 9L13 10L12 10L12 11L11 11L11 12L13 12L13 13L12 13L12 14L11 14L11 13L9 13L9 12L8 12L8 13L9 13L9 14L6 14L6 15L8 15L8 18L9 18L9 14L10 14L10 17L11 17L11 18L12 18L12 19L11 19L11 20L12 20L12 21L13 21L13 22L12 22L12 23L11 23L11 24L12 24L12 23L13 23L13 22L15 22L15 21L14 21L14 20L13 20L13 19L15 19L15 20L16 20L16 19L17 19L17 20L18 20L18 19L19 19L19 18L17 18L17 17L20 17L20 18L21 18L21 17L20 17L20 16L18 16L18 14L17 14L17 15L16 15L16 16L14 16L14 15L13 15L13 13L14 13L14 14L15 14L15 13L19 13L19 14L20 14L20 13L19 13L19 12L16 12L16 11L15 11L15 9L14 9L14 8ZM18 8L18 9L19 9L19 8ZM6 9L6 10L7 10L7 9ZM28 9L28 11L29 11L29 9ZM1 10L1 11L2 11L2 10ZM13 10L13 11L14 11L14 10ZM26 10L26 11L25 11L25 12L26 12L26 11L27 11L27 10ZM31 10L31 11L30 11L30 12L28 12L28 13L29 13L29 14L31 14L31 12L32 12L32 10ZM25 13L25 15L28 15L28 16L29 16L29 15L28 15L28 14L26 14L26 13ZM4 14L4 15L5 15L5 14ZM11 15L11 17L12 17L12 18L13 18L13 17L14 17L14 18L15 18L15 19L16 19L16 18L15 18L15 17L14 17L14 16L13 16L13 15ZM4 16L4 18L6 18L6 19L7 19L7 18L6 18L6 17L7 17L7 16ZM12 16L12 17L13 17L13 16ZM32 16L32 17L33 17L33 16ZM31 18L31 19L32 19L32 20L33 20L33 18ZM8 19L8 20L6 20L6 21L8 21L8 20L9 20L9 21L10 21L10 22L11 22L11 21L10 21L10 19ZM29 21L29 22L31 22L31 23L33 23L33 21ZM6 23L6 24L8 24L8 23ZM25 25L25 28L28 28L28 25ZM31 25L31 27L32 27L32 26L33 26L33 25ZM11 26L11 27L12 27L12 26ZM20 26L20 27L21 27L21 26ZM23 26L23 29L22 29L22 30L23 30L23 31L22 31L22 32L24 32L24 31L25 31L25 29L24 29L24 26ZM26 26L26 27L27 27L27 26ZM13 27L13 28L14 28L14 29L13 29L13 30L14 30L14 29L15 29L15 28L14 28L14 27ZM11 29L11 30L12 30L12 29ZM23 29L23 30L24 30L24 29ZM27 29L27 30L26 30L26 32L27 32L27 31L28 31L28 32L29 32L29 31L28 31L28 29ZM31 29L31 31L33 31L33 29ZM9 31L9 32L10 32L10 31ZM31 32L31 33L32 33L32 32ZM0 0L0 7L7 7L7 0ZM1 1L1 6L6 6L6 1ZM2 2L2 5L5 5L5 2ZM26 0L26 7L33 7L33 0ZM27 1L27 6L32 6L32 1ZM28 2L28 5L31 5L31 2ZM0 26L0 33L7 33L7 26ZM1 27L1 32L6 32L6 27ZM2 28L2 31L5 31L5 28Z" fill="#000000"/></g></g></svg>
