<?xml version="1.0" encoding="UTF-8"?>
<svg xmlns="http://www.w3.org/2000/svg" version="1.1" width="400" height="400" viewBox="0 0 400 400"><rect x="0" y="0" width="400" height="400" fill="#fefefe"/><g transform="scale(9.756)"><g transform="translate(4,4)"><path fill-rule="evenodd" d="M9 0L9 1L10 1L10 0ZM12 0L12 2L11 2L11 4L10 4L10 2L9 2L9 3L8 3L8 5L9 5L9 4L10 4L10 8L9 8L9 10L8 10L8 8L5 8L5 9L2 9L2 8L0 8L0 10L1 10L1 11L2 11L2 10L5 10L5 9L7 9L7 10L6 10L6 11L4 11L4 12L2 12L2 13L1 13L1 14L0 14L0 15L1 15L1 14L2 14L2 16L1 16L1 17L0 17L0 25L2 25L2 24L3 24L3 25L4 25L4 24L5 24L5 25L8 25L8 28L9 28L9 29L10 29L10 30L9 30L9 31L8 31L8 33L10 33L10 32L9 32L9 31L10 31L10 30L11 30L11 31L12 31L12 32L11 32L11 33L12 33L12 32L13 32L13 33L14 33L14 32L13 32L13 31L16 31L16 32L15 32L15 33L16 33L16 32L17 32L17 33L18 33L18 32L17 32L17 31L18 31L18 30L17 30L17 29L18 29L18 28L19 28L19 27L18 27L18 28L17 28L17 29L16 29L16 28L15 28L15 27L17 27L17 23L19 23L19 26L20 26L20 23L19 23L19 22L20 22L20 21L19 21L19 22L17 22L17 23L16 23L16 21L18 21L18 20L19 20L19 19L20 19L20 20L21 20L21 19L20 19L20 17L21 17L21 16L20 16L20 15L21 15L21 11L22 11L22 10L21 10L21 6L20 6L20 7L19 7L19 6L18 6L18 7L19 7L19 8L17 8L17 6L16 6L16 8L15 8L15 11L18 11L18 13L17 13L17 12L16 12L16 13L15 13L15 12L14 12L14 14L15 14L15 15L14 15L14 16L13 16L13 14L12 14L12 11L14 11L14 10L13 10L13 9L14 9L14 8L13 8L13 6L14 6L14 7L15 7L15 6L14 6L14 5L13 5L13 4L15 4L15 3L13 3L13 2L14 2L14 1L13 1L13 0ZM16 0L16 1L18 1L18 0ZM20 0L20 2L21 2L21 4L22 4L22 5L24 5L24 7L25 7L25 4L23 4L23 3L24 3L24 2L23 2L23 0L22 0L22 2L21 2L21 0ZM24 0L24 1L25 1L25 0ZM12 3L12 4L13 4L13 3ZM16 3L16 4L19 4L19 5L20 5L20 4L19 4L19 3ZM11 5L11 7L12 7L12 5ZM8 6L8 7L9 7L9 6ZM22 6L22 7L23 7L23 6ZM10 8L10 9L12 9L12 8ZM16 8L16 10L18 10L18 9L17 9L17 8ZM19 8L19 9L20 9L20 8ZM24 8L24 9L23 9L23 10L24 10L24 9L25 9L25 10L26 10L26 11L23 11L23 12L22 12L22 15L23 15L23 14L24 14L24 15L25 15L25 14L26 14L26 16L27 16L27 17L26 17L26 18L28 18L28 19L27 19L27 22L29 22L29 21L30 21L30 20L31 20L31 19L30 19L30 18L32 18L32 20L33 20L33 17L32 17L32 16L33 16L33 15L32 15L32 14L33 14L33 12L32 12L32 10L29 10L29 9L30 9L30 8L28 8L28 11L27 11L27 10L26 10L26 9L25 9L25 8ZM9 10L9 11L10 11L10 13L9 13L9 12L8 12L8 11L6 11L6 12L5 12L5 13L3 13L3 15L5 15L5 16L4 16L4 17L3 17L3 18L1 18L1 19L2 19L2 20L1 20L1 24L2 24L2 22L3 22L3 23L4 23L4 21L5 21L5 24L8 24L8 25L9 25L9 27L11 27L11 28L10 28L10 29L11 29L11 28L12 28L12 29L13 29L13 30L14 30L14 29L15 29L15 28L14 28L14 27L15 27L15 26L14 26L14 22L15 22L15 20L16 20L16 19L14 19L14 17L15 17L15 18L16 18L16 16L18 16L18 15L20 15L20 14L17 14L17 15L16 15L16 16L14 16L14 17L13 17L13 19L11 19L11 20L10 20L10 19L9 19L9 20L10 20L10 21L5 21L5 19L4 19L4 21L2 21L2 20L3 20L3 18L7 18L7 19L6 19L6 20L7 20L7 19L8 19L8 16L9 16L9 17L10 17L10 18L11 18L11 17L12 17L12 16L11 16L11 15L12 15L12 14L11 14L11 11L12 11L12 10L11 10L11 11L10 11L10 10ZM19 10L19 12L20 12L20 10ZM26 11L26 12L27 12L27 16L28 16L28 15L29 15L29 17L28 17L28 18L30 18L30 17L31 17L31 16L30 16L30 14L29 14L29 11L28 11L28 12L27 12L27 11ZM6 12L6 13L7 13L7 14L6 14L6 15L8 15L8 14L9 14L9 16L10 16L10 15L11 15L11 14L9 14L9 13L7 13L7 12ZM24 12L24 13L25 13L25 12ZM30 12L30 13L32 13L32 12ZM5 16L5 17L7 17L7 16ZM19 16L19 17L20 17L20 16ZM17 17L17 20L18 20L18 17ZM22 17L22 18L23 18L23 19L24 19L24 18L25 18L25 17ZM25 19L25 20L23 20L23 21L21 21L21 23L22 23L22 24L23 24L23 27L24 27L24 29L23 29L23 28L22 28L22 29L23 29L23 30L22 30L22 31L23 31L23 32L22 32L22 33L23 33L23 32L24 32L24 33L26 33L26 32L24 32L24 30L25 30L25 31L26 31L26 29L27 29L27 31L28 31L28 32L27 32L27 33L28 33L28 32L29 32L29 33L30 33L30 32L31 32L31 33L32 33L32 32L31 32L31 31L30 31L30 30L31 30L31 29L33 29L33 27L32 27L32 26L33 26L33 25L32 25L32 24L33 24L33 23L30 23L30 24L26 24L26 22L25 22L25 21L26 21L26 19ZM28 19L28 20L30 20L30 19ZM11 20L11 21L10 21L10 23L9 23L9 22L8 22L8 24L10 24L10 23L11 23L11 26L12 26L12 28L13 28L13 29L14 29L14 28L13 28L13 21L14 21L14 20ZM6 22L6 23L7 23L7 22ZM11 22L11 23L12 23L12 22ZM23 22L23 23L24 23L24 24L25 24L25 22ZM15 24L15 25L16 25L16 24ZM30 24L30 25L29 25L29 28L30 28L30 29L29 29L29 30L30 30L30 29L31 29L31 28L30 28L30 27L31 27L31 26L30 26L30 25L31 25L31 24ZM25 25L25 28L28 28L28 25ZM21 26L21 27L20 27L20 29L19 29L19 32L20 32L20 29L21 29L21 27L22 27L22 26ZM26 26L26 27L27 27L27 26ZM32 30L32 31L33 31L33 30ZM29 31L29 32L30 32L30 31ZM0 0L0 7L7 7L7 0ZM1 1L1 6L6 6L6 1ZM2 2L2 5L5 5L5 2ZM26 0L26 7L33 7L33 0ZM27 1L27 6L32 6L32 1ZM28 2L28 5L31 5L31 2ZM0 26L0 33L7 33L7 26ZM1 27L1 32L6 32L6 27ZM2 28L2 31L5 31L5 28Z" fill="#000000"/></g></g></svg>
