<?xml version="1.0" encoding="UTF-8"?>
<svg xmlns="http://www.w3.org/2000/svg" version="1.1" width="400" height="400" viewBox="0 0 400 400"><rect x="0" y="0" width="400" height="400" fill="#fefefe"/><g transform="scale(9.756)"><g transform="translate(4,4)"><path fill-rule="evenodd" d="M9 0L9 1L8 1L8 2L9 2L9 3L8 3L8 4L9 4L9 3L10 3L10 5L8 5L8 7L9 7L9 8L6 8L6 9L7 9L7 10L6 10L6 11L7 11L7 10L8 10L8 9L10 9L10 8L12 8L12 9L11 9L11 10L10 10L10 11L11 11L11 12L9 12L9 11L8 11L8 12L4 12L4 9L5 9L5 8L0 8L0 14L1 14L1 15L0 15L0 16L1 16L1 15L2 15L2 16L4 16L4 15L5 15L5 16L6 16L6 17L5 17L5 19L8 19L8 20L9 20L9 19L11 19L11 18L12 18L12 19L14 19L14 18L15 18L15 21L14 21L14 20L10 20L10 21L11 21L11 22L12 22L12 23L11 23L11 24L12 24L12 25L10 25L10 26L13 26L13 25L14 25L14 26L15 26L15 29L14 29L14 28L13 28L13 29L10 29L10 27L9 27L9 24L10 24L10 22L9 22L9 21L7 21L7 20L6 20L6 21L5 21L5 22L3 22L3 21L2 21L2 20L3 20L3 18L4 18L4 17L1 17L1 18L0 18L0 19L1 19L1 20L0 20L0 25L1 25L1 21L2 21L2 23L3 23L3 24L4 24L4 25L8 25L8 27L9 27L9 28L8 28L8 33L9 33L9 29L10 29L10 33L12 33L12 32L13 32L13 33L14 33L14 32L15 32L15 33L16 33L16 32L17 32L17 33L18 33L18 32L17 32L17 31L16 31L16 30L17 30L17 29L18 29L18 28L20 28L20 29L19 29L19 30L20 30L20 31L21 31L21 32L19 32L19 33L21 33L21 32L23 32L23 33L26 33L26 32L27 32L27 33L28 33L28 32L29 32L29 33L30 33L30 32L31 32L31 33L32 33L32 32L31 32L31 31L32 31L32 30L31 30L31 29L33 29L33 28L32 28L32 26L33 26L33 23L30 23L30 24L32 24L32 25L30 25L30 26L31 26L31 27L30 27L30 28L29 28L29 24L26 24L26 22L27 22L27 23L28 23L28 22L27 22L27 21L30 21L30 20L31 20L31 19L32 19L32 20L33 20L33 19L32 19L32 18L33 18L33 17L32 17L32 14L33 14L33 13L32 13L32 10L33 10L33 9L32 9L32 8L31 8L31 9L32 9L32 10L29 10L29 12L27 12L27 13L26 13L26 12L25 12L25 11L26 11L26 10L27 10L27 11L28 11L28 10L27 10L27 9L28 9L28 8L27 8L27 9L26 9L26 8L25 8L25 6L24 6L24 7L23 7L23 6L22 6L22 4L23 4L23 5L24 5L24 4L25 4L25 0L23 0L23 1L21 1L21 0L18 0L18 1L17 1L17 2L18 2L18 3L17 3L17 4L19 4L19 5L21 5L21 6L20 6L20 7L19 7L19 6L18 6L18 7L19 7L19 8L17 8L17 6L16 6L16 5L15 5L15 6L14 6L14 5L13 5L13 4L14 4L14 3L13 3L13 2L14 2L14 1L15 1L15 2L16 2L16 1L15 1L15 0ZM9 1L9 2L10 2L10 3L11 3L11 2L12 2L12 1ZM19 1L19 4L22 4L22 3L20 3L20 2L21 2L21 1ZM23 1L23 2L24 2L24 1ZM12 3L12 4L13 4L13 3ZM15 3L15 4L16 4L16 3ZM23 3L23 4L24 4L24 3ZM11 5L11 7L12 7L12 5ZM9 6L9 7L10 7L10 6ZM13 6L13 8L14 8L14 9L13 9L13 10L14 10L14 11L12 11L12 10L11 10L11 11L12 11L12 12L11 12L11 13L9 13L9 14L10 14L10 17L12 17L12 16L11 16L11 15L12 15L12 14L13 14L13 16L14 16L14 17L13 17L13 18L14 18L14 17L16 17L16 15L15 15L15 14L16 14L16 13L17 13L17 12L18 12L18 11L16 11L16 12L15 12L15 10L16 10L16 9L17 9L17 10L18 10L18 9L17 9L17 8L16 8L16 9L15 9L15 7L16 7L16 6L15 6L15 7L14 7L14 6ZM21 6L21 7L22 7L22 6ZM19 8L19 9L21 9L21 10L19 10L19 13L20 13L20 14L17 14L17 16L18 16L18 15L19 15L19 17L25 17L25 18L22 18L22 19L23 19L23 20L21 20L21 18L19 18L19 19L20 19L20 20L18 20L18 19L17 19L17 18L18 18L18 17L17 17L17 18L16 18L16 19L17 19L17 20L18 20L18 21L17 21L17 22L16 22L16 21L15 21L15 22L16 22L16 23L15 23L15 24L14 24L14 21L13 21L13 24L14 24L14 25L15 25L15 26L16 26L16 25L17 25L17 28L16 28L16 29L15 29L15 30L14 30L14 29L13 29L13 30L11 30L11 32L12 32L12 31L13 31L13 32L14 32L14 31L15 31L15 30L16 30L16 29L17 29L17 28L18 28L18 27L23 27L23 26L24 26L24 24L19 24L19 23L21 23L21 22L23 22L23 23L25 23L25 22L26 22L26 21L27 21L27 19L26 19L26 21L25 21L25 22L23 22L23 20L25 20L25 18L26 18L26 17L28 17L28 18L29 18L29 19L28 19L28 20L30 20L30 19L31 19L31 18L30 18L30 17L31 17L31 16L30 16L30 14L29 14L29 13L31 13L31 12L29 12L29 13L27 13L27 14L26 14L26 13L24 13L24 12L23 12L23 13L22 13L22 12L21 12L21 13L20 13L20 11L21 11L21 10L22 10L22 11L25 11L25 10L26 10L26 9L25 9L25 8ZM29 8L29 9L30 9L30 8ZM14 9L14 10L15 10L15 9ZM22 9L22 10L25 10L25 9ZM2 10L2 13L1 13L1 14L2 14L2 13L4 13L4 14L3 14L3 15L4 15L4 14L5 14L5 15L6 15L6 16L9 16L9 15L8 15L8 14L7 14L7 13L4 13L4 12L3 12L3 10ZM13 12L13 13L14 13L14 14L15 14L15 13L14 13L14 12ZM11 13L11 14L12 14L12 13ZM21 13L21 14L20 14L20 15L21 15L21 16L22 16L22 15L21 15L21 14L22 14L22 13ZM23 13L23 14L24 14L24 15L25 15L25 14L24 14L24 13ZM6 14L6 15L7 15L7 14ZM27 14L27 15L26 15L26 16L28 16L28 17L29 17L29 15L28 15L28 14ZM6 17L6 18L7 18L7 17ZM8 17L8 19L9 19L9 17ZM1 18L1 19L2 19L2 18ZM6 21L6 22L7 22L7 21ZM19 21L19 22L17 22L17 23L16 23L16 24L17 24L17 25L18 25L18 24L17 24L17 23L19 23L19 22L21 22L21 21ZM32 21L32 22L33 22L33 21ZM8 22L8 23L6 23L6 24L8 24L8 23L9 23L9 22ZM19 25L19 26L23 26L23 25ZM25 25L25 28L28 28L28 25ZM26 26L26 27L27 27L27 26ZM11 27L11 28L12 28L12 27ZM21 28L21 29L20 29L20 30L21 30L21 29L22 29L22 31L23 31L23 32L26 32L26 31L23 31L23 30L28 30L28 31L29 31L29 32L30 32L30 31L31 31L31 30L30 30L30 29L31 29L31 28L30 28L30 29L29 29L29 30L28 30L28 29L24 29L24 28L23 28L23 29L22 29L22 28ZM0 0L0 7L7 7L7 0ZM1 1L1 6L6 6L6 1ZM2 2L2 5L5 5L5 2ZM26 0L26 7L33 7L33 0ZM27 1L27 6L32 6L32 1ZM28 2L28 5L31 5L31 2ZM0 26L0 33L7 33L7 26ZM1 27L1 32L6 32L6 27ZM2 28L2 31L5 31L5 28Z" fill="#000000"/></g></g></svg>
