<?xml version="1.0" encoding="UTF-8"?>
<svg xmlns="http://www.w3.org/2000/svg" version="1.1" width="400" height="400" viewBox="0 0 400 400"><rect x="0" y="0" width="400" height="400" fill="#fefefe"/><g transform="scale(9.756)"><g transform="translate(4,4)"><path fill-rule="evenodd" d="M8 0L8 4L9 4L9 5L8 5L8 7L9 7L9 8L10 8L10 7L11 7L11 5L12 5L12 7L13 7L13 5L14 5L14 7L15 7L15 8L14 8L14 9L13 9L13 8L12 8L12 9L11 9L11 11L10 11L10 13L8 13L8 12L9 12L9 10L10 10L10 9L9 9L9 10L8 10L8 12L6 12L6 11L7 11L7 10L6 10L6 9L7 9L7 8L4 8L4 9L2 9L2 8L0 8L0 9L1 9L1 10L4 10L4 9L5 9L5 10L6 10L6 11L3 11L3 12L0 12L0 13L2 13L2 15L1 15L1 16L0 16L0 18L2 18L2 17L3 17L3 18L4 18L4 20L2 20L2 19L1 19L1 20L2 20L2 21L0 21L0 22L2 22L2 23L3 23L3 24L0 24L0 25L3 25L3 24L4 24L4 25L8 25L8 26L9 26L9 27L8 27L8 29L9 29L9 27L10 27L10 28L12 28L12 26L14 26L14 25L15 25L15 28L14 28L14 29L10 29L10 30L9 30L9 31L8 31L8 33L9 33L9 31L10 31L10 30L11 30L11 31L12 31L12 32L13 32L13 30L14 30L14 29L15 29L15 31L14 31L14 33L15 33L15 32L16 32L16 31L17 31L17 33L18 33L18 32L19 32L19 33L25 33L25 31L27 31L27 29L28 29L28 31L29 31L29 33L30 33L30 31L32 31L32 30L33 30L33 29L30 29L30 27L31 27L31 28L32 28L32 26L31 26L31 25L32 25L32 24L33 24L33 23L31 23L31 22L32 22L32 21L33 21L33 19L32 19L32 18L31 18L31 17L30 17L30 18L29 18L29 19L27 19L27 18L26 18L26 17L29 17L29 16L30 16L30 14L31 14L31 16L32 16L32 17L33 17L33 16L32 16L32 14L31 14L31 13L29 13L29 11L27 11L27 12L26 12L26 9L22 9L22 7L23 7L23 8L24 8L24 7L25 7L25 6L24 6L24 7L23 7L23 6L22 6L22 7L21 7L21 6L20 6L20 5L25 5L25 2L24 2L24 3L22 3L22 2L23 2L23 1L25 1L25 0L23 0L23 1L22 1L22 0L20 0L20 1L19 1L19 2L16 2L16 3L15 3L15 4L14 4L14 3L12 3L12 4L9 4L9 3L11 3L11 2L9 2L9 0ZM10 0L10 1L12 1L12 2L13 2L13 0ZM15 0L15 1L14 1L14 2L15 2L15 1L16 1L16 0ZM21 1L21 2L19 2L19 5L20 5L20 3L21 3L21 4L22 4L22 3L21 3L21 2L22 2L22 1ZM17 3L17 4L16 4L16 5L15 5L15 7L16 7L16 8L15 8L15 9L14 9L14 11L13 11L13 10L12 10L12 11L11 11L11 13L10 13L10 15L9 15L9 17L10 17L10 18L11 18L11 17L12 17L12 16L13 16L13 17L14 17L14 19L13 19L13 18L12 18L12 19L13 19L13 21L14 21L14 22L12 22L12 23L10 23L10 24L8 24L8 23L9 23L9 19L8 19L8 18L7 18L7 17L6 17L6 16L8 16L8 13L6 13L6 12L5 12L5 14L7 14L7 15L5 15L5 16L3 16L3 15L2 15L2 16L1 16L1 17L2 17L2 16L3 16L3 17L5 17L5 18L7 18L7 19L5 19L5 20L4 20L4 21L3 21L3 22L5 22L5 23L6 23L6 24L8 24L8 25L12 25L12 24L13 24L13 25L14 25L14 22L15 22L15 21L16 21L16 20L17 20L17 19L18 19L18 21L17 21L17 23L15 23L15 24L16 24L16 25L17 25L17 26L16 26L16 28L15 28L15 29L17 29L17 30L19 30L19 32L21 32L21 31L20 31L20 29L21 29L21 30L22 30L22 29L23 29L23 31L25 31L25 29L24 29L24 24L23 24L23 20L22 20L22 24L23 24L23 25L21 25L21 23L20 23L20 21L21 21L21 20L20 20L20 21L19 21L19 19L20 19L20 18L22 18L22 19L23 19L23 18L22 18L22 17L25 17L25 16L26 16L26 15L27 15L27 14L29 14L29 13L26 13L26 12L25 12L25 11L24 11L24 12L23 12L23 13L21 13L21 11L20 11L20 9L21 9L21 10L22 10L22 11L23 11L23 10L22 10L22 9L21 9L21 8L20 8L20 9L19 9L19 10L18 10L18 9L17 9L17 7L18 7L18 6L17 6L17 5L18 5L18 3ZM9 5L9 7L10 7L10 5ZM16 6L16 7L17 7L17 6ZM19 6L19 7L20 7L20 6ZM27 8L27 10L28 10L28 8ZM29 8L29 9L31 9L31 12L32 12L32 13L33 13L33 12L32 12L32 9L33 9L33 8ZM15 9L15 12L14 12L14 13L13 13L13 14L14 14L14 13L15 13L15 15L16 15L16 14L17 14L17 16L14 16L14 17L16 17L16 18L15 18L15 20L14 20L14 21L15 21L15 20L16 20L16 19L17 19L17 17L18 17L18 18L19 18L19 17L22 17L22 14L21 14L21 13L20 13L20 12L18 12L18 11L16 11L16 10L17 10L17 9ZM12 11L12 12L13 12L13 11ZM3 12L3 13L4 13L4 12ZM16 12L16 13L17 13L17 12ZM24 12L24 13L23 13L23 16L25 16L25 15L26 15L26 13L25 13L25 12ZM11 13L11 15L12 15L12 13ZM19 13L19 15L18 15L18 16L19 16L19 15L20 15L20 16L21 16L21 15L20 15L20 13ZM24 13L24 15L25 15L25 13ZM28 15L28 16L29 16L29 15ZM10 16L10 17L11 17L11 16ZM7 19L7 20L5 20L5 21L8 21L8 19ZM10 19L10 22L11 22L11 19ZM26 19L26 20L25 20L25 21L26 21L26 22L24 22L24 23L26 23L26 24L27 24L27 23L28 23L28 22L31 22L31 20L32 20L32 19L30 19L30 21L26 21L26 20L27 20L27 19ZM6 22L6 23L7 23L7 22ZM17 23L17 25L18 25L18 24L19 24L19 23ZM30 23L30 24L29 24L29 26L30 26L30 25L31 25L31 23ZM20 25L20 26L21 26L21 29L22 29L22 27L23 27L23 26L21 26L21 25ZM25 25L25 28L28 28L28 25ZM17 26L17 29L18 29L18 27L19 27L19 29L20 29L20 27L19 27L19 26ZM26 26L26 27L27 27L27 26ZM29 29L29 30L30 30L30 29ZM10 32L10 33L11 33L11 32ZM26 32L26 33L27 33L27 32ZM32 32L32 33L33 33L33 32ZM0 0L0 7L7 7L7 0ZM1 1L1 6L6 6L6 1ZM2 2L2 5L5 5L5 2ZM26 0L26 7L33 7L33 0ZM27 1L27 6L32 6L32 1ZM28 2L28 5L31 5L31 2ZM0 26L0 33L7 33L7 26ZM1 27L1 32L6 32L6 27ZM2 28L2 31L5 31L5 28Z" fill="#000000"/></g></g></svg>
