<?xml version="1.0" encoding="UTF-8"?>
<svg xmlns="http://www.w3.org/2000/svg" version="1.1" width="400" height="400" viewBox="0 0 400 400"><rect x="0" y="0" width="400" height="400" fill="#fefefe"/><g transform="scale(9.756)"><g transform="translate(4,4)"><path fill-rule="evenodd" d="M9 0L9 1L8 1L8 3L9 3L9 4L8 4L8 8L6 8L6 9L5 9L5 10L4 10L4 8L3 8L3 9L2 9L2 8L0 8L0 11L1 11L1 12L0 12L0 16L2 16L2 15L1 15L1 14L2 14L2 11L1 11L1 10L4 10L4 11L7 11L7 12L6 12L6 13L7 13L7 14L6 14L6 15L8 15L8 16L9 16L9 19L8 19L8 18L6 18L6 17L7 17L7 16L5 16L5 17L4 17L4 18L5 18L5 19L7 19L7 20L6 20L6 21L5 21L5 20L4 20L4 19L3 19L3 17L1 17L1 18L0 18L0 20L1 20L1 18L2 18L2 19L3 19L3 20L2 20L2 21L3 21L3 22L0 22L0 23L1 23L1 24L0 24L0 25L1 25L1 24L2 24L2 25L3 25L3 24L2 24L2 23L4 23L4 21L5 21L5 25L8 25L8 27L9 27L9 29L8 29L8 30L9 30L9 31L8 31L8 33L10 33L10 31L11 31L11 33L12 33L12 31L13 31L13 30L14 30L14 31L15 31L15 32L16 32L16 33L17 33L17 32L19 32L19 31L17 31L17 29L18 29L18 30L19 30L19 29L22 29L22 31L21 31L21 32L20 32L20 33L23 33L23 32L24 32L24 33L26 33L26 32L25 32L25 30L24 30L24 29L26 29L26 30L27 30L27 29L28 29L28 31L27 31L27 33L29 33L29 32L30 32L30 31L29 31L29 29L30 29L30 25L29 25L29 24L28 24L28 20L30 20L30 19L28 19L28 17L29 17L29 16L30 16L30 15L32 15L32 14L33 14L33 9L32 9L32 8L30 8L30 9L29 9L29 8L26 8L26 11L27 11L27 12L26 12L26 13L25 13L25 14L22 14L22 15L20 15L20 16L18 16L18 14L17 14L17 15L16 15L16 16L14 16L14 15L13 15L13 13L14 13L14 14L15 14L15 13L19 13L19 14L21 14L21 13L23 13L23 10L22 10L22 8L23 8L23 9L24 9L24 10L25 10L25 8L23 8L23 6L22 6L22 5L25 5L25 3L24 3L24 1L25 1L25 0L19 0L19 1L21 1L21 2L20 2L20 3L19 3L19 4L20 4L20 5L19 5L19 6L18 6L18 7L17 7L17 6L16 6L16 3L18 3L18 1L17 1L17 0L15 0L15 4L13 4L13 5L14 5L14 7L15 7L15 8L16 8L16 11L15 11L15 9L14 9L14 8L13 8L13 6L12 6L12 5L11 5L11 6L10 6L10 5L9 5L9 4L12 4L12 3L13 3L13 2L14 2L14 0L12 0L12 1L11 1L11 2L9 2L9 1L10 1L10 0ZM22 1L22 2L21 2L21 4L23 4L23 1ZM17 4L17 5L18 5L18 4ZM9 6L9 7L10 7L10 8L8 8L8 10L10 10L10 8L11 8L11 9L12 9L12 10L11 10L11 11L8 11L8 12L7 12L7 13L8 13L8 14L9 14L9 13L12 13L12 12L13 12L13 11L14 11L14 10L13 10L13 8L12 8L12 6L11 6L11 7L10 7L10 6ZM15 6L15 7L16 7L16 8L17 8L17 9L18 9L18 10L21 10L21 11L22 11L22 10L21 10L21 9L20 9L20 6L19 6L19 7L18 7L18 8L17 8L17 7L16 7L16 6ZM21 6L21 7L22 7L22 6ZM24 6L24 7L25 7L25 6ZM18 8L18 9L19 9L19 8ZM6 9L6 10L7 10L7 9ZM28 9L28 10L27 10L27 11L28 11L28 13L29 13L29 14L26 14L26 15L27 15L27 16L29 16L29 14L31 14L31 12L32 12L32 10L31 10L31 11L30 11L30 12L29 12L29 9ZM16 11L16 12L19 12L19 13L20 13L20 11ZM3 12L3 15L5 15L5 14L4 14L4 13L5 13L5 12ZM11 14L11 15L10 15L10 18L11 18L11 19L13 19L13 20L9 20L9 21L8 21L8 20L7 20L7 21L6 21L6 22L7 22L7 21L8 21L8 25L9 25L9 26L10 26L10 27L11 27L11 26L13 26L13 27L14 27L14 28L10 28L10 30L11 30L11 31L12 31L12 30L13 30L13 29L14 29L14 30L15 30L15 31L16 31L16 32L17 32L17 31L16 31L16 29L17 29L17 28L15 28L15 27L17 27L17 25L15 25L15 26L14 26L14 25L12 25L12 24L13 24L13 23L12 23L12 21L13 21L13 20L14 20L14 21L15 21L15 22L14 22L14 24L16 24L16 23L17 23L17 24L18 24L18 25L20 25L20 26L18 26L18 29L19 29L19 27L20 27L20 28L21 28L21 27L23 27L23 28L22 28L22 29L24 29L24 26L21 26L21 23L22 23L22 22L23 22L23 23L24 23L24 24L22 24L22 25L24 25L24 24L27 24L27 23L25 23L25 22L26 22L26 21L27 21L27 20L28 20L28 19L27 19L27 17L26 17L26 20L25 20L25 21L24 21L24 20L23 20L23 19L25 19L25 16L23 16L23 15L22 15L22 16L23 16L23 17L22 17L22 18L23 18L23 19L22 19L22 20L23 20L23 21L20 21L20 18L21 18L21 17L17 17L17 18L19 18L19 19L18 19L18 20L17 20L17 19L16 19L16 18L15 18L15 17L14 17L14 16L13 16L13 17L11 17L11 16L12 16L12 14ZM32 16L32 17L33 17L33 16ZM13 17L13 19L15 19L15 20L16 20L16 19L15 19L15 18L14 18L14 17ZM23 17L23 18L24 18L24 17ZM31 18L31 19L32 19L32 20L33 20L33 18ZM3 20L3 21L4 21L4 20ZM16 21L16 22L17 22L17 23L18 23L18 24L19 24L19 23L21 23L21 22L19 22L19 21ZM29 21L29 22L31 22L31 23L33 23L33 21ZM9 22L9 25L11 25L11 24L12 24L12 23L10 23L10 22ZM6 23L6 24L7 24L7 23ZM25 25L25 28L28 28L28 25ZM31 25L31 27L32 27L32 29L31 29L31 31L33 31L33 27L32 27L32 26L33 26L33 25ZM20 26L20 27L21 27L21 26ZM26 26L26 27L27 27L27 26ZM14 28L14 29L15 29L15 28ZM11 29L11 30L12 30L12 29ZM23 30L23 31L24 31L24 30ZM13 32L13 33L14 33L14 32ZM31 32L31 33L32 33L32 32ZM0 0L0 7L7 7L7 0ZM1 1L1 6L6 6L6 1ZM2 2L2 5L5 5L5 2ZM26 0L26 7L33 7L33 0ZM27 1L27 6L32 6L32 1ZM28 2L28 5L31 5L31 2ZM0 26L0 33L7 33L7 26ZM1 27L1 32L6 32L6 27ZM2 28L2 31L5 31L5 28Z" fill="#000000"/></g></g></svg>
