<?xml version="1.0" encoding="UTF-8"?>
<svg xmlns="http://www.w3.org/2000/svg" version="1.1" width="400" height="400" viewBox="0 0 400 400"><rect x="0" y="0" width="400" height="400" fill="#fefefe"/><g transform="scale(9.756)"><g transform="translate(4,4)"><path fill-rule="evenodd" d="M8 0L8 4L9 4L9 5L8 5L8 7L9 7L9 8L10 8L10 7L11 7L11 5L12 5L12 7L13 7L13 5L14 5L14 7L15 7L15 8L14 8L14 9L13 9L13 8L12 8L12 9L11 9L11 11L10 11L10 13L11 13L11 14L10 14L10 15L9 15L9 11L8 11L8 10L10 10L10 9L8 9L8 10L6 10L6 11L5 11L5 10L4 10L4 9L7 9L7 8L4 8L4 9L3 9L3 10L2 10L2 12L4 12L4 13L3 13L3 14L4 14L4 15L3 15L3 16L0 16L0 18L1 18L1 17L3 17L3 16L4 16L4 17L5 17L5 16L6 16L6 17L7 17L7 18L6 18L6 19L5 19L5 18L2 18L2 19L3 19L3 20L2 20L2 24L0 24L0 25L2 25L2 24L3 24L3 25L5 25L5 24L3 24L3 20L4 20L4 21L5 21L5 23L8 23L8 24L9 24L9 25L8 25L8 26L10 26L10 24L11 24L11 23L12 23L12 22L13 22L13 23L17 23L17 25L16 25L16 24L14 24L14 25L13 25L13 24L12 24L12 25L11 25L11 28L9 28L9 27L8 27L8 29L11 29L11 33L12 33L12 30L14 30L14 29L15 29L15 32L14 32L14 33L15 33L15 32L16 32L16 31L17 31L17 33L18 33L18 32L19 32L19 33L23 33L23 31L24 31L24 33L25 33L25 31L27 31L27 33L28 33L28 31L29 31L29 33L30 33L30 31L32 31L32 30L33 30L33 29L30 29L30 27L31 27L31 28L32 28L32 26L31 26L31 25L32 25L32 24L33 24L33 23L31 23L31 22L32 22L32 21L33 21L33 19L32 19L32 18L31 18L31 17L30 17L30 18L28 18L28 17L29 17L29 16L30 16L30 14L31 14L31 16L32 16L32 17L33 17L33 16L32 16L32 14L31 14L31 13L29 13L29 10L28 10L28 8L27 8L27 10L28 10L28 11L27 11L27 12L24 12L24 13L23 13L23 11L24 11L24 10L25 10L25 11L26 11L26 9L22 9L22 7L23 7L23 6L22 6L22 7L21 7L21 6L20 6L20 5L18 5L18 4L17 4L17 3L19 3L19 2L20 2L20 3L22 3L22 4L21 4L21 5L24 5L24 8L25 8L25 2L23 2L23 1L25 1L25 0L23 0L23 1L22 1L22 0L21 0L21 1L22 1L22 2L20 2L20 1L19 1L19 0L18 0L18 1L17 1L17 2L16 2L16 3L15 3L15 4L14 4L14 3L12 3L12 4L9 4L9 3L11 3L11 2L9 2L9 0ZM10 0L10 1L12 1L12 2L13 2L13 0ZM15 0L15 1L14 1L14 2L15 2L15 1L16 1L16 0ZM22 2L22 3L23 3L23 2ZM16 4L16 5L15 5L15 7L16 7L16 8L15 8L15 9L14 9L14 11L13 11L13 10L12 10L12 11L11 11L11 13L12 13L12 15L11 15L11 16L10 16L10 17L9 17L9 16L7 16L7 15L8 15L8 11L6 11L6 12L7 12L7 13L5 13L5 15L4 15L4 16L5 16L5 15L6 15L6 16L7 16L7 17L8 17L8 18L7 18L7 19L6 19L6 20L7 20L7 21L6 21L6 22L8 22L8 23L11 23L11 20L10 20L10 19L8 19L8 18L10 18L10 17L12 17L12 16L13 16L13 17L14 17L14 19L13 19L13 18L12 18L12 19L13 19L13 21L14 21L14 22L15 22L15 21L16 21L16 20L17 20L17 19L18 19L18 21L17 21L17 23L19 23L19 24L18 24L18 25L17 25L17 26L16 26L16 28L15 28L15 25L14 25L14 26L13 26L13 28L11 28L11 29L14 29L14 28L15 28L15 29L17 29L17 30L19 30L19 32L20 32L20 31L21 31L21 30L22 30L22 31L23 31L23 30L24 30L24 31L25 31L25 30L24 30L24 28L23 28L23 27L24 27L24 26L23 26L23 25L21 25L21 23L20 23L20 21L21 21L21 20L20 20L20 21L19 21L19 19L20 19L20 17L21 17L21 18L22 18L22 17L25 17L25 16L26 16L26 15L27 15L27 14L28 14L28 15L29 15L29 13L24 13L24 15L25 15L25 16L22 16L22 17L21 17L21 16L20 16L20 17L19 17L19 18L18 18L18 17L17 17L17 19L16 19L16 20L15 20L15 18L16 18L16 17L14 17L14 16L17 16L17 14L16 14L16 15L15 15L15 13L14 13L14 12L15 12L15 9L17 9L17 10L16 10L16 11L18 11L18 12L19 12L19 15L18 15L18 16L19 16L19 15L20 15L20 13L21 13L21 14L22 14L22 15L23 15L23 13L21 13L21 11L22 11L22 9L21 9L21 8L20 8L20 6L19 6L19 7L18 7L18 5L17 5L17 4ZM9 5L9 7L10 7L10 5ZM16 6L16 7L17 7L17 9L18 9L18 10L19 10L19 9L20 9L20 11L21 11L21 9L20 9L20 8L18 8L18 7L17 7L17 6ZM0 8L0 10L1 10L1 9L2 9L2 8ZM29 8L29 9L31 9L31 12L32 12L32 13L33 13L33 12L32 12L32 9L33 9L33 8ZM3 10L3 11L4 11L4 10ZM0 11L0 12L1 12L1 11ZM12 11L12 12L13 12L13 11ZM16 12L16 13L17 13L17 12ZM0 13L0 15L2 15L2 14L1 14L1 13ZM13 13L13 14L14 14L14 13ZM6 14L6 15L7 15L7 14ZM25 14L25 15L26 15L26 14ZM27 16L27 17L26 17L26 18L27 18L27 19L26 19L26 20L27 20L27 21L25 21L25 22L26 22L26 23L24 23L24 24L28 24L28 23L29 23L29 22L31 22L31 20L32 20L32 19L30 19L30 21L28 21L28 18L27 18L27 17L28 17L28 16ZM4 19L4 20L5 20L5 19ZM8 20L8 22L10 22L10 20ZM14 20L14 21L15 21L15 20ZM22 20L22 24L23 24L23 20ZM0 21L0 22L1 22L1 21ZM27 21L27 23L28 23L28 21ZM30 23L30 24L29 24L29 26L30 26L30 25L31 25L31 23ZM6 24L6 25L7 25L7 24ZM20 25L20 26L21 26L21 29L20 29L20 27L19 27L19 26L17 26L17 29L18 29L18 27L19 27L19 29L20 29L20 30L21 30L21 29L23 29L23 28L22 28L22 26L21 26L21 25ZM25 25L25 28L28 28L28 25ZM26 26L26 27L27 27L27 26ZM27 29L27 31L28 31L28 29ZM29 29L29 30L30 30L30 29ZM8 31L8 33L9 33L9 32L10 32L10 31ZM32 32L32 33L33 33L33 32ZM0 0L0 7L7 7L7 0ZM1 1L1 6L6 6L6 1ZM2 2L2 5L5 5L5 2ZM26 0L26 7L33 7L33 0ZM27 1L27 6L32 6L32 1ZM28 2L28 5L31 5L31 2ZM0 26L0 33L7 33L7 26ZM1 27L1 32L6 32L6 27ZM2 28L2 31L5 31L5 28Z" fill="#000000"/></g></g></svg>
