<?xml version="1.0" encoding="UTF-8"?>
<svg xmlns="http://www.w3.org/2000/svg" version="1.1" width="400" height="400" viewBox="0 0 400 400"><rect x="0" y="0" width="400" height="400" fill="#fefefe"/><g transform="scale(9.756)"><g transform="translate(4,4)"><path fill-rule="evenodd" d="M9 0L9 1L8 1L8 3L9 3L9 4L8 4L8 8L6 8L6 9L8 9L8 8L10 8L10 10L5 10L5 9L4 9L4 8L3 8L3 9L4 9L4 10L5 10L5 11L3 11L3 10L2 10L2 8L0 8L0 9L1 9L1 10L0 10L0 11L1 11L1 12L2 12L2 13L0 13L0 14L1 14L1 15L0 15L0 16L1 16L1 15L2 15L2 16L4 16L4 17L3 17L3 18L2 18L2 17L0 17L0 18L2 18L2 20L3 20L3 22L0 22L0 23L1 23L1 24L0 24L0 25L1 25L1 24L2 24L2 23L3 23L3 22L4 22L4 23L5 23L5 22L6 22L6 23L7 23L7 24L6 24L6 25L7 25L7 24L8 24L8 27L9 27L9 26L10 26L10 27L12 27L12 28L14 28L14 29L13 29L13 30L14 30L14 32L13 32L13 31L11 31L11 30L12 30L12 29L11 29L11 28L9 28L9 29L8 29L8 30L9 30L9 31L8 31L8 33L9 33L9 31L10 31L10 32L11 32L11 33L12 33L12 32L13 32L13 33L14 33L14 32L16 32L16 33L17 33L17 32L19 32L19 31L17 31L17 29L18 29L18 30L19 30L19 29L20 29L20 32L21 32L21 33L22 33L22 32L23 32L23 33L25 33L25 29L26 29L26 30L27 30L27 29L28 29L28 31L27 31L27 32L26 32L26 33L27 33L27 32L30 32L30 31L29 31L29 29L30 29L30 25L29 25L29 24L28 24L28 23L27 23L27 22L28 22L28 20L30 20L30 19L27 19L27 21L26 21L26 23L25 23L25 24L24 24L24 25L23 25L23 22L22 22L22 23L21 23L21 22L19 22L19 21L23 21L23 20L24 20L24 21L25 21L25 20L26 20L26 17L27 17L27 18L28 18L28 17L29 17L29 16L30 16L30 15L32 15L32 14L33 14L33 9L32 9L32 8L30 8L30 9L29 9L29 8L26 8L26 9L25 9L25 10L26 10L26 12L24 12L24 14L22 14L22 13L23 13L23 11L21 11L21 10L22 10L22 7L23 7L23 6L22 6L22 5L25 5L25 0L19 0L19 1L17 1L17 0L15 0L15 4L13 4L13 5L14 5L14 7L15 7L15 8L16 8L16 11L15 11L15 9L14 9L14 8L13 8L13 6L12 6L12 5L11 5L11 6L10 6L10 5L9 5L9 4L12 4L12 3L13 3L13 2L14 2L14 0L12 0L12 1L11 1L11 2L9 2L9 1L10 1L10 0ZM19 1L19 2L18 2L18 3L16 3L16 6L15 6L15 7L16 7L16 8L17 8L17 9L18 9L18 10L21 10L21 9L20 9L20 8L19 8L19 9L18 9L18 8L17 8L17 7L18 7L18 6L19 6L19 7L20 7L20 6L19 6L19 5L20 5L20 4L19 4L19 5L18 5L18 3L19 3L19 2L21 2L21 4L23 4L23 3L24 3L24 2L23 2L23 1L22 1L22 2L21 2L21 1ZM17 5L17 6L16 6L16 7L17 7L17 6L18 6L18 5ZM9 6L9 7L10 7L10 8L11 8L11 9L12 9L12 10L11 10L11 11L9 11L9 13L8 13L8 11L6 11L6 12L5 12L5 13L3 13L3 14L2 14L2 15L3 15L3 14L4 14L4 16L5 16L5 17L4 17L4 18L5 18L5 19L3 19L3 20L7 20L7 21L6 21L6 22L7 22L7 21L8 21L8 20L9 20L9 21L10 21L10 18L11 18L11 19L13 19L13 20L11 20L11 23L12 23L12 24L10 24L10 25L11 25L11 26L13 26L13 27L14 27L14 28L15 28L15 29L14 29L14 30L15 30L15 31L16 31L16 32L17 32L17 31L16 31L16 29L17 29L17 28L15 28L15 27L17 27L17 25L15 25L15 26L14 26L14 25L12 25L12 24L13 24L13 23L12 23L12 21L13 21L13 20L14 20L14 21L15 21L15 22L14 22L14 24L16 24L16 23L17 23L17 24L18 24L18 25L20 25L20 26L18 26L18 29L19 29L19 27L20 27L20 26L21 26L21 27L22 27L22 29L23 29L23 30L21 30L21 31L23 31L23 32L24 32L24 26L23 26L23 25L22 25L22 26L21 26L21 23L19 23L19 24L18 24L18 23L17 23L17 22L16 22L16 21L19 21L19 20L21 20L21 19L20 19L20 18L21 18L21 17L17 17L17 18L19 18L19 19L18 19L18 20L17 20L17 19L16 19L16 18L15 18L15 17L14 17L14 16L16 16L16 15L17 15L17 14L18 14L18 16L21 16L21 15L20 15L20 14L21 14L21 12L19 12L19 11L16 11L16 12L19 12L19 13L15 13L15 14L14 14L14 13L13 13L13 15L14 15L14 16L13 16L13 17L11 17L11 16L12 16L12 14L11 14L11 15L8 15L8 16L9 16L9 19L6 19L6 18L8 18L8 17L6 17L6 16L7 16L7 15L5 15L5 13L6 13L6 14L10 14L10 13L12 13L12 12L13 12L13 11L14 11L14 10L13 10L13 8L12 8L12 6L11 6L11 7L10 7L10 6ZM21 6L21 7L22 7L22 6ZM24 6L24 8L23 8L23 9L24 9L24 8L25 8L25 6ZM27 9L27 11L29 11L29 9ZM31 10L31 11L30 11L30 12L28 12L28 13L29 13L29 14L31 14L31 12L32 12L32 10ZM6 12L6 13L7 13L7 12ZM19 13L19 14L20 14L20 13ZM25 13L25 14L26 14L26 15L25 15L25 16L23 16L23 17L22 17L22 18L23 18L23 19L25 19L25 16L27 16L27 15L28 15L28 14L26 14L26 13ZM32 16L32 17L33 17L33 16ZM5 17L5 18L6 18L6 17ZM13 17L13 19L15 19L15 20L16 20L16 19L15 19L15 18L14 18L14 17ZM23 17L23 18L24 18L24 17ZM31 18L31 19L32 19L32 20L33 20L33 18ZM0 19L0 20L1 20L1 19ZM4 21L4 22L5 22L5 21ZM29 21L29 22L31 22L31 23L33 23L33 21ZM8 22L8 23L10 23L10 22ZM26 23L26 24L27 24L27 23ZM3 24L3 25L5 25L5 24ZM25 25L25 28L28 28L28 25ZM31 25L31 27L32 27L32 29L31 29L31 31L33 31L33 27L32 27L32 26L33 26L33 25ZM26 26L26 27L27 27L27 26ZM20 28L20 29L21 29L21 28ZM31 32L31 33L32 33L32 32ZM0 0L0 7L7 7L7 0ZM1 1L1 6L6 6L6 1ZM2 2L2 5L5 5L5 2ZM26 0L26 7L33 7L33 0ZM27 1L27 6L32 6L32 1ZM28 2L28 5L31 5L31 2ZM0 26L0 33L7 33L7 26ZM1 27L1 32L6 32L6 27ZM2 28L2 31L5 31L5 28Z" fill="#000000"/></g></g></svg>
