<?xml version="1.0" encoding="UTF-8"?>
<svg xmlns="http://www.w3.org/2000/svg" version="1.1" width="400" height="400" viewBox="0 0 400 400"><rect x="0" y="0" width="400" height="400" fill="#fefefe"/><g transform="scale(9.756)"><g transform="translate(4,4)"><path fill-rule="evenodd" d="M8 0L8 4L9 4L9 5L8 5L8 7L9 7L9 8L10 8L10 7L11 7L11 5L12 5L12 7L13 7L13 5L14 5L14 7L15 7L15 8L14 8L14 9L13 9L13 8L12 8L12 9L11 9L11 11L10 11L10 13L9 13L9 11L8 11L8 12L6 12L6 13L8 13L8 14L4 14L4 13L5 13L5 11L7 11L7 10L10 10L10 9L7 9L7 8L4 8L4 10L3 10L3 9L2 9L2 8L0 8L0 10L3 10L3 12L2 12L2 11L0 11L0 13L1 13L1 14L0 14L0 16L1 16L1 17L0 17L0 20L1 20L1 21L0 21L0 22L1 22L1 21L4 21L4 20L5 20L5 21L7 21L7 22L4 22L4 23L7 23L7 24L6 24L6 25L8 25L8 26L9 26L9 25L8 25L8 24L9 24L9 23L10 23L10 22L11 22L11 23L12 23L12 22L13 22L13 23L17 23L17 25L16 25L16 24L14 24L14 25L13 25L13 24L12 24L12 25L11 25L11 24L10 24L10 27L8 27L8 29L9 29L9 31L8 31L8 33L9 33L9 31L10 31L10 32L11 32L11 31L12 31L12 32L13 32L13 31L12 31L12 30L14 30L14 29L15 29L15 32L14 32L14 33L15 33L15 32L16 32L16 31L17 31L17 33L18 33L18 32L19 32L19 33L25 33L25 31L27 31L27 32L28 32L28 33L30 33L30 31L32 31L32 30L33 30L33 29L30 29L30 27L31 27L31 28L32 28L32 26L31 26L31 25L32 25L32 24L33 24L33 23L31 23L31 22L32 22L32 21L33 21L33 19L32 19L32 18L31 18L31 17L30 17L30 18L29 18L29 19L27 19L27 18L26 18L26 17L29 17L29 16L30 16L30 14L31 14L31 16L32 16L32 17L33 17L33 16L32 16L32 14L31 14L31 13L29 13L29 10L28 10L28 11L27 11L27 12L26 12L26 13L23 13L23 12L24 12L24 9L25 9L25 5L24 5L24 3L25 3L25 2L23 2L23 1L25 1L25 0L23 0L23 1L22 1L22 0L21 0L21 1L19 1L19 0L18 0L18 1L19 1L19 2L21 2L21 3L20 3L20 5L17 5L17 6L16 6L16 7L15 7L15 5L16 5L16 4L17 4L17 3L18 3L18 2L16 2L16 3L15 3L15 4L14 4L14 3L12 3L12 4L9 4L9 3L11 3L11 2L9 2L9 0ZM10 0L10 1L12 1L12 2L13 2L13 0ZM15 0L15 1L14 1L14 2L15 2L15 1L16 1L16 0ZM21 1L21 2L22 2L22 3L21 3L21 7L20 7L20 6L19 6L19 7L18 7L18 6L17 6L17 7L16 7L16 8L15 8L15 9L14 9L14 11L13 11L13 10L12 10L12 11L11 11L11 13L10 13L10 14L8 14L8 15L4 15L4 14L3 14L3 15L2 15L2 14L1 14L1 15L2 15L2 16L3 16L3 18L2 18L2 17L1 17L1 19L2 19L2 20L3 20L3 19L4 19L4 18L5 18L5 20L7 20L7 21L10 21L10 20L11 20L11 19L10 19L10 18L11 18L11 17L12 17L12 16L13 16L13 17L14 17L14 19L13 19L13 18L12 18L12 19L13 19L13 21L14 21L14 22L15 22L15 21L16 21L16 20L17 20L17 19L18 19L18 21L17 21L17 23L20 23L20 24L21 24L21 23L20 23L20 21L21 21L21 19L20 19L20 17L21 17L21 18L22 18L22 17L25 17L25 16L22 16L22 17L21 17L21 15L23 15L23 13L21 13L21 12L20 12L20 11L21 11L21 10L22 10L22 12L23 12L23 9L24 9L24 5L23 5L23 2L22 2L22 1ZM9 5L9 7L10 7L10 5ZM22 6L22 7L21 7L21 8L20 8L20 7L19 7L19 8L18 8L18 7L17 7L17 9L15 9L15 12L14 12L14 13L13 13L13 14L14 14L14 13L15 13L15 15L16 15L16 14L17 14L17 16L14 16L14 17L16 17L16 18L15 18L15 20L14 20L14 21L15 21L15 20L16 20L16 19L17 19L17 17L18 17L18 18L19 18L19 16L18 16L18 15L19 15L19 13L20 13L20 15L21 15L21 13L20 13L20 12L18 12L18 11L16 11L16 10L17 10L17 9L18 9L18 10L19 10L19 9L23 9L23 8L22 8L22 7L23 7L23 6ZM27 8L27 9L28 9L28 8ZM29 8L29 9L31 9L31 12L32 12L32 13L33 13L33 12L32 12L32 9L33 9L33 8ZM6 9L6 10L7 10L7 9ZM4 10L4 11L5 11L5 10ZM25 10L25 11L26 11L26 10ZM12 11L12 12L13 12L13 11ZM1 12L1 13L2 13L2 12ZM3 12L3 13L4 13L4 12ZM16 12L16 13L17 13L17 12ZM11 13L11 15L12 15L12 13ZM26 13L26 16L28 16L28 15L29 15L29 13ZM24 14L24 15L25 15L25 14ZM27 14L27 15L28 15L28 14ZM5 16L5 17L7 17L7 16ZM10 16L10 17L8 17L8 18L10 18L10 17L11 17L11 16ZM6 18L6 19L7 19L7 18ZM8 19L8 20L10 20L10 19ZM19 19L19 21L20 21L20 19ZM22 19L22 24L23 24L23 19ZM26 19L26 20L25 20L25 21L26 21L26 22L25 22L25 23L24 23L24 24L25 24L25 23L26 23L26 24L27 24L27 23L29 23L29 22L31 22L31 20L32 20L32 19L30 19L30 21L28 21L28 20L27 20L27 19ZM26 20L26 21L27 21L27 22L28 22L28 21L27 21L27 20ZM30 23L30 24L29 24L29 26L30 26L30 25L31 25L31 23ZM0 24L0 25L5 25L5 24ZM18 24L18 25L17 25L17 26L16 26L16 28L15 28L15 25L14 25L14 26L12 26L12 27L11 27L11 28L10 28L10 30L11 30L11 29L14 29L14 28L15 28L15 29L17 29L17 30L19 30L19 32L21 32L21 31L25 31L25 30L22 30L22 29L24 29L24 28L23 28L23 27L24 27L24 26L23 26L23 25L19 25L19 24ZM25 25L25 28L28 28L28 25ZM17 26L17 29L18 29L18 27L19 27L19 29L22 29L22 26L21 26L21 27L19 27L19 26ZM26 26L26 27L27 27L27 26ZM27 29L27 31L28 31L28 29ZM29 29L29 30L30 30L30 29ZM20 30L20 31L21 31L21 30ZM32 32L32 33L33 33L33 32ZM0 0L0 7L7 7L7 0ZM1 1L1 6L6 6L6 1ZM2 2L2 5L5 5L5 2ZM26 0L26 7L33 7L33 0ZM27 1L27 6L32 6L32 1ZM28 2L28 5L31 5L31 2ZM0 26L0 33L7 33L7 26ZM1 27L1 32L6 32L6 27ZM2 28L2 31L5 31L5 28Z" fill="#000000"/></g></g></svg>
