<?xml version="1.0" encoding="UTF-8"?>
<svg xmlns="http://www.w3.org/2000/svg" version="1.1" width="400" height="400" viewBox="0 0 400 400"><rect x="0" y="0" width="400" height="400" fill="#fefefe"/><g transform="scale(9.756)"><g transform="translate(4,4)"><path fill-rule="evenodd" d="M8 0L8 4L9 4L9 5L8 5L8 7L9 7L9 8L10 8L10 7L11 7L11 5L12 5L12 7L13 7L13 5L14 5L14 7L15 7L15 8L14 8L14 9L13 9L13 8L12 8L12 9L11 9L11 11L10 11L10 13L8 13L8 12L4 12L4 10L2 10L2 12L1 12L1 11L0 11L0 17L1 17L1 18L4 18L4 17L5 17L5 19L3 19L3 21L2 21L2 19L1 19L1 21L0 21L0 22L1 22L1 21L2 21L2 23L7 23L7 24L6 24L6 25L7 25L7 24L9 24L9 25L8 25L8 26L10 26L10 27L11 27L11 28L9 28L9 27L8 27L8 29L11 29L11 31L10 31L10 30L9 30L9 31L8 31L8 33L10 33L10 32L11 32L11 31L13 31L13 30L14 30L14 29L15 29L15 31L14 31L14 33L15 33L15 32L16 32L16 31L17 31L17 33L18 33L18 32L19 32L19 33L23 33L23 32L22 32L22 31L24 31L24 33L25 33L25 31L27 31L27 32L26 32L26 33L27 33L27 32L28 32L28 33L30 33L30 31L32 31L32 30L33 30L33 29L30 29L30 27L31 27L31 28L32 28L32 26L31 26L31 25L32 25L32 24L33 24L33 23L31 23L31 22L32 22L32 21L33 21L33 19L32 19L32 18L31 18L31 17L30 17L30 18L28 18L28 21L27 21L27 20L26 20L26 19L27 19L27 18L26 18L26 17L29 17L29 16L30 16L30 14L31 14L31 16L32 16L32 17L33 17L33 16L32 16L32 14L31 14L31 13L29 13L29 10L28 10L28 8L27 8L27 10L28 10L28 12L26 12L26 9L25 9L25 8L24 8L24 7L25 7L25 6L24 6L24 7L23 7L23 6L22 6L22 7L21 7L21 6L20 6L20 5L21 5L21 3L22 3L22 2L23 2L23 5L24 5L24 3L25 3L25 2L23 2L23 1L25 1L25 0L23 0L23 1L22 1L22 0L21 0L21 1L22 1L22 2L20 2L20 1L19 1L19 0L18 0L18 1L17 1L17 2L16 2L16 3L15 3L15 4L14 4L14 3L12 3L12 4L9 4L9 3L11 3L11 2L9 2L9 0ZM10 0L10 1L12 1L12 2L13 2L13 0ZM15 0L15 1L14 1L14 2L15 2L15 1L16 1L16 0ZM18 1L18 3L17 3L17 4L16 4L16 5L15 5L15 7L16 7L16 8L15 8L15 9L14 9L14 11L13 11L13 10L12 10L12 11L11 11L11 13L10 13L10 14L11 14L11 13L12 13L12 15L10 15L10 18L11 18L11 17L12 17L12 16L13 16L13 17L14 17L14 19L13 19L13 18L12 18L12 19L13 19L13 21L14 21L14 22L12 22L12 23L11 23L11 22L9 22L9 21L8 21L8 23L10 23L10 24L11 24L11 25L10 25L10 26L11 26L11 25L12 25L12 24L13 24L13 25L14 25L14 26L13 26L13 27L12 27L12 29L14 29L14 28L15 28L15 29L17 29L17 30L19 30L19 31L20 31L20 32L21 32L21 31L22 31L22 30L24 30L24 31L25 31L25 30L24 30L24 24L23 24L23 20L22 20L22 25L23 25L23 29L19 29L19 27L20 27L20 28L21 28L21 25L19 25L19 24L18 24L18 25L17 25L17 23L21 23L21 21L19 21L19 19L20 19L20 20L21 20L21 18L22 18L22 17L25 17L25 16L26 16L26 15L27 15L27 16L28 16L28 15L29 15L29 13L26 13L26 12L25 12L25 9L24 9L24 8L23 8L23 7L22 7L22 8L23 8L23 9L21 9L21 7L20 7L20 6L19 6L19 10L18 10L18 9L17 9L17 7L18 7L18 5L20 5L20 3L19 3L19 1ZM9 5L9 7L10 7L10 5ZM16 6L16 7L17 7L17 6ZM0 8L0 10L1 10L1 9L2 9L2 8ZM4 8L4 9L5 9L5 10L6 10L6 11L7 11L7 10L6 10L6 9L7 9L7 8ZM29 8L29 9L31 9L31 12L32 12L32 13L33 13L33 12L32 12L32 9L33 9L33 8ZM8 9L8 11L9 11L9 10L10 10L10 9ZM15 9L15 12L14 12L14 13L13 13L13 14L14 14L14 13L15 13L15 15L16 15L16 14L17 14L17 16L14 16L14 17L16 17L16 18L15 18L15 20L14 20L14 21L15 21L15 22L14 22L14 25L15 25L15 28L16 28L16 26L17 26L17 29L18 29L18 27L19 27L19 26L17 26L17 25L16 25L16 24L15 24L15 23L17 23L17 21L18 21L18 19L17 19L17 17L18 17L18 18L19 18L19 17L20 17L20 18L21 18L21 17L22 17L22 15L23 15L23 16L25 16L25 15L26 15L26 13L23 13L23 12L24 12L24 9L23 9L23 10L22 10L22 11L20 11L20 12L18 12L18 11L16 11L16 10L17 10L17 9ZM20 9L20 10L21 10L21 9ZM12 11L12 12L13 12L13 11ZM22 11L22 12L23 12L23 11ZM3 12L3 14L1 14L1 15L2 15L2 17L4 17L4 16L5 16L5 17L6 17L6 18L7 18L7 19L6 19L6 20L4 20L4 21L3 21L3 22L5 22L5 21L6 21L6 22L7 22L7 21L6 21L6 20L7 20L7 19L8 19L8 18L9 18L9 17L8 17L8 16L9 16L9 15L8 15L8 14L7 14L7 13L6 13L6 14L7 14L7 15L5 15L5 14L4 14L4 12ZM16 12L16 13L17 13L17 12ZM19 13L19 15L18 15L18 16L20 16L20 17L21 17L21 15L20 15L20 14L23 14L23 13ZM24 14L24 15L25 15L25 14ZM27 14L27 15L28 15L28 14ZM3 15L3 16L4 16L4 15ZM6 16L6 17L7 17L7 16ZM10 19L10 21L11 21L11 19ZM16 19L16 20L15 20L15 21L16 21L16 20L17 20L17 19ZM30 19L30 21L28 21L28 22L31 22L31 20L32 20L32 19ZM25 21L25 23L26 23L26 24L28 24L28 23L26 23L26 22L27 22L27 21ZM30 23L30 24L29 24L29 26L30 26L30 25L31 25L31 23ZM0 24L0 25L5 25L5 24ZM25 25L25 28L28 28L28 25ZM26 26L26 27L27 27L27 26ZM27 29L27 31L28 31L28 29ZM29 29L29 30L30 30L30 29ZM20 30L20 31L21 31L21 30ZM32 32L32 33L33 33L33 32ZM0 0L0 7L7 7L7 0ZM1 1L1 6L6 6L6 1ZM2 2L2 5L5 5L5 2ZM26 0L26 7L33 7L33 0ZM27 1L27 6L32 6L32 1ZM28 2L28 5L31 5L31 2ZM0 26L0 33L7 33L7 26ZM1 27L1 32L6 32L6 27ZM2 28L2 31L5 31L5 28Z" fill="#000000"/></g></g></svg>
