<?xml version="1.0" encoding="UTF-8"?>
<svg xmlns="http://www.w3.org/2000/svg" version="1.1" width="400" height="400" viewBox="0 0 400 400"><rect x="0" y="0" width="400" height="400" fill="#fefefe"/><g transform="scale(9.756)"><g transform="translate(4,4)"><path fill-rule="evenodd" d="M11 0L11 1L8 1L8 3L9 3L9 2L10 2L10 4L8 4L8 8L6 8L6 9L5 9L5 10L4 10L4 8L3 8L3 10L2 10L2 11L1 11L1 12L0 12L0 14L2 14L2 13L1 13L1 12L4 12L4 13L5 13L5 12L6 12L6 13L7 13L7 14L6 14L6 15L7 15L7 16L6 16L6 17L5 17L5 18L4 18L4 17L3 17L3 18L2 18L2 19L1 19L1 17L2 17L2 16L1 16L1 15L0 15L0 19L1 19L1 20L0 20L0 21L1 21L1 22L0 22L0 23L1 23L1 24L0 24L0 25L1 25L1 24L2 24L2 25L5 25L5 24L3 24L3 23L4 23L4 22L5 22L5 23L7 23L7 24L6 24L6 25L7 25L7 24L8 24L8 27L10 27L10 26L11 26L11 27L12 27L12 28L14 28L14 29L13 29L13 30L14 30L14 31L15 31L15 32L16 32L16 33L17 33L17 32L19 32L19 31L17 31L17 29L18 29L18 30L19 30L19 29L21 29L21 30L20 30L20 33L23 33L23 32L24 32L24 33L26 33L26 32L25 32L25 31L26 31L26 30L27 30L27 29L28 29L28 32L30 32L30 31L29 31L29 29L30 29L30 25L29 25L29 24L26 24L26 23L27 23L27 22L28 22L28 19L29 19L29 20L30 20L30 19L29 19L29 18L28 18L28 19L27 19L27 21L26 21L26 17L27 17L27 15L29 15L29 16L28 16L28 17L29 17L29 16L30 16L30 15L32 15L32 14L33 14L33 9L32 9L32 8L30 8L30 9L29 9L29 8L26 8L26 9L25 9L25 8L23 8L23 9L24 9L24 14L23 14L23 13L22 13L22 12L23 12L23 11L22 11L22 7L23 7L23 6L22 6L22 5L19 5L19 4L20 4L20 2L22 2L22 1L23 1L23 2L24 2L24 3L22 3L22 4L23 4L23 5L25 5L25 2L24 2L24 1L25 1L25 0L19 0L19 1L18 1L18 2L17 2L17 0L15 0L15 4L13 4L13 2L14 2L14 0ZM12 1L12 2L11 2L11 4L12 4L12 2L13 2L13 1ZM19 1L19 2L18 2L18 3L16 3L16 6L15 6L15 7L14 7L14 5L11 5L11 7L10 7L10 6L9 6L9 7L10 7L10 8L8 8L8 9L6 9L6 10L8 10L8 11L6 11L6 12L7 12L7 13L8 13L8 14L7 14L7 15L8 15L8 16L7 16L7 17L6 17L6 18L5 18L5 20L4 20L4 18L3 18L3 21L2 21L2 20L1 20L1 21L2 21L2 22L4 22L4 21L5 21L5 22L7 22L7 23L8 23L8 22L7 22L7 21L9 21L9 19L10 19L10 20L11 20L11 23L10 23L10 22L9 22L9 25L11 25L11 26L12 26L12 27L14 27L14 28L15 28L15 29L14 29L14 30L15 30L15 31L16 31L16 32L17 32L17 31L16 31L16 29L17 29L17 28L15 28L15 27L17 27L17 25L15 25L15 26L14 26L14 25L12 25L12 24L13 24L13 23L12 23L12 22L13 22L13 21L12 21L12 20L11 20L11 19L12 19L12 18L13 18L13 17L14 17L14 18L15 18L15 19L13 19L13 20L14 20L14 21L15 21L15 22L14 22L14 24L16 24L16 23L17 23L17 24L18 24L18 25L20 25L20 26L18 26L18 29L19 29L19 27L20 27L20 26L21 26L21 27L22 27L22 28L23 28L23 29L22 29L22 30L21 30L21 31L22 31L22 32L23 32L23 31L24 31L24 26L23 26L23 25L24 25L24 22L25 22L25 23L26 23L26 22L25 22L25 21L24 21L24 20L23 20L23 19L25 19L25 16L22 16L22 17L24 17L24 18L21 18L21 17L17 17L17 18L19 18L19 19L18 19L18 20L17 20L17 19L16 19L16 18L15 18L15 17L14 17L14 16L16 16L16 15L17 15L17 14L18 14L18 16L21 16L21 15L22 15L22 14L21 14L21 12L20 12L20 11L21 11L21 10L20 10L20 9L21 9L21 7L22 7L22 6L21 6L21 7L20 7L20 6L19 6L19 7L18 7L18 6L17 6L17 5L18 5L18 3L19 3L19 2L20 2L20 1ZM12 6L12 7L13 7L13 6ZM16 6L16 7L15 7L15 8L16 8L16 11L15 11L15 9L14 9L14 8L10 8L10 9L13 9L13 10L12 10L12 11L11 11L11 10L9 10L9 9L8 9L8 10L9 10L9 11L11 11L11 12L13 12L13 13L12 13L12 14L11 14L11 13L9 13L9 12L8 12L8 13L9 13L9 14L8 14L8 15L10 15L10 16L11 16L11 15L13 15L13 16L12 16L12 17L11 17L11 18L12 18L12 17L13 17L13 16L14 16L14 15L13 15L13 13L14 13L14 14L15 14L15 13L19 13L19 14L20 14L20 15L21 15L21 14L20 14L20 13L19 13L19 12L16 12L16 11L20 11L20 10L18 10L18 9L19 9L19 8L20 8L20 7L19 7L19 8L18 8L18 7L17 7L17 6ZM24 6L24 7L25 7L25 6ZM16 7L16 8L17 8L17 9L18 9L18 8L17 8L17 7ZM0 8L0 9L2 9L2 8ZM27 9L27 14L26 14L26 15L27 15L27 14L28 14L28 13L29 13L29 14L31 14L31 12L32 12L32 10L31 10L31 11L30 11L30 12L29 12L29 11L28 11L28 10L29 10L29 9ZM13 10L13 11L14 11L14 10ZM4 11L4 12L5 12L5 11ZM25 11L25 13L26 13L26 11ZM4 14L4 15L5 15L5 14ZM10 14L10 15L11 15L11 14ZM32 16L32 17L33 17L33 16ZM7 17L7 18L6 18L6 19L9 19L9 18L10 18L10 17L9 17L9 18L8 18L8 17ZM20 18L20 19L19 19L19 20L20 20L20 19L21 19L21 21L20 21L20 22L19 22L19 21L16 21L16 22L17 22L17 23L18 23L18 24L21 24L21 26L22 26L22 25L23 25L23 22L22 22L22 23L20 23L20 22L21 22L21 21L23 21L23 20L22 20L22 19L21 19L21 18ZM31 18L31 19L32 19L32 20L33 20L33 18ZM15 19L15 20L16 20L16 19ZM5 20L5 21L7 21L7 20ZM29 21L29 22L31 22L31 23L33 23L33 21ZM11 23L11 24L12 24L12 23ZM25 25L25 28L28 28L28 25ZM31 25L31 27L32 27L32 26L33 26L33 25ZM26 26L26 27L27 27L27 26ZM10 28L10 32L9 32L9 31L8 31L8 33L12 33L12 31L11 31L11 30L12 30L12 29L11 29L11 28ZM8 29L8 30L9 30L9 29ZM31 29L31 31L33 31L33 29ZM22 30L22 31L23 31L23 30ZM13 32L13 33L14 33L14 32ZM31 32L31 33L32 33L32 32ZM0 0L0 7L7 7L7 0ZM1 1L1 6L6 6L6 1ZM2 2L2 5L5 5L5 2ZM26 0L26 7L33 7L33 0ZM27 1L27 6L32 6L32 1ZM28 2L28 5L31 5L31 2ZM0 26L0 33L7 33L7 26ZM1 27L1 32L6 32L6 27ZM2 28L2 31L5 31L5 28Z" fill="#000000"/></g></g></svg>
