<?xml version="1.0" encoding="UTF-8"?>
<svg xmlns="http://www.w3.org/2000/svg" version="1.1" width="400" height="400" viewBox="0 0 400 400"><rect x="0" y="0" width="400" height="400" fill="#fefefe"/><g transform="scale(9.756)"><g transform="translate(4,4)"><path fill-rule="evenodd" d="M11 0L11 1L9 1L9 2L11 2L11 1L13 1L13 2L12 2L12 4L15 4L15 3L13 3L13 2L14 2L14 1L13 1L13 0ZM16 0L16 1L17 1L17 2L19 2L19 3L16 3L16 4L19 4L19 5L21 5L21 4L22 4L22 5L24 5L24 7L25 7L25 4L23 4L23 3L24 3L24 2L23 2L23 0L22 0L22 2L19 2L19 1L18 1L18 0ZM20 0L20 1L21 1L21 0ZM24 0L24 1L25 1L25 0ZM8 3L8 5L10 5L10 4L9 4L9 3ZM19 3L19 4L20 4L20 3ZM11 5L11 6L10 6L10 8L9 8L9 9L8 9L8 8L5 8L5 9L3 9L3 10L0 10L0 11L3 11L3 10L5 10L5 11L4 11L4 12L2 12L2 13L4 13L4 12L5 12L5 11L7 11L7 10L5 10L5 9L8 9L8 10L10 10L10 11L9 11L9 13L10 13L10 11L11 11L11 10L10 10L10 8L11 8L11 9L12 9L12 10L13 10L13 11L12 11L12 12L11 12L11 13L13 13L13 11L14 11L14 10L13 10L13 9L14 9L14 8L13 8L13 9L12 9L12 7L13 7L13 6L14 6L14 7L15 7L15 6L14 6L14 5ZM17 5L17 6L16 6L16 8L15 8L15 11L18 11L18 13L17 13L17 12L16 12L16 13L15 13L15 12L14 12L14 14L15 14L15 15L14 15L14 16L12 16L12 15L13 15L13 14L8 14L8 12L6 12L6 13L5 13L5 14L6 14L6 15L7 15L7 16L5 16L5 15L3 15L3 14L2 14L2 18L1 18L1 19L0 19L0 20L1 20L1 19L2 19L2 18L3 18L3 19L4 19L4 17L5 17L5 18L6 18L6 19L5 19L5 20L6 20L6 21L5 21L5 22L4 22L4 20L2 20L2 22L4 22L4 23L2 23L2 24L1 24L1 21L0 21L0 25L2 25L2 24L3 24L3 25L4 25L4 23L5 23L5 24L6 24L6 25L7 25L7 24L6 24L6 23L7 23L7 22L8 22L8 21L9 21L9 23L10 23L10 22L12 22L12 23L11 23L11 24L10 24L10 25L9 25L9 24L8 24L8 28L9 28L9 29L10 29L10 30L9 30L9 31L8 31L8 33L9 33L9 32L11 32L11 31L14 31L14 32L13 32L13 33L14 33L14 32L15 32L15 33L16 33L16 32L17 32L17 33L18 33L18 32L17 32L17 31L18 31L18 30L17 30L17 29L18 29L18 28L20 28L20 29L19 29L19 32L20 32L20 33L21 33L21 32L20 32L20 31L22 31L22 30L20 30L20 29L21 29L21 26L20 26L20 24L21 24L21 23L22 23L22 24L23 24L23 25L24 25L24 26L23 26L23 28L22 28L22 29L23 29L23 31L25 31L25 29L27 29L27 33L30 33L30 32L31 32L31 33L32 33L32 32L31 32L31 31L30 31L30 30L31 30L31 29L32 29L32 26L33 26L33 25L32 25L32 24L33 24L33 23L30 23L30 24L28 24L28 22L29 22L29 21L30 21L30 20L31 20L31 19L30 19L30 18L32 18L32 20L33 20L33 17L32 17L32 16L33 16L33 15L32 15L32 14L33 14L33 12L32 12L32 10L29 10L29 9L30 9L30 8L28 8L28 10L29 10L29 14L30 14L30 16L31 16L31 17L30 17L30 18L28 18L28 17L29 17L29 15L28 15L28 14L27 14L27 12L25 12L25 11L26 11L26 9L25 9L25 8L24 8L24 9L23 9L23 10L24 10L24 12L23 12L23 11L22 11L22 9L21 9L21 10L20 10L20 9L19 9L19 8L20 8L20 7L21 7L21 6L20 6L20 7L19 7L19 6L18 6L18 5ZM8 6L8 7L9 7L9 6ZM11 6L11 7L12 7L12 6ZM17 6L17 8L16 8L16 10L18 10L18 9L17 9L17 8L19 8L19 7L18 7L18 6ZM22 6L22 8L23 8L23 6ZM0 8L0 9L2 9L2 8ZM24 9L24 10L25 10L25 9ZM19 10L19 11L20 11L20 14L17 14L17 15L16 15L16 16L14 16L14 17L13 17L13 18L12 18L12 17L11 17L11 16L7 16L7 17L6 17L6 18L8 18L8 19L6 19L6 20L9 20L9 21L11 21L11 20L12 20L12 22L13 22L13 28L12 28L12 26L11 26L11 27L10 27L10 26L9 26L9 27L10 27L10 28L12 28L12 29L13 29L13 30L14 30L14 29L15 29L15 28L16 28L16 29L17 29L17 28L18 28L18 27L20 27L20 26L19 26L19 23L21 23L21 21L23 21L23 20L25 20L25 21L26 21L26 23L27 23L27 19L28 19L28 20L30 20L30 19L28 19L28 18L26 18L26 17L27 17L27 14L26 14L26 15L24 15L24 14L22 14L22 15L21 15L21 13L22 13L22 11L20 11L20 10ZM0 12L0 14L1 14L1 12ZM24 12L24 13L25 13L25 12ZM30 12L30 13L32 13L32 12ZM6 13L6 14L7 14L7 15L8 15L8 14L7 14L7 13ZM0 15L0 17L1 17L1 15ZM18 15L18 16L16 16L16 18L15 18L15 17L14 17L14 19L16 19L16 20L15 20L15 22L14 22L14 26L15 26L15 27L14 27L14 28L13 28L13 29L14 29L14 28L15 28L15 27L17 27L17 23L19 23L19 22L20 22L20 21L19 21L19 22L17 22L17 23L16 23L16 21L18 21L18 20L20 20L20 18L21 18L21 19L22 19L22 20L23 20L23 19L24 19L24 18L25 18L25 17L23 17L23 15L22 15L22 17L23 17L23 19L22 19L22 18L21 18L21 17L19 17L19 15ZM3 16L3 17L4 17L4 16ZM17 17L17 20L18 20L18 17ZM9 18L9 19L10 19L10 20L11 20L11 19L12 19L12 18ZM25 19L25 20L26 20L26 19ZM13 20L13 21L14 21L14 20ZM6 21L6 22L5 22L5 23L6 23L6 22L7 22L7 21ZM23 22L23 24L24 24L24 23L25 23L25 22ZM15 24L15 25L16 25L16 24ZM30 24L30 25L29 25L29 28L30 28L30 29L29 29L29 30L30 30L30 29L31 29L31 28L30 28L30 27L31 27L31 26L30 26L30 25L31 25L31 24ZM25 25L25 28L28 28L28 25ZM26 26L26 27L27 27L27 26ZM23 28L23 29L24 29L24 28ZM10 30L10 31L11 31L11 30ZM32 30L32 31L33 31L33 30ZM15 31L15 32L16 32L16 31ZM28 31L28 32L30 32L30 31ZM23 32L23 33L25 33L25 32ZM0 0L0 7L7 7L7 0ZM1 1L1 6L6 6L6 1ZM2 2L2 5L5 5L5 2ZM26 0L26 7L33 7L33 0ZM27 1L27 6L32 6L32 1ZM28 2L28 5L31 5L31 2ZM0 26L0 33L7 33L7 26ZM1 27L1 32L6 32L6 27ZM2 28L2 31L5 31L5 28Z" fill="#000000"/></g></g></svg>
