<?xml version="1.0" encoding="UTF-8"?>
<svg xmlns="http://www.w3.org/2000/svg" version="1.1" width="400" height="400" viewBox="0 0 400 400"><rect x="0" y="0" width="400" height="400" fill="#fefefe"/><g transform="scale(9.756)"><g transform="translate(4,4)"><path fill-rule="evenodd" d="M11 0L11 1L8 1L8 3L9 3L9 2L10 2L10 4L8 4L8 8L6 8L6 9L5 9L5 10L4 10L4 8L3 8L3 9L2 9L2 8L0 8L0 9L2 9L2 10L0 10L0 11L3 11L3 12L4 12L4 15L1 15L1 12L0 12L0 15L1 15L1 16L0 16L0 19L2 19L2 18L3 18L3 16L4 16L4 17L5 17L5 18L4 18L4 20L1 20L1 22L0 22L0 23L1 23L1 24L0 24L0 25L1 25L1 24L2 24L2 25L3 25L3 24L2 24L2 22L3 22L3 23L5 23L5 24L4 24L4 25L7 25L7 24L8 24L8 27L9 27L9 29L8 29L8 30L9 30L9 31L8 31L8 33L10 33L10 30L12 30L12 29L10 29L10 27L11 27L11 28L14 28L14 29L13 29L13 30L14 30L14 32L13 32L13 33L14 33L14 32L16 32L16 33L17 33L17 32L19 32L19 31L17 31L17 29L18 29L18 30L19 30L19 29L21 29L21 30L22 30L22 29L23 29L23 28L24 28L24 29L25 29L25 31L24 31L24 32L23 32L23 31L21 31L21 33L22 33L22 32L23 32L23 33L26 33L26 30L27 30L27 29L28 29L28 32L30 32L30 31L29 31L29 29L30 29L30 25L29 25L29 24L24 24L24 23L23 23L23 22L22 22L22 23L20 23L20 22L19 22L19 21L23 21L23 20L24 20L24 21L25 21L25 23L29 23L29 22L31 22L31 23L33 23L33 21L29 21L29 22L28 22L28 20L30 20L30 19L29 19L29 18L27 18L27 21L26 21L26 17L27 17L27 16L28 16L28 17L29 17L29 16L30 16L30 15L32 15L32 14L33 14L33 9L32 9L32 8L30 8L30 9L29 9L29 8L26 8L26 11L25 11L25 6L24 6L24 8L23 8L23 6L22 6L22 7L21 7L21 3L19 3L19 2L17 2L17 0L15 0L15 4L13 4L13 2L14 2L14 0ZM18 0L18 1L20 1L20 0ZM21 0L21 2L22 2L22 1L23 1L23 3L22 3L22 4L23 4L23 5L25 5L25 0ZM12 1L12 2L11 2L11 4L12 4L12 2L13 2L13 1ZM16 3L16 6L15 6L15 7L14 7L14 5L11 5L11 7L10 7L10 6L9 6L9 7L10 7L10 8L8 8L8 9L9 9L9 10L7 10L7 9L6 9L6 10L7 10L7 11L6 11L6 12L7 12L7 11L9 11L9 12L8 12L8 13L5 13L5 14L7 14L7 15L6 15L6 16L7 16L7 17L6 17L6 18L5 18L5 21L3 21L3 22L5 22L5 21L6 21L6 22L8 22L8 24L9 24L9 23L12 23L12 24L11 24L11 25L10 25L10 26L13 26L13 27L14 27L14 28L15 28L15 29L14 29L14 30L15 30L15 31L16 31L16 32L17 32L17 31L16 31L16 29L17 29L17 28L15 28L15 27L17 27L17 25L15 25L15 26L14 26L14 25L12 25L12 24L13 24L13 23L15 23L15 24L16 24L16 23L17 23L17 24L18 24L18 25L20 25L20 24L18 24L18 23L17 23L17 22L16 22L16 21L19 21L19 20L21 20L21 19L22 19L22 20L23 20L23 19L25 19L25 16L27 16L27 14L25 14L25 13L26 13L26 12L27 12L27 11L26 11L26 12L25 12L25 11L24 11L24 9L23 9L23 8L22 8L22 10L21 10L21 9L20 9L20 8L21 8L21 7L20 7L20 6L19 6L19 7L18 7L18 5L20 5L20 4L19 4L19 3ZM23 3L23 4L24 4L24 3ZM12 6L12 7L13 7L13 6ZM16 6L16 7L15 7L15 8L16 8L16 11L15 11L15 9L14 9L14 8L10 8L10 9L13 9L13 10L12 10L12 11L11 11L11 10L9 10L9 11L11 11L11 12L13 12L13 13L12 13L12 14L11 14L11 13L10 13L10 14L8 14L8 15L7 15L7 16L8 16L8 15L9 15L9 16L11 16L11 15L13 15L13 16L12 16L12 17L10 17L10 18L12 18L12 19L10 19L10 20L12 20L12 21L13 21L13 22L12 22L12 23L13 23L13 22L15 22L15 21L14 21L14 20L13 20L13 19L15 19L15 20L16 20L16 19L17 19L17 20L18 20L18 19L19 19L19 18L17 18L17 17L20 17L20 19L21 19L21 17L22 17L22 19L23 19L23 18L24 18L24 17L22 17L22 16L25 16L25 14L23 14L23 13L24 13L24 12L23 12L23 11L21 11L21 12L20 12L20 10L18 10L18 9L19 9L19 8L18 8L18 7L17 7L17 6ZM16 7L16 8L17 8L17 9L18 9L18 8L17 8L17 7ZM28 9L28 11L29 11L29 9ZM13 10L13 11L14 11L14 10ZM31 10L31 11L30 11L30 12L28 12L28 13L29 13L29 14L28 14L28 16L29 16L29 14L31 14L31 12L32 12L32 10ZM16 11L16 12L19 12L19 13L15 13L15 14L14 14L14 13L13 13L13 15L14 15L14 16L13 16L13 17L12 17L12 18L13 18L13 17L14 17L14 18L15 18L15 19L16 19L16 18L15 18L15 17L14 17L14 16L16 16L16 15L17 15L17 14L18 14L18 16L20 16L20 17L21 17L21 15L23 15L23 14L19 14L19 13L20 13L20 12L19 12L19 11ZM22 12L22 13L23 13L23 12ZM4 15L4 16L5 16L5 15ZM1 16L1 17L2 17L2 16ZM32 16L32 17L33 17L33 16ZM7 17L7 18L6 18L6 19L7 19L7 18L9 18L9 17ZM31 18L31 19L32 19L32 20L33 20L33 18ZM6 20L6 21L7 21L7 20ZM8 20L8 22L9 22L9 20ZM6 23L6 24L7 24L7 23ZM23 24L23 25L22 25L22 26L23 26L23 27L22 27L22 28L23 28L23 27L24 27L24 24ZM25 25L25 28L28 28L28 25ZM31 25L31 27L32 27L32 26L33 26L33 25ZM18 26L18 29L19 29L19 28L20 28L20 27L21 27L21 26ZM26 26L26 27L27 27L27 26ZM31 29L31 31L33 31L33 29ZM11 31L11 32L12 32L12 31ZM31 32L31 33L32 33L32 32ZM0 0L0 7L7 7L7 0ZM1 1L1 6L6 6L6 1ZM2 2L2 5L5 5L5 2ZM26 0L26 7L33 7L33 0ZM27 1L27 6L32 6L32 1ZM28 2L28 5L31 5L31 2ZM0 26L0 33L7 33L7 26ZM1 27L1 32L6 32L6 27ZM2 28L2 31L5 31L5 28Z" fill="#000000"/></g></g></svg>
