<?xml version="1.0" encoding="UTF-8"?>
<svg xmlns="http://www.w3.org/2000/svg" version="1.1" width="400" height="400" viewBox="0 0 400 400"><rect x="0" y="0" width="400" height="400" fill="#fefefe"/><g transform="scale(9.756)"><g transform="translate(4,4)"><path fill-rule="evenodd" d="M8 0L8 1L9 1L9 2L8 2L8 5L9 5L9 4L11 4L11 5L10 5L10 10L9 10L9 8L8 8L8 10L4 10L4 11L3 11L3 10L2 10L2 9L4 9L4 8L0 8L0 9L1 9L1 11L0 11L0 13L1 13L1 14L2 14L2 13L3 13L3 15L1 15L1 16L2 16L2 17L1 17L1 18L0 18L0 22L1 22L1 21L3 21L3 22L2 22L2 23L1 23L1 24L0 24L0 25L1 25L1 24L2 24L2 25L5 25L5 24L6 24L6 25L7 25L7 24L6 24L6 23L7 23L7 22L4 22L4 21L8 21L8 26L9 26L9 24L10 24L10 25L11 25L11 24L12 24L12 25L14 25L14 24L16 24L16 23L13 23L13 24L12 24L12 21L13 21L13 19L14 19L14 20L15 20L15 19L16 19L16 20L17 20L17 21L16 21L16 22L17 22L17 21L19 21L19 22L21 22L21 21L23 21L23 22L22 22L22 23L25 23L25 21L24 21L24 20L27 20L27 21L26 21L26 24L24 24L24 26L23 26L23 25L22 25L22 27L21 27L21 29L22 29L22 31L24 31L24 32L25 32L25 33L27 33L27 30L26 30L26 29L29 29L29 26L30 26L30 29L31 29L31 31L32 31L32 32L33 32L33 31L32 31L32 29L33 29L33 27L31 27L31 26L32 26L32 25L33 25L33 21L32 21L32 20L30 20L30 19L29 19L29 17L32 17L32 18L31 18L31 19L32 19L32 18L33 18L33 16L32 16L32 15L30 15L30 16L26 16L26 17L25 17L25 16L22 16L22 15L23 15L23 13L22 13L22 14L20 14L20 13L19 13L19 12L20 12L20 11L19 11L19 12L17 12L17 9L18 9L18 10L20 10L20 9L21 9L21 11L22 11L22 12L23 12L23 11L25 11L25 12L24 12L24 14L25 14L25 13L26 13L26 12L27 12L27 11L28 11L28 10L27 10L27 9L26 9L26 8L25 8L25 9L26 9L26 11L25 11L25 10L24 10L24 9L23 9L23 5L22 5L22 8L21 8L21 5L20 5L20 4L19 4L19 3L21 3L21 2L19 2L19 1L21 1L21 0L18 0L18 1L17 1L17 2L15 2L15 0L12 0L12 1L11 1L11 0L10 0L10 1L9 1L9 0ZM23 0L23 1L22 1L22 2L23 2L23 3L22 3L22 4L23 4L23 3L24 3L24 5L25 5L25 3L24 3L24 2L25 2L25 0ZM11 2L11 4L12 4L12 3L13 3L13 2ZM14 2L14 4L13 4L13 5L12 5L12 6L11 6L11 8L12 8L12 6L13 6L13 10L14 10L14 9L15 9L15 11L14 11L14 13L13 13L13 14L12 14L12 16L11 16L11 13L12 13L12 12L13 12L13 11L11 11L11 13L9 13L9 11L6 11L6 12L7 12L7 13L5 13L5 12L3 12L3 13L5 13L5 14L4 14L4 15L3 15L3 16L4 16L4 17L3 17L3 18L1 18L1 20L3 20L3 21L4 21L4 20L5 20L5 19L6 19L6 20L8 20L8 21L9 21L9 22L11 22L11 20L8 20L8 19L9 19L9 18L10 18L10 19L13 19L13 16L16 16L16 15L17 15L17 17L15 17L15 18L14 18L14 19L15 19L15 18L16 18L16 19L17 19L17 18L19 18L19 19L18 19L18 20L19 20L19 19L21 19L21 20L20 20L20 21L21 21L21 20L22 20L22 19L25 19L25 17L24 17L24 18L22 18L22 17L21 17L21 15L20 15L20 16L18 16L18 14L19 14L19 13L17 13L17 12L16 12L16 5L17 5L17 7L18 7L18 9L20 9L20 6L19 6L19 5L18 5L18 4L17 4L17 3L18 3L18 2L17 2L17 3L16 3L16 5L14 5L14 4L15 4L15 2ZM8 6L8 7L9 7L9 6ZM14 6L14 8L15 8L15 6ZM18 6L18 7L19 7L19 6ZM24 6L24 7L25 7L25 6ZM6 8L6 9L7 9L7 8ZM28 8L28 9L31 9L31 8ZM32 8L32 10L31 10L31 11L33 11L33 8ZM11 9L11 10L12 10L12 9ZM22 10L22 11L23 11L23 10ZM1 11L1 13L2 13L2 11ZM29 11L29 12L28 12L28 13L29 13L29 12L30 12L30 11ZM31 12L31 14L32 14L32 12ZM15 13L15 14L17 14L17 13ZM5 14L5 16L6 16L6 17L7 17L7 18L6 18L6 19L8 19L8 18L9 18L9 15L10 15L10 14L9 14L9 15L7 15L7 14ZM13 14L13 15L14 15L14 14ZM28 14L28 15L29 15L29 14ZM6 15L6 16L7 16L7 17L8 17L8 16L7 16L7 15ZM10 17L10 18L11 18L11 17ZM27 17L27 18L28 18L28 17ZM27 19L27 20L28 20L28 22L31 22L31 23L29 23L29 25L30 25L30 26L31 26L31 25L32 25L32 21L29 21L29 19ZM14 21L14 22L15 22L15 21ZM2 23L2 24L5 24L5 23ZM10 23L10 24L11 24L11 23ZM18 23L18 24L17 24L17 25L15 25L15 26L18 26L18 30L19 30L19 27L20 27L20 26L21 26L21 24L20 24L20 23ZM27 23L27 24L28 24L28 23ZM18 24L18 25L20 25L20 24ZM25 25L25 28L28 28L28 25ZM10 26L10 27L11 27L11 26ZM12 26L12 29L11 29L11 28L9 28L9 29L8 29L8 33L9 33L9 32L10 32L10 33L11 33L11 32L10 32L10 31L11 31L11 30L12 30L12 31L13 31L13 30L15 30L15 31L16 31L16 33L23 33L23 32L20 32L20 31L16 31L16 29L15 29L15 28L17 28L17 27L15 27L15 28L13 28L13 27L14 27L14 26ZM26 26L26 27L27 27L27 26ZM23 27L23 28L24 28L24 27ZM9 29L9 30L11 30L11 29ZM12 29L12 30L13 30L13 29ZM23 29L23 30L24 30L24 29ZM25 31L25 32L26 32L26 31ZM28 31L28 33L29 33L29 31ZM12 32L12 33L13 33L13 32ZM30 32L30 33L31 33L31 32ZM0 0L0 7L7 7L7 0ZM1 1L1 6L6 6L6 1ZM2 2L2 5L5 5L5 2ZM26 0L26 7L33 7L33 0ZM27 1L27 6L32 6L32 1ZM28 2L28 5L31 5L31 2ZM0 26L0 33L7 33L7 26ZM1 27L1 32L6 32L6 27ZM2 28L2 31L5 31L5 28Z" fill="#000000"/></g></g></svg>
