<?xml version="1.0" encoding="UTF-8"?>
<svg xmlns="http://www.w3.org/2000/svg" version="1.1" width="400" height="400" viewBox="0 0 400 400"><rect x="0" y="0" width="400" height="400" fill="#fefefe"/><g transform="scale(9.756)"><g transform="translate(4,4)"><path fill-rule="evenodd" d="M8 0L8 4L9 4L9 5L8 5L8 7L9 7L9 8L10 8L10 7L11 7L11 5L12 5L12 7L13 7L13 5L14 5L14 7L15 7L15 8L14 8L14 9L13 9L13 8L12 8L12 9L11 9L11 11L10 11L10 13L8 13L8 11L7 11L7 10L6 10L6 9L7 9L7 8L4 8L4 9L2 9L2 8L0 8L0 10L1 10L1 11L2 11L2 10L3 10L3 12L0 12L0 14L1 14L1 13L2 13L2 14L4 14L4 15L3 15L3 16L1 16L1 17L0 17L0 18L1 18L1 17L2 17L2 19L0 19L0 20L4 20L4 19L3 19L3 18L4 18L4 17L5 17L5 18L6 18L6 19L5 19L5 21L7 21L7 22L6 22L6 23L7 23L7 24L5 24L5 23L4 23L4 22L3 22L3 21L2 21L2 24L0 24L0 25L7 25L7 24L8 24L8 26L9 26L9 27L8 27L8 29L9 29L9 28L10 28L10 29L11 29L11 31L12 31L12 32L13 32L13 30L14 30L14 29L15 29L15 31L14 31L14 33L15 33L15 32L16 32L16 31L17 31L17 33L18 33L18 32L19 32L19 33L20 33L20 32L19 32L19 30L17 30L17 29L18 29L18 27L19 27L19 29L22 29L22 30L21 30L21 33L22 33L22 31L23 31L23 30L25 30L25 29L26 29L26 31L27 31L27 29L28 29L28 31L32 31L32 30L33 30L33 29L30 29L30 27L31 27L31 28L32 28L32 26L31 26L31 25L32 25L32 24L33 24L33 23L31 23L31 22L32 22L32 21L33 21L33 19L32 19L32 18L31 18L31 17L30 17L30 18L28 18L28 17L29 17L29 16L30 16L30 14L31 14L31 16L32 16L32 17L33 17L33 16L32 16L32 14L31 14L31 13L29 13L29 10L28 10L28 12L27 12L27 11L25 11L25 13L22 13L22 12L24 12L24 9L25 9L25 8L24 8L24 7L25 7L25 6L24 6L24 7L23 7L23 6L22 6L22 5L21 5L21 3L22 3L22 2L23 2L23 1L24 1L24 2L25 2L25 0L23 0L23 1L22 1L22 0L20 0L20 1L19 1L19 3L20 3L20 5L19 5L19 6L18 6L18 5L17 5L17 6L16 6L16 7L15 7L15 5L16 5L16 4L17 4L17 3L18 3L18 1L17 1L17 2L16 2L16 3L15 3L15 4L14 4L14 3L12 3L12 4L9 4L9 3L11 3L11 2L9 2L9 0ZM10 0L10 1L12 1L12 2L13 2L13 0ZM15 0L15 1L14 1L14 2L15 2L15 1L16 1L16 0ZM21 1L21 2L22 2L22 1ZM23 3L23 5L25 5L25 3ZM9 5L9 7L10 7L10 5ZM20 5L20 6L19 6L19 7L18 7L18 6L17 6L17 7L16 7L16 8L15 8L15 9L14 9L14 11L13 11L13 10L12 10L12 11L11 11L11 13L10 13L10 15L8 15L8 16L7 16L7 15L6 15L6 14L7 14L7 13L6 13L6 14L5 14L5 15L4 15L4 16L3 16L3 17L4 17L4 16L7 16L7 17L6 17L6 18L7 18L7 19L6 19L6 20L7 20L7 21L8 21L8 22L7 22L7 23L9 23L9 26L10 26L10 24L11 24L11 25L12 25L12 24L13 24L13 25L14 25L14 26L13 26L13 27L11 27L11 29L14 29L14 28L15 28L15 29L17 29L17 26L19 26L19 27L20 27L20 28L21 28L21 27L24 27L24 26L22 26L22 25L24 25L24 24L25 24L25 22L26 22L26 24L27 24L27 22L28 22L28 23L29 23L29 22L31 22L31 20L32 20L32 19L30 19L30 21L25 21L25 22L24 22L24 24L23 24L23 17L25 17L25 16L23 16L23 15L22 15L22 16L23 16L23 17L21 17L21 16L20 16L20 17L19 17L19 18L18 18L18 17L17 17L17 19L16 19L16 20L15 20L15 18L16 18L16 17L14 17L14 16L17 16L17 14L16 14L16 15L15 15L15 13L14 13L14 12L15 12L15 9L17 9L17 10L16 10L16 11L18 11L18 12L21 12L21 11L23 11L23 9L24 9L24 8L23 8L23 9L21 9L21 8L20 8L20 9L19 9L19 10L18 10L18 9L17 9L17 7L18 7L18 8L19 8L19 7L20 7L20 6L21 6L21 7L22 7L22 6L21 6L21 5ZM27 8L27 9L28 9L28 8ZM29 8L29 9L31 9L31 12L32 12L32 13L33 13L33 12L32 12L32 9L33 9L33 8ZM1 9L1 10L2 10L2 9ZM4 9L4 12L3 12L3 13L4 13L4 12L5 12L5 11L6 11L6 12L7 12L7 11L6 11L6 10L5 10L5 9ZM8 9L8 10L10 10L10 9ZM20 9L20 11L21 11L21 9ZM12 11L12 12L13 12L13 11ZM16 12L16 13L17 13L17 12ZM11 13L11 15L12 15L12 13ZM13 13L13 14L14 14L14 13ZM19 13L19 15L18 15L18 16L19 16L19 15L21 15L21 14L22 14L22 13ZM25 13L25 14L24 14L24 15L25 15L25 14L26 14L26 15L29 15L29 13ZM8 16L8 17L7 17L7 18L8 18L8 19L7 19L7 20L8 20L8 19L9 19L9 20L10 20L10 21L9 21L9 22L10 22L10 23L12 23L12 22L14 22L14 25L15 25L15 28L16 28L16 26L17 26L17 25L18 25L18 24L19 24L19 25L22 25L22 18L21 18L21 17L20 17L20 18L21 18L21 19L20 19L20 20L19 20L19 21L20 21L20 23L17 23L17 21L18 21L18 19L17 19L17 20L16 20L16 21L15 21L15 20L14 20L14 21L13 21L13 19L14 19L14 17L13 17L13 16L12 16L12 17L11 17L11 16L10 16L10 17L11 17L11 18L8 18L8 17L9 17L9 16ZM27 16L27 17L26 17L26 18L27 18L27 19L26 19L26 20L28 20L28 18L27 18L27 17L28 17L28 16ZM12 18L12 19L13 19L13 18ZM20 20L20 21L21 21L21 20ZM0 21L0 22L1 22L1 21ZM10 21L10 22L11 22L11 21ZM14 21L14 22L15 22L15 21ZM3 23L3 24L4 24L4 23ZM15 23L15 24L16 24L16 25L17 25L17 23ZM20 23L20 24L21 24L21 23ZM30 23L30 24L29 24L29 26L30 26L30 25L31 25L31 23ZM25 25L25 28L28 28L28 25ZM20 26L20 27L21 27L21 26ZM26 26L26 27L27 27L27 26ZM22 28L22 29L24 29L24 28ZM29 29L29 30L30 30L30 29ZM9 30L9 31L8 31L8 33L9 33L9 32L10 32L10 30ZM24 31L24 33L25 33L25 31ZM26 32L26 33L27 33L27 32ZM32 32L32 33L33 33L33 32ZM0 0L0 7L7 7L7 0ZM1 1L1 6L6 6L6 1ZM2 2L2 5L5 5L5 2ZM26 0L26 7L33 7L33 0ZM27 1L27 6L32 6L32 1ZM28 2L28 5L31 5L31 2ZM0 26L0 33L7 33L7 26ZM1 27L1 32L6 32L6 27ZM2 28L2 31L5 31L5 28Z" fill="#000000"/></g></g></svg>
