<?xml version="1.0" encoding="UTF-8"?>
<svg xmlns="http://www.w3.org/2000/svg" version="1.1" width="400" height="400" viewBox="0 0 400 400"><rect x="0" y="0" width="400" height="400" fill="#fefefe"/><g transform="scale(9.756)"><g transform="translate(4,4)"><path fill-rule="evenodd" d="M8 0L8 4L9 4L9 5L8 5L8 7L9 7L9 8L10 8L10 7L11 7L11 5L12 5L12 7L13 7L13 5L14 5L14 7L15 7L15 8L14 8L14 9L13 9L13 8L12 8L12 9L11 9L11 11L10 11L10 13L11 13L11 14L9 14L9 15L8 15L8 17L7 17L7 16L6 16L6 15L7 15L7 14L6 14L6 15L5 15L5 16L3 16L3 15L1 15L1 14L2 14L2 13L3 13L3 14L5 14L5 13L8 13L8 12L9 12L9 11L8 11L8 9L7 9L7 8L4 8L4 9L3 9L3 10L6 10L6 11L4 11L4 12L2 12L2 11L1 11L1 10L2 10L2 8L0 8L0 9L1 9L1 10L0 10L0 11L1 11L1 12L0 12L0 13L1 13L1 14L0 14L0 18L1 18L1 19L0 19L0 20L1 20L1 21L0 21L0 22L3 22L3 23L2 23L2 24L0 24L0 25L2 25L2 24L3 24L3 23L4 23L4 24L5 24L5 23L7 23L7 24L6 24L6 25L8 25L8 26L9 26L9 25L11 25L11 26L10 26L10 27L11 27L11 28L12 28L12 26L14 26L14 25L15 25L15 28L14 28L14 29L11 29L11 30L10 30L10 28L9 28L9 27L8 27L8 29L9 29L9 30L10 30L10 31L8 31L8 33L9 33L9 32L12 32L12 30L13 30L13 31L14 31L14 29L15 29L15 32L14 32L14 33L15 33L15 32L16 32L16 31L17 31L17 33L18 33L18 32L19 32L19 33L25 33L25 32L26 32L26 33L27 33L27 32L26 32L26 31L27 31L27 29L28 29L28 31L32 31L32 30L33 30L33 29L30 29L30 27L31 27L31 28L32 28L32 26L31 26L31 25L32 25L32 24L33 24L33 23L31 23L31 22L32 22L32 21L33 21L33 19L32 19L32 18L31 18L31 17L30 17L30 18L26 18L26 17L29 17L29 16L30 16L30 14L31 14L31 16L32 16L32 17L33 17L33 16L32 16L32 14L31 14L31 13L29 13L29 10L28 10L28 11L27 11L27 12L25 12L25 13L23 13L23 12L24 12L24 10L25 10L25 11L26 11L26 10L25 10L25 9L24 9L24 7L25 7L25 6L24 6L24 7L23 7L23 6L22 6L22 7L21 7L21 6L20 6L20 5L25 5L25 3L24 3L24 2L23 2L23 1L25 1L25 0L23 0L23 1L22 1L22 0L20 0L20 1L18 1L18 2L16 2L16 3L15 3L15 4L14 4L14 3L12 3L12 4L9 4L9 3L11 3L11 2L9 2L9 0ZM10 0L10 1L12 1L12 2L13 2L13 0ZM15 0L15 1L14 1L14 2L15 2L15 1L16 1L16 0ZM20 1L20 3L19 3L19 5L20 5L20 3L21 3L21 4L22 4L22 3L23 3L23 2L22 2L22 1ZM21 2L21 3L22 3L22 2ZM17 3L17 4L16 4L16 5L15 5L15 7L16 7L16 8L15 8L15 9L14 9L14 11L13 11L13 10L12 10L12 11L11 11L11 13L12 13L12 15L11 15L11 16L10 16L10 15L9 15L9 16L10 16L10 17L8 17L8 18L7 18L7 17L6 17L6 16L5 16L5 18L4 18L4 17L3 17L3 18L2 18L2 19L3 19L3 18L4 18L4 22L5 22L5 19L6 19L6 20L7 20L7 19L8 19L8 20L9 20L9 18L10 18L10 20L11 20L11 18L10 18L10 17L12 17L12 16L13 16L13 17L14 17L14 19L13 19L13 18L12 18L12 19L13 19L13 21L14 21L14 22L12 22L12 23L10 23L10 22L11 22L11 21L10 21L10 22L9 22L9 21L8 21L8 22L9 22L9 24L8 24L8 25L9 25L9 24L11 24L11 25L12 25L12 24L13 24L13 25L14 25L14 22L15 22L15 21L16 21L16 20L17 20L17 19L18 19L18 21L17 21L17 23L15 23L15 24L16 24L16 25L17 25L17 26L16 26L16 28L15 28L15 29L17 29L17 30L19 30L19 32L21 32L21 31L20 31L20 29L21 29L21 30L22 30L22 32L23 32L23 31L25 31L25 30L24 30L24 28L23 28L23 27L24 27L24 26L23 26L23 25L24 25L24 23L25 23L25 24L26 24L26 23L27 23L27 24L28 24L28 23L29 23L29 22L31 22L31 20L32 20L32 19L30 19L30 21L25 21L25 22L24 22L24 23L23 23L23 18L22 18L22 17L25 17L25 16L22 16L22 17L21 17L21 15L23 15L23 13L19 13L19 15L18 15L18 16L19 16L19 15L20 15L20 17L19 17L19 18L18 18L18 17L17 17L17 19L16 19L16 20L15 20L15 18L16 18L16 17L14 17L14 16L17 16L17 14L16 14L16 15L15 15L15 13L14 13L14 12L15 12L15 9L17 9L17 10L16 10L16 11L18 11L18 12L21 12L21 11L22 11L22 12L23 12L23 11L22 11L22 10L23 10L23 9L19 9L19 10L18 10L18 9L17 9L17 7L18 7L18 8L21 8L21 7L20 7L20 6L19 6L19 7L18 7L18 6L17 6L17 5L18 5L18 3ZM9 5L9 7L10 7L10 5ZM16 6L16 7L17 7L17 6ZM27 8L27 9L28 9L28 8ZM29 8L29 9L31 9L31 12L32 12L32 13L33 13L33 12L32 12L32 9L33 9L33 8ZM6 9L6 10L7 10L7 9ZM9 9L9 10L10 10L10 9ZM20 10L20 11L21 11L21 10ZM6 11L6 12L7 12L7 11ZM12 11L12 12L13 12L13 11ZM16 12L16 13L17 13L17 12ZM27 12L27 13L25 13L25 14L24 14L24 15L26 15L26 16L28 16L28 15L29 15L29 13L28 13L28 12ZM13 13L13 14L14 14L14 13ZM27 13L27 14L28 14L28 13ZM20 14L20 15L21 15L21 14ZM20 17L20 18L21 18L21 17ZM6 18L6 19L7 19L7 18ZM19 19L19 21L21 21L21 22L20 22L20 23L21 23L21 25L20 25L20 26L21 26L21 27L19 27L19 26L17 26L17 29L18 29L18 27L19 27L19 29L20 29L20 28L21 28L21 29L22 29L22 30L23 30L23 29L22 29L22 27L23 27L23 26L21 26L21 25L23 25L23 24L22 24L22 19ZM26 19L26 20L27 20L27 19ZM28 19L28 20L29 20L29 19ZM14 20L14 21L15 21L15 20ZM6 21L6 22L7 22L7 21ZM27 22L27 23L28 23L28 22ZM17 23L17 25L18 25L18 24L19 24L19 23ZM30 23L30 24L29 24L29 26L30 26L30 25L31 25L31 23ZM25 25L25 28L28 28L28 25ZM26 26L26 27L27 27L27 26ZM29 29L29 30L30 30L30 29ZM32 32L32 33L33 33L33 32ZM0 0L0 7L7 7L7 0ZM1 1L1 6L6 6L6 1ZM2 2L2 5L5 5L5 2ZM26 0L26 7L33 7L33 0ZM27 1L27 6L32 6L32 1ZM28 2L28 5L31 5L31 2ZM0 26L0 33L7 33L7 26ZM1 27L1 32L6 32L6 27ZM2 28L2 31L5 31L5 28Z" fill="#000000"/></g></g></svg>
