<?xml version="1.0" encoding="UTF-8"?>
<svg xmlns="http://www.w3.org/2000/svg" version="1.1" width="400" height="400" viewBox="0 0 400 400"><rect x="0" y="0" width="400" height="400" fill="#fefefe"/><g transform="scale(9.756)"><g transform="translate(4,4)"><path fill-rule="evenodd" d="M8 0L8 1L10 1L10 0ZM12 0L12 2L9 2L9 4L10 4L10 5L11 5L11 6L10 6L10 8L9 8L9 6L8 6L8 8L9 8L9 9L8 9L8 11L7 11L7 10L6 10L6 9L7 9L7 8L6 8L6 9L5 9L5 8L3 8L3 9L4 9L4 11L3 11L3 10L2 10L2 8L0 8L0 9L1 9L1 12L0 12L0 14L1 14L1 16L3 16L3 17L4 17L4 19L5 19L5 20L3 20L3 22L2 22L2 23L3 23L3 24L1 24L1 21L0 21L0 25L7 25L7 24L4 24L4 22L6 22L6 23L7 23L7 22L6 22L6 21L7 21L7 20L9 20L9 21L8 21L8 22L9 22L9 23L8 23L8 26L10 26L10 27L11 27L11 26L13 26L13 27L14 27L14 28L13 28L13 29L12 29L12 28L8 28L8 30L10 30L10 29L12 29L12 30L11 30L11 31L12 31L12 32L15 32L15 33L18 33L18 32L17 32L17 31L18 31L18 29L17 29L17 30L16 30L16 28L15 28L15 27L16 27L16 26L17 26L17 24L18 24L18 23L19 23L19 25L21 25L21 26L19 26L19 27L18 27L18 28L19 28L19 31L20 31L20 28L21 28L21 27L24 27L24 28L23 28L23 29L24 29L24 31L23 31L23 30L22 30L22 29L21 29L21 31L22 31L22 33L23 33L23 32L24 32L24 33L25 33L25 32L26 32L26 33L27 33L27 31L29 31L29 32L28 32L28 33L29 33L29 32L33 32L33 30L32 30L32 31L30 31L30 30L31 30L31 29L32 29L32 28L33 28L33 27L30 27L30 28L31 28L31 29L29 29L29 25L30 25L30 26L31 26L31 25L32 25L32 24L33 24L33 22L32 22L32 23L30 23L30 22L29 22L29 21L30 21L30 20L31 20L31 21L32 21L32 19L33 19L33 15L31 15L31 13L30 13L30 12L32 12L32 13L33 13L33 12L32 12L32 11L33 11L33 10L30 10L30 12L29 12L29 11L28 11L28 10L29 10L29 9L28 9L28 10L26 10L26 9L27 9L27 8L26 8L26 9L25 9L25 6L24 6L24 5L25 5L25 4L24 4L24 3L25 3L25 0L24 0L24 3L23 3L23 4L24 4L24 5L22 5L22 2L23 2L23 0L22 0L22 2L21 2L21 3L20 3L20 4L19 4L19 2L20 2L20 1L19 1L19 0L16 0L16 1L17 1L17 2L16 2L16 4L17 4L17 5L16 5L16 8L15 8L15 6L14 6L14 5L15 5L15 3L14 3L14 2L15 2L15 1L14 1L14 2L13 2L13 0ZM17 2L17 3L18 3L18 2ZM10 3L10 4L11 4L11 5L12 5L12 4L13 4L13 5L14 5L14 4L13 4L13 3L12 3L12 4L11 4L11 3ZM18 4L18 6L17 6L17 8L19 8L19 7L20 7L20 8L21 8L21 9L22 9L22 11L21 11L21 12L20 12L20 13L19 13L19 14L16 14L16 16L15 16L15 18L17 18L17 20L16 20L16 19L15 19L15 20L13 20L13 19L14 19L14 17L13 17L13 19L11 19L11 18L12 18L12 17L11 17L11 15L12 15L12 14L13 14L13 13L14 13L14 15L13 15L13 16L14 16L14 15L15 15L15 13L16 13L16 11L11 11L11 12L10 12L10 14L9 14L9 16L8 16L8 13L6 13L6 12L7 12L7 11L6 11L6 12L5 12L5 11L4 11L4 12L2 12L2 13L4 13L4 15L3 15L3 16L4 16L4 17L6 17L6 18L5 18L5 19L6 19L6 20L5 20L5 21L6 21L6 20L7 20L7 19L6 19L6 18L8 18L8 17L9 17L9 16L10 16L10 18L9 18L9 20L10 20L10 21L9 21L9 22L11 22L11 20L13 20L13 22L14 22L14 23L13 23L13 25L14 25L14 27L15 27L15 25L16 25L16 24L17 24L17 23L18 23L18 22L19 22L19 23L20 23L20 24L21 24L21 25L22 25L22 24L23 24L23 25L24 25L24 24L23 24L23 23L20 23L20 22L21 22L21 21L22 21L22 20L26 20L26 22L24 22L24 23L26 23L26 22L28 22L28 23L27 23L27 24L29 24L29 22L28 22L28 21L29 21L29 20L30 20L30 19L32 19L32 18L30 18L30 19L29 19L29 20L28 20L28 19L27 19L27 18L28 18L28 16L30 16L30 17L31 17L31 16L30 16L30 14L29 14L29 12L28 12L28 14L27 14L27 13L26 13L26 12L25 12L25 13L24 13L24 14L23 14L23 12L22 12L22 11L23 11L23 9L24 9L24 11L25 11L25 9L24 9L24 8L23 8L23 9L22 9L22 5L21 5L21 4L20 4L20 5L19 5L19 4ZM20 5L20 7L21 7L21 5ZM11 6L11 7L12 7L12 6ZM13 6L13 7L14 7L14 6ZM18 6L18 7L19 7L19 6ZM23 6L23 7L24 7L24 6ZM11 8L11 9L12 9L12 8ZM13 8L13 10L15 10L15 8ZM32 8L32 9L33 9L33 8ZM16 9L16 10L17 10L17 11L18 11L18 9ZM9 10L9 11L8 11L8 12L9 12L9 11L10 11L10 10ZM19 10L19 11L20 11L20 10ZM11 12L11 14L10 14L10 15L11 15L11 14L12 14L12 12ZM14 12L14 13L15 13L15 12ZM17 12L17 13L18 13L18 12ZM5 13L5 16L6 16L6 17L8 17L8 16L6 16L6 15L7 15L7 14L6 14L6 13ZM20 13L20 14L19 14L19 15L18 15L18 17L17 17L17 16L16 16L16 17L17 17L17 18L18 18L18 20L17 20L17 21L18 21L18 20L19 20L19 22L20 22L20 20L19 20L19 19L21 19L21 13ZM25 13L25 14L24 14L24 15L26 15L26 13ZM28 14L28 15L29 15L29 14ZM22 15L22 19L24 19L24 18L25 18L25 17L24 17L24 16L23 16L23 15ZM19 16L19 17L20 17L20 16ZM26 16L26 18L27 18L27 16ZM0 17L0 19L1 19L1 20L2 20L2 19L3 19L3 18L2 18L2 19L1 19L1 17ZM23 17L23 18L24 18L24 17ZM10 19L10 20L11 20L11 19ZM26 19L26 20L27 20L27 19ZM15 20L15 24L14 24L14 25L15 25L15 24L16 24L16 20ZM11 23L11 24L12 24L12 23ZM30 24L30 25L31 25L31 24ZM10 25L10 26L11 26L11 25ZM25 25L25 28L28 28L28 25ZM26 26L26 27L27 27L27 26ZM19 27L19 28L20 28L20 27ZM13 29L13 30L12 30L12 31L13 31L13 30L14 30L14 29ZM25 29L25 31L24 31L24 32L25 32L25 31L27 31L27 29ZM28 29L28 30L29 30L29 29ZM8 31L8 33L11 33L11 32L9 32L9 31ZM15 31L15 32L16 32L16 31ZM19 32L19 33L21 33L21 32ZM0 0L0 7L7 7L7 0ZM1 1L1 6L6 6L6 1ZM2 2L2 5L5 5L5 2ZM26 0L26 7L33 7L33 0ZM27 1L27 6L32 6L32 1ZM28 2L28 5L31 5L31 2ZM0 26L0 33L7 33L7 26ZM1 27L1 32L6 32L6 27ZM2 28L2 31L5 31L5 28Z" fill="#000000"/></g></g></svg>
