<?xml version="1.0" encoding="UTF-8"?>
<svg xmlns="http://www.w3.org/2000/svg" version="1.1" width="400" height="400" viewBox="0 0 400 400"><rect x="0" y="0" width="400" height="400" fill="#fefefe"/><g transform="scale(9.756)"><g transform="translate(4,4)"><path fill-rule="evenodd" d="M11 0L11 1L8 1L8 3L9 3L9 2L10 2L10 4L8 4L8 8L6 8L6 9L5 9L5 10L3 10L3 9L4 9L4 8L3 8L3 9L2 9L2 8L0 8L0 9L2 9L2 10L3 10L3 11L2 11L2 13L3 13L3 11L4 11L4 14L3 14L3 15L2 15L2 19L1 19L1 17L0 17L0 19L1 19L1 20L0 20L0 21L1 21L1 20L4 20L4 21L7 21L7 22L6 22L6 23L7 23L7 24L6 24L6 25L7 25L7 24L8 24L8 23L9 23L9 25L8 25L8 27L9 27L9 29L8 29L8 30L9 30L9 31L8 31L8 33L9 33L9 32L10 32L10 29L11 29L11 30L12 30L12 31L13 31L13 30L14 30L14 31L15 31L15 32L16 32L16 33L17 33L17 32L19 32L19 31L17 31L17 29L18 29L18 30L19 30L19 29L21 29L21 30L20 30L20 31L21 31L21 32L20 32L20 33L26 33L26 32L25 32L25 31L26 31L26 30L27 30L27 29L28 29L28 32L27 32L27 33L30 33L30 32L29 32L29 29L30 29L30 25L29 25L29 24L26 24L26 23L29 23L29 22L31 22L31 23L33 23L33 21L29 21L29 22L28 22L28 20L30 20L30 19L27 19L27 21L26 21L26 17L27 17L27 18L28 18L28 17L29 17L29 16L30 16L30 15L32 15L32 14L33 14L33 9L32 9L32 8L30 8L30 9L29 9L29 8L26 8L26 10L25 10L25 5L24 5L24 3L25 3L25 2L24 2L24 1L25 1L25 0L19 0L19 1L21 1L21 2L22 2L22 1L23 1L23 2L24 2L24 3L22 3L22 4L23 4L23 5L24 5L24 7L23 7L23 6L22 6L22 7L21 7L21 6L20 6L20 5L21 5L21 3L20 3L20 2L17 2L17 0L15 0L15 4L13 4L13 2L14 2L14 0ZM12 1L12 2L11 2L11 4L12 4L12 2L13 2L13 1ZM16 3L16 6L15 6L15 7L14 7L14 5L11 5L11 7L10 7L10 6L9 6L9 7L10 7L10 8L8 8L8 9L6 9L6 10L8 10L8 9L9 9L9 10L11 10L11 11L9 11L9 13L11 13L11 14L12 14L12 13L13 13L13 15L11 15L11 17L12 17L12 18L11 18L11 19L12 19L12 18L13 18L13 17L14 17L14 18L15 18L15 19L13 19L13 20L14 20L14 21L15 21L15 22L14 22L14 24L16 24L16 23L17 23L17 24L18 24L18 25L20 25L20 26L18 26L18 29L19 29L19 28L21 28L21 27L20 27L20 26L21 26L21 23L22 23L22 22L23 22L23 23L24 23L24 24L23 24L23 25L22 25L22 26L23 26L23 28L22 28L22 29L24 29L24 30L22 30L22 32L24 32L24 30L25 30L25 29L24 29L24 26L23 26L23 25L24 25L24 24L25 24L25 23L24 23L24 22L25 22L25 21L24 21L24 20L23 20L23 19L25 19L25 16L29 16L29 14L31 14L31 12L32 12L32 10L31 10L31 11L30 11L30 12L29 12L29 11L28 11L28 10L29 10L29 9L28 9L28 10L27 10L27 11L26 11L26 12L27 12L27 14L26 14L26 13L25 13L25 14L26 14L26 15L25 15L25 16L22 16L22 17L21 17L21 15L23 15L23 14L24 14L24 11L25 11L25 10L24 10L24 9L23 9L23 8L22 8L22 12L23 12L23 13L22 13L22 14L21 14L21 12L20 12L20 11L16 11L16 8L17 8L17 9L18 9L18 10L21 10L21 9L20 9L20 6L19 6L19 9L18 9L18 8L17 8L17 7L18 7L18 3ZM19 4L19 5L20 5L20 4ZM12 6L12 7L13 7L13 6ZM16 6L16 7L15 7L15 8L16 8L16 7L17 7L17 6ZM10 8L10 9L13 9L13 10L12 10L12 11L11 11L11 12L13 12L13 13L14 13L14 14L15 14L15 13L19 13L19 14L20 14L20 15L19 15L19 16L18 16L18 14L17 14L17 15L16 15L16 16L14 16L14 15L13 15L13 16L12 16L12 17L13 17L13 16L14 16L14 17L15 17L15 18L16 18L16 19L15 19L15 20L16 20L16 19L17 19L17 20L18 20L18 19L19 19L19 18L17 18L17 17L20 17L20 18L21 18L21 17L20 17L20 15L21 15L21 14L20 14L20 13L19 13L19 12L16 12L16 11L15 11L15 9L14 9L14 8ZM13 10L13 11L14 11L14 10ZM6 11L6 12L7 12L7 11ZM27 11L27 12L28 12L28 11ZM0 13L0 14L1 14L1 13ZM5 13L5 14L4 14L4 17L3 17L3 19L4 19L4 20L7 20L7 21L8 21L8 22L7 22L7 23L8 23L8 22L9 22L9 23L10 23L10 24L11 24L11 26L13 26L13 27L12 27L12 30L13 30L13 29L14 29L14 30L15 30L15 31L16 31L16 32L17 32L17 31L16 31L16 29L17 29L17 28L15 28L15 27L17 27L17 25L15 25L15 26L14 26L14 25L12 25L12 24L13 24L13 23L12 23L12 22L13 22L13 21L12 21L12 20L9 20L9 19L4 19L4 17L6 17L6 18L9 18L9 17L10 17L10 14L7 14L7 13ZM28 13L28 14L29 14L29 13ZM5 14L5 15L7 15L7 14ZM0 15L0 16L1 16L1 15ZM8 15L8 16L6 16L6 17L8 17L8 16L9 16L9 15ZM32 16L32 17L33 17L33 16ZM22 17L22 19L20 19L20 21L23 21L23 20L22 20L22 19L23 19L23 18L24 18L24 17ZM31 18L31 19L32 19L32 20L33 20L33 18ZM9 21L9 22L11 22L11 21ZM16 21L16 22L17 22L17 23L18 23L18 24L19 24L19 23L20 23L20 22L19 22L19 21ZM0 22L0 23L1 23L1 24L0 24L0 25L1 25L1 24L2 24L2 25L5 25L5 23L4 23L4 24L2 24L2 22ZM11 23L11 24L12 24L12 23ZM9 25L9 27L10 27L10 25ZM25 25L25 28L28 28L28 25ZM31 25L31 27L32 27L32 26L33 26L33 25ZM26 26L26 27L27 27L27 26ZM13 27L13 28L14 28L14 29L15 29L15 28L14 28L14 27ZM31 29L31 31L33 31L33 29ZM11 32L11 33L12 33L12 32ZM13 32L13 33L14 33L14 32ZM31 32L31 33L32 33L32 32ZM0 0L0 7L7 7L7 0ZM1 1L1 6L6 6L6 1ZM2 2L2 5L5 5L5 2ZM26 0L26 7L33 7L33 0ZM27 1L27 6L32 6L32 1ZM28 2L28 5L31 5L31 2ZM0 26L0 33L7 33L7 26ZM1 27L1 32L6 32L6 27ZM2 28L2 31L5 31L5 28Z" fill="#000000"/></g></g></svg>
