<?xml version="1.0" encoding="UTF-8"?>
<svg xmlns="http://www.w3.org/2000/svg" version="1.1" width="400" height="400" viewBox="0 0 400 400"><rect x="0" y="0" width="400" height="400" fill="#fefefe"/><g transform="scale(9.756)"><g transform="translate(4,4)"><path fill-rule="evenodd" d="M8 0L8 4L10 4L10 3L11 3L11 4L12 4L12 2L11 2L11 0ZM12 0L12 1L13 1L13 0ZM15 0L15 1L14 1L14 2L15 2L15 1L16 1L16 0ZM20 0L20 1L18 1L18 2L16 2L16 3L15 3L15 4L14 4L14 3L13 3L13 5L11 5L11 6L10 6L10 7L9 7L9 5L8 5L8 7L9 7L9 8L10 8L10 7L11 7L11 6L12 6L12 8L11 8L11 9L8 9L8 10L11 10L11 11L10 11L10 13L8 13L8 12L9 12L9 11L7 11L7 10L6 10L6 11L7 11L7 12L6 12L6 13L7 13L7 14L5 14L5 13L4 13L4 12L5 12L5 11L4 11L4 9L7 9L7 8L4 8L4 9L3 9L3 11L0 11L0 12L2 12L2 13L4 13L4 14L2 14L2 15L4 15L4 16L2 16L2 17L1 17L1 18L3 18L3 19L0 19L0 20L2 20L2 21L0 21L0 22L2 22L2 21L4 21L4 18L5 18L5 21L7 21L7 22L3 22L3 23L2 23L2 24L0 24L0 25L2 25L2 24L3 24L3 25L5 25L5 24L6 24L6 25L7 25L7 24L8 24L8 26L9 26L9 27L8 27L8 29L9 29L9 28L11 28L11 30L10 30L10 31L8 31L8 33L9 33L9 32L10 32L10 33L11 33L11 32L12 32L12 31L13 31L13 30L14 30L14 29L15 29L15 31L14 31L14 33L15 33L15 32L16 32L16 31L17 31L17 33L18 33L18 32L19 32L19 30L17 30L17 29L18 29L18 27L19 27L19 29L20 29L20 30L21 30L21 29L22 29L22 30L23 30L23 31L21 31L21 33L22 33L22 32L23 32L23 33L25 33L25 32L26 32L26 31L28 31L28 32L27 32L27 33L28 33L28 32L29 32L29 31L32 31L32 30L33 30L33 27L32 27L32 26L31 26L31 25L32 25L32 24L33 24L33 23L31 23L31 22L32 22L32 21L33 21L33 19L32 19L32 18L31 18L31 17L30 17L30 18L28 18L28 21L27 21L27 20L26 20L26 19L27 19L27 18L26 18L26 17L29 17L29 16L30 16L30 14L31 14L31 16L32 16L32 17L33 17L33 16L32 16L32 14L31 14L31 13L29 13L29 10L26 10L26 11L28 11L28 13L27 13L27 12L24 12L24 13L22 13L22 12L23 12L23 11L24 11L24 9L25 9L25 6L24 6L24 7L23 7L23 6L22 6L22 5L21 5L21 3L22 3L22 2L23 2L23 3L24 3L24 4L23 4L23 5L25 5L25 3L24 3L24 2L23 2L23 1L25 1L25 0L23 0L23 1L22 1L22 0ZM20 1L20 2L22 2L22 1ZM9 2L9 3L10 3L10 2ZM18 2L18 3L17 3L17 4L16 4L16 5L15 5L15 7L14 7L14 5L13 5L13 8L12 8L12 9L11 9L11 10L12 10L12 9L14 9L14 11L12 11L12 12L11 12L11 13L10 13L10 15L11 15L11 16L9 16L9 17L8 17L8 16L7 16L7 15L8 15L8 14L7 14L7 15L6 15L6 16L5 16L5 18L7 18L7 19L6 19L6 20L7 20L7 21L8 21L8 24L9 24L9 26L10 26L10 24L9 24L9 23L11 23L11 25L12 25L12 24L13 24L13 25L14 25L14 26L12 26L12 29L14 29L14 28L15 28L15 29L17 29L17 26L19 26L19 27L20 27L20 29L21 29L21 27L24 27L24 26L22 26L22 25L23 25L23 20L22 20L22 25L21 25L21 23L20 23L20 21L21 21L21 19L22 19L22 17L25 17L25 16L26 16L26 15L27 15L27 13L24 13L24 15L25 15L25 16L23 16L23 14L22 14L22 13L21 13L21 12L20 12L20 11L21 11L21 10L22 10L22 9L24 9L24 8L22 8L22 9L19 9L19 10L18 10L18 9L17 9L17 7L18 7L18 6L19 6L19 8L20 8L20 6L21 6L21 7L22 7L22 6L21 6L21 5L20 5L20 3L19 3L19 2ZM18 3L18 5L19 5L19 6L20 6L20 5L19 5L19 3ZM16 6L16 7L15 7L15 8L14 8L14 9L15 9L15 12L14 12L14 13L13 13L13 12L12 12L12 13L13 13L13 14L14 14L14 13L15 13L15 15L16 15L16 14L17 14L17 16L14 16L14 17L13 17L13 15L12 15L12 16L11 16L11 17L10 17L10 18L8 18L8 21L9 21L9 19L10 19L10 21L11 21L11 23L12 23L12 20L13 20L13 19L14 19L14 17L16 17L16 18L15 18L15 20L14 20L14 21L13 21L13 22L14 22L14 25L15 25L15 28L16 28L16 26L17 26L17 25L18 25L18 24L19 24L19 23L17 23L17 21L18 21L18 19L17 19L17 17L18 17L18 18L19 18L19 17L20 17L20 18L21 18L21 17L22 17L22 15L21 15L21 13L20 13L20 12L18 12L18 11L16 11L16 10L17 10L17 9L15 9L15 8L16 8L16 7L17 7L17 6ZM0 8L0 10L1 10L1 9L2 9L2 8ZM27 8L27 9L28 9L28 8ZM29 8L29 9L31 9L31 12L32 12L32 13L33 13L33 12L32 12L32 9L33 9L33 8ZM16 12L16 13L17 13L17 12ZM19 13L19 15L18 15L18 16L19 16L19 15L20 15L20 13ZM28 13L28 14L29 14L29 13ZM0 14L0 16L1 16L1 14ZM4 14L4 15L5 15L5 14ZM25 14L25 15L26 15L26 14ZM28 15L28 16L29 16L29 15ZM6 16L6 17L7 17L7 16ZM20 16L20 17L21 17L21 16ZM3 17L3 18L4 18L4 17ZM11 17L11 18L10 18L10 19L11 19L11 18L12 18L12 17ZM16 19L16 20L15 20L15 21L14 21L14 22L15 22L15 21L16 21L16 20L17 20L17 19ZM30 19L30 21L28 21L28 22L31 22L31 20L32 20L32 19ZM19 20L19 21L20 21L20 20ZM25 21L25 22L24 22L24 24L27 24L27 21ZM25 22L25 23L26 23L26 22ZM4 23L4 24L5 24L5 23ZM6 23L6 24L7 24L7 23ZM15 23L15 24L16 24L16 25L17 25L17 23ZM28 23L28 24L29 24L29 26L30 26L30 25L31 25L31 23L30 23L30 24L29 24L29 23ZM20 25L20 26L21 26L21 25ZM25 25L25 28L28 28L28 25ZM26 26L26 27L27 27L27 26ZM30 27L30 29L29 29L29 30L30 30L30 29L32 29L32 28L31 28L31 27ZM22 28L22 29L24 29L24 31L25 31L25 29L24 29L24 28ZM32 32L32 33L33 33L33 32ZM0 0L0 7L7 7L7 0ZM1 1L1 6L6 6L6 1ZM2 2L2 5L5 5L5 2ZM26 0L26 7L33 7L33 0ZM27 1L27 6L32 6L32 1ZM28 2L28 5L31 5L31 2ZM0 26L0 33L7 33L7 26ZM1 27L1 32L6 32L6 27ZM2 28L2 31L5 31L5 28Z" fill="#000000"/></g></g></svg>
