<?xml version="1.0" encoding="UTF-8"?>
<svg xmlns="http://www.w3.org/2000/svg" version="1.1" width="400" height="400" viewBox="0 0 400 400"><rect x="0" y="0" width="400" height="400" fill="#fefefe"/><g transform="scale(9.756)"><g transform="translate(4,4)"><path fill-rule="evenodd" d="M8 0L8 1L9 1L9 2L8 2L8 5L9 5L9 4L11 4L11 5L10 5L10 10L9 10L9 8L8 8L8 9L7 9L7 8L6 8L6 9L5 9L5 10L4 10L4 8L0 8L0 11L1 11L1 12L0 12L0 15L1 15L1 14L2 14L2 13L4 13L4 14L3 14L3 15L4 15L4 14L5 14L5 15L7 15L7 16L6 16L6 17L5 17L5 16L4 16L4 17L3 17L3 16L1 16L1 17L0 17L0 18L1 18L1 19L0 19L0 20L1 20L1 19L3 19L3 20L4 20L4 22L3 22L3 23L1 23L1 24L0 24L0 25L1 25L1 24L2 24L2 25L3 25L3 24L4 24L4 25L8 25L8 26L9 26L9 25L8 25L8 24L10 24L10 23L11 23L11 24L12 24L12 25L14 25L14 24L16 24L16 23L13 23L13 24L12 24L12 21L13 21L13 19L14 19L14 20L15 20L15 19L16 19L16 20L17 20L17 21L16 21L16 22L17 22L17 21L19 21L19 22L20 22L20 21L23 21L23 22L22 22L22 23L23 23L23 24L24 24L24 25L22 25L22 26L21 26L21 27L20 27L20 25L18 25L18 24L21 24L21 23L18 23L18 24L17 24L17 25L15 25L15 26L18 26L18 30L19 30L19 28L21 28L21 31L16 31L16 29L15 29L15 28L17 28L17 27L15 27L15 28L13 28L13 27L14 27L14 26L13 26L13 27L11 27L11 26L10 26L10 28L9 28L9 29L8 29L8 33L10 33L10 31L11 31L11 30L12 30L12 29L13 29L13 30L15 30L15 31L16 31L16 33L20 33L20 32L21 32L21 33L22 33L22 32L21 32L21 31L22 31L22 26L23 26L23 33L24 33L24 32L25 32L25 30L24 30L24 29L27 29L27 30L26 30L26 33L29 33L29 31L28 31L28 29L29 29L29 26L30 26L30 29L31 29L31 31L32 31L32 32L33 32L33 31L32 31L32 29L33 29L33 27L31 27L31 26L32 26L32 25L33 25L33 21L32 21L32 20L30 20L30 19L29 19L29 17L32 17L32 18L31 18L31 19L32 19L32 18L33 18L33 16L32 16L32 15L30 15L30 16L28 16L28 15L29 15L29 14L28 14L28 13L29 13L29 12L30 12L30 11L27 11L27 14L26 14L26 13L25 13L25 15L27 15L27 16L26 16L26 17L25 17L25 16L22 16L22 15L20 15L20 14L21 14L21 12L20 12L20 11L24 11L24 12L25 12L25 11L24 11L24 9L23 9L23 8L25 8L25 10L28 10L28 9L31 9L31 8L28 8L28 9L26 9L26 8L25 8L25 3L24 3L24 1L25 1L25 0L23 0L23 1L22 1L22 2L23 2L23 3L22 3L22 4L23 4L23 3L24 3L24 7L23 7L23 5L22 5L22 8L21 8L21 6L20 6L20 5L21 5L21 3L20 3L20 4L19 4L19 5L18 5L18 3L19 3L19 2L18 2L18 0L17 0L17 2L15 2L15 0L12 0L12 1L11 1L11 0L10 0L10 1L9 1L9 0ZM19 0L19 1L20 1L20 0ZM11 2L11 4L12 4L12 3L13 3L13 2ZM14 2L14 4L13 4L13 5L12 5L12 6L11 6L11 8L12 8L12 6L13 6L13 10L14 10L14 9L15 9L15 11L14 11L14 13L13 13L13 14L12 14L12 16L11 16L11 17L10 17L10 16L9 16L9 17L10 17L10 21L9 21L9 18L8 18L8 16L7 16L7 17L6 17L6 18L4 18L4 20L5 20L5 22L4 22L4 23L5 23L5 24L8 24L8 23L5 23L5 22L8 22L8 21L9 21L9 22L11 22L11 19L13 19L13 16L16 16L16 15L17 15L17 17L15 17L15 18L14 18L14 19L15 19L15 18L16 18L16 19L17 19L17 18L19 18L19 19L18 19L18 20L20 20L20 19L21 19L21 20L22 20L22 19L25 19L25 17L24 17L24 18L22 18L22 17L21 17L21 16L20 16L20 15L19 15L19 16L18 16L18 14L19 14L19 13L17 13L17 12L19 12L19 11L20 11L20 10L21 10L21 9L20 9L20 10L18 10L18 9L19 9L19 8L20 8L20 6L19 6L19 8L18 8L18 9L17 9L17 12L16 12L16 5L17 5L17 7L18 7L18 5L17 5L17 3L18 3L18 2L17 2L17 3L16 3L16 5L14 5L14 4L15 4L15 2ZM8 6L8 7L9 7L9 6ZM14 6L14 8L15 8L15 6ZM32 8L32 10L31 10L31 11L33 11L33 8ZM1 9L1 10L2 10L2 9ZM6 9L6 10L7 10L7 11L5 11L5 14L7 14L7 15L8 15L8 13L9 13L9 14L11 14L11 13L12 13L12 12L13 12L13 11L11 11L11 13L9 13L9 10L7 10L7 9ZM11 9L11 10L12 10L12 9ZM3 10L3 11L4 11L4 10ZM1 12L1 13L2 13L2 12ZM6 12L6 13L7 13L7 12ZM31 12L31 14L32 14L32 12ZM15 13L15 14L17 14L17 13ZM22 13L22 14L23 14L23 13ZM13 14L13 15L14 15L14 14ZM27 16L27 17L28 17L28 16ZM1 17L1 18L2 18L2 17ZM6 18L6 19L7 19L7 18ZM27 18L27 19L28 19L28 22L27 22L27 23L26 23L26 22L25 22L25 23L24 23L24 24L28 24L28 22L31 22L31 23L29 23L29 25L30 25L30 26L31 26L31 25L32 25L32 21L29 21L29 19L28 19L28 18ZM6 20L6 21L7 21L7 20ZM24 20L24 21L25 21L25 20ZM26 20L26 21L27 21L27 20ZM0 21L0 22L2 22L2 21ZM14 21L14 22L15 22L15 21ZM25 25L25 28L28 28L28 25ZM26 26L26 27L27 27L27 26ZM10 28L10 29L9 29L9 31L10 31L10 30L11 30L11 28ZM12 31L12 33L13 33L13 31ZM27 31L27 32L28 32L28 31ZM30 32L30 33L31 33L31 32ZM0 0L0 7L7 7L7 0ZM1 1L1 6L6 6L6 1ZM2 2L2 5L5 5L5 2ZM26 0L26 7L33 7L33 0ZM27 1L27 6L32 6L32 1ZM28 2L28 5L31 5L31 2ZM0 26L0 33L7 33L7 26ZM1 27L1 32L6 32L6 27ZM2 28L2 31L5 31L5 28Z" fill="#000000"/></g></g></svg>
