<?xml version="1.0" encoding="UTF-8"?>
<svg xmlns="http://www.w3.org/2000/svg" version="1.1" width="400" height="400" viewBox="0 0 400 400"><rect x="0" y="0" width="400" height="400" fill="#fefefe"/><g transform="scale(9.756)"><g transform="translate(4,4)"><path fill-rule="evenodd" d="M9 0L9 1L8 1L8 3L9 3L9 4L8 4L8 8L6 8L6 9L4 9L4 8L3 8L3 10L2 10L2 11L3 11L3 12L0 12L0 14L1 14L1 15L0 15L0 16L2 16L2 17L3 17L3 16L4 16L4 12L5 12L5 14L6 14L6 15L8 15L8 16L6 16L6 17L4 17L4 21L3 21L3 19L2 19L2 18L1 18L1 19L0 19L0 20L1 20L1 22L0 22L0 23L1 23L1 24L0 24L0 25L1 25L1 24L2 24L2 25L5 25L5 24L6 24L6 25L8 25L8 27L9 27L9 29L8 29L8 30L9 30L9 29L10 29L10 27L11 27L11 28L14 28L14 29L13 29L13 30L12 30L12 29L11 29L11 30L10 30L10 31L8 31L8 33L10 33L10 31L11 31L11 33L12 33L12 31L13 31L13 30L14 30L14 31L15 31L15 32L16 32L16 33L17 33L17 32L21 32L21 33L22 33L22 30L23 30L23 32L24 32L24 33L30 33L30 32L28 32L28 31L29 31L29 29L30 29L30 25L29 25L29 24L27 24L27 21L26 21L26 17L27 17L27 18L28 18L28 17L29 17L29 16L30 16L30 15L32 15L32 14L33 14L33 9L32 9L32 8L30 8L30 9L29 9L29 8L26 8L26 9L25 9L25 6L24 6L24 7L23 7L23 6L22 6L22 5L25 5L25 2L24 2L24 1L25 1L25 0L19 0L19 1L17 1L17 0L15 0L15 4L13 4L13 5L14 5L14 7L15 7L15 8L16 8L16 11L15 11L15 9L14 9L14 8L13 8L13 6L12 6L12 5L11 5L11 6L10 6L10 5L9 5L9 4L12 4L12 3L13 3L13 2L14 2L14 0L12 0L12 1L11 1L11 2L9 2L9 1L10 1L10 0ZM19 1L19 2L18 2L18 3L16 3L16 6L15 6L15 7L16 7L16 8L17 8L17 9L18 9L18 10L20 10L20 12L19 12L19 11L16 11L16 12L19 12L19 13L15 13L15 14L14 14L14 13L13 13L13 15L14 15L14 16L13 16L13 17L11 17L11 18L10 18L10 16L8 16L8 18L7 18L7 17L6 17L6 18L5 18L5 19L6 19L6 20L5 20L5 21L4 21L4 22L5 22L5 23L3 23L3 24L5 24L5 23L6 23L6 24L8 24L8 23L9 23L9 24L10 24L10 26L9 26L9 27L10 27L10 26L12 26L12 27L14 27L14 28L15 28L15 29L14 29L14 30L15 30L15 31L16 31L16 32L17 32L17 31L20 31L20 29L21 29L21 28L20 28L20 26L18 26L18 29L17 29L17 28L15 28L15 27L17 27L17 25L15 25L15 26L14 26L14 25L12 25L12 24L13 24L13 23L12 23L12 21L13 21L13 20L14 20L14 21L15 21L15 22L14 22L14 24L16 24L16 23L17 23L17 24L18 24L18 25L20 25L20 23L19 23L19 24L18 24L18 23L17 23L17 22L16 22L16 21L19 21L19 22L20 22L20 21L21 21L21 23L22 23L22 22L23 22L23 24L22 24L22 25L23 25L23 26L22 26L22 29L23 29L23 30L25 30L25 29L24 29L24 28L23 28L23 27L24 27L24 24L26 24L26 22L25 22L25 21L24 21L24 20L23 20L23 21L21 21L21 18L20 18L20 17L21 17L21 16L20 16L20 17L17 17L17 18L19 18L19 19L18 19L18 20L17 20L17 19L16 19L16 18L15 18L15 17L14 17L14 16L16 16L16 15L17 15L17 14L18 14L18 16L19 16L19 15L22 15L22 17L24 17L24 18L22 18L22 19L25 19L25 16L23 16L23 14L25 14L25 15L26 15L26 16L27 16L27 14L25 14L25 13L26 13L26 11L25 11L25 10L24 10L24 9L23 9L23 12L22 12L22 13L23 13L23 14L19 14L19 13L20 13L20 12L21 12L21 9L20 9L20 6L21 6L21 7L22 7L22 8L23 8L23 7L22 7L22 6L21 6L21 5L20 5L20 4L19 4L19 2L21 2L21 4L24 4L24 3L23 3L23 1L22 1L22 2L21 2L21 1ZM19 5L19 6L18 6L18 7L17 7L17 6L16 6L16 7L17 7L17 8L18 8L18 9L19 9L19 6L20 6L20 5ZM9 6L9 7L10 7L10 8L8 8L8 9L6 9L6 10L8 10L8 12L7 12L7 11L6 11L6 12L7 12L7 13L6 13L6 14L7 14L7 13L8 13L8 15L9 15L9 13L12 13L12 12L13 12L13 11L14 11L14 10L13 10L13 8L12 8L12 6L11 6L11 7L10 7L10 6ZM0 8L0 11L1 11L1 9L2 9L2 8ZM10 8L10 10L9 10L9 9L8 9L8 10L9 10L9 11L11 11L11 10L12 10L12 9L11 9L11 8ZM27 9L27 11L28 11L28 13L29 13L29 14L28 14L28 16L29 16L29 14L31 14L31 12L32 12L32 10L31 10L31 11L30 11L30 12L29 12L29 9ZM3 10L3 11L5 11L5 10ZM8 12L8 13L9 13L9 12ZM23 12L23 13L24 13L24 12ZM1 13L1 14L2 14L2 13ZM10 14L10 15L11 15L11 16L12 16L12 14ZM2 15L2 16L3 16L3 15ZM32 16L32 17L33 17L33 16ZM13 17L13 19L11 19L11 20L13 20L13 19L15 19L15 20L16 20L16 19L15 19L15 18L14 18L14 17ZM6 18L6 19L7 19L7 18ZM9 18L9 19L8 19L8 22L6 22L6 21L7 21L7 20L6 20L6 21L5 21L5 22L6 22L6 23L8 23L8 22L9 22L9 23L10 23L10 22L11 22L11 21L10 21L10 20L9 20L9 19L10 19L10 18ZM31 18L31 19L32 19L32 20L33 20L33 18ZM28 19L28 20L30 20L30 19ZM2 21L2 22L3 22L3 21ZM9 21L9 22L10 22L10 21ZM29 21L29 22L28 22L28 23L29 23L29 22L31 22L31 23L33 23L33 21ZM11 23L11 24L12 24L12 23ZM25 25L25 28L28 28L28 25ZM31 25L31 27L32 27L32 29L31 29L31 31L33 31L33 27L32 27L32 26L33 26L33 25ZM26 26L26 27L27 27L27 26ZM19 28L19 29L18 29L18 30L19 30L19 29L20 29L20 28ZM16 29L16 31L17 31L17 29ZM27 29L27 30L26 30L26 31L25 31L25 32L27 32L27 31L28 31L28 29ZM11 30L11 31L12 31L12 30ZM13 32L13 33L14 33L14 32ZM31 32L31 33L32 33L32 32ZM0 0L0 7L7 7L7 0ZM1 1L1 6L6 6L6 1ZM2 2L2 5L5 5L5 2ZM26 0L26 7L33 7L33 0ZM27 1L27 6L32 6L32 1ZM28 2L28 5L31 5L31 2ZM0 26L0 33L7 33L7 26ZM1 27L1 32L6 32L6 27ZM2 28L2 31L5 31L5 28Z" fill="#000000"/></g></g></svg>
