<?xml version="1.0" encoding="UTF-8"?>
<svg xmlns="http://www.w3.org/2000/svg" version="1.1" width="400" height="400" viewBox="0 0 400 400"><rect x="0" y="0" width="400" height="400" fill="#fefefe"/><g transform="scale(9.756)"><g transform="translate(4,4)"><path fill-rule="evenodd" d="M10 0L10 2L11 2L11 0ZM12 0L12 1L13 1L13 2L12 2L12 4L14 4L14 3L13 3L13 2L14 2L14 1L15 1L15 2L16 2L16 1L15 1L15 0ZM18 0L18 1L17 1L17 2L19 2L19 1L20 1L20 2L21 2L21 3L20 3L20 4L19 4L19 3L17 3L17 4L19 4L19 5L17 5L17 6L16 6L16 5L15 5L15 6L14 6L14 5L11 5L11 6L10 6L10 4L11 4L11 3L8 3L8 4L9 4L9 5L8 5L8 7L9 7L9 8L6 8L6 9L5 9L5 8L0 8L0 10L3 10L3 11L2 11L2 12L3 12L3 11L4 11L4 13L2 13L2 14L1 14L1 15L0 15L0 17L1 17L1 15L2 15L2 16L4 16L4 18L3 18L3 17L2 17L2 19L1 19L1 21L0 21L0 25L1 25L1 22L3 22L3 23L2 23L2 25L3 25L3 24L4 24L4 25L8 25L8 27L9 27L9 28L8 28L8 33L9 33L9 32L10 32L10 33L11 33L11 31L10 31L10 30L12 30L12 32L13 32L13 33L14 33L14 32L13 32L13 29L14 29L14 30L15 30L15 33L16 33L16 32L17 32L17 33L18 33L18 32L17 32L17 31L16 31L16 30L17 30L17 29L18 29L18 28L19 28L19 27L18 27L18 28L17 28L17 25L18 25L18 24L17 24L17 23L19 23L19 22L21 22L21 23L20 23L20 24L24 24L24 25L22 25L22 26L21 26L21 25L19 25L19 26L21 26L21 28L20 28L20 29L19 29L19 30L20 30L20 31L21 31L21 32L20 32L20 33L21 33L21 32L22 32L22 31L21 31L21 30L22 30L22 29L23 29L23 30L24 30L24 31L26 31L26 32L23 32L23 33L26 33L26 32L31 32L31 33L32 33L32 32L31 32L31 31L32 31L32 30L31 30L31 29L32 29L32 28L33 28L33 27L32 27L32 26L33 26L33 23L30 23L30 24L32 24L32 25L30 25L30 26L31 26L31 27L30 27L30 28L29 28L29 24L27 24L27 23L28 23L28 21L30 21L30 20L31 20L31 19L32 19L32 20L33 20L33 19L32 19L32 18L33 18L33 17L32 17L32 14L33 14L33 13L32 13L32 10L33 10L33 9L32 9L32 8L31 8L31 9L32 9L32 10L28 10L28 8L27 8L27 9L26 9L26 8L25 8L25 4L23 4L23 3L25 3L25 2L23 2L23 1L25 1L25 0L23 0L23 1L21 1L21 0ZM8 1L8 2L9 2L9 1ZM15 3L15 4L16 4L16 3ZM21 3L21 4L20 4L20 5L19 5L19 9L25 9L25 8L24 8L24 5L23 5L23 4L22 4L22 3ZM21 4L21 5L20 5L20 8L22 8L22 7L23 7L23 6L22 6L22 7L21 7L21 5L22 5L22 4ZM9 6L9 7L10 7L10 6ZM11 6L11 7L12 7L12 9L11 9L11 8L10 8L10 9L9 9L9 12L8 12L8 10L7 10L7 9L6 9L6 10L7 10L7 11L5 11L5 12L8 12L8 13L4 13L4 15L6 15L6 16L5 16L5 18L4 18L4 19L3 19L3 20L2 20L2 21L3 21L3 22L4 22L4 24L5 24L5 22L7 22L7 23L6 23L6 24L7 24L7 23L8 23L8 22L11 22L11 23L10 23L10 24L9 24L9 27L11 27L11 29L13 29L13 28L14 28L14 29L15 29L15 30L16 30L16 29L17 29L17 28L16 28L16 29L15 29L15 26L16 26L16 25L17 25L17 24L16 24L16 23L17 23L17 22L19 22L19 21L21 21L21 22L23 22L23 23L24 23L24 24L26 24L26 23L27 23L27 22L25 22L25 23L24 23L24 22L23 22L23 20L25 20L25 21L28 21L28 20L30 20L30 19L31 19L31 18L30 18L30 17L31 17L31 16L30 16L30 14L29 14L29 13L31 13L31 12L29 12L29 11L26 11L26 10L22 10L22 12L21 12L21 10L19 10L19 12L21 12L21 13L20 13L20 14L17 14L17 16L18 16L18 15L20 15L20 16L19 16L19 17L21 17L21 18L22 18L22 19L23 19L23 20L21 20L21 19L20 19L20 18L19 18L19 20L18 20L18 19L17 19L17 18L18 18L18 17L17 17L17 18L16 18L16 19L17 19L17 20L18 20L18 21L17 21L17 22L16 22L16 21L15 21L15 18L14 18L14 17L16 17L16 15L15 15L15 14L16 14L16 13L17 13L17 12L18 12L18 11L16 11L16 12L15 12L15 10L16 10L16 9L17 9L17 10L18 10L18 9L17 9L17 8L18 8L18 6L17 6L17 8L16 8L16 9L15 9L15 7L16 7L16 6L15 6L15 7L14 7L14 6L13 6L13 7L12 7L12 6ZM13 8L13 9L12 9L12 10L13 10L13 11L12 11L12 13L14 13L14 14L15 14L15 13L14 13L14 12L13 12L13 11L14 11L14 10L15 10L15 9L14 9L14 8ZM29 8L29 9L30 9L30 8ZM10 9L10 11L11 11L11 9ZM13 9L13 10L14 10L14 9ZM24 11L24 12L23 12L23 13L21 13L21 14L20 14L20 15L21 15L21 16L23 16L23 14L24 14L24 15L25 15L25 16L28 16L28 17L26 17L26 18L25 18L25 17L22 17L22 18L25 18L25 20L26 20L26 19L27 19L27 20L28 20L28 19L27 19L27 18L28 18L28 17L29 17L29 16L28 16L28 15L25 15L25 13L26 13L26 14L27 14L27 13L29 13L29 12L27 12L27 13L26 13L26 12L25 12L25 11ZM9 12L9 14L6 14L6 15L7 15L7 16L6 16L6 17L7 17L7 18L6 18L6 19L7 19L7 18L8 18L8 19L10 19L10 20L11 20L11 22L12 22L12 23L11 23L11 24L10 24L10 25L11 25L11 26L12 26L12 27L13 27L13 25L14 25L14 26L15 26L15 25L14 25L14 24L15 24L15 23L16 23L16 22L15 22L15 21L14 21L14 20L13 20L13 21L14 21L14 24L13 24L13 22L12 22L12 20L11 20L11 17L12 17L12 18L13 18L13 19L14 19L14 18L13 18L13 17L14 17L14 16L12 16L12 15L13 15L13 14L11 14L11 17L9 17L9 16L8 16L8 15L9 15L9 14L10 14L10 13L11 13L11 12ZM24 12L24 13L25 13L25 12ZM2 14L2 15L3 15L3 14ZM21 14L21 15L22 15L22 14ZM4 20L4 22L5 22L5 21L7 21L7 20ZM8 20L8 21L9 21L9 20ZM32 21L32 22L33 22L33 21ZM11 24L11 25L12 25L12 24ZM25 25L25 28L28 28L28 25ZM22 26L22 28L21 28L21 29L20 29L20 30L21 30L21 29L22 29L22 28L23 28L23 29L24 29L24 27L23 27L23 26ZM26 26L26 27L27 27L27 26ZM30 28L30 29L29 29L29 30L27 30L27 29L25 29L25 30L27 30L27 31L31 31L31 30L30 30L30 29L31 29L31 28ZM0 0L0 7L7 7L7 0ZM1 1L1 6L6 6L6 1ZM2 2L2 5L5 5L5 2ZM26 0L26 7L33 7L33 0ZM27 1L27 6L32 6L32 1ZM28 2L28 5L31 5L31 2ZM0 26L0 33L7 33L7 26ZM1 27L1 32L6 32L6 27ZM2 28L2 31L5 31L5 28Z" fill="#000000"/></g></g></svg>
