<?xml version="1.0" encoding="UTF-8"?>
<svg xmlns="http://www.w3.org/2000/svg" version="1.1" width="400" height="400" viewBox="0 0 400 400"><rect x="0" y="0" width="400" height="400" fill="#fefefe"/><g transform="scale(9.756)"><g transform="translate(4,4)"><path fill-rule="evenodd" d="M8 0L8 1L11 1L11 2L10 2L10 4L9 4L9 2L8 2L8 5L11 5L11 4L12 4L12 1L13 1L13 4L14 4L14 5L16 5L16 12L17 12L17 13L15 13L15 14L17 14L17 13L19 13L19 14L18 14L18 16L19 16L19 15L20 15L20 18L21 18L21 19L20 19L20 20L18 20L18 19L19 19L19 18L17 18L17 19L16 19L16 18L15 18L15 17L17 17L17 15L16 15L16 16L13 16L13 15L14 15L14 14L13 14L13 13L14 13L14 11L15 11L15 9L14 9L14 10L13 10L13 9L11 9L11 6L10 6L10 9L11 9L11 10L9 10L9 8L8 8L8 9L7 9L7 8L6 8L6 9L4 9L4 8L0 8L0 9L3 9L3 10L2 10L2 11L0 11L0 13L1 13L1 14L0 14L0 15L2 15L2 16L1 16L1 17L0 17L0 22L1 22L1 17L2 17L2 23L1 23L1 24L0 24L0 25L1 25L1 24L3 24L3 25L8 25L8 26L9 26L9 25L10 25L10 24L9 24L9 23L10 23L10 21L7 21L7 20L5 20L5 21L7 21L7 22L6 22L6 23L8 23L8 24L3 24L3 23L4 23L4 21L3 21L3 20L4 20L4 19L5 19L5 18L4 18L4 17L3 17L3 16L4 16L4 15L5 15L5 14L6 14L6 15L7 15L7 16L6 16L6 17L7 17L7 18L6 18L6 19L9 19L9 20L11 20L11 24L12 24L12 25L14 25L14 22L15 22L15 21L14 21L14 22L13 22L13 21L12 21L12 20L13 20L13 19L14 19L14 20L15 20L15 19L16 19L16 20L17 20L17 21L16 21L16 22L17 22L17 21L19 21L19 22L20 22L20 21L23 21L23 22L22 22L22 23L23 23L23 24L22 24L22 25L23 25L23 24L24 24L24 26L23 26L23 27L24 27L24 28L23 28L23 30L22 30L22 31L23 31L23 30L24 30L24 32L25 32L25 33L27 33L27 31L28 31L28 29L29 29L29 26L30 26L30 29L31 29L31 31L32 31L32 32L33 32L33 31L32 31L32 27L31 27L31 26L32 26L32 25L33 25L33 21L32 21L32 20L30 20L30 19L29 19L29 17L32 17L32 18L31 18L31 19L32 19L32 18L33 18L33 16L32 16L32 15L30 15L30 16L28 16L28 15L29 15L29 14L28 14L28 13L29 13L29 12L30 12L30 11L27 11L27 10L28 10L28 9L31 9L31 8L28 8L28 9L26 9L26 8L25 8L25 2L24 2L24 1L25 1L25 0L23 0L23 1L22 1L22 2L23 2L23 3L22 3L22 4L23 4L23 3L24 3L24 7L23 7L23 5L22 5L22 8L19 8L19 9L18 9L18 7L19 7L19 6L20 6L20 7L21 7L21 6L20 6L20 5L21 5L21 3L20 3L20 2L21 2L21 1L20 1L20 0L19 0L19 1L20 1L20 2L18 2L18 3L17 3L17 2L15 2L15 0ZM14 2L14 4L15 4L15 2ZM16 3L16 5L17 5L17 3ZM18 3L18 5L19 5L19 4L20 4L20 3ZM8 6L8 7L9 7L9 6ZM12 6L12 7L13 7L13 6ZM14 6L14 8L15 8L15 6ZM17 6L17 7L18 7L18 6ZM23 8L23 9L24 9L24 8ZM32 8L32 10L31 10L31 11L33 11L33 8ZM6 9L6 10L4 10L4 11L2 11L2 12L4 12L4 14L5 14L5 13L6 13L6 14L7 14L7 15L10 15L10 16L11 16L11 15L13 15L13 14L12 14L12 13L13 13L13 12L11 12L11 13L9 13L9 11L8 11L8 14L7 14L7 13L6 13L6 12L7 12L7 11L6 11L6 10L7 10L7 9ZM17 9L17 12L19 12L19 13L20 13L20 12L21 12L21 14L20 14L20 15L21 15L21 14L23 14L23 16L22 16L22 17L21 17L21 18L22 18L22 19L21 19L21 20L23 20L23 19L25 19L25 17L26 17L26 16L27 16L27 15L28 15L28 14L27 14L27 11L26 11L26 10L24 10L24 12L23 12L23 13L22 13L22 11L23 11L23 10L21 10L21 9L20 9L20 10L18 10L18 9ZM12 10L12 11L13 11L13 10ZM4 11L4 12L5 12L5 11ZM19 11L19 12L20 12L20 11ZM25 12L25 13L26 13L26 12ZM31 12L31 14L32 14L32 12ZM2 13L2 15L3 15L3 13ZM7 16L7 17L9 17L9 19L12 19L12 18L13 18L13 16L12 16L12 18L11 18L11 17L9 17L9 16ZM23 16L23 18L24 18L24 17L25 17L25 16ZM27 17L27 18L28 18L28 17ZM3 18L3 19L4 19L4 18ZM14 18L14 19L15 19L15 18ZM28 19L28 23L27 23L27 22L24 22L24 24L28 24L28 23L29 23L29 25L30 25L30 26L31 26L31 25L32 25L32 21L29 21L29 19ZM24 20L24 21L25 21L25 20ZM26 20L26 21L27 21L27 20ZM12 22L12 24L13 24L13 22ZM29 22L29 23L31 23L31 22ZM15 23L15 24L16 24L16 23ZM18 23L18 24L17 24L17 25L15 25L15 26L18 26L18 30L19 30L19 27L21 27L21 28L20 28L20 32L19 32L19 31L16 31L16 29L15 29L15 28L17 28L17 27L15 27L15 28L13 28L13 27L14 27L14 26L12 26L12 28L11 28L11 27L9 27L9 29L8 29L8 33L10 33L10 32L12 32L12 33L13 33L13 32L12 32L12 31L11 31L11 30L12 30L12 29L13 29L13 30L15 30L15 31L14 31L14 32L15 32L15 31L16 31L16 33L20 33L20 32L21 32L21 33L22 33L22 32L21 32L21 29L22 29L22 27L21 27L21 23ZM8 24L8 25L9 25L9 24ZM18 24L18 25L20 25L20 24ZM25 25L25 28L28 28L28 25ZM26 26L26 27L27 27L27 26ZM10 28L10 30L11 30L11 28ZM24 29L24 30L25 30L25 29ZM26 29L26 30L27 30L27 29ZM29 30L29 32L28 32L28 33L31 33L31 32L30 32L30 30ZM25 31L25 32L26 32L26 31ZM0 0L0 7L7 7L7 0ZM1 1L1 6L6 6L6 1ZM2 2L2 5L5 5L5 2ZM26 0L26 7L33 7L33 0ZM27 1L27 6L32 6L32 1ZM28 2L28 5L31 5L31 2ZM0 26L0 33L7 33L7 26ZM1 27L1 32L6 32L6 27ZM2 28L2 31L5 31L5 28Z" fill="#000000"/></g></g></svg>
