<?xml version="1.0" encoding="UTF-8"?>
<svg xmlns="http://www.w3.org/2000/svg" version="1.1" width="400" height="400" viewBox="0 0 400 400"><rect x="0" y="0" width="400" height="400" fill="#fefefe"/><g transform="scale(9.756)"><g transform="translate(4,4)"><path fill-rule="evenodd" d="M9 0L9 1L8 1L8 3L9 3L9 4L8 4L8 8L6 8L6 9L7 9L7 10L6 10L6 11L5 11L5 13L4 13L4 11L3 11L3 9L4 9L4 10L5 10L5 9L4 9L4 8L3 8L3 9L2 9L2 8L0 8L0 9L1 9L1 10L2 10L2 12L1 12L1 13L0 13L0 15L2 15L2 17L1 17L1 16L0 16L0 17L1 17L1 19L2 19L2 21L1 21L1 20L0 20L0 21L1 21L1 22L0 22L0 23L1 23L1 24L0 24L0 25L1 25L1 24L4 24L4 23L3 23L3 22L2 22L2 21L3 21L3 20L4 20L4 22L6 22L6 23L7 23L7 24L5 24L5 25L7 25L7 24L8 24L8 27L9 27L9 28L10 28L10 29L8 29L8 30L10 30L10 31L8 31L8 33L9 33L9 32L10 32L10 33L12 33L12 32L13 32L13 33L14 33L14 32L13 32L13 31L11 31L11 30L12 30L12 29L11 29L11 28L14 28L14 29L13 29L13 30L14 30L14 31L15 31L15 32L16 32L16 33L17 33L17 32L19 32L19 31L17 31L17 29L18 29L18 30L19 30L19 29L20 29L20 30L21 30L21 31L20 31L20 33L23 33L23 32L24 32L24 33L26 33L26 32L27 32L27 31L26 31L26 30L27 30L27 29L28 29L28 33L29 33L29 32L30 32L30 30L29 30L29 29L30 29L30 25L29 25L29 24L28 24L28 19L29 19L29 20L30 20L30 19L29 19L29 18L28 18L28 19L27 19L27 21L26 21L26 23L25 23L25 22L24 22L24 23L23 23L23 22L22 22L22 23L21 23L21 22L19 22L19 21L16 21L16 22L17 22L17 23L16 23L16 24L14 24L14 22L15 22L15 21L14 21L14 20L13 20L13 19L15 19L15 20L16 20L16 19L17 19L17 20L18 20L18 19L19 19L19 18L17 18L17 17L20 17L20 21L23 21L23 20L24 20L24 21L25 21L25 20L26 20L26 17L27 17L27 16L28 16L28 17L29 17L29 16L30 16L30 15L32 15L32 14L33 14L33 9L32 9L32 8L30 8L30 9L29 9L29 8L26 8L26 10L25 10L25 6L24 6L24 7L23 7L23 6L22 6L22 5L25 5L25 2L24 2L24 1L25 1L25 0L19 0L19 1L20 1L20 3L19 3L19 2L17 2L17 0L15 0L15 4L13 4L13 5L14 5L14 7L15 7L15 8L16 8L16 11L15 11L15 9L14 9L14 8L13 8L13 6L12 6L12 5L11 5L11 6L10 6L10 5L9 5L9 4L12 4L12 3L13 3L13 2L14 2L14 0L12 0L12 1L11 1L11 2L9 2L9 1L10 1L10 0ZM22 1L22 2L21 2L21 3L20 3L20 4L19 4L19 3L16 3L16 6L15 6L15 7L16 7L16 8L17 8L17 9L18 9L18 10L20 10L20 11L16 11L16 12L19 12L19 13L15 13L15 14L14 14L14 13L13 13L13 15L14 15L14 16L13 16L13 17L11 17L11 16L12 16L12 14L11 14L11 16L10 16L10 13L12 13L12 12L13 12L13 11L14 11L14 10L13 10L13 8L12 8L12 6L11 6L11 7L10 7L10 6L9 6L9 7L10 7L10 8L8 8L8 9L9 9L9 10L8 10L8 11L9 11L9 12L7 12L7 11L6 11L6 12L7 12L7 13L6 13L6 14L7 14L7 13L9 13L9 15L6 15L6 16L7 16L7 17L5 17L5 16L4 16L4 15L5 15L5 14L3 14L3 12L2 12L2 14L3 14L3 16L4 16L4 17L5 17L5 18L8 18L8 19L4 19L4 18L2 18L2 19L4 19L4 20L5 20L5 21L6 21L6 22L7 22L7 23L12 23L12 24L9 24L9 26L10 26L10 27L11 27L11 26L12 26L12 27L14 27L14 28L15 28L15 29L14 29L14 30L15 30L15 31L16 31L16 32L17 32L17 31L16 31L16 29L17 29L17 28L15 28L15 27L17 27L17 25L15 25L15 26L14 26L14 25L12 25L12 24L13 24L13 23L12 23L12 21L13 21L13 20L11 20L11 19L13 19L13 17L14 17L14 18L15 18L15 19L16 19L16 18L15 18L15 17L14 17L14 16L16 16L16 15L17 15L17 14L18 14L18 16L20 16L20 17L21 17L21 16L20 16L20 15L23 15L23 14L24 14L24 11L25 11L25 13L26 13L26 12L27 12L27 14L26 14L26 15L25 15L25 16L23 16L23 17L22 17L22 18L23 18L23 19L22 19L22 20L23 20L23 19L25 19L25 16L26 16L26 15L27 15L27 14L28 14L28 16L29 16L29 14L31 14L31 12L32 12L32 10L31 10L31 11L30 11L30 12L29 12L29 11L28 11L28 12L27 12L27 11L25 11L25 10L24 10L24 9L23 9L23 8L22 8L22 10L21 10L21 9L20 9L20 8L21 8L21 7L22 7L22 6L21 6L21 7L20 7L20 6L19 6L19 5L21 5L21 4L23 4L23 1ZM16 6L16 7L17 7L17 8L18 8L18 9L19 9L19 8L18 8L18 7L19 7L19 6L18 6L18 7L17 7L17 6ZM10 8L10 10L9 10L9 11L11 11L11 10L12 10L12 9L11 9L11 8ZM28 9L28 10L29 10L29 9ZM22 10L22 11L21 11L21 14L22 14L22 13L23 13L23 10ZM19 13L19 14L20 14L20 13ZM28 13L28 14L29 14L29 13ZM8 16L8 17L9 17L9 18L10 18L10 19L8 19L8 20L6 20L6 21L8 21L8 22L9 22L9 21L11 21L11 20L10 20L10 19L11 19L11 18L10 18L10 17L9 17L9 16ZM32 16L32 17L33 17L33 16ZM23 17L23 18L24 18L24 17ZM31 18L31 19L32 19L32 20L33 20L33 18ZM8 20L8 21L9 21L9 20ZM29 21L29 22L31 22L31 23L33 23L33 21ZM17 23L17 24L18 24L18 25L20 25L20 24L21 24L21 23L20 23L20 24L18 24L18 23ZM26 23L26 24L27 24L27 23ZM23 24L23 25L22 25L22 26L23 26L23 27L24 27L24 24ZM10 25L10 26L11 26L11 25ZM25 25L25 28L28 28L28 25ZM31 25L31 27L32 27L32 29L31 29L31 31L33 31L33 27L32 27L32 26L33 26L33 25ZM18 26L18 29L19 29L19 28L20 28L20 29L21 29L21 28L20 28L20 26ZM26 26L26 27L27 27L27 26ZM22 28L22 29L24 29L24 30L23 30L23 31L22 31L22 32L23 32L23 31L24 31L24 30L25 30L25 29L24 29L24 28ZM10 29L10 30L11 30L11 29ZM25 31L25 32L26 32L26 31ZM31 32L31 33L32 33L32 32ZM0 0L0 7L7 7L7 0ZM1 1L1 6L6 6L6 1ZM2 2L2 5L5 5L5 2ZM26 0L26 7L33 7L33 0ZM27 1L27 6L32 6L32 1ZM28 2L28 5L31 5L31 2ZM0 26L0 33L7 33L7 26ZM1 27L1 32L6 32L6 27ZM2 28L2 31L5 31L5 28Z" fill="#000000"/></g></g></svg>
