<?xml version="1.0" encoding="UTF-8"?>
<svg xmlns="http://www.w3.org/2000/svg" version="1.1" width="400" height="400" viewBox="0 0 400 400"><rect x="0" y="0" width="400" height="400" fill="#fefefe"/><g transform="scale(9.756)"><g transform="translate(4,4)"><path fill-rule="evenodd" d="M8 0L8 1L9 1L9 2L10 2L10 3L11 3L11 1L13 1L13 0L11 0L11 1L9 1L9 0ZM16 0L16 1L17 1L17 2L16 2L16 4L19 4L19 5L16 5L16 8L15 8L15 6L14 6L14 5L15 5L15 3L14 3L14 2L15 2L15 1L14 1L14 2L12 2L12 4L11 4L11 5L10 5L10 4L9 4L9 5L10 5L10 8L9 8L9 6L8 6L8 8L9 8L9 10L8 10L8 9L7 9L7 8L6 8L6 9L7 9L7 10L5 10L5 8L3 8L3 9L2 9L2 8L0 8L0 9L1 9L1 10L0 10L0 11L1 11L1 10L3 10L3 11L2 11L2 12L1 12L1 14L0 14L0 15L3 15L3 14L5 14L5 15L4 15L4 16L3 16L3 17L2 17L2 16L0 16L0 20L4 20L4 21L3 21L3 22L2 22L2 24L1 24L1 21L0 21L0 25L7 25L7 24L9 24L9 25L8 25L8 26L13 26L13 27L14 27L14 28L13 28L13 29L12 29L12 28L11 28L11 27L9 27L9 28L8 28L8 30L9 30L9 31L8 31L8 33L9 33L9 31L10 31L10 32L12 32L12 31L13 31L13 32L14 32L14 31L16 31L16 32L15 32L15 33L18 33L18 32L17 32L17 31L18 31L18 29L17 29L17 30L16 30L16 28L15 28L15 27L16 27L16 26L17 26L17 24L18 24L18 23L19 23L19 22L20 22L20 20L21 20L21 19L20 19L20 18L21 18L21 16L20 16L20 17L19 17L19 15L21 15L21 14L19 14L19 13L21 13L21 10L20 10L20 7L21 7L21 6L20 6L20 7L19 7L19 5L20 5L20 4L22 4L22 9L23 9L23 11L22 11L22 15L23 15L23 14L24 14L24 15L25 15L25 16L26 16L26 18L27 18L27 19L26 19L26 20L27 20L27 22L25 22L25 20L22 20L22 21L21 21L21 23L24 23L24 24L22 24L22 26L21 26L21 27L20 27L20 26L19 26L19 27L18 27L18 28L20 28L20 29L19 29L19 31L20 31L20 32L19 32L19 33L21 33L21 31L23 31L23 32L22 32L22 33L23 33L23 32L24 32L24 33L25 33L25 32L24 32L24 31L25 31L25 30L24 30L24 29L27 29L27 31L26 31L26 32L27 32L27 33L30 33L30 32L33 32L33 30L32 30L32 31L30 31L30 32L28 32L28 31L29 31L29 30L31 30L31 29L33 29L33 28L32 28L32 27L30 27L30 28L31 28L31 29L29 29L29 25L30 25L30 26L31 26L31 25L32 25L32 24L33 24L33 22L32 22L32 23L30 23L30 22L29 22L29 21L30 21L30 20L31 20L31 21L32 21L32 19L33 19L33 15L31 15L31 13L30 13L30 12L32 12L32 13L33 13L33 12L32 12L32 11L33 11L33 10L30 10L30 12L29 12L29 9L28 9L28 12L27 12L27 10L26 10L26 9L27 9L27 8L26 8L26 9L25 9L25 8L24 8L24 9L23 9L23 6L24 6L24 7L25 7L25 4L24 4L24 3L25 3L25 0L24 0L24 3L22 3L22 2L23 2L23 0L22 0L22 2L21 2L21 0L20 0L20 1L19 1L19 2L21 2L21 3L20 3L20 4L19 4L19 3L17 3L17 2L18 2L18 0ZM12 4L12 5L11 5L11 7L12 7L12 9L10 9L10 10L9 10L9 11L8 11L8 10L7 10L7 11L6 11L6 12L9 12L9 11L10 11L10 10L12 10L12 11L13 11L13 13L11 13L11 12L10 12L10 13L9 13L9 14L8 14L8 13L5 13L5 11L3 11L3 12L2 12L2 13L5 13L5 14L7 14L7 15L5 15L5 16L8 16L8 17L9 17L9 16L11 16L11 17L10 17L10 18L11 18L11 17L12 17L12 16L14 16L14 15L15 15L15 13L16 13L16 11L13 11L13 10L15 10L15 8L13 8L13 7L14 7L14 6L13 6L13 7L12 7L12 5L14 5L14 4ZM23 4L23 5L24 5L24 4ZM17 6L17 8L19 8L19 7L18 7L18 6ZM32 8L32 9L33 9L33 8ZM3 9L3 10L4 10L4 9ZM12 9L12 10L13 10L13 9ZM16 9L16 10L17 10L17 11L18 11L18 9ZM24 9L24 10L25 10L25 11L24 11L24 12L25 12L25 13L24 13L24 14L25 14L25 13L26 13L26 16L27 16L27 13L26 13L26 10L25 10L25 9ZM19 10L19 11L20 11L20 10ZM14 12L14 13L13 13L13 14L11 14L11 16L12 16L12 15L14 15L14 13L15 13L15 12ZM17 12L17 13L18 13L18 12ZM28 12L28 15L29 15L29 16L30 16L30 17L31 17L31 16L30 16L30 14L29 14L29 12ZM16 14L16 16L15 16L15 18L17 18L17 20L16 20L16 19L15 19L15 20L13 20L13 19L14 19L14 17L13 17L13 18L12 18L12 19L10 19L10 20L8 20L8 21L10 21L10 22L11 22L11 20L12 20L12 22L13 22L13 25L14 25L14 27L15 27L15 25L16 25L16 24L17 24L17 23L18 23L18 22L19 22L19 20L18 20L18 18L17 18L17 17L18 17L18 15L19 15L19 14ZM16 16L16 17L17 17L17 16ZM22 16L22 18L23 18L23 19L24 19L24 18L25 18L25 17L24 17L24 16ZM5 17L5 18L4 18L4 20L5 20L5 19L6 19L6 20L7 20L7 19L8 19L8 18L7 18L7 17ZM23 17L23 18L24 18L24 17ZM1 18L1 19L3 19L3 18ZM6 18L6 19L7 19L7 18ZM28 18L28 21L29 21L29 20L30 20L30 19L32 19L32 18L30 18L30 19L29 19L29 18ZM15 20L15 23L14 23L14 25L15 25L15 24L16 24L16 20ZM17 20L17 21L18 21L18 20ZM6 21L6 22L5 22L5 24L7 24L7 23L6 23L6 22L7 22L7 21ZM3 22L3 24L4 24L4 22ZM8 22L8 23L9 23L9 22ZM28 22L28 23L25 23L25 24L29 24L29 22ZM10 23L10 24L12 24L12 23ZM19 24L19 25L21 25L21 24ZM30 24L30 25L31 25L31 24ZM23 25L23 26L22 26L22 27L21 27L21 29L22 29L22 30L23 30L23 26L24 26L24 25ZM25 25L25 28L28 28L28 25ZM26 26L26 27L27 27L27 26ZM10 28L10 29L9 29L9 30L10 30L10 31L11 31L11 30L12 30L12 29L11 29L11 28ZM13 29L13 30L14 30L14 29ZM28 29L28 30L29 30L29 29ZM0 0L0 7L7 7L7 0ZM1 1L1 6L6 6L6 1ZM2 2L2 5L5 5L5 2ZM26 0L26 7L33 7L33 0ZM27 1L27 6L32 6L32 1ZM28 2L28 5L31 5L31 2ZM0 26L0 33L7 33L7 26ZM1 27L1 32L6 32L6 27ZM2 28L2 31L5 31L5 28Z" fill="#000000"/></g></g></svg>
