<?xml version="1.0" encoding="UTF-8"?>
<svg xmlns="http://www.w3.org/2000/svg" version="1.1" width="400" height="400" viewBox="0 0 400 400"><rect x="0" y="0" width="400" height="400" fill="#fefefe"/><g transform="scale(9.756)"><g transform="translate(4,4)"><path fill-rule="evenodd" d="M9 0L9 1L10 1L10 0ZM12 0L12 2L11 2L11 4L10 4L10 2L9 2L9 3L8 3L8 5L9 5L9 4L10 4L10 8L9 8L9 10L8 10L8 8L5 8L5 9L2 9L2 8L0 8L0 11L1 11L1 13L3 13L3 14L4 14L4 13L3 13L3 11L4 11L4 10L5 10L5 12L6 12L6 13L5 13L5 15L2 15L2 14L1 14L1 15L0 15L0 16L1 16L1 17L0 17L0 18L1 18L1 17L2 17L2 19L3 19L3 23L2 23L2 24L1 24L1 22L2 22L2 20L1 20L1 19L0 19L0 20L1 20L1 21L0 21L0 25L4 25L4 24L5 24L5 25L7 25L7 24L5 24L5 23L4 23L4 22L6 22L6 23L8 23L8 24L10 24L10 25L8 25L8 28L9 28L9 26L12 26L12 28L13 28L13 29L11 29L11 27L10 27L10 29L9 29L9 30L10 30L10 31L14 31L14 32L13 32L13 33L14 33L14 32L15 32L15 33L16 33L16 32L17 32L17 33L18 33L18 32L17 32L17 31L18 31L18 30L17 30L17 29L18 29L18 28L19 28L19 27L18 27L18 28L17 28L17 29L16 29L16 28L15 28L15 27L17 27L17 23L19 23L19 26L20 26L20 23L22 23L22 26L21 26L21 27L20 27L20 29L19 29L19 31L20 31L20 33L21 33L21 31L22 31L22 32L23 32L23 33L26 33L26 31L25 31L25 30L24 30L24 29L27 29L27 31L29 31L29 29L30 29L30 30L31 30L31 29L33 29L33 27L32 27L32 26L33 26L33 25L32 25L32 24L33 24L33 23L30 23L30 24L29 24L29 23L28 23L28 22L29 22L29 21L30 21L30 20L31 20L31 19L30 19L30 18L32 18L32 20L33 20L33 17L32 17L32 16L33 16L33 15L32 15L32 14L33 14L33 12L32 12L32 10L29 10L29 9L30 9L30 8L28 8L28 10L27 10L27 12L26 12L26 9L23 9L23 10L22 10L22 11L23 11L23 12L22 12L22 14L21 14L21 12L19 12L19 10L20 10L20 11L21 11L21 6L22 6L22 7L23 7L23 8L25 8L25 5L24 5L24 4L25 4L25 2L23 2L23 0L22 0L22 2L21 2L21 3L20 3L20 2L19 2L19 3L16 3L16 4L19 4L19 5L21 5L21 6L20 6L20 7L19 7L19 6L18 6L18 8L17 8L17 6L16 6L16 8L15 8L15 11L18 11L18 13L17 13L17 12L16 12L16 13L15 13L15 12L14 12L14 14L15 14L15 15L14 15L14 16L13 16L13 14L12 14L12 11L14 11L14 10L13 10L13 9L14 9L14 8L13 8L13 6L14 6L14 7L15 7L15 6L14 6L14 5L13 5L13 4L15 4L15 3L13 3L13 2L14 2L14 1L13 1L13 0ZM16 0L16 1L18 1L18 0ZM20 0L20 1L21 1L21 0ZM24 0L24 1L25 1L25 0ZM12 3L12 4L13 4L13 3ZM19 3L19 4L20 4L20 3ZM22 3L22 6L23 6L23 7L24 7L24 5L23 5L23 4L24 4L24 3ZM11 5L11 7L12 7L12 5ZM8 6L8 7L9 7L9 6ZM10 8L10 9L12 9L12 8ZM16 8L16 10L18 10L18 9L17 9L17 8ZM19 8L19 9L20 9L20 8ZM1 9L1 10L2 10L2 11L3 11L3 10L2 10L2 9ZM6 9L6 10L7 10L7 9ZM9 10L9 11L6 11L6 12L7 12L7 13L6 13L6 14L7 14L7 15L6 15L6 16L8 16L8 17L5 17L5 18L4 18L4 17L3 17L3 19L5 19L5 20L4 20L4 21L5 21L5 20L10 20L10 21L6 21L6 22L8 22L8 23L9 23L9 22L10 22L10 21L11 21L11 20L14 20L14 21L13 21L13 28L14 28L14 29L13 29L13 30L14 30L14 29L15 29L15 28L14 28L14 27L15 27L15 26L14 26L14 22L15 22L15 20L16 20L16 19L14 19L14 17L15 17L15 18L16 18L16 16L18 16L18 15L21 15L21 16L19 16L19 17L21 17L21 18L20 18L20 20L18 20L18 17L17 17L17 20L18 20L18 21L16 21L16 23L17 23L17 22L19 22L19 23L20 23L20 22L21 22L21 21L23 21L23 20L25 20L25 21L26 21L26 22L23 22L23 23L24 23L24 24L25 24L25 23L26 23L26 24L28 24L28 23L26 23L26 22L27 22L27 18L26 18L26 17L27 17L27 14L29 14L29 17L28 17L28 18L30 18L30 17L31 17L31 16L30 16L30 14L29 14L29 10L28 10L28 12L27 12L27 14L25 14L25 15L24 15L24 14L22 14L22 15L21 15L21 14L17 14L17 15L16 15L16 16L14 16L14 17L13 17L13 19L9 19L9 15L12 15L12 14L11 14L11 11L12 11L12 10L11 10L11 11L10 11L10 10ZM23 10L23 11L25 11L25 10ZM9 11L9 13L8 13L8 15L9 15L9 14L10 14L10 11ZM24 12L24 13L25 13L25 12ZM30 12L30 13L32 13L32 12ZM11 16L11 17L12 17L12 16ZM22 16L22 17L23 17L23 18L21 18L21 19L22 19L22 20L23 20L23 19L24 19L24 18L25 18L25 17L23 17L23 16ZM5 18L5 19L8 19L8 18ZM25 19L25 20L26 20L26 19ZM28 19L28 20L30 20L30 19ZM19 21L19 22L20 22L20 21ZM11 22L11 23L12 23L12 22ZM15 24L15 25L16 25L16 24ZM30 24L30 25L29 25L29 28L30 28L30 29L31 29L31 28L30 28L30 27L31 27L31 26L30 26L30 25L31 25L31 24ZM25 25L25 28L28 28L28 25ZM22 26L22 27L21 27L21 29L20 29L20 31L21 31L21 30L23 30L23 29L24 29L24 27L23 27L23 26ZM26 26L26 27L27 27L27 26ZM22 28L22 29L23 29L23 28ZM32 30L32 31L33 31L33 30ZM8 31L8 33L9 33L9 31ZM15 31L15 32L16 32L16 31ZM23 31L23 32L25 32L25 31ZM30 31L30 32L29 32L29 33L30 33L30 32L31 32L31 33L32 33L32 32L31 32L31 31ZM10 32L10 33L11 33L11 32ZM0 0L0 7L7 7L7 0ZM1 1L1 6L6 6L6 1ZM2 2L2 5L5 5L5 2ZM26 0L26 7L33 7L33 0ZM27 1L27 6L32 6L32 1ZM28 2L28 5L31 5L31 2ZM0 26L0 33L7 33L7 26ZM1 27L1 32L6 32L6 27ZM2 28L2 31L5 31L5 28Z" fill="#000000"/></g></g></svg>
