<?xml version="1.0" encoding="UTF-8"?>
<svg xmlns="http://www.w3.org/2000/svg" version="1.1" width="400" height="400" viewBox="0 0 400 400"><rect x="0" y="0" width="400" height="400" fill="#fefefe"/><g transform="scale(9.756)"><g transform="translate(4,4)"><path fill-rule="evenodd" d="M8 0L8 4L10 4L10 3L11 3L11 4L12 4L12 2L11 2L11 0ZM12 0L12 1L13 1L13 0ZM15 0L15 1L14 1L14 2L15 2L15 1L16 1L16 0ZM20 0L20 1L18 1L18 2L16 2L16 3L15 3L15 4L14 4L14 3L13 3L13 5L11 5L11 6L10 6L10 7L9 7L9 5L8 5L8 7L9 7L9 8L10 8L10 7L11 7L11 6L12 6L12 8L11 8L11 9L8 9L8 10L11 10L11 11L10 11L10 13L9 13L9 11L8 11L8 12L6 12L6 11L7 11L7 10L5 10L5 9L7 9L7 8L4 8L4 9L2 9L2 8L0 8L0 14L1 14L1 13L2 13L2 12L3 12L3 14L2 14L2 15L3 15L3 16L2 16L2 17L3 17L3 20L1 20L1 19L2 19L2 18L0 18L0 20L1 20L1 21L0 21L0 22L2 22L2 21L3 21L3 23L2 23L2 24L0 24L0 25L3 25L3 23L4 23L4 25L8 25L8 26L11 26L11 28L9 28L9 27L8 27L8 29L10 29L10 30L9 30L9 31L8 31L8 33L9 33L9 32L10 32L10 33L11 33L11 32L12 32L12 31L13 31L13 30L14 30L14 29L15 29L15 31L14 31L14 33L15 33L15 32L16 32L16 31L17 31L17 33L18 33L18 32L19 32L19 33L20 33L20 32L19 32L19 30L17 30L17 29L18 29L18 27L19 27L19 26L17 26L17 25L18 25L18 24L19 24L19 25L20 25L20 26L21 26L21 25L23 25L23 26L22 26L22 27L21 27L21 29L20 29L20 28L19 28L19 29L20 29L20 30L21 30L21 29L22 29L22 30L23 30L23 31L21 31L21 33L22 33L22 32L23 32L23 31L24 31L24 33L26 33L26 31L28 31L28 32L27 32L27 33L28 33L28 32L29 32L29 33L30 33L30 31L32 31L32 30L33 30L33 27L32 27L32 26L31 26L31 25L32 25L32 24L33 24L33 23L31 23L31 22L32 22L32 21L33 21L33 19L32 19L32 18L31 18L31 17L30 17L30 18L28 18L28 17L29 17L29 16L30 16L30 14L31 14L31 16L32 16L32 17L33 17L33 16L32 16L32 14L31 14L31 13L29 13L29 10L27 10L27 11L26 11L26 10L24 10L24 9L25 9L25 6L24 6L24 7L23 7L23 6L22 6L22 7L21 7L21 6L20 6L20 5L25 5L25 0L23 0L23 1L22 1L22 0ZM21 1L21 2L22 2L22 3L21 3L21 4L22 4L22 3L23 3L23 2L24 2L24 1L23 1L23 2L22 2L22 1ZM9 2L9 3L10 3L10 2ZM18 2L18 3L17 3L17 4L16 4L16 5L15 5L15 7L14 7L14 5L13 5L13 8L12 8L12 9L11 9L11 10L12 10L12 9L14 9L14 11L12 11L12 12L11 12L11 13L10 13L10 14L11 14L11 15L10 15L10 16L9 16L9 14L8 14L8 13L6 13L6 14L5 14L5 15L4 15L4 14L3 14L3 15L4 15L4 16L5 16L5 15L6 15L6 16L7 16L7 15L6 15L6 14L8 14L8 17L6 17L6 18L5 18L5 17L4 17L4 20L5 20L5 21L4 21L4 23L5 23L5 24L8 24L8 25L9 25L9 22L10 22L10 23L11 23L11 25L12 25L12 24L13 24L13 25L14 25L14 26L13 26L13 28L11 28L11 29L14 29L14 28L15 28L15 29L17 29L17 26L16 26L16 28L15 28L15 25L14 25L14 22L15 22L15 21L16 21L16 20L17 20L17 19L18 19L18 21L17 21L17 23L15 23L15 24L16 24L16 25L17 25L17 23L20 23L20 25L21 25L21 22L20 22L20 21L21 21L21 19L22 19L22 24L23 24L23 25L24 25L24 24L23 24L23 18L22 18L22 17L25 17L25 16L22 16L22 17L19 17L19 18L18 18L18 17L17 17L17 19L16 19L16 20L15 20L15 18L16 18L16 17L14 17L14 16L17 16L17 14L16 14L16 15L15 15L15 13L14 13L14 12L15 12L15 9L17 9L17 10L16 10L16 11L18 11L18 12L19 12L19 11L20 11L20 12L21 12L21 11L20 11L20 10L22 10L22 11L23 11L23 10L22 10L22 9L24 9L24 8L23 8L23 7L22 7L22 9L19 9L19 10L18 10L18 9L17 9L17 7L18 7L18 6L19 6L19 8L20 8L20 6L19 6L19 5L20 5L20 2ZM18 3L18 5L19 5L19 3ZM16 6L16 7L15 7L15 8L14 8L14 9L15 9L15 8L16 8L16 7L17 7L17 6ZM27 8L27 9L28 9L28 8ZM29 8L29 9L31 9L31 12L32 12L32 13L33 13L33 12L32 12L32 9L33 9L33 8ZM2 10L2 11L3 11L3 12L4 12L4 13L5 13L5 11L3 11L3 10ZM25 11L25 12L22 12L22 13L19 13L19 15L18 15L18 16L21 16L21 15L20 15L20 14L22 14L22 13L25 13L25 14L24 14L24 15L25 15L25 14L26 14L26 16L27 16L27 17L26 17L26 18L27 18L27 17L28 17L28 16L27 16L27 15L28 15L28 14L29 14L29 13L28 13L28 11L27 11L27 13L25 13L25 12L26 12L26 11ZM12 12L12 13L13 13L13 14L14 14L14 13L13 13L13 12ZM16 12L16 13L17 13L17 12ZM27 13L27 14L28 14L28 13ZM12 15L12 16L10 16L10 17L8 17L8 18L6 18L6 19L10 19L10 20L9 20L9 21L8 21L8 20L6 20L6 21L5 21L5 23L7 23L7 22L9 22L9 21L10 21L10 20L11 20L11 23L12 23L12 20L13 20L13 19L14 19L14 17L13 17L13 15ZM10 17L10 18L12 18L12 17ZM20 18L20 19L21 19L21 18ZM26 19L26 20L25 20L25 21L26 21L26 22L24 22L24 23L26 23L26 24L28 24L28 23L27 23L27 22L31 22L31 20L32 20L32 19L30 19L30 21L26 21L26 20L27 20L27 19ZM14 20L14 21L13 21L13 22L14 22L14 21L15 21L15 20ZM6 21L6 22L7 22L7 21ZM30 23L30 24L29 24L29 26L30 26L30 25L31 25L31 23ZM25 25L25 28L28 28L28 25ZM23 26L23 27L22 27L22 29L24 29L24 31L25 31L25 29L24 29L24 28L23 28L23 27L24 27L24 26ZM26 26L26 27L27 27L27 26ZM30 27L30 29L29 29L29 31L30 31L30 29L32 29L32 28L31 28L31 27ZM10 30L10 32L11 32L11 30ZM32 32L32 33L33 33L33 32ZM0 0L0 7L7 7L7 0ZM1 1L1 6L6 6L6 1ZM2 2L2 5L5 5L5 2ZM26 0L26 7L33 7L33 0ZM27 1L27 6L32 6L32 1ZM28 2L28 5L31 5L31 2ZM0 26L0 33L7 33L7 26ZM1 27L1 32L6 32L6 27ZM2 28L2 31L5 31L5 28Z" fill="#000000"/></g></g></svg>
