<?xml version="1.0" encoding="UTF-8"?>
<svg xmlns="http://www.w3.org/2000/svg" version="1.1" width="400" height="400" viewBox="0 0 400 400"><rect x="0" y="0" width="400" height="400" fill="#fefefe"/><g transform="scale(9.756)"><g transform="translate(4,4)"><path fill-rule="evenodd" d="M8 0L8 4L10 4L10 3L11 3L11 4L12 4L12 2L11 2L11 0ZM12 0L12 1L13 1L13 0ZM15 0L15 1L14 1L14 2L15 2L15 1L16 1L16 0ZM20 0L20 1L17 1L17 2L16 2L16 3L15 3L15 4L14 4L14 3L13 3L13 5L11 5L11 6L10 6L10 7L9 7L9 5L8 5L8 7L9 7L9 8L10 8L10 7L11 7L11 6L12 6L12 8L11 8L11 9L8 9L8 10L11 10L11 11L10 11L10 13L11 13L11 12L12 12L12 13L13 13L13 14L14 14L14 13L15 13L15 15L16 15L16 14L17 14L17 16L14 16L14 17L13 17L13 15L12 15L12 16L10 16L10 15L9 15L9 16L8 16L8 14L9 14L9 11L7 11L7 10L6 10L6 9L7 9L7 8L4 8L4 10L2 10L2 8L0 8L0 10L2 10L2 11L4 11L4 10L6 10L6 11L5 11L5 12L3 12L3 13L4 13L4 16L3 16L3 17L4 17L4 18L3 18L3 20L2 20L2 21L0 21L0 22L2 22L2 23L7 23L7 24L6 24L6 25L8 25L8 26L9 26L9 27L8 27L8 29L9 29L9 28L10 28L10 30L9 30L9 31L8 31L8 33L10 33L10 32L11 32L11 31L12 31L12 32L13 32L13 31L12 31L12 30L14 30L14 29L15 29L15 31L14 31L14 33L15 33L15 32L16 32L16 31L17 31L17 33L18 33L18 32L19 32L19 33L23 33L23 31L24 31L24 33L25 33L25 32L26 32L26 31L27 31L27 29L28 29L28 32L27 32L27 33L28 33L28 32L29 32L29 33L30 33L30 31L32 31L32 30L33 30L33 27L32 27L32 26L31 26L31 25L32 25L32 24L33 24L33 23L31 23L31 22L32 22L32 21L33 21L33 19L32 19L32 18L31 18L31 17L30 17L30 18L29 18L29 19L27 19L27 18L26 18L26 17L29 17L29 16L30 16L30 14L31 14L31 16L32 16L32 17L33 17L33 16L32 16L32 14L31 14L31 13L29 13L29 10L26 10L26 11L28 11L28 13L27 13L27 12L25 12L25 10L24 10L24 9L25 9L25 8L24 8L24 9L22 9L22 7L23 7L23 6L22 6L22 7L21 7L21 6L20 6L20 5L25 5L25 3L24 3L24 2L23 2L23 1L25 1L25 0L23 0L23 1L22 1L22 0ZM20 1L20 3L19 3L19 5L18 5L18 3L17 3L17 4L16 4L16 5L15 5L15 7L14 7L14 5L13 5L13 8L12 8L12 9L11 9L11 10L12 10L12 9L14 9L14 11L12 11L12 12L13 12L13 13L14 13L14 12L15 12L15 9L17 9L17 10L16 10L16 11L18 11L18 12L19 12L19 11L20 11L20 12L21 12L21 10L22 10L22 13L24 13L24 15L25 15L25 16L22 16L22 17L19 17L19 18L18 18L18 17L17 17L17 19L16 19L16 20L15 20L15 18L16 18L16 17L14 17L14 19L13 19L13 20L12 20L12 23L11 23L11 24L8 24L8 25L9 25L9 26L11 26L11 25L12 25L12 24L13 24L13 25L14 25L14 26L13 26L13 28L12 28L12 27L11 27L11 29L14 29L14 28L15 28L15 29L17 29L17 30L19 30L19 31L20 31L20 32L21 32L21 31L23 31L23 29L24 29L24 24L28 24L28 23L27 23L27 22L31 22L31 20L32 20L32 19L30 19L30 21L26 21L26 20L27 20L27 19L26 19L26 20L25 20L25 21L26 21L26 23L24 23L24 24L23 24L23 20L22 20L22 25L19 25L19 24L18 24L18 25L17 25L17 23L20 23L20 24L21 24L21 22L20 22L20 21L21 21L21 20L20 20L20 21L19 21L19 19L20 19L20 18L21 18L21 19L23 19L23 18L22 18L22 17L25 17L25 16L28 16L28 15L29 15L29 13L28 13L28 15L27 15L27 13L24 13L24 12L23 12L23 10L22 10L22 9L21 9L21 7L20 7L20 6L19 6L19 5L20 5L20 3L21 3L21 4L22 4L22 3L23 3L23 4L24 4L24 3L23 3L23 2L22 2L22 1ZM9 2L9 3L10 3L10 2ZM21 2L21 3L22 3L22 2ZM17 5L17 6L16 6L16 7L15 7L15 8L14 8L14 9L15 9L15 8L16 8L16 7L17 7L17 9L18 9L18 10L19 10L19 9L20 9L20 10L21 10L21 9L20 9L20 8L18 8L18 7L19 7L19 6L18 6L18 5ZM17 6L17 7L18 7L18 6ZM24 6L24 7L25 7L25 6ZM27 8L27 9L28 9L28 8ZM29 8L29 9L31 9L31 12L32 12L32 13L33 13L33 12L32 12L32 9L33 9L33 8ZM6 11L6 12L5 12L5 14L8 14L8 12L7 12L7 11ZM0 12L0 14L1 14L1 12ZM6 12L6 13L7 13L7 12ZM16 12L16 13L17 13L17 12ZM19 13L19 15L18 15L18 16L20 16L20 14L21 14L21 13ZM2 14L2 15L0 15L0 17L2 17L2 15L3 15L3 14ZM5 15L5 17L6 17L6 18L5 18L5 21L4 21L4 20L3 20L3 21L4 21L4 22L5 22L5 21L6 21L6 22L7 22L7 21L8 21L8 23L10 23L10 21L8 21L8 20L7 20L7 19L6 19L6 18L9 18L9 20L11 20L11 19L10 19L10 17L8 17L8 16L7 16L7 15ZM6 16L6 17L7 17L7 16ZM11 17L11 18L12 18L12 17ZM0 19L0 20L1 20L1 19ZM17 19L17 20L16 20L16 21L15 21L15 20L14 20L14 21L13 21L13 22L14 22L14 25L15 25L15 28L16 28L16 26L17 26L17 29L18 29L18 27L19 27L19 26L17 26L17 25L16 25L16 24L15 24L15 23L17 23L17 21L18 21L18 19ZM6 20L6 21L7 21L7 20ZM14 21L14 22L15 22L15 21ZM30 23L30 24L29 24L29 26L30 26L30 25L31 25L31 23ZM0 24L0 25L3 25L3 24ZM4 24L4 25L5 25L5 24ZM22 25L22 27L20 27L20 28L19 28L19 29L23 29L23 25ZM25 25L25 28L28 28L28 25ZM26 26L26 27L27 27L27 26ZM30 27L30 29L29 29L29 31L30 31L30 29L32 29L32 28L31 28L31 27ZM20 30L20 31L21 31L21 30ZM24 30L24 31L25 31L25 30ZM9 31L9 32L10 32L10 31ZM32 32L32 33L33 33L33 32ZM0 0L0 7L7 7L7 0ZM1 1L1 6L6 6L6 1ZM2 2L2 5L5 5L5 2ZM26 0L26 7L33 7L33 0ZM27 1L27 6L32 6L32 1ZM28 2L28 5L31 5L31 2ZM0 26L0 33L7 33L7 26ZM1 27L1 32L6 32L6 27ZM2 28L2 31L5 31L5 28Z" fill="#000000"/></g></g></svg>
