<?xml version="1.0" encoding="UTF-8"?>
<svg xmlns="http://www.w3.org/2000/svg" version="1.1" width="400" height="400" viewBox="0 0 400 400"><rect x="0" y="0" width="400" height="400" fill="#fefefe"/><g transform="scale(9.756)"><g transform="translate(4,4)"><path fill-rule="evenodd" d="M8 0L8 1L9 1L9 2L10 2L10 3L11 3L11 1L13 1L13 0L11 0L11 1L9 1L9 0ZM16 0L16 1L17 1L17 2L16 2L16 4L17 4L17 5L16 5L16 8L15 8L15 6L14 6L14 5L15 5L15 3L14 3L14 2L15 2L15 1L14 1L14 2L12 2L12 4L11 4L11 5L10 5L10 4L9 4L9 5L10 5L10 8L9 8L9 6L8 6L8 8L9 8L9 10L10 10L10 11L8 11L8 9L7 9L7 8L6 8L6 9L7 9L7 10L5 10L5 11L4 11L4 10L3 10L3 9L5 9L5 8L3 8L3 9L2 9L2 8L0 8L0 11L1 11L1 12L0 12L0 14L1 14L1 15L2 15L2 16L3 16L3 18L2 18L2 17L1 17L1 19L0 19L0 20L1 20L1 19L2 19L2 23L3 23L3 24L1 24L1 21L0 21L0 25L3 25L3 24L4 24L4 25L5 25L5 23L4 23L4 22L5 22L5 21L7 21L7 22L6 22L6 23L7 23L7 24L6 24L6 25L8 25L8 26L9 26L9 28L8 28L8 30L9 30L9 29L10 29L10 30L11 30L11 31L10 31L10 33L11 33L11 31L12 31L12 30L13 30L13 32L14 32L14 31L16 31L16 32L15 32L15 33L18 33L18 32L17 32L17 31L18 31L18 29L17 29L17 30L16 30L16 28L15 28L15 27L16 27L16 26L17 26L17 24L18 24L18 23L19 23L19 25L20 25L20 26L19 26L19 27L18 27L18 28L20 28L20 26L21 26L21 25L20 25L20 24L21 24L21 23L23 23L23 24L24 24L24 25L23 25L23 27L22 27L22 30L21 30L21 31L22 31L22 33L23 33L23 32L24 32L24 33L26 33L26 32L27 32L27 31L25 31L25 29L29 29L29 30L28 30L28 33L30 33L30 32L33 32L33 30L32 30L32 31L30 31L30 32L29 32L29 30L31 30L31 29L33 29L33 28L32 28L32 27L30 27L30 28L31 28L31 29L29 29L29 25L30 25L30 26L31 26L31 25L32 25L32 24L33 24L33 22L32 22L32 23L30 23L30 22L29 22L29 21L30 21L30 20L31 20L31 21L32 21L32 19L33 19L33 15L31 15L31 13L30 13L30 12L32 12L32 13L33 13L33 12L32 12L32 11L33 11L33 10L30 10L30 12L29 12L29 9L27 9L27 8L26 8L26 9L27 9L27 10L25 10L25 9L23 9L23 8L24 8L24 7L25 7L25 6L24 6L24 5L23 5L23 3L22 3L22 2L23 2L23 0L22 0L22 2L21 2L21 0L20 0L20 1L18 1L18 0ZM24 0L24 1L25 1L25 0ZM17 2L17 3L19 3L19 4L18 4L18 5L19 5L19 8L20 8L20 5L21 5L21 10L19 10L19 14L16 14L16 16L15 16L15 18L17 18L17 20L16 20L16 19L15 19L15 20L13 20L13 19L14 19L14 17L13 17L13 18L12 18L12 19L11 19L11 17L12 17L12 16L14 16L14 15L15 15L15 13L16 13L16 11L13 11L13 10L15 10L15 8L13 8L13 7L14 7L14 6L13 6L13 7L12 7L12 5L14 5L14 4L12 4L12 5L11 5L11 7L12 7L12 9L10 9L10 10L12 10L12 11L13 11L13 13L11 13L11 12L10 12L10 13L9 13L9 12L8 12L8 11L6 11L6 12L5 12L5 13L3 13L3 12L4 12L4 11L3 11L3 10L2 10L2 9L1 9L1 10L2 10L2 12L1 12L1 14L2 14L2 15L4 15L4 17L5 17L5 16L7 16L7 17L6 17L6 18L7 18L7 19L6 19L6 20L8 20L8 21L9 21L9 22L8 22L8 23L9 23L9 24L10 24L10 25L11 25L11 24L12 24L12 23L10 23L10 22L11 22L11 21L10 21L10 20L8 20L8 19L11 19L11 20L12 20L12 22L13 22L13 25L14 25L14 27L13 27L13 28L12 28L12 26L10 26L10 29L11 29L11 30L12 30L12 29L13 29L13 30L14 30L14 29L13 29L13 28L14 28L14 27L15 27L15 25L16 25L16 24L17 24L17 23L18 23L18 22L19 22L19 23L20 23L20 22L21 22L21 21L22 21L22 15L23 15L23 16L24 16L24 17L23 17L23 18L24 18L24 19L23 19L23 20L26 20L26 22L27 22L27 23L29 23L29 22L28 22L28 21L29 21L29 20L30 20L30 19L32 19L32 18L30 18L30 19L29 19L29 20L28 20L28 19L27 19L27 18L26 18L26 16L25 16L25 15L28 15L28 14L29 14L29 16L30 16L30 17L31 17L31 16L30 16L30 14L29 14L29 12L28 12L28 10L27 10L27 12L28 12L28 14L27 14L27 13L26 13L26 11L23 11L23 9L22 9L22 4L20 4L20 2ZM24 2L24 4L25 4L25 2ZM19 4L19 5L20 5L20 4ZM17 6L17 8L18 8L18 6ZM23 6L23 7L24 7L24 6ZM32 8L32 9L33 9L33 8ZM12 9L12 10L13 10L13 9ZM16 9L16 10L17 10L17 11L18 11L18 9ZM21 10L21 11L22 11L22 10ZM6 12L6 13L5 13L5 14L4 14L4 15L7 15L7 16L8 16L8 17L7 17L7 18L8 18L8 17L9 17L9 18L10 18L10 17L9 17L9 16L12 16L12 15L14 15L14 13L15 13L15 12L14 12L14 13L13 13L13 14L11 14L11 15L10 15L10 14L9 14L9 15L7 15L7 14L8 14L8 13L7 13L7 12ZM17 12L17 13L18 13L18 12ZM22 12L22 14L21 14L21 13L20 13L20 14L19 14L19 15L18 15L18 17L17 17L17 16L16 16L16 17L17 17L17 18L18 18L18 20L17 20L17 21L18 21L18 20L19 20L19 22L20 22L20 19L21 19L21 18L20 18L20 17L19 17L19 16L21 16L21 15L22 15L22 14L24 14L24 15L25 15L25 14L26 14L26 13L24 13L24 12ZM6 13L6 14L7 14L7 13ZM20 14L20 15L21 15L21 14ZM24 17L24 18L25 18L25 17ZM4 18L4 19L5 19L5 18ZM26 19L26 20L27 20L27 19ZM3 20L3 21L5 21L5 20ZM15 20L15 23L14 23L14 25L15 25L15 24L16 24L16 20ZM24 22L24 23L25 23L25 24L26 24L26 23L25 23L25 22ZM30 24L30 25L31 25L31 24ZM25 25L25 28L28 28L28 25ZM26 26L26 27L27 27L27 26ZM23 27L23 28L24 28L24 27ZM19 29L19 31L20 31L20 29ZM23 29L23 30L24 30L24 29ZM8 31L8 33L9 33L9 31ZM24 31L24 32L25 32L25 31ZM19 32L19 33L21 33L21 32ZM0 0L0 7L7 7L7 0ZM1 1L1 6L6 6L6 1ZM2 2L2 5L5 5L5 2ZM26 0L26 7L33 7L33 0ZM27 1L27 6L32 6L32 1ZM28 2L28 5L31 5L31 2ZM0 26L0 33L7 33L7 26ZM1 27L1 32L6 32L6 27ZM2 28L2 31L5 31L5 28Z" fill="#000000"/></g></g></svg>
