<?xml version="1.0" encoding="UTF-8"?>
<svg xmlns="http://www.w3.org/2000/svg" version="1.1" width="400" height="400" viewBox="0 0 400 400"><rect x="0" y="0" width="400" height="400" fill="#fefefe"/><g transform="scale(9.756)"><g transform="translate(4,4)"><path fill-rule="evenodd" d="M9 0L9 1L8 1L8 3L9 3L9 4L8 4L8 8L6 8L6 9L4 9L4 8L3 8L3 9L2 9L2 8L0 8L0 12L1 12L1 13L0 13L0 14L1 14L1 13L2 13L2 11L3 11L3 9L4 9L4 10L5 10L5 11L4 11L4 12L3 12L3 13L5 13L5 14L2 14L2 16L1 16L1 15L0 15L0 17L2 17L2 19L1 19L1 18L0 18L0 19L1 19L1 20L0 20L0 21L1 21L1 22L0 22L0 23L1 23L1 24L0 24L0 25L1 25L1 24L2 24L2 25L3 25L3 24L2 24L2 23L4 23L4 25L7 25L7 24L6 24L6 23L8 23L8 24L10 24L10 25L11 25L11 24L12 24L12 25L14 25L14 26L15 26L15 25L17 25L17 27L15 27L15 28L14 28L14 27L13 27L13 26L11 26L11 27L13 27L13 28L14 28L14 29L13 29L13 30L12 30L12 29L11 29L11 28L10 28L10 26L9 26L9 25L8 25L8 27L9 27L9 28L10 28L10 29L8 29L8 30L9 30L9 31L8 31L8 33L9 33L9 31L10 31L10 30L12 30L12 32L10 32L10 33L12 33L12 32L13 32L13 33L14 33L14 32L13 32L13 30L14 30L14 31L15 31L15 32L16 32L16 33L17 33L17 32L19 32L19 33L23 33L23 32L24 32L24 33L25 33L25 31L26 31L26 30L27 30L27 29L28 29L28 31L29 31L29 32L26 32L26 33L29 33L29 32L30 32L30 30L29 30L29 29L30 29L30 25L29 25L29 24L26 24L26 23L29 23L29 22L31 22L31 23L33 23L33 21L29 21L29 22L28 22L28 20L30 20L30 19L27 19L27 21L26 21L26 22L25 22L25 24L24 24L24 25L23 25L23 22L22 22L22 23L21 23L21 22L19 22L19 21L16 21L16 22L17 22L17 23L16 23L16 24L14 24L14 22L15 22L15 21L14 21L14 20L13 20L13 19L15 19L15 20L16 20L16 19L17 19L17 20L18 20L18 19L19 19L19 18L17 18L17 17L20 17L20 21L23 21L23 20L24 20L24 21L25 21L25 20L26 20L26 17L27 17L27 18L28 18L28 17L29 17L29 16L30 16L30 15L32 15L32 14L33 14L33 9L32 9L32 8L30 8L30 9L29 9L29 8L26 8L26 10L25 10L25 6L24 6L24 7L23 7L23 6L22 6L22 5L25 5L25 2L24 2L24 1L25 1L25 0L19 0L19 1L20 1L20 2L19 2L19 3L18 3L18 0L15 0L15 4L13 4L13 5L14 5L14 7L15 7L15 8L16 8L16 11L15 11L15 9L14 9L14 8L13 8L13 6L12 6L12 5L11 5L11 6L10 6L10 5L9 5L9 4L12 4L12 3L13 3L13 2L14 2L14 0L12 0L12 1L11 1L11 2L9 2L9 1L10 1L10 0ZM22 1L22 2L20 2L20 4L19 4L19 5L18 5L18 3L16 3L16 6L15 6L15 7L16 7L16 8L17 8L17 9L18 9L18 10L20 10L20 11L16 11L16 12L19 12L19 13L15 13L15 14L14 14L14 13L13 13L13 15L14 15L14 16L13 16L13 17L11 17L11 18L10 18L10 14L9 14L9 13L12 13L12 12L13 12L13 11L14 11L14 10L13 10L13 8L12 8L12 6L11 6L11 7L10 7L10 6L9 6L9 7L10 7L10 8L8 8L8 9L9 9L9 10L7 10L7 9L6 9L6 10L7 10L7 11L6 11L6 12L7 12L7 11L9 11L9 12L8 12L8 14L9 14L9 15L8 15L8 16L7 16L7 15L6 15L6 14L7 14L7 13L6 13L6 14L5 14L5 16L4 16L4 15L3 15L3 16L4 16L4 17L3 17L3 21L5 21L5 22L8 22L8 21L5 21L5 19L4 19L4 17L5 17L5 18L7 18L7 19L6 19L6 20L7 20L7 19L9 19L9 23L10 23L10 24L11 24L11 23L12 23L12 24L13 24L13 23L12 23L12 21L13 21L13 20L10 20L10 19L13 19L13 17L14 17L14 18L15 18L15 19L16 19L16 18L15 18L15 17L14 17L14 16L16 16L16 15L17 15L17 14L18 14L18 16L20 16L20 17L21 17L21 16L20 16L20 15L22 15L22 16L23 16L23 17L22 17L22 19L25 19L25 16L23 16L23 14L24 14L24 9L23 9L23 11L22 11L22 10L20 10L20 9L21 9L21 7L22 7L22 8L23 8L23 7L22 7L22 6L21 6L21 4L23 4L23 1ZM17 5L17 6L16 6L16 7L17 7L17 8L18 8L18 9L19 9L19 8L20 8L20 7L21 7L21 6L20 6L20 5L19 5L19 6L18 6L18 5ZM17 6L17 7L18 7L18 8L19 8L19 7L20 7L20 6L19 6L19 7L18 7L18 6ZM10 8L10 10L9 10L9 11L11 11L11 10L12 10L12 9L11 9L11 8ZM1 9L1 11L2 11L2 9ZM28 9L28 11L27 11L27 14L26 14L26 13L25 13L25 14L26 14L26 16L29 16L29 14L31 14L31 12L32 12L32 10L31 10L31 11L30 11L30 12L29 12L29 9ZM20 11L20 13L19 13L19 14L22 14L22 13L23 13L23 12L22 12L22 11ZM25 11L25 12L26 12L26 11ZM28 13L28 14L29 14L29 13ZM11 14L11 16L12 16L12 14ZM5 16L5 17L7 17L7 18L8 18L8 17L9 17L9 16L8 16L8 17L7 17L7 16ZM32 16L32 17L33 17L33 16ZM23 17L23 18L24 18L24 17ZM31 18L31 19L32 19L32 20L33 20L33 18ZM10 22L10 23L11 23L11 22ZM17 23L17 24L18 24L18 25L20 25L20 26L18 26L18 29L17 29L17 28L15 28L15 29L14 29L14 30L15 30L15 31L16 31L16 32L17 32L17 31L19 31L19 32L21 32L21 31L20 31L20 29L21 29L21 27L23 27L23 28L22 28L22 29L23 29L23 30L22 30L22 32L23 32L23 30L25 30L25 29L24 29L24 26L23 26L23 25L22 25L22 26L21 26L21 23L20 23L20 24L18 24L18 23ZM25 25L25 28L28 28L28 25ZM31 25L31 27L32 27L32 29L31 29L31 31L33 31L33 27L32 27L32 26L33 26L33 25ZM26 26L26 27L27 27L27 26ZM19 28L19 29L18 29L18 30L19 30L19 29L20 29L20 28ZM16 29L16 31L17 31L17 29ZM31 32L31 33L32 33L32 32ZM0 0L0 7L7 7L7 0ZM1 1L1 6L6 6L6 1ZM2 2L2 5L5 5L5 2ZM26 0L26 7L33 7L33 0ZM27 1L27 6L32 6L32 1ZM28 2L28 5L31 5L31 2ZM0 26L0 33L7 33L7 26ZM1 27L1 32L6 32L6 27ZM2 28L2 31L5 31L5 28Z" fill="#000000"/></g></g></svg>
