<?xml version="1.0" encoding="UTF-8"?>
<svg xmlns="http://www.w3.org/2000/svg" version="1.1" width="400" height="400" viewBox="0 0 400 400"><rect x="0" y="0" width="400" height="400" fill="#fefefe"/><g transform="scale(9.756)"><g transform="translate(4,4)"><path fill-rule="evenodd" d="M9 0L9 1L8 1L8 2L9 2L9 3L8 3L8 4L9 4L9 3L10 3L10 5L8 5L8 7L9 7L9 8L6 8L6 9L5 9L5 8L0 8L0 9L1 9L1 10L3 10L3 11L1 11L1 12L0 12L0 15L1 15L1 12L3 12L3 14L2 14L2 16L1 16L1 17L0 17L0 20L1 20L1 21L0 21L0 25L1 25L1 22L2 22L2 23L3 23L3 24L5 24L5 25L7 25L7 24L9 24L9 25L8 25L8 27L11 27L11 28L13 28L13 29L10 29L10 30L12 30L12 31L9 31L9 28L8 28L8 33L10 33L10 32L13 32L13 33L14 33L14 32L15 32L15 33L16 33L16 32L17 32L17 33L18 33L18 32L17 32L17 31L16 31L16 30L17 30L17 29L18 29L18 28L24 28L24 30L26 30L26 31L28 31L28 32L26 32L26 33L28 33L28 32L31 32L31 33L32 33L32 32L31 32L31 31L32 31L32 30L31 30L31 29L33 29L33 28L32 28L32 26L33 26L33 23L30 23L30 24L32 24L32 25L30 25L30 26L31 26L31 27L30 27L30 28L29 28L29 24L26 24L26 23L25 23L25 21L26 21L26 22L27 22L27 23L28 23L28 21L30 21L30 20L31 20L31 19L32 19L32 20L33 20L33 19L32 19L32 18L33 18L33 17L32 17L32 14L33 14L33 13L32 13L32 10L33 10L33 9L32 9L32 8L31 8L31 9L32 9L32 10L29 10L29 12L27 12L27 11L26 11L26 12L25 12L25 11L23 11L23 10L28 10L28 8L27 8L27 9L26 9L26 8L25 8L25 4L24 4L24 3L25 3L25 0L23 0L23 1L20 1L20 0L19 0L19 1L20 1L20 2L21 2L21 3L19 3L19 2L18 2L18 1L17 1L17 2L18 2L18 3L17 3L17 4L19 4L19 5L20 5L20 4L21 4L21 3L23 3L23 4L22 4L22 5L21 5L21 6L20 6L20 7L19 7L19 6L18 6L18 5L17 5L17 6L16 6L16 5L15 5L15 6L14 6L14 5L13 5L13 4L14 4L14 3L13 3L13 2L14 2L14 1L15 1L15 2L16 2L16 1L15 1L15 0ZM10 1L10 3L11 3L11 2L12 2L12 1ZM23 1L23 3L24 3L24 1ZM12 3L12 4L13 4L13 3ZM15 3L15 4L16 4L16 3ZM11 5L11 7L12 7L12 5ZM22 5L22 6L21 6L21 7L22 7L22 6L23 6L23 8L21 8L21 9L20 9L20 8L19 8L19 9L20 9L20 10L19 10L19 11L20 11L20 10L21 10L21 11L22 11L22 10L21 10L21 9L23 9L23 8L24 8L24 9L25 9L25 8L24 8L24 5ZM9 6L9 7L10 7L10 6ZM13 6L13 8L14 8L14 9L13 9L13 10L14 10L14 11L12 11L12 10L11 10L11 9L12 9L12 8L10 8L10 9L8 9L8 11L6 11L6 12L7 12L7 13L5 13L5 12L4 12L4 11L3 11L3 12L4 12L4 13L5 13L5 14L4 14L4 15L3 15L3 16L4 16L4 15L5 15L5 17L4 17L4 18L3 18L3 19L2 19L2 18L1 18L1 20L2 20L2 22L4 22L4 23L5 23L5 24L7 24L7 23L5 23L5 22L7 22L7 21L4 21L4 20L5 20L5 19L6 19L6 20L8 20L8 15L5 15L5 14L8 14L8 13L9 13L9 12L11 12L11 13L10 13L10 14L11 14L11 15L10 15L10 16L9 16L9 17L12 17L12 16L11 16L11 15L12 15L12 14L13 14L13 16L14 16L14 17L13 17L13 18L14 18L14 19L12 19L12 18L11 18L11 19L10 19L10 20L14 20L14 21L13 21L13 24L14 24L14 25L13 25L13 26L11 26L11 27L13 27L13 28L14 28L14 29L13 29L13 32L14 32L14 31L15 31L15 30L16 30L16 29L17 29L17 28L18 28L18 27L21 27L21 26L19 26L19 25L23 25L23 26L22 26L22 27L23 27L23 26L24 26L24 24L19 24L19 23L21 23L21 22L23 22L23 23L24 23L24 22L23 22L23 20L25 20L25 18L26 18L26 17L28 17L28 18L27 18L27 19L26 19L26 21L28 21L28 20L27 20L27 19L29 19L29 20L30 20L30 19L31 19L31 18L30 18L30 17L31 17L31 16L30 16L30 14L29 14L29 13L31 13L31 12L29 12L29 13L27 13L27 12L26 12L26 13L25 13L25 12L21 12L21 13L20 13L20 12L19 12L19 13L20 13L20 14L17 14L17 16L18 16L18 15L19 15L19 17L20 17L20 18L19 18L19 20L18 20L18 19L17 19L17 18L18 18L18 17L17 17L17 18L16 18L16 19L17 19L17 20L18 20L18 21L17 21L17 22L16 22L16 21L15 21L15 18L14 18L14 17L16 17L16 15L15 15L15 14L16 14L16 13L17 13L17 12L18 12L18 11L16 11L16 12L15 12L15 10L16 10L16 9L17 9L17 10L18 10L18 9L17 9L17 8L18 8L18 6L17 6L17 8L16 8L16 9L15 9L15 7L16 7L16 6L15 6L15 7L14 7L14 6ZM29 8L29 9L30 9L30 8ZM3 9L3 10L4 10L4 9ZM6 9L6 10L7 10L7 9ZM14 9L14 10L15 10L15 9ZM10 10L10 11L11 11L11 12L12 12L12 11L11 11L11 10ZM8 11L8 12L9 12L9 11ZM13 12L13 13L14 13L14 14L15 14L15 13L14 13L14 12ZM11 13L11 14L12 14L12 13ZM21 13L21 16L20 16L20 17L21 17L21 20L19 20L19 22L17 22L17 23L16 23L16 22L15 22L15 21L14 21L14 24L15 24L15 23L16 23L16 24L17 24L17 25L16 25L16 26L15 26L15 25L14 25L14 26L15 26L15 29L14 29L14 30L15 30L15 29L16 29L16 28L17 28L17 25L18 25L18 24L17 24L17 23L19 23L19 22L20 22L20 21L21 21L21 20L22 20L22 18L25 18L25 17L21 17L21 16L23 16L23 14L24 14L24 15L26 15L26 14L27 14L27 15L29 15L29 14L27 14L27 13L26 13L26 14L25 14L25 13ZM6 16L6 17L5 17L5 18L6 18L6 19L7 19L7 18L6 18L6 17L7 17L7 16ZM28 16L28 17L29 17L29 16ZM8 21L8 23L9 23L9 24L10 24L10 22L11 22L11 23L12 23L12 22L11 22L11 21ZM32 21L32 22L33 22L33 21ZM11 24L11 25L12 25L12 24ZM9 25L9 26L10 26L10 25ZM25 25L25 28L28 28L28 25ZM26 26L26 27L27 27L27 26ZM30 28L30 29L29 29L29 30L28 30L28 29L26 29L26 30L28 30L28 31L29 31L29 30L30 30L30 31L31 31L31 30L30 30L30 29L31 29L31 28ZM19 29L19 30L20 30L20 33L21 33L21 32L24 32L24 33L25 33L25 32L24 32L24 31L23 31L23 29ZM0 0L0 7L7 7L7 0ZM1 1L1 6L6 6L6 1ZM2 2L2 5L5 5L5 2ZM26 0L26 7L33 7L33 0ZM27 1L27 6L32 6L32 1ZM28 2L28 5L31 5L31 2ZM0 26L0 33L7 33L7 26ZM1 27L1 32L6 32L6 27ZM2 28L2 31L5 31L5 28Z" fill="#000000"/></g></g></svg>
