<?xml version="1.0" encoding="UTF-8"?>
<svg xmlns="http://www.w3.org/2000/svg" version="1.1" width="400" height="400" viewBox="0 0 400 400"><rect x="0" y="0" width="400" height="400" fill="#fefefe"/><g transform="scale(9.756)"><g transform="translate(4,4)"><path fill-rule="evenodd" d="M8 0L8 1L11 1L11 2L10 2L10 4L9 4L9 2L8 2L8 5L11 5L11 4L12 4L12 1L13 1L13 4L14 4L14 5L16 5L16 12L17 12L17 13L15 13L15 14L17 14L17 13L19 13L19 14L18 14L18 16L20 16L20 18L21 18L21 17L22 17L22 16L23 16L23 18L24 18L24 17L25 17L25 19L23 19L23 20L21 20L21 19L19 19L19 18L17 18L17 19L16 19L16 18L15 18L15 17L17 17L17 15L16 15L16 16L13 16L13 15L14 15L14 14L13 14L13 13L14 13L14 11L15 11L15 9L14 9L14 10L13 10L13 9L11 9L11 6L10 6L10 9L11 9L11 10L9 10L9 8L8 8L8 10L9 10L9 12L6 12L6 13L8 13L8 14L5 14L5 13L4 13L4 12L3 12L3 11L4 11L4 10L6 10L6 11L7 11L7 10L6 10L6 9L7 9L7 8L6 8L6 9L4 9L4 8L0 8L0 11L1 11L1 9L2 9L2 12L1 12L1 13L2 13L2 14L0 14L0 15L1 15L1 16L0 16L0 18L1 18L1 16L2 16L2 14L3 14L3 15L4 15L4 16L3 16L3 17L2 17L2 19L4 19L4 20L2 20L2 22L3 22L3 23L1 23L1 24L0 24L0 25L1 25L1 24L4 24L4 23L5 23L5 22L4 22L4 20L5 20L5 21L7 21L7 22L6 22L6 23L7 23L7 22L8 22L8 20L5 20L5 19L7 19L7 18L8 18L8 19L9 19L9 21L10 21L10 20L11 20L11 22L10 22L10 23L9 23L9 24L8 24L8 26L9 26L9 27L11 27L11 26L9 26L9 25L11 25L11 24L12 24L12 25L14 25L14 24L16 24L16 23L13 23L13 24L12 24L12 22L13 22L13 21L12 21L12 20L13 20L13 19L14 19L14 20L15 20L15 19L16 19L16 20L17 20L17 21L16 21L16 22L17 22L17 21L19 21L19 22L21 22L21 21L23 21L23 22L22 22L22 23L24 23L24 26L23 26L23 25L21 25L21 24L20 24L20 25L18 25L18 24L19 24L19 23L18 23L18 24L17 24L17 25L15 25L15 26L18 26L18 30L19 30L19 27L20 27L20 31L21 31L21 29L22 29L22 28L23 28L23 30L24 30L24 29L25 29L25 31L24 31L24 32L25 32L25 31L27 31L27 32L28 32L28 33L29 33L29 31L30 31L30 30L29 30L29 31L27 31L27 30L26 30L26 29L29 29L29 26L30 26L30 29L31 29L31 31L32 31L32 32L33 32L33 31L32 31L32 27L31 27L31 26L32 26L32 25L33 25L33 21L32 21L32 20L30 20L30 19L29 19L29 21L32 21L32 25L31 25L31 26L30 26L30 25L29 25L29 23L31 23L31 22L29 22L29 23L28 23L28 22L27 22L27 21L26 21L26 23L28 23L28 24L25 24L25 21L24 21L24 20L28 20L28 19L27 19L27 17L28 17L28 18L29 18L29 17L32 17L32 18L31 18L31 19L32 19L32 18L33 18L33 16L32 16L32 15L30 15L30 16L28 16L28 15L29 15L29 14L27 14L27 16L26 16L26 15L25 15L25 16L23 16L23 13L22 13L22 14L21 14L21 11L19 11L19 12L17 12L17 9L18 9L18 10L20 10L20 9L21 9L21 10L22 10L22 11L24 11L24 10L26 10L26 11L27 11L27 12L28 12L28 13L29 13L29 12L30 12L30 11L28 11L28 9L31 9L31 8L28 8L28 9L26 9L26 8L24 8L24 7L25 7L25 6L24 6L24 7L23 7L23 4L21 4L21 5L22 5L22 7L23 7L23 8L21 8L21 6L20 6L20 4L19 4L19 3L17 3L17 2L19 2L19 1L20 1L20 2L21 2L21 0L18 0L18 1L17 1L17 2L15 2L15 0ZM23 0L23 1L22 1L22 2L24 2L24 5L25 5L25 2L24 2L24 1L25 1L25 0ZM14 2L14 4L15 4L15 2ZM16 3L16 5L17 5L17 3ZM18 5L18 6L17 6L17 7L18 7L18 9L19 9L19 8L20 8L20 6L19 6L19 5ZM8 6L8 7L9 7L9 6ZM12 6L12 7L13 7L13 6ZM14 6L14 8L15 8L15 6ZM18 6L18 7L19 7L19 6ZM23 8L23 9L24 9L24 8ZM32 8L32 10L31 10L31 11L33 11L33 8ZM12 10L12 11L13 11L13 10ZM2 12L2 13L3 13L3 14L4 14L4 15L5 15L5 14L4 14L4 13L3 13L3 12ZM11 12L11 13L9 13L9 15L6 15L6 16L5 16L5 17L4 17L4 19L5 19L5 17L6 17L6 18L7 18L7 17L6 17L6 16L9 16L9 15L10 15L10 16L11 16L11 15L13 15L13 14L12 14L12 13L13 13L13 12ZM19 12L19 13L20 13L20 12ZM25 12L25 13L26 13L26 12ZM31 12L31 14L32 14L32 12ZM10 14L10 15L11 15L11 14ZM20 15L20 16L21 16L21 15ZM12 16L12 18L11 18L11 17L8 17L8 18L11 18L11 19L12 19L12 18L13 18L13 16ZM25 16L25 17L26 17L26 16ZM14 18L14 19L15 19L15 18ZM18 19L18 20L19 20L19 19ZM20 20L20 21L21 21L21 20ZM0 21L0 22L1 22L1 21ZM14 21L14 22L15 22L15 21ZM10 23L10 24L11 24L11 23ZM5 24L5 25L7 25L7 24ZM25 25L25 28L28 28L28 25ZM12 26L12 28L9 28L9 29L8 29L8 33L10 33L10 30L9 30L9 29L11 29L11 30L12 30L12 31L11 31L11 32L12 32L12 33L13 33L13 30L15 30L15 31L14 31L14 32L15 32L15 31L16 31L16 33L23 33L23 31L22 31L22 32L19 32L19 31L16 31L16 29L15 29L15 28L17 28L17 27L15 27L15 28L13 28L13 27L14 27L14 26ZM20 26L20 27L22 27L22 26ZM26 26L26 27L27 27L27 26ZM23 27L23 28L24 28L24 27ZM12 29L12 30L13 30L13 29ZM30 32L30 33L31 33L31 32ZM0 0L0 7L7 7L7 0ZM1 1L1 6L6 6L6 1ZM2 2L2 5L5 5L5 2ZM26 0L26 7L33 7L33 0ZM27 1L27 6L32 6L32 1ZM28 2L28 5L31 5L31 2ZM0 26L0 33L7 33L7 26ZM1 27L1 32L6 32L6 27ZM2 28L2 31L5 31L5 28Z" fill="#000000"/></g></g></svg>
