<?xml version="1.0" encoding="UTF-8"?>
<svg xmlns="http://www.w3.org/2000/svg" version="1.1" width="400" height="400" viewBox="0 0 400 400"><rect x="0" y="0" width="400" height="400" fill="#fefefe"/><g transform="scale(9.756)"><g transform="translate(4,4)"><path fill-rule="evenodd" d="M11 0L11 1L8 1L8 3L9 3L9 2L10 2L10 4L8 4L8 8L6 8L6 9L5 9L5 10L4 10L4 8L3 8L3 10L2 10L2 8L0 8L0 10L2 10L2 11L0 11L0 12L2 12L2 13L1 13L1 14L0 14L0 16L2 16L2 14L5 14L5 15L4 15L4 16L3 16L3 17L0 17L0 18L1 18L1 19L3 19L3 20L4 20L4 21L3 21L3 22L2 22L2 21L1 21L1 20L0 20L0 21L1 21L1 22L0 22L0 23L1 23L1 24L0 24L0 25L1 25L1 24L2 24L2 25L4 25L4 24L5 24L5 23L4 23L4 22L6 22L6 23L7 23L7 24L6 24L6 25L8 25L8 27L9 27L9 28L10 28L10 29L11 29L11 30L9 30L9 29L8 29L8 30L9 30L9 31L8 31L8 33L9 33L9 32L10 32L10 33L11 33L11 32L12 32L12 31L11 31L11 30L12 30L12 26L11 26L11 25L10 25L10 23L11 23L11 24L12 24L12 25L14 25L14 26L15 26L15 25L17 25L17 27L15 27L15 28L14 28L14 27L13 27L13 28L14 28L14 29L13 29L13 30L14 30L14 32L13 32L13 33L14 33L14 32L16 32L16 33L17 33L17 32L20 32L20 31L21 31L21 33L22 33L22 30L24 30L24 31L23 31L23 32L24 32L24 33L25 33L25 32L26 32L26 33L30 33L30 32L28 32L28 31L30 31L30 30L29 30L29 29L30 29L30 25L29 25L29 24L28 24L28 23L29 23L29 22L31 22L31 23L33 23L33 21L29 21L29 22L28 22L28 20L30 20L30 19L28 19L28 18L27 18L27 21L26 21L26 22L24 22L24 23L23 23L23 22L22 22L22 23L21 23L21 22L19 22L19 21L16 21L16 22L17 22L17 23L16 23L16 24L14 24L14 22L15 22L15 21L14 21L14 20L13 20L13 19L15 19L15 20L16 20L16 19L17 19L17 20L18 20L18 19L19 19L19 18L17 18L17 17L20 17L20 19L21 19L21 20L20 20L20 21L23 21L23 20L24 20L24 21L25 21L25 20L26 20L26 17L27 17L27 15L25 15L25 14L28 14L28 15L29 15L29 16L28 16L28 17L29 17L29 16L30 16L30 15L32 15L32 14L33 14L33 9L32 9L32 8L30 8L30 9L29 9L29 8L26 8L26 10L25 10L25 11L24 11L24 14L23 14L23 16L25 16L25 19L23 19L23 18L24 18L24 17L22 17L22 13L23 13L23 12L22 12L22 7L23 7L23 9L24 9L24 7L25 7L25 6L24 6L24 7L23 7L23 6L22 6L22 5L25 5L25 3L23 3L23 4L21 4L21 5L19 5L19 4L20 4L20 2L19 2L19 1L20 1L20 0L18 0L18 1L17 1L17 0L15 0L15 4L13 4L13 2L14 2L14 0ZM21 0L21 2L22 2L22 1L23 1L23 2L24 2L24 1L25 1L25 0ZM12 1L12 2L11 2L11 4L12 4L12 2L13 2L13 1ZM18 2L18 3L16 3L16 6L15 6L15 7L14 7L14 5L11 5L11 7L10 7L10 6L9 6L9 7L10 7L10 8L8 8L8 9L6 9L6 10L8 10L8 12L7 12L7 11L4 11L4 10L3 10L3 13L4 13L4 12L7 12L7 13L5 13L5 14L7 14L7 15L5 15L5 16L7 16L7 15L8 15L8 14L10 14L10 13L11 13L11 14L12 14L12 13L13 13L13 15L9 15L9 16L10 16L10 17L12 17L12 18L9 18L9 17L8 17L8 18L9 18L9 19L6 19L6 18L7 18L7 17L6 17L6 18L5 18L5 17L4 17L4 18L5 18L5 19L4 19L4 20L5 20L5 21L6 21L6 22L9 22L9 23L8 23L8 25L9 25L9 27L10 27L10 28L11 28L11 27L10 27L10 25L9 25L9 23L10 23L10 21L11 21L11 23L12 23L12 24L13 24L13 23L12 23L12 22L13 22L13 21L12 21L12 20L11 20L11 19L12 19L12 18L13 18L13 17L14 17L14 18L15 18L15 19L16 19L16 18L15 18L15 17L14 17L14 16L16 16L16 15L17 15L17 14L18 14L18 16L20 16L20 17L21 17L21 19L22 19L22 20L23 20L23 19L22 19L22 17L21 17L21 14L19 14L19 13L20 13L20 12L21 12L21 10L20 10L20 9L21 9L21 8L20 8L20 6L19 6L19 5L18 5L18 3L19 3L19 2ZM12 6L12 7L13 7L13 6ZM16 6L16 7L15 7L15 8L16 8L16 11L15 11L15 9L14 9L14 8L10 8L10 9L13 9L13 10L12 10L12 11L11 11L11 10L9 10L9 11L11 11L11 12L13 12L13 13L14 13L14 14L15 14L15 13L19 13L19 12L20 12L20 10L18 10L18 9L19 9L19 6L18 6L18 7L17 7L17 6ZM21 6L21 7L22 7L22 6ZM16 7L16 8L17 8L17 9L18 9L18 8L17 8L17 7ZM28 9L28 10L26 10L26 11L29 11L29 9ZM13 10L13 11L14 11L14 10ZM31 10L31 11L30 11L30 12L28 12L28 13L29 13L29 14L31 14L31 12L32 12L32 10ZM16 11L16 12L19 12L19 11ZM25 12L25 13L26 13L26 12ZM7 13L7 14L8 14L8 13ZM13 15L13 16L12 16L12 17L13 17L13 16L14 16L14 15ZM32 16L32 17L33 17L33 16ZM31 18L31 19L32 19L32 20L33 20L33 18ZM9 19L9 20L10 20L10 19ZM6 20L6 21L7 21L7 20ZM27 22L27 23L24 23L24 24L22 24L22 25L23 25L23 26L22 26L22 29L24 29L24 28L23 28L23 27L24 27L24 24L27 24L27 23L28 23L28 22ZM3 23L3 24L4 24L4 23ZM17 23L17 24L18 24L18 25L20 25L20 26L18 26L18 29L17 29L17 28L15 28L15 29L14 29L14 30L15 30L15 31L16 31L16 32L17 32L17 31L20 31L20 29L21 29L21 28L20 28L20 29L19 29L19 27L21 27L21 24L18 24L18 23ZM25 25L25 28L28 28L28 25ZM31 25L31 27L32 27L32 26L33 26L33 25ZM26 26L26 27L27 27L27 26ZM16 29L16 31L17 31L17 29ZM18 29L18 30L19 30L19 29ZM25 29L25 31L26 31L26 32L27 32L27 31L28 31L28 29L27 29L27 30L26 30L26 29ZM31 29L31 31L33 31L33 29ZM10 31L10 32L11 32L11 31ZM31 32L31 33L32 33L32 32ZM0 0L0 7L7 7L7 0ZM1 1L1 6L6 6L6 1ZM2 2L2 5L5 5L5 2ZM26 0L26 7L33 7L33 0ZM27 1L27 6L32 6L32 1ZM28 2L28 5L31 5L31 2ZM0 26L0 33L7 33L7 26ZM1 27L1 32L6 32L6 27ZM2 28L2 31L5 31L5 28Z" fill="#000000"/></g></g></svg>
