<?xml version="1.0" encoding="UTF-8"?>
<svg xmlns="http://www.w3.org/2000/svg" version="1.1" width="400" height="400" viewBox="0 0 400 400"><rect x="0" y="0" width="400" height="400" fill="#fefefe"/><g transform="scale(9.756)"><g transform="translate(4,4)"><path fill-rule="evenodd" d="M9 0L9 1L10 1L10 0ZM12 0L12 2L11 2L11 4L10 4L10 2L9 2L9 3L8 3L8 5L9 5L9 4L10 4L10 8L9 8L9 10L10 10L10 11L9 11L9 13L7 13L7 12L8 12L8 8L5 8L5 9L4 9L4 10L3 10L3 9L2 9L2 8L0 8L0 9L1 9L1 10L2 10L2 11L1 11L1 12L2 12L2 11L3 11L3 12L6 12L6 13L7 13L7 14L6 14L6 15L8 15L8 16L6 16L6 17L10 17L10 18L11 18L11 19L9 19L9 18L8 18L8 20L11 20L11 22L10 22L10 21L9 21L9 22L8 22L8 21L7 21L7 20L5 20L5 16L4 16L4 17L3 17L3 19L1 19L1 18L2 18L2 17L1 17L1 16L3 16L3 14L2 14L2 15L0 15L0 25L5 25L5 24L1 24L1 20L2 20L2 22L3 22L3 23L4 23L4 22L5 22L5 23L8 23L8 24L9 24L9 25L8 25L8 28L9 28L9 25L11 25L11 26L13 26L13 23L15 23L15 24L14 24L14 26L15 26L15 27L14 27L14 28L13 28L13 27L11 27L11 28L13 28L13 29L11 29L11 30L10 30L10 29L9 29L9 31L8 31L8 33L10 33L10 32L11 32L11 31L12 31L12 30L13 30L13 31L16 31L16 32L15 32L15 33L16 33L16 32L17 32L17 33L18 33L18 32L17 32L17 31L18 31L18 30L17 30L17 29L18 29L18 28L19 28L19 27L18 27L18 28L17 28L17 29L16 29L16 28L15 28L15 27L17 27L17 23L19 23L19 22L21 22L21 23L20 23L20 24L19 24L19 26L20 26L20 27L22 27L22 28L23 28L23 27L24 27L24 29L27 29L27 31L28 31L28 32L31 32L31 33L32 33L32 32L31 32L31 31L29 31L29 29L30 29L30 30L31 30L31 29L33 29L33 27L32 27L32 26L33 26L33 25L32 25L32 24L33 24L33 23L30 23L30 24L26 24L26 23L24 23L24 25L23 25L23 26L20 26L20 24L21 24L21 23L22 23L22 24L23 24L23 22L26 22L26 21L25 21L25 20L26 20L26 19L25 19L25 20L23 20L23 21L21 21L21 20L20 20L20 19L22 19L22 18L20 18L20 17L21 17L21 16L20 16L20 17L19 17L19 15L18 15L18 16L16 16L16 15L17 15L17 14L21 14L21 15L22 15L22 17L23 17L23 19L24 19L24 18L25 18L25 17L23 17L23 14L24 14L24 15L25 15L25 16L27 16L27 17L26 17L26 18L27 18L27 22L28 22L28 23L29 23L29 21L30 21L30 20L31 20L31 19L30 19L30 18L32 18L32 20L33 20L33 17L32 17L32 16L33 16L33 15L32 15L32 14L33 14L33 12L32 12L32 10L29 10L29 9L30 9L30 8L28 8L28 10L26 10L26 9L23 9L23 8L22 8L22 11L23 11L23 10L26 10L26 11L27 11L27 12L22 12L22 14L21 14L21 11L20 11L20 12L19 12L19 10L20 10L20 9L19 9L19 8L20 8L20 7L21 7L21 6L22 6L22 7L23 7L23 6L22 6L22 3L23 3L23 0L22 0L22 2L21 2L21 0L20 0L20 2L19 2L19 1L18 1L18 0L16 0L16 1L17 1L17 2L19 2L19 3L16 3L16 4L19 4L19 5L20 5L20 7L19 7L19 6L18 6L18 5L17 5L17 6L16 6L16 8L15 8L15 11L18 11L18 13L17 13L17 12L16 12L16 13L15 13L15 12L14 12L14 14L15 14L15 15L14 15L14 16L13 16L13 14L12 14L12 11L14 11L14 10L13 10L13 9L14 9L14 8L13 8L13 6L14 6L14 7L15 7L15 6L14 6L14 5L13 5L13 4L15 4L15 3L13 3L13 2L14 2L14 1L13 1L13 0ZM24 0L24 2L25 2L25 0ZM20 2L20 3L19 3L19 4L20 4L20 3L21 3L21 2ZM12 3L12 4L13 4L13 3ZM24 3L24 4L23 4L23 5L24 5L24 7L25 7L25 5L24 5L24 4L25 4L25 3ZM11 5L11 7L12 7L12 5ZM8 6L8 7L9 7L9 6ZM17 6L17 8L16 8L16 10L18 10L18 9L17 9L17 8L18 8L18 6ZM10 8L10 9L12 9L12 8ZM6 9L6 10L4 10L4 11L6 11L6 12L7 12L7 11L6 11L6 10L7 10L7 9ZM11 10L11 11L10 11L10 13L9 13L9 14L8 14L8 15L9 15L9 16L11 16L11 17L12 17L12 16L11 16L11 15L12 15L12 14L11 14L11 11L12 11L12 10ZM28 11L28 14L29 14L29 17L28 17L28 18L30 18L30 17L31 17L31 16L30 16L30 14L29 14L29 11ZM30 12L30 13L32 13L32 12ZM0 13L0 14L1 14L1 13ZM4 13L4 14L5 14L5 13ZM24 13L24 14L25 14L25 15L26 15L26 14L25 14L25 13ZM9 14L9 15L10 15L10 14ZM14 16L14 17L13 17L13 19L11 19L11 20L14 20L14 21L13 21L13 22L15 22L15 20L16 20L16 19L14 19L14 17L15 17L15 18L16 18L16 16ZM17 17L17 20L18 20L18 21L16 21L16 23L17 23L17 22L19 22L19 21L20 21L20 20L18 20L18 17ZM6 18L6 19L7 19L7 18ZM3 19L3 20L4 20L4 21L5 21L5 20L4 20L4 19ZM28 19L28 20L30 20L30 19ZM6 21L6 22L7 22L7 21ZM9 22L9 24L10 24L10 22ZM11 22L11 23L12 23L12 22ZM6 24L6 25L7 25L7 24ZM15 24L15 25L16 25L16 24ZM30 24L30 25L29 25L29 28L30 28L30 29L31 29L31 28L30 28L30 27L31 27L31 26L30 26L30 25L31 25L31 24ZM25 25L25 28L28 28L28 25ZM26 26L26 27L27 27L27 26ZM14 28L14 29L13 29L13 30L14 30L14 29L15 29L15 28ZM19 29L19 32L20 32L20 33L21 33L21 31L20 31L20 30L21 30L21 29ZM22 29L22 30L23 30L23 29ZM24 30L24 31L25 31L25 30ZM32 30L32 31L33 31L33 30ZM22 31L22 32L23 32L23 33L25 33L25 32L23 32L23 31ZM13 32L13 33L14 33L14 32ZM26 32L26 33L27 33L27 32ZM0 0L0 7L7 7L7 0ZM1 1L1 6L6 6L6 1ZM2 2L2 5L5 5L5 2ZM26 0L26 7L33 7L33 0ZM27 1L27 6L32 6L32 1ZM28 2L28 5L31 5L31 2ZM0 26L0 33L7 33L7 26ZM1 27L1 32L6 32L6 27ZM2 28L2 31L5 31L5 28Z" fill="#000000"/></g></g></svg>
