<?xml version="1.0" encoding="UTF-8"?>
<svg xmlns="http://www.w3.org/2000/svg" version="1.1" width="400" height="400" viewBox="0 0 400 400"><rect x="0" y="0" width="400" height="400" fill="#fefefe"/><g transform="scale(9.756)"><g transform="translate(4,4)"><path fill-rule="evenodd" d="M10 0L10 2L11 2L11 0ZM12 0L12 1L13 1L13 2L12 2L12 4L14 4L14 3L13 3L13 2L14 2L14 1L15 1L15 2L16 2L16 1L15 1L15 0ZM19 0L19 1L18 1L18 2L19 2L19 1L20 1L20 4L18 4L18 3L17 3L17 4L18 4L18 5L17 5L17 6L16 6L16 5L15 5L15 6L14 6L14 5L11 5L11 6L10 6L10 4L11 4L11 3L8 3L8 4L9 4L9 5L8 5L8 7L9 7L9 8L6 8L6 9L5 9L5 8L0 8L0 10L1 10L1 13L3 13L3 15L2 15L2 16L1 16L1 14L0 14L0 17L1 17L1 18L0 18L0 25L1 25L1 21L2 21L2 20L1 20L1 19L2 19L2 16L4 16L4 17L3 17L3 18L4 18L4 20L6 20L6 21L7 21L7 20L8 20L8 18L9 18L9 19L10 19L10 18L11 18L11 17L12 17L12 18L13 18L13 19L14 19L14 18L15 18L15 21L14 21L14 20L13 20L13 21L14 21L14 24L13 24L13 22L12 22L12 20L11 20L11 21L10 21L10 20L9 20L9 21L8 21L8 22L4 22L4 21L3 21L3 23L2 23L2 24L4 24L4 25L5 25L5 24L6 24L6 25L7 25L7 24L6 24L6 23L8 23L8 27L9 27L9 25L11 25L11 26L13 26L13 25L14 25L14 26L15 26L15 29L14 29L14 28L13 28L13 29L10 29L10 28L11 28L11 27L10 27L10 28L8 28L8 33L9 33L9 32L10 32L10 33L11 33L11 32L12 32L12 31L13 31L13 29L14 29L14 30L15 30L15 31L14 31L14 32L13 32L13 33L14 33L14 32L15 32L15 33L16 33L16 32L17 32L17 33L18 33L18 32L17 32L17 31L16 31L16 30L17 30L17 29L18 29L18 28L19 28L19 30L20 30L20 29L21 29L21 32L20 32L20 33L21 33L21 32L22 32L22 31L23 31L23 32L24 32L24 33L26 33L26 31L28 31L28 30L30 30L30 32L29 32L29 33L30 33L30 32L31 32L31 33L32 33L32 32L31 32L31 31L32 31L32 30L31 30L31 29L32 29L32 28L33 28L33 27L32 27L32 26L33 26L33 23L30 23L30 24L32 24L32 25L30 25L30 26L31 26L31 27L30 27L30 28L29 28L29 23L28 23L28 21L30 21L30 20L31 20L31 19L32 19L32 20L33 20L33 19L32 19L32 18L33 18L33 17L32 17L32 14L33 14L33 13L32 13L32 10L33 10L33 9L32 9L32 8L31 8L31 9L32 9L32 10L29 10L29 12L28 12L28 11L27 11L27 10L28 10L28 8L27 8L27 9L26 9L26 8L25 8L25 9L19 9L19 6L18 6L18 5L20 5L20 7L21 7L21 8L24 8L24 7L25 7L25 5L24 5L24 4L25 4L25 0L23 0L23 1L20 1L20 0ZM8 1L8 2L9 2L9 1ZM23 1L23 2L24 2L24 1ZM15 3L15 4L16 4L16 3ZM21 3L21 4L20 4L20 5L21 5L21 4L22 4L22 6L21 6L21 7L22 7L22 6L23 6L23 7L24 7L24 5L23 5L23 4L24 4L24 3L23 3L23 4L22 4L22 3ZM9 6L9 7L10 7L10 6ZM11 6L11 7L12 7L12 9L11 9L11 8L10 8L10 9L9 9L9 10L7 10L7 9L6 9L6 10L5 10L5 11L4 11L4 9L2 9L2 12L4 12L4 15L5 15L5 16L7 16L7 17L5 17L5 19L6 19L6 20L7 20L7 19L6 19L6 18L8 18L8 16L11 16L11 15L10 15L10 14L13 14L13 15L12 15L12 16L14 16L14 17L13 17L13 18L14 18L14 17L16 17L16 15L15 15L15 14L16 14L16 13L17 13L17 12L18 12L18 11L16 11L16 12L15 12L15 10L16 10L16 9L17 9L17 10L18 10L18 9L17 9L17 8L18 8L18 6L17 6L17 8L16 8L16 9L15 9L15 7L16 7L16 6L15 6L15 7L14 7L14 6L13 6L13 7L12 7L12 6ZM13 8L13 9L12 9L12 10L13 10L13 11L12 11L12 13L14 13L14 14L15 14L15 13L14 13L14 12L13 12L13 11L14 11L14 10L15 10L15 9L14 9L14 8ZM29 8L29 9L30 9L30 8ZM10 9L10 11L11 11L11 9ZM13 9L13 10L14 10L14 9ZM6 10L6 11L7 11L7 12L5 12L5 13L7 13L7 14L5 14L5 15L7 15L7 16L8 16L8 15L9 15L9 14L10 14L10 13L11 13L11 12L9 12L9 14L8 14L8 13L7 13L7 12L8 12L8 11L7 11L7 10ZM19 10L19 13L20 13L20 14L17 14L17 16L18 16L18 15L19 15L19 16L21 16L21 17L20 17L20 18L19 18L19 20L18 20L18 19L17 19L17 18L18 18L18 17L17 17L17 18L16 18L16 19L17 19L17 20L18 20L18 21L17 21L17 22L16 22L16 21L15 21L15 22L16 22L16 23L15 23L15 24L14 24L14 25L15 25L15 26L16 26L16 25L17 25L17 28L16 28L16 29L15 29L15 30L16 30L16 29L17 29L17 28L18 28L18 27L19 27L19 28L21 28L21 29L22 29L22 30L23 30L23 31L24 31L24 32L25 32L25 31L26 31L26 30L28 30L28 29L26 29L26 30L25 30L25 29L24 29L24 27L23 27L23 29L22 29L22 28L21 28L21 27L20 27L20 26L21 26L21 25L24 25L24 24L21 24L21 25L20 25L20 24L19 24L19 23L21 23L21 22L23 22L23 23L24 23L24 22L23 22L23 20L25 20L25 21L28 21L28 20L30 20L30 19L31 19L31 18L30 18L30 17L31 17L31 16L30 16L30 14L29 14L29 13L31 13L31 12L29 12L29 13L27 13L27 11L26 11L26 10L23 10L23 11L22 11L22 10L21 10L21 11L22 11L22 12L21 12L21 13L20 13L20 10ZM23 11L23 12L24 12L24 11ZM25 11L25 12L26 12L26 11ZM21 13L21 16L22 16L22 17L21 17L21 18L20 18L20 20L22 20L22 19L21 19L21 18L22 18L22 17L23 17L23 18L25 18L25 20L26 20L26 19L27 19L27 20L28 20L28 19L29 19L29 18L28 18L28 17L29 17L29 16L28 16L28 17L26 17L26 18L25 18L25 17L23 17L23 16L22 16L22 14L24 14L24 15L25 15L25 14L27 14L27 15L29 15L29 14L27 14L27 13ZM27 18L27 19L28 19L28 18ZM9 21L9 22L8 22L8 23L9 23L9 24L11 24L11 25L12 25L12 24L11 24L11 23L12 23L12 22L11 22L11 23L9 23L9 22L10 22L10 21ZM19 21L19 22L17 22L17 23L16 23L16 24L17 24L17 25L18 25L18 24L17 24L17 23L19 23L19 22L21 22L21 21ZM32 21L32 22L33 22L33 21ZM26 22L26 23L25 23L25 24L27 24L27 22ZM4 23L4 24L5 24L5 23ZM19 25L19 26L20 26L20 25ZM25 25L25 28L28 28L28 25ZM26 26L26 27L27 27L27 26ZM30 28L30 29L31 29L31 28ZM10 30L10 32L11 32L11 31L12 31L12 30ZM24 30L24 31L25 31L25 30ZM27 32L27 33L28 33L28 32ZM0 0L0 7L7 7L7 0ZM1 1L1 6L6 6L6 1ZM2 2L2 5L5 5L5 2ZM26 0L26 7L33 7L33 0ZM27 1L27 6L32 6L32 1ZM28 2L28 5L31 5L31 2ZM0 26L0 33L7 33L7 26ZM1 27L1 32L6 32L6 27ZM2 28L2 31L5 31L5 28Z" fill="#000000"/></g></g></svg>
