<?xml version="1.0" encoding="UTF-8"?>
<svg xmlns="http://www.w3.org/2000/svg" version="1.1" width="400" height="400" viewBox="0 0 400 400"><rect x="0" y="0" width="400" height="400" fill="#fefefe"/><g transform="scale(9.756)"><g transform="translate(4,4)"><path fill-rule="evenodd" d="M8 0L8 4L9 4L9 5L8 5L8 7L9 7L9 8L10 8L10 7L11 7L11 5L12 5L12 7L13 7L13 5L14 5L14 7L15 7L15 8L14 8L14 9L13 9L13 8L12 8L12 9L11 9L11 11L10 11L10 13L9 13L9 12L8 12L8 11L7 11L7 10L8 10L8 9L7 9L7 8L4 8L4 10L3 10L3 9L2 9L2 8L0 8L0 9L2 9L2 10L1 10L1 12L0 12L0 15L2 15L2 16L1 16L1 17L2 17L2 16L6 16L6 17L10 17L10 19L9 19L9 20L10 20L10 19L11 19L11 21L10 21L10 23L12 23L12 22L14 22L14 25L13 25L13 24L12 24L12 25L11 25L11 24L8 24L8 23L7 23L7 22L5 22L5 21L8 21L8 20L6 20L6 19L8 19L8 18L6 18L6 19L5 19L5 20L3 20L3 21L2 21L2 22L3 22L3 23L4 23L4 24L6 24L6 25L8 25L8 26L9 26L9 27L8 27L8 29L10 29L10 30L9 30L9 31L8 31L8 33L9 33L9 31L10 31L10 32L12 32L12 31L13 31L13 30L14 30L14 29L15 29L15 31L14 31L14 33L15 33L15 32L16 32L16 31L17 31L17 33L18 33L18 32L19 32L19 33L20 33L20 32L21 32L21 33L22 33L22 32L23 32L23 33L25 33L25 31L23 31L23 29L22 29L22 28L24 28L24 29L26 29L26 31L27 31L27 29L28 29L28 32L29 32L29 33L30 33L30 30L31 30L31 31L32 31L32 30L33 30L33 29L30 29L30 27L31 27L31 28L32 28L32 26L31 26L31 25L32 25L32 24L33 24L33 23L31 23L31 22L32 22L32 21L33 21L33 19L32 19L32 18L31 18L31 17L30 17L30 18L28 18L28 17L29 17L29 16L30 16L30 14L31 14L31 16L32 16L32 17L33 17L33 16L32 16L32 14L31 14L31 13L29 13L29 12L28 12L28 11L29 11L29 10L28 10L28 11L27 11L27 12L25 12L25 11L24 11L24 9L25 9L25 8L24 8L24 9L22 9L22 8L23 8L23 6L22 6L22 7L21 7L21 5L24 5L24 7L25 7L25 2L24 2L24 3L22 3L22 2L23 2L23 1L25 1L25 0L23 0L23 1L22 1L22 0L21 0L21 1L22 1L22 2L20 2L20 1L19 1L19 0L18 0L18 1L17 1L17 2L16 2L16 3L15 3L15 4L14 4L14 3L12 3L12 4L9 4L9 3L11 3L11 2L9 2L9 0ZM10 0L10 1L12 1L12 2L13 2L13 0ZM15 0L15 1L14 1L14 2L15 2L15 1L16 1L16 0ZM18 2L18 3L17 3L17 4L16 4L16 5L15 5L15 7L16 7L16 8L15 8L15 9L14 9L14 11L13 11L13 10L12 10L12 11L11 11L11 13L10 13L10 14L9 14L9 13L8 13L8 12L7 12L7 11L6 11L6 10L7 10L7 9L6 9L6 10L5 10L5 11L4 11L4 12L3 12L3 10L2 10L2 12L1 12L1 14L3 14L3 15L4 15L4 14L3 14L3 13L4 13L4 12L5 12L5 13L6 13L6 14L5 14L5 15L6 15L6 16L8 16L8 14L9 14L9 16L11 16L11 17L12 17L12 16L13 16L13 17L14 17L14 19L13 19L13 18L12 18L12 19L13 19L13 21L14 21L14 22L15 22L15 21L16 21L16 20L17 20L17 19L18 19L18 21L17 21L17 23L15 23L15 24L16 24L16 25L17 25L17 26L16 26L16 28L15 28L15 25L14 25L14 26L13 26L13 27L12 27L12 28L11 28L11 27L9 27L9 28L10 28L10 29L14 29L14 28L15 28L15 29L17 29L17 30L19 30L19 32L20 32L20 30L21 30L21 29L19 29L19 27L20 27L20 28L21 28L21 25L19 25L19 24L21 24L21 23L20 23L20 21L21 21L21 18L22 18L22 25L24 25L24 24L26 24L26 23L27 23L27 24L28 24L28 23L29 23L29 22L31 22L31 20L32 20L32 19L30 19L30 21L28 21L28 19L26 19L26 20L25 20L25 21L26 21L26 23L23 23L23 17L25 17L25 16L27 16L27 17L26 17L26 18L27 18L27 17L28 17L28 16L27 16L27 15L28 15L28 14L29 14L29 13L25 13L25 12L22 12L22 13L21 13L21 12L20 12L20 11L23 11L23 10L22 10L22 9L21 9L21 7L20 7L20 6L19 6L19 5L20 5L20 3L19 3L19 2ZM21 3L21 4L22 4L22 3ZM9 5L9 7L10 7L10 5ZM17 5L17 6L16 6L16 7L17 7L17 9L15 9L15 12L14 12L14 13L13 13L13 14L14 14L14 13L15 13L15 15L16 15L16 14L17 14L17 16L14 16L14 17L16 17L16 18L15 18L15 20L14 20L14 21L15 21L15 20L16 20L16 19L17 19L17 17L18 17L18 18L19 18L19 17L23 17L23 16L25 16L25 15L24 15L24 14L25 14L25 13L22 13L22 14L21 14L21 13L20 13L20 12L18 12L18 11L16 11L16 10L17 10L17 9L18 9L18 10L19 10L19 9L20 9L20 10L21 10L21 9L20 9L20 8L18 8L18 7L19 7L19 6L18 6L18 5ZM17 6L17 7L18 7L18 6ZM27 8L27 9L28 9L28 8ZM29 8L29 9L31 9L31 12L32 12L32 13L33 13L33 12L32 12L32 9L33 9L33 8ZM9 9L9 10L10 10L10 9ZM12 11L12 12L13 12L13 11ZM6 12L6 13L7 13L7 12ZM16 12L16 13L17 13L17 12ZM11 13L11 15L12 15L12 13ZM19 13L19 15L18 15L18 16L20 16L20 13ZM6 14L6 15L7 15L7 14ZM22 14L22 15L23 15L23 14ZM3 17L3 18L4 18L4 17ZM0 18L0 20L2 20L2 19L1 19L1 18ZM19 20L19 21L20 21L20 20ZM26 20L26 21L27 21L27 23L28 23L28 21L27 21L27 20ZM0 21L0 22L1 22L1 21ZM3 21L3 22L4 22L4 23L5 23L5 22L4 22L4 21ZM6 23L6 24L7 24L7 23ZM17 23L17 25L18 25L18 24L19 24L19 23ZM30 23L30 24L29 24L29 26L30 26L30 25L31 25L31 23ZM0 24L0 25L3 25L3 24ZM25 25L25 28L28 28L28 25ZM17 26L17 29L18 29L18 27L19 27L19 26ZM23 26L23 27L24 27L24 26ZM26 26L26 27L27 27L27 26ZM26 32L26 33L27 33L27 32ZM32 32L32 33L33 33L33 32ZM0 0L0 7L7 7L7 0ZM1 1L1 6L6 6L6 1ZM2 2L2 5L5 5L5 2ZM26 0L26 7L33 7L33 0ZM27 1L27 6L32 6L32 1ZM28 2L28 5L31 5L31 2ZM0 26L0 33L7 33L7 26ZM1 27L1 32L6 32L6 27ZM2 28L2 31L5 31L5 28Z" fill="#000000"/></g></g></svg>
