<?xml version="1.0" encoding="UTF-8"?>
<svg xmlns="http://www.w3.org/2000/svg" version="1.1" width="400" height="400" viewBox="0 0 400 400"><rect x="0" y="0" width="400" height="400" fill="#fefefe"/><g transform="scale(9.756)"><g transform="translate(4,4)"><path fill-rule="evenodd" d="M8 0L8 4L9 4L9 5L8 5L8 7L9 7L9 8L10 8L10 7L11 7L11 5L12 5L12 7L13 7L13 5L14 5L14 7L15 7L15 8L14 8L14 9L13 9L13 8L12 8L12 9L11 9L11 11L10 11L10 13L8 13L8 12L9 12L9 11L7 11L7 10L6 10L6 9L7 9L7 8L4 8L4 9L2 9L2 8L0 8L0 13L1 13L1 14L0 14L0 15L2 15L2 16L0 16L0 22L2 22L2 21L1 21L1 18L2 18L2 20L3 20L3 21L4 21L4 22L5 22L5 23L8 23L8 24L6 24L6 25L8 25L8 26L9 26L9 27L8 27L8 29L9 29L9 30L10 30L10 32L9 32L9 31L8 31L8 33L10 33L10 32L13 32L13 31L12 31L12 30L14 30L14 29L15 29L15 31L14 31L14 33L15 33L15 32L16 32L16 31L17 31L17 33L18 33L18 32L19 32L19 33L20 33L20 32L21 32L21 33L22 33L22 32L23 32L23 33L26 33L26 32L25 32L25 31L27 31L27 32L28 32L28 31L29 31L29 33L30 33L30 30L31 30L31 31L32 31L32 30L33 30L33 29L30 29L30 27L31 27L31 28L32 28L32 26L31 26L31 25L32 25L32 24L33 24L33 23L31 23L31 22L32 22L32 21L33 21L33 19L32 19L32 18L31 18L31 17L30 17L30 18L28 18L28 17L29 17L29 16L30 16L30 14L31 14L31 16L32 16L32 17L33 17L33 16L32 16L32 14L31 14L31 13L29 13L29 10L28 10L28 8L27 8L27 10L28 10L28 13L27 13L27 12L26 12L26 11L25 11L25 13L22 13L22 10L23 10L23 12L24 12L24 10L26 10L26 9L22 9L22 8L25 8L25 6L24 6L24 7L23 7L23 6L22 6L22 7L21 7L21 5L24 5L24 3L25 3L25 0L23 0L23 1L22 1L22 0L21 0L21 1L22 1L22 2L20 2L20 1L19 1L19 0L18 0L18 1L17 1L17 2L16 2L16 3L15 3L15 4L14 4L14 3L12 3L12 4L9 4L9 3L11 3L11 2L9 2L9 0ZM10 0L10 1L12 1L12 2L13 2L13 0ZM15 0L15 1L14 1L14 2L15 2L15 1L16 1L16 0ZM23 1L23 2L22 2L22 3L21 3L21 4L22 4L22 3L23 3L23 2L24 2L24 1ZM19 2L19 3L17 3L17 4L16 4L16 5L15 5L15 7L16 7L16 8L15 8L15 9L14 9L14 11L13 11L13 10L12 10L12 11L11 11L11 13L10 13L10 14L8 14L8 16L9 16L9 17L12 17L12 16L13 16L13 17L14 17L14 19L13 19L13 18L12 18L12 19L13 19L13 21L14 21L14 22L12 22L12 23L11 23L11 22L8 22L8 23L11 23L11 24L10 24L10 25L12 25L12 24L13 24L13 25L14 25L14 26L12 26L12 29L14 29L14 28L15 28L15 29L17 29L17 30L19 30L19 31L20 31L20 30L22 30L22 31L23 31L23 29L24 29L24 28L23 28L23 29L19 29L19 28L20 28L20 26L22 26L22 27L24 27L24 26L23 26L23 25L24 25L24 24L27 24L27 23L28 23L28 22L31 22L31 20L32 20L32 19L30 19L30 21L25 21L25 22L24 22L24 23L23 23L23 19L22 19L22 24L23 24L23 25L19 25L19 24L20 24L20 21L21 21L21 18L20 18L20 17L21 17L21 16L20 16L20 13L21 13L21 12L20 12L20 11L21 11L21 10L22 10L22 9L19 9L19 10L18 10L18 9L17 9L17 7L18 7L18 8L19 8L19 7L20 7L20 6L19 6L19 7L18 7L18 5L20 5L20 2ZM17 4L17 5L18 5L18 4ZM9 5L9 7L10 7L10 5ZM16 6L16 7L17 7L17 6ZM29 8L29 9L31 9L31 12L32 12L32 13L33 13L33 12L32 12L32 9L33 9L33 8ZM1 9L1 12L2 12L2 14L3 14L3 12L4 12L4 13L6 13L6 14L4 14L4 15L3 15L3 16L2 16L2 18L3 18L3 17L4 17L4 15L5 15L5 16L7 16L7 15L6 15L6 14L7 14L7 13L6 13L6 12L7 12L7 11L6 11L6 10L4 10L4 11L3 11L3 12L2 12L2 9ZM9 9L9 10L10 10L10 9ZM15 9L15 12L14 12L14 13L13 13L13 14L14 14L14 13L15 13L15 15L16 15L16 14L17 14L17 16L14 16L14 17L16 17L16 18L15 18L15 20L14 20L14 21L15 21L15 22L14 22L14 25L15 25L15 28L16 28L16 26L17 26L17 29L18 29L18 27L19 27L19 26L17 26L17 25L18 25L18 24L19 24L19 23L17 23L17 21L18 21L18 19L17 19L17 17L18 17L18 18L19 18L19 17L20 17L20 16L18 16L18 15L19 15L19 13L20 13L20 12L18 12L18 11L16 11L16 10L17 10L17 9ZM12 11L12 12L13 12L13 11ZM16 12L16 13L17 13L17 12ZM11 13L11 14L10 14L10 15L9 15L9 16L10 16L10 15L12 15L12 13ZM25 13L25 14L24 14L24 15L25 15L25 16L22 16L22 17L25 17L25 16L26 16L26 15L28 15L28 14L29 14L29 13L28 13L28 14L27 14L27 13ZM25 14L25 15L26 15L26 14ZM27 16L27 17L26 17L26 18L27 18L27 17L28 17L28 16ZM5 17L5 18L8 18L8 17ZM4 19L4 20L5 20L5 19ZM6 19L6 20L7 20L7 21L6 21L6 22L7 22L7 21L8 21L8 20L9 20L9 19L8 19L8 20L7 20L7 19ZM16 19L16 20L15 20L15 21L16 21L16 20L17 20L17 19ZM19 19L19 21L20 21L20 19ZM26 19L26 20L27 20L27 19ZM28 19L28 20L29 20L29 19ZM10 20L10 21L11 21L11 20ZM26 22L26 23L27 23L27 22ZM3 23L3 24L0 24L0 25L3 25L3 24L4 24L4 25L5 25L5 24L4 24L4 23ZM15 23L15 24L16 24L16 25L17 25L17 23ZM30 23L30 24L29 24L29 26L30 26L30 25L31 25L31 23ZM8 24L8 25L9 25L9 24ZM25 25L25 28L28 28L28 25ZM26 26L26 27L27 27L27 26ZM9 27L9 28L10 28L10 29L11 29L11 27ZM27 29L27 31L28 31L28 29ZM24 30L24 31L25 31L25 30ZM32 32L32 33L33 33L33 32ZM0 0L0 7L7 7L7 0ZM1 1L1 6L6 6L6 1ZM2 2L2 5L5 5L5 2ZM26 0L26 7L33 7L33 0ZM27 1L27 6L32 6L32 1ZM28 2L28 5L31 5L31 2ZM0 26L0 33L7 33L7 26ZM1 27L1 32L6 32L6 27ZM2 28L2 31L5 31L5 28Z" fill="#000000"/></g></g></svg>
