<?xml version="1.0" encoding="UTF-8"?>
<svg xmlns="http://www.w3.org/2000/svg" version="1.1" width="400" height="400" viewBox="0 0 400 400"><rect x="0" y="0" width="400" height="400" fill="#fefefe"/><g transform="scale(9.756)"><g transform="translate(4,4)"><path fill-rule="evenodd" d="M8 0L8 1L9 1L9 2L8 2L8 5L9 5L9 4L11 4L11 5L10 5L10 10L9 10L9 8L8 8L8 9L7 9L7 8L6 8L6 9L4 9L4 8L0 8L0 9L1 9L1 10L0 10L0 11L1 11L1 12L3 12L3 11L2 11L2 9L3 9L3 10L4 10L4 11L5 11L5 12L6 12L6 13L7 13L7 12L8 12L8 11L9 11L9 13L11 13L11 14L10 14L10 15L9 15L9 14L8 14L8 15L7 15L7 14L6 14L6 15L5 15L5 14L4 14L4 13L3 13L3 14L1 14L1 16L0 16L0 17L1 17L1 16L2 16L2 15L3 15L3 14L4 14L4 18L3 18L3 19L4 19L4 21L5 21L5 22L3 22L3 20L2 20L2 19L1 19L1 18L0 18L0 19L1 19L1 20L0 20L0 22L1 22L1 21L2 21L2 23L1 23L1 24L0 24L0 25L1 25L1 24L2 24L2 25L5 25L5 24L6 24L6 25L8 25L8 26L9 26L9 25L8 25L8 23L9 23L9 24L10 24L10 26L11 26L11 24L12 24L12 25L14 25L14 24L16 24L16 23L13 23L13 24L12 24L12 21L13 21L13 19L14 19L14 20L15 20L15 19L16 19L16 20L17 20L17 21L16 21L16 22L17 22L17 21L19 21L19 22L21 22L21 21L23 21L23 22L22 22L22 23L25 23L25 24L24 24L24 25L22 25L22 26L21 26L21 24L20 24L20 25L18 25L18 24L19 24L19 23L18 23L18 24L17 24L17 25L15 25L15 26L18 26L18 30L19 30L19 27L21 27L21 29L22 29L22 28L23 28L23 29L24 29L24 31L23 31L23 30L21 30L21 31L20 31L20 33L24 33L24 32L25 32L25 29L27 29L27 30L26 30L26 33L27 33L27 32L28 32L28 33L31 33L31 32L30 32L30 31L32 31L32 32L33 32L33 31L32 31L32 29L33 29L33 27L31 27L31 26L32 26L32 25L33 25L33 21L32 21L32 20L30 20L30 19L29 19L29 21L32 21L32 25L31 25L31 26L30 26L30 25L29 25L29 23L31 23L31 22L27 22L27 21L26 21L26 20L27 20L27 17L28 17L28 18L29 18L29 17L32 17L32 18L31 18L31 19L32 19L32 18L33 18L33 16L32 16L32 15L30 15L30 16L28 16L28 15L29 15L29 14L28 14L28 13L29 13L29 12L30 12L30 11L28 11L28 9L31 9L31 8L28 8L28 9L26 9L26 8L25 8L25 2L24 2L24 1L25 1L25 0L23 0L23 1L22 1L22 2L24 2L24 9L23 9L23 4L21 4L21 3L20 3L20 2L21 2L21 1L20 1L20 0L19 0L19 1L18 1L18 3L17 3L17 2L15 2L15 0L12 0L12 1L11 1L11 0L10 0L10 1L9 1L9 0ZM19 1L19 2L20 2L20 1ZM11 2L11 4L12 4L12 3L13 3L13 2ZM14 2L14 4L13 4L13 5L12 5L12 6L11 6L11 8L12 8L12 6L13 6L13 10L14 10L14 9L15 9L15 11L14 11L14 13L13 13L13 14L12 14L12 16L11 16L11 19L13 19L13 16L16 16L16 15L17 15L17 17L15 17L15 18L14 18L14 19L15 19L15 18L16 18L16 19L17 19L17 18L19 18L19 19L18 19L18 20L19 20L19 19L21 19L21 20L20 20L20 21L21 21L21 20L23 20L23 19L25 19L25 17L26 17L26 15L28 15L28 14L27 14L27 12L28 12L28 11L27 11L27 10L25 10L25 11L26 11L26 12L25 12L25 13L26 13L26 14L24 14L24 11L23 11L23 10L18 10L18 9L19 9L19 8L18 8L18 9L17 9L17 12L16 12L16 5L17 5L17 7L18 7L18 5L19 5L19 3L18 3L18 5L17 5L17 3L16 3L16 5L14 5L14 4L15 4L15 2ZM20 5L20 6L19 6L19 7L20 7L20 6L21 6L21 8L20 8L20 9L21 9L21 8L22 8L22 5ZM8 6L8 7L9 7L9 6ZM14 6L14 8L15 8L15 6ZM32 8L32 10L31 10L31 11L33 11L33 8ZM6 9L6 10L7 10L7 11L6 11L6 12L7 12L7 11L8 11L8 10L7 10L7 9ZM11 9L11 10L12 10L12 9ZM11 11L11 13L12 13L12 12L13 12L13 11ZM20 11L20 13L19 13L19 12L17 12L17 13L15 13L15 14L17 14L17 13L19 13L19 14L18 14L18 16L19 16L19 15L20 15L20 18L21 18L21 17L22 17L22 15L20 15L20 14L21 14L21 11ZM22 12L22 13L23 13L23 12ZM31 12L31 14L32 14L32 12ZM13 14L13 15L14 15L14 14ZM6 15L6 16L5 16L5 17L6 17L6 18L10 18L10 16L8 16L8 17L6 17L6 16L7 16L7 15ZM23 16L23 18L22 18L22 19L23 19L23 18L24 18L24 17L25 17L25 16ZM4 18L4 19L5 19L5 21L6 21L6 22L5 22L5 23L6 23L6 24L7 24L7 23L6 23L6 22L7 22L7 21L6 21L6 20L7 20L7 19L5 19L5 18ZM8 20L8 22L9 22L9 23L10 23L10 24L11 24L11 22L9 22L9 21L11 21L11 20ZM24 20L24 21L25 21L25 20ZM14 21L14 22L15 22L15 21ZM25 22L25 23L26 23L26 22ZM25 25L25 28L28 28L28 25ZM13 26L13 27L12 27L12 29L11 29L11 27L9 27L9 29L8 29L8 33L9 33L9 32L10 32L10 33L13 33L13 32L12 32L12 31L13 31L13 30L15 30L15 31L16 31L16 33L19 33L19 31L16 31L16 29L15 29L15 28L17 28L17 27L15 27L15 28L13 28L13 27L14 27L14 26ZM22 26L22 27L23 27L23 26ZM26 26L26 27L27 27L27 26ZM29 26L29 29L28 29L28 31L30 31L30 30L31 30L31 29L30 29L30 26ZM9 29L9 31L10 31L10 32L11 32L11 31L12 31L12 30L13 30L13 29L12 29L12 30L11 30L11 31L10 31L10 29ZM29 29L29 30L30 30L30 29ZM21 31L21 32L22 32L22 31ZM0 0L0 7L7 7L7 0ZM1 1L1 6L6 6L6 1ZM2 2L2 5L5 5L5 2ZM26 0L26 7L33 7L33 0ZM27 1L27 6L32 6L32 1ZM28 2L28 5L31 5L31 2ZM0 26L0 33L7 33L7 26ZM1 27L1 32L6 32L6 27ZM2 28L2 31L5 31L5 28Z" fill="#000000"/></g></g></svg>
