<?xml version="1.0" encoding="UTF-8"?>
<svg xmlns="http://www.w3.org/2000/svg" version="1.1" width="400" height="400" viewBox="0 0 400 400"><rect x="0" y="0" width="400" height="400" fill="#fefefe"/><g transform="scale(9.756)"><g transform="translate(4,4)"><path fill-rule="evenodd" d="M8 0L8 1L11 1L11 2L10 2L10 4L9 4L9 2L8 2L8 5L11 5L11 4L12 4L12 1L13 1L13 4L14 4L14 5L16 5L16 12L17 12L17 13L15 13L15 14L17 14L17 13L19 13L19 14L18 14L18 16L20 16L20 19L19 19L19 18L17 18L17 19L16 19L16 18L15 18L15 17L17 17L17 15L16 15L16 16L13 16L13 15L14 15L14 14L13 14L13 13L14 13L14 11L15 11L15 9L14 9L14 10L13 10L13 9L11 9L11 6L10 6L10 9L11 9L11 10L9 10L9 8L8 8L8 9L7 9L7 8L6 8L6 9L4 9L4 8L0 8L0 11L1 11L1 14L0 14L0 15L1 15L1 16L0 16L0 17L1 17L1 18L0 18L0 22L2 22L2 19L3 19L3 20L5 20L5 19L4 19L4 18L5 18L5 17L7 17L7 18L6 18L6 19L7 19L7 18L8 18L8 19L9 19L9 20L10 20L10 23L11 23L11 24L9 24L9 21L8 21L8 23L7 23L7 22L6 22L6 21L7 21L7 20L6 20L6 21L3 21L3 23L1 23L1 24L0 24L0 25L1 25L1 24L4 24L4 25L8 25L8 26L11 26L11 24L12 24L12 25L14 25L14 24L16 24L16 23L13 23L13 24L12 24L12 22L13 22L13 21L12 21L12 20L13 20L13 19L14 19L14 20L15 20L15 19L16 19L16 20L17 20L17 21L16 21L16 22L17 22L17 21L19 21L19 22L20 22L20 21L23 21L23 22L22 22L22 23L23 23L23 24L24 24L24 25L22 25L22 27L21 27L21 30L20 30L20 31L22 31L22 28L23 28L23 30L24 30L24 29L27 29L27 30L26 30L26 31L24 31L24 32L25 32L25 33L26 33L26 32L27 32L27 33L31 33L31 32L30 32L30 31L32 31L32 32L33 32L33 31L32 31L32 27L31 27L31 26L32 26L32 25L33 25L33 21L32 21L32 20L30 20L30 19L29 19L29 21L32 21L32 25L31 25L31 26L30 26L30 25L29 25L29 23L31 23L31 22L29 22L29 23L28 23L28 19L27 19L27 18L29 18L29 17L32 17L32 18L31 18L31 19L32 19L32 18L33 18L33 16L32 16L32 15L30 15L30 16L28 16L28 17L27 17L27 16L26 16L26 17L25 17L25 16L23 16L23 18L21 18L21 17L22 17L22 14L23 14L23 13L22 13L22 14L21 14L21 11L20 11L20 13L19 13L19 12L17 12L17 9L18 9L18 10L22 10L22 12L23 12L23 11L26 11L26 12L25 12L25 13L26 13L26 12L27 12L27 11L28 11L28 13L29 13L29 12L30 12L30 11L29 11L29 10L28 10L28 9L31 9L31 8L28 8L28 9L26 9L26 8L24 8L24 7L25 7L25 2L24 2L24 1L25 1L25 0L23 0L23 1L22 1L22 2L23 2L23 3L22 3L22 4L23 4L23 3L24 3L24 7L23 7L23 5L21 5L21 6L20 6L20 4L19 4L19 3L21 3L21 1L20 1L20 0L19 0L19 1L20 1L20 2L19 2L19 3L17 3L17 2L18 2L18 1L17 1L17 2L15 2L15 0ZM14 2L14 4L15 4L15 2ZM16 3L16 5L17 5L17 7L18 7L18 9L19 9L19 7L20 7L20 6L19 6L19 5L18 5L18 4L17 4L17 3ZM8 6L8 7L9 7L9 6ZM12 6L12 7L13 7L13 6ZM14 6L14 8L15 8L15 6ZM18 6L18 7L19 7L19 6ZM21 6L21 8L20 8L20 9L21 9L21 8L23 8L23 7L22 7L22 6ZM32 8L32 10L31 10L31 11L33 11L33 8ZM6 9L6 10L7 10L7 11L6 11L6 12L7 12L7 13L6 13L6 14L7 14L7 15L5 15L5 10L2 10L2 13L3 13L3 14L1 14L1 15L2 15L2 18L1 18L1 19L2 19L2 18L4 18L4 17L5 17L5 16L7 16L7 17L9 17L9 19L10 19L10 20L11 20L11 19L12 19L12 18L13 18L13 16L12 16L12 18L11 18L11 17L9 17L9 16L7 16L7 15L10 15L10 16L11 16L11 15L13 15L13 14L12 14L12 13L13 13L13 12L11 12L11 13L10 13L10 14L7 14L7 13L9 13L9 12L7 12L7 11L8 11L8 10L7 10L7 9ZM12 10L12 11L13 11L13 10ZM31 12L31 14L32 14L32 12ZM3 14L3 15L4 15L4 14ZM28 14L28 15L29 15L29 14ZM20 15L20 16L21 16L21 15ZM3 16L3 17L4 17L4 16ZM24 17L24 18L23 18L23 19L25 19L25 17ZM10 18L10 19L11 19L11 18ZM14 18L14 19L15 19L15 18ZM18 19L18 20L19 20L19 19ZM21 19L21 20L22 20L22 19ZM24 20L24 21L25 21L25 20ZM26 20L26 21L27 21L27 20ZM14 21L14 22L15 22L15 21ZM5 22L5 24L7 24L7 23L6 23L6 22ZM18 23L18 24L17 24L17 25L15 25L15 26L18 26L18 30L19 30L19 29L20 29L20 28L19 28L19 27L20 27L20 26L21 26L21 24L20 24L20 23ZM24 23L24 24L27 24L27 23ZM18 24L18 25L19 25L19 24ZM25 25L25 28L28 28L28 25ZM12 26L12 29L11 29L11 27L9 27L9 29L8 29L8 33L9 33L9 31L10 31L10 33L11 33L11 31L10 31L10 30L12 30L12 29L13 29L13 30L15 30L15 31L14 31L14 32L15 32L15 31L16 31L16 33L23 33L23 32L19 32L19 31L16 31L16 29L15 29L15 28L17 28L17 27L15 27L15 28L13 28L13 27L14 27L14 26ZM26 26L26 27L27 27L27 26ZM29 26L29 29L28 29L28 31L27 31L27 32L29 32L29 31L30 31L30 30L31 30L31 29L30 29L30 26ZM9 29L9 30L10 30L10 29ZM29 29L29 30L30 30L30 29ZM12 31L12 33L13 33L13 31ZM0 0L0 7L7 7L7 0ZM1 1L1 6L6 6L6 1ZM2 2L2 5L5 5L5 2ZM26 0L26 7L33 7L33 0ZM27 1L27 6L32 6L32 1ZM28 2L28 5L31 5L31 2ZM0 26L0 33L7 33L7 26ZM1 27L1 32L6 32L6 27ZM2 28L2 31L5 31L5 28Z" fill="#000000"/></g></g></svg>
