<?xml version="1.0" encoding="UTF-8"?>
<svg xmlns="http://www.w3.org/2000/svg" version="1.1" width="400" height="400" viewBox="0 0 400 400"><rect x="0" y="0" width="400" height="400" fill="#fefefe"/><g transform="scale(9.756)"><g transform="translate(4,4)"><path fill-rule="evenodd" d="M8 0L8 1L9 1L9 2L10 2L10 3L11 3L11 1L13 1L13 0L11 0L11 1L9 1L9 0ZM16 0L16 1L17 1L17 0ZM20 0L20 1L18 1L18 3L17 3L17 2L16 2L16 4L17 4L17 5L16 5L16 8L15 8L15 6L14 6L14 5L15 5L15 3L14 3L14 2L15 2L15 1L14 1L14 2L12 2L12 4L11 4L11 5L10 5L10 4L9 4L9 5L10 5L10 8L9 8L9 6L8 6L8 8L9 8L9 9L8 9L8 10L10 10L10 11L7 11L7 10L3 10L3 9L5 9L5 8L3 8L3 9L2 9L2 8L0 8L0 12L2 12L2 13L3 13L3 14L0 14L0 18L1 18L1 20L2 20L2 19L4 19L4 21L0 21L0 25L2 25L2 24L3 24L3 25L5 25L5 24L6 24L6 25L8 25L8 26L10 26L10 24L9 24L9 25L8 25L8 23L10 23L10 22L9 22L9 21L10 21L10 20L8 20L8 21L7 21L7 20L6 20L6 21L7 21L7 22L5 22L5 19L4 19L4 18L6 18L6 19L7 19L7 18L9 18L9 19L10 19L10 18L11 18L11 19L12 19L12 18L13 18L13 17L14 17L14 19L13 19L13 20L15 20L15 23L14 23L14 25L13 25L13 22L12 22L12 20L11 20L11 23L12 23L12 24L11 24L11 26L13 26L13 27L10 27L10 28L8 28L8 30L9 30L9 31L8 31L8 33L9 33L9 31L10 31L10 33L11 33L11 31L12 31L12 32L15 32L15 33L18 33L18 32L17 32L17 31L18 31L18 29L17 29L17 30L16 30L16 28L15 28L15 27L16 27L16 26L17 26L17 24L18 24L18 23L19 23L19 22L21 22L21 23L23 23L23 24L22 24L22 30L20 30L20 29L19 29L19 33L21 33L21 32L20 32L20 31L22 31L22 33L27 33L27 31L30 31L30 32L28 32L28 33L30 33L30 32L33 32L33 30L32 30L32 31L31 31L31 29L33 29L33 28L32 28L32 27L30 27L30 28L31 28L31 29L30 29L30 30L28 30L28 29L29 29L29 25L30 25L30 26L31 26L31 25L32 25L32 24L33 24L33 22L32 22L32 23L30 23L30 22L29 22L29 21L30 21L30 20L31 20L31 21L32 21L32 19L33 19L33 15L31 15L31 13L30 13L30 12L32 12L32 13L33 13L33 12L32 12L32 11L33 11L33 10L30 10L30 12L29 12L29 9L27 9L27 8L26 8L26 9L27 9L27 10L25 10L25 11L24 11L24 9L25 9L25 6L24 6L24 5L25 5L25 4L24 4L24 3L25 3L25 2L24 2L24 3L23 3L23 4L24 4L24 5L22 5L22 2L23 2L23 0L22 0L22 2L21 2L21 4L18 4L18 3L19 3L19 2L20 2L20 1L21 1L21 0ZM24 0L24 1L25 1L25 0ZM12 4L12 5L11 5L11 7L12 7L12 9L10 9L10 10L12 10L12 11L13 11L13 13L11 13L11 12L10 12L10 14L9 14L9 13L8 13L8 12L7 12L7 11L5 11L5 12L7 12L7 13L6 13L6 14L3 14L3 15L2 15L2 16L1 16L1 17L2 17L2 18L4 18L4 17L6 17L6 18L7 18L7 17L6 17L6 16L8 16L8 17L9 17L9 16L11 16L11 17L12 17L12 16L14 16L14 15L15 15L15 13L16 13L16 11L13 11L13 10L15 10L15 8L13 8L13 7L14 7L14 6L13 6L13 7L12 7L12 5L14 5L14 4ZM19 5L19 7L18 7L18 6L17 6L17 8L19 8L19 7L20 7L20 5ZM21 6L21 11L20 11L20 10L19 10L19 12L20 12L20 13L19 13L19 14L16 14L16 16L15 16L15 18L17 18L17 20L16 20L16 19L15 19L15 20L16 20L16 24L15 24L15 25L14 25L14 27L13 27L13 28L12 28L12 29L11 29L11 28L10 28L10 29L9 29L9 30L10 30L10 31L11 31L11 30L12 30L12 29L13 29L13 30L14 30L14 29L13 29L13 28L14 28L14 27L15 27L15 25L16 25L16 24L17 24L17 23L18 23L18 22L19 22L19 21L20 21L20 20L18 20L18 18L17 18L17 17L18 17L18 15L19 15L19 17L20 17L20 19L21 19L21 21L22 21L22 19L21 19L21 18L24 18L24 19L23 19L23 20L25 20L25 24L26 24L26 22L27 22L27 24L29 24L29 22L27 22L27 20L26 20L26 19L27 19L27 18L26 18L26 16L25 16L25 15L27 15L27 14L29 14L29 16L30 16L30 17L31 17L31 16L30 16L30 14L29 14L29 12L27 12L27 13L25 13L25 12L26 12L26 11L25 11L25 12L22 12L22 11L23 11L23 10L22 10L22 9L24 9L24 6L23 6L23 7L22 7L22 6ZM6 8L6 9L7 9L7 8ZM32 8L32 9L33 9L33 8ZM1 9L1 10L2 10L2 9ZM12 9L12 10L13 10L13 9ZM16 9L16 10L17 10L17 11L18 11L18 9ZM2 11L2 12L4 12L4 11ZM14 12L14 13L13 13L13 14L11 14L11 16L12 16L12 15L14 15L14 13L15 13L15 12ZM17 12L17 13L18 13L18 12ZM7 13L7 14L6 14L6 15L7 15L7 14L8 14L8 13ZM20 13L20 14L19 14L19 15L20 15L20 16L21 16L21 15L22 15L22 16L23 16L23 17L24 17L24 18L25 18L25 17L24 17L24 16L23 16L23 15L22 15L22 14L21 14L21 13ZM23 13L23 14L24 14L24 15L25 15L25 13ZM20 14L20 15L21 15L21 14ZM4 15L4 16L3 16L3 17L4 17L4 16L5 16L5 15ZM8 15L8 16L9 16L9 15ZM16 16L16 17L17 17L17 16ZM28 18L28 21L29 21L29 20L30 20L30 19L32 19L32 18L30 18L30 19L29 19L29 18ZM17 20L17 21L18 21L18 20ZM1 22L1 24L2 24L2 22ZM3 23L3 24L4 24L4 23ZM6 23L6 24L7 24L7 23ZM19 24L19 25L21 25L21 24ZM23 24L23 25L24 25L24 24ZM30 24L30 25L31 25L31 24ZM25 25L25 28L28 28L28 25ZM19 26L19 27L18 27L18 28L19 28L19 27L20 27L20 28L21 28L21 27L20 27L20 26ZM26 26L26 27L27 27L27 26ZM23 27L23 28L24 28L24 27ZM23 29L23 30L24 30L24 29ZM25 29L25 31L23 31L23 32L25 32L25 31L27 31L27 29ZM15 31L15 32L16 32L16 31ZM0 0L0 7L7 7L7 0ZM1 1L1 6L6 6L6 1ZM2 2L2 5L5 5L5 2ZM26 0L26 7L33 7L33 0ZM27 1L27 6L32 6L32 1ZM28 2L28 5L31 5L31 2ZM0 26L0 33L7 33L7 26ZM1 27L1 32L6 32L6 27ZM2 28L2 31L5 31L5 28Z" fill="#000000"/></g></g></svg>
