<?xml version="1.0" encoding="UTF-8"?>
<svg xmlns="http://www.w3.org/2000/svg" version="1.1" width="400" height="400" viewBox="0 0 400 400"><rect x="0" y="0" width="400" height="400" fill="#fefefe"/><g transform="scale(9.756)"><g transform="translate(4,4)"><path fill-rule="evenodd" d="M8 0L8 1L9 1L9 2L8 2L8 5L9 5L9 4L11 4L11 5L10 5L10 10L9 10L9 8L8 8L8 9L7 9L7 8L6 8L6 9L7 9L7 10L5 10L5 9L4 9L4 8L0 8L0 10L1 10L1 13L0 13L0 15L1 15L1 16L2 16L2 17L1 17L1 18L2 18L2 17L3 17L3 16L4 16L4 18L5 18L5 19L7 19L7 18L6 18L6 17L7 17L7 16L4 16L4 15L5 15L5 14L6 14L6 15L7 15L7 14L8 14L8 15L9 15L9 14L10 14L10 13L11 13L11 16L10 16L10 17L9 17L9 16L8 16L8 19L9 19L9 18L10 18L10 20L9 20L9 21L10 21L10 20L11 20L11 22L10 22L10 23L9 23L9 22L4 22L4 23L3 23L3 21L7 21L7 20L2 20L2 19L0 19L0 22L1 22L1 20L2 20L2 23L1 23L1 24L0 24L0 25L1 25L1 24L2 24L2 25L8 25L8 26L9 26L9 28L10 28L10 29L8 29L8 33L9 33L9 30L10 30L10 32L12 32L12 33L13 33L13 32L12 32L12 31L13 31L13 30L15 30L15 31L16 31L16 33L20 33L20 32L21 32L21 33L22 33L22 32L23 32L23 31L22 31L22 30L24 30L24 32L25 32L25 31L27 31L27 33L31 33L31 32L30 32L30 31L32 31L32 32L33 32L33 31L32 31L32 29L33 29L33 27L31 27L31 26L32 26L32 25L33 25L33 21L32 21L32 20L30 20L30 19L29 19L29 21L32 21L32 25L31 25L31 26L30 26L30 25L29 25L29 23L31 23L31 22L28 22L28 19L27 19L27 17L28 17L28 18L29 18L29 17L32 17L32 18L31 18L31 19L32 19L32 18L33 18L33 16L32 16L32 15L30 15L30 16L27 16L27 15L26 15L26 14L25 14L25 13L26 13L26 12L25 12L25 11L24 11L24 9L23 9L23 8L24 8L24 7L25 7L25 2L24 2L24 1L25 1L25 0L23 0L23 1L22 1L22 2L24 2L24 7L23 7L23 5L21 5L21 2L20 2L20 4L19 4L19 3L17 3L17 2L15 2L15 0L12 0L12 1L11 1L11 0L10 0L10 1L9 1L9 0ZM18 0L18 2L19 2L19 1L21 1L21 0ZM11 2L11 4L12 4L12 3L13 3L13 2ZM14 2L14 4L13 4L13 5L12 5L12 6L11 6L11 8L12 8L12 6L13 6L13 10L14 10L14 9L15 9L15 11L14 11L14 13L13 13L13 14L12 14L12 16L11 16L11 19L13 19L13 21L12 21L12 24L11 24L11 26L10 26L10 25L9 25L9 26L10 26L10 28L11 28L11 27L13 27L13 28L15 28L15 29L16 29L16 31L20 31L20 28L21 28L21 27L19 27L19 30L18 30L18 26L15 26L15 25L17 25L17 24L18 24L18 25L20 25L20 26L24 26L24 24L23 24L23 23L22 23L22 22L23 22L23 21L20 21L20 22L19 22L19 21L17 21L17 20L16 20L16 19L17 19L17 18L19 18L19 19L18 19L18 20L19 20L19 19L20 19L20 20L22 20L22 19L25 19L25 17L26 17L26 15L25 15L25 14L24 14L24 11L23 11L23 10L22 10L22 11L21 11L21 9L20 9L20 6L21 6L21 8L23 8L23 7L22 7L22 6L21 6L21 5L20 5L20 6L19 6L19 5L18 5L18 4L17 4L17 3L16 3L16 5L14 5L14 4L15 4L15 2ZM22 3L22 4L23 4L23 3ZM16 5L16 12L17 12L17 13L15 13L15 14L17 14L17 13L19 13L19 14L18 14L18 16L19 16L19 17L20 17L20 16L19 16L19 15L21 15L21 17L22 17L22 18L20 18L20 19L22 19L22 18L24 18L24 17L25 17L25 16L23 16L23 13L21 13L21 11L19 11L19 12L17 12L17 9L18 9L18 10L20 10L20 9L18 9L18 7L19 7L19 6L18 6L18 7L17 7L17 5ZM8 6L8 7L9 7L9 6ZM14 6L14 8L15 8L15 6ZM25 8L25 10L26 10L26 11L27 11L27 14L28 14L28 15L29 15L29 14L28 14L28 13L29 13L29 12L30 12L30 11L28 11L28 9L31 9L31 8L28 8L28 9L26 9L26 8ZM32 8L32 10L31 10L31 11L33 11L33 8ZM2 9L2 12L4 12L4 11L5 11L5 13L4 13L4 14L5 14L5 13L6 13L6 14L7 14L7 13L6 13L6 12L7 12L7 11L8 11L8 12L9 12L9 11L8 11L8 10L7 10L7 11L5 11L5 10L3 10L3 9ZM11 9L11 10L12 10L12 9ZM11 11L11 13L12 13L12 12L13 12L13 11ZM19 12L19 13L20 13L20 12ZM31 12L31 14L32 14L32 12ZM1 13L1 15L2 15L2 13ZM13 14L13 15L14 15L14 14ZM21 14L21 15L22 15L22 14ZM16 15L16 16L13 16L13 19L14 19L14 20L15 20L15 19L16 19L16 18L15 18L15 17L17 17L17 15ZM14 18L14 19L15 19L15 18ZM24 20L24 21L25 21L25 20ZM26 20L26 21L27 21L27 20ZM14 21L14 22L15 22L15 21ZM16 21L16 22L17 22L17 21ZM20 22L20 24L21 24L21 22ZM25 22L25 24L26 24L26 22ZM27 22L27 23L28 23L28 22ZM2 23L2 24L3 24L3 23ZM6 23L6 24L8 24L8 23ZM13 23L13 24L12 24L12 25L14 25L14 24L16 24L16 23ZM18 23L18 24L19 24L19 23ZM22 24L22 25L23 25L23 24ZM25 25L25 28L28 28L28 25ZM13 26L13 27L14 27L14 26ZM26 26L26 27L27 27L27 26ZM29 26L29 29L26 29L26 30L27 30L27 31L28 31L28 32L29 32L29 31L30 31L30 30L31 30L31 29L30 29L30 26ZM15 27L15 28L17 28L17 27ZM23 27L23 28L24 28L24 27ZM12 29L12 30L11 30L11 31L12 31L12 30L13 30L13 29ZM21 29L21 30L22 30L22 29ZM29 29L29 30L30 30L30 29ZM21 31L21 32L22 32L22 31ZM0 0L0 7L7 7L7 0ZM1 1L1 6L6 6L6 1ZM2 2L2 5L5 5L5 2ZM26 0L26 7L33 7L33 0ZM27 1L27 6L32 6L32 1ZM28 2L28 5L31 5L31 2ZM0 26L0 33L7 33L7 26ZM1 27L1 32L6 32L6 27ZM2 28L2 31L5 31L5 28Z" fill="#000000"/></g></g></svg>
