<?xml version="1.0" encoding="UTF-8"?>
<svg xmlns="http://www.w3.org/2000/svg" version="1.1" width="400" height="400" viewBox="0 0 400 400"><rect x="0" y="0" width="400" height="400" fill="#fefefe"/><g transform="scale(9.756)"><g transform="translate(4,4)"><path fill-rule="evenodd" d="M9 0L9 1L8 1L8 3L9 3L9 4L8 4L8 8L6 8L6 9L8 9L8 10L4 10L4 8L3 8L3 9L2 9L2 8L0 8L0 9L1 9L1 10L0 10L0 15L1 15L1 16L0 16L0 18L1 18L1 20L0 20L0 21L1 21L1 22L0 22L0 23L1 23L1 24L0 24L0 25L1 25L1 24L4 24L4 25L5 25L5 20L6 20L6 21L7 21L7 22L6 22L6 23L7 23L7 22L8 22L8 21L7 21L7 20L6 20L6 19L10 19L10 20L9 20L9 21L10 21L10 23L11 23L11 24L12 24L12 25L14 25L14 26L15 26L15 25L17 25L17 27L15 27L15 28L14 28L14 27L13 27L13 28L14 28L14 29L13 29L13 30L14 30L14 32L13 32L13 33L14 33L14 32L16 32L16 33L17 33L17 32L20 32L20 33L29 33L29 32L30 32L30 31L33 31L33 27L32 27L32 26L33 26L33 25L31 25L31 27L32 27L32 29L31 29L31 30L30 30L30 25L29 25L29 24L28 24L28 23L27 23L27 22L28 22L28 20L30 20L30 19L28 19L28 17L29 17L29 16L30 16L30 15L32 15L32 14L33 14L33 9L32 9L32 8L30 8L30 9L29 9L29 8L26 8L26 9L25 9L25 10L24 10L24 11L25 11L25 10L26 10L26 13L25 13L25 14L23 14L23 13L22 13L22 12L23 12L23 9L24 9L24 8L25 8L25 3L24 3L24 1L25 1L25 0L19 0L19 1L20 1L20 2L22 2L22 1L23 1L23 4L21 4L21 3L19 3L19 2L17 2L17 0L15 0L15 4L13 4L13 5L14 5L14 7L15 7L15 8L16 8L16 11L15 11L15 9L14 9L14 8L13 8L13 6L12 6L12 5L11 5L11 6L10 6L10 5L9 5L9 4L12 4L12 3L13 3L13 2L14 2L14 0L12 0L12 1L11 1L11 2L9 2L9 1L10 1L10 0ZM16 3L16 6L15 6L15 7L16 7L16 8L17 8L17 9L18 9L18 10L20 10L20 12L19 12L19 11L16 11L16 12L19 12L19 13L15 13L15 14L14 14L14 13L13 13L13 15L14 15L14 16L13 16L13 17L11 17L11 16L12 16L12 14L10 14L10 13L12 13L12 12L13 12L13 11L14 11L14 10L13 10L13 8L12 8L12 6L11 6L11 7L10 7L10 6L9 6L9 7L10 7L10 8L8 8L8 9L9 9L9 10L8 10L8 12L9 12L9 13L5 13L5 12L7 12L7 11L4 11L4 10L1 10L1 12L2 12L2 13L1 13L1 14L5 14L5 15L4 15L4 16L2 16L2 18L3 18L3 19L2 19L2 20L1 20L1 21L2 21L2 22L3 22L3 23L4 23L4 17L5 17L5 15L6 15L6 16L8 16L8 17L6 17L6 18L8 18L8 17L10 17L10 18L11 18L11 19L13 19L13 20L11 20L11 23L12 23L12 24L13 24L13 23L12 23L12 21L13 21L13 20L14 20L14 21L15 21L15 22L14 22L14 24L16 24L16 23L17 23L17 24L18 24L18 25L20 25L20 26L18 26L18 29L17 29L17 28L15 28L15 29L14 29L14 30L15 30L15 31L16 31L16 32L17 32L17 31L20 31L20 32L21 32L21 31L20 31L20 30L21 30L21 29L19 29L19 27L20 27L20 28L21 28L21 27L22 27L22 28L23 28L23 29L22 29L22 30L23 30L23 29L24 29L24 26L23 26L23 25L24 25L24 22L26 22L26 21L27 21L27 17L26 17L26 20L25 20L25 21L24 21L24 20L23 20L23 19L25 19L25 16L22 16L22 17L24 17L24 18L22 18L22 20L23 20L23 21L19 21L19 20L21 20L21 17L17 17L17 18L19 18L19 19L18 19L18 20L17 20L17 19L16 19L16 18L15 18L15 17L14 17L14 16L16 16L16 15L17 15L17 14L18 14L18 16L19 16L19 15L20 15L20 16L21 16L21 15L22 15L22 14L21 14L21 15L20 15L20 14L19 14L19 13L20 13L20 12L21 12L21 9L20 9L20 8L19 8L19 9L18 9L18 8L17 8L17 7L18 7L18 6L19 6L19 7L20 7L20 6L19 6L19 5L20 5L20 4L19 4L19 3ZM22 5L22 6L21 6L21 7L22 7L22 6L23 6L23 7L24 7L24 5ZM16 6L16 7L17 7L17 6ZM10 8L10 10L9 10L9 11L11 11L11 10L12 10L12 9L11 9L11 8ZM27 9L27 14L26 14L26 16L29 16L29 14L31 14L31 12L32 12L32 10L31 10L31 11L30 11L30 12L29 12L29 9ZM3 11L3 13L4 13L4 11ZM28 13L28 14L27 14L27 15L28 15L28 14L29 14L29 13ZM6 14L6 15L8 15L8 14ZM9 14L9 15L10 15L10 16L11 16L11 15L10 15L10 14ZM32 16L32 17L33 17L33 16ZM13 17L13 19L15 19L15 20L16 20L16 19L15 19L15 18L14 18L14 17ZM31 18L31 19L32 19L32 20L33 20L33 18ZM16 21L16 22L17 22L17 23L18 23L18 24L19 24L19 23L20 23L20 24L21 24L21 25L23 25L23 22L22 22L22 23L20 23L20 22L19 22L19 21ZM29 21L29 22L31 22L31 23L33 23L33 21ZM8 23L8 24L6 24L6 25L8 25L8 27L10 27L10 26L9 26L9 23ZM25 23L25 24L27 24L27 23ZM25 25L25 28L28 28L28 25ZM11 26L11 28L10 28L10 29L8 29L8 30L10 30L10 33L11 33L11 32L12 32L12 31L11 31L11 30L12 30L12 29L11 29L11 28L12 28L12 26ZM20 26L20 27L21 27L21 26ZM22 26L22 27L23 27L23 26ZM26 26L26 27L27 27L27 26ZM16 29L16 31L17 31L17 29ZM18 29L18 30L19 30L19 29ZM25 29L25 32L27 32L27 31L28 31L28 32L29 32L29 31L30 31L30 30L29 30L29 31L28 31L28 29L27 29L27 30L26 30L26 29ZM8 31L8 33L9 33L9 31ZM22 31L22 32L24 32L24 31ZM31 32L31 33L32 33L32 32ZM0 0L0 7L7 7L7 0ZM1 1L1 6L6 6L6 1ZM2 2L2 5L5 5L5 2ZM26 0L26 7L33 7L33 0ZM27 1L27 6L32 6L32 1ZM28 2L28 5L31 5L31 2ZM0 26L0 33L7 33L7 26ZM1 27L1 32L6 32L6 27ZM2 28L2 31L5 31L5 28Z" fill="#000000"/></g></g></svg>
