<?xml version="1.0" encoding="UTF-8"?>
<svg xmlns="http://www.w3.org/2000/svg" version="1.1" width="400" height="400" viewBox="0 0 400 400"><rect x="0" y="0" width="400" height="400" fill="#fefefe"/><g transform="scale(9.756)"><g transform="translate(4,4)"><path fill-rule="evenodd" d="M11 0L11 1L8 1L8 3L9 3L9 2L10 2L10 4L8 4L8 8L6 8L6 9L8 9L8 8L10 8L10 9L13 9L13 10L12 10L12 11L11 11L11 10L9 10L9 11L8 11L8 12L6 12L6 11L7 11L7 10L5 10L5 9L4 9L4 8L3 8L3 10L4 10L4 11L5 11L5 12L3 12L3 11L2 11L2 12L3 12L3 15L4 15L4 16L5 16L5 17L4 17L4 18L5 18L5 17L7 17L7 18L6 18L6 19L9 19L9 20L12 20L12 21L13 21L13 22L12 22L12 23L8 23L8 24L6 24L6 23L7 23L7 22L9 22L9 21L8 21L8 20L6 20L6 21L5 21L5 23L4 23L4 21L3 21L3 20L5 20L5 19L3 19L3 20L2 20L2 19L1 19L1 18L3 18L3 16L2 16L2 15L1 15L1 13L0 13L0 15L1 15L1 16L0 16L0 21L1 21L1 22L0 22L0 23L1 23L1 24L0 24L0 25L1 25L1 24L2 24L2 22L3 22L3 25L4 25L4 24L5 24L5 25L8 25L8 27L9 27L9 29L8 29L8 30L12 30L12 29L10 29L10 28L14 28L14 29L13 29L13 30L14 30L14 31L15 31L15 32L16 32L16 33L17 33L17 32L19 32L19 33L25 33L25 32L26 32L26 33L29 33L29 32L30 32L30 31L33 31L33 29L31 29L31 30L30 30L30 25L29 25L29 24L27 24L27 23L26 23L26 22L28 22L28 23L29 23L29 22L31 22L31 23L33 23L33 21L29 21L29 22L28 22L28 19L29 19L29 20L30 20L30 19L29 19L29 18L28 18L28 17L29 17L29 16L30 16L30 15L32 15L32 14L33 14L33 9L32 9L32 8L30 8L30 9L29 9L29 8L26 8L26 11L27 11L27 10L28 10L28 11L29 11L29 12L30 12L30 11L31 11L31 10L32 10L32 12L31 12L31 14L29 14L29 13L28 13L28 12L25 12L25 11L23 11L23 10L22 10L22 8L23 8L23 9L24 9L24 10L25 10L25 6L24 6L24 7L23 7L23 6L22 6L22 7L21 7L21 5L19 5L19 6L18 6L18 7L17 7L17 6L16 6L16 3L18 3L18 2L19 2L19 1L21 1L21 2L20 2L20 3L19 3L19 4L20 4L20 3L21 3L21 2L22 2L22 1L23 1L23 3L22 3L22 4L23 4L23 5L25 5L25 0L19 0L19 1L18 1L18 2L17 2L17 0L15 0L15 4L13 4L13 2L14 2L14 0ZM12 1L12 2L11 2L11 4L12 4L12 2L13 2L13 1ZM23 3L23 4L24 4L24 3ZM17 4L17 5L18 5L18 4ZM11 5L11 7L10 7L10 6L9 6L9 7L10 7L10 8L14 8L14 9L15 9L15 11L16 11L16 12L19 12L19 13L15 13L15 14L14 14L14 13L13 13L13 12L11 12L11 11L9 11L9 12L8 12L8 13L6 13L6 14L5 14L5 15L6 15L6 16L7 16L7 15L6 15L6 14L8 14L8 13L11 13L11 14L9 14L9 15L11 15L11 17L10 17L10 16L8 16L8 18L9 18L9 17L10 17L10 19L12 19L12 18L13 18L13 17L14 17L14 18L15 18L15 19L13 19L13 20L14 20L14 21L15 21L15 22L14 22L14 24L16 24L16 23L17 23L17 24L18 24L18 25L20 25L20 26L18 26L18 29L17 29L17 28L15 28L15 27L17 27L17 25L15 25L15 26L14 26L14 25L12 25L12 24L13 24L13 23L12 23L12 24L10 24L10 25L9 25L9 24L8 24L8 25L9 25L9 26L10 26L10 27L11 27L11 26L13 26L13 27L14 27L14 28L15 28L15 29L14 29L14 30L15 30L15 31L16 31L16 32L17 32L17 31L19 31L19 32L21 32L21 31L22 31L22 29L24 29L24 26L23 26L23 25L24 25L24 24L25 24L25 22L26 22L26 21L27 21L27 17L26 17L26 20L25 20L25 21L24 21L24 20L23 20L23 21L20 21L20 20L19 20L19 19L21 19L21 18L20 18L20 17L21 17L21 16L20 16L20 17L17 17L17 18L19 18L19 19L18 19L18 20L17 20L17 19L16 19L16 18L15 18L15 17L14 17L14 16L16 16L16 15L17 15L17 14L18 14L18 16L19 16L19 15L22 15L22 14L25 14L25 16L22 16L22 17L24 17L24 18L22 18L22 19L25 19L25 16L27 16L27 14L26 14L26 13L25 13L25 12L23 12L23 13L22 13L22 14L21 14L21 12L20 12L20 11L16 11L16 8L17 8L17 9L18 9L18 10L20 10L20 9L21 9L21 8L19 8L19 9L18 9L18 8L17 8L17 7L16 7L16 6L15 6L15 7L14 7L14 5ZM12 6L12 7L13 7L13 6ZM19 6L19 7L20 7L20 6ZM15 7L15 8L16 8L16 7ZM0 8L0 10L1 10L1 9L2 9L2 8ZM28 9L28 10L29 10L29 9ZM13 10L13 11L14 11L14 10ZM21 10L21 11L22 11L22 10ZM12 13L12 14L11 14L11 15L13 15L13 16L12 16L12 17L11 17L11 18L12 18L12 17L13 17L13 16L14 16L14 15L13 15L13 13ZM19 13L19 14L20 14L20 13ZM28 14L28 16L29 16L29 14ZM32 16L32 17L33 17L33 16ZM31 18L31 19L32 19L32 20L33 20L33 18ZM15 19L15 20L16 20L16 19ZM1 20L1 21L2 21L2 20ZM6 21L6 22L7 22L7 21ZM10 21L10 22L11 22L11 21ZM16 21L16 22L17 22L17 23L18 23L18 24L20 24L20 23L21 23L21 25L23 25L23 24L24 24L24 23L23 23L23 22L22 22L22 23L21 23L21 22L19 22L19 21ZM10 25L10 26L11 26L11 25ZM25 25L25 28L28 28L28 25ZM31 25L31 27L32 27L32 26L33 26L33 25ZM20 26L20 27L19 27L19 29L18 29L18 30L19 30L19 29L22 29L22 27L23 27L23 26L22 26L22 27L21 27L21 26ZM26 26L26 27L27 27L27 26ZM20 27L20 28L21 28L21 27ZM16 29L16 31L17 31L17 29ZM25 29L25 31L26 31L26 32L27 32L27 31L28 31L28 32L29 32L29 31L30 31L30 30L29 30L29 31L28 31L28 29L27 29L27 30L26 30L26 29ZM20 30L20 31L21 31L21 30ZM23 30L23 32L24 32L24 30ZM8 31L8 33L10 33L10 32L12 32L12 31L10 31L10 32L9 32L9 31ZM13 32L13 33L14 33L14 32ZM31 32L31 33L32 33L32 32ZM0 0L0 7L7 7L7 0ZM1 1L1 6L6 6L6 1ZM2 2L2 5L5 5L5 2ZM26 0L26 7L33 7L33 0ZM27 1L27 6L32 6L32 1ZM28 2L28 5L31 5L31 2ZM0 26L0 33L7 33L7 26ZM1 27L1 32L6 32L6 27ZM2 28L2 31L5 31L5 28Z" fill="#000000"/></g></g></svg>
