<?xml version="1.0" encoding="UTF-8"?>
<svg xmlns="http://www.w3.org/2000/svg" version="1.1" width="400" height="400" viewBox="0 0 400 400"><rect x="0" y="0" width="400" height="400" fill="#fefefe"/><g transform="scale(9.756)"><g transform="translate(4,4)"><path fill-rule="evenodd" d="M11 0L11 1L8 1L8 3L9 3L9 2L10 2L10 4L8 4L8 8L6 8L6 9L8 9L8 11L7 11L7 10L6 10L6 11L5 11L5 13L7 13L7 12L8 12L8 14L11 14L11 15L8 15L8 16L6 16L6 17L4 17L4 19L2 19L2 18L3 18L3 16L4 16L4 14L3 14L3 13L2 13L2 12L0 12L0 14L2 14L2 15L1 15L1 16L2 16L2 18L1 18L1 17L0 17L0 18L1 18L1 19L0 19L0 20L1 20L1 21L2 21L2 22L0 22L0 23L1 23L1 24L0 24L0 25L1 25L1 24L2 24L2 25L3 25L3 24L4 24L4 23L7 23L7 24L6 24L6 25L7 25L7 24L8 24L8 27L9 27L9 29L8 29L8 30L10 30L10 31L11 31L11 30L12 30L12 29L11 29L11 28L12 28L12 26L10 26L10 27L9 27L9 25L10 25L10 24L12 24L12 25L14 25L14 26L15 26L15 25L17 25L17 27L15 27L15 28L14 28L14 27L13 27L13 28L14 28L14 29L13 29L13 30L14 30L14 31L15 31L15 32L16 32L16 33L17 33L17 32L19 32L19 33L25 33L25 32L26 32L26 33L27 33L27 32L26 32L26 30L27 30L27 29L28 29L28 32L30 32L30 31L33 31L33 29L31 29L31 30L30 30L30 25L29 25L29 24L28 24L28 23L29 23L29 22L31 22L31 23L33 23L33 21L29 21L29 22L28 22L28 20L30 20L30 19L27 19L27 21L26 21L26 17L27 17L27 18L28 18L28 17L29 17L29 16L30 16L30 15L32 15L32 14L33 14L33 9L32 9L32 8L30 8L30 9L29 9L29 8L26 8L26 11L25 11L25 6L24 6L24 8L23 8L23 6L22 6L22 5L25 5L25 3L24 3L24 1L25 1L25 0L19 0L19 1L20 1L20 2L18 2L18 0L15 0L15 4L13 4L13 2L14 2L14 0ZM12 1L12 2L11 2L11 4L12 4L12 2L13 2L13 1ZM22 1L22 2L20 2L20 4L19 4L19 5L20 5L20 6L19 6L19 7L18 7L18 6L17 6L17 5L18 5L18 3L16 3L16 6L15 6L15 7L14 7L14 5L11 5L11 7L10 7L10 6L9 6L9 7L10 7L10 8L8 8L8 9L9 9L9 10L11 10L11 11L8 11L8 12L9 12L9 13L11 13L11 14L12 14L12 13L13 13L13 15L11 15L11 16L10 16L10 17L12 17L12 18L11 18L11 19L12 19L12 18L13 18L13 17L14 17L14 18L15 18L15 19L13 19L13 20L14 20L14 21L15 21L15 22L13 22L13 21L12 21L12 20L10 20L10 19L9 19L9 20L8 20L8 18L7 18L7 17L6 17L6 18L7 18L7 19L6 19L6 20L8 20L8 21L5 21L5 22L7 22L7 23L8 23L8 24L9 24L9 23L10 23L10 22L11 22L11 23L12 23L12 24L13 24L13 23L15 23L15 24L16 24L16 23L17 23L17 24L18 24L18 25L20 25L20 26L18 26L18 29L17 29L17 28L15 28L15 29L14 29L14 30L15 30L15 31L16 31L16 32L17 32L17 31L19 31L19 32L21 32L21 30L20 30L20 29L21 29L21 27L24 27L24 25L22 25L22 26L21 26L21 23L22 23L22 22L23 22L23 24L26 24L26 23L24 23L24 22L25 22L25 21L24 21L24 20L23 20L23 19L25 19L25 16L23 16L23 15L22 15L22 17L24 17L24 18L23 18L23 19L22 19L22 18L20 18L20 17L21 17L21 14L19 14L19 13L20 13L20 12L21 12L21 11L22 11L22 12L23 12L23 13L22 13L22 14L24 14L24 9L23 9L23 10L21 10L21 9L18 9L18 8L21 8L21 7L22 7L22 6L21 6L21 4L23 4L23 1ZM12 6L12 7L13 7L13 6ZM16 6L16 7L15 7L15 8L16 8L16 11L15 11L15 9L14 9L14 8L10 8L10 9L13 9L13 10L12 10L12 11L11 11L11 12L13 12L13 13L14 13L14 14L15 14L15 13L19 13L19 12L20 12L20 11L21 11L21 10L18 10L18 9L17 9L17 8L18 8L18 7L17 7L17 6ZM20 6L20 7L21 7L21 6ZM16 7L16 8L17 8L17 7ZM0 8L0 10L1 10L1 9L2 9L2 11L3 11L3 12L4 12L4 11L3 11L3 10L5 10L5 9L4 9L4 8L3 8L3 9L2 9L2 8ZM28 9L28 10L27 10L27 15L26 15L26 14L25 14L25 15L26 15L26 16L27 16L27 15L28 15L28 16L29 16L29 14L31 14L31 12L32 12L32 10L31 10L31 11L30 11L30 12L29 12L29 9ZM13 10L13 11L14 11L14 10ZM6 11L6 12L7 12L7 11ZM16 11L16 12L19 12L19 11ZM25 12L25 13L26 13L26 12ZM28 13L28 14L29 14L29 13ZM5 14L5 15L7 15L7 14ZM17 14L17 15L16 15L16 16L14 16L14 15L13 15L13 16L12 16L12 17L13 17L13 16L14 16L14 17L15 17L15 18L16 18L16 19L15 19L15 20L16 20L16 19L17 19L17 20L18 20L18 19L19 19L19 18L17 18L17 17L20 17L20 16L18 16L18 14ZM32 16L32 17L33 17L33 16ZM31 18L31 19L32 19L32 20L33 20L33 18ZM1 19L1 20L2 20L2 21L3 21L3 23L4 23L4 20L2 20L2 19ZM20 19L20 20L21 20L21 21L20 21L20 22L19 22L19 21L16 21L16 22L17 22L17 23L18 23L18 24L19 24L19 23L20 23L20 22L21 22L21 21L23 21L23 20L22 20L22 19ZM9 20L9 21L10 21L10 20ZM8 22L8 23L9 23L9 22ZM12 22L12 23L13 23L13 22ZM27 22L27 23L28 23L28 22ZM25 25L25 28L28 28L28 25ZM31 25L31 27L32 27L32 26L33 26L33 25ZM26 26L26 27L27 27L27 26ZM10 27L10 28L11 28L11 27ZM19 27L19 29L18 29L18 30L19 30L19 29L20 29L20 27ZM22 28L22 29L24 29L24 30L22 30L22 31L23 31L23 32L24 32L24 31L25 31L25 29L24 29L24 28ZM10 29L10 30L11 30L11 29ZM16 29L16 31L17 31L17 29ZM29 30L29 31L30 31L30 30ZM8 31L8 33L10 33L10 32L9 32L9 31ZM12 31L12 32L11 32L11 33L12 33L12 32L13 32L13 33L14 33L14 32L13 32L13 31ZM31 32L31 33L32 33L32 32ZM0 0L0 7L7 7L7 0ZM1 1L1 6L6 6L6 1ZM2 2L2 5L5 5L5 2ZM26 0L26 7L33 7L33 0ZM27 1L27 6L32 6L32 1ZM28 2L28 5L31 5L31 2ZM0 26L0 33L7 33L7 26ZM1 27L1 32L6 32L6 27ZM2 28L2 31L5 31L5 28Z" fill="#000000"/></g></g></svg>
