<?xml version="1.0" encoding="UTF-8"?>
<svg xmlns="http://www.w3.org/2000/svg" version="1.1" width="400" height="400" viewBox="0 0 400 400"><rect x="0" y="0" width="400" height="400" fill="#fefefe"/><g transform="scale(9.756)"><g transform="translate(4,4)"><path fill-rule="evenodd" d="M8 0L8 1L9 1L9 2L10 2L10 3L11 3L11 1L13 1L13 0L11 0L11 1L9 1L9 0ZM16 0L16 1L17 1L17 2L16 2L16 4L19 4L19 5L16 5L16 8L15 8L15 6L14 6L14 5L15 5L15 3L14 3L14 2L15 2L15 1L14 1L14 2L12 2L12 4L11 4L11 5L10 5L10 4L9 4L9 5L10 5L10 8L9 8L9 6L8 6L8 8L9 8L9 10L8 10L8 9L7 9L7 8L6 8L6 9L7 9L7 10L5 10L5 8L3 8L3 10L1 10L1 12L2 12L2 15L1 15L1 13L0 13L0 16L1 16L1 17L0 17L0 18L1 18L1 19L0 19L0 25L4 25L4 24L5 24L5 22L4 22L4 20L3 20L3 22L2 22L2 21L1 21L1 19L5 19L5 21L8 21L8 20L6 20L6 19L7 19L7 18L6 18L6 17L8 17L8 16L9 16L9 18L8 18L8 19L12 19L12 21L13 21L13 20L15 20L15 24L14 24L14 25L13 25L13 24L12 24L12 26L13 26L13 27L14 27L14 28L13 28L13 29L14 29L14 30L11 30L11 28L10 28L10 27L11 27L11 26L10 26L10 25L11 25L11 23L10 23L10 22L11 22L11 21L10 21L10 22L9 22L9 23L10 23L10 25L9 25L9 24L8 24L8 26L10 26L10 27L9 27L9 28L8 28L8 30L9 30L9 29L10 29L10 31L8 31L8 33L10 33L10 31L11 31L11 32L12 32L12 33L13 33L13 32L14 32L14 31L16 31L16 32L15 32L15 33L18 33L18 32L17 32L17 31L18 31L18 29L17 29L17 30L16 30L16 28L15 28L15 27L16 27L16 26L17 26L17 24L18 24L18 23L19 23L19 25L20 25L20 26L19 26L19 27L18 27L18 28L19 28L19 27L20 27L20 29L19 29L19 31L20 31L20 30L21 30L21 31L22 31L22 33L25 33L25 32L23 32L23 30L22 30L22 29L21 29L21 27L22 27L22 26L21 26L21 25L20 25L20 23L19 23L19 22L20 22L20 19L22 19L22 21L21 21L21 23L23 23L23 27L24 27L24 28L23 28L23 29L24 29L24 31L25 31L25 29L27 29L27 31L26 31L26 33L29 33L29 32L33 32L33 30L32 30L32 31L31 31L31 29L33 29L33 27L30 27L30 28L31 28L31 29L30 29L30 30L28 30L28 29L29 29L29 25L30 25L30 26L31 26L31 25L32 25L32 24L33 24L33 22L32 22L32 23L30 23L30 22L29 22L29 21L30 21L30 20L31 20L31 21L32 21L32 19L33 19L33 15L31 15L31 13L30 13L30 12L32 12L32 13L33 13L33 12L32 12L32 11L33 11L33 10L30 10L30 12L29 12L29 14L30 14L30 16L29 16L29 15L28 15L28 14L24 14L24 13L27 13L27 11L28 11L28 10L29 10L29 9L28 9L28 10L26 10L26 9L27 9L27 8L26 8L26 9L22 9L22 10L23 10L23 11L22 11L22 14L21 14L21 15L20 15L20 14L19 14L19 13L21 13L21 11L20 11L20 12L19 12L19 10L20 10L20 8L17 8L17 6L18 6L18 7L19 7L19 5L21 5L21 4L22 4L22 8L25 8L25 4L24 4L24 5L23 5L23 3L22 3L22 2L23 2L23 0L22 0L22 2L21 2L21 0L20 0L20 1L18 1L18 0ZM24 0L24 1L25 1L25 0ZM17 2L17 3L18 3L18 2ZM19 2L19 4L21 4L21 3L20 3L20 2ZM24 2L24 3L25 3L25 2ZM12 4L12 5L11 5L11 7L12 7L12 9L10 9L10 10L9 10L9 11L10 11L10 10L12 10L12 11L13 11L13 13L11 13L11 12L10 12L10 16L11 16L11 17L10 17L10 18L11 18L11 17L13 17L13 18L12 18L12 19L14 19L14 17L13 17L13 16L14 16L14 15L15 15L15 13L16 13L16 11L13 11L13 10L15 10L15 8L13 8L13 7L14 7L14 6L13 6L13 7L12 7L12 5L14 5L14 4ZM20 6L20 7L21 7L21 6ZM23 6L23 7L24 7L24 6ZM0 8L0 9L2 9L2 8ZM32 8L32 9L33 9L33 8ZM12 9L12 10L13 10L13 9ZM16 9L16 10L17 10L17 11L18 11L18 9ZM3 10L3 11L2 11L2 12L3 12L3 14L5 14L5 15L4 15L4 16L3 16L3 18L5 18L5 19L6 19L6 18L5 18L5 15L6 15L6 16L7 16L7 15L9 15L9 14L7 14L7 13L9 13L9 12L7 12L7 11L8 11L8 10L7 10L7 11L6 11L6 12L5 12L5 10ZM3 11L3 12L4 12L4 13L5 13L5 14L6 14L6 15L7 15L7 14L6 14L6 13L7 13L7 12L6 12L6 13L5 13L5 12L4 12L4 11ZM24 11L24 12L25 12L25 11ZM14 12L14 13L13 13L13 14L11 14L11 16L12 16L12 15L14 15L14 13L15 13L15 12ZM17 12L17 13L18 13L18 12ZM16 14L16 16L15 16L15 18L17 18L17 20L16 20L16 19L15 19L15 20L16 20L16 24L15 24L15 25L14 25L14 27L15 27L15 25L16 25L16 24L17 24L17 23L18 23L18 22L19 22L19 20L18 20L18 18L17 18L17 17L18 17L18 15L19 15L19 16L20 16L20 18L21 18L21 17L22 17L22 18L24 18L24 19L23 19L23 20L26 20L26 22L24 22L24 23L25 23L25 24L27 24L27 23L26 23L26 22L28 22L28 23L29 23L29 22L28 22L28 21L29 21L29 20L30 20L30 19L32 19L32 18L30 18L30 19L28 19L28 18L26 18L26 16L25 16L25 15L24 15L24 14L22 14L22 15L21 15L21 16L20 16L20 15L19 15L19 14ZM27 15L27 16L28 16L28 15ZM16 16L16 17L17 17L17 16ZM23 16L23 17L24 17L24 18L25 18L25 17L24 17L24 16ZM30 16L30 17L31 17L31 16ZM26 19L26 20L28 20L28 19ZM17 20L17 21L18 21L18 20ZM1 22L1 24L3 24L3 23L2 23L2 22ZM6 22L6 23L7 23L7 22ZM12 22L12 23L14 23L14 22ZM6 24L6 25L7 25L7 24ZM30 24L30 25L31 25L31 24ZM25 25L25 28L28 28L28 25ZM26 26L26 27L27 27L27 26ZM19 32L19 33L21 33L21 32ZM0 0L0 7L7 7L7 0ZM1 1L1 6L6 6L6 1ZM2 2L2 5L5 5L5 2ZM26 0L26 7L33 7L33 0ZM27 1L27 6L32 6L32 1ZM28 2L28 5L31 5L31 2ZM0 26L0 33L7 33L7 26ZM1 27L1 32L6 32L6 27ZM2 28L2 31L5 31L5 28Z" fill="#000000"/></g></g></svg>
