<?xml version="1.0" encoding="UTF-8"?>
<svg xmlns="http://www.w3.org/2000/svg" version="1.1" width="400" height="400" viewBox="0 0 400 400"><rect x="0" y="0" width="400" height="400" fill="#fefefe"/><g transform="scale(9.756)"><g transform="translate(4,4)"><path fill-rule="evenodd" d="M8 0L8 1L9 1L9 2L10 2L10 3L11 3L11 1L13 1L13 0L11 0L11 1L9 1L9 0ZM16 0L16 1L17 1L17 2L16 2L16 4L17 4L17 5L16 5L16 8L15 8L15 6L14 6L14 5L15 5L15 3L14 3L14 2L15 2L15 1L14 1L14 2L12 2L12 4L11 4L11 5L10 5L10 4L9 4L9 5L10 5L10 8L9 8L9 6L8 6L8 8L9 8L9 10L10 10L10 11L8 11L8 12L6 12L6 11L7 11L7 10L8 10L8 9L7 9L7 8L6 8L6 9L5 9L5 8L3 8L3 9L4 9L4 10L5 10L5 12L3 12L3 11L2 11L2 8L0 8L0 10L1 10L1 11L0 11L0 14L1 14L1 15L0 15L0 16L2 16L2 17L1 17L1 18L0 18L0 19L1 19L1 18L4 18L4 19L3 19L3 20L0 20L0 25L3 25L3 24L5 24L5 25L7 25L7 24L5 24L5 23L3 23L3 24L1 24L1 21L4 21L4 19L5 19L5 18L6 18L6 19L7 19L7 20L6 20L6 21L5 21L5 22L6 22L6 23L8 23L8 24L10 24L10 23L12 23L12 24L11 24L11 26L12 26L12 28L11 28L11 27L10 27L10 28L11 28L11 29L12 29L12 30L10 30L10 31L11 31L11 32L14 32L14 31L16 31L16 32L15 32L15 33L18 33L18 32L17 32L17 31L18 31L18 29L17 29L17 30L16 30L16 28L15 28L15 27L16 27L16 26L17 26L17 24L18 24L18 23L19 23L19 25L20 25L20 26L19 26L19 27L18 27L18 28L20 28L20 29L19 29L19 33L20 33L20 32L21 32L21 31L22 31L22 32L24 32L24 33L27 33L27 31L29 31L29 32L28 32L28 33L29 33L29 32L33 32L33 30L32 30L32 31L31 31L31 29L33 29L33 28L32 28L32 27L30 27L30 28L31 28L31 29L30 29L30 30L28 30L28 29L29 29L29 25L30 25L30 26L31 26L31 25L32 25L32 24L33 24L33 22L32 22L32 23L30 23L30 22L29 22L29 21L30 21L30 20L31 20L31 21L32 21L32 19L33 19L33 15L31 15L31 13L30 13L30 12L32 12L32 13L33 13L33 12L32 12L32 11L33 11L33 10L30 10L30 12L29 12L29 9L28 9L28 12L29 12L29 14L30 14L30 16L29 16L29 15L28 15L28 16L26 16L26 18L29 18L29 19L30 19L30 20L29 20L29 21L28 21L28 20L27 20L27 19L26 19L26 20L23 20L23 19L24 19L24 18L25 18L25 17L24 17L24 16L22 16L22 18L20 18L20 17L19 17L19 15L20 15L20 16L21 16L21 15L23 15L23 14L24 14L24 15L26 15L26 13L27 13L27 12L26 12L26 13L23 13L23 14L21 14L21 13L20 13L20 12L21 12L21 6L20 6L20 7L19 7L19 6L18 6L18 5L20 5L20 4L22 4L22 7L23 7L23 6L24 6L24 8L25 8L25 6L24 6L24 5L25 5L25 4L24 4L24 5L23 5L23 3L25 3L25 0L24 0L24 2L23 2L23 0L22 0L22 2L21 2L21 1L19 1L19 0ZM17 2L17 3L18 3L18 4L20 4L20 2ZM22 2L22 3L23 3L23 2ZM12 4L12 5L11 5L11 7L12 7L12 9L10 9L10 10L12 10L12 11L13 11L13 13L11 13L11 12L10 12L10 13L9 13L9 14L8 14L8 15L10 15L10 16L9 16L9 17L12 17L12 16L14 16L14 15L15 15L15 13L16 13L16 11L13 11L13 10L15 10L15 8L13 8L13 7L14 7L14 6L13 6L13 7L12 7L12 5L14 5L14 4ZM17 6L17 8L19 8L19 9L20 9L20 8L19 8L19 7L18 7L18 6ZM22 8L22 9L23 9L23 10L22 10L22 11L23 11L23 12L25 12L25 11L27 11L27 10L26 10L26 9L27 9L27 8L26 8L26 9L23 9L23 8ZM32 8L32 9L33 9L33 8ZM6 9L6 10L7 10L7 9ZM12 9L12 10L13 10L13 9ZM16 9L16 10L17 10L17 11L18 11L18 9ZM19 10L19 12L20 12L20 10ZM24 10L24 11L25 11L25 10ZM1 11L1 13L3 13L3 14L2 14L2 16L4 16L4 17L5 17L5 15L3 15L3 14L5 14L5 13L3 13L3 12L2 12L2 11ZM14 12L14 13L13 13L13 14L10 14L10 15L11 15L11 16L12 16L12 15L14 15L14 13L15 13L15 12ZM17 12L17 13L18 13L18 12ZM6 13L6 14L7 14L7 13ZM19 13L19 14L16 14L16 16L15 16L15 18L17 18L17 20L16 20L16 19L15 19L15 20L13 20L13 19L14 19L14 17L13 17L13 18L12 18L12 19L11 19L11 18L10 18L10 19L9 19L9 18L8 18L8 17L6 17L6 18L7 18L7 19L8 19L8 20L7 20L7 21L6 21L6 22L7 22L7 21L9 21L9 20L10 20L10 21L11 21L11 20L12 20L12 22L13 22L13 25L14 25L14 27L13 27L13 28L12 28L12 29L13 29L13 30L14 30L14 29L13 29L13 28L14 28L14 27L15 27L15 25L16 25L16 24L17 24L17 23L18 23L18 22L19 22L19 23L20 23L20 22L19 22L19 20L18 20L18 18L17 18L17 17L18 17L18 15L19 15L19 14L20 14L20 13ZM6 15L6 16L7 16L7 15ZM16 16L16 17L17 17L17 16ZM30 16L30 17L31 17L31 16ZM23 17L23 18L22 18L22 19L21 19L21 21L22 21L22 19L23 19L23 18L24 18L24 17ZM30 18L30 19L32 19L32 18ZM15 20L15 23L14 23L14 25L15 25L15 24L16 24L16 20ZM17 20L17 21L18 21L18 20ZM26 20L26 22L27 22L27 23L29 23L29 22L27 22L27 20ZM8 22L8 23L9 23L9 22ZM24 22L24 23L21 23L21 24L20 24L20 25L21 25L21 26L23 26L23 24L25 24L25 22ZM30 24L30 25L31 25L31 24ZM8 25L8 26L9 26L9 25ZM25 25L25 28L28 28L28 25ZM26 26L26 27L27 27L27 26ZM21 27L21 29L22 29L22 30L23 30L23 31L24 31L24 32L26 32L26 31L27 31L27 29L25 29L25 31L24 31L24 30L23 30L23 28L24 28L24 27ZM8 28L8 30L9 30L9 28ZM20 30L20 31L21 31L21 30ZM8 31L8 33L9 33L9 31ZM0 0L0 7L7 7L7 0ZM1 1L1 6L6 6L6 1ZM2 2L2 5L5 5L5 2ZM26 0L26 7L33 7L33 0ZM27 1L27 6L32 6L32 1ZM28 2L28 5L31 5L31 2ZM0 26L0 33L7 33L7 26ZM1 27L1 32L6 32L6 27ZM2 28L2 31L5 31L5 28Z" fill="#000000"/></g></g></svg>
