<?xml version="1.0" encoding="UTF-8"?>
<svg xmlns="http://www.w3.org/2000/svg" version="1.1" width="400" height="400" viewBox="0 0 400 400"><rect x="0" y="0" width="400" height="400" fill="#fefefe"/><g transform="scale(9.756)"><g transform="translate(4,4)"><path fill-rule="evenodd" d="M9 0L9 1L8 1L8 3L9 3L9 4L8 4L8 8L6 8L6 9L7 9L7 10L5 10L5 12L6 12L6 13L5 13L5 14L4 14L4 13L3 13L3 15L8 15L8 13L9 13L9 16L5 16L5 17L8 17L8 18L4 18L4 16L3 16L3 17L2 17L2 18L1 18L1 16L2 16L2 15L1 15L1 16L0 16L0 20L1 20L1 22L0 22L0 23L1 23L1 24L0 24L0 25L1 25L1 24L2 24L2 25L4 25L4 24L5 24L5 25L7 25L7 24L6 24L6 23L8 23L8 22L9 22L9 23L10 23L10 25L9 25L9 24L8 24L8 27L9 27L9 29L8 29L8 30L9 30L9 31L8 31L8 33L9 33L9 31L10 31L10 33L12 33L12 32L11 32L11 30L12 30L12 31L13 31L13 30L14 30L14 31L15 31L15 32L16 32L16 33L17 33L17 32L19 32L19 31L17 31L17 29L18 29L18 30L19 30L19 29L20 29L20 33L26 33L26 32L27 32L27 33L30 33L30 32L29 32L29 30L30 30L30 31L33 31L33 27L32 27L32 26L33 26L33 25L31 25L31 27L32 27L32 29L31 29L31 30L30 30L30 25L29 25L29 24L27 24L27 22L28 22L28 23L29 23L29 22L31 22L31 23L33 23L33 21L29 21L29 22L28 22L28 20L30 20L30 19L29 19L29 18L28 18L28 17L29 17L29 16L30 16L30 15L32 15L32 14L33 14L33 9L32 9L32 8L30 8L30 9L29 9L29 8L26 8L26 10L25 10L25 12L24 12L24 14L22 14L22 13L23 13L23 9L24 9L24 7L25 7L25 5L24 5L24 3L25 3L25 0L21 0L21 2L22 2L22 1L23 1L23 4L21 4L21 3L20 3L20 5L19 5L19 1L20 1L20 0L18 0L18 2L17 2L17 0L15 0L15 4L13 4L13 5L14 5L14 7L15 7L15 8L16 8L16 11L15 11L15 9L14 9L14 8L13 8L13 6L12 6L12 5L11 5L11 6L10 6L10 5L9 5L9 4L12 4L12 3L13 3L13 2L14 2L14 0L12 0L12 1L11 1L11 2L9 2L9 1L10 1L10 0ZM16 3L16 6L15 6L15 7L16 7L16 8L17 8L17 9L18 9L18 10L20 10L20 11L22 11L22 10L20 10L20 9L21 9L21 7L22 7L22 8L23 8L23 7L24 7L24 5L22 5L22 6L21 6L21 5L20 5L20 6L19 6L19 5L18 5L18 3ZM17 5L17 6L16 6L16 7L17 7L17 8L18 8L18 9L19 9L19 6L18 6L18 5ZM9 6L9 7L10 7L10 8L8 8L8 9L9 9L9 10L10 10L10 8L11 8L11 9L12 9L12 10L11 10L11 11L9 11L9 13L12 13L12 12L13 12L13 11L14 11L14 10L13 10L13 8L12 8L12 6L11 6L11 7L10 7L10 6ZM17 6L17 7L18 7L18 6ZM20 6L20 7L21 7L21 6ZM22 6L22 7L23 7L23 6ZM0 8L0 11L2 11L2 12L0 12L0 13L1 13L1 14L2 14L2 12L4 12L4 11L3 11L3 9L4 9L4 8L3 8L3 9L2 9L2 8ZM1 9L1 10L2 10L2 9ZM28 9L28 11L29 11L29 9ZM7 10L7 11L6 11L6 12L7 12L7 11L8 11L8 10ZM31 10L31 11L30 11L30 12L28 12L28 13L29 13L29 14L26 14L26 13L25 13L25 14L26 14L26 15L28 15L28 16L29 16L29 14L31 14L31 12L32 12L32 10ZM16 11L16 12L19 12L19 11ZM20 12L20 14L19 14L19 13L15 13L15 14L14 14L14 13L13 13L13 15L14 15L14 16L13 16L13 17L11 17L11 16L12 16L12 14L10 14L10 16L9 16L9 18L8 18L8 19L13 19L13 20L10 20L10 21L9 21L9 22L10 22L10 23L12 23L12 24L11 24L11 26L9 26L9 27L11 27L11 29L9 29L9 30L11 30L11 29L12 29L12 30L13 30L13 29L14 29L14 30L15 30L15 31L16 31L16 32L17 32L17 31L16 31L16 29L17 29L17 28L15 28L15 27L17 27L17 25L15 25L15 26L14 26L14 25L12 25L12 24L13 24L13 23L12 23L12 21L13 21L13 20L14 20L14 21L15 21L15 22L14 22L14 24L16 24L16 23L17 23L17 24L18 24L18 25L20 25L20 26L18 26L18 29L19 29L19 27L22 27L22 29L24 29L24 30L21 30L21 31L23 31L23 32L24 32L24 31L25 31L25 32L26 32L26 31L28 31L28 29L27 29L27 30L26 30L26 31L25 31L25 29L24 29L24 26L21 26L21 23L22 23L22 22L23 22L23 23L24 23L24 24L22 24L22 25L24 25L24 24L25 24L25 23L26 23L26 22L25 22L25 21L24 21L24 20L23 20L23 19L25 19L25 16L23 16L23 17L22 17L22 18L23 18L23 19L22 19L22 20L23 20L23 21L19 21L19 20L21 20L21 19L20 19L20 17L21 17L21 16L20 16L20 15L21 15L21 12ZM6 13L6 14L7 14L7 13ZM17 14L17 15L16 15L16 16L14 16L14 17L13 17L13 19L15 19L15 20L16 20L16 19L17 19L17 20L18 20L18 19L19 19L19 18L17 18L17 17L20 17L20 16L18 16L18 14ZM32 16L32 17L33 17L33 16ZM10 17L10 18L11 18L11 17ZM14 17L14 18L15 18L15 19L16 19L16 18L15 18L15 17ZM23 17L23 18L24 18L24 17ZM26 17L26 21L27 21L27 17ZM2 18L2 19L1 19L1 20L2 20L2 19L4 19L4 20L3 20L3 21L2 21L2 24L4 24L4 23L3 23L3 21L4 21L4 22L5 22L5 23L6 23L6 22L7 22L7 21L8 21L8 20L7 20L7 19L6 19L6 20L7 20L7 21L6 21L6 22L5 22L5 21L4 21L4 20L5 20L5 19L4 19L4 18ZM31 18L31 19L32 19L32 20L33 20L33 18ZM10 21L10 22L11 22L11 21ZM16 21L16 22L17 22L17 23L18 23L18 24L20 24L20 23L21 23L21 22L19 22L19 21ZM24 22L24 23L25 23L25 22ZM25 25L25 28L28 28L28 25ZM11 26L11 27L12 27L12 26ZM26 26L26 27L27 27L27 26ZM13 27L13 28L14 28L14 29L15 29L15 28L14 28L14 27ZM20 28L20 29L21 29L21 28ZM13 32L13 33L14 33L14 32ZM31 32L31 33L32 33L32 32ZM0 0L0 7L7 7L7 0ZM1 1L1 6L6 6L6 1ZM2 2L2 5L5 5L5 2ZM26 0L26 7L33 7L33 0ZM27 1L27 6L32 6L32 1ZM28 2L28 5L31 5L31 2ZM0 26L0 33L7 33L7 26ZM1 27L1 32L6 32L6 27ZM2 28L2 31L5 31L5 28Z" fill="#000000"/></g></g></svg>
