<?xml version="1.0" encoding="UTF-8"?>
<svg xmlns="http://www.w3.org/2000/svg" version="1.1" width="400" height="400" viewBox="0 0 400 400"><rect x="0" y="0" width="400" height="400" fill="#fefefe"/><g transform="scale(9.756)"><g transform="translate(4,4)"><path fill-rule="evenodd" d="M9 0L9 1L8 1L8 3L9 3L9 4L8 4L8 8L6 8L6 9L4 9L4 8L3 8L3 10L2 10L2 8L0 8L0 9L1 9L1 10L2 10L2 13L3 13L3 15L5 15L5 14L6 14L6 15L7 15L7 16L6 16L6 17L7 17L7 18L6 18L6 19L7 19L7 20L5 20L5 17L4 17L4 20L3 20L3 19L2 19L2 18L3 18L3 17L1 17L1 18L0 18L0 20L1 20L1 21L2 21L2 20L3 20L3 23L7 23L7 24L2 24L2 22L0 22L0 23L1 23L1 24L0 24L0 25L1 25L1 24L2 24L2 25L7 25L7 24L8 24L8 27L9 27L9 26L11 26L11 27L10 27L10 28L9 28L9 29L8 29L8 30L10 30L10 32L9 32L9 31L8 31L8 33L11 33L11 32L12 32L12 31L13 31L13 30L14 30L14 31L15 31L15 32L16 32L16 33L17 33L17 32L19 32L19 33L23 33L23 32L24 32L24 33L25 33L25 31L26 31L26 32L27 32L27 33L30 33L30 32L29 32L29 30L30 30L30 31L33 31L33 27L32 27L32 26L33 26L33 25L31 25L31 27L32 27L32 29L31 29L31 30L30 30L30 25L29 25L29 24L28 24L28 23L27 23L27 21L26 21L26 23L25 23L25 24L24 24L24 23L23 23L23 22L22 22L22 23L21 23L21 22L19 22L19 21L16 21L16 22L17 22L17 23L16 23L16 24L14 24L14 22L15 22L15 21L14 21L14 20L13 20L13 19L15 19L15 20L16 20L16 19L17 19L17 20L18 20L18 19L19 19L19 18L17 18L17 17L20 17L20 18L21 18L21 19L20 19L20 21L23 21L23 20L24 20L24 21L25 21L25 20L26 20L26 17L27 17L27 16L28 16L28 17L29 17L29 16L30 16L30 15L32 15L32 14L33 14L33 9L32 9L32 8L30 8L30 9L29 9L29 8L26 8L26 10L24 10L24 11L23 11L23 9L24 9L24 7L25 7L25 6L24 6L24 7L23 7L23 6L22 6L22 5L19 5L19 4L20 4L20 2L22 2L22 1L23 1L23 3L22 3L22 4L23 4L23 5L24 5L24 1L25 1L25 0L21 0L21 1L20 1L20 0L18 0L18 1L17 1L17 0L15 0L15 4L13 4L13 5L14 5L14 7L15 7L15 8L16 8L16 11L15 11L15 9L14 9L14 8L13 8L13 6L12 6L12 5L11 5L11 6L10 6L10 5L9 5L9 4L12 4L12 3L13 3L13 2L14 2L14 0L12 0L12 1L11 1L11 2L9 2L9 1L10 1L10 0ZM19 1L19 2L20 2L20 1ZM16 3L16 6L15 6L15 7L16 7L16 8L17 8L17 9L18 9L18 10L21 10L21 9L20 9L20 8L21 8L21 7L22 7L22 8L23 8L23 7L22 7L22 6L21 6L21 7L20 7L20 6L19 6L19 7L20 7L20 8L19 8L19 9L18 9L18 8L17 8L17 7L18 7L18 3ZM9 6L9 7L10 7L10 8L8 8L8 9L6 9L6 10L5 10L5 11L4 11L4 10L3 10L3 11L4 11L4 12L3 12L3 13L4 13L4 14L5 14L5 11L6 11L6 12L7 12L7 11L6 11L6 10L8 10L8 11L9 11L9 13L12 13L12 12L13 12L13 11L14 11L14 10L13 10L13 8L12 8L12 6L11 6L11 7L10 7L10 6ZM16 6L16 7L17 7L17 6ZM10 8L10 10L9 10L9 9L8 9L8 10L9 10L9 11L11 11L11 10L12 10L12 9L11 9L11 8ZM28 9L28 10L26 10L26 11L27 11L27 14L26 14L26 13L25 13L25 14L26 14L26 16L27 16L27 15L28 15L28 16L29 16L29 14L31 14L31 12L32 12L32 10L31 10L31 11L30 11L30 12L29 12L29 9ZM16 11L16 12L19 12L19 13L15 13L15 14L14 14L14 13L13 13L13 15L14 15L14 16L13 16L13 17L11 17L11 19L13 19L13 17L14 17L14 18L15 18L15 19L16 19L16 18L15 18L15 17L14 17L14 16L16 16L16 15L17 15L17 14L18 14L18 16L19 16L19 15L20 15L20 17L21 17L21 15L22 15L22 14L24 14L24 12L25 12L25 11L24 11L24 12L23 12L23 11L22 11L22 12L23 12L23 13L21 13L21 11ZM0 13L0 15L1 15L1 16L2 16L2 14L1 14L1 13ZM6 13L6 14L7 14L7 15L8 15L8 14L7 14L7 13ZM19 13L19 14L20 14L20 13ZM28 13L28 14L29 14L29 13ZM9 14L9 16L10 16L10 14ZM11 14L11 16L12 16L12 14ZM7 16L7 17L8 17L8 16ZM22 16L22 17L24 17L24 18L22 18L22 20L23 20L23 19L25 19L25 16ZM32 16L32 17L33 17L33 16ZM8 18L8 20L9 20L9 23L8 23L8 21L5 21L5 20L4 20L4 22L7 22L7 23L8 23L8 24L11 24L11 26L12 26L12 30L11 30L11 29L10 29L10 30L11 30L11 31L12 31L12 30L13 30L13 29L14 29L14 30L15 30L15 31L16 31L16 32L17 32L17 31L19 31L19 32L21 32L21 31L22 31L22 32L23 32L23 31L24 31L24 30L23 30L23 31L22 31L22 30L21 30L21 29L19 29L19 28L20 28L20 27L22 27L22 29L24 29L24 26L23 26L23 25L24 25L24 24L23 24L23 25L22 25L22 26L21 26L21 24L20 24L20 23L19 23L19 24L18 24L18 23L17 23L17 24L18 24L18 25L20 25L20 26L18 26L18 29L17 29L17 28L15 28L15 27L17 27L17 25L15 25L15 26L14 26L14 25L12 25L12 24L13 24L13 23L12 23L12 21L13 21L13 20L10 20L10 19L9 19L9 18ZM27 18L27 20L30 20L30 19L28 19L28 18ZM31 18L31 19L32 19L32 20L33 20L33 18ZM29 21L29 22L31 22L31 23L33 23L33 21ZM10 22L10 23L11 23L11 24L12 24L12 23L11 23L11 22ZM25 25L25 28L28 28L28 25ZM22 26L22 27L23 27L23 26ZM26 26L26 27L27 27L27 26ZM13 27L13 28L14 28L14 29L15 29L15 28L14 28L14 27ZM16 29L16 31L17 31L17 29ZM18 29L18 30L19 30L19 29ZM27 29L27 30L26 30L26 31L27 31L27 32L28 32L28 29ZM13 32L13 33L14 33L14 32ZM31 32L31 33L32 33L32 32ZM0 0L0 7L7 7L7 0ZM1 1L1 6L6 6L6 1ZM2 2L2 5L5 5L5 2ZM26 0L26 7L33 7L33 0ZM27 1L27 6L32 6L32 1ZM28 2L28 5L31 5L31 2ZM0 26L0 33L7 33L7 26ZM1 27L1 32L6 32L6 27ZM2 28L2 31L5 31L5 28Z" fill="#000000"/></g></g></svg>
