<?xml version="1.0" encoding="UTF-8"?>
<svg xmlns="http://www.w3.org/2000/svg" version="1.1" width="400" height="400" viewBox="0 0 400 400"><rect x="0" y="0" width="400" height="400" fill="#fefefe"/><g transform="scale(9.756)"><g transform="translate(4,4)"><path fill-rule="evenodd" d="M8 0L8 1L9 1L9 2L10 2L10 3L11 3L11 1L13 1L13 0L11 0L11 1L9 1L9 0ZM16 0L16 1L18 1L18 3L17 3L17 2L16 2L16 4L17 4L17 5L16 5L16 8L15 8L15 6L14 6L14 5L15 5L15 3L14 3L14 2L15 2L15 1L14 1L14 2L12 2L12 4L11 4L11 5L10 5L10 4L9 4L9 5L10 5L10 8L9 8L9 6L8 6L8 8L9 8L9 9L8 9L8 10L5 10L5 8L3 8L3 9L2 9L2 8L0 8L0 9L2 9L2 11L1 11L1 10L0 10L0 12L1 12L1 15L0 15L0 17L1 17L1 18L0 18L0 25L2 25L2 24L3 24L3 23L4 23L4 25L5 25L5 24L6 24L6 25L7 25L7 24L8 24L8 23L10 23L10 24L11 24L11 25L8 25L8 26L9 26L9 27L11 27L11 26L12 26L12 27L14 27L14 28L13 28L13 29L12 29L12 28L8 28L8 30L9 30L9 31L8 31L8 33L9 33L9 32L10 32L10 33L11 33L11 32L10 32L10 31L12 31L12 32L15 32L15 33L18 33L18 32L17 32L17 31L18 31L18 29L17 29L17 30L16 30L16 28L15 28L15 27L16 27L16 26L17 26L17 24L18 24L18 23L19 23L19 22L20 22L20 19L21 19L21 16L20 16L20 17L19 17L19 15L20 15L20 14L21 14L21 13L20 13L20 12L21 12L21 11L22 11L22 15L23 15L23 14L24 14L24 15L25 15L25 14L26 14L26 13L27 13L27 12L29 12L29 14L30 14L30 16L29 16L29 15L28 15L28 14L27 14L27 15L26 15L26 18L27 18L27 19L26 19L26 20L28 20L28 19L30 19L30 20L29 20L29 21L28 21L28 22L29 22L29 23L27 23L27 22L26 22L26 23L25 23L25 20L22 20L22 21L21 21L21 23L24 23L24 24L22 24L22 26L23 26L23 30L22 30L22 31L23 31L23 30L24 30L24 31L25 31L25 32L22 32L22 33L27 33L27 32L28 32L28 33L29 33L29 32L33 32L33 30L32 30L32 31L31 31L31 29L33 29L33 28L32 28L32 27L30 27L30 28L31 28L31 29L30 29L30 30L28 30L28 29L29 29L29 25L30 25L30 26L31 26L31 25L32 25L32 24L33 24L33 22L32 22L32 23L30 23L30 22L29 22L29 21L30 21L30 20L31 20L31 21L32 21L32 19L33 19L33 15L31 15L31 13L30 13L30 12L32 12L32 13L33 13L33 12L32 12L32 11L33 11L33 10L30 10L30 12L29 12L29 11L28 11L28 10L29 10L29 9L28 9L28 10L26 10L26 9L27 9L27 8L26 8L26 9L22 9L22 10L21 10L21 11L19 11L19 10L20 10L20 7L21 7L21 4L22 4L22 8L25 8L25 6L24 6L24 5L23 5L23 3L22 3L22 2L23 2L23 0L22 0L22 2L21 2L21 4L18 4L18 3L20 3L20 1L21 1L21 0L20 0L20 1L18 1L18 0ZM24 0L24 1L25 1L25 0ZM24 3L24 4L25 4L25 3ZM12 4L12 5L11 5L11 7L12 7L12 9L10 9L10 10L9 10L9 11L5 11L5 10L3 10L3 11L2 11L2 12L3 12L3 13L4 13L4 14L2 14L2 15L5 15L5 18L7 18L7 19L6 19L6 20L7 20L7 21L5 21L5 19L4 19L4 18L3 18L3 20L2 20L2 21L1 21L1 24L2 24L2 23L3 23L3 21L4 21L4 23L6 23L6 24L7 24L7 23L6 23L6 22L7 22L7 21L9 21L9 22L10 22L10 21L11 21L11 20L12 20L12 22L13 22L13 25L14 25L14 27L15 27L15 25L16 25L16 24L17 24L17 23L18 23L18 22L19 22L19 20L18 20L18 18L17 18L17 17L18 17L18 15L19 15L19 14L20 14L20 13L19 13L19 14L16 14L16 16L15 16L15 18L17 18L17 20L16 20L16 19L15 19L15 20L13 20L13 19L14 19L14 17L13 17L13 18L12 18L12 19L11 19L11 18L10 18L10 17L12 17L12 16L14 16L14 15L15 15L15 13L16 13L16 11L13 11L13 10L15 10L15 8L13 8L13 7L14 7L14 6L13 6L13 7L12 7L12 5L14 5L14 4ZM17 5L17 8L18 8L18 5ZM19 5L19 7L20 7L20 5ZM23 6L23 7L24 7L24 6ZM6 8L6 9L7 9L7 8ZM32 8L32 9L33 9L33 8ZM12 9L12 10L10 10L10 11L9 11L9 15L10 15L10 16L8 16L8 17L7 17L7 16L6 16L6 17L7 17L7 18L9 18L9 17L10 17L10 16L12 16L12 15L14 15L14 13L15 13L15 12L14 12L14 13L13 13L13 11L12 11L12 10L13 10L13 9ZM16 9L16 10L17 10L17 11L18 11L18 9ZM24 10L24 13L26 13L26 12L25 12L25 10ZM3 11L3 12L4 12L4 11ZM5 12L5 13L8 13L8 12ZM10 12L10 15L11 15L11 14L13 14L13 13L11 13L11 12ZM17 12L17 13L18 13L18 12ZM6 14L6 15L7 15L7 14ZM27 15L27 16L28 16L28 15ZM1 16L1 17L4 17L4 16ZM16 16L16 17L17 17L17 16ZM22 16L22 19L24 19L24 18L25 18L25 17L24 17L24 16ZM30 16L30 17L31 17L31 16ZM23 17L23 18L24 18L24 17ZM1 18L1 19L2 19L2 18ZM30 18L30 19L32 19L32 18ZM7 19L7 20L10 20L10 19ZM15 20L15 23L14 23L14 25L15 25L15 24L16 24L16 20ZM17 20L17 21L18 21L18 20ZM11 23L11 24L12 24L12 23ZM26 23L26 24L27 24L27 23ZM19 24L19 25L20 25L20 26L19 26L19 27L18 27L18 28L20 28L20 27L21 27L21 25L20 25L20 24ZM30 24L30 25L31 25L31 24ZM23 25L23 26L24 26L24 25ZM25 25L25 28L28 28L28 25ZM26 26L26 27L27 27L27 26ZM9 29L9 30L10 30L10 29ZM11 29L11 30L12 30L12 31L13 31L13 30L14 30L14 29L13 29L13 30L12 30L12 29ZM19 29L19 31L21 31L21 30L20 30L20 29ZM24 29L24 30L25 30L25 31L27 31L27 29ZM15 31L15 32L16 32L16 31ZM28 31L28 32L29 32L29 31ZM19 32L19 33L21 33L21 32ZM0 0L0 7L7 7L7 0ZM1 1L1 6L6 6L6 1ZM2 2L2 5L5 5L5 2ZM26 0L26 7L33 7L33 0ZM27 1L27 6L32 6L32 1ZM28 2L28 5L31 5L31 2ZM0 26L0 33L7 33L7 26ZM1 27L1 32L6 32L6 27ZM2 28L2 31L5 31L5 28Z" fill="#000000"/></g></g></svg>
