<?xml version="1.0" encoding="UTF-8"?>
<svg xmlns="http://www.w3.org/2000/svg" version="1.1" width="400" height="400" viewBox="0 0 400 400"><rect x="0" y="0" width="400" height="400" fill="#fefefe"/><g transform="scale(9.756)"><g transform="translate(4,4)"><path fill-rule="evenodd" d="M8 0L8 4L9 4L9 5L8 5L8 7L9 7L9 8L10 8L10 7L11 7L11 5L12 5L12 7L13 7L13 5L14 5L14 7L15 7L15 8L14 8L14 9L13 9L13 8L12 8L12 9L11 9L11 11L10 11L10 13L11 13L11 15L9 15L9 14L6 14L6 13L7 13L7 12L6 12L6 11L7 11L7 10L8 10L8 9L7 9L7 8L4 8L4 9L3 9L3 10L2 10L2 11L1 11L1 13L2 13L2 15L3 15L3 16L1 16L1 17L0 17L0 18L2 18L2 19L1 19L1 20L0 20L0 22L1 22L1 20L2 20L2 22L3 22L3 23L2 23L2 24L0 24L0 25L4 25L4 24L5 24L5 23L7 23L7 24L6 24L6 25L8 25L8 26L9 26L9 27L8 27L8 29L9 29L9 28L10 28L10 29L11 29L11 32L12 32L12 30L14 30L14 29L15 29L15 32L14 32L14 33L15 33L15 32L16 32L16 31L17 31L17 33L18 33L18 32L19 32L19 33L23 33L23 32L22 32L22 31L23 31L23 30L21 30L21 29L23 29L23 28L24 28L24 30L25 30L25 31L24 31L24 33L25 33L25 31L27 31L27 32L26 32L26 33L28 33L28 31L30 31L30 30L31 30L31 31L32 31L32 30L33 30L33 29L30 29L30 27L31 27L31 28L32 28L32 26L31 26L31 25L32 25L32 24L33 24L33 23L31 23L31 22L32 22L32 21L33 21L33 19L32 19L32 18L31 18L31 17L30 17L30 18L28 18L28 19L27 19L27 18L26 18L26 17L29 17L29 16L30 16L30 14L31 14L31 16L32 16L32 17L33 17L33 16L32 16L32 14L31 14L31 13L29 13L29 10L28 10L28 8L27 8L27 11L26 11L26 12L25 12L25 11L24 11L24 9L25 9L25 10L26 10L26 9L25 9L25 6L24 6L24 7L23 7L23 6L22 6L22 5L21 5L21 3L22 3L22 2L23 2L23 1L25 1L25 0L23 0L23 1L22 1L22 0L20 0L20 1L18 1L18 0L17 0L17 1L18 1L18 2L16 2L16 3L15 3L15 4L14 4L14 3L12 3L12 4L9 4L9 3L11 3L11 2L9 2L9 0ZM10 0L10 1L12 1L12 2L13 2L13 0ZM15 0L15 1L14 1L14 2L15 2L15 1L16 1L16 0ZM20 1L20 2L22 2L22 1ZM24 2L24 3L23 3L23 5L25 5L25 2ZM17 3L17 4L16 4L16 5L15 5L15 7L16 7L16 8L15 8L15 9L14 9L14 11L13 11L13 10L12 10L12 11L11 11L11 13L12 13L12 15L11 15L11 17L6 17L6 18L5 18L5 16L9 16L9 15L6 15L6 14L5 14L5 13L4 13L4 12L3 12L3 11L2 11L2 13L3 13L3 14L5 14L5 16L3 16L3 17L2 17L2 18L3 18L3 19L2 19L2 20L3 20L3 21L4 21L4 22L5 22L5 21L6 21L6 22L7 22L7 21L6 21L6 20L8 20L8 23L10 23L10 22L11 22L11 21L10 21L10 19L11 19L11 17L12 17L12 16L13 16L13 17L14 17L14 19L13 19L13 18L12 18L12 19L13 19L13 21L14 21L14 22L15 22L15 21L16 21L16 20L17 20L17 19L18 19L18 21L17 21L17 23L13 23L13 22L12 22L12 23L11 23L11 24L10 24L10 28L11 28L11 29L14 29L14 28L15 28L15 29L17 29L17 30L19 30L19 31L21 31L21 30L20 30L20 29L21 29L21 28L20 28L20 27L22 27L22 28L23 28L23 27L24 27L24 26L23 26L23 25L24 25L24 24L23 24L23 19L22 19L22 24L23 24L23 25L19 25L19 24L18 24L18 25L17 25L17 23L20 23L20 24L21 24L21 23L20 23L20 22L21 22L21 21L19 21L19 20L21 20L21 19L20 19L20 18L22 18L22 17L25 17L25 16L28 16L28 15L29 15L29 13L24 13L24 11L23 11L23 13L21 13L21 11L22 11L22 9L24 9L24 8L22 8L22 9L19 9L19 10L18 10L18 9L17 9L17 7L18 7L18 8L19 8L19 7L20 7L20 8L21 8L21 7L22 7L22 6L21 6L21 5L20 5L20 3ZM9 5L9 7L10 7L10 5ZM17 5L17 6L16 6L16 7L17 7L17 6L18 6L18 7L19 7L19 6L20 6L20 7L21 7L21 6L20 6L20 5L19 5L19 6L18 6L18 5ZM0 8L0 9L2 9L2 8ZM29 8L29 9L31 9L31 12L32 12L32 13L33 13L33 12L32 12L32 9L33 9L33 8ZM4 9L4 11L5 11L5 10L7 10L7 9ZM9 9L9 10L10 10L10 9ZM15 9L15 12L14 12L14 13L13 13L13 14L14 14L14 13L15 13L15 15L16 15L16 14L17 14L17 16L14 16L14 17L16 17L16 18L15 18L15 20L14 20L14 21L15 21L15 20L16 20L16 19L17 19L17 17L18 17L18 18L19 18L19 17L22 17L22 16L25 16L25 15L24 15L24 13L23 13L23 15L22 15L22 14L21 14L21 13L20 13L20 15L19 15L19 12L18 12L18 11L16 11L16 10L17 10L17 9ZM12 11L12 12L13 12L13 11ZM16 12L16 13L17 13L17 12ZM0 14L0 15L1 15L1 14ZM27 14L27 15L28 15L28 14ZM18 15L18 16L19 16L19 15ZM20 15L20 16L21 16L21 15ZM3 17L3 18L4 18L4 17ZM6 18L6 19L3 19L3 20L4 20L4 21L5 21L5 20L6 20L6 19L7 19L7 18ZM8 18L8 19L10 19L10 18ZM26 19L26 20L25 20L25 21L26 21L26 22L25 22L25 23L27 23L27 22L31 22L31 20L32 20L32 19L30 19L30 21L26 21L26 20L27 20L27 19ZM28 19L28 20L29 20L29 19ZM3 23L3 24L4 24L4 23ZM28 23L28 24L29 24L29 26L30 26L30 25L31 25L31 23L30 23L30 24L29 24L29 23ZM8 24L8 25L9 25L9 24ZM12 24L12 25L11 25L11 28L13 28L13 26L14 26L14 25L15 25L15 28L16 28L16 26L17 26L17 29L18 29L18 27L19 27L19 26L17 26L17 25L16 25L16 24L14 24L14 25L13 25L13 24ZM25 25L25 28L28 28L28 25ZM22 26L22 27L23 27L23 26ZM26 26L26 27L27 27L27 26ZM19 28L19 29L20 29L20 28ZM9 30L9 31L8 31L8 33L9 33L9 31L10 31L10 30ZM32 32L32 33L33 33L33 32ZM0 0L0 7L7 7L7 0ZM1 1L1 6L6 6L6 1ZM2 2L2 5L5 5L5 2ZM26 0L26 7L33 7L33 0ZM27 1L27 6L32 6L32 1ZM28 2L28 5L31 5L31 2ZM0 26L0 33L7 33L7 26ZM1 27L1 32L6 32L6 27ZM2 28L2 31L5 31L5 28Z" fill="#000000"/></g></g></svg>
