<?xml version="1.0" encoding="UTF-8"?>
<svg xmlns="http://www.w3.org/2000/svg" version="1.1" width="400" height="400" viewBox="0 0 400 400"><rect x="0" y="0" width="400" height="400" fill="#fefefe"/><g transform="scale(9.756)"><g transform="translate(4,4)"><path fill-rule="evenodd" d="M8 0L8 4L10 4L10 3L11 3L11 4L12 4L12 2L11 2L11 0ZM12 0L12 1L13 1L13 0ZM15 0L15 1L14 1L14 2L15 2L15 1L16 1L16 0ZM18 0L18 1L19 1L19 2L16 2L16 3L15 3L15 4L14 4L14 3L13 3L13 5L11 5L11 6L10 6L10 7L9 7L9 5L8 5L8 7L9 7L9 8L10 8L10 7L11 7L11 6L12 6L12 8L11 8L11 9L9 9L9 10L11 10L11 11L10 11L10 13L11 13L11 12L12 12L12 13L13 13L13 14L14 14L14 13L15 13L15 15L16 15L16 14L17 14L17 16L14 16L14 17L13 17L13 15L12 15L12 16L11 16L11 17L10 17L10 15L11 15L11 14L9 14L9 18L6 18L6 17L7 17L7 16L5 16L5 15L8 15L8 13L9 13L9 12L6 12L6 11L7 11L7 10L8 10L8 9L7 9L7 8L4 8L4 10L3 10L3 12L5 12L5 13L7 13L7 14L5 14L5 15L3 15L3 16L2 16L2 15L1 15L1 17L0 17L0 18L2 18L2 17L4 17L4 16L5 16L5 20L0 20L0 22L1 22L1 21L2 21L2 22L3 22L3 24L0 24L0 25L3 25L3 24L5 24L5 25L7 25L7 24L8 24L8 26L9 26L9 27L8 27L8 29L9 29L9 27L10 27L10 24L9 24L9 23L7 23L7 22L6 22L6 23L4 23L4 21L8 21L8 22L11 22L11 23L12 23L12 20L13 20L13 19L14 19L14 17L16 17L16 18L15 18L15 20L14 20L14 21L13 21L13 22L14 22L14 25L13 25L13 24L12 24L12 25L11 25L11 27L12 27L12 28L13 28L13 27L12 27L12 26L14 26L14 25L15 25L15 28L14 28L14 29L10 29L10 30L9 30L9 31L8 31L8 33L9 33L9 32L10 32L10 33L12 33L12 31L13 31L13 30L14 30L14 29L15 29L15 32L14 32L14 33L15 33L15 32L16 32L16 31L17 31L17 33L18 33L18 32L19 32L19 30L17 30L17 29L18 29L18 27L19 27L19 29L20 29L20 30L21 30L21 33L22 33L22 30L23 30L23 31L24 31L24 33L25 33L25 32L26 32L26 31L27 31L27 32L28 32L28 31L29 31L29 33L30 33L30 31L29 31L29 30L31 30L31 31L32 31L32 30L33 30L33 27L32 27L32 26L31 26L31 25L32 25L32 24L33 24L33 23L31 23L31 22L32 22L32 21L33 21L33 19L32 19L32 18L31 18L31 17L30 17L30 18L29 18L29 19L27 19L27 18L26 18L26 17L29 17L29 16L30 16L30 14L31 14L31 16L32 16L32 17L33 17L33 16L32 16L32 14L31 14L31 13L29 13L29 10L27 10L27 11L25 11L25 10L24 10L24 9L25 9L25 3L24 3L24 2L23 2L23 1L25 1L25 0L23 0L23 1L22 1L22 0L21 0L21 1L19 1L19 0ZM21 1L21 2L20 2L20 3L17 3L17 4L16 4L16 5L15 5L15 7L14 7L14 5L13 5L13 8L12 8L12 9L11 9L11 10L12 10L12 9L14 9L14 11L12 11L12 12L13 12L13 13L14 13L14 12L15 12L15 9L17 9L17 10L16 10L16 11L18 11L18 12L20 12L20 13L19 13L19 15L18 15L18 16L20 16L20 15L21 15L21 14L23 14L23 13L26 13L26 15L25 15L25 14L24 14L24 15L25 15L25 16L23 16L23 15L22 15L22 17L19 17L19 18L18 18L18 17L17 17L17 19L16 19L16 20L15 20L15 21L14 21L14 22L15 22L15 21L16 21L16 20L17 20L17 19L18 19L18 21L17 21L17 23L15 23L15 24L16 24L16 25L17 25L17 26L16 26L16 28L15 28L15 29L17 29L17 26L19 26L19 27L20 27L20 29L21 29L21 30L22 30L22 29L23 29L23 30L24 30L24 31L25 31L25 30L24 30L24 28L22 28L22 29L21 29L21 27L20 27L20 25L21 25L21 21L19 21L19 20L20 20L20 19L22 19L22 25L24 25L24 23L23 23L23 19L22 19L22 17L25 17L25 16L26 16L26 15L27 15L27 13L28 13L28 15L29 15L29 13L28 13L28 11L27 11L27 13L26 13L26 12L25 12L25 11L24 11L24 12L23 12L23 13L21 13L21 12L20 12L20 11L21 11L21 10L22 10L22 11L23 11L23 9L24 9L24 8L23 8L23 9L21 9L21 7L22 7L22 6L23 6L23 7L24 7L24 5L20 5L20 3L21 3L21 4L22 4L22 3L23 3L23 2L22 2L22 1ZM9 2L9 3L10 3L10 2ZM21 2L21 3L22 3L22 2ZM17 4L17 5L18 5L18 7L17 7L17 6L16 6L16 7L15 7L15 8L14 8L14 9L15 9L15 8L16 8L16 7L17 7L17 9L18 9L18 10L19 10L19 6L20 6L20 7L21 7L21 6L20 6L20 5L18 5L18 4ZM0 8L0 10L1 10L1 9L2 9L2 8ZM27 8L27 9L28 9L28 8ZM29 8L29 9L31 9L31 12L32 12L32 13L33 13L33 12L32 12L32 9L33 9L33 8ZM6 9L6 10L4 10L4 11L6 11L6 10L7 10L7 9ZM20 9L20 10L21 10L21 9ZM1 11L1 12L0 12L0 13L1 13L1 12L2 12L2 11ZM16 12L16 13L17 13L17 12ZM2 13L2 14L4 14L4 13ZM20 13L20 14L21 14L21 13ZM11 17L11 18L10 18L10 19L6 19L6 20L9 20L9 21L10 21L10 20L11 20L11 18L12 18L12 17ZM26 19L26 20L27 20L27 21L25 21L25 22L26 22L26 23L25 23L25 24L26 24L26 23L27 23L27 21L28 21L28 23L29 23L29 22L31 22L31 20L32 20L32 19L30 19L30 21L28 21L28 20L27 20L27 19ZM6 23L6 24L7 24L7 23ZM17 23L17 25L18 25L18 24L19 24L19 23ZM30 23L30 24L29 24L29 26L30 26L30 25L31 25L31 23ZM25 25L25 28L28 28L28 25ZM23 26L23 27L24 27L24 26ZM26 26L26 27L27 27L27 26ZM30 27L30 29L32 29L32 28L31 28L31 27ZM32 32L32 33L33 33L33 32ZM0 0L0 7L7 7L7 0ZM1 1L1 6L6 6L6 1ZM2 2L2 5L5 5L5 2ZM26 0L26 7L33 7L33 0ZM27 1L27 6L32 6L32 1ZM28 2L28 5L31 5L31 2ZM0 26L0 33L7 33L7 26ZM1 27L1 32L6 32L6 27ZM2 28L2 31L5 31L5 28Z" fill="#000000"/></g></g></svg>
