<?xml version="1.0" encoding="UTF-8"?>
<svg xmlns="http://www.w3.org/2000/svg" version="1.1" width="400" height="400" viewBox="0 0 400 400"><rect x="0" y="0" width="400" height="400" fill="#fefefe"/><g transform="scale(9.756)"><g transform="translate(4,4)"><path fill-rule="evenodd" d="M8 0L8 1L9 1L9 2L8 2L8 5L9 5L9 4L11 4L11 5L10 5L10 10L9 10L9 8L8 8L8 10L6 10L6 9L7 9L7 8L6 8L6 9L5 9L5 10L2 10L2 9L4 9L4 8L0 8L0 15L1 15L1 16L2 16L2 15L3 15L3 17L2 17L2 18L1 18L1 19L2 19L2 20L3 20L3 21L9 21L9 24L8 24L8 22L6 22L6 23L7 23L7 24L5 24L5 22L2 22L2 23L1 23L1 24L0 24L0 25L1 25L1 24L2 24L2 23L3 23L3 25L8 25L8 26L10 26L10 27L11 27L11 25L9 25L9 24L10 24L10 23L11 23L11 24L12 24L12 25L14 25L14 24L16 24L16 23L13 23L13 24L12 24L12 21L13 21L13 19L14 19L14 20L15 20L15 19L16 19L16 20L17 20L17 21L16 21L16 22L17 22L17 21L19 21L19 22L20 22L20 23L18 23L18 24L17 24L17 25L15 25L15 26L18 26L18 30L19 30L19 29L20 29L20 28L19 28L19 27L21 27L21 29L22 29L22 28L23 28L23 30L22 30L22 32L21 32L21 31L20 31L20 33L23 33L23 31L24 31L24 32L25 32L25 33L26 33L26 32L25 32L25 31L28 31L28 33L31 33L31 32L30 32L30 31L32 31L32 32L33 32L33 31L32 31L32 29L33 29L33 27L31 27L31 26L32 26L32 25L33 25L33 21L32 21L32 20L30 20L30 19L29 19L29 17L32 17L32 18L31 18L31 19L32 19L32 18L33 18L33 16L32 16L32 15L30 15L30 16L28 16L28 15L29 15L29 14L27 14L27 15L26 15L26 13L25 13L25 12L28 12L28 13L29 13L29 12L30 12L30 11L28 11L28 10L27 10L27 9L26 9L26 8L25 8L25 9L26 9L26 10L24 10L24 9L23 9L23 4L21 4L21 2L20 2L20 4L19 4L19 6L18 6L18 3L19 3L19 2L18 2L18 3L17 3L17 2L15 2L15 0L12 0L12 1L11 1L11 0L10 0L10 1L9 1L9 0ZM19 0L19 1L20 1L20 0ZM23 0L23 1L22 1L22 2L23 2L23 3L25 3L25 0ZM11 2L11 4L12 4L12 3L13 3L13 2ZM14 2L14 4L13 4L13 5L12 5L12 6L11 6L11 8L12 8L12 6L13 6L13 10L14 10L14 9L15 9L15 11L14 11L14 13L13 13L13 14L12 14L12 16L10 16L10 19L13 19L13 16L16 16L16 15L17 15L17 17L15 17L15 18L14 18L14 19L15 19L15 18L16 18L16 19L17 19L17 18L19 18L19 19L18 19L18 20L20 20L20 16L21 16L21 14L22 14L22 15L23 15L23 16L22 16L22 17L21 17L21 18L22 18L22 19L21 19L21 20L23 20L23 19L25 19L25 17L26 17L26 16L25 16L25 14L24 14L24 12L25 12L25 11L24 11L24 12L22 12L22 11L23 11L23 10L22 10L22 11L21 11L21 9L20 9L20 10L18 10L18 9L19 9L19 8L18 8L18 9L17 9L17 12L16 12L16 5L17 5L17 3L16 3L16 5L14 5L14 4L15 4L15 2ZM20 5L20 6L19 6L19 7L20 7L20 8L22 8L22 5ZM8 6L8 7L9 7L9 6ZM14 6L14 8L15 8L15 6ZM17 6L17 7L18 7L18 6ZM20 6L20 7L21 7L21 6ZM24 6L24 7L25 7L25 6ZM28 8L28 9L31 9L31 8ZM32 8L32 10L31 10L31 11L33 11L33 8ZM11 9L11 10L12 10L12 9ZM5 10L5 11L1 11L1 15L2 15L2 14L3 14L3 15L4 15L4 17L3 17L3 19L4 19L4 18L5 18L5 20L7 20L7 19L8 19L8 18L7 18L7 17L6 17L6 16L8 16L8 15L10 15L10 14L11 14L11 13L12 13L12 12L13 12L13 11L11 11L11 13L10 13L10 14L8 14L8 12L9 12L9 11L8 11L8 12L7 12L7 11L6 11L6 10ZM5 11L5 16L6 16L6 15L8 15L8 14L6 14L6 13L7 13L7 12L6 12L6 11ZM20 11L20 13L19 13L19 12L17 12L17 13L15 13L15 14L17 14L17 13L19 13L19 14L18 14L18 16L20 16L20 14L21 14L21 11ZM2 12L2 13L4 13L4 12ZM31 12L31 14L32 14L32 12ZM22 13L22 14L23 14L23 13ZM13 14L13 15L14 15L14 14ZM23 16L23 18L24 18L24 17L25 17L25 16ZM27 16L27 17L28 17L28 16ZM6 18L6 19L7 19L7 18ZM27 18L27 20L24 20L24 21L25 21L25 22L24 22L24 23L22 23L22 22L23 22L23 21L20 21L20 22L21 22L21 23L20 23L20 24L21 24L21 27L23 27L23 26L22 26L22 25L24 25L24 23L25 23L25 22L26 22L26 21L27 21L27 23L26 23L26 24L28 24L28 22L31 22L31 23L29 23L29 25L30 25L30 26L29 26L29 29L28 29L28 31L29 31L29 29L30 29L30 30L31 30L31 29L30 29L30 26L31 26L31 25L32 25L32 21L29 21L29 19L28 19L28 18ZM10 20L10 22L11 22L11 20ZM0 21L0 22L1 22L1 21ZM14 21L14 22L15 22L15 21ZM18 24L18 25L19 25L19 24ZM25 25L25 28L28 28L28 25ZM12 26L12 27L14 27L14 26ZM26 26L26 27L27 27L27 26ZM15 27L15 28L10 28L10 29L8 29L8 33L9 33L9 32L10 32L10 31L11 31L11 32L12 32L12 33L13 33L13 32L12 32L12 31L13 31L13 30L15 30L15 31L16 31L16 33L19 33L19 31L16 31L16 29L15 29L15 28L17 28L17 27ZM10 29L10 30L11 30L11 31L12 31L12 30L13 30L13 29L12 29L12 30L11 30L11 29ZM26 29L26 30L27 30L27 29ZM0 0L0 7L7 7L7 0ZM1 1L1 6L6 6L6 1ZM2 2L2 5L5 5L5 2ZM26 0L26 7L33 7L33 0ZM27 1L27 6L32 6L32 1ZM28 2L28 5L31 5L31 2ZM0 26L0 33L7 33L7 26ZM1 27L1 32L6 32L6 27ZM2 28L2 31L5 31L5 28Z" fill="#000000"/></g></g></svg>
