<?xml version="1.0" encoding="UTF-8"?>
<svg xmlns="http://www.w3.org/2000/svg" version="1.1" width="400" height="400" viewBox="0 0 400 400"><rect x="0" y="0" width="400" height="400" fill="#fefefe"/><g transform="scale(9.756)"><g transform="translate(4,4)"><path fill-rule="evenodd" d="M8 0L8 4L9 4L9 5L8 5L8 7L9 7L9 8L10 8L10 7L11 7L11 5L12 5L12 7L13 7L13 5L14 5L14 7L15 7L15 8L14 8L14 9L13 9L13 8L12 8L12 9L11 9L11 11L10 11L10 13L9 13L9 11L7 11L7 10L8 10L8 9L7 9L7 8L4 8L4 9L2 9L2 8L0 8L0 12L1 12L1 13L3 13L3 15L2 15L2 14L0 14L0 15L1 15L1 16L0 16L0 17L2 17L2 18L0 18L0 19L2 19L2 24L0 24L0 25L2 25L2 24L4 24L4 25L5 25L5 24L4 24L4 23L3 23L3 22L5 22L5 23L7 23L7 22L5 22L5 21L7 21L7 20L8 20L8 22L9 22L9 23L8 23L8 24L6 24L6 25L8 25L8 26L10 26L10 27L8 27L8 29L9 29L9 30L10 30L10 33L11 33L11 32L12 32L12 31L13 31L13 30L14 30L14 29L15 29L15 32L14 32L14 33L15 33L15 32L16 32L16 31L17 31L17 33L18 33L18 32L19 32L19 33L23 33L23 32L22 32L22 31L20 31L20 32L19 32L19 30L17 30L17 29L18 29L18 27L19 27L19 29L22 29L22 30L23 30L23 31L24 31L24 33L26 33L26 31L27 31L27 32L28 32L28 31L29 31L29 33L30 33L30 31L29 31L29 30L31 30L31 31L32 31L32 30L33 30L33 29L30 29L30 27L31 27L31 28L32 28L32 26L31 26L31 25L32 25L32 24L33 24L33 23L31 23L31 22L32 22L32 21L33 21L33 19L32 19L32 18L31 18L31 17L30 17L30 18L29 18L29 19L28 19L28 18L26 18L26 17L29 17L29 16L30 16L30 14L31 14L31 16L32 16L32 17L33 17L33 16L32 16L32 14L31 14L31 13L29 13L29 10L27 10L27 11L25 11L25 9L22 9L22 7L23 7L23 6L22 6L22 7L21 7L21 6L20 6L20 5L18 5L18 7L17 7L17 6L16 6L16 7L15 7L15 5L16 5L16 4L17 4L17 3L19 3L19 2L20 2L20 3L22 3L22 2L23 2L23 1L24 1L24 3L23 3L23 5L24 5L24 3L25 3L25 0L23 0L23 1L22 1L22 0L21 0L21 1L22 1L22 2L20 2L20 1L19 1L19 0L18 0L18 1L17 1L17 2L16 2L16 3L15 3L15 4L14 4L14 3L12 3L12 4L9 4L9 3L11 3L11 2L9 2L9 0ZM10 0L10 1L12 1L12 2L13 2L13 0ZM15 0L15 1L14 1L14 2L15 2L15 1L16 1L16 0ZM9 5L9 7L10 7L10 5ZM19 6L19 7L18 7L18 8L20 8L20 9L19 9L19 10L18 10L18 9L17 9L17 7L16 7L16 8L15 8L15 9L14 9L14 11L13 11L13 10L12 10L12 11L11 11L11 13L10 13L10 14L11 14L11 13L12 13L12 15L8 15L8 16L7 16L7 15L6 15L6 14L7 14L7 13L8 13L8 12L7 12L7 11L6 11L6 12L7 12L7 13L6 13L6 14L5 14L5 12L4 12L4 11L3 11L3 10L1 10L1 11L3 11L3 13L4 13L4 14L5 14L5 15L6 15L6 16L7 16L7 17L6 17L6 18L7 18L7 19L5 19L5 18L4 18L4 17L3 17L3 18L2 18L2 19L4 19L4 20L3 20L3 21L4 21L4 20L7 20L7 19L8 19L8 20L9 20L9 22L10 22L10 23L9 23L9 24L10 24L10 23L11 23L11 25L12 25L12 24L13 24L13 25L14 25L14 26L12 26L12 27L13 27L13 28L11 28L11 29L10 29L10 30L11 30L11 29L14 29L14 28L15 28L15 29L17 29L17 26L19 26L19 27L21 27L21 26L22 26L22 25L23 25L23 28L22 28L22 29L23 29L23 30L24 30L24 31L26 31L26 29L24 29L24 24L26 24L26 23L29 23L29 22L31 22L31 20L32 20L32 19L30 19L30 21L28 21L28 20L27 20L27 19L26 19L26 20L27 20L27 21L25 21L25 22L26 22L26 23L23 23L23 18L22 18L22 17L25 17L25 16L22 16L22 17L19 17L19 18L18 18L18 17L17 17L17 19L16 19L16 20L15 20L15 18L16 18L16 17L14 17L14 16L17 16L17 14L16 14L16 15L15 15L15 13L14 13L14 12L15 12L15 9L17 9L17 10L16 10L16 11L18 11L18 12L19 12L19 15L18 15L18 16L19 16L19 15L20 15L20 16L21 16L21 15L22 15L22 14L23 14L23 13L21 13L21 11L20 11L20 9L21 9L21 8L20 8L20 6ZM24 6L24 8L25 8L25 6ZM27 8L27 9L28 9L28 8ZM29 8L29 9L31 9L31 12L32 12L32 13L33 13L33 12L32 12L32 9L33 9L33 8ZM6 9L6 10L7 10L7 9ZM9 9L9 10L10 10L10 9ZM12 11L12 12L13 12L13 11ZM22 11L22 12L23 12L23 11ZM24 11L24 13L25 13L25 14L24 14L24 15L25 15L25 14L26 14L26 16L28 16L28 15L27 15L27 13L28 13L28 14L29 14L29 13L28 13L28 11L27 11L27 13L25 13L25 11ZM16 12L16 13L17 13L17 12ZM13 13L13 14L14 14L14 13ZM20 13L20 15L21 15L21 13ZM3 15L3 16L4 16L4 15ZM8 16L8 17L7 17L7 18L8 18L8 17L9 17L9 16ZM10 16L10 18L11 18L11 21L10 21L10 22L11 22L11 23L12 23L12 22L13 22L13 23L17 23L17 25L16 25L16 24L14 24L14 25L15 25L15 28L16 28L16 26L17 26L17 25L18 25L18 24L19 24L19 25L20 25L20 26L21 26L21 25L22 25L22 19L21 19L21 18L20 18L20 19L19 19L19 21L21 21L21 25L20 25L20 24L19 24L19 23L17 23L17 21L18 21L18 19L17 19L17 20L16 20L16 21L15 21L15 20L14 20L14 21L13 21L13 19L14 19L14 17L13 17L13 16L12 16L12 17L11 17L11 16ZM12 18L12 19L13 19L13 18ZM20 19L20 20L21 20L21 19ZM0 20L0 22L1 22L1 20ZM14 21L14 22L15 22L15 21ZM27 21L27 22L28 22L28 21ZM30 23L30 24L29 24L29 26L30 26L30 25L31 25L31 23ZM25 25L25 28L28 28L28 25ZM26 26L26 27L27 27L27 26ZM27 29L27 31L28 31L28 29ZM8 31L8 33L9 33L9 31ZM32 32L32 33L33 33L33 32ZM0 0L0 7L7 7L7 0ZM1 1L1 6L6 6L6 1ZM2 2L2 5L5 5L5 2ZM26 0L26 7L33 7L33 0ZM27 1L27 6L32 6L32 1ZM28 2L28 5L31 5L31 2ZM0 26L0 33L7 33L7 26ZM1 27L1 32L6 32L6 27ZM2 28L2 31L5 31L5 28Z" fill="#000000"/></g></g></svg>
