<?xml version="1.0" encoding="UTF-8"?>
<svg xmlns="http://www.w3.org/2000/svg" version="1.1" width="400" height="400" viewBox="0 0 400 400"><rect x="0" y="0" width="400" height="400" fill="#fefefe"/><g transform="scale(9.756)"><g transform="translate(4,4)"><path fill-rule="evenodd" d="M8 0L8 4L10 4L10 3L11 3L11 4L12 4L12 2L11 2L11 0ZM12 0L12 1L13 1L13 0ZM15 0L15 1L14 1L14 2L15 2L15 1L16 1L16 0ZM18 0L18 1L17 1L17 2L16 2L16 3L15 3L15 4L14 4L14 3L13 3L13 5L11 5L11 6L10 6L10 7L9 7L9 5L8 5L8 7L9 7L9 8L10 8L10 7L11 7L11 6L12 6L12 8L11 8L11 9L7 9L7 8L4 8L4 9L3 9L3 11L0 11L0 12L1 12L1 13L0 13L0 15L1 15L1 17L0 17L0 18L2 18L2 19L1 19L1 20L0 20L0 22L1 22L1 20L2 20L2 21L3 21L3 19L4 19L4 22L5 22L5 23L3 23L3 22L2 22L2 23L3 23L3 24L4 24L4 25L5 25L5 24L6 24L6 25L7 25L7 24L6 24L6 23L7 23L7 22L8 22L8 21L10 21L10 20L11 20L11 23L12 23L12 20L13 20L13 19L14 19L14 17L16 17L16 18L15 18L15 20L14 20L14 21L13 21L13 22L14 22L14 25L13 25L13 24L12 24L12 25L10 25L10 22L9 22L9 23L8 23L8 26L9 26L9 27L8 27L8 29L9 29L9 30L10 30L10 29L9 29L9 28L11 28L11 32L13 32L13 30L14 30L14 29L15 29L15 31L14 31L14 33L15 33L15 32L16 32L16 31L17 31L17 33L18 33L18 32L19 32L19 33L25 33L25 31L26 31L26 33L27 33L27 31L29 31L29 33L30 33L30 31L29 31L29 30L31 30L31 31L32 31L32 30L33 30L33 27L32 27L32 26L31 26L31 25L32 25L32 24L33 24L33 23L31 23L31 22L32 22L32 21L33 21L33 19L32 19L32 18L31 18L31 17L30 17L30 18L29 18L29 19L28 19L28 20L26 20L26 19L27 19L27 18L26 18L26 17L29 17L29 16L30 16L30 14L31 14L31 16L32 16L32 17L33 17L33 16L32 16L32 14L31 14L31 13L29 13L29 12L28 12L28 11L29 11L29 10L28 10L28 8L27 8L27 11L26 11L26 12L25 12L25 13L23 13L23 11L24 11L24 10L26 10L26 9L23 9L23 8L22 8L22 7L23 7L23 6L22 6L22 7L21 7L21 5L25 5L25 3L24 3L24 2L25 2L25 0L23 0L23 1L22 1L22 0L21 0L21 1L22 1L22 2L21 2L21 3L20 3L20 1L19 1L19 0ZM18 1L18 3L17 3L17 4L16 4L16 5L15 5L15 7L14 7L14 5L13 5L13 8L12 8L12 9L11 9L11 10L8 10L8 11L4 11L4 13L5 13L5 14L7 14L7 15L6 15L6 16L7 16L7 17L5 17L5 16L3 16L3 15L4 15L4 14L2 14L2 13L1 13L1 15L2 15L2 17L4 17L4 19L5 19L5 22L7 22L7 21L8 21L8 20L10 20L10 19L11 19L11 18L12 18L12 17L11 17L11 16L12 16L12 15L13 15L13 17L14 17L14 16L17 16L17 14L16 14L16 15L15 15L15 13L14 13L14 12L15 12L15 9L17 9L17 10L16 10L16 11L18 11L18 12L19 12L19 11L20 11L20 10L21 10L21 11L22 11L22 10L23 10L23 9L19 9L19 10L18 10L18 9L17 9L17 7L18 7L18 8L19 8L19 7L20 7L20 6L19 6L19 7L18 7L18 5L20 5L20 3L19 3L19 1ZM23 1L23 2L22 2L22 3L21 3L21 4L22 4L22 3L23 3L23 2L24 2L24 1ZM9 2L9 3L10 3L10 2ZM16 6L16 7L15 7L15 8L14 8L14 9L12 9L12 10L11 10L11 11L10 11L10 13L11 13L11 12L12 12L12 13L13 13L13 14L14 14L14 13L13 13L13 12L12 12L12 11L14 11L14 9L15 9L15 8L16 8L16 7L17 7L17 6ZM24 6L24 7L25 7L25 6ZM0 8L0 9L1 9L1 10L2 10L2 8ZM29 8L29 9L31 9L31 12L32 12L32 13L33 13L33 12L32 12L32 9L33 9L33 8ZM4 9L4 10L7 10L7 9ZM6 12L6 13L7 13L7 12ZM8 12L8 13L9 13L9 12ZM16 12L16 13L17 13L17 12ZM20 12L20 13L19 13L19 15L18 15L18 16L19 16L19 18L18 18L18 17L17 17L17 19L16 19L16 20L15 20L15 21L14 21L14 22L15 22L15 21L16 21L16 20L17 20L17 19L18 19L18 21L17 21L17 23L15 23L15 24L16 24L16 25L17 25L17 26L16 26L16 28L15 28L15 25L14 25L14 26L12 26L12 29L14 29L14 28L15 28L15 29L17 29L17 30L19 30L19 31L20 31L20 32L21 32L21 30L22 30L22 29L23 29L23 31L25 31L25 29L24 29L24 24L23 24L23 20L22 20L22 25L23 25L23 28L22 28L22 29L21 29L21 27L20 27L20 25L21 25L21 23L20 23L20 21L21 21L21 19L20 19L20 17L21 17L21 18L22 18L22 17L25 17L25 16L23 16L23 13L21 13L21 12ZM20 13L20 15L21 15L21 17L22 17L22 14L21 14L21 13ZM25 13L25 14L24 14L24 15L26 15L26 16L27 16L27 14L29 14L29 13ZM8 14L8 15L7 15L7 16L8 16L8 15L9 15L9 19L10 19L10 16L11 16L11 15L9 15L9 14ZM7 17L7 18L6 18L6 19L7 19L7 20L6 20L6 21L7 21L7 20L8 20L8 19L7 19L7 18L8 18L8 17ZM30 19L30 21L26 21L26 20L25 20L25 21L26 21L26 22L24 22L24 23L25 23L25 24L26 24L26 23L27 23L27 24L28 24L28 22L31 22L31 20L32 20L32 19ZM17 23L17 25L18 25L18 24L19 24L19 25L20 25L20 23ZM30 23L30 24L29 24L29 26L30 26L30 25L31 25L31 23ZM0 24L0 25L2 25L2 24ZM25 25L25 28L28 28L28 25ZM17 26L17 29L18 29L18 27L19 27L19 26ZM26 26L26 27L27 27L27 26ZM30 27L30 29L32 29L32 28L31 28L31 27ZM19 28L19 29L20 29L20 30L21 30L21 29L20 29L20 28ZM8 31L8 33L9 33L9 32L10 32L10 31ZM32 32L32 33L33 33L33 32ZM0 0L0 7L7 7L7 0ZM1 1L1 6L6 6L6 1ZM2 2L2 5L5 5L5 2ZM26 0L26 7L33 7L33 0ZM27 1L27 6L32 6L32 1ZM28 2L28 5L31 5L31 2ZM0 26L0 33L7 33L7 26ZM1 27L1 32L6 32L6 27ZM2 28L2 31L5 31L5 28Z" fill="#000000"/></g></g></svg>
