<?xml version="1.0" encoding="UTF-8"?>
<svg xmlns="http://www.w3.org/2000/svg" version="1.1" width="400" height="400" viewBox="0 0 400 400"><rect x="0" y="0" width="400" height="400" fill="#fefefe"/><g transform="scale(9.756)"><g transform="translate(4,4)"><path fill-rule="evenodd" d="M10 0L10 2L11 2L11 0ZM12 0L12 1L13 1L13 2L12 2L12 4L14 4L14 3L13 3L13 2L14 2L14 1L15 1L15 2L16 2L16 1L15 1L15 0ZM19 0L19 1L18 1L18 2L19 2L19 3L20 3L20 4L18 4L18 3L17 3L17 4L18 4L18 7L19 7L19 5L20 5L20 9L19 9L19 8L17 8L17 6L16 6L16 5L15 5L15 6L14 6L14 5L11 5L11 6L10 6L10 4L11 4L11 3L8 3L8 4L9 4L9 5L8 5L8 7L9 7L9 8L6 8L6 9L5 9L5 8L0 8L0 12L2 12L2 14L1 14L1 13L0 13L0 15L1 15L1 16L0 16L0 25L1 25L1 22L4 22L4 23L7 23L7 24L4 24L4 25L7 25L7 24L8 24L8 27L9 27L9 28L8 28L8 33L9 33L9 32L10 32L10 33L11 33L11 32L10 32L10 31L9 31L9 29L11 29L11 30L12 30L12 32L13 32L13 33L14 33L14 32L15 32L15 33L16 33L16 32L17 32L17 33L18 33L18 32L17 32L17 31L16 31L16 30L17 30L17 29L18 29L18 28L19 28L19 27L18 27L18 28L17 28L17 25L18 25L18 24L17 24L17 23L19 23L19 24L20 24L20 25L19 25L19 26L20 26L20 27L21 27L21 28L20 28L20 29L19 29L19 30L20 30L20 31L19 31L19 32L20 32L20 33L21 33L21 32L22 32L22 30L23 30L23 29L21 29L21 28L23 28L23 27L24 27L24 30L26 30L26 31L27 31L27 32L28 32L28 30L29 30L29 31L30 31L30 32L29 32L29 33L30 33L30 32L31 32L31 33L32 33L32 32L31 32L31 31L32 31L32 30L31 30L31 29L32 29L32 28L33 28L33 27L32 27L32 26L33 26L33 23L30 23L30 24L32 24L32 25L30 25L30 26L31 26L31 27L30 27L30 28L29 28L29 24L28 24L28 21L30 21L30 20L31 20L31 19L32 19L32 20L33 20L33 19L32 19L32 18L33 18L33 17L32 17L32 14L33 14L33 13L32 13L32 10L33 10L33 9L32 9L32 8L31 8L31 9L32 9L32 10L29 10L29 12L27 12L27 11L26 11L26 10L28 10L28 8L27 8L27 9L26 9L26 8L25 8L25 4L23 4L23 1L24 1L24 3L25 3L25 0L23 0L23 1L20 1L20 0ZM8 1L8 2L9 2L9 1ZM19 1L19 2L20 2L20 3L21 3L21 4L20 4L20 5L21 5L21 4L22 4L22 6L21 6L21 7L22 7L22 6L23 6L23 8L21 8L21 9L20 9L20 10L19 10L19 13L20 13L20 14L17 14L17 16L18 16L18 15L19 15L19 17L22 17L22 18L23 18L23 19L22 19L22 20L20 20L20 18L19 18L19 20L18 20L18 19L17 19L17 18L18 18L18 17L17 17L17 18L16 18L16 19L17 19L17 20L18 20L18 21L17 21L17 22L16 22L16 21L15 21L15 18L14 18L14 17L16 17L16 15L15 15L15 14L16 14L16 13L17 13L17 12L18 12L18 11L16 11L16 12L15 12L15 10L16 10L16 9L17 9L17 10L18 10L18 9L17 9L17 8L16 8L16 9L15 9L15 7L16 7L16 6L15 6L15 7L14 7L14 6L13 6L13 7L12 7L12 6L11 6L11 7L12 7L12 9L11 9L11 8L10 8L10 9L8 9L8 10L7 10L7 9L6 9L6 10L7 10L7 11L6 11L6 12L7 12L7 13L6 13L6 14L13 14L13 15L12 15L12 16L14 16L14 17L13 17L13 18L12 18L12 17L11 17L11 15L10 15L10 16L9 16L9 17L10 17L10 18L7 18L7 17L6 17L6 16L8 16L8 15L6 15L6 16L5 16L5 14L4 14L4 16L3 16L3 15L2 15L2 16L1 16L1 17L4 17L4 18L5 18L5 17L6 17L6 18L7 18L7 19L6 19L6 20L8 20L8 22L7 22L7 21L4 21L4 22L7 22L7 23L9 23L9 20L10 20L10 22L11 22L11 23L10 23L10 24L9 24L9 25L12 25L12 24L11 24L11 23L12 23L12 22L13 22L13 24L14 24L14 25L13 25L13 28L12 28L12 26L10 26L10 28L12 28L12 29L13 29L13 32L14 32L14 31L15 31L15 30L16 30L16 29L17 29L17 28L16 28L16 29L15 29L15 26L16 26L16 25L17 25L17 24L16 24L16 23L17 23L17 22L19 22L19 23L20 23L20 24L21 24L21 25L20 25L20 26L21 26L21 25L22 25L22 26L23 26L23 25L24 25L24 24L25 24L25 23L26 23L26 24L27 24L27 23L26 23L26 22L23 22L23 20L25 20L25 21L28 21L28 20L30 20L30 19L31 19L31 18L30 18L30 17L31 17L31 16L30 16L30 14L29 14L29 13L31 13L31 12L29 12L29 13L27 13L27 12L26 12L26 11L24 11L24 10L21 10L21 9L25 9L25 8L24 8L24 5L23 5L23 4L22 4L22 3L21 3L21 2L20 2L20 1ZM15 3L15 4L16 4L16 3ZM9 6L9 7L10 7L10 6ZM13 8L13 9L12 9L12 10L13 10L13 11L12 11L12 13L14 13L14 14L15 14L15 13L14 13L14 12L13 12L13 11L14 11L14 10L15 10L15 9L14 9L14 8ZM29 8L29 9L30 9L30 8ZM1 9L1 11L2 11L2 12L3 12L3 13L4 13L4 12L3 12L3 11L5 11L5 9L4 9L4 10L3 10L3 11L2 11L2 9ZM10 9L10 11L11 11L11 9ZM13 9L13 10L14 10L14 9ZM8 10L8 11L7 11L7 12L8 12L8 13L11 13L11 12L9 12L9 10ZM20 10L20 11L21 11L21 12L20 12L20 13L21 13L21 14L20 14L20 16L22 16L22 17L23 17L23 18L25 18L25 20L26 20L26 19L27 19L27 18L28 18L28 19L29 19L29 18L28 18L28 17L29 17L29 15L28 15L28 14L27 14L27 13L21 13L21 12L22 12L22 11L21 11L21 10ZM22 14L22 15L23 15L23 17L25 17L25 18L26 18L26 17L28 17L28 16L26 16L26 15L27 15L27 14L26 14L26 15L24 15L24 14ZM1 18L1 19L3 19L3 18ZM10 18L10 20L11 20L11 22L12 22L12 20L11 20L11 18ZM13 18L13 19L14 19L14 18ZM4 19L4 20L5 20L5 19ZM8 19L8 20L9 20L9 19ZM2 20L2 21L3 21L3 20ZM13 20L13 21L14 21L14 24L15 24L15 23L16 23L16 22L15 22L15 21L14 21L14 20ZM19 21L19 22L20 22L20 23L21 23L21 24L22 24L22 25L23 25L23 24L24 24L24 23L23 23L23 22L21 22L21 21ZM32 21L32 22L33 22L33 21ZM2 24L2 25L3 25L3 24ZM14 25L14 26L15 26L15 25ZM25 25L25 28L28 28L28 25ZM26 26L26 27L27 27L27 26ZM13 28L13 29L14 29L14 30L15 30L15 29L14 29L14 28ZM30 28L30 29L31 29L31 28ZM20 29L20 30L21 30L21 29ZM26 29L26 30L28 30L28 29ZM23 31L23 32L24 32L24 33L26 33L26 32L24 32L24 31ZM0 0L0 7L7 7L7 0ZM1 1L1 6L6 6L6 1ZM2 2L2 5L5 5L5 2ZM26 0L26 7L33 7L33 0ZM27 1L27 6L32 6L32 1ZM28 2L28 5L31 5L31 2ZM0 26L0 33L7 33L7 26ZM1 27L1 32L6 32L6 27ZM2 28L2 31L5 31L5 28Z" fill="#000000"/></g></g></svg>
