<?xml version="1.0" encoding="UTF-8"?>
<svg xmlns="http://www.w3.org/2000/svg" version="1.1" width="400" height="400" viewBox="0 0 400 400"><rect x="0" y="0" width="400" height="400" fill="#fefefe"/><g transform="scale(9.756)"><g transform="translate(4,4)"><path fill-rule="evenodd" d="M8 0L8 1L11 1L11 2L10 2L10 4L9 4L9 2L8 2L8 5L11 5L11 4L12 4L12 1L13 1L13 4L14 4L14 5L16 5L16 12L17 12L17 13L15 13L15 14L17 14L17 13L19 13L19 14L18 14L18 16L19 16L19 15L20 15L20 16L21 16L21 17L22 17L22 15L23 15L23 13L22 13L22 14L21 14L21 12L20 12L20 11L19 11L19 12L17 12L17 9L18 9L18 10L20 10L20 9L21 9L21 10L22 10L22 11L24 11L24 12L28 12L28 13L29 13L29 12L30 12L30 11L27 11L27 9L26 9L26 8L25 8L25 5L24 5L24 7L23 7L23 4L21 4L21 5L20 5L20 4L19 4L19 3L21 3L21 2L18 2L18 1L21 1L21 0L18 0L18 1L17 1L17 2L15 2L15 0ZM23 0L23 1L22 1L22 2L23 2L23 3L24 3L24 2L25 2L25 0ZM14 2L14 4L15 4L15 2ZM17 2L17 3L16 3L16 5L17 5L17 7L18 7L18 9L19 9L19 8L20 8L20 6L19 6L19 5L17 5L17 3L18 3L18 2ZM21 5L21 8L22 8L22 10L23 10L23 9L24 9L24 10L26 10L26 9L25 9L25 8L23 8L23 7L22 7L22 5ZM8 6L8 7L9 7L9 6ZM10 6L10 9L11 9L11 10L9 10L9 8L8 8L8 9L7 9L7 8L6 8L6 9L7 9L7 10L6 10L6 11L5 11L5 10L4 10L4 8L0 8L0 9L2 9L2 10L3 10L3 11L1 11L1 10L0 10L0 11L1 11L1 12L0 12L0 13L2 13L2 15L3 15L3 16L1 16L1 15L0 15L0 18L1 18L1 17L3 17L3 18L2 18L2 19L0 19L0 20L1 20L1 21L0 21L0 22L1 22L1 21L4 21L4 22L5 22L5 23L3 23L3 22L2 22L2 23L1 23L1 24L0 24L0 25L1 25L1 24L2 24L2 23L3 23L3 24L4 24L4 25L8 25L8 26L9 26L9 25L10 25L10 28L9 28L9 29L8 29L8 33L9 33L9 32L10 32L10 33L11 33L11 32L12 32L12 33L13 33L13 32L12 32L12 31L13 31L13 30L15 30L15 31L14 31L14 32L15 32L15 31L16 31L16 33L20 33L20 32L21 32L21 33L22 33L22 32L21 32L21 31L24 31L24 32L25 32L25 33L26 33L26 32L25 32L25 31L28 31L28 29L29 29L29 32L27 32L27 33L31 33L31 32L30 32L30 31L32 31L32 32L33 32L33 31L32 31L32 27L31 27L31 26L32 26L32 25L33 25L33 21L32 21L32 20L30 20L30 19L29 19L29 21L32 21L32 25L31 25L31 26L30 26L30 25L29 25L29 24L27 24L27 23L28 23L28 20L27 20L27 19L28 19L28 18L29 18L29 17L32 17L32 18L31 18L31 19L32 19L32 18L33 18L33 16L32 16L32 15L30 15L30 16L29 16L29 14L27 14L27 15L26 15L26 13L25 13L25 16L23 16L23 18L21 18L21 19L23 19L23 20L21 20L21 21L20 21L20 19L19 19L19 18L17 18L17 19L16 19L16 18L15 18L15 17L17 17L17 15L16 15L16 16L13 16L13 15L14 15L14 14L13 14L13 13L14 13L14 11L15 11L15 9L14 9L14 10L13 10L13 9L11 9L11 6ZM12 6L12 7L13 7L13 6ZM14 6L14 8L15 8L15 6ZM18 6L18 7L19 7L19 6ZM28 8L28 9L31 9L31 8ZM32 8L32 10L31 10L31 11L33 11L33 8ZM8 10L8 11L6 11L6 12L8 12L8 13L9 13L9 14L7 14L7 13L5 13L5 15L6 15L6 16L3 16L3 17L4 17L4 18L3 18L3 20L4 20L4 18L5 18L5 20L9 20L9 21L8 21L8 22L10 22L10 20L9 20L9 19L12 19L12 18L13 18L13 16L12 16L12 18L10 18L10 17L11 17L11 16L10 16L10 15L13 15L13 14L12 14L12 13L13 13L13 12L11 12L11 13L9 13L9 12L8 12L8 11L9 11L9 10ZM12 10L12 11L13 11L13 10ZM4 11L4 12L2 12L2 13L3 13L3 15L4 15L4 12L5 12L5 11ZM19 12L19 13L20 13L20 12ZM31 12L31 14L32 14L32 12ZM6 14L6 15L7 15L7 16L6 16L6 17L5 17L5 18L6 18L6 19L7 19L7 18L8 18L8 19L9 19L9 17L8 17L8 16L9 16L9 15L10 15L10 14L9 14L9 15L7 15L7 14ZM20 14L20 15L21 15L21 14ZM25 16L25 17L24 17L24 18L23 18L23 19L25 19L25 17L26 17L26 16ZM6 17L6 18L7 18L7 17ZM27 17L27 18L28 18L28 17ZM14 18L14 19L13 19L13 20L12 20L12 21L13 21L13 22L12 22L12 24L10 24L10 25L11 25L11 27L12 27L12 28L15 28L15 29L16 29L16 31L21 31L21 30L22 30L22 29L21 29L21 28L19 28L19 30L18 30L18 26L15 26L15 25L17 25L17 24L18 24L18 25L20 25L20 23L21 23L21 26L20 26L20 27L22 27L22 26L23 26L23 25L24 25L24 23L25 23L25 24L26 24L26 21L27 21L27 20L24 20L24 21L25 21L25 22L24 22L24 23L22 23L22 22L23 22L23 21L21 21L21 22L19 22L19 21L17 21L17 20L16 20L16 19L15 19L15 18ZM14 19L14 20L15 20L15 19ZM18 19L18 20L19 20L19 19ZM6 21L6 22L7 22L7 21ZM14 21L14 22L13 22L13 24L12 24L12 25L14 25L14 22L15 22L15 21ZM16 21L16 22L17 22L17 21ZM29 22L29 23L31 23L31 22ZM5 23L5 24L8 24L8 23ZM15 23L15 24L16 24L16 23ZM18 23L18 24L19 24L19 23ZM22 24L22 25L23 25L23 24ZM25 25L25 28L28 28L28 25ZM12 26L12 27L14 27L14 26ZM26 26L26 27L27 27L27 26ZM29 26L29 29L30 29L30 30L31 30L31 29L30 29L30 26ZM15 27L15 28L17 28L17 27ZM10 28L10 30L9 30L9 31L10 31L10 30L11 30L11 31L12 31L12 30L13 30L13 29L12 29L12 30L11 30L11 28ZM24 29L24 30L25 30L25 29ZM26 29L26 30L27 30L27 29ZM0 0L0 7L7 7L7 0ZM1 1L1 6L6 6L6 1ZM2 2L2 5L5 5L5 2ZM26 0L26 7L33 7L33 0ZM27 1L27 6L32 6L32 1ZM28 2L28 5L31 5L31 2ZM0 26L0 33L7 33L7 26ZM1 27L1 32L6 32L6 27ZM2 28L2 31L5 31L5 28Z" fill="#000000"/></g></g></svg>
