<?xml version="1.0" encoding="UTF-8"?>
<svg xmlns="http://www.w3.org/2000/svg" version="1.1" width="400" height="400" viewBox="0 0 400 400"><rect x="0" y="0" width="400" height="400" fill="#fefefe"/><g transform="scale(9.756)"><g transform="translate(4,4)"><path fill-rule="evenodd" d="M11 0L11 1L8 1L8 3L9 3L9 2L10 2L10 4L8 4L8 8L6 8L6 9L7 9L7 10L6 10L6 11L5 11L5 10L3 10L3 9L4 9L4 8L3 8L3 9L2 9L2 8L0 8L0 11L4 11L4 12L5 12L5 15L4 15L4 13L3 13L3 12L0 12L0 16L1 16L1 17L0 17L0 18L1 18L1 20L0 20L0 21L2 21L2 22L0 22L0 23L1 23L1 24L0 24L0 25L1 25L1 24L2 24L2 25L8 25L8 27L9 27L9 28L10 28L10 29L8 29L8 30L9 30L9 31L8 31L8 33L9 33L9 31L10 31L10 32L11 32L11 33L12 33L12 32L13 32L13 33L14 33L14 32L13 32L13 30L14 30L14 31L15 31L15 32L16 32L16 33L17 33L17 32L21 32L21 33L22 33L22 31L24 31L24 32L23 32L23 33L29 33L29 32L30 32L30 31L33 31L33 29L31 29L31 30L30 30L30 25L29 25L29 24L26 24L26 23L27 23L27 21L26 21L26 22L25 22L25 24L24 24L24 23L23 23L23 22L22 22L22 23L20 23L20 22L19 22L19 21L23 21L23 20L24 20L24 21L25 21L25 20L26 20L26 17L27 17L27 18L28 18L28 20L30 20L30 19L29 19L29 18L28 18L28 17L29 17L29 16L30 16L30 15L32 15L32 14L33 14L33 9L32 9L32 8L30 8L30 9L29 9L29 8L26 8L26 9L25 9L25 10L24 10L24 11L25 11L25 13L26 13L26 14L23 14L23 13L22 13L22 11L23 11L23 10L22 10L22 7L23 7L23 6L22 6L22 5L25 5L25 0L19 0L19 1L21 1L21 2L19 2L19 4L20 4L20 3L21 3L21 2L22 2L22 1L23 1L23 4L21 4L21 5L19 5L19 6L18 6L18 7L17 7L17 6L16 6L16 3L18 3L18 0L15 0L15 4L13 4L13 2L14 2L14 0ZM12 1L12 2L11 2L11 4L12 4L12 2L13 2L13 1ZM11 5L11 7L10 7L10 6L9 6L9 7L10 7L10 8L8 8L8 11L6 11L6 12L7 12L7 13L6 13L6 14L7 14L7 15L6 15L6 16L4 16L4 15L3 15L3 14L2 14L2 13L1 13L1 14L2 14L2 15L1 15L1 16L2 16L2 17L6 17L6 18L5 18L5 21L6 21L6 22L7 22L7 23L6 23L6 24L7 24L7 23L8 23L8 25L9 25L9 27L10 27L10 26L12 26L12 27L11 27L11 29L12 29L12 30L11 30L11 32L12 32L12 30L13 30L13 29L14 29L14 30L15 30L15 31L16 31L16 32L17 32L17 31L20 31L20 29L21 29L21 24L20 24L20 26L18 26L18 29L17 29L17 28L15 28L15 27L17 27L17 25L15 25L15 26L14 26L14 25L12 25L12 24L13 24L13 23L12 23L12 22L13 22L13 21L12 21L12 20L10 20L10 18L11 18L11 19L12 19L12 18L13 18L13 17L14 17L14 18L15 18L15 19L13 19L13 20L14 20L14 21L15 21L15 22L14 22L14 24L16 24L16 23L17 23L17 24L18 24L18 25L19 25L19 24L18 24L18 23L17 23L17 22L16 22L16 21L19 21L19 20L21 20L21 19L22 19L22 17L24 17L24 18L23 18L23 19L25 19L25 16L23 16L23 14L19 14L19 13L20 13L20 11L21 11L21 9L20 9L20 6L19 6L19 7L18 7L18 8L17 8L17 7L16 7L16 6L15 6L15 7L14 7L14 5ZM12 6L12 7L13 7L13 6ZM21 6L21 7L22 7L22 6ZM24 6L24 8L23 8L23 9L24 9L24 8L25 8L25 6ZM15 7L15 8L16 8L16 11L15 11L15 9L14 9L14 8L10 8L10 9L13 9L13 10L12 10L12 11L11 11L11 10L9 10L9 11L11 11L11 12L13 12L13 13L12 13L12 14L11 14L11 13L10 13L10 14L9 14L9 13L8 13L8 14L9 14L9 16L8 16L8 17L7 17L7 16L6 16L6 17L7 17L7 18L6 18L6 19L7 19L7 20L6 20L6 21L7 21L7 20L8 20L8 22L9 22L9 21L10 21L10 20L8 20L8 19L7 19L7 18L8 18L8 17L9 17L9 18L10 18L10 17L9 17L9 16L10 16L10 14L11 14L11 15L13 15L13 16L12 16L12 17L11 17L11 18L12 18L12 17L13 17L13 16L14 16L14 17L15 17L15 18L16 18L16 19L15 19L15 20L16 20L16 19L17 19L17 20L18 20L18 19L19 19L19 18L17 18L17 17L22 17L22 15L20 15L20 16L18 16L18 14L17 14L17 15L16 15L16 16L14 16L14 15L13 15L13 13L14 13L14 14L15 14L15 13L19 13L19 12L16 12L16 11L20 11L20 10L18 10L18 9L19 9L19 8L18 8L18 9L17 9L17 8L16 8L16 7ZM27 9L27 11L26 11L26 10L25 10L25 11L26 11L26 12L27 12L27 14L26 14L26 16L29 16L29 14L31 14L31 12L32 12L32 10L31 10L31 11L30 11L30 12L29 12L29 9ZM13 10L13 11L14 11L14 10ZM28 13L28 14L29 14L29 13ZM32 16L32 17L33 17L33 16ZM31 18L31 19L32 19L32 20L33 20L33 18ZM2 19L2 21L3 21L3 19ZM29 21L29 22L28 22L28 23L29 23L29 22L31 22L31 23L33 23L33 21ZM10 22L10 23L9 23L9 25L10 25L10 24L12 24L12 23L11 23L11 22ZM2 23L2 24L4 24L4 23ZM23 24L23 25L22 25L22 26L23 26L23 28L22 28L22 29L23 29L23 30L25 30L25 29L24 29L24 26L23 26L23 25L24 25L24 24ZM25 25L25 28L28 28L28 25ZM31 25L31 27L32 27L32 26L33 26L33 25ZM26 26L26 27L27 27L27 26ZM13 27L13 28L14 28L14 29L15 29L15 28L14 28L14 27ZM19 28L19 29L18 29L18 30L19 30L19 29L20 29L20 28ZM16 29L16 31L17 31L17 29ZM21 30L21 31L22 31L22 30ZM26 30L26 32L28 32L28 31L27 31L27 30ZM31 32L31 33L32 33L32 32ZM0 0L0 7L7 7L7 0ZM1 1L1 6L6 6L6 1ZM2 2L2 5L5 5L5 2ZM26 0L26 7L33 7L33 0ZM27 1L27 6L32 6L32 1ZM28 2L28 5L31 5L31 2ZM0 26L0 33L7 33L7 26ZM1 27L1 32L6 32L6 27ZM2 28L2 31L5 31L5 28Z" fill="#000000"/></g></g></svg>
