<?xml version="1.0" encoding="UTF-8"?>
<svg xmlns="http://www.w3.org/2000/svg" version="1.1" width="400" height="400" viewBox="0 0 400 400"><rect x="0" y="0" width="400" height="400" fill="#fefefe"/><g transform="scale(9.756)"><g transform="translate(4,4)"><path fill-rule="evenodd" d="M10 0L10 2L11 2L11 0ZM12 0L12 1L13 1L13 2L12 2L12 4L14 4L14 3L13 3L13 2L14 2L14 1L15 1L15 2L16 2L16 1L15 1L15 0ZM19 0L19 1L20 1L20 0ZM23 0L23 1L21 1L21 3L20 3L20 2L18 2L18 3L17 3L17 4L19 4L19 5L18 5L18 8L17 8L17 6L16 6L16 5L15 5L15 6L14 6L14 5L11 5L11 6L10 6L10 4L11 4L11 3L8 3L8 4L9 4L9 5L8 5L8 7L9 7L9 8L6 8L6 9L8 9L8 10L3 10L3 9L5 9L5 8L0 8L0 9L1 9L1 10L0 10L0 11L1 11L1 10L2 10L2 11L4 11L4 12L3 12L3 14L1 14L1 13L0 13L0 14L1 14L1 15L0 15L0 16L1 16L1 17L2 17L2 16L1 16L1 15L3 15L3 18L2 18L2 19L7 19L7 20L5 20L5 21L4 21L4 20L3 20L3 22L2 22L2 21L0 21L0 25L1 25L1 22L2 22L2 25L4 25L4 24L5 24L5 25L8 25L8 27L11 27L11 26L13 26L13 25L14 25L14 26L15 26L15 29L14 29L14 28L13 28L13 27L12 27L12 28L8 28L8 33L11 33L11 32L9 32L9 29L10 29L10 30L12 30L12 32L13 32L13 33L14 33L14 32L15 32L15 33L16 33L16 32L17 32L17 33L18 33L18 32L17 32L17 31L16 31L16 30L17 30L17 29L18 29L18 28L20 28L20 27L21 27L21 28L22 28L22 29L19 29L19 30L22 30L22 29L23 29L23 28L24 28L24 29L28 29L28 30L24 30L24 31L25 31L25 32L22 32L22 31L19 31L19 32L22 32L22 33L27 33L27 32L29 32L29 33L30 33L30 32L31 32L31 33L32 33L32 32L31 32L31 31L32 31L32 30L31 30L31 29L32 29L32 28L33 28L33 27L32 27L32 26L33 26L33 23L30 23L30 24L32 24L32 25L30 25L30 26L31 26L31 27L30 27L30 28L29 28L29 24L28 24L28 23L29 23L29 22L27 22L27 21L30 21L30 20L31 20L31 19L32 19L32 20L33 20L33 19L32 19L32 18L33 18L33 17L32 17L32 14L33 14L33 13L32 13L32 10L33 10L33 9L32 9L32 8L31 8L31 9L32 9L32 10L28 10L28 8L27 8L27 9L26 9L26 8L25 8L25 5L24 5L24 4L25 4L25 0ZM8 1L8 2L9 2L9 1ZM23 1L23 2L24 2L24 1ZM15 3L15 4L16 4L16 3ZM19 3L19 4L20 4L20 5L19 5L19 7L20 7L20 6L21 6L21 7L22 7L22 8L19 8L19 9L23 9L23 8L24 8L24 9L25 9L25 8L24 8L24 5L23 5L23 4L24 4L24 3L23 3L23 4L22 4L22 3L21 3L21 4L20 4L20 3ZM21 4L21 5L22 5L22 4ZM9 6L9 7L10 7L10 6ZM11 6L11 7L12 7L12 9L11 9L11 8L10 8L10 9L9 9L9 10L8 10L8 12L7 12L7 11L6 11L6 12L4 12L4 13L6 13L6 14L7 14L7 13L8 13L8 14L9 14L9 13L8 13L8 12L11 12L11 13L10 13L10 14L13 14L13 15L12 15L12 16L14 16L14 17L13 17L13 18L12 18L12 17L11 17L11 19L9 19L9 18L10 18L10 15L8 15L8 16L7 16L7 15L6 15L6 16L7 16L7 17L5 17L5 15L4 15L4 14L3 14L3 15L4 15L4 17L5 17L5 18L8 18L8 19L9 19L9 20L7 20L7 21L5 21L5 24L7 24L7 23L8 23L8 24L9 24L9 26L11 26L11 25L12 25L12 24L11 24L11 25L10 25L10 24L9 24L9 22L7 22L7 21L9 21L9 20L12 20L12 22L11 22L11 23L12 23L12 22L13 22L13 24L14 24L14 25L15 25L15 26L16 26L16 25L17 25L17 28L16 28L16 29L15 29L15 30L14 30L14 29L13 29L13 28L12 28L12 29L13 29L13 32L14 32L14 31L15 31L15 30L16 30L16 29L17 29L17 28L18 28L18 27L20 27L20 26L19 26L19 25L21 25L21 26L22 26L22 27L23 27L23 26L24 26L24 24L21 24L21 22L23 22L23 23L24 23L24 22L23 22L23 20L25 20L25 21L27 21L27 19L28 19L28 20L30 20L30 19L31 19L31 18L30 18L30 17L31 17L31 16L30 16L30 14L29 14L29 13L31 13L31 12L29 12L29 11L28 11L28 10L26 10L26 11L28 11L28 12L26 12L26 13L25 13L25 11L24 11L24 10L23 10L23 11L22 11L22 12L21 12L21 10L19 10L19 11L20 11L20 12L19 12L19 13L25 13L25 15L24 15L24 14L22 14L22 16L20 16L20 14L17 14L17 16L18 16L18 15L19 15L19 17L25 17L25 18L23 18L23 20L21 20L21 19L20 19L20 18L19 18L19 20L18 20L18 19L17 19L17 18L18 18L18 17L17 17L17 18L16 18L16 19L17 19L17 20L18 20L18 21L17 21L17 22L16 22L16 21L15 21L15 18L14 18L14 17L16 17L16 15L15 15L15 14L16 14L16 13L17 13L17 12L18 12L18 11L16 11L16 12L15 12L15 10L16 10L16 9L17 9L17 10L18 10L18 9L17 9L17 8L16 8L16 9L15 9L15 7L16 7L16 6L15 6L15 7L14 7L14 6L13 6L13 7L12 7L12 6ZM22 6L22 7L23 7L23 6ZM13 8L13 9L12 9L12 10L13 10L13 11L12 11L12 13L14 13L14 14L15 14L15 13L14 13L14 12L13 12L13 11L14 11L14 10L15 10L15 9L14 9L14 8ZM29 8L29 9L30 9L30 8ZM10 9L10 11L11 11L11 9ZM13 9L13 10L14 10L14 9ZM23 11L23 12L24 12L24 11ZM6 12L6 13L7 13L7 12ZM28 12L28 13L26 13L26 14L28 14L28 15L25 15L25 16L28 16L28 17L26 17L26 18L25 18L25 20L26 20L26 19L27 19L27 18L28 18L28 17L29 17L29 16L28 16L28 15L29 15L29 14L28 14L28 13L29 13L29 12ZM8 17L8 18L9 18L9 17ZM13 18L13 19L14 19L14 18ZM0 19L0 20L1 20L1 19ZM13 20L13 21L14 21L14 24L15 24L15 23L16 23L16 24L17 24L17 25L18 25L18 24L17 24L17 23L19 23L19 24L20 24L20 23L19 23L19 22L21 22L21 21L19 21L19 22L17 22L17 23L16 23L16 22L15 22L15 21L14 21L14 20ZM32 21L32 22L33 22L33 21ZM6 22L6 23L7 23L7 22ZM25 22L25 23L26 23L26 24L27 24L27 22ZM3 23L3 24L4 24L4 23ZM22 25L22 26L23 26L23 25ZM25 25L25 28L28 28L28 25ZM26 26L26 27L27 27L27 26ZM30 28L30 29L31 29L31 28ZM28 30L28 31L29 31L29 32L30 32L30 31L29 31L29 30ZM26 31L26 32L27 32L27 31ZM0 0L0 7L7 7L7 0ZM1 1L1 6L6 6L6 1ZM2 2L2 5L5 5L5 2ZM26 0L26 7L33 7L33 0ZM27 1L27 6L32 6L32 1ZM28 2L28 5L31 5L31 2ZM0 26L0 33L7 33L7 26ZM1 27L1 32L6 32L6 27ZM2 28L2 31L5 31L5 28Z" fill="#000000"/></g></g></svg>
