<?xml version="1.0" encoding="UTF-8"?>
<svg xmlns="http://www.w3.org/2000/svg" version="1.1" width="400" height="400" viewBox="0 0 400 400"><rect x="0" y="0" width="400" height="400" fill="#fefefe"/><g transform="scale(9.756)"><g transform="translate(4,4)"><path fill-rule="evenodd" d="M8 0L8 1L11 1L11 2L10 2L10 4L9 4L9 2L8 2L8 5L11 5L11 4L12 4L12 1L13 1L13 4L14 4L14 5L16 5L16 12L17 12L17 13L15 13L15 14L17 14L17 13L19 13L19 14L18 14L18 16L20 16L20 18L21 18L21 17L22 17L22 15L23 15L23 13L24 13L24 12L23 12L23 11L24 11L24 10L25 10L25 11L28 11L28 9L31 9L31 8L28 8L28 9L26 9L26 8L24 8L24 9L23 9L23 8L20 8L20 7L21 7L21 5L22 5L22 7L23 7L23 4L21 4L21 1L20 1L20 0L19 0L19 1L20 1L20 4L19 4L19 2L18 2L18 1L17 1L17 2L15 2L15 0ZM23 0L23 1L22 1L22 2L23 2L23 3L25 3L25 0ZM14 2L14 4L15 4L15 2ZM17 2L17 3L16 3L16 5L17 5L17 7L18 7L18 9L17 9L17 12L19 12L19 13L20 13L20 15L22 15L22 13L23 13L23 12L22 12L22 10L21 10L21 9L20 9L20 10L18 10L18 9L19 9L19 7L20 7L20 6L19 6L19 5L18 5L18 4L17 4L17 3L18 3L18 2ZM24 5L24 7L25 7L25 5ZM8 6L8 7L9 7L9 6ZM10 6L10 9L11 9L11 10L9 10L9 8L8 8L8 11L9 11L9 13L11 13L11 12L13 12L13 13L12 13L12 14L13 14L13 15L11 15L11 18L12 18L12 19L9 19L9 18L10 18L10 14L9 14L9 15L8 15L8 12L4 12L4 11L7 11L7 10L5 10L5 9L4 9L4 8L0 8L0 9L2 9L2 12L0 12L0 14L2 14L2 13L3 13L3 14L4 14L4 13L5 13L5 15L3 15L3 16L2 16L2 17L1 17L1 15L0 15L0 18L4 18L4 21L8 21L8 22L9 22L9 23L7 23L7 22L5 22L5 23L4 23L4 22L2 22L2 21L1 21L1 20L2 20L2 19L1 19L1 20L0 20L0 22L2 22L2 23L1 23L1 24L0 24L0 25L1 25L1 24L2 24L2 23L3 23L3 25L4 25L4 24L5 24L5 25L8 25L8 26L10 26L10 27L11 27L11 28L9 28L9 29L8 29L8 33L9 33L9 31L11 31L11 33L13 33L13 32L12 32L12 31L13 31L13 30L15 30L15 31L14 31L14 32L15 32L15 31L16 31L16 33L20 33L20 32L21 32L21 33L22 33L22 32L23 32L23 33L24 33L24 32L25 32L25 31L26 31L26 32L27 32L27 33L31 33L31 32L30 32L30 31L32 31L32 32L33 32L33 31L32 31L32 27L31 27L31 26L32 26L32 25L33 25L33 21L32 21L32 20L30 20L30 19L29 19L29 21L32 21L32 25L31 25L31 26L30 26L30 25L29 25L29 23L31 23L31 22L28 22L28 20L27 20L27 18L29 18L29 17L32 17L32 18L31 18L31 19L32 19L32 18L33 18L33 16L32 16L32 15L30 15L30 16L28 16L28 17L27 17L27 16L26 16L26 17L25 17L25 16L23 16L23 18L22 18L22 19L23 19L23 20L21 20L21 21L20 21L20 20L18 20L18 19L19 19L19 18L17 18L17 19L16 19L16 18L15 18L15 17L17 17L17 15L16 15L16 16L13 16L13 15L14 15L14 14L13 14L13 13L14 13L14 11L15 11L15 9L14 9L14 10L13 10L13 9L11 9L11 6ZM12 6L12 7L13 7L13 6ZM14 6L14 8L15 8L15 6ZM18 6L18 7L19 7L19 6ZM6 8L6 9L7 9L7 8ZM32 8L32 10L31 10L31 11L33 11L33 8ZM12 10L12 11L13 11L13 10ZM20 10L20 12L21 12L21 10ZM29 11L29 12L28 12L28 13L29 13L29 12L30 12L30 11ZM25 12L25 13L26 13L26 12ZM31 12L31 14L32 14L32 12ZM6 13L6 14L7 14L7 13ZM28 14L28 15L29 15L29 14ZM6 15L6 16L7 16L7 15ZM3 16L3 17L5 17L5 18L7 18L7 19L5 19L5 20L9 20L9 21L10 21L10 22L11 22L11 21L10 21L10 20L9 20L9 19L8 19L8 18L9 18L9 16L8 16L8 18L7 18L7 17L5 17L5 16ZM12 16L12 18L13 18L13 16ZM24 17L24 18L23 18L23 19L25 19L25 17ZM14 18L14 19L13 19L13 20L12 20L12 21L13 21L13 22L12 22L12 24L10 24L10 23L9 23L9 25L10 25L10 26L11 26L11 27L12 27L12 28L15 28L15 29L16 29L16 31L21 31L21 32L22 32L22 31L21 31L21 30L23 30L23 31L24 31L24 29L23 29L23 28L24 28L24 27L23 27L23 28L22 28L22 29L21 29L21 30L20 30L20 28L19 28L19 30L18 30L18 26L15 26L15 25L17 25L17 24L18 24L18 25L20 25L20 24L18 24L18 23L21 23L21 26L20 26L20 27L21 27L21 26L22 26L22 25L23 25L23 26L24 26L24 24L25 24L25 23L24 23L24 24L23 24L23 23L22 23L22 22L23 22L23 21L21 21L21 22L19 22L19 21L17 21L17 20L16 20L16 19L15 19L15 18ZM14 19L14 20L15 20L15 19ZM24 20L24 21L25 21L25 22L26 22L26 21L27 21L27 20ZM14 21L14 22L13 22L13 24L12 24L12 25L14 25L14 22L15 22L15 21ZM16 21L16 22L17 22L17 21ZM27 22L27 23L26 23L26 24L27 24L27 23L28 23L28 22ZM5 23L5 24L7 24L7 23ZM15 23L15 24L16 24L16 23ZM25 25L25 28L28 28L28 25ZM13 26L13 27L14 27L14 26ZM26 26L26 27L27 27L27 26ZM29 26L29 29L26 29L26 30L27 30L27 32L28 32L28 31L29 31L29 29L30 29L30 30L31 30L31 29L30 29L30 26ZM15 27L15 28L17 28L17 27ZM9 29L9 30L10 30L10 29ZM12 29L12 30L11 30L11 31L12 31L12 30L13 30L13 29ZM0 0L0 7L7 7L7 0ZM1 1L1 6L6 6L6 1ZM2 2L2 5L5 5L5 2ZM26 0L26 7L33 7L33 0ZM27 1L27 6L32 6L32 1ZM28 2L28 5L31 5L31 2ZM0 26L0 33L7 33L7 26ZM1 27L1 32L6 32L6 27ZM2 28L2 31L5 31L5 28Z" fill="#000000"/></g></g></svg>
