<?xml version="1.0" encoding="UTF-8"?>
<svg xmlns="http://www.w3.org/2000/svg" version="1.1" width="400" height="400" viewBox="0 0 400 400"><rect x="0" y="0" width="400" height="400" fill="#fefefe"/><g transform="scale(9.756)"><g transform="translate(4,4)"><path fill-rule="evenodd" d="M11 0L11 1L8 1L8 3L9 3L9 2L10 2L10 4L8 4L8 8L6 8L6 9L7 9L7 10L6 10L6 11L5 11L5 10L4 10L4 11L2 11L2 10L3 10L3 9L4 9L4 8L3 8L3 9L2 9L2 8L0 8L0 9L2 9L2 10L0 10L0 11L2 11L2 12L1 12L1 13L0 13L0 14L1 14L1 13L2 13L2 14L3 14L3 13L7 13L7 14L6 14L6 15L5 15L5 14L4 14L4 15L2 15L2 16L1 16L1 15L0 15L0 16L1 16L1 17L3 17L3 16L5 16L5 17L4 17L4 18L3 18L3 19L2 19L2 18L0 18L0 20L1 20L1 19L2 19L2 21L1 21L1 22L0 22L0 23L1 23L1 24L0 24L0 25L1 25L1 24L2 24L2 25L3 25L3 24L2 24L2 23L4 23L4 25L7 25L7 24L8 24L8 27L9 27L9 29L8 29L8 30L9 30L9 29L10 29L10 30L12 30L12 29L10 29L10 28L12 28L12 26L9 26L9 25L11 25L11 24L12 24L12 25L14 25L14 26L15 26L15 25L17 25L17 27L15 27L15 28L14 28L14 27L13 27L13 28L14 28L14 29L13 29L13 30L14 30L14 32L13 32L13 31L10 31L10 32L9 32L9 31L8 31L8 33L10 33L10 32L11 32L11 33L12 33L12 32L13 32L13 33L14 33L14 32L16 32L16 33L17 33L17 32L19 32L19 31L17 31L17 29L18 29L18 30L19 30L19 29L21 29L21 30L20 30L20 32L21 32L21 33L22 33L22 31L21 31L21 30L22 30L22 29L23 29L23 32L24 32L24 33L25 33L25 32L26 32L26 33L29 33L29 32L30 32L30 31L33 31L33 29L31 29L31 30L30 30L30 25L29 25L29 24L24 24L24 23L29 23L29 22L31 22L31 23L33 23L33 21L29 21L29 22L28 22L28 20L30 20L30 19L29 19L29 18L28 18L28 17L29 17L29 16L30 16L30 15L32 15L32 14L33 14L33 9L32 9L32 8L30 8L30 9L29 9L29 8L26 8L26 9L25 9L25 8L23 8L23 6L22 6L22 5L24 5L24 7L25 7L25 0L21 0L21 1L20 1L20 0L18 0L18 1L17 1L17 0L15 0L15 4L13 4L13 2L14 2L14 0ZM12 1L12 2L11 2L11 4L12 4L12 2L13 2L13 1ZM19 1L19 2L20 2L20 1ZM22 1L22 2L21 2L21 4L23 4L23 3L24 3L24 2L23 2L23 1ZM16 3L16 6L15 6L15 7L14 7L14 5L11 5L11 7L10 7L10 6L9 6L9 7L10 7L10 8L8 8L8 10L11 10L11 11L9 11L9 12L8 12L8 11L6 11L6 12L8 12L8 13L11 13L11 14L10 14L10 16L9 16L9 14L8 14L8 15L6 15L6 16L8 16L8 17L5 17L5 22L4 22L4 23L5 23L5 24L7 24L7 23L6 23L6 22L8 22L8 23L9 23L9 24L10 24L10 23L12 23L12 24L13 24L13 23L15 23L15 24L16 24L16 23L17 23L17 24L18 24L18 25L20 25L20 26L18 26L18 29L19 29L19 27L23 27L23 29L24 29L24 30L25 30L25 31L26 31L26 32L29 32L29 31L28 31L28 29L27 29L27 30L26 30L26 29L24 29L24 26L23 26L23 25L24 25L24 24L23 24L23 25L22 25L22 26L21 26L21 23L22 23L22 22L23 22L23 23L24 23L24 22L26 22L26 21L27 21L27 19L28 19L28 18L27 18L27 17L26 17L26 20L25 20L25 21L24 21L24 20L23 20L23 21L21 21L21 20L20 20L20 19L21 19L21 17L17 17L17 18L19 18L19 19L18 19L18 20L17 20L17 19L16 19L16 18L15 18L15 17L14 17L14 16L16 16L16 15L17 15L17 14L18 14L18 16L19 16L19 15L20 15L20 14L19 14L19 13L20 13L20 12L21 12L21 11L22 11L22 12L24 12L24 13L22 13L22 14L21 14L21 15L23 15L23 14L25 14L25 13L26 13L26 10L24 10L24 9L23 9L23 11L22 11L22 10L20 10L20 9L21 9L21 8L20 8L20 6L19 6L19 9L18 9L18 8L17 8L17 7L18 7L18 3ZM19 4L19 5L20 5L20 4ZM12 6L12 7L13 7L13 6ZM16 6L16 7L15 7L15 8L16 8L16 11L15 11L15 9L14 9L14 8L10 8L10 9L13 9L13 10L12 10L12 11L11 11L11 12L13 12L13 13L12 13L12 14L11 14L11 15L13 15L13 16L12 16L12 17L8 17L8 18L6 18L6 19L10 19L10 20L9 20L9 21L8 21L8 22L10 22L10 21L11 21L11 20L12 20L12 21L13 21L13 22L12 22L12 23L13 23L13 22L15 22L15 21L14 21L14 20L13 20L13 19L15 19L15 20L16 20L16 19L15 19L15 18L14 18L14 17L13 17L13 16L14 16L14 15L13 15L13 13L14 13L14 14L15 14L15 13L19 13L19 12L20 12L20 10L18 10L18 9L17 9L17 8L16 8L16 7L17 7L17 6ZM21 6L21 7L22 7L22 6ZM27 9L27 11L28 11L28 13L29 13L29 14L31 14L31 12L32 12L32 10L31 10L31 11L30 11L30 12L29 12L29 11L28 11L28 10L29 10L29 9ZM13 10L13 11L14 11L14 10ZM4 11L4 12L5 12L5 11ZM16 11L16 12L19 12L19 11ZM2 12L2 13L3 13L3 12ZM26 14L26 15L25 15L25 16L22 16L22 17L24 17L24 18L22 18L22 19L25 19L25 16L26 16L26 15L27 15L27 16L29 16L29 15L28 15L28 14ZM32 16L32 17L33 17L33 16ZM12 17L12 18L11 18L11 19L12 19L12 18L13 18L13 17ZM31 18L31 19L32 19L32 20L33 20L33 18ZM3 19L3 20L4 20L4 19ZM6 20L6 21L7 21L7 20ZM16 21L16 22L17 22L17 23L18 23L18 24L19 24L19 23L20 23L20 22L21 22L21 21L20 21L20 22L19 22L19 21ZM25 25L25 28L28 28L28 25ZM31 25L31 27L32 27L32 26L33 26L33 25ZM26 26L26 27L27 27L27 26ZM15 28L15 29L14 29L14 30L15 30L15 31L16 31L16 32L17 32L17 31L16 31L16 29L17 29L17 28ZM31 32L31 33L32 33L32 32ZM0 0L0 7L7 7L7 0ZM1 1L1 6L6 6L6 1ZM2 2L2 5L5 5L5 2ZM26 0L26 7L33 7L33 0ZM27 1L27 6L32 6L32 1ZM28 2L28 5L31 5L31 2ZM0 26L0 33L7 33L7 26ZM1 27L1 32L6 32L6 27ZM2 28L2 31L5 31L5 28Z" fill="#000000"/></g></g></svg>
