<?xml version="1.0" encoding="UTF-8"?>
<svg xmlns="http://www.w3.org/2000/svg" version="1.1" width="400" height="400" viewBox="0 0 400 400"><rect x="0" y="0" width="400" height="400" fill="#fefefe"/><g transform="scale(9.756)"><g transform="translate(4,4)"><path fill-rule="evenodd" d="M8 0L8 4L9 4L9 5L8 5L8 7L9 7L9 8L10 8L10 7L11 7L11 5L12 5L12 7L13 7L13 5L14 5L14 7L15 7L15 8L14 8L14 9L13 9L13 8L12 8L12 9L11 9L11 11L10 11L10 13L11 13L11 15L9 15L9 16L8 16L8 15L7 15L7 14L9 14L9 13L7 13L7 12L9 12L9 10L10 10L10 9L8 9L8 11L7 11L7 10L5 10L5 9L7 9L7 8L4 8L4 9L3 9L3 10L1 10L1 9L2 9L2 8L0 8L0 10L1 10L1 11L0 11L0 13L2 13L2 14L3 14L3 15L1 15L1 16L0 16L0 17L1 17L1 20L0 20L0 22L1 22L1 20L2 20L2 21L3 21L3 22L2 22L2 23L3 23L3 24L0 24L0 25L3 25L3 24L4 24L4 25L5 25L5 24L6 24L6 25L7 25L7 24L8 24L8 26L9 26L9 27L8 27L8 29L9 29L9 30L10 30L10 31L12 31L12 30L14 30L14 29L15 29L15 32L14 32L14 33L15 33L15 32L16 32L16 31L17 31L17 33L18 33L18 32L19 32L19 33L20 33L20 32L21 32L21 33L22 33L22 32L23 32L23 30L25 30L25 31L24 31L24 33L27 33L27 32L28 32L28 33L30 33L30 31L29 31L29 30L31 30L31 31L32 31L32 30L33 30L33 29L30 29L30 27L31 27L31 28L32 28L32 26L31 26L31 25L32 25L32 24L33 24L33 23L31 23L31 22L32 22L32 21L33 21L33 19L32 19L32 18L31 18L31 17L30 17L30 18L28 18L28 17L29 17L29 16L30 16L30 14L31 14L31 16L32 16L32 17L33 17L33 16L32 16L32 14L31 14L31 13L29 13L29 10L28 10L28 8L27 8L27 10L28 10L28 11L27 11L27 12L26 12L26 9L23 9L23 8L25 8L25 2L23 2L23 1L25 1L25 0L23 0L23 1L22 1L22 0L21 0L21 1L19 1L19 0L18 0L18 1L19 1L19 2L16 2L16 3L15 3L15 4L14 4L14 3L12 3L12 4L9 4L9 3L11 3L11 2L9 2L9 0ZM10 0L10 1L12 1L12 2L13 2L13 0ZM15 0L15 1L14 1L14 2L15 2L15 1L16 1L16 0ZM21 1L21 2L20 2L20 3L17 3L17 4L16 4L16 5L15 5L15 7L16 7L16 8L15 8L15 9L14 9L14 11L13 11L13 10L12 10L12 11L11 11L11 13L12 13L12 15L11 15L11 17L12 17L12 16L13 16L13 17L14 17L14 19L13 19L13 18L12 18L12 19L13 19L13 21L14 21L14 22L15 22L15 21L16 21L16 20L17 20L17 19L18 19L18 21L17 21L17 23L13 23L13 22L12 22L12 23L10 23L10 20L8 20L8 19L9 19L9 18L10 18L10 19L11 19L11 18L10 18L10 17L6 17L6 18L5 18L5 17L2 17L2 16L1 16L1 17L2 17L2 18L5 18L5 19L6 19L6 20L8 20L8 22L7 22L7 21L6 21L6 22L3 22L3 23L4 23L4 24L5 24L5 23L6 23L6 24L7 24L7 23L8 23L8 22L9 22L9 25L10 25L10 24L11 24L11 25L12 25L12 24L13 24L13 25L14 25L14 26L12 26L12 27L11 27L11 26L10 26L10 27L11 27L11 28L10 28L10 30L11 30L11 29L14 29L14 28L15 28L15 29L17 29L17 30L19 30L19 32L20 32L20 31L21 31L21 30L22 30L22 29L24 29L24 24L26 24L26 23L28 23L28 22L31 22L31 20L32 20L32 19L30 19L30 21L28 21L28 18L27 18L27 17L28 17L28 15L29 15L29 13L28 13L28 12L27 12L27 13L24 13L24 12L23 12L23 13L19 13L19 15L18 15L18 16L19 16L19 15L20 15L20 17L19 17L19 18L18 18L18 17L17 17L17 19L16 19L16 20L15 20L15 18L16 18L16 17L14 17L14 16L17 16L17 14L16 14L16 15L15 15L15 13L14 13L14 12L15 12L15 9L17 9L17 10L16 10L16 11L18 11L18 12L19 12L19 11L20 11L20 12L21 12L21 10L22 10L22 11L23 11L23 9L21 9L21 7L22 7L22 8L23 8L23 7L24 7L24 5L21 5L21 4L22 4L22 3L23 3L23 2L22 2L22 1ZM21 2L21 3L22 3L22 2ZM17 4L17 5L18 5L18 7L17 7L17 6L16 6L16 7L17 7L17 9L18 9L18 10L19 10L19 9L20 9L20 10L21 10L21 9L20 9L20 8L18 8L18 7L19 7L19 6L20 6L20 7L21 7L21 6L20 6L20 5L18 5L18 4ZM9 5L9 7L10 7L10 5ZM22 6L22 7L23 7L23 6ZM29 8L29 9L31 9L31 12L32 12L32 13L33 13L33 12L32 12L32 9L33 9L33 8ZM4 10L4 11L3 11L3 12L2 12L2 11L1 11L1 12L2 12L2 13L3 13L3 14L5 14L5 16L7 16L7 15L6 15L6 14L7 14L7 13L6 13L6 12L7 12L7 11L6 11L6 12L4 12L4 11L5 11L5 10ZM12 11L12 12L13 12L13 11ZM3 12L3 13L4 13L4 12ZM16 12L16 13L17 13L17 12ZM5 13L5 14L6 14L6 13ZM13 13L13 14L14 14L14 13ZM23 13L23 16L22 16L22 14L20 14L20 15L21 15L21 17L20 17L20 19L21 19L21 21L20 21L20 22L21 22L21 23L20 23L20 24L19 24L19 23L17 23L17 25L16 25L16 24L14 24L14 25L15 25L15 28L16 28L16 26L17 26L17 29L18 29L18 27L19 27L19 26L17 26L17 25L18 25L18 24L19 24L19 25L20 25L20 26L21 26L21 29L20 29L20 28L19 28L19 29L20 29L20 30L21 30L21 29L22 29L22 27L23 27L23 25L22 25L22 20L23 20L23 23L26 23L26 21L27 21L27 22L28 22L28 21L27 21L27 20L26 20L26 19L27 19L27 18L26 18L26 17L27 17L27 15L28 15L28 13L27 13L27 15L26 15L26 14L25 14L25 15L24 15L24 13ZM3 15L3 16L4 16L4 15ZM23 16L23 17L21 17L21 18L22 18L22 19L23 19L23 17L25 17L25 16ZM6 18L6 19L7 19L7 18ZM3 19L3 20L4 20L4 19ZM14 20L14 21L15 21L15 20ZM25 20L25 21L26 21L26 20ZM6 22L6 23L7 23L7 22ZM30 23L30 24L29 24L29 26L30 26L30 25L31 25L31 23ZM20 24L20 25L21 25L21 24ZM25 25L25 28L28 28L28 25ZM26 26L26 27L27 27L27 26ZM27 29L27 31L28 31L28 29ZM8 31L8 33L9 33L9 31ZM25 31L25 32L26 32L26 31ZM32 32L32 33L33 33L33 32ZM0 0L0 7L7 7L7 0ZM1 1L1 6L6 6L6 1ZM2 2L2 5L5 5L5 2ZM26 0L26 7L33 7L33 0ZM27 1L27 6L32 6L32 1ZM28 2L28 5L31 5L31 2ZM0 26L0 33L7 33L7 26ZM1 27L1 32L6 32L6 27ZM2 28L2 31L5 31L5 28Z" fill="#000000"/></g></g></svg>
