<?xml version="1.0" encoding="UTF-8"?>
<svg xmlns="http://www.w3.org/2000/svg" version="1.1" width="400" height="400" viewBox="0 0 400 400"><rect x="0" y="0" width="400" height="400" fill="#fefefe"/><g transform="scale(9.756)"><g transform="translate(4,4)"><path fill-rule="evenodd" d="M10 0L10 2L11 2L11 0ZM12 0L12 1L13 1L13 2L12 2L12 4L14 4L14 3L13 3L13 2L14 2L14 1L15 1L15 2L16 2L16 1L15 1L15 0ZM19 0L19 1L20 1L20 0ZM23 0L23 1L21 1L21 2L20 2L20 3L24 3L24 2L23 2L23 1L25 1L25 0ZM8 1L8 2L9 2L9 1ZM17 1L17 2L18 2L18 3L17 3L17 4L19 4L19 5L18 5L18 8L17 8L17 6L16 6L16 5L15 5L15 6L14 6L14 5L11 5L11 6L10 6L10 4L11 4L11 3L8 3L8 4L9 4L9 5L8 5L8 7L9 7L9 8L6 8L6 9L5 9L5 8L0 8L0 9L1 9L1 10L0 10L0 11L1 11L1 10L2 10L2 11L3 11L3 12L2 12L2 15L1 15L1 13L0 13L0 16L2 16L2 15L3 15L3 14L6 14L6 15L5 15L5 16L6 16L6 17L4 17L4 16L3 16L3 17L4 17L4 18L2 18L2 17L0 17L0 18L1 18L1 19L2 19L2 20L1 20L1 21L0 21L0 25L1 25L1 21L2 21L2 23L4 23L4 24L3 24L3 25L7 25L7 24L8 24L8 27L9 27L9 28L8 28L8 33L10 33L10 32L13 32L13 33L14 33L14 32L15 32L15 33L16 33L16 32L17 32L17 33L18 33L18 32L17 32L17 31L16 31L16 30L17 30L17 29L18 29L18 28L19 28L19 27L18 27L18 28L17 28L17 25L18 25L18 24L17 24L17 23L19 23L19 22L21 22L21 23L20 23L20 25L19 25L19 26L20 26L20 29L19 29L19 30L20 30L20 29L21 29L21 30L24 30L24 31L25 31L25 30L26 30L26 31L27 31L27 30L29 30L29 32L31 32L31 33L32 33L32 32L31 32L31 31L32 31L32 30L31 30L31 29L32 29L32 28L33 28L33 27L32 27L32 26L33 26L33 23L30 23L30 24L32 24L32 25L30 25L30 26L31 26L31 27L30 27L30 28L29 28L29 24L28 24L28 23L29 23L29 22L28 22L28 21L30 21L30 20L31 20L31 19L32 19L32 20L33 20L33 19L32 19L32 18L33 18L33 17L32 17L32 14L33 14L33 13L32 13L32 10L33 10L33 9L32 9L32 8L31 8L31 9L32 9L32 10L29 10L29 12L28 12L28 11L27 11L27 12L28 12L28 13L25 13L25 12L26 12L26 11L24 11L24 13L21 13L21 12L23 12L23 10L28 10L28 8L27 8L27 9L26 9L26 8L25 8L25 9L19 9L19 5L20 5L20 8L23 8L23 6L22 6L22 5L25 5L25 4L22 4L22 5L21 5L21 4L19 4L19 2L18 2L18 1ZM15 3L15 4L16 4L16 3ZM9 6L9 7L10 7L10 6ZM11 6L11 7L12 7L12 9L11 9L11 8L10 8L10 9L9 9L9 12L11 12L11 13L10 13L10 14L13 14L13 15L12 15L12 16L14 16L14 17L13 17L13 18L12 18L12 17L11 17L11 15L9 15L9 13L6 13L6 14L8 14L8 15L6 15L6 16L7 16L7 17L6 17L6 18L7 18L7 17L8 17L8 15L9 15L9 16L10 16L10 18L11 18L11 19L9 19L9 18L8 18L8 19L3 19L3 20L2 20L2 21L5 21L5 20L10 20L10 21L9 21L9 23L8 23L8 24L9 24L9 26L10 26L10 28L9 28L9 29L10 29L10 30L9 30L9 31L10 31L10 30L11 30L11 31L12 31L12 30L11 30L11 29L13 29L13 32L14 32L14 31L15 31L15 30L16 30L16 29L17 29L17 28L16 28L16 29L15 29L15 26L16 26L16 25L17 25L17 24L16 24L16 23L17 23L17 22L19 22L19 21L21 21L21 22L23 22L23 23L25 23L25 22L23 22L23 20L25 20L25 21L28 21L28 20L30 20L30 19L31 19L31 18L30 18L30 17L31 17L31 16L30 16L30 14L29 14L29 13L31 13L31 12L29 12L29 13L28 13L28 14L29 14L29 15L27 15L27 14L26 14L26 15L24 15L24 14L25 14L25 13L24 13L24 14L21 14L21 13L20 13L20 12L19 12L19 13L20 13L20 14L17 14L17 16L18 16L18 15L23 15L23 16L21 16L21 17L20 17L20 16L19 16L19 17L20 17L20 18L19 18L19 19L20 19L20 20L18 20L18 19L17 19L17 18L18 18L18 17L17 17L17 18L16 18L16 19L17 19L17 20L18 20L18 21L17 21L17 22L16 22L16 21L15 21L15 18L14 18L14 17L16 17L16 15L15 15L15 14L16 14L16 13L17 13L17 12L18 12L18 11L16 11L16 12L15 12L15 10L16 10L16 9L17 9L17 10L18 10L18 9L17 9L17 8L16 8L16 9L15 9L15 7L16 7L16 6L15 6L15 7L14 7L14 6L13 6L13 7L12 7L12 6ZM21 6L21 7L22 7L22 6ZM24 6L24 7L25 7L25 6ZM13 8L13 9L12 9L12 10L13 10L13 11L12 11L12 13L14 13L14 14L15 14L15 13L14 13L14 12L13 12L13 11L14 11L14 10L15 10L15 9L14 9L14 8ZM29 8L29 9L30 9L30 8ZM2 9L2 10L4 10L4 11L6 11L6 12L7 12L7 11L6 11L6 10L7 10L7 9L6 9L6 10L4 10L4 9ZM10 9L10 11L11 11L11 9ZM13 9L13 10L14 10L14 9ZM19 10L19 11L22 11L22 10ZM3 12L3 13L5 13L5 12ZM28 16L28 17L26 17L26 18L25 18L25 17L22 17L22 18L21 18L21 20L23 20L23 19L22 19L22 18L25 18L25 20L26 20L26 19L27 19L27 18L28 18L28 17L29 17L29 16ZM13 18L13 19L14 19L14 18ZM11 20L11 21L10 21L10 22L12 22L12 23L11 23L11 24L12 24L12 25L10 25L10 26L13 26L13 25L14 25L14 26L15 26L15 25L14 25L14 24L15 24L15 23L16 23L16 22L15 22L15 21L14 21L14 20L13 20L13 21L14 21L14 24L13 24L13 22L12 22L12 20ZM6 21L6 22L5 22L5 23L6 23L6 24L7 24L7 23L6 23L6 22L8 22L8 21ZM32 21L32 22L33 22L33 21ZM26 22L26 23L28 23L28 22ZM9 23L9 24L10 24L10 23ZM21 24L21 25L20 25L20 26L22 26L22 28L21 28L21 29L24 29L24 30L25 30L25 29L24 29L24 28L23 28L23 26L24 26L24 24ZM22 25L22 26L23 26L23 25ZM25 25L25 28L28 28L28 25ZM26 26L26 27L27 27L27 26ZM13 28L13 29L14 29L14 30L15 30L15 29L14 29L14 28ZM30 28L30 29L31 29L31 28ZM26 29L26 30L27 30L27 29ZM20 31L20 32L22 32L22 33L25 33L25 32L23 32L23 31ZM26 32L26 33L28 33L28 32ZM0 0L0 7L7 7L7 0ZM1 1L1 6L6 6L6 1ZM2 2L2 5L5 5L5 2ZM26 0L26 7L33 7L33 0ZM27 1L27 6L32 6L32 1ZM28 2L28 5L31 5L31 2ZM0 26L0 33L7 33L7 26ZM1 27L1 32L6 32L6 27ZM2 28L2 31L5 31L5 28Z" fill="#000000"/></g></g></svg>
