<?xml version="1.0" encoding="UTF-8"?>
<svg xmlns="http://www.w3.org/2000/svg" version="1.1" width="400" height="400" viewBox="0 0 400 400"><rect x="0" y="0" width="400" height="400" fill="#fefefe"/><g transform="scale(9.756)"><g transform="translate(4,4)"><path fill-rule="evenodd" d="M8 0L8 1L10 1L10 0ZM12 0L12 2L9 2L9 4L10 4L10 5L11 5L11 6L10 6L10 8L9 8L9 6L8 6L8 8L9 8L9 10L6 10L6 11L7 11L7 12L3 12L3 10L2 10L2 12L1 12L1 14L0 14L0 16L1 16L1 17L0 17L0 25L3 25L3 24L4 24L4 25L7 25L7 24L6 24L6 23L8 23L8 26L9 26L9 24L10 24L10 20L9 20L9 21L8 21L8 22L6 22L6 23L5 23L5 20L6 20L6 21L7 21L7 20L6 20L6 19L7 19L7 18L8 18L8 19L10 19L10 18L8 18L8 17L9 17L9 16L6 16L6 15L7 15L7 14L9 14L9 15L10 15L10 17L12 17L12 18L11 18L11 19L13 19L13 20L11 20L11 23L12 23L12 24L11 24L11 25L10 25L10 27L9 27L9 28L8 28L8 30L9 30L9 31L8 31L8 33L9 33L9 32L11 32L11 31L12 31L12 30L13 30L13 32L14 32L14 31L16 31L16 32L15 32L15 33L18 33L18 32L17 32L17 31L18 31L18 29L17 29L17 30L16 30L16 28L15 28L15 27L16 27L16 26L17 26L17 24L18 24L18 23L19 23L19 22L20 22L20 20L21 20L21 19L22 19L22 18L23 18L23 19L24 19L24 18L25 18L25 17L24 17L24 16L23 16L23 14L24 14L24 15L26 15L26 18L27 18L27 19L26 19L26 20L27 20L27 22L25 22L25 20L22 20L22 21L21 21L21 23L20 23L20 24L19 24L19 25L21 25L21 27L22 27L22 28L23 28L23 30L24 30L24 31L23 31L23 32L22 32L22 33L23 33L23 32L24 32L24 33L25 33L25 32L24 32L24 31L25 31L25 29L27 29L27 31L26 31L26 32L27 32L27 33L29 33L29 32L33 32L33 30L32 30L32 31L31 31L31 29L32 29L32 28L33 28L33 27L30 27L30 28L31 28L31 29L30 29L30 31L29 31L29 30L28 30L28 29L29 29L29 25L30 25L30 26L31 26L31 25L32 25L32 24L33 24L33 22L32 22L32 23L30 23L30 22L29 22L29 21L30 21L30 20L31 20L31 21L32 21L32 19L33 19L33 15L31 15L31 13L30 13L30 12L32 12L32 13L33 13L33 12L32 12L32 11L33 11L33 10L30 10L30 12L29 12L29 11L27 11L27 10L29 10L29 9L27 9L27 8L26 8L26 9L27 9L27 10L24 10L24 9L25 9L25 5L23 5L23 3L22 3L22 2L23 2L23 0L22 0L22 2L20 2L20 1L21 1L21 0L20 0L20 1L18 1L18 0L16 0L16 1L17 1L17 2L16 2L16 4L17 4L17 5L16 5L16 8L15 8L15 6L14 6L14 5L15 5L15 3L14 3L14 2L15 2L15 1L14 1L14 2L13 2L13 0ZM24 0L24 1L25 1L25 0ZM17 2L17 3L18 3L18 4L20 4L20 5L19 5L19 7L18 7L18 5L17 5L17 8L20 8L20 10L19 10L19 12L20 12L20 13L19 13L19 14L16 14L16 16L15 16L15 18L17 18L17 20L16 20L16 19L15 19L15 20L13 20L13 25L14 25L14 27L13 27L13 26L11 26L11 28L12 28L12 29L10 29L10 30L12 30L12 29L13 29L13 30L14 30L14 29L13 29L13 28L14 28L14 27L15 27L15 25L16 25L16 24L17 24L17 23L18 23L18 22L19 22L19 20L18 20L18 18L17 18L17 17L18 17L18 15L19 15L19 16L20 16L20 19L21 19L21 18L22 18L22 10L23 10L23 9L24 9L24 8L23 8L23 7L24 7L24 6L23 6L23 7L22 7L22 4L20 4L20 3L19 3L19 2ZM24 2L24 4L25 4L25 2ZM10 3L10 4L11 4L11 5L12 5L12 4L13 4L13 5L14 5L14 4L13 4L13 3L12 3L12 4L11 4L11 3ZM11 6L11 7L12 7L12 6ZM13 6L13 7L14 7L14 6ZM20 6L20 8L21 8L21 6ZM0 8L0 9L2 9L2 8ZM3 8L3 9L4 9L4 10L5 10L5 8ZM6 8L6 9L7 9L7 8ZM11 8L11 9L12 9L12 8ZM13 8L13 10L15 10L15 8ZM22 8L22 9L23 9L23 8ZM32 8L32 9L33 9L33 8ZM16 9L16 10L17 10L17 11L18 11L18 9ZM9 10L9 11L10 11L10 10ZM11 11L11 12L10 12L10 15L12 15L12 14L13 14L13 13L14 13L14 15L13 15L13 16L14 16L14 15L15 15L15 13L16 13L16 11ZM23 11L23 12L24 12L24 13L25 13L25 14L26 14L26 15L27 15L27 16L28 16L28 14L29 14L29 16L30 16L30 17L31 17L31 16L30 16L30 14L29 14L29 12L28 12L28 14L27 14L27 13L25 13L25 11ZM26 11L26 12L27 12L27 11ZM2 12L2 13L3 13L3 15L2 15L2 17L1 17L1 18L4 18L4 19L6 19L6 18L7 18L7 17L6 17L6 16L5 16L5 15L6 15L6 14L7 14L7 13L9 13L9 12L7 12L7 13L3 13L3 12ZM11 12L11 14L12 14L12 12ZM14 12L14 13L15 13L15 12ZM17 12L17 13L18 13L18 12ZM20 13L20 14L19 14L19 15L20 15L20 16L21 16L21 13ZM4 14L4 15L3 15L3 17L4 17L4 18L6 18L6 17L4 17L4 15L5 15L5 14ZM16 16L16 17L17 17L17 16ZM13 17L13 19L14 19L14 17ZM23 17L23 18L24 18L24 17ZM30 18L30 19L28 19L28 21L29 21L29 20L30 20L30 19L32 19L32 18ZM1 19L1 24L2 24L2 22L3 22L3 21L4 21L4 20L2 20L2 19ZM15 20L15 23L14 23L14 25L15 25L15 24L16 24L16 20ZM17 20L17 21L18 21L18 20ZM8 22L8 23L9 23L9 22ZM27 22L27 23L26 23L26 24L29 24L29 22ZM4 23L4 24L5 24L5 23ZM21 23L21 25L22 25L22 24L25 24L25 23ZM30 24L30 25L31 25L31 24ZM23 25L23 26L24 26L24 25ZM25 25L25 28L28 28L28 25ZM19 26L19 27L18 27L18 28L19 28L19 27L20 27L20 26ZM26 26L26 27L27 27L27 26ZM12 27L12 28L13 28L13 27ZM19 29L19 31L20 31L20 32L19 32L19 33L21 33L21 31L22 31L22 30L20 30L20 29ZM27 31L27 32L28 32L28 31ZM0 0L0 7L7 7L7 0ZM1 1L1 6L6 6L6 1ZM2 2L2 5L5 5L5 2ZM26 0L26 7L33 7L33 0ZM27 1L27 6L32 6L32 1ZM28 2L28 5L31 5L31 2ZM0 26L0 33L7 33L7 26ZM1 27L1 32L6 32L6 27ZM2 28L2 31L5 31L5 28Z" fill="#000000"/></g></g></svg>
