<?xml version="1.0" encoding="UTF-8"?>
<svg xmlns="http://www.w3.org/2000/svg" version="1.1" width="400" height="400" viewBox="0 0 400 400"><rect x="0" y="0" width="400" height="400" fill="#fefefe"/><g transform="scale(9.756)"><g transform="translate(4,4)"><path fill-rule="evenodd" d="M8 0L8 4L9 4L9 5L8 5L8 7L9 7L9 8L10 8L10 7L11 7L11 5L12 5L12 7L13 7L13 5L14 5L14 7L15 7L15 8L14 8L14 9L13 9L13 8L12 8L12 9L11 9L11 11L10 11L10 13L9 13L9 14L8 14L8 11L9 11L9 10L10 10L10 9L9 9L9 10L8 10L8 9L7 9L7 8L4 8L4 9L2 9L2 8L0 8L0 10L1 10L1 11L0 11L0 12L1 12L1 13L3 13L3 12L4 12L4 11L3 11L3 10L5 10L5 12L6 12L6 13L7 13L7 14L6 14L6 15L9 15L9 14L10 14L10 13L11 13L11 15L12 15L12 13L11 13L11 11L12 11L12 12L13 12L13 11L14 11L14 9L15 9L15 12L14 12L14 13L13 13L13 14L14 14L14 13L15 13L15 15L16 15L16 14L17 14L17 16L14 16L14 17L13 17L13 16L12 16L12 17L10 17L10 16L6 16L6 17L7 17L7 18L6 18L6 19L5 19L5 21L4 21L4 20L3 20L3 19L4 19L4 18L5 18L5 13L4 13L4 14L2 14L2 15L1 15L1 14L0 14L0 19L1 19L1 20L0 20L0 22L2 22L2 23L3 23L3 24L0 24L0 25L3 25L3 24L6 24L6 25L7 25L7 24L6 24L6 23L8 23L8 26L9 26L9 25L10 25L10 28L9 28L9 27L8 27L8 29L9 29L9 31L8 31L8 33L10 33L10 29L11 29L11 32L12 32L12 31L13 31L13 30L14 30L14 29L15 29L15 32L14 32L14 33L15 33L15 32L16 32L16 31L17 31L17 33L18 33L18 32L19 32L19 33L26 33L26 32L25 32L25 31L27 31L27 33L28 33L28 32L29 32L29 30L31 30L31 31L32 31L32 30L33 30L33 29L30 29L30 27L31 27L31 28L32 28L32 26L31 26L31 25L32 25L32 24L33 24L33 23L31 23L31 22L32 22L32 21L33 21L33 19L32 19L32 18L31 18L31 17L30 17L30 18L29 18L29 19L28 19L28 18L26 18L26 17L29 17L29 16L30 16L30 14L31 14L31 16L32 16L32 17L33 17L33 16L32 16L32 14L31 14L31 13L29 13L29 11L28 11L28 12L26 12L26 9L22 9L22 7L23 7L23 6L22 6L22 7L21 7L21 6L20 6L20 5L21 5L21 3L22 3L22 2L23 2L23 5L25 5L25 0L23 0L23 1L22 1L22 0L20 0L20 1L18 1L18 0L17 0L17 1L18 1L18 2L16 2L16 3L15 3L15 4L14 4L14 3L12 3L12 4L9 4L9 3L11 3L11 2L9 2L9 0ZM10 0L10 1L12 1L12 2L13 2L13 0ZM15 0L15 1L14 1L14 2L15 2L15 1L16 1L16 0ZM20 1L20 3L19 3L19 2L18 2L18 3L17 3L17 4L16 4L16 5L15 5L15 7L16 7L16 8L15 8L15 9L17 9L17 10L16 10L16 11L18 11L18 12L19 12L19 11L20 11L20 10L21 10L21 9L19 9L19 10L18 10L18 9L17 9L17 7L18 7L18 8L19 8L19 7L20 7L20 8L21 8L21 7L20 7L20 6L19 6L19 7L18 7L18 6L17 6L17 5L18 5L18 3L19 3L19 5L20 5L20 3L21 3L21 2L22 2L22 1ZM23 1L23 2L24 2L24 1ZM9 5L9 7L10 7L10 5ZM16 6L16 7L17 7L17 6ZM24 6L24 7L25 7L25 6ZM27 8L27 10L28 10L28 8ZM29 8L29 9L31 9L31 12L32 12L32 13L33 13L33 12L32 12L32 9L33 9L33 8ZM1 9L1 10L2 10L2 9ZM5 9L5 10L7 10L7 11L6 11L6 12L7 12L7 11L8 11L8 10L7 10L7 9ZM12 10L12 11L13 11L13 10ZM2 11L2 12L3 12L3 11ZM22 11L22 13L21 13L21 12L20 12L20 13L19 13L19 15L18 15L18 16L20 16L20 17L19 17L19 18L18 18L18 17L17 17L17 19L16 19L16 20L15 20L15 18L16 18L16 17L14 17L14 19L13 19L13 18L12 18L12 19L13 19L13 21L14 21L14 22L12 22L12 23L11 23L11 22L10 22L10 21L9 21L9 20L8 20L8 21L6 21L6 22L8 22L8 23L9 23L9 24L11 24L11 25L12 25L12 24L13 24L13 25L14 25L14 26L13 26L13 27L11 27L11 29L14 29L14 28L15 28L15 29L17 29L17 30L19 30L19 31L20 31L20 32L21 32L21 31L20 31L20 30L22 30L22 29L24 29L24 24L25 24L25 23L26 23L26 24L27 24L27 23L28 23L28 22L31 22L31 20L32 20L32 19L30 19L30 21L25 21L25 23L24 23L24 24L23 24L23 20L22 20L22 24L23 24L23 25L21 25L21 23L20 23L20 21L21 21L21 18L22 18L22 17L25 17L25 16L26 16L26 15L27 15L27 16L28 16L28 15L29 15L29 13L25 13L25 12L23 12L23 11ZM16 12L16 13L17 13L17 12ZM20 13L20 14L21 14L21 13ZM22 13L22 14L23 14L23 16L25 16L25 15L26 15L26 14L25 14L25 13ZM24 14L24 15L25 15L25 14ZM27 14L27 15L28 15L28 14ZM21 15L21 17L20 17L20 18L21 18L21 17L22 17L22 15ZM2 16L2 17L1 17L1 18L2 18L2 19L3 19L3 17L4 17L4 16ZM8 17L8 19L10 19L10 20L11 20L11 18L9 18L9 17ZM6 19L6 20L7 20L7 19ZM17 19L17 20L16 20L16 21L15 21L15 20L14 20L14 21L15 21L15 22L14 22L14 25L15 25L15 28L16 28L16 26L17 26L17 29L18 29L18 27L19 27L19 26L17 26L17 25L18 25L18 24L19 24L19 25L20 25L20 28L19 28L19 29L22 29L22 26L21 26L21 25L20 25L20 23L17 23L17 21L18 21L18 19ZM26 19L26 20L28 20L28 19ZM2 20L2 21L3 21L3 22L4 22L4 23L5 23L5 22L4 22L4 21L3 21L3 20ZM8 21L8 22L9 22L9 21ZM26 22L26 23L27 23L27 22ZM15 23L15 24L16 24L16 25L17 25L17 23ZM30 23L30 24L29 24L29 26L30 26L30 25L31 25L31 23ZM25 25L25 28L28 28L28 25ZM26 26L26 27L27 27L27 26ZM24 30L24 31L25 31L25 30ZM32 32L32 33L33 33L33 32ZM0 0L0 7L7 7L7 0ZM1 1L1 6L6 6L6 1ZM2 2L2 5L5 5L5 2ZM26 0L26 7L33 7L33 0ZM27 1L27 6L32 6L32 1ZM28 2L28 5L31 5L31 2ZM0 26L0 33L7 33L7 26ZM1 27L1 32L6 32L6 27ZM2 28L2 31L5 31L5 28Z" fill="#000000"/></g></g></svg>
