<?xml version="1.0" encoding="UTF-8"?>
<svg xmlns="http://www.w3.org/2000/svg" version="1.1" width="400" height="400" viewBox="0 0 400 400"><rect x="0" y="0" width="400" height="400" fill="#fefefe"/><g transform="scale(9.756)"><g transform="translate(4,4)"><path fill-rule="evenodd" d="M9 0L9 1L11 1L11 2L9 2L9 3L8 3L8 5L9 5L9 6L8 6L8 7L9 7L9 9L8 9L8 8L5 8L5 9L7 9L7 10L6 10L6 11L5 11L5 10L4 10L4 9L2 9L2 8L0 8L0 10L1 10L1 11L0 11L0 12L1 12L1 14L0 14L0 15L2 15L2 14L4 14L4 15L5 15L5 16L6 16L6 17L7 17L7 16L8 16L8 17L9 17L9 18L5 18L5 17L4 17L4 16L3 16L3 17L2 17L2 18L1 18L1 17L0 17L0 19L4 19L4 21L5 21L5 22L6 22L6 23L4 23L4 22L3 22L3 23L2 23L2 24L1 24L1 22L2 22L2 21L3 21L3 20L2 20L2 21L1 21L1 20L0 20L0 25L2 25L2 24L5 24L5 25L7 25L7 24L6 24L6 23L7 23L7 22L6 22L6 21L7 21L7 20L6 20L6 19L10 19L10 20L9 20L9 21L8 21L8 23L9 23L9 25L8 25L8 28L10 28L10 29L9 29L9 30L10 30L10 31L12 31L12 32L13 32L13 33L14 33L14 32L13 32L13 31L16 31L16 32L15 32L15 33L16 33L16 32L17 32L17 33L18 33L18 32L17 32L17 31L18 31L18 30L17 30L17 29L18 29L18 28L20 28L20 27L18 27L18 28L17 28L17 29L16 29L16 28L15 28L15 27L17 27L17 23L19 23L19 26L20 26L20 24L21 24L21 23L22 23L22 27L23 27L23 28L24 28L24 29L27 29L27 32L28 32L28 31L29 31L29 32L31 32L31 33L32 33L32 32L31 32L31 29L30 29L30 28L31 28L31 27L32 27L32 29L33 29L33 27L32 27L32 26L33 26L33 25L32 25L32 24L33 24L33 23L30 23L30 24L29 24L29 23L28 23L28 22L29 22L29 21L30 21L30 20L31 20L31 19L30 19L30 18L32 18L32 20L33 20L33 17L32 17L32 16L33 16L33 15L32 15L32 14L33 14L33 12L32 12L32 10L29 10L29 9L30 9L30 8L28 8L28 10L26 10L26 9L23 9L23 10L24 10L24 12L26 12L26 14L25 14L25 13L23 13L23 14L20 14L20 12L19 12L19 10L20 10L20 9L19 9L19 6L18 6L18 8L17 8L17 6L16 6L16 8L15 8L15 11L18 11L18 13L17 13L17 12L16 12L16 13L15 13L15 12L14 12L14 14L15 14L15 15L14 15L14 16L13 16L13 17L14 17L14 19L16 19L16 20L15 20L15 22L13 22L13 21L14 21L14 20L13 20L13 18L12 18L12 16L11 16L11 15L10 15L10 14L11 14L11 12L12 12L12 14L13 14L13 12L12 12L12 11L14 11L14 10L11 10L11 8L10 8L10 7L11 7L11 4L12 4L12 5L13 5L13 6L12 6L12 9L14 9L14 8L13 8L13 6L14 6L14 7L15 7L15 6L14 6L14 5L13 5L13 4L15 4L15 3L13 3L13 4L12 4L12 2L14 2L14 1L12 1L12 0ZM16 0L16 1L18 1L18 0ZM20 0L20 2L18 2L18 3L16 3L16 4L18 4L18 5L20 5L20 8L21 8L21 4L22 4L22 5L24 5L24 8L25 8L25 4L23 4L23 0L22 0L22 2L21 2L21 0ZM24 0L24 3L25 3L25 0ZM20 2L20 3L18 3L18 4L20 4L20 3L21 3L21 2ZM9 3L9 5L10 5L10 3ZM9 6L9 7L10 7L10 6ZM22 6L22 8L23 8L23 6ZM16 8L16 10L18 10L18 9L17 9L17 8ZM9 9L9 10L10 10L10 11L9 11L9 12L10 12L10 11L11 11L11 10L10 10L10 9ZM3 10L3 11L2 11L2 12L3 12L3 13L6 13L6 14L5 14L5 15L6 15L6 16L7 16L7 15L6 15L6 14L7 14L7 13L6 13L6 12L8 12L8 10L7 10L7 11L6 11L6 12L5 12L5 11L4 11L4 10ZM25 10L25 11L26 11L26 12L27 12L27 14L26 14L26 15L24 15L24 14L23 14L23 16L22 16L22 15L21 15L21 17L20 17L20 18L21 18L21 19L20 19L20 20L18 20L18 17L17 17L17 20L18 20L18 21L16 21L16 23L17 23L17 22L19 22L19 23L21 23L21 21L23 21L23 20L25 20L25 19L26 19L26 21L25 21L25 22L26 22L26 24L28 24L28 23L27 23L27 18L26 18L26 17L27 17L27 16L26 16L26 15L27 15L27 14L29 14L29 17L28 17L28 18L30 18L30 17L31 17L31 16L30 16L30 14L29 14L29 11L28 11L28 12L27 12L27 11L26 11L26 10ZM30 12L30 13L32 13L32 12ZM9 13L9 14L8 14L8 15L9 15L9 17L10 17L10 15L9 15L9 14L10 14L10 13ZM17 14L17 15L16 15L16 16L14 16L14 17L15 17L15 18L16 18L16 16L18 16L18 15L19 15L19 16L20 16L20 14ZM22 17L22 20L23 20L23 19L24 19L24 18L25 18L25 17ZM28 19L28 20L30 20L30 19ZM10 20L10 21L9 21L9 22L11 22L11 23L10 23L10 24L11 24L11 23L13 23L13 24L12 24L12 25L13 25L13 28L12 28L12 26L9 26L9 27L10 27L10 28L11 28L11 29L10 29L10 30L11 30L11 29L13 29L13 30L14 30L14 29L15 29L15 28L14 28L14 27L15 27L15 26L14 26L14 24L15 24L15 25L16 25L16 24L15 24L15 23L13 23L13 22L11 22L11 21L12 21L12 20ZM19 21L19 22L20 22L20 21ZM23 22L23 23L24 23L24 24L25 24L25 23L24 23L24 22ZM30 24L30 25L29 25L29 28L30 28L30 27L31 27L31 26L30 26L30 25L31 25L31 24ZM23 25L23 26L24 26L24 25ZM25 25L25 28L28 28L28 25ZM26 26L26 27L27 27L27 26ZM13 28L13 29L14 29L14 28ZM19 29L19 31L20 31L20 33L21 33L21 31L23 31L23 32L24 32L24 33L25 33L25 32L26 32L26 31L25 31L25 30L24 30L24 31L23 31L23 29ZM20 30L20 31L21 31L21 30ZM29 30L29 31L30 31L30 30ZM32 30L32 31L33 31L33 30ZM8 31L8 33L9 33L9 31ZM24 31L24 32L25 32L25 31ZM0 0L0 7L7 7L7 0ZM1 1L1 6L6 6L6 1ZM2 2L2 5L5 5L5 2ZM26 0L26 7L33 7L33 0ZM27 1L27 6L32 6L32 1ZM28 2L28 5L31 5L31 2ZM0 26L0 33L7 33L7 26ZM1 27L1 32L6 32L6 27ZM2 28L2 31L5 31L5 28Z" fill="#000000"/></g></g></svg>
