<?xml version="1.0" encoding="UTF-8"?>
<svg xmlns="http://www.w3.org/2000/svg" version="1.1" width="400" height="400" viewBox="0 0 400 400"><rect x="0" y="0" width="400" height="400" fill="#fefefe"/><g transform="scale(9.756)"><g transform="translate(4,4)"><path fill-rule="evenodd" d="M9 0L9 1L8 1L8 3L9 3L9 4L8 4L8 8L6 8L6 9L8 9L8 11L11 11L11 10L12 10L12 9L11 9L11 8L10 8L10 7L11 7L11 6L12 6L12 8L13 8L13 10L14 10L14 11L13 11L13 12L12 12L12 13L10 13L10 14L9 14L9 13L7 13L7 12L6 12L6 11L7 11L7 10L5 10L5 9L4 9L4 8L3 8L3 9L2 9L2 8L0 8L0 9L1 9L1 10L2 10L2 12L0 12L0 16L1 16L1 18L0 18L0 19L1 19L1 20L0 20L0 21L1 21L1 22L0 22L0 23L1 23L1 24L0 24L0 25L1 25L1 24L2 24L2 25L4 25L4 23L5 23L5 24L6 24L6 25L8 25L8 27L9 27L9 29L8 29L8 30L9 30L9 31L8 31L8 33L9 33L9 32L11 32L11 33L12 33L12 31L10 31L10 28L12 28L12 27L13 27L13 28L14 28L14 29L13 29L13 30L14 30L14 31L15 31L15 32L16 32L16 33L17 33L17 32L19 32L19 31L17 31L17 29L18 29L18 30L19 30L19 29L20 29L20 30L21 30L21 32L20 32L20 33L25 33L25 32L26 32L26 33L30 33L30 32L29 32L29 31L33 31L33 27L32 27L32 26L33 26L33 25L31 25L31 27L32 27L32 29L31 29L31 30L30 30L30 25L29 25L29 23L28 23L28 22L27 22L27 21L26 21L26 22L24 22L24 23L25 23L25 24L23 24L23 22L22 22L22 23L20 23L20 22L21 22L21 21L23 21L23 20L24 20L24 21L25 21L25 20L26 20L26 17L27 17L27 19L28 19L28 20L30 20L30 19L29 19L29 18L28 18L28 17L29 17L29 16L30 16L30 15L32 15L32 14L33 14L33 9L32 9L32 8L30 8L30 9L29 9L29 8L26 8L26 10L24 10L24 11L23 11L23 12L24 12L24 14L23 14L23 13L22 13L22 10L23 10L23 9L24 9L24 7L25 7L25 6L24 6L24 7L23 7L23 6L22 6L22 5L25 5L25 3L24 3L24 1L25 1L25 0L19 0L19 1L18 1L18 2L17 2L17 0L15 0L15 4L13 4L13 5L14 5L14 7L15 7L15 8L16 8L16 11L15 11L15 9L14 9L14 8L13 8L13 6L12 6L12 5L11 5L11 6L10 6L10 5L9 5L9 4L12 4L12 3L13 3L13 2L14 2L14 0L12 0L12 1L11 1L11 2L9 2L9 1L10 1L10 0ZM19 1L19 2L20 2L20 1ZM22 1L22 2L21 2L21 4L23 4L23 1ZM16 3L16 6L15 6L15 7L16 7L16 8L17 8L17 9L18 9L18 10L21 10L21 9L20 9L20 8L21 8L21 7L22 7L22 6L21 6L21 7L20 7L20 6L19 6L19 9L18 9L18 8L17 8L17 7L18 7L18 3ZM19 4L19 5L20 5L20 4ZM9 6L9 7L10 7L10 6ZM16 6L16 7L17 7L17 6ZM8 8L8 9L9 9L9 10L10 10L10 8ZM3 9L3 11L5 11L5 10L4 10L4 9ZM28 9L28 10L26 10L26 11L24 11L24 12L25 12L25 13L26 13L26 11L29 11L29 9ZM31 10L31 11L30 11L30 12L28 12L28 13L29 13L29 14L28 14L28 15L27 15L27 14L26 14L26 15L25 15L25 16L23 16L23 14L22 14L22 17L24 17L24 18L23 18L23 19L22 19L22 18L21 18L21 17L17 17L17 18L19 18L19 19L18 19L18 20L17 20L17 19L16 19L16 18L15 18L15 17L14 17L14 16L16 16L16 15L17 15L17 14L18 14L18 16L19 16L19 15L20 15L20 16L21 16L21 15L20 15L20 14L21 14L21 11L20 11L20 12L19 12L19 11L16 11L16 12L19 12L19 13L15 13L15 14L14 14L14 13L13 13L13 15L14 15L14 16L13 16L13 17L10 17L10 18L7 18L7 17L8 17L8 16L7 16L7 15L6 15L6 14L7 14L7 13L6 13L6 12L2 12L2 13L1 13L1 16L2 16L2 17L4 17L4 16L3 16L3 14L4 14L4 15L6 15L6 16L5 16L5 18L4 18L4 19L3 19L3 20L2 20L2 22L4 22L4 21L5 21L5 22L7 22L7 21L8 21L8 23L6 23L6 24L8 24L8 23L9 23L9 27L11 27L11 26L13 26L13 27L14 27L14 28L15 28L15 29L14 29L14 30L15 30L15 31L16 31L16 32L17 32L17 31L16 31L16 29L17 29L17 28L15 28L15 27L17 27L17 25L15 25L15 26L14 26L14 25L12 25L12 24L13 24L13 23L12 23L12 21L13 21L13 20L14 20L14 21L15 21L15 22L14 22L14 24L16 24L16 23L17 23L17 24L18 24L18 25L20 25L20 26L18 26L18 29L19 29L19 27L22 27L22 29L24 29L24 30L22 30L22 32L24 32L24 31L25 31L25 29L24 29L24 28L23 28L23 27L24 27L24 25L23 25L23 24L22 24L22 25L23 25L23 26L21 26L21 24L20 24L20 23L19 23L19 24L18 24L18 23L17 23L17 22L16 22L16 21L19 21L19 22L20 22L20 21L21 21L21 20L19 20L19 19L20 19L20 18L21 18L21 19L22 19L22 20L23 20L23 19L25 19L25 16L26 16L26 15L27 15L27 16L29 16L29 14L31 14L31 12L32 12L32 10ZM4 13L4 14L5 14L5 13ZM19 13L19 14L20 14L20 13ZM10 14L10 16L12 16L12 14ZM6 16L6 17L7 17L7 16ZM32 16L32 17L33 17L33 16ZM13 17L13 19L11 19L11 18L10 18L10 19L11 19L11 20L10 20L10 22L11 22L11 20L13 20L13 19L15 19L15 20L16 20L16 19L15 19L15 18L14 18L14 17ZM1 18L1 19L2 19L2 18ZM5 18L5 19L7 19L7 18ZM31 18L31 19L32 19L32 20L33 20L33 18ZM5 20L5 21L7 21L7 20ZM8 20L8 21L9 21L9 20ZM29 21L29 22L31 22L31 23L33 23L33 21ZM10 23L10 25L11 25L11 24L12 24L12 23ZM26 23L26 24L27 24L27 23ZM25 25L25 28L28 28L28 25ZM26 26L26 27L27 27L27 26ZM20 28L20 29L21 29L21 28ZM11 29L11 30L12 30L12 29ZM27 29L27 30L26 30L26 32L28 32L28 29ZM13 32L13 33L14 33L14 32ZM31 32L31 33L32 33L32 32ZM0 0L0 7L7 7L7 0ZM1 1L1 6L6 6L6 1ZM2 2L2 5L5 5L5 2ZM26 0L26 7L33 7L33 0ZM27 1L27 6L32 6L32 1ZM28 2L28 5L31 5L31 2ZM0 26L0 33L7 33L7 26ZM1 27L1 32L6 32L6 27ZM2 28L2 31L5 31L5 28Z" fill="#000000"/></g></g></svg>
