<?xml version="1.0" encoding="UTF-8"?>
<svg xmlns="http://www.w3.org/2000/svg" version="1.1" width="400" height="400" viewBox="0 0 400 400"><rect x="0" y="0" width="400" height="400" fill="#fefefe"/><g transform="scale(9.756)"><g transform="translate(4,4)"><path fill-rule="evenodd" d="M8 0L8 1L11 1L11 2L10 2L10 4L9 4L9 2L8 2L8 5L11 5L11 4L12 4L12 1L13 1L13 4L14 4L14 5L16 5L16 12L17 12L17 13L15 13L15 14L17 14L17 13L19 13L19 14L18 14L18 16L19 16L19 15L20 15L20 18L21 18L21 17L22 17L22 16L23 16L23 18L22 18L22 19L23 19L23 20L21 20L21 19L20 19L20 21L19 21L19 20L18 20L18 19L19 19L19 18L17 18L17 19L16 19L16 18L15 18L15 17L17 17L17 15L16 15L16 16L13 16L13 15L14 15L14 14L13 14L13 13L14 13L14 11L15 11L15 9L14 9L14 10L13 10L13 9L11 9L11 6L10 6L10 9L11 9L11 10L9 10L9 8L8 8L8 10L9 10L9 14L10 14L10 15L11 15L11 16L9 16L9 15L7 15L7 14L5 14L5 15L4 15L4 14L3 14L3 12L6 12L6 13L8 13L8 12L6 12L6 11L7 11L7 10L6 10L6 11L3 11L3 12L0 12L0 13L1 13L1 14L3 14L3 16L5 16L5 17L4 17L4 18L5 18L5 17L7 17L7 16L8 16L8 18L9 18L9 19L8 19L8 21L7 21L7 20L6 20L6 21L5 21L5 19L4 19L4 20L3 20L3 18L2 18L2 17L0 17L0 22L1 22L1 21L2 21L2 20L3 20L3 24L2 24L2 23L1 23L1 24L0 24L0 25L1 25L1 24L2 24L2 25L3 25L3 24L4 24L4 23L5 23L5 22L6 22L6 23L7 23L7 22L8 22L8 23L9 23L9 24L10 24L10 25L8 25L8 26L10 26L10 27L9 27L9 29L8 29L8 33L9 33L9 31L10 31L10 33L11 33L11 30L12 30L12 31L13 31L13 30L15 30L15 31L14 31L14 32L15 32L15 31L16 31L16 33L20 33L20 32L21 32L21 33L22 33L22 32L23 32L23 31L24 31L24 32L25 32L25 33L26 33L26 32L27 32L27 33L29 33L29 31L32 31L32 32L33 32L33 31L32 31L32 27L31 27L31 26L32 26L32 25L33 25L33 21L32 21L32 20L30 20L30 19L29 19L29 21L32 21L32 25L31 25L31 26L30 26L30 25L29 25L29 23L31 23L31 22L28 22L28 20L27 20L27 19L28 19L28 18L29 18L29 17L32 17L32 18L31 18L31 19L32 19L32 18L33 18L33 16L32 16L32 15L30 15L30 16L27 16L27 15L29 15L29 14L27 14L27 15L26 15L26 17L25 17L25 16L23 16L23 15L22 15L22 14L23 14L23 13L22 13L22 14L21 14L21 12L20 12L20 11L19 11L19 12L17 12L17 9L18 9L18 10L20 10L20 9L21 9L21 11L22 11L22 12L24 12L24 10L25 10L25 11L28 11L28 10L27 10L27 9L26 9L26 8L25 8L25 6L24 6L24 7L23 7L23 5L20 5L20 4L19 4L19 2L18 2L18 0L17 0L17 2L15 2L15 0ZM19 0L19 1L20 1L20 2L21 2L21 1L20 1L20 0ZM23 0L23 1L22 1L22 2L24 2L24 5L25 5L25 2L24 2L24 1L25 1L25 0ZM14 2L14 4L15 4L15 2ZM17 2L17 3L16 3L16 5L17 5L17 3L18 3L18 2ZM22 3L22 4L23 4L23 3ZM18 5L18 6L17 6L17 7L18 7L18 6L19 6L19 8L18 8L18 9L19 9L19 8L20 8L20 6L19 6L19 5ZM8 6L8 7L9 7L9 6ZM12 6L12 7L13 7L13 6ZM14 6L14 8L15 8L15 6ZM21 6L21 8L23 8L23 9L24 9L24 8L23 8L23 7L22 7L22 6ZM0 8L0 10L1 10L1 11L2 11L2 10L5 10L5 9L4 9L4 8ZM6 8L6 9L7 9L7 8ZM28 8L28 9L31 9L31 8ZM32 8L32 10L31 10L31 11L33 11L33 8ZM25 9L25 10L26 10L26 9ZM12 10L12 11L13 11L13 10ZM29 11L29 12L28 12L28 13L29 13L29 12L30 12L30 11ZM11 12L11 13L10 13L10 14L11 14L11 15L13 15L13 14L12 14L12 13L13 13L13 12ZM25 12L25 13L26 13L26 12ZM31 12L31 14L32 14L32 12ZM20 14L20 15L21 15L21 14ZM1 15L1 16L2 16L2 15ZM6 15L6 16L7 16L7 15ZM12 16L12 18L11 18L11 19L9 19L9 20L11 20L11 19L12 19L12 18L13 18L13 16ZM24 17L24 18L23 18L23 19L25 19L25 17ZM27 17L27 18L28 18L28 17ZM1 18L1 19L2 19L2 18ZM6 18L6 19L7 19L7 18ZM14 18L14 19L13 19L13 20L12 20L12 21L13 21L13 22L12 22L12 24L11 24L11 28L10 28L10 29L9 29L9 30L10 30L10 29L11 29L11 28L12 28L12 26L14 26L14 27L13 27L13 28L15 28L15 29L16 29L16 31L21 31L21 32L22 32L22 31L21 31L21 30L22 30L22 29L21 29L21 30L20 30L20 27L21 27L21 26L22 26L22 27L23 27L23 28L24 28L24 27L23 27L23 26L24 26L24 23L25 23L25 24L27 24L27 23L26 23L26 21L27 21L27 20L24 20L24 21L25 21L25 22L24 22L24 23L22 23L22 22L23 22L23 21L20 21L20 22L19 22L19 21L17 21L17 20L16 20L16 19L15 19L15 18ZM14 19L14 20L15 20L15 19ZM6 21L6 22L7 22L7 21ZM9 21L9 22L10 22L10 23L11 23L11 22L10 22L10 21ZM14 21L14 22L13 22L13 24L12 24L12 25L14 25L14 22L15 22L15 21ZM16 21L16 22L17 22L17 21ZM15 23L15 24L16 24L16 23ZM18 23L18 24L17 24L17 25L15 25L15 26L18 26L18 30L19 30L19 27L20 27L20 26L21 26L21 24L20 24L20 23ZM6 24L6 25L7 25L7 24ZM18 24L18 25L19 25L19 24ZM22 25L22 26L23 26L23 25ZM25 25L25 28L28 28L28 25ZM26 26L26 27L27 27L27 26ZM29 26L29 29L28 29L28 31L27 31L27 32L28 32L28 31L29 31L29 29L30 29L30 30L31 30L31 29L30 29L30 26ZM15 27L15 28L17 28L17 27ZM12 29L12 30L13 30L13 29ZM23 29L23 30L24 30L24 29ZM25 29L25 31L26 31L26 30L27 30L27 29ZM12 32L12 33L13 33L13 32ZM30 32L30 33L31 33L31 32ZM0 0L0 7L7 7L7 0ZM1 1L1 6L6 6L6 1ZM2 2L2 5L5 5L5 2ZM26 0L26 7L33 7L33 0ZM27 1L27 6L32 6L32 1ZM28 2L28 5L31 5L31 2ZM0 26L0 33L7 33L7 26ZM1 27L1 32L6 32L6 27ZM2 28L2 31L5 31L5 28Z" fill="#000000"/></g></g></svg>
