<?xml version="1.0" encoding="UTF-8"?>
<svg xmlns="http://www.w3.org/2000/svg" version="1.1" width="400" height="400" viewBox="0 0 400 400"><rect x="0" y="0" width="400" height="400" fill="#fefefe"/><g transform="scale(9.756)"><g transform="translate(4,4)"><path fill-rule="evenodd" d="M10 0L10 2L11 2L11 0ZM12 0L12 1L13 1L13 2L12 2L12 4L14 4L14 3L13 3L13 2L14 2L14 1L15 1L15 2L16 2L16 1L15 1L15 0ZM19 0L19 1L18 1L18 3L17 3L17 4L19 4L19 5L20 5L20 4L21 4L21 6L20 6L20 7L21 7L21 8L20 8L20 9L19 9L19 6L18 6L18 8L17 8L17 6L16 6L16 5L15 5L15 6L14 6L14 5L11 5L11 6L10 6L10 4L11 4L11 3L8 3L8 4L9 4L9 5L8 5L8 7L9 7L9 8L6 8L6 9L10 9L10 11L11 11L11 9L12 9L12 10L13 10L13 11L12 11L12 13L14 13L14 14L15 14L15 15L16 15L16 17L14 17L14 16L12 16L12 15L13 15L13 14L10 14L10 15L8 15L8 13L11 13L11 12L9 12L9 11L7 11L7 10L2 10L2 9L5 9L5 8L0 8L0 9L1 9L1 10L2 10L2 11L4 11L4 12L5 12L5 13L3 13L3 14L4 14L4 15L5 15L5 16L3 16L3 15L2 15L2 14L1 14L1 13L2 13L2 12L0 12L0 14L1 14L1 15L2 15L2 16L0 16L0 20L1 20L1 21L0 21L0 25L1 25L1 22L3 22L3 21L2 21L2 20L4 20L4 22L6 22L6 23L4 23L4 24L3 24L3 23L2 23L2 25L4 25L4 24L6 24L6 25L7 25L7 24L8 24L8 27L9 27L9 28L8 28L8 33L10 33L10 30L13 30L13 29L14 29L14 30L15 30L15 33L16 33L16 32L17 32L17 33L18 33L18 32L17 32L17 31L16 31L16 30L17 30L17 29L18 29L18 28L20 28L20 29L19 29L19 30L20 30L20 31L19 31L19 32L20 32L20 33L21 33L21 32L23 32L23 33L26 33L26 32L31 32L31 33L32 33L32 32L31 32L31 31L32 31L32 30L31 30L31 29L32 29L32 28L33 28L33 27L32 27L32 26L33 26L33 23L30 23L30 24L32 24L32 25L30 25L30 26L31 26L31 27L30 27L30 28L29 28L29 24L25 24L25 23L26 23L26 22L27 22L27 21L30 21L30 20L31 20L31 19L32 19L32 20L33 20L33 19L32 19L32 18L33 18L33 17L32 17L32 14L33 14L33 13L32 13L32 10L33 10L33 9L32 9L32 8L31 8L31 9L32 9L32 10L28 10L28 8L27 8L27 9L26 9L26 8L25 8L25 6L24 6L24 8L25 8L25 9L21 9L21 8L23 8L23 6L22 6L22 4L23 4L23 5L24 5L24 4L25 4L25 3L24 3L24 4L23 4L23 1L24 1L24 2L25 2L25 0L23 0L23 1L20 1L20 0ZM8 1L8 2L9 2L9 1ZM19 1L19 2L20 2L20 1ZM15 3L15 4L16 4L16 3ZM19 3L19 4L20 4L20 3ZM21 3L21 4L22 4L22 3ZM9 6L9 7L10 7L10 6ZM11 6L11 7L12 7L12 9L13 9L13 10L14 10L14 11L13 11L13 12L14 12L14 13L15 13L15 14L16 14L16 13L17 13L17 12L18 12L18 11L16 11L16 12L15 12L15 10L16 10L16 9L17 9L17 10L18 10L18 9L17 9L17 8L16 8L16 9L15 9L15 7L16 7L16 6L15 6L15 7L14 7L14 6L13 6L13 7L12 7L12 6ZM21 6L21 7L22 7L22 6ZM10 8L10 9L11 9L11 8ZM13 8L13 9L14 9L14 10L15 10L15 9L14 9L14 8ZM29 8L29 9L30 9L30 8ZM20 9L20 10L19 10L19 11L20 11L20 12L19 12L19 13L20 13L20 14L17 14L17 16L18 16L18 15L19 15L19 17L20 17L20 18L19 18L19 20L18 20L18 19L17 19L17 18L18 18L18 17L17 17L17 18L16 18L16 19L17 19L17 20L18 20L18 21L17 21L17 22L16 22L16 21L15 21L15 18L14 18L14 17L13 17L13 18L12 18L12 17L11 17L11 15L10 15L10 17L9 17L9 16L7 16L7 15L6 15L6 14L7 14L7 13L8 13L8 12L7 12L7 11L6 11L6 12L7 12L7 13L6 13L6 14L5 14L5 15L6 15L6 16L5 16L5 17L6 17L6 18L5 18L5 21L6 21L6 22L7 22L7 23L6 23L6 24L7 24L7 23L8 23L8 24L9 24L9 25L10 25L10 24L11 24L11 25L12 25L12 24L11 24L11 23L12 23L12 22L13 22L13 24L14 24L14 25L13 25L13 26L11 26L11 27L13 27L13 28L11 28L11 29L13 29L13 28L14 28L14 29L15 29L15 30L16 30L16 29L17 29L17 28L18 28L18 27L20 27L20 28L21 28L21 29L20 29L20 30L21 30L21 31L20 31L20 32L21 32L21 31L23 31L23 32L26 32L26 31L23 31L23 30L24 30L24 27L23 27L23 26L22 26L22 28L21 28L21 27L20 27L20 26L19 26L19 25L23 25L23 24L24 24L24 23L25 23L25 22L26 22L26 21L27 21L27 20L30 20L30 19L31 19L31 18L30 18L30 17L31 17L31 16L30 16L30 14L29 14L29 13L31 13L31 12L29 12L29 11L28 11L28 12L27 12L27 10L25 10L25 11L24 11L24 10L23 10L23 11L24 11L24 12L21 12L21 11L22 11L22 10L21 10L21 9ZM20 12L20 13L21 13L21 14L24 14L24 15L25 15L25 16L26 16L26 14L27 14L27 16L28 16L28 17L26 17L26 18L25 18L25 17L21 17L21 16L23 16L23 15L20 15L20 17L21 17L21 18L20 18L20 20L22 20L22 19L23 19L23 18L25 18L25 20L23 20L23 22L21 22L21 21L19 21L19 22L17 22L17 23L16 23L16 22L15 22L15 21L14 21L14 20L13 20L13 21L14 21L14 24L15 24L15 23L16 23L16 24L17 24L17 25L16 25L16 26L15 26L15 25L14 25L14 26L15 26L15 29L16 29L16 28L17 28L17 25L18 25L18 24L17 24L17 23L19 23L19 24L23 24L23 22L25 22L25 21L26 21L26 19L29 19L29 18L28 18L28 17L29 17L29 16L28 16L28 13L29 13L29 12L28 12L28 13L25 13L25 12L24 12L24 13L21 13L21 12ZM24 13L24 14L25 14L25 13ZM6 16L6 17L7 17L7 18L6 18L6 19L8 19L8 18L9 18L9 17L7 17L7 16ZM2 17L2 18L1 18L1 20L2 20L2 18L3 18L3 17ZM13 18L13 19L14 19L14 18ZM21 18L21 19L22 19L22 18ZM9 19L9 20L6 20L6 21L8 21L8 22L9 22L9 23L11 23L11 22L12 22L12 20L11 20L11 19ZM9 20L9 22L10 22L10 20ZM32 21L32 22L33 22L33 21ZM19 22L19 23L21 23L21 22ZM25 25L25 28L28 28L28 25ZM9 26L9 27L10 27L10 26ZM26 26L26 27L27 27L27 26ZM30 28L30 29L31 29L31 28ZM9 29L9 30L10 30L10 29ZM21 29L21 30L23 30L23 29ZM25 29L25 30L27 30L27 31L29 31L29 30L27 30L27 29ZM11 31L11 32L12 32L12 31ZM13 32L13 33L14 33L14 32ZM0 0L0 7L7 7L7 0ZM1 1L1 6L6 6L6 1ZM2 2L2 5L5 5L5 2ZM26 0L26 7L33 7L33 0ZM27 1L27 6L32 6L32 1ZM28 2L28 5L31 5L31 2ZM0 26L0 33L7 33L7 26ZM1 27L1 32L6 32L6 27ZM2 28L2 31L5 31L5 28Z" fill="#000000"/></g></g></svg>
