<?xml version="1.0" encoding="UTF-8"?>
<svg xmlns="http://www.w3.org/2000/svg" version="1.1" width="400" height="400" viewBox="0 0 400 400"><rect x="0" y="0" width="400" height="400" fill="#fefefe"/><g transform="scale(9.756)"><g transform="translate(4,4)"><path fill-rule="evenodd" d="M8 0L8 1L11 1L11 2L10 2L10 4L9 4L9 2L8 2L8 5L11 5L11 4L12 4L12 1L13 1L13 4L14 4L14 5L16 5L16 12L17 12L17 13L15 13L15 14L17 14L17 13L19 13L19 14L18 14L18 16L20 16L20 19L19 19L19 18L17 18L17 19L16 19L16 18L15 18L15 17L17 17L17 15L16 15L16 16L13 16L13 15L14 15L14 14L13 14L13 13L14 13L14 11L15 11L15 9L14 9L14 10L13 10L13 9L11 9L11 6L10 6L10 9L11 9L11 10L8 10L8 9L9 9L9 8L8 8L8 9L7 9L7 8L6 8L6 9L5 9L5 10L4 10L4 11L3 11L3 12L0 12L0 13L2 13L2 14L0 14L0 15L2 15L2 14L4 14L4 16L1 16L1 18L0 18L0 19L1 19L1 18L3 18L3 19L2 19L2 20L1 20L1 21L0 21L0 22L2 22L2 23L1 23L1 24L0 24L0 25L1 25L1 24L2 24L2 23L3 23L3 25L5 25L5 24L4 24L4 22L6 22L6 23L9 23L9 24L6 24L6 25L8 25L8 26L9 26L9 29L8 29L8 33L9 33L9 29L10 29L10 30L12 30L12 29L13 29L13 30L15 30L15 31L14 31L14 32L15 32L15 31L16 31L16 33L19 33L19 31L16 31L16 29L15 29L15 28L17 28L17 27L15 27L15 28L11 28L11 27L10 27L10 26L9 26L9 25L11 25L11 24L12 24L12 25L14 25L14 24L16 24L16 23L13 23L13 24L12 24L12 22L13 22L13 21L12 21L12 20L13 20L13 19L14 19L14 20L15 20L15 19L16 19L16 20L17 20L17 21L16 21L16 22L17 22L17 21L19 21L19 22L21 22L21 21L23 21L23 22L22 22L22 23L24 23L24 25L22 25L22 27L21 27L21 26L20 26L20 25L18 25L18 24L20 24L20 23L18 23L18 24L17 24L17 25L15 25L15 26L18 26L18 30L19 30L19 27L20 27L20 33L23 33L23 32L21 32L21 31L22 31L22 27L23 27L23 30L24 30L24 32L25 32L25 29L29 29L29 30L30 30L30 29L31 29L31 31L32 31L32 32L33 32L33 31L32 31L32 27L31 27L31 26L32 26L32 25L33 25L33 21L32 21L32 20L30 20L30 19L29 19L29 21L32 21L32 25L31 25L31 26L30 26L30 25L29 25L29 23L31 23L31 22L29 22L29 23L28 23L28 19L27 19L27 17L28 17L28 18L29 18L29 17L32 17L32 18L31 18L31 19L32 19L32 18L33 18L33 16L32 16L32 15L30 15L30 16L29 16L29 14L28 14L28 13L29 13L29 12L30 12L30 11L29 11L29 10L28 10L28 9L31 9L31 8L28 8L28 9L26 9L26 8L25 8L25 6L24 6L24 9L23 9L23 8L21 8L21 9L20 9L20 7L21 7L21 6L22 6L22 7L23 7L23 5L21 5L21 3L20 3L20 4L19 4L19 3L17 3L17 2L19 2L19 1L20 1L20 0L19 0L19 1L17 1L17 2L15 2L15 0ZM23 0L23 1L22 1L22 2L24 2L24 5L25 5L25 2L24 2L24 1L25 1L25 0ZM14 2L14 4L15 4L15 2ZM16 3L16 5L17 5L17 7L18 7L18 5L17 5L17 3ZM22 3L22 4L23 4L23 3ZM20 5L20 6L19 6L19 7L20 7L20 6L21 6L21 5ZM8 6L8 7L9 7L9 6ZM12 6L12 7L13 7L13 6ZM14 6L14 8L15 8L15 6ZM0 8L0 9L2 9L2 10L3 10L3 9L4 9L4 8ZM18 8L18 9L17 9L17 12L19 12L19 13L20 13L20 12L19 12L19 11L20 11L20 10L18 10L18 9L19 9L19 8ZM32 8L32 10L31 10L31 11L33 11L33 8ZM6 9L6 10L7 10L7 11L6 11L6 12L9 12L9 11L8 11L8 10L7 10L7 9ZM12 10L12 11L13 11L13 10ZM27 10L27 12L25 12L25 11L21 11L21 14L20 14L20 15L21 15L21 14L22 14L22 13L23 13L23 15L22 15L22 17L21 17L21 18L23 18L23 19L21 19L21 20L20 20L20 21L21 21L21 20L23 20L23 19L25 19L25 17L26 17L26 16L27 16L27 15L25 15L25 13L26 13L26 14L27 14L27 12L28 12L28 10ZM11 12L11 13L8 13L8 14L9 14L9 15L6 15L6 14L7 14L7 13L4 13L4 14L5 14L5 16L4 16L4 17L3 17L3 18L4 18L4 19L3 19L3 20L2 20L2 21L5 21L5 20L4 20L4 19L5 19L5 18L4 18L4 17L6 17L6 18L7 18L7 19L6 19L6 20L7 20L7 21L6 21L6 22L7 22L7 21L8 21L8 22L9 22L9 23L10 23L10 24L11 24L11 23L10 23L10 22L11 22L11 19L12 19L12 18L13 18L13 16L12 16L12 18L11 18L11 17L9 17L9 16L10 16L10 14L11 14L11 15L13 15L13 14L12 14L12 13L13 13L13 12ZM31 12L31 14L32 14L32 12ZM6 16L6 17L7 17L7 18L8 18L8 19L9 19L9 20L8 20L8 21L9 21L9 22L10 22L10 18L9 18L9 17L7 17L7 16ZM23 16L23 18L24 18L24 17L25 17L25 16ZM14 18L14 19L15 19L15 18ZM18 19L18 20L19 20L19 19ZM24 20L24 21L25 21L25 20ZM26 20L26 21L27 21L27 20ZM14 21L14 22L15 22L15 21ZM24 22L24 23L26 23L26 24L28 24L28 23L27 23L27 22ZM25 25L25 28L28 28L28 25ZM12 26L12 27L14 27L14 26ZM26 26L26 27L27 27L27 26ZM29 26L29 29L30 29L30 26ZM10 28L10 29L11 29L11 28ZM26 30L26 32L27 32L27 30ZM10 31L10 33L11 33L11 31ZM12 31L12 33L13 33L13 31ZM29 31L29 32L28 32L28 33L31 33L31 32L30 32L30 31ZM0 0L0 7L7 7L7 0ZM1 1L1 6L6 6L6 1ZM2 2L2 5L5 5L5 2ZM26 0L26 7L33 7L33 0ZM27 1L27 6L32 6L32 1ZM28 2L28 5L31 5L31 2ZM0 26L0 33L7 33L7 26ZM1 27L1 32L6 32L6 27ZM2 28L2 31L5 31L5 28Z" fill="#000000"/></g></g></svg>
