<?xml version="1.0" encoding="UTF-8"?>
<svg xmlns="http://www.w3.org/2000/svg" version="1.1" width="400" height="400" viewBox="0 0 400 400"><rect x="0" y="0" width="400" height="400" fill="#fefefe"/><g transform="scale(9.756)"><g transform="translate(4,4)"><path fill-rule="evenodd" d="M11 0L11 1L8 1L8 3L9 3L9 2L10 2L10 4L8 4L8 8L6 8L6 9L4 9L4 8L3 8L3 10L1 10L1 11L3 11L3 12L0 12L0 13L2 13L2 14L1 14L1 15L2 15L2 16L3 16L3 15L4 15L4 14L3 14L3 12L5 12L5 10L6 10L6 11L7 11L7 12L6 12L6 13L5 13L5 14L6 14L6 15L5 15L5 16L4 16L4 18L3 18L3 17L2 17L2 18L3 18L3 19L4 19L4 18L5 18L5 20L1 20L1 21L2 21L2 22L0 22L0 23L1 23L1 24L0 24L0 25L1 25L1 24L2 24L2 25L3 25L3 24L2 24L2 22L5 22L5 20L6 20L6 21L8 21L8 22L6 22L6 23L7 23L7 24L4 24L4 25L8 25L8 27L9 27L9 29L8 29L8 30L9 30L9 29L10 29L10 33L11 33L11 32L12 32L12 31L13 31L13 30L14 30L14 31L15 31L15 32L16 32L16 33L17 33L17 32L19 32L19 31L17 31L17 29L18 29L18 30L19 30L19 29L20 29L20 31L21 31L21 32L20 32L20 33L23 33L23 32L24 32L24 33L25 33L25 32L26 32L26 31L25 31L25 29L26 29L26 30L27 30L27 29L28 29L28 31L27 31L27 32L28 32L28 33L29 33L29 32L30 32L30 31L29 31L29 30L30 30L30 25L29 25L29 24L27 24L27 23L29 23L29 22L31 22L31 23L33 23L33 21L29 21L29 22L28 22L28 20L30 20L30 19L29 19L29 18L28 18L28 20L27 20L27 21L26 21L26 22L24 22L24 23L25 23L25 24L23 24L23 22L22 22L22 23L21 23L21 21L23 21L23 20L24 20L24 21L25 21L25 20L26 20L26 17L27 17L27 16L25 16L25 14L27 14L27 15L29 15L29 16L28 16L28 17L29 17L29 16L30 16L30 15L32 15L32 14L33 14L33 9L32 9L32 8L30 8L30 9L29 9L29 8L26 8L26 9L25 9L25 6L24 6L24 7L23 7L23 6L22 6L22 5L25 5L25 2L24 2L24 1L25 1L25 0L21 0L21 1L20 1L20 0L18 0L18 1L17 1L17 0L15 0L15 4L13 4L13 2L14 2L14 0ZM12 1L12 2L11 2L11 4L12 4L12 2L13 2L13 1ZM19 1L19 2L18 2L18 3L16 3L16 6L15 6L15 7L14 7L14 5L11 5L11 7L10 7L10 6L9 6L9 7L10 7L10 8L8 8L8 9L6 9L6 10L7 10L7 11L8 11L8 12L7 12L7 13L6 13L6 14L7 14L7 15L6 15L6 16L5 16L5 18L8 18L8 19L9 19L9 20L8 20L8 21L9 21L9 22L11 22L11 23L10 23L10 24L9 24L9 23L8 23L8 25L9 25L9 27L10 27L10 29L12 29L12 30L11 30L11 31L12 31L12 30L13 30L13 29L14 29L14 30L15 30L15 31L16 31L16 32L17 32L17 31L16 31L16 29L17 29L17 28L15 28L15 27L17 27L17 25L15 25L15 26L14 26L14 25L12 25L12 24L13 24L13 23L12 23L12 22L13 22L13 21L12 21L12 20L11 20L11 19L12 19L12 18L13 18L13 17L14 17L14 18L15 18L15 19L13 19L13 20L14 20L14 21L15 21L15 22L14 22L14 24L16 24L16 23L17 23L17 24L18 24L18 25L20 25L20 24L21 24L21 23L19 23L19 24L18 24L18 23L17 23L17 22L16 22L16 21L19 21L19 22L20 22L20 21L21 21L21 20L19 20L19 19L20 19L20 18L21 18L21 19L22 19L22 20L23 20L23 19L25 19L25 16L23 16L23 15L22 15L22 14L25 14L25 13L26 13L26 12L28 12L28 13L29 13L29 14L31 14L31 12L32 12L32 10L31 10L31 11L30 11L30 12L29 12L29 9L27 9L27 10L28 10L28 11L26 11L26 12L24 12L24 9L23 9L23 10L22 10L22 9L20 9L20 8L19 8L19 9L18 9L18 8L17 8L17 7L18 7L18 5L20 5L20 6L19 6L19 7L20 7L20 6L21 6L21 7L22 7L22 6L21 6L21 4L23 4L23 1L22 1L22 2L20 2L20 1ZM19 2L19 4L20 4L20 2ZM12 6L12 7L13 7L13 6ZM16 6L16 7L15 7L15 8L16 8L16 11L15 11L15 9L14 9L14 8L10 8L10 9L13 9L13 10L12 10L12 11L11 11L11 10L9 10L9 9L8 9L8 11L11 11L11 12L13 12L13 13L12 13L12 14L11 14L11 13L10 13L10 14L9 14L9 13L7 13L7 14L8 14L8 15L7 15L7 16L6 16L6 17L7 17L7 16L8 16L8 17L10 17L10 16L11 16L11 15L13 15L13 16L12 16L12 17L11 17L11 18L12 18L12 17L13 17L13 16L14 16L14 17L15 17L15 18L16 18L16 19L15 19L15 20L16 20L16 19L17 19L17 20L18 20L18 19L19 19L19 18L17 18L17 17L22 17L22 19L23 19L23 18L24 18L24 17L22 17L22 15L21 15L21 14L20 14L20 13L19 13L19 12L16 12L16 11L20 11L20 10L18 10L18 9L17 9L17 8L16 8L16 7L17 7L17 6ZM0 8L0 9L2 9L2 8ZM13 10L13 11L14 11L14 10ZM21 11L21 13L23 13L23 11ZM13 13L13 15L14 15L14 16L16 16L16 15L17 15L17 14L18 14L18 16L21 16L21 15L20 15L20 14L19 14L19 13L15 13L15 14L14 14L14 13ZM2 14L2 15L3 15L3 14ZM9 15L9 16L10 16L10 15ZM32 16L32 17L33 17L33 16ZM9 18L9 19L10 19L10 18ZM31 18L31 19L32 19L32 20L33 20L33 18ZM6 19L6 20L7 20L7 19ZM10 20L10 21L11 21L11 20ZM26 22L26 23L27 23L27 22ZM11 23L11 24L10 24L10 27L11 27L11 28L12 28L12 26L11 26L11 24L12 24L12 23ZM22 25L22 26L18 26L18 29L19 29L19 28L20 28L20 29L21 29L21 28L20 28L20 27L22 27L22 29L24 29L24 28L23 28L23 27L24 27L24 25ZM25 25L25 28L28 28L28 25ZM31 25L31 27L32 27L32 26L33 26L33 25ZM22 26L22 27L23 27L23 26ZM26 26L26 27L27 27L27 26ZM13 27L13 28L14 28L14 29L15 29L15 28L14 28L14 27ZM31 29L31 31L33 31L33 29ZM21 30L21 31L22 31L22 32L23 32L23 31L24 31L24 30ZM8 31L8 33L9 33L9 31ZM28 31L28 32L29 32L29 31ZM13 32L13 33L14 33L14 32ZM31 32L31 33L32 33L32 32ZM0 0L0 7L7 7L7 0ZM1 1L1 6L6 6L6 1ZM2 2L2 5L5 5L5 2ZM26 0L26 7L33 7L33 0ZM27 1L27 6L32 6L32 1ZM28 2L28 5L31 5L31 2ZM0 26L0 33L7 33L7 26ZM1 27L1 32L6 32L6 27ZM2 28L2 31L5 31L5 28Z" fill="#000000"/></g></g></svg>
