<?xml version="1.0" encoding="UTF-8"?>
<svg xmlns="http://www.w3.org/2000/svg" version="1.1" width="400" height="400" viewBox="0 0 400 400"><rect x="0" y="0" width="400" height="400" fill="#fefefe"/><g transform="scale(9.756)"><g transform="translate(4,4)"><path fill-rule="evenodd" d="M8 0L8 4L9 4L9 5L8 5L8 7L9 7L9 8L10 8L10 7L11 7L11 5L12 5L12 7L13 7L13 5L14 5L14 7L15 7L15 8L14 8L14 9L13 9L13 8L12 8L12 9L11 9L11 11L10 11L10 13L9 13L9 12L8 12L8 13L7 13L7 12L5 12L5 11L4 11L4 9L5 9L5 10L6 10L6 11L7 11L7 10L6 10L6 9L7 9L7 8L4 8L4 9L3 9L3 11L4 11L4 12L2 12L2 14L1 14L1 13L0 13L0 15L1 15L1 16L2 16L2 15L3 15L3 13L4 13L4 12L5 12L5 13L7 13L7 14L5 14L5 15L7 15L7 16L5 16L5 18L6 18L6 19L5 19L5 20L2 20L2 21L0 21L0 22L4 22L4 23L3 23L3 24L0 24L0 25L5 25L5 24L4 24L4 23L7 23L7 24L6 24L6 25L8 25L8 26L9 26L9 27L8 27L8 29L9 29L9 27L12 27L12 28L13 28L13 27L12 27L12 26L14 26L14 25L15 25L15 28L14 28L14 29L10 29L10 30L9 30L9 31L8 31L8 33L9 33L9 32L10 32L10 33L12 33L12 30L14 30L14 29L15 29L15 31L14 31L14 33L15 33L15 32L16 32L16 31L17 31L17 33L18 33L18 32L19 32L19 33L20 33L20 32L21 32L21 33L22 33L22 32L23 32L23 33L27 33L27 32L26 32L26 31L29 31L29 33L30 33L30 31L32 31L32 30L33 30L33 29L30 29L30 27L31 27L31 28L32 28L32 26L31 26L31 25L32 25L32 24L33 24L33 23L31 23L31 22L32 22L32 21L33 21L33 19L32 19L32 18L31 18L31 17L30 17L30 18L28 18L28 17L29 17L29 16L30 16L30 14L31 14L31 16L32 16L32 17L33 17L33 16L32 16L32 14L31 14L31 13L29 13L29 10L28 10L28 13L27 13L27 12L26 12L26 11L27 11L27 10L26 10L26 11L25 11L25 10L24 10L24 9L25 9L25 8L24 8L24 9L22 9L22 8L23 8L23 6L22 6L22 5L21 5L21 3L22 3L22 2L23 2L23 3L24 3L24 4L23 4L23 5L24 5L24 7L25 7L25 3L24 3L24 2L25 2L25 0L23 0L23 1L22 1L22 0L21 0L21 1L22 1L22 2L21 2L21 3L20 3L20 5L19 5L19 2L20 2L20 1L19 1L19 0L18 0L18 1L19 1L19 2L16 2L16 3L15 3L15 4L14 4L14 3L12 3L12 4L9 4L9 3L11 3L11 2L9 2L9 0ZM10 0L10 1L12 1L12 2L13 2L13 0ZM15 0L15 1L14 1L14 2L15 2L15 1L16 1L16 0ZM23 1L23 2L24 2L24 1ZM17 3L17 4L16 4L16 5L15 5L15 7L16 7L16 8L15 8L15 9L14 9L14 11L13 11L13 10L12 10L12 11L11 11L11 13L10 13L10 15L9 15L9 13L8 13L8 16L7 16L7 17L6 17L6 18L7 18L7 19L6 19L6 20L7 20L7 21L5 21L5 22L7 22L7 21L8 21L8 18L9 18L9 20L11 20L11 18L9 18L9 16L11 16L11 17L12 17L12 16L13 16L13 17L14 17L14 19L13 19L13 18L12 18L12 19L13 19L13 21L14 21L14 22L12 22L12 23L11 23L11 21L9 21L9 22L8 22L8 23L9 23L9 24L8 24L8 25L9 25L9 26L10 26L10 25L12 25L12 24L13 24L13 25L14 25L14 22L15 22L15 21L16 21L16 20L17 20L17 19L18 19L18 21L17 21L17 23L15 23L15 24L16 24L16 25L17 25L17 26L16 26L16 28L15 28L15 29L17 29L17 30L19 30L19 32L20 32L20 31L22 31L22 30L23 30L23 31L25 31L25 30L24 30L24 28L23 28L23 27L24 27L24 26L22 26L22 25L24 25L24 24L23 24L23 20L22 20L22 25L21 25L21 24L20 24L20 23L21 23L21 22L20 22L20 21L21 21L21 19L23 19L23 17L25 17L25 16L26 16L26 15L27 15L27 17L26 17L26 18L27 18L27 17L28 17L28 15L29 15L29 13L28 13L28 15L27 15L27 13L25 13L25 12L22 12L22 13L25 13L25 14L24 14L24 15L25 15L25 16L23 16L23 15L22 15L22 16L23 16L23 17L19 17L19 18L18 18L18 17L17 17L17 19L16 19L16 20L15 20L15 18L16 18L16 17L14 17L14 16L17 16L17 14L16 14L16 15L15 15L15 13L14 13L14 12L15 12L15 9L17 9L17 10L16 10L16 11L18 11L18 12L19 12L19 11L20 11L20 12L21 12L21 11L20 11L20 9L21 9L21 10L22 10L22 9L21 9L21 8L20 8L20 6L19 6L19 5L18 5L18 3ZM9 5L9 7L10 7L10 5ZM16 6L16 7L17 7L17 9L18 9L18 10L19 10L19 9L20 9L20 8L18 8L18 7L19 7L19 6L18 6L18 7L17 7L17 6ZM21 6L21 7L22 7L22 6ZM0 8L0 10L1 10L1 11L0 11L0 12L1 12L1 11L2 11L2 8ZM27 8L27 9L28 9L28 8ZM29 8L29 9L31 9L31 12L32 12L32 13L33 13L33 12L32 12L32 9L33 9L33 8ZM8 9L8 10L10 10L10 9ZM12 11L12 12L13 12L13 11ZM16 12L16 13L17 13L17 12ZM11 13L11 15L12 15L12 13ZM13 13L13 14L14 14L14 13ZM19 13L19 15L18 15L18 16L19 16L19 15L20 15L20 16L21 16L21 15L20 15L20 14L21 14L21 13ZM25 14L25 15L26 15L26 14ZM1 17L1 18L0 18L0 19L1 19L1 18L2 18L2 17ZM3 17L3 18L4 18L4 17ZM7 17L7 18L8 18L8 17ZM26 19L26 20L25 20L25 21L26 21L26 22L25 22L25 23L27 23L27 24L28 24L28 22L31 22L31 20L32 20L32 19L30 19L30 21L26 21L26 20L27 20L27 19ZM14 20L14 21L15 21L15 20ZM9 22L9 23L10 23L10 24L11 24L11 23L10 23L10 22ZM17 23L17 25L18 25L18 24L19 24L19 25L20 25L20 26L21 26L21 27L19 27L19 26L17 26L17 29L18 29L18 27L19 27L19 29L23 29L23 28L22 28L22 26L21 26L21 25L20 25L20 24L19 24L19 23ZM30 23L30 24L29 24L29 26L30 26L30 25L31 25L31 23ZM25 25L25 28L28 28L28 25ZM26 26L26 27L27 27L27 26ZM10 31L10 32L11 32L11 31ZM32 32L32 33L33 33L33 32ZM0 0L0 7L7 7L7 0ZM1 1L1 6L6 6L6 1ZM2 2L2 5L5 5L5 2ZM26 0L26 7L33 7L33 0ZM27 1L27 6L32 6L32 1ZM28 2L28 5L31 5L31 2ZM0 26L0 33L7 33L7 26ZM1 27L1 32L6 32L6 27ZM2 28L2 31L5 31L5 28Z" fill="#000000"/></g></g></svg>
