<?xml version="1.0" encoding="UTF-8"?>
<svg xmlns="http://www.w3.org/2000/svg" version="1.1" width="400" height="400" viewBox="0 0 400 400"><rect x="0" y="0" width="400" height="400" fill="#fefefe"/><g transform="scale(9.756)"><g transform="translate(4,4)"><path fill-rule="evenodd" d="M8 0L8 4L9 4L9 5L8 5L8 7L9 7L9 8L10 8L10 7L11 7L11 5L12 5L12 7L13 7L13 5L14 5L14 7L15 7L15 8L14 8L14 9L13 9L13 8L12 8L12 9L11 9L11 11L10 11L10 13L7 13L7 12L8 12L8 10L10 10L10 9L7 9L7 8L4 8L4 10L3 10L3 9L2 9L2 8L0 8L0 9L2 9L2 10L0 10L0 11L4 11L4 15L3 15L3 13L2 13L2 14L0 14L0 16L1 16L1 15L2 15L2 17L0 17L0 20L2 20L2 21L3 21L3 22L4 22L4 23L2 23L2 24L0 24L0 25L2 25L2 24L4 24L4 25L7 25L7 24L4 24L4 23L8 23L8 22L9 22L9 21L11 21L11 22L10 22L10 23L9 23L9 24L8 24L8 26L9 26L9 27L8 27L8 29L10 29L10 30L9 30L9 31L8 31L8 33L9 33L9 32L10 32L10 31L11 31L11 32L12 32L12 31L13 31L13 30L14 30L14 29L15 29L15 31L14 31L14 33L15 33L15 32L16 32L16 31L17 31L17 33L18 33L18 32L19 32L19 30L17 30L17 29L18 29L18 27L19 27L19 29L23 29L23 31L21 31L21 33L22 33L22 32L23 32L23 33L26 33L26 32L25 32L25 31L24 31L24 29L26 29L26 31L27 31L27 33L28 33L28 32L29 32L29 33L30 33L30 31L32 31L32 30L33 30L33 29L30 29L30 27L31 27L31 28L32 28L32 26L31 26L31 25L32 25L32 24L33 24L33 23L31 23L31 22L32 22L32 21L33 21L33 19L32 19L32 18L31 18L31 17L30 17L30 18L29 18L29 19L27 19L27 18L28 18L28 17L29 17L29 16L30 16L30 14L31 14L31 16L32 16L32 17L33 17L33 16L32 16L32 14L31 14L31 13L29 13L29 11L28 11L28 12L27 12L27 11L26 11L26 10L24 10L24 9L25 9L25 8L24 8L24 9L23 9L23 6L22 6L22 5L21 5L21 6L20 6L20 5L19 5L19 3L20 3L20 2L21 2L21 3L22 3L22 2L23 2L23 5L24 5L24 7L25 7L25 2L23 2L23 1L25 1L25 0L23 0L23 1L22 1L22 0L20 0L20 1L18 1L18 0L17 0L17 1L18 1L18 2L16 2L16 3L15 3L15 4L14 4L14 3L12 3L12 4L9 4L9 3L11 3L11 2L9 2L9 0ZM10 0L10 1L12 1L12 2L13 2L13 0ZM15 0L15 1L14 1L14 2L15 2L15 1L16 1L16 0ZM21 1L21 2L22 2L22 1ZM17 3L17 4L16 4L16 5L15 5L15 7L16 7L16 8L15 8L15 9L14 9L14 11L13 11L13 10L12 10L12 11L11 11L11 13L10 13L10 16L9 16L9 14L7 14L7 13L6 13L6 12L7 12L7 11L6 11L6 10L7 10L7 9L6 9L6 10L4 10L4 11L6 11L6 12L5 12L5 14L7 14L7 15L4 15L4 18L3 18L3 17L2 17L2 18L1 18L1 19L2 19L2 20L4 20L4 19L5 19L5 20L7 20L7 21L4 21L4 22L7 22L7 21L9 21L9 19L6 19L6 18L7 18L7 17L8 17L8 16L9 16L9 17L10 17L10 18L11 18L11 17L12 17L12 16L13 16L13 17L14 17L14 19L13 19L13 18L12 18L12 19L13 19L13 21L14 21L14 22L15 22L15 21L16 21L16 20L17 20L17 19L18 19L18 21L17 21L17 23L13 23L13 22L12 22L12 23L11 23L11 25L12 25L12 24L13 24L13 25L14 25L14 26L13 26L13 28L12 28L12 27L11 27L11 26L10 26L10 29L14 29L14 28L15 28L15 29L17 29L17 26L19 26L19 27L21 27L21 26L22 26L22 25L24 25L24 24L26 24L26 23L27 23L27 24L28 24L28 23L29 23L29 22L31 22L31 20L32 20L32 19L30 19L30 21L28 21L28 20L27 20L27 19L26 19L26 20L27 20L27 21L25 21L25 22L24 22L24 24L23 24L23 20L22 20L22 25L19 25L19 24L20 24L20 21L21 21L21 20L20 20L20 17L21 17L21 19L22 19L22 17L25 17L25 16L22 16L22 17L21 17L21 15L20 15L20 14L22 14L22 15L23 15L23 14L22 14L22 13L25 13L25 14L24 14L24 15L26 15L26 16L27 16L27 17L26 17L26 18L27 18L27 17L28 17L28 14L29 14L29 13L25 13L25 11L22 11L22 10L23 10L23 9L21 9L21 8L20 8L20 6L19 6L19 7L18 7L18 6L17 6L17 5L18 5L18 3ZM9 5L9 7L10 7L10 5ZM16 6L16 7L17 7L17 9L15 9L15 12L14 12L14 13L13 13L13 14L14 14L14 13L15 13L15 15L16 15L16 14L17 14L17 16L14 16L14 17L16 17L16 18L15 18L15 20L14 20L14 21L15 21L15 20L16 20L16 19L17 19L17 17L18 17L18 18L19 18L19 16L18 16L18 15L19 15L19 13L22 13L22 11L21 11L21 9L20 9L20 8L18 8L18 7L17 7L17 6ZM21 6L21 7L22 7L22 6ZM27 8L27 9L28 9L28 8ZM29 8L29 9L31 9L31 12L32 12L32 13L33 13L33 12L32 12L32 9L33 9L33 8ZM17 9L17 10L16 10L16 11L18 11L18 12L20 12L20 9L19 9L19 10L18 10L18 9ZM12 11L12 12L13 12L13 11ZM0 12L0 13L1 13L1 12ZM16 12L16 13L17 13L17 12ZM11 13L11 15L12 15L12 13ZM26 14L26 15L27 15L27 14ZM7 15L7 16L6 16L6 17L7 17L7 16L8 16L8 15ZM10 19L10 20L11 20L11 19ZM19 20L19 21L20 21L20 20ZM0 21L0 22L1 22L1 21ZM27 21L27 23L28 23L28 21ZM25 22L25 23L26 23L26 22ZM17 23L17 25L16 25L16 24L14 24L14 25L15 25L15 28L16 28L16 26L17 26L17 25L18 25L18 24L19 24L19 23ZM30 23L30 24L29 24L29 26L30 26L30 25L31 25L31 23ZM25 25L25 28L28 28L28 25ZM23 26L23 27L22 27L22 28L23 28L23 29L24 29L24 28L23 28L23 27L24 27L24 26ZM26 26L26 27L27 27L27 26ZM27 29L27 31L28 31L28 29ZM32 32L32 33L33 33L33 32ZM0 0L0 7L7 7L7 0ZM1 1L1 6L6 6L6 1ZM2 2L2 5L5 5L5 2ZM26 0L26 7L33 7L33 0ZM27 1L27 6L32 6L32 1ZM28 2L28 5L31 5L31 2ZM0 26L0 33L7 33L7 26ZM1 27L1 32L6 32L6 27ZM2 28L2 31L5 31L5 28Z" fill="#000000"/></g></g></svg>
