<?xml version="1.0" encoding="UTF-8"?>
<svg xmlns="http://www.w3.org/2000/svg" version="1.1" width="400" height="400" viewBox="0 0 400 400"><rect x="0" y="0" width="400" height="400" fill="#fefefe"/><g transform="scale(9.756)"><g transform="translate(4,4)"><path fill-rule="evenodd" d="M10 0L10 2L11 2L11 0ZM12 0L12 1L13 1L13 2L12 2L12 4L14 4L14 3L13 3L13 2L14 2L14 1L15 1L15 2L16 2L16 1L15 1L15 0ZM19 0L19 1L18 1L18 3L17 3L17 4L18 4L18 5L20 5L20 7L21 7L21 8L17 8L17 6L16 6L16 5L15 5L15 6L14 6L14 5L11 5L11 6L10 6L10 4L11 4L11 3L8 3L8 4L9 4L9 5L8 5L8 7L9 7L9 8L6 8L6 9L8 9L8 10L6 10L6 11L5 11L5 8L0 8L0 9L2 9L2 10L1 10L1 11L0 11L0 15L1 15L1 16L2 16L2 15L1 15L1 14L2 14L2 12L3 12L3 13L4 13L4 11L5 11L5 13L7 13L7 12L8 12L8 14L6 14L6 15L8 15L8 14L9 14L9 15L10 15L10 17L9 17L9 16L8 16L8 17L7 17L7 16L6 16L6 17L7 17L7 18L6 18L6 19L5 19L5 15L4 15L4 14L3 14L3 18L4 18L4 20L3 20L3 21L4 21L4 22L6 22L6 23L2 23L2 24L5 24L5 25L7 25L7 24L10 24L10 26L9 26L9 25L8 25L8 27L9 27L9 28L8 28L8 33L10 33L10 31L11 31L11 32L13 32L13 33L14 33L14 32L13 32L13 31L11 31L11 30L13 30L13 29L14 29L14 30L15 30L15 33L16 33L16 32L17 32L17 33L18 33L18 32L17 32L17 31L16 31L16 30L17 30L17 29L18 29L18 28L19 28L19 27L18 27L18 28L17 28L17 25L18 25L18 24L17 24L17 23L19 23L19 22L20 22L20 21L21 21L21 20L23 20L23 22L21 22L21 23L20 23L20 25L19 25L19 26L20 26L20 27L21 27L21 28L22 28L22 29L19 29L19 30L20 30L20 31L21 31L21 32L20 32L20 33L21 33L21 32L22 32L22 31L25 31L25 30L26 30L26 31L27 31L27 32L26 32L26 33L27 33L27 32L29 32L29 33L30 33L30 32L31 32L31 33L32 33L32 32L31 32L31 31L32 31L32 30L31 30L31 29L32 29L32 28L33 28L33 27L32 27L32 26L33 26L33 23L30 23L30 24L32 24L32 25L30 25L30 26L31 26L31 27L30 27L30 28L29 28L29 24L28 24L28 21L30 21L30 20L31 20L31 19L32 19L32 20L33 20L33 19L32 19L32 18L33 18L33 17L32 17L32 14L33 14L33 13L32 13L32 10L33 10L33 9L32 9L32 8L31 8L31 9L32 9L32 10L28 10L28 8L27 8L27 9L26 9L26 8L25 8L25 5L24 5L24 4L25 4L25 2L23 2L23 1L25 1L25 0L23 0L23 1L21 1L21 3L20 3L20 4L18 4L18 3L19 3L19 1L20 1L20 0ZM8 1L8 2L9 2L9 1ZM15 3L15 4L16 4L16 3ZM21 3L21 4L20 4L20 5L22 5L22 6L21 6L21 7L22 7L22 6L23 6L23 8L24 8L24 9L25 9L25 8L24 8L24 5L22 5L22 4L24 4L24 3ZM9 6L9 7L10 7L10 6ZM11 6L11 7L12 7L12 9L11 9L11 8L10 8L10 9L9 9L9 10L8 10L8 12L11 12L11 13L10 13L10 14L13 14L13 15L12 15L12 16L14 16L14 17L13 17L13 18L12 18L12 17L11 17L11 18L9 18L9 17L8 17L8 19L6 19L6 20L12 20L12 22L11 22L11 23L12 23L12 22L13 22L13 24L14 24L14 25L13 25L13 27L12 27L12 26L10 26L10 29L9 29L9 31L10 31L10 30L11 30L11 29L13 29L13 28L14 28L14 29L15 29L15 30L16 30L16 29L17 29L17 28L16 28L16 29L15 29L15 26L16 26L16 25L17 25L17 24L16 24L16 23L17 23L17 22L19 22L19 20L21 20L21 19L22 19L22 18L21 18L21 19L20 19L20 18L19 18L19 20L18 20L18 19L17 19L17 18L18 18L18 17L17 17L17 18L16 18L16 19L17 19L17 20L18 20L18 21L17 21L17 22L16 22L16 21L15 21L15 18L14 18L14 17L16 17L16 15L15 15L15 14L16 14L16 13L17 13L17 12L18 12L18 11L16 11L16 12L15 12L15 10L16 10L16 9L17 9L17 10L18 10L18 9L17 9L17 8L16 8L16 9L15 9L15 7L16 7L16 6L15 6L15 7L14 7L14 6L13 6L13 7L12 7L12 6ZM18 6L18 7L19 7L19 6ZM13 8L13 9L12 9L12 10L13 10L13 11L12 11L12 13L14 13L14 14L15 14L15 13L14 13L14 12L13 12L13 11L14 11L14 10L15 10L15 9L14 9L14 8ZM21 8L21 9L20 9L20 10L19 10L19 13L22 13L22 14L23 14L23 15L22 15L22 16L19 16L19 17L25 17L25 18L23 18L23 20L25 20L25 18L26 18L26 17L28 17L28 18L29 18L29 19L26 19L26 21L25 21L25 23L27 23L27 22L26 22L26 21L28 21L28 20L30 20L30 19L31 19L31 18L30 18L30 17L31 17L31 16L30 16L30 14L29 14L29 13L31 13L31 12L29 12L29 11L28 11L28 10L23 10L23 9L22 9L22 8ZM29 8L29 9L30 9L30 8ZM3 9L3 10L4 10L4 9ZM10 9L10 11L11 11L11 9ZM13 9L13 10L14 10L14 9ZM21 9L21 10L20 10L20 12L22 12L22 13L23 13L23 14L24 14L24 15L25 15L25 13L26 13L26 14L27 14L27 15L26 15L26 16L27 16L27 15L29 15L29 14L28 14L28 13L29 13L29 12L28 12L28 13L26 13L26 12L27 12L27 11L25 11L25 13L23 13L23 12L22 12L22 11L21 11L21 10L22 10L22 9ZM1 11L1 12L2 12L2 11ZM6 11L6 12L7 12L7 11ZM17 14L17 16L18 16L18 15L21 15L21 14ZM28 16L28 17L29 17L29 16ZM1 18L1 19L2 19L2 18ZM13 18L13 19L14 19L14 18ZM1 20L1 21L0 21L0 25L1 25L1 22L2 22L2 20ZM13 20L13 21L14 21L14 24L15 24L15 23L16 23L16 22L15 22L15 21L14 21L14 20ZM6 21L6 22L10 22L10 21ZM32 21L32 22L33 22L33 21ZM23 22L23 24L21 24L21 25L20 25L20 26L21 26L21 27L22 27L22 28L23 28L23 29L22 29L22 30L21 30L21 31L22 31L22 30L25 30L25 29L24 29L24 27L22 27L22 26L21 26L21 25L24 25L24 22ZM6 23L6 24L7 24L7 23ZM11 24L11 25L12 25L12 24ZM14 25L14 26L15 26L15 25ZM25 25L25 28L28 28L28 25ZM26 26L26 27L27 27L27 26ZM30 28L30 29L31 29L31 28ZM26 29L26 30L28 30L28 31L29 31L29 32L30 32L30 31L31 31L31 30L28 30L28 29ZM23 32L23 33L25 33L25 32ZM0 0L0 7L7 7L7 0ZM1 1L1 6L6 6L6 1ZM2 2L2 5L5 5L5 2ZM26 0L26 7L33 7L33 0ZM27 1L27 6L32 6L32 1ZM28 2L28 5L31 5L31 2ZM0 26L0 33L7 33L7 26ZM1 27L1 32L6 32L6 27ZM2 28L2 31L5 31L5 28Z" fill="#000000"/></g></g></svg>
