<?xml version="1.0" encoding="UTF-8"?>
<svg xmlns="http://www.w3.org/2000/svg" version="1.1" width="400" height="400" viewBox="0 0 400 400"><rect x="0" y="0" width="400" height="400" fill="#fefefe"/><g transform="scale(9.756)"><g transform="translate(4,4)"><path fill-rule="evenodd" d="M8 0L8 1L9 1L9 2L8 2L8 5L9 5L9 4L11 4L11 5L10 5L10 10L9 10L9 8L8 8L8 9L7 9L7 8L6 8L6 9L7 9L7 10L5 10L5 9L4 9L4 8L0 8L0 12L2 12L2 13L0 13L0 17L1 17L1 18L0 18L0 19L1 19L1 20L0 20L0 22L2 22L2 23L1 23L1 24L0 24L0 25L1 25L1 24L2 24L2 25L4 25L4 23L3 23L3 22L2 22L2 21L1 21L1 20L3 20L3 21L4 21L4 20L6 20L6 21L10 21L10 23L9 23L9 22L5 22L5 24L6 24L6 25L7 25L7 24L8 24L8 23L9 23L9 25L8 25L8 26L10 26L10 28L9 28L9 29L8 29L8 33L9 33L9 30L12 30L12 31L13 31L13 30L15 30L15 31L14 31L14 32L15 32L15 31L16 31L16 33L24 33L24 32L25 32L25 33L27 33L27 31L28 31L28 29L29 29L29 30L30 30L30 29L31 29L31 31L32 31L32 32L33 32L33 31L32 31L32 29L33 29L33 27L31 27L31 26L32 26L32 25L33 25L33 21L32 21L32 20L30 20L30 19L29 19L29 17L32 17L32 18L31 18L31 19L32 19L32 18L33 18L33 16L32 16L32 15L30 15L30 16L28 16L28 17L27 17L27 16L26 16L26 13L25 13L25 16L23 16L23 18L24 18L24 17L25 17L25 19L22 19L22 18L21 18L21 17L22 17L22 15L23 15L23 14L21 14L21 12L20 12L20 11L21 11L21 10L22 10L22 11L23 11L23 12L22 12L22 13L23 13L23 12L27 12L27 15L29 15L29 14L28 14L28 13L29 13L29 12L30 12L30 11L29 11L29 10L27 10L27 9L26 9L26 8L25 8L25 9L26 9L26 10L24 10L24 9L23 9L23 8L24 8L24 7L25 7L25 5L24 5L24 7L23 7L23 4L21 4L21 3L20 3L20 4L19 4L19 6L18 6L18 3L19 3L19 2L18 2L18 0L17 0L17 2L15 2L15 0L12 0L12 1L11 1L11 0L10 0L10 1L9 1L9 0ZM19 0L19 1L20 1L20 0ZM23 0L23 1L22 1L22 2L23 2L23 3L25 3L25 2L24 2L24 1L25 1L25 0ZM11 2L11 4L12 4L12 3L13 3L13 2ZM14 2L14 4L13 4L13 5L12 5L12 6L11 6L11 8L12 8L12 6L13 6L13 10L14 10L14 9L15 9L15 11L14 11L14 13L13 13L13 14L12 14L12 16L11 16L11 15L10 15L10 14L11 14L11 13L12 13L12 12L13 12L13 11L11 11L11 13L10 13L10 14L9 14L9 13L8 13L8 12L9 12L9 11L8 11L8 12L7 12L7 11L6 11L6 12L5 12L5 10L4 10L4 9L1 9L1 11L4 11L4 12L3 12L3 14L4 14L4 15L5 15L5 14L4 14L4 13L6 13L6 14L7 14L7 13L8 13L8 14L9 14L9 15L8 15L8 16L7 16L7 15L6 15L6 16L7 16L7 17L5 17L5 16L4 16L4 17L3 17L3 15L1 15L1 16L2 16L2 19L3 19L3 20L4 20L4 19L5 19L5 18L7 18L7 17L8 17L8 19L9 19L9 20L10 20L10 21L11 21L11 19L13 19L13 21L12 21L12 24L10 24L10 25L11 25L11 27L12 27L12 28L15 28L15 29L16 29L16 31L19 31L19 32L22 32L22 31L20 31L20 30L23 30L23 31L24 31L24 29L23 29L23 28L24 28L24 27L23 27L23 26L24 26L24 24L23 24L23 23L22 23L22 22L23 22L23 21L20 21L20 19L21 19L21 20L22 20L22 19L21 19L21 18L20 18L20 16L18 16L18 14L19 14L19 13L20 13L20 12L19 12L19 11L20 11L20 10L21 10L21 9L20 9L20 10L18 10L18 9L19 9L19 7L20 7L20 8L22 8L22 5L20 5L20 6L19 6L19 7L18 7L18 6L17 6L17 7L18 7L18 9L17 9L17 12L16 12L16 5L17 5L17 3L18 3L18 2L17 2L17 3L16 3L16 5L14 5L14 4L15 4L15 2ZM8 6L8 7L9 7L9 6ZM14 6L14 8L15 8L15 6ZM20 6L20 7L21 7L21 6ZM28 8L28 9L31 9L31 8ZM32 8L32 10L31 10L31 11L33 11L33 8ZM11 9L11 10L12 10L12 9ZM27 11L27 12L28 12L28 11ZM6 12L6 13L7 13L7 12ZM17 12L17 13L15 13L15 14L17 14L17 13L19 13L19 12ZM31 12L31 14L32 14L32 12ZM13 14L13 15L14 15L14 14ZM20 14L20 15L21 15L21 14ZM9 15L9 16L8 16L8 17L9 17L9 18L10 18L10 19L11 19L11 18L10 18L10 17L11 17L11 16L10 16L10 15ZM16 15L16 16L13 16L13 19L14 19L14 20L15 20L15 19L16 19L16 20L17 20L17 21L16 21L16 22L17 22L17 21L19 21L19 22L20 22L20 23L21 23L21 22L20 22L20 21L19 21L19 20L18 20L18 19L19 19L19 18L17 18L17 19L16 19L16 18L15 18L15 17L17 17L17 15ZM9 16L9 17L10 17L10 16ZM25 16L25 17L26 17L26 16ZM4 17L4 18L3 18L3 19L4 19L4 18L5 18L5 17ZM14 18L14 19L15 19L15 18ZM27 18L27 19L28 19L28 22L27 22L27 23L25 23L25 24L27 24L27 23L28 23L28 22L31 22L31 23L29 23L29 25L30 25L30 26L29 26L29 29L30 29L30 26L31 26L31 25L32 25L32 21L29 21L29 19L28 19L28 18ZM6 19L6 20L7 20L7 19ZM24 20L24 21L25 21L25 20ZM26 20L26 21L27 21L27 20ZM14 21L14 22L15 22L15 21ZM6 23L6 24L7 24L7 23ZM13 23L13 24L12 24L12 25L14 25L14 24L16 24L16 23ZM18 23L18 24L17 24L17 25L15 25L15 26L18 26L18 30L19 30L19 28L21 28L21 29L22 29L22 26L21 26L21 24L20 24L20 25L18 25L18 24L19 24L19 23ZM22 24L22 25L23 25L23 24ZM25 25L25 28L28 28L28 25ZM12 26L12 27L14 27L14 26ZM26 26L26 27L27 27L27 26ZM15 27L15 28L17 28L17 27ZM10 28L10 29L11 29L11 28ZM12 29L12 30L13 30L13 29ZM25 29L25 31L26 31L26 30L27 30L27 29ZM10 31L10 32L11 32L11 31ZM29 31L29 33L31 33L31 32L30 32L30 31ZM12 32L12 33L13 33L13 32ZM0 0L0 7L7 7L7 0ZM1 1L1 6L6 6L6 1ZM2 2L2 5L5 5L5 2ZM26 0L26 7L33 7L33 0ZM27 1L27 6L32 6L32 1ZM28 2L28 5L31 5L31 2ZM0 26L0 33L7 33L7 26ZM1 27L1 32L6 32L6 27ZM2 28L2 31L5 31L5 28Z" fill="#000000"/></g></g></svg>
