<?xml version="1.0" encoding="UTF-8"?>
<svg xmlns="http://www.w3.org/2000/svg" version="1.1" width="400" height="400" viewBox="0 0 400 400"><rect x="0" y="0" width="400" height="400" fill="#fefefe"/><g transform="scale(9.756)"><g transform="translate(4,4)"><path fill-rule="evenodd" d="M9 0L9 1L8 1L8 3L9 3L9 4L8 4L8 8L6 8L6 9L8 9L8 8L10 8L10 10L9 10L9 11L11 11L11 10L12 10L12 9L11 9L11 8L10 8L10 7L11 7L11 6L12 6L12 8L13 8L13 10L14 10L14 11L13 11L13 12L12 12L12 13L10 13L10 14L9 14L9 15L8 15L8 14L6 14L6 13L9 13L9 12L8 12L8 11L7 11L7 10L3 10L3 9L4 9L4 8L3 8L3 9L2 9L2 8L0 8L0 9L2 9L2 12L1 12L1 10L0 10L0 13L3 13L3 14L5 14L5 15L1 15L1 14L0 14L0 15L1 15L1 16L2 16L2 17L3 17L3 20L2 20L2 18L0 18L0 19L1 19L1 21L3 21L3 20L4 20L4 22L5 22L5 23L7 23L7 22L5 22L5 20L4 20L4 17L7 17L7 16L5 16L5 15L8 15L8 18L6 18L6 19L9 19L9 20L6 20L6 21L9 21L9 20L10 20L10 19L11 19L11 20L13 20L13 21L12 21L12 23L10 23L10 25L11 25L11 24L12 24L12 25L14 25L14 26L15 26L15 25L17 25L17 27L15 27L15 28L14 28L14 27L12 27L12 26L10 26L10 28L9 28L9 29L8 29L8 30L10 30L10 29L11 29L11 30L12 30L12 31L11 31L11 33L12 33L12 31L13 31L13 30L14 30L14 31L15 31L15 32L16 32L16 33L17 33L17 32L19 32L19 31L17 31L17 29L18 29L18 30L19 30L19 29L20 29L20 30L21 30L21 33L22 33L22 32L23 32L23 33L27 33L27 32L26 32L26 30L27 30L27 31L28 31L28 32L30 32L30 31L29 31L29 30L30 30L30 25L29 25L29 24L24 24L24 23L25 23L25 22L24 22L24 23L23 23L23 22L22 22L22 23L21 23L21 22L19 22L19 21L16 21L16 22L17 22L17 23L16 23L16 24L14 24L14 22L15 22L15 21L14 21L14 20L13 20L13 19L15 19L15 20L16 20L16 19L17 19L17 20L18 20L18 19L19 19L19 20L20 20L20 21L23 21L23 20L24 20L24 21L25 21L25 20L26 20L26 17L27 17L27 20L30 20L30 19L29 19L29 18L28 18L28 17L29 17L29 16L30 16L30 15L32 15L32 14L33 14L33 9L32 9L32 8L30 8L30 9L29 9L29 8L26 8L26 9L25 9L25 10L24 10L24 11L25 11L25 10L26 10L26 12L25 12L25 13L26 13L26 14L22 14L22 13L23 13L23 12L22 12L22 8L23 8L23 9L24 9L24 8L25 8L25 2L24 2L24 1L25 1L25 0L19 0L19 1L17 1L17 0L15 0L15 4L13 4L13 5L14 5L14 7L15 7L15 8L16 8L16 11L15 11L15 9L14 9L14 8L13 8L13 6L12 6L12 5L11 5L11 6L10 6L10 5L9 5L9 4L12 4L12 3L13 3L13 2L14 2L14 0L12 0L12 1L11 1L11 2L9 2L9 1L10 1L10 0ZM19 1L19 2L18 2L18 3L16 3L16 6L15 6L15 7L16 7L16 8L17 8L17 9L18 9L18 10L20 10L20 12L19 12L19 11L16 11L16 12L19 12L19 13L15 13L15 14L14 14L14 13L13 13L13 15L14 15L14 16L13 16L13 17L11 17L11 19L13 19L13 17L14 17L14 18L15 18L15 19L16 19L16 18L15 18L15 17L14 17L14 16L16 16L16 15L17 15L17 14L18 14L18 16L20 16L20 17L17 17L17 18L19 18L19 19L20 19L20 17L21 17L21 19L22 19L22 20L23 20L23 19L25 19L25 16L22 16L22 17L21 17L21 16L20 16L20 14L21 14L21 15L22 15L22 14L21 14L21 10L20 10L20 9L21 9L21 7L22 7L22 6L23 6L23 7L24 7L24 5L23 5L23 4L24 4L24 3L23 3L23 1L22 1L22 2L20 2L20 1ZM20 3L20 5L19 5L19 6L18 6L18 7L17 7L17 6L16 6L16 7L17 7L17 8L18 8L18 9L19 9L19 8L20 8L20 7L21 7L21 3ZM22 3L22 4L23 4L23 3ZM17 4L17 5L18 5L18 4ZM9 6L9 7L10 7L10 6ZM19 6L19 7L18 7L18 8L19 8L19 7L20 7L20 6ZM27 9L27 10L28 10L28 11L27 11L27 12L28 12L28 13L29 13L29 14L31 14L31 12L32 12L32 10L31 10L31 11L30 11L30 12L29 12L29 9ZM5 11L5 13L6 13L6 12L7 12L7 11ZM3 12L3 13L4 13L4 12ZM19 13L19 14L20 14L20 13ZM10 14L10 15L9 15L9 17L10 17L10 15L11 15L11 16L12 16L12 14ZM26 14L26 16L29 16L29 15L28 15L28 14ZM3 16L3 17L4 17L4 16ZM32 16L32 17L33 17L33 16ZM22 17L22 19L23 19L23 18L24 18L24 17ZM31 18L31 19L32 19L32 20L33 20L33 18ZM10 21L10 22L11 22L11 21ZM26 21L26 23L27 23L27 21ZM29 21L29 22L28 22L28 23L29 23L29 22L31 22L31 23L33 23L33 21ZM0 22L0 23L1 23L1 24L0 24L0 25L1 25L1 24L2 24L2 25L3 25L3 24L4 24L4 23L2 23L2 22ZM12 23L12 24L13 24L13 23ZM17 23L17 24L18 24L18 25L20 25L20 24L21 24L21 23L19 23L19 24L18 24L18 23ZM5 24L5 25L7 25L7 24ZM8 24L8 27L9 27L9 24ZM22 24L22 25L23 25L23 27L24 27L24 24ZM25 25L25 28L28 28L28 25ZM31 25L31 27L32 27L32 29L31 29L31 31L33 31L33 27L32 27L32 26L33 26L33 25ZM18 26L18 29L19 29L19 28L20 28L20 29L21 29L21 27L22 27L22 26L21 26L21 27L20 27L20 26ZM26 26L26 27L27 27L27 26ZM11 27L11 29L12 29L12 30L13 30L13 29L14 29L14 30L15 30L15 31L16 31L16 32L17 32L17 31L16 31L16 29L17 29L17 28L15 28L15 29L14 29L14 28L12 28L12 27ZM23 28L23 29L22 29L22 31L23 31L23 32L24 32L24 30L23 30L23 29L24 29L24 28ZM8 31L8 33L9 33L9 31ZM13 32L13 33L14 33L14 32ZM31 32L31 33L32 33L32 32ZM0 0L0 7L7 7L7 0ZM1 1L1 6L6 6L6 1ZM2 2L2 5L5 5L5 2ZM26 0L26 7L33 7L33 0ZM27 1L27 6L32 6L32 1ZM28 2L28 5L31 5L31 2ZM0 26L0 33L7 33L7 26ZM1 27L1 32L6 32L6 27ZM2 28L2 31L5 31L5 28Z" fill="#000000"/></g></g></svg>
