<?xml version="1.0" encoding="UTF-8"?>
<svg xmlns="http://www.w3.org/2000/svg" version="1.1" width="400" height="400" viewBox="0 0 400 400"><rect x="0" y="0" width="400" height="400" fill="#fefefe"/><g transform="scale(9.756)"><g transform="translate(4,4)"><path fill-rule="evenodd" d="M8 0L8 1L9 1L9 2L10 2L10 3L11 3L11 1L13 1L13 0L11 0L11 1L9 1L9 0ZM16 0L16 1L17 1L17 2L16 2L16 4L17 4L17 5L16 5L16 8L15 8L15 6L14 6L14 5L15 5L15 3L14 3L14 2L15 2L15 1L14 1L14 2L12 2L12 4L11 4L11 5L10 5L10 4L9 4L9 5L10 5L10 8L9 8L9 6L8 6L8 8L9 8L9 10L10 10L10 11L9 11L9 12L8 12L8 9L7 9L7 8L6 8L6 9L7 9L7 10L6 10L6 11L5 11L5 8L3 8L3 10L4 10L4 11L5 11L5 12L4 12L4 13L3 13L3 11L2 11L2 13L0 13L0 14L1 14L1 16L2 16L2 17L1 17L1 18L0 18L0 25L3 25L3 24L4 24L4 25L5 25L5 24L4 24L4 23L5 23L5 22L4 22L4 23L3 23L3 22L2 22L2 21L5 21L5 20L3 20L3 19L5 19L5 18L6 18L6 19L7 19L7 20L6 20L6 21L7 21L7 22L6 22L6 23L7 23L7 24L6 24L6 25L7 25L7 24L8 24L8 26L9 26L9 27L10 27L10 28L8 28L8 30L9 30L9 31L8 31L8 33L10 33L10 32L9 32L9 31L10 31L10 30L11 30L11 32L14 32L14 31L16 31L16 32L15 32L15 33L18 33L18 32L17 32L17 31L18 31L18 29L17 29L17 30L16 30L16 28L15 28L15 27L16 27L16 26L17 26L17 24L18 24L18 23L19 23L19 22L21 22L21 23L23 23L23 24L22 24L22 26L21 26L21 27L20 27L20 26L19 26L19 27L18 27L18 28L20 28L20 29L19 29L19 31L22 31L22 33L26 33L26 32L27 32L27 33L29 33L29 32L33 32L33 30L32 30L32 31L30 31L30 30L31 30L31 29L33 29L33 28L32 28L32 27L30 27L30 28L31 28L31 29L30 29L30 30L28 30L28 29L29 29L29 25L30 25L30 26L31 26L31 25L32 25L32 24L33 24L33 22L32 22L32 23L30 23L30 22L29 22L29 21L30 21L30 20L31 20L31 21L32 21L32 19L33 19L33 15L31 15L31 13L30 13L30 12L32 12L32 13L33 13L33 12L32 12L32 11L33 11L33 10L30 10L30 12L29 12L29 11L28 11L28 10L29 10L29 9L28 9L28 10L27 10L27 12L26 12L26 11L25 11L25 10L26 10L26 9L27 9L27 8L26 8L26 9L25 9L25 6L24 6L24 5L23 5L23 3L24 3L24 4L25 4L25 2L23 2L23 0L22 0L22 2L21 2L21 3L20 3L20 1L19 1L19 0ZM24 0L24 1L25 1L25 0ZM18 1L18 2L17 2L17 3L18 3L18 2L19 2L19 1ZM22 2L22 3L23 3L23 2ZM19 3L19 4L18 4L18 5L19 5L19 8L20 8L20 10L19 10L19 14L16 14L16 16L15 16L15 18L17 18L17 20L16 20L16 19L15 19L15 20L13 20L13 19L14 19L14 17L13 17L13 18L12 18L12 19L11 19L11 18L10 18L10 23L9 23L9 22L7 22L7 23L8 23L8 24L10 24L10 25L9 25L9 26L10 26L10 27L12 27L12 29L11 29L11 28L10 28L10 29L11 29L11 30L12 30L12 29L13 29L13 30L14 30L14 29L13 29L13 28L14 28L14 27L15 27L15 25L16 25L16 24L17 24L17 23L18 23L18 22L19 22L19 21L20 21L20 20L18 20L18 18L17 18L17 17L18 17L18 15L19 15L19 16L20 16L20 19L21 19L21 21L22 21L22 20L26 20L26 22L25 22L25 23L24 23L24 24L25 24L25 23L26 23L26 24L28 24L28 23L27 23L27 22L28 22L28 21L29 21L29 20L30 20L30 19L32 19L32 18L30 18L30 19L29 19L29 18L28 18L28 15L29 15L29 16L30 16L30 17L31 17L31 16L30 16L30 14L29 14L29 12L28 12L28 15L27 15L27 13L26 13L26 12L25 12L25 11L24 11L24 13L26 13L26 15L27 15L27 18L26 18L26 16L25 16L25 15L24 15L24 14L23 14L23 12L22 12L22 11L23 11L23 9L24 9L24 10L25 10L25 9L24 9L24 8L23 8L23 9L22 9L22 4L20 4L20 3ZM12 4L12 5L11 5L11 7L12 7L12 9L10 9L10 10L12 10L12 11L13 11L13 13L11 13L11 12L10 12L10 14L9 14L9 15L8 15L8 14L7 14L7 13L8 13L8 12L7 12L7 11L6 11L6 12L5 12L5 13L4 13L4 14L7 14L7 15L6 15L6 16L4 16L4 15L3 15L3 13L2 13L2 16L3 16L3 17L4 17L4 18L5 18L5 17L6 17L6 18L8 18L8 20L7 20L7 21L8 21L8 20L9 20L9 18L8 18L8 17L6 17L6 16L7 16L7 15L8 15L8 16L10 16L10 17L12 17L12 16L14 16L14 15L15 15L15 13L16 13L16 11L13 11L13 10L15 10L15 8L13 8L13 7L14 7L14 6L13 6L13 7L12 7L12 5L14 5L14 4ZM19 4L19 5L20 5L20 8L21 8L21 5L20 5L20 4ZM17 6L17 8L18 8L18 6ZM23 6L23 7L24 7L24 6ZM0 8L0 9L2 9L2 8ZM32 8L32 9L33 9L33 8ZM12 9L12 10L13 10L13 9ZM16 9L16 10L17 10L17 11L18 11L18 9ZM21 9L21 10L20 10L20 11L22 11L22 9ZM6 12L6 13L7 13L7 12ZM14 12L14 13L13 13L13 14L11 14L11 15L10 15L10 16L12 16L12 15L14 15L14 13L15 13L15 12ZM17 12L17 13L18 13L18 12ZM20 13L20 14L19 14L19 15L20 15L20 16L21 16L21 13ZM22 15L22 16L23 16L23 17L24 17L24 18L23 18L23 19L24 19L24 18L25 18L25 17L24 17L24 16L23 16L23 15ZM16 16L16 17L17 17L17 16ZM26 19L26 20L28 20L28 19ZM1 20L1 21L2 21L2 20ZM11 20L11 23L12 23L12 24L11 24L11 25L10 25L10 26L12 26L12 27L14 27L14 25L15 25L15 24L16 24L16 20L15 20L15 23L14 23L14 25L13 25L13 22L12 22L12 20ZM17 20L17 21L18 21L18 20ZM1 22L1 24L3 24L3 23L2 23L2 22ZM19 24L19 25L21 25L21 24ZM30 24L30 25L31 25L31 24ZM25 25L25 28L28 28L28 25ZM22 26L22 27L21 27L21 29L22 29L22 30L23 30L23 32L25 32L25 31L27 31L27 32L28 32L28 31L27 31L27 29L25 29L25 31L24 31L24 30L23 30L23 28L24 28L24 27L23 27L23 26ZM26 26L26 27L27 27L27 26ZM19 32L19 33L21 33L21 32ZM0 0L0 7L7 7L7 0ZM1 1L1 6L6 6L6 1ZM2 2L2 5L5 5L5 2ZM26 0L26 7L33 7L33 0ZM27 1L27 6L32 6L32 1ZM28 2L28 5L31 5L31 2ZM0 26L0 33L7 33L7 26ZM1 27L1 32L6 32L6 27ZM2 28L2 31L5 31L5 28Z" fill="#000000"/></g></g></svg>
