<?xml version="1.0" encoding="UTF-8"?>
<svg xmlns="http://www.w3.org/2000/svg" version="1.1" width="400" height="400" viewBox="0 0 400 400"><rect x="0" y="0" width="400" height="400" fill="#fefefe"/><g transform="scale(9.756)"><g transform="translate(4,4)"><path fill-rule="evenodd" d="M11 0L11 1L9 1L9 2L11 2L11 1L13 1L13 2L12 2L12 4L15 4L15 3L13 3L13 2L14 2L14 1L13 1L13 0ZM16 0L16 1L17 1L17 2L18 2L18 3L16 3L16 4L19 4L19 5L18 5L18 7L19 7L19 5L20 5L20 7L21 7L21 5L22 5L22 3L24 3L24 4L23 4L23 5L24 5L24 8L23 8L23 6L22 6L22 8L23 8L23 10L22 10L22 11L23 11L23 10L25 10L25 11L24 11L24 12L22 12L22 14L21 14L21 15L20 15L20 16L19 16L19 15L18 15L18 16L16 16L16 15L17 15L17 14L20 14L20 12L21 12L21 8L17 8L17 6L16 6L16 8L15 8L15 11L18 11L18 13L17 13L17 12L16 12L16 13L15 13L15 12L14 12L14 14L15 14L15 15L14 15L14 16L12 16L12 15L13 15L13 14L11 14L11 16L10 16L10 15L9 15L9 13L10 13L10 11L11 11L11 10L10 10L10 8L11 8L11 9L12 9L12 10L13 10L13 11L12 11L12 12L11 12L11 13L13 13L13 11L14 11L14 10L13 10L13 9L14 9L14 8L13 8L13 9L12 9L12 7L13 7L13 6L14 6L14 7L15 7L15 6L14 6L14 5L11 5L11 6L10 6L10 8L9 8L9 10L8 10L8 8L5 8L5 9L7 9L7 10L6 10L6 11L5 11L5 10L4 10L4 9L2 9L2 8L0 8L0 10L2 10L2 11L1 11L1 12L0 12L0 15L1 15L1 14L2 14L2 11L3 11L3 12L4 12L4 13L5 13L5 14L6 14L6 15L8 15L8 17L7 17L7 16L6 16L6 17L7 17L7 18L6 18L6 19L7 19L7 20L3 20L3 21L2 21L2 22L3 22L3 23L2 23L2 24L1 24L1 20L2 20L2 19L1 19L1 20L0 20L0 25L8 25L8 28L9 28L9 29L10 29L10 30L9 30L9 31L8 31L8 33L10 33L10 32L11 32L11 31L12 31L12 32L13 32L13 33L14 33L14 32L15 32L15 33L16 33L16 32L17 32L17 33L18 33L18 32L17 32L17 31L18 31L18 30L17 30L17 29L18 29L18 28L19 28L19 27L18 27L18 28L17 28L17 29L16 29L16 28L15 28L15 27L17 27L17 23L19 23L19 22L21 22L21 23L20 23L20 24L19 24L19 26L21 26L21 27L22 27L22 29L23 29L23 30L20 30L20 29L21 29L21 28L20 28L20 29L19 29L19 32L20 32L20 31L22 31L22 33L26 33L26 32L23 32L23 30L24 30L24 31L26 31L26 29L27 29L27 33L28 33L28 32L31 32L31 33L32 33L32 32L31 32L31 31L30 31L30 30L31 30L31 29L32 29L32 26L33 26L33 25L32 25L32 24L33 24L33 23L30 23L30 24L29 24L29 23L28 23L28 22L29 22L29 21L30 21L30 20L31 20L31 19L30 19L30 18L32 18L32 20L33 20L33 17L32 17L32 16L33 16L33 15L32 15L32 14L33 14L33 12L32 12L32 10L29 10L29 9L30 9L30 8L28 8L28 10L27 10L27 11L28 11L28 12L29 12L29 14L28 14L28 15L26 15L26 14L27 14L27 12L25 12L25 11L26 11L26 9L24 9L24 8L25 8L25 5L24 5L24 4L25 4L25 0L24 0L24 2L23 2L23 0L22 0L22 2L19 2L19 0ZM8 3L8 5L10 5L10 4L9 4L9 3ZM19 3L19 4L20 4L20 5L21 5L21 3ZM8 6L8 7L9 7L9 6ZM11 6L11 7L12 7L12 6ZM16 8L16 10L18 10L18 9L17 9L17 8ZM3 10L3 11L4 11L4 12L5 12L5 13L6 13L6 14L8 14L8 13L9 13L9 12L8 12L8 13L6 13L6 12L7 12L7 11L8 11L8 10L7 10L7 11L6 11L6 12L5 12L5 11L4 11L4 10ZM9 10L9 11L10 11L10 10ZM19 10L19 11L20 11L20 10ZM28 10L28 11L29 11L29 10ZM30 12L30 13L32 13L32 12ZM24 13L24 14L22 14L22 15L21 15L21 17L20 17L20 18L22 18L22 19L19 19L19 20L18 20L18 17L17 17L17 20L18 20L18 21L16 21L16 23L17 23L17 22L19 22L19 21L20 21L20 20L21 20L21 21L23 21L23 20L25 20L25 21L26 21L26 22L25 22L25 23L26 23L26 24L28 24L28 23L27 23L27 22L28 22L28 20L30 20L30 19L29 19L29 18L30 18L30 17L31 17L31 16L30 16L30 14L29 14L29 17L28 17L28 16L26 16L26 15L24 15L24 14L25 14L25 13ZM2 15L2 17L3 17L3 19L4 19L4 18L5 18L5 17L4 17L4 15ZM22 15L22 17L23 17L23 19L24 19L24 18L25 18L25 17L23 17L23 15ZM0 16L0 18L1 18L1 16ZM9 16L9 17L8 17L8 19L9 19L9 20L8 20L8 21L9 21L9 20L10 20L10 19L9 19L9 18L10 18L10 16ZM14 16L14 17L13 17L13 18L12 18L12 17L11 17L11 18L12 18L12 19L11 19L11 20L12 20L12 22L11 22L11 21L10 21L10 23L8 23L8 22L7 22L7 21L6 21L6 22L7 22L7 23L5 23L5 22L4 22L4 23L3 23L3 24L9 24L9 25L10 25L10 24L11 24L11 23L12 23L12 22L13 22L13 26L9 26L9 28L11 28L11 29L13 29L13 30L12 30L12 31L13 31L13 32L14 32L14 31L13 31L13 30L14 30L14 29L15 29L15 28L14 28L14 27L15 27L15 26L14 26L14 22L15 22L15 20L16 20L16 19L14 19L14 17L15 17L15 18L16 18L16 16ZM26 17L26 18L27 18L27 19L28 19L28 18L27 18L27 17ZM25 19L25 20L26 20L26 19ZM13 20L13 21L14 21L14 20ZM23 22L23 24L24 24L24 22ZM21 23L21 25L22 25L22 23ZM15 24L15 25L16 25L16 24ZM30 24L30 25L29 25L29 28L30 28L30 29L31 29L31 28L30 28L30 27L31 27L31 26L30 26L30 25L31 25L31 24ZM25 25L25 28L28 28L28 25ZM22 26L22 27L23 27L23 29L24 29L24 27L23 27L23 26ZM26 26L26 27L27 27L27 26ZM12 27L12 28L13 28L13 29L14 29L14 28L13 28L13 27ZM10 30L10 31L9 31L9 32L10 32L10 31L11 31L11 30ZM32 30L32 31L33 31L33 30ZM15 31L15 32L16 32L16 31ZM0 0L0 7L7 7L7 0ZM1 1L1 6L6 6L6 1ZM2 2L2 5L5 5L5 2ZM26 0L26 7L33 7L33 0ZM27 1L27 6L32 6L32 1ZM28 2L28 5L31 5L31 2ZM0 26L0 33L7 33L7 26ZM1 27L1 32L6 32L6 27ZM2 28L2 31L5 31L5 28Z" fill="#000000"/></g></g></svg>
