<?xml version="1.0" encoding="UTF-8"?>
<svg xmlns="http://www.w3.org/2000/svg" version="1.1" width="400" height="400" viewBox="0 0 400 400"><rect x="0" y="0" width="400" height="400" fill="#fefefe"/><g transform="scale(9.756)"><g transform="translate(4,4)"><path fill-rule="evenodd" d="M9 0L9 1L10 1L10 0ZM12 0L12 2L11 2L11 4L10 4L10 2L9 2L9 3L8 3L8 5L9 5L9 4L10 4L10 8L9 8L9 9L8 9L8 8L5 8L5 9L2 9L2 8L0 8L0 14L1 14L1 16L0 16L0 25L3 25L3 24L4 24L4 25L7 25L7 24L8 24L8 28L9 28L9 31L8 31L8 33L9 33L9 31L10 31L10 33L11 33L11 32L12 32L12 30L13 30L13 31L16 31L16 32L15 32L15 33L16 33L16 32L17 32L17 33L18 33L18 32L17 32L17 31L18 31L18 30L17 30L17 29L18 29L18 28L19 28L19 27L18 27L18 28L17 28L17 29L16 29L16 28L15 28L15 27L17 27L17 23L19 23L19 26L20 26L20 24L21 24L21 23L22 23L22 24L23 24L23 22L25 22L25 23L24 23L24 25L23 25L23 27L22 27L22 28L23 28L23 27L24 27L24 29L28 29L28 31L27 31L27 32L28 32L28 31L29 31L29 32L31 32L31 33L32 33L32 32L31 32L31 31L30 31L30 30L31 30L31 29L33 29L33 27L32 27L32 26L33 26L33 25L32 25L32 24L33 24L33 23L30 23L30 24L26 24L26 22L25 22L25 21L26 21L26 19L25 19L25 20L23 20L23 19L24 19L24 18L25 18L25 17L23 17L23 15L22 15L22 17L23 17L23 18L22 18L22 20L23 20L23 21L21 21L21 20L20 20L20 21L19 21L19 22L17 22L17 23L16 23L16 21L18 21L18 20L19 20L19 19L20 19L20 17L21 17L21 16L20 16L20 17L19 17L19 15L18 15L18 16L16 16L16 15L17 15L17 14L21 14L21 11L22 11L22 12L23 12L23 14L24 14L24 15L26 15L26 14L27 14L27 15L28 15L28 17L29 17L29 14L30 14L30 16L31 16L31 17L30 17L30 18L28 18L28 19L27 19L27 23L29 23L29 21L30 21L30 20L31 20L31 19L30 19L30 18L32 18L32 20L33 20L33 17L32 17L32 16L33 16L33 15L32 15L32 14L33 14L33 12L32 12L32 10L29 10L29 9L30 9L30 8L28 8L28 10L29 10L29 14L27 14L27 12L28 12L28 11L27 11L27 12L26 12L26 9L25 9L25 8L24 8L24 7L25 7L25 5L24 5L24 4L25 4L25 3L24 3L24 2L25 2L25 0L24 0L24 2L23 2L23 0L22 0L22 2L21 2L21 3L20 3L20 2L19 2L19 1L18 1L18 0L16 0L16 1L18 1L18 3L16 3L16 4L19 4L19 5L17 5L17 6L16 6L16 8L15 8L15 11L18 11L18 13L17 13L17 12L16 12L16 13L15 13L15 12L14 12L14 14L15 14L15 15L14 15L14 16L13 16L13 14L12 14L12 11L14 11L14 10L13 10L13 9L14 9L14 8L13 8L13 6L14 6L14 7L15 7L15 6L14 6L14 5L13 5L13 4L15 4L15 3L13 3L13 2L14 2L14 1L13 1L13 0ZM20 0L20 1L21 1L21 0ZM12 3L12 4L13 4L13 3ZM19 3L19 4L20 4L20 3ZM23 3L23 4L24 4L24 3ZM21 4L21 5L19 5L19 7L20 7L20 6L21 6L21 8L19 8L19 9L20 9L20 10L19 10L19 11L21 11L21 10L23 10L23 12L24 12L24 13L25 13L25 12L24 12L24 10L25 10L25 9L24 9L24 8L23 8L23 7L24 7L24 5L22 5L22 4ZM11 5L11 7L12 7L12 5ZM8 6L8 7L9 7L9 6ZM17 6L17 8L16 8L16 10L18 10L18 9L17 9L17 8L18 8L18 6ZM22 6L22 7L23 7L23 6ZM10 8L10 9L12 9L12 8ZM5 9L5 10L4 10L4 11L5 11L5 12L3 12L3 10L1 10L1 12L3 12L3 13L2 13L2 14L3 14L3 15L2 15L2 16L1 16L1 17L2 17L2 19L1 19L1 21L2 21L2 22L1 22L1 24L2 24L2 23L4 23L4 22L5 22L5 24L7 24L7 23L6 23L6 22L9 22L9 25L11 25L11 23L12 23L12 22L9 22L9 20L10 20L10 19L11 19L11 20L14 20L14 21L13 21L13 22L15 22L15 20L16 20L16 19L14 19L14 17L15 17L15 18L16 18L16 16L14 16L14 17L13 17L13 19L11 19L11 18L10 18L10 17L9 17L9 16L8 16L8 15L9 15L9 14L7 14L7 13L9 13L9 11L10 11L10 14L11 14L11 15L10 15L10 16L11 16L11 17L12 17L12 16L11 16L11 15L12 15L12 14L11 14L11 11L12 11L12 10L11 10L11 11L10 11L10 10L8 10L8 11L6 11L6 10L7 10L7 9ZM23 9L23 10L24 10L24 9ZM5 12L5 14L6 14L6 15L7 15L7 14L6 14L6 13L7 13L7 12ZM30 12L30 13L32 13L32 12ZM4 15L4 16L3 16L3 18L5 18L5 22L6 22L6 21L8 21L8 20L6 20L6 19L10 19L10 18L9 18L9 17L8 17L8 16L5 16L5 15ZM4 16L4 17L5 17L5 18L8 18L8 17L5 17L5 16ZM17 17L17 20L18 20L18 17ZM26 17L26 18L27 18L27 17ZM3 19L3 20L2 20L2 21L4 21L4 19ZM28 19L28 20L30 20L30 19ZM19 22L19 23L21 23L21 22ZM13 23L13 26L9 26L9 27L13 27L13 28L11 28L11 29L10 29L10 31L11 31L11 29L13 29L13 30L14 30L14 29L15 29L15 28L14 28L14 27L15 27L15 26L14 26L14 24L15 24L15 25L16 25L16 24L15 24L15 23ZM30 24L30 25L29 25L29 28L30 28L30 29L31 29L31 28L30 28L30 27L31 27L31 26L30 26L30 25L31 25L31 24ZM25 25L25 28L28 28L28 25ZM26 26L26 27L27 27L27 26ZM13 28L13 29L14 29L14 28ZM20 28L20 29L19 29L19 31L20 31L20 32L21 32L21 31L20 31L20 29L21 29L21 28ZM22 29L22 33L23 33L23 32L24 32L24 33L26 33L26 31L25 31L25 30L23 30L23 29ZM32 30L32 31L33 31L33 30ZM24 31L24 32L25 32L25 31ZM13 32L13 33L14 33L14 32ZM0 0L0 7L7 7L7 0ZM1 1L1 6L6 6L6 1ZM2 2L2 5L5 5L5 2ZM26 0L26 7L33 7L33 0ZM27 1L27 6L32 6L32 1ZM28 2L28 5L31 5L31 2ZM0 26L0 33L7 33L7 26ZM1 27L1 32L6 32L6 27ZM2 28L2 31L5 31L5 28Z" fill="#000000"/></g></g></svg>
