<?xml version="1.0" encoding="UTF-8"?>
<svg xmlns="http://www.w3.org/2000/svg" version="1.1" width="400" height="400" viewBox="0 0 400 400"><rect x="0" y="0" width="400" height="400" fill="#fefefe"/><g transform="scale(9.756)"><g transform="translate(4,4)"><path fill-rule="evenodd" d="M9 0L9 1L10 1L10 0ZM12 0L12 2L11 2L11 4L10 4L10 2L9 2L9 3L8 3L8 5L9 5L9 4L10 4L10 8L9 8L9 9L8 9L8 8L5 8L5 9L4 9L4 10L2 10L2 8L0 8L0 9L1 9L1 11L5 11L5 9L8 9L8 10L6 10L6 11L7 11L7 12L5 12L5 13L4 13L4 12L2 12L2 13L0 13L0 15L1 15L1 14L2 14L2 18L3 18L3 19L1 19L1 17L0 17L0 19L1 19L1 20L4 20L4 19L5 19L5 20L6 20L6 21L7 21L7 20L8 20L8 17L7 17L7 16L6 16L6 17L5 17L5 18L4 18L4 17L3 17L3 16L5 16L5 15L7 15L7 14L6 14L6 13L8 13L8 14L10 14L10 11L11 11L11 14L12 14L12 15L11 15L11 16L12 16L12 17L10 17L10 15L8 15L8 16L9 16L9 19L13 19L13 17L14 17L14 19L16 19L16 20L15 20L15 22L13 22L13 21L14 21L14 20L11 20L11 22L12 22L12 23L10 23L10 20L9 20L9 23L8 23L8 22L6 22L6 23L5 23L5 21L4 21L4 22L2 22L2 21L0 21L0 25L3 25L3 24L4 24L4 25L5 25L5 24L6 24L6 25L8 25L8 28L9 28L9 26L10 26L10 27L11 27L11 28L10 28L10 29L9 29L9 31L8 31L8 33L12 33L12 32L13 32L13 33L14 33L14 32L13 32L13 31L16 31L16 32L15 32L15 33L16 33L16 32L17 32L17 33L18 33L18 32L17 32L17 31L18 31L18 30L17 30L17 29L18 29L18 28L19 28L19 27L18 27L18 28L17 28L17 29L16 29L16 28L15 28L15 27L17 27L17 23L19 23L19 26L20 26L20 24L21 24L21 23L22 23L22 26L21 26L21 27L20 27L20 29L19 29L19 32L20 32L20 31L21 31L21 30L20 30L20 29L21 29L21 27L24 27L24 29L25 29L25 30L22 30L22 33L23 33L23 32L24 32L24 33L25 33L25 32L24 32L24 31L26 31L26 29L28 29L28 31L27 31L27 32L26 32L26 33L27 33L27 32L28 32L28 31L29 31L29 32L31 32L31 33L32 33L32 32L31 32L31 31L30 31L30 30L31 30L31 29L33 29L33 27L32 27L32 26L33 26L33 25L32 25L32 24L33 24L33 23L30 23L30 24L28 24L28 23L29 23L29 21L30 21L30 20L31 20L31 19L30 19L30 18L32 18L32 20L33 20L33 17L32 17L32 16L33 16L33 15L32 15L32 14L33 14L33 12L32 12L32 10L29 10L29 9L30 9L30 8L28 8L28 10L27 10L27 11L28 11L28 10L29 10L29 14L28 14L28 15L25 15L25 13L23 13L23 12L22 12L22 13L21 13L21 12L20 12L20 11L22 11L22 9L21 9L21 10L20 10L20 9L19 9L19 8L20 8L20 7L21 7L21 4L22 4L22 5L25 5L25 4L23 4L23 3L24 3L24 2L23 2L23 0L22 0L22 2L18 2L18 1L19 1L19 0L16 0L16 1L17 1L17 2L18 2L18 3L16 3L16 4L19 4L19 5L17 5L17 6L16 6L16 8L15 8L15 11L18 11L18 13L17 13L17 12L16 12L16 13L15 13L15 12L14 12L14 14L15 14L15 15L14 15L14 16L13 16L13 14L12 14L12 11L14 11L14 10L13 10L13 9L14 9L14 8L13 8L13 6L14 6L14 7L15 7L15 6L14 6L14 5L13 5L13 4L15 4L15 3L13 3L13 2L14 2L14 1L13 1L13 0ZM24 0L24 1L25 1L25 0ZM12 3L12 4L13 4L13 3ZM19 3L19 4L20 4L20 3ZM11 5L11 7L12 7L12 5ZM19 5L19 7L20 7L20 5ZM8 6L8 7L9 7L9 6ZM17 6L17 8L16 8L16 10L18 10L18 9L17 9L17 8L18 8L18 6ZM22 6L22 7L23 7L23 6ZM24 6L24 8L25 8L25 6ZM10 8L10 9L12 9L12 8ZM23 9L23 10L26 10L26 9ZM8 10L8 12L9 12L9 11L10 11L10 10ZM11 10L11 11L12 11L12 10ZM19 10L19 11L20 11L20 10ZM24 11L24 12L25 12L25 11ZM26 12L26 14L27 14L27 12ZM30 12L30 13L32 13L32 12ZM2 13L2 14L3 14L3 15L4 15L4 14L3 14L3 13ZM17 14L17 15L16 15L16 16L14 16L14 17L15 17L15 18L16 18L16 16L18 16L18 15L20 15L20 16L19 16L19 17L20 17L20 19L21 19L21 21L23 21L23 20L25 20L25 19L26 19L26 21L25 21L25 22L23 22L23 25L24 25L24 23L27 23L27 22L28 22L28 19L27 19L27 18L30 18L30 17L31 17L31 16L30 16L30 14L29 14L29 17L28 17L28 16L25 16L25 15L24 15L24 14L22 14L22 15L20 15L20 14ZM20 16L20 17L21 17L21 16ZM22 16L22 17L23 17L23 19L24 19L24 18L25 18L25 17L23 17L23 16ZM6 17L6 18L7 18L7 17ZM17 17L17 20L18 20L18 21L16 21L16 23L17 23L17 22L19 22L19 23L20 23L20 22L19 22L19 21L20 21L20 20L18 20L18 17ZM26 17L26 18L27 18L27 17ZM6 19L6 20L7 20L7 19ZM29 19L29 20L30 20L30 19ZM1 22L1 24L2 24L2 22ZM4 23L4 24L5 24L5 23ZM6 23L6 24L7 24L7 23ZM13 23L13 26L11 26L11 24L9 24L9 25L10 25L10 26L11 26L11 27L13 27L13 28L11 28L11 29L10 29L10 30L11 30L11 29L13 29L13 30L14 30L14 29L15 29L15 28L14 28L14 27L15 27L15 26L14 26L14 24L15 24L15 25L16 25L16 24L15 24L15 23ZM30 24L30 25L29 25L29 28L30 28L30 29L31 29L31 28L30 28L30 27L31 27L31 26L30 26L30 25L31 25L31 24ZM25 25L25 28L28 28L28 25ZM26 26L26 27L27 27L27 26ZM13 28L13 29L14 29L14 28ZM22 28L22 29L23 29L23 28ZM32 30L32 31L33 31L33 30ZM9 31L9 32L12 32L12 31ZM0 0L0 7L7 7L7 0ZM1 1L1 6L6 6L6 1ZM2 2L2 5L5 5L5 2ZM26 0L26 7L33 7L33 0ZM27 1L27 6L32 6L32 1ZM28 2L28 5L31 5L31 2ZM0 26L0 33L7 33L7 26ZM1 27L1 32L6 32L6 27ZM2 28L2 31L5 31L5 28Z" fill="#000000"/></g></g></svg>
