<?xml version="1.0" encoding="UTF-8"?>
<svg xmlns="http://www.w3.org/2000/svg" version="1.1" width="400" height="400" viewBox="0 0 400 400"><rect x="0" y="0" width="400" height="400" fill="#fefefe"/><g transform="scale(9.756)"><g transform="translate(4,4)"><path fill-rule="evenodd" d="M8 0L8 1L10 1L10 0ZM12 0L12 2L9 2L9 4L10 4L10 5L11 5L11 6L10 6L10 8L9 8L9 6L8 6L8 8L9 8L9 10L10 10L10 11L8 11L8 12L6 12L6 11L7 11L7 10L6 10L6 9L7 9L7 8L6 8L6 9L5 9L5 8L3 8L3 9L2 9L2 8L0 8L0 9L1 9L1 10L0 10L0 12L1 12L1 10L2 10L2 11L3 11L3 12L5 12L5 13L2 13L2 15L1 15L1 13L0 13L0 15L1 15L1 17L2 17L2 18L1 18L1 19L0 19L0 20L2 20L2 18L4 18L4 17L5 17L5 18L6 18L6 19L7 19L7 20L5 20L5 19L3 19L3 21L4 21L4 20L5 20L5 21L7 21L7 20L8 20L8 19L9 19L9 18L10 18L10 20L9 20L9 21L8 21L8 23L7 23L7 22L6 22L6 23L7 23L7 24L6 24L6 25L7 25L7 24L9 24L9 25L8 25L8 26L9 26L9 25L10 25L10 24L9 24L9 23L10 23L10 20L11 20L11 23L12 23L12 24L11 24L11 26L10 26L10 29L9 29L9 28L8 28L8 30L9 30L9 31L8 31L8 33L9 33L9 32L10 32L10 33L11 33L11 32L10 32L10 29L12 29L12 30L11 30L11 31L13 31L13 32L14 32L14 31L16 31L16 32L15 32L15 33L18 33L18 32L17 32L17 31L18 31L18 29L17 29L17 30L16 30L16 28L15 28L15 27L16 27L16 26L17 26L17 24L18 24L18 23L19 23L19 22L20 22L20 18L21 18L21 19L22 19L22 18L21 18L21 16L20 16L20 14L21 14L21 13L20 13L20 12L21 12L21 11L22 11L22 12L23 12L23 14L22 14L22 15L23 15L23 14L24 14L24 15L25 15L25 13L27 13L27 11L28 11L28 12L29 12L29 14L27 14L27 15L26 15L26 18L27 18L27 19L26 19L26 20L22 20L22 21L21 21L21 23L20 23L20 24L19 24L19 25L20 25L20 26L19 26L19 27L18 27L18 28L19 28L19 27L20 27L20 28L21 28L21 27L23 27L23 30L24 30L24 31L22 31L22 32L24 32L24 33L25 33L25 32L24 32L24 31L26 31L26 32L27 32L27 33L30 33L30 32L33 32L33 30L32 30L32 31L30 31L30 32L27 32L27 31L29 31L29 30L28 30L28 29L29 29L29 25L30 25L30 26L31 26L31 25L32 25L32 24L33 24L33 22L32 22L32 23L30 23L30 22L29 22L29 21L30 21L30 20L31 20L31 21L32 21L32 19L33 19L33 15L31 15L31 13L30 13L30 12L32 12L32 13L33 13L33 12L32 12L32 11L33 11L33 10L30 10L30 12L29 12L29 11L28 11L28 10L29 10L29 9L27 9L27 8L26 8L26 9L27 9L27 10L26 10L26 12L25 12L25 13L24 13L24 12L23 12L23 11L25 11L25 9L23 9L23 8L25 8L25 6L24 6L24 5L23 5L23 3L24 3L24 4L25 4L25 0L24 0L24 2L23 2L23 0L22 0L22 2L21 2L21 1L19 1L19 0L16 0L16 1L17 1L17 2L16 2L16 4L17 4L17 5L16 5L16 8L15 8L15 6L14 6L14 5L15 5L15 3L14 3L14 2L15 2L15 1L14 1L14 2L13 2L13 0ZM17 2L17 3L19 3L19 4L18 4L18 5L17 5L17 8L20 8L20 10L19 10L19 11L20 11L20 10L21 10L21 9L22 9L22 11L23 11L23 9L22 9L22 8L23 8L23 7L24 7L24 6L23 6L23 7L22 7L22 4L21 4L21 3L19 3L19 2ZM22 2L22 3L23 3L23 2ZM10 3L10 4L11 4L11 5L12 5L12 4L13 4L13 5L14 5L14 4L13 4L13 3L12 3L12 4L11 4L11 3ZM19 4L19 5L20 5L20 8L21 8L21 4ZM11 6L11 7L12 7L12 6ZM13 6L13 7L14 7L14 6ZM18 6L18 7L19 7L19 6ZM11 8L11 9L12 9L12 8ZM13 8L13 10L15 10L15 8ZM32 8L32 9L33 9L33 8ZM3 9L3 11L5 11L5 9ZM16 9L16 10L17 10L17 11L18 11L18 9ZM11 11L11 12L10 12L10 13L9 13L9 14L11 14L11 15L9 15L9 16L8 16L8 14L7 14L7 13L5 13L5 14L4 14L4 16L5 16L5 14L7 14L7 15L6 15L6 16L8 16L8 17L6 17L6 18L7 18L7 19L8 19L8 18L9 18L9 17L11 17L11 18L12 18L12 17L11 17L11 15L12 15L12 14L13 14L13 13L14 13L14 15L13 15L13 16L14 16L14 15L15 15L15 13L16 13L16 11ZM11 12L11 14L12 14L12 12ZM14 12L14 13L15 13L15 12ZM17 12L17 13L18 13L18 12ZM19 13L19 14L16 14L16 16L15 16L15 18L17 18L17 20L16 20L16 19L15 19L15 20L13 20L13 19L14 19L14 17L13 17L13 19L11 19L11 20L13 20L13 25L14 25L14 27L13 27L13 26L11 26L11 27L13 27L13 28L12 28L12 29L13 29L13 30L14 30L14 29L13 29L13 28L14 28L14 27L15 27L15 25L16 25L16 24L17 24L17 23L18 23L18 22L19 22L19 20L18 20L18 18L17 18L17 17L18 17L18 15L19 15L19 14L20 14L20 13ZM29 14L29 16L30 16L30 17L31 17L31 16L30 16L30 14ZM2 15L2 17L3 17L3 15ZM16 16L16 17L17 17L17 16ZM19 16L19 17L20 17L20 16ZM23 16L23 17L24 17L24 18L23 18L23 19L24 19L24 18L25 18L25 17L24 17L24 16ZM27 16L27 18L28 18L28 20L26 20L26 22L27 22L27 23L26 23L26 24L27 24L27 23L28 23L28 21L29 21L29 20L30 20L30 19L32 19L32 18L30 18L30 19L29 19L29 18L28 18L28 16ZM15 20L15 23L14 23L14 25L15 25L15 24L16 24L16 20ZM17 20L17 21L18 21L18 20ZM0 21L0 25L4 25L4 24L5 24L5 22L4 22L4 23L3 23L3 24L1 24L1 21ZM24 22L24 23L25 23L25 22ZM21 23L21 24L20 24L20 25L22 25L22 24L23 24L23 23ZM30 24L30 25L31 25L31 24ZM23 25L23 26L24 26L24 25ZM25 25L25 28L28 28L28 25ZM26 26L26 27L27 27L27 26ZM30 27L30 28L31 28L31 29L30 29L30 30L31 30L31 29L32 29L32 28L33 28L33 27ZM19 29L19 31L20 31L20 32L19 32L19 33L20 33L20 32L21 32L21 30L20 30L20 29ZM26 29L26 31L27 31L27 29ZM0 0L0 7L7 7L7 0ZM1 1L1 6L6 6L6 1ZM2 2L2 5L5 5L5 2ZM26 0L26 7L33 7L33 0ZM27 1L27 6L32 6L32 1ZM28 2L28 5L31 5L31 2ZM0 26L0 33L7 33L7 26ZM1 27L1 32L6 32L6 27ZM2 28L2 31L5 31L5 28Z" fill="#000000"/></g></g></svg>
