<?xml version="1.0" encoding="UTF-8"?>
<svg xmlns="http://www.w3.org/2000/svg" version="1.1" width="400" height="400" viewBox="0 0 400 400"><rect x="0" y="0" width="400" height="400" fill="#fefefe"/><g transform="scale(9.756)"><g transform="translate(4,4)"><path fill-rule="evenodd" d="M10 0L10 2L11 2L11 0ZM12 0L12 1L13 1L13 2L12 2L12 4L14 4L14 3L13 3L13 2L14 2L14 1L15 1L15 2L16 2L16 1L15 1L15 0ZM18 0L18 1L20 1L20 2L21 2L21 3L17 3L17 5L18 5L18 8L17 8L17 6L16 6L16 5L15 5L15 6L14 6L14 5L11 5L11 6L10 6L10 4L11 4L11 3L8 3L8 4L9 4L9 5L8 5L8 7L9 7L9 8L6 8L6 9L7 9L7 10L5 10L5 8L0 8L0 9L4 9L4 10L5 10L5 11L3 11L3 10L1 10L1 11L3 11L3 12L2 12L2 13L1 13L1 14L2 14L2 15L3 15L3 16L4 16L4 14L5 14L5 15L7 15L7 14L8 14L8 15L10 15L10 14L8 14L8 13L11 13L11 12L8 12L8 13L7 13L7 12L5 12L5 11L7 11L7 10L8 10L8 11L9 11L9 10L8 10L8 9L10 9L10 11L11 11L11 9L12 9L12 10L13 10L13 11L12 11L12 13L14 13L14 14L15 14L15 15L16 15L16 17L14 17L14 16L12 16L12 15L13 15L13 14L11 14L11 17L10 17L10 16L6 16L6 17L4 17L4 18L2 18L2 16L0 16L0 18L1 18L1 19L0 19L0 25L1 25L1 21L2 21L2 20L1 20L1 19L3 19L3 20L4 20L4 21L3 21L3 22L4 22L4 23L2 23L2 24L3 24L3 25L4 25L4 23L5 23L5 22L6 22L6 23L8 23L8 24L9 24L9 25L8 25L8 27L10 27L10 24L9 24L9 21L10 21L10 22L12 22L12 23L11 23L11 24L12 24L12 25L11 25L11 26L13 26L13 25L14 25L14 26L15 26L15 29L14 29L14 28L13 28L13 29L11 29L11 30L12 30L12 31L13 31L13 29L14 29L14 30L15 30L15 31L14 31L14 32L13 32L13 33L14 33L14 32L15 32L15 33L16 33L16 32L17 32L17 33L18 33L18 32L17 32L17 31L16 31L16 30L17 30L17 29L18 29L18 28L19 28L19 30L20 30L20 29L21 29L21 32L20 32L20 33L21 33L21 32L24 32L24 33L25 33L25 32L26 32L26 31L27 31L27 33L28 33L28 31L27 31L27 30L29 30L29 31L30 31L30 32L29 32L29 33L30 33L30 32L31 32L31 33L32 33L32 32L31 32L31 31L32 31L32 30L31 30L31 29L32 29L32 28L33 28L33 27L32 27L32 26L33 26L33 23L30 23L30 24L32 24L32 25L30 25L30 26L31 26L31 27L30 27L30 28L29 28L29 24L28 24L28 23L29 23L29 22L28 22L28 23L27 23L27 24L26 24L26 22L27 22L27 21L30 21L30 20L31 20L31 19L32 19L32 20L33 20L33 19L32 19L32 18L33 18L33 17L32 17L32 14L33 14L33 13L32 13L32 10L33 10L33 9L32 9L32 8L31 8L31 9L32 9L32 10L29 10L29 12L28 12L28 13L21 13L21 12L22 12L22 10L24 10L24 12L25 12L25 10L26 10L26 11L28 11L28 8L27 8L27 9L26 9L26 8L24 8L24 9L21 9L21 8L23 8L23 6L22 6L22 5L24 5L24 4L25 4L25 2L24 2L24 4L22 4L22 5L20 5L20 4L21 4L21 3L23 3L23 1L25 1L25 0L23 0L23 1L21 1L21 0ZM8 1L8 2L9 2L9 1ZM15 3L15 4L16 4L16 3ZM18 4L18 5L19 5L19 7L20 7L20 8L19 8L19 9L20 9L20 10L19 10L19 13L20 13L20 14L17 14L17 16L18 16L18 15L19 15L19 17L22 17L22 19L23 19L23 20L21 20L21 21L20 21L20 18L19 18L19 20L18 20L18 19L17 19L17 18L18 18L18 17L17 17L17 18L16 18L16 19L17 19L17 20L18 20L18 21L17 21L17 22L16 22L16 21L15 21L15 18L14 18L14 17L13 17L13 18L12 18L12 17L11 17L11 18L10 18L10 17L8 17L8 20L7 20L7 19L5 19L5 18L4 18L4 19L5 19L5 21L4 21L4 22L5 22L5 21L6 21L6 22L8 22L8 21L9 21L9 20L10 20L10 19L11 19L11 20L12 20L12 22L13 22L13 24L14 24L14 25L15 25L15 26L16 26L16 25L17 25L17 28L16 28L16 29L15 29L15 30L16 30L16 29L17 29L17 28L18 28L18 27L19 27L19 28L21 28L21 29L24 29L24 27L23 27L23 26L22 26L22 27L23 27L23 28L21 28L21 27L20 27L20 26L21 26L21 25L23 25L23 24L24 24L24 22L23 22L23 20L25 20L25 18L26 18L26 17L28 17L28 18L27 18L27 19L26 19L26 21L25 21L25 22L26 22L26 21L27 21L27 19L28 19L28 20L30 20L30 19L31 19L31 18L30 18L30 17L31 17L31 16L30 16L30 14L29 14L29 13L31 13L31 12L29 12L29 13L28 13L28 15L27 15L27 14L25 14L25 15L24 15L24 14L23 14L23 15L22 15L22 14L21 14L21 13L20 13L20 12L21 12L21 11L20 11L20 10L21 10L21 9L20 9L20 8L21 8L21 7L22 7L22 6L21 6L21 7L20 7L20 5L19 5L19 4ZM9 6L9 7L10 7L10 6ZM11 6L11 7L12 7L12 9L13 9L13 10L14 10L14 11L13 11L13 12L14 12L14 13L15 13L15 14L16 14L16 13L17 13L17 12L18 12L18 11L16 11L16 12L15 12L15 10L16 10L16 9L17 9L17 10L18 10L18 9L17 9L17 8L16 8L16 9L15 9L15 7L16 7L16 6L15 6L15 7L14 7L14 6L13 6L13 7L12 7L12 6ZM24 6L24 7L25 7L25 6ZM10 8L10 9L11 9L11 8ZM13 8L13 9L14 9L14 10L15 10L15 9L14 9L14 8ZM29 8L29 9L30 9L30 8ZM24 9L24 10L25 10L25 9ZM3 13L3 14L4 14L4 13ZM5 13L5 14L7 14L7 13ZM20 14L20 16L22 16L22 17L23 17L23 18L25 18L25 17L23 17L23 16L22 16L22 15L21 15L21 14ZM25 15L25 16L26 16L26 15ZM28 16L28 17L29 17L29 16ZM6 17L6 18L7 18L7 17ZM9 18L9 19L10 19L10 18ZM13 18L13 19L14 19L14 18ZM28 18L28 19L29 19L29 18ZM6 20L6 21L7 21L7 20ZM13 20L13 21L14 21L14 24L15 24L15 23L16 23L16 24L17 24L17 25L18 25L18 24L17 24L17 23L19 23L19 22L20 22L20 21L19 21L19 22L17 22L17 23L16 23L16 22L15 22L15 21L14 21L14 20ZM32 21L32 22L33 22L33 21ZM21 22L21 24L19 24L19 26L20 26L20 25L21 25L21 24L23 24L23 22ZM5 24L5 25L7 25L7 24ZM25 25L25 28L28 28L28 25ZM26 26L26 27L27 27L27 26ZM11 27L11 28L12 28L12 27ZM8 28L8 33L10 33L10 32L9 32L9 31L10 31L10 30L9 30L9 28ZM30 28L30 29L31 29L31 28ZM25 29L25 30L23 30L23 31L24 31L24 32L25 32L25 30L27 30L27 29ZM30 30L30 31L31 31L31 30ZM0 0L0 7L7 7L7 0ZM1 1L1 6L6 6L6 1ZM2 2L2 5L5 5L5 2ZM26 0L26 7L33 7L33 0ZM27 1L27 6L32 6L32 1ZM28 2L28 5L31 5L31 2ZM0 26L0 33L7 33L7 26ZM1 27L1 32L6 32L6 27ZM2 28L2 31L5 31L5 28Z" fill="#000000"/></g></g></svg>
