<?xml version="1.0" encoding="UTF-8"?>
<svg xmlns="http://www.w3.org/2000/svg" version="1.1" width="400" height="400" viewBox="0 0 400 400"><rect x="0" y="0" width="400" height="400" fill="#fefefe"/><g transform="scale(9.756)"><g transform="translate(4,4)"><path fill-rule="evenodd" d="M11 0L11 1L8 1L8 3L9 3L9 2L10 2L10 4L8 4L8 8L6 8L6 9L4 9L4 8L3 8L3 9L2 9L2 8L0 8L0 12L1 12L1 9L2 9L2 11L3 11L3 12L2 12L2 13L3 13L3 12L5 12L5 11L4 11L4 10L6 10L6 11L7 11L7 10L6 10L6 9L8 9L8 8L10 8L10 9L13 9L13 10L12 10L12 11L11 11L11 10L9 10L9 11L8 11L8 12L6 12L6 13L4 13L4 15L2 15L2 14L1 14L1 13L0 13L0 14L1 14L1 16L0 16L0 18L1 18L1 19L2 19L2 21L1 21L1 22L0 22L0 23L1 23L1 24L0 24L0 25L1 25L1 24L4 24L4 25L7 25L7 24L8 24L8 27L9 27L9 28L10 28L10 30L9 30L9 29L8 29L8 30L9 30L9 31L8 31L8 33L9 33L9 32L11 32L11 33L12 33L12 32L11 32L11 31L10 31L10 30L12 30L12 31L13 31L13 30L14 30L14 31L15 31L15 32L16 32L16 33L17 33L17 32L19 32L19 31L17 31L17 29L18 29L18 30L19 30L19 29L20 29L20 30L21 30L21 31L20 31L20 33L25 33L25 31L26 31L26 32L28 32L28 33L29 33L29 32L30 32L30 25L29 25L29 24L28 24L28 23L27 23L27 22L28 22L28 20L30 20L30 19L29 19L29 18L28 18L28 17L29 17L29 16L30 16L30 15L32 15L32 14L33 14L33 9L32 9L32 8L30 8L30 9L29 9L29 8L26 8L26 13L25 13L25 14L23 14L23 16L25 16L25 19L23 19L23 18L24 18L24 17L22 17L22 15L21 15L21 17L20 17L20 16L18 16L18 14L17 14L17 15L16 15L16 16L14 16L14 15L13 15L13 13L14 13L14 14L15 14L15 13L19 13L19 14L22 14L22 13L23 13L23 12L22 12L22 10L23 10L23 9L24 9L24 8L25 8L25 6L24 6L24 7L23 7L23 6L22 6L22 5L21 5L21 6L20 6L20 5L19 5L19 6L18 6L18 5L17 5L17 6L16 6L16 3L19 3L19 4L20 4L20 3L21 3L21 2L22 2L22 1L23 1L23 2L24 2L24 3L22 3L22 4L23 4L23 5L24 5L24 3L25 3L25 0L19 0L19 1L18 1L18 2L17 2L17 0L15 0L15 4L13 4L13 2L14 2L14 0ZM12 1L12 2L11 2L11 4L12 4L12 2L13 2L13 1ZM19 1L19 2L21 2L21 1ZM11 5L11 7L10 7L10 6L9 6L9 7L10 7L10 8L14 8L14 9L15 9L15 11L16 11L16 12L19 12L19 13L20 13L20 12L21 12L21 11L16 11L16 8L17 8L17 9L18 9L18 10L21 10L21 9L20 9L20 8L19 8L19 7L20 7L20 6L19 6L19 7L18 7L18 6L17 6L17 7L16 7L16 6L15 6L15 7L14 7L14 5ZM12 6L12 7L13 7L13 6ZM21 6L21 7L22 7L22 8L23 8L23 7L22 7L22 6ZM15 7L15 8L16 8L16 7ZM17 7L17 8L18 8L18 9L19 9L19 8L18 8L18 7ZM3 9L3 10L4 10L4 9ZM28 9L28 11L27 11L27 12L28 12L28 13L29 13L29 14L31 14L31 12L32 12L32 10L31 10L31 11L30 11L30 12L29 12L29 9ZM13 10L13 11L14 11L14 10ZM24 10L24 12L25 12L25 10ZM9 11L9 12L8 12L8 13L6 13L6 14L7 14L7 15L4 15L4 17L3 17L3 16L1 16L1 17L3 17L3 18L2 18L2 19L3 19L3 23L4 23L4 24L5 24L5 23L6 23L6 24L7 24L7 23L6 23L6 22L9 22L9 21L10 21L10 22L11 22L11 23L12 23L12 24L10 24L10 23L9 23L9 25L11 25L11 26L12 26L12 27L14 27L14 28L11 28L11 29L12 29L12 30L13 30L13 29L14 29L14 30L15 30L15 31L16 31L16 32L17 32L17 31L16 31L16 29L17 29L17 28L15 28L15 27L17 27L17 25L15 25L15 26L14 26L14 25L12 25L12 24L13 24L13 23L12 23L12 22L13 22L13 21L12 21L12 20L11 20L11 21L10 21L10 19L9 19L9 21L6 21L6 20L8 20L8 17L5 17L5 16L7 16L7 15L8 15L8 13L9 13L9 15L11 15L11 16L10 16L10 17L9 17L9 18L10 18L10 17L12 17L12 18L11 18L11 19L12 19L12 18L13 18L13 17L14 17L14 18L15 18L15 19L13 19L13 20L14 20L14 21L15 21L15 22L14 22L14 24L16 24L16 23L17 23L17 24L18 24L18 25L20 25L20 23L19 23L19 24L18 24L18 23L17 23L17 22L16 22L16 21L19 21L19 22L21 22L21 23L22 23L22 22L23 22L23 23L24 23L24 22L26 22L26 21L27 21L27 20L28 20L28 19L27 19L27 17L26 17L26 20L25 20L25 21L24 21L24 20L23 20L23 21L19 21L19 20L21 20L21 18L20 18L20 17L17 17L17 18L19 18L19 19L18 19L18 20L17 20L17 19L16 19L16 18L15 18L15 17L14 17L14 16L13 16L13 15L11 15L11 14L12 14L12 13L13 13L13 12L11 12L11 11ZM10 13L10 14L11 14L11 13ZM25 14L25 16L29 16L29 15L28 15L28 14L27 14L27 15L26 15L26 14ZM12 16L12 17L13 17L13 16ZM32 16L32 17L33 17L33 16ZM4 17L4 19L5 19L5 20L6 20L6 19L7 19L7 18L6 18L6 19L5 19L5 17ZM31 18L31 19L32 19L32 20L33 20L33 18ZM15 19L15 20L16 20L16 19ZM4 21L4 23L5 23L5 21ZM29 21L29 22L31 22L31 23L33 23L33 21ZM25 23L25 24L26 24L26 23ZM23 24L23 25L22 25L22 26L21 26L21 27L22 27L22 29L24 29L24 30L23 30L23 31L22 31L22 32L24 32L24 30L25 30L25 29L24 29L24 28L23 28L23 27L24 27L24 24ZM25 25L25 28L28 28L28 25ZM31 25L31 27L32 27L32 26L33 26L33 25ZM9 26L9 27L10 27L10 26ZM18 26L18 29L19 29L19 27L20 27L20 26ZM26 26L26 27L27 27L27 26ZM14 28L14 29L15 29L15 28ZM20 28L20 29L21 29L21 28ZM27 29L27 30L26 30L26 31L28 31L28 32L29 32L29 31L28 31L28 29ZM31 29L31 31L33 31L33 29ZM13 32L13 33L14 33L14 32ZM31 32L31 33L32 33L32 32ZM0 0L0 7L7 7L7 0ZM1 1L1 6L6 6L6 1ZM2 2L2 5L5 5L5 2ZM26 0L26 7L33 7L33 0ZM27 1L27 6L32 6L32 1ZM28 2L28 5L31 5L31 2ZM0 26L0 33L7 33L7 26ZM1 27L1 32L6 32L6 27ZM2 28L2 31L5 31L5 28Z" fill="#000000"/></g></g></svg>
