<?xml version="1.0" encoding="UTF-8"?>
<svg xmlns="http://www.w3.org/2000/svg" version="1.1" width="400" height="400" viewBox="0 0 400 400"><rect x="0" y="0" width="400" height="400" fill="#fefefe"/><g transform="scale(9.756)"><g transform="translate(4,4)"><path fill-rule="evenodd" d="M8 0L8 4L9 4L9 5L8 5L8 7L9 7L9 8L10 8L10 7L11 7L11 5L12 5L12 7L13 7L13 5L14 5L14 7L15 7L15 8L14 8L14 9L13 9L13 8L12 8L12 9L11 9L11 11L10 11L10 13L11 13L11 14L9 14L9 10L10 10L10 9L7 9L7 8L4 8L4 10L3 10L3 9L2 9L2 8L0 8L0 12L1 12L1 14L0 14L0 15L1 15L1 16L0 16L0 17L1 17L1 16L3 16L3 17L4 17L4 18L3 18L3 19L1 19L1 18L0 18L0 19L1 19L1 20L0 20L0 22L1 22L1 20L4 20L4 19L5 19L5 17L4 17L4 16L6 16L6 17L7 17L7 18L6 18L6 19L7 19L7 18L8 18L8 19L9 19L9 18L10 18L10 17L11 17L11 19L10 19L10 20L5 20L5 21L7 21L7 22L5 22L5 25L8 25L8 26L9 26L9 27L8 27L8 29L9 29L9 28L12 28L12 26L14 26L14 25L15 25L15 28L14 28L14 29L10 29L10 30L9 30L9 31L8 31L8 33L10 33L10 32L9 32L9 31L10 31L10 30L11 30L11 33L12 33L12 31L13 31L13 30L14 30L14 29L15 29L15 32L14 32L14 33L15 33L15 32L16 32L16 31L17 31L17 33L18 33L18 32L19 32L19 33L20 33L20 32L21 32L21 33L22 33L22 32L23 32L23 31L24 31L24 33L25 33L25 32L26 32L26 33L27 33L27 32L28 32L28 31L29 31L29 33L30 33L30 31L32 31L32 30L33 30L33 29L30 29L30 27L31 27L31 28L32 28L32 26L31 26L31 25L32 25L32 24L33 24L33 23L31 23L31 22L32 22L32 21L33 21L33 19L32 19L32 18L31 18L31 17L30 17L30 18L29 18L29 19L27 19L27 18L26 18L26 17L29 17L29 16L30 16L30 14L31 14L31 16L32 16L32 17L33 17L33 16L32 16L32 14L31 14L31 13L29 13L29 10L28 10L28 12L27 12L27 11L25 11L25 9L22 9L22 7L23 7L23 6L22 6L22 7L21 7L21 6L20 6L20 5L21 5L21 3L22 3L22 2L23 2L23 5L24 5L24 7L25 7L25 0L23 0L23 1L22 1L22 0L20 0L20 1L18 1L18 2L16 2L16 3L15 3L15 4L14 4L14 3L12 3L12 4L9 4L9 3L11 3L11 2L9 2L9 0ZM10 0L10 1L12 1L12 2L13 2L13 0ZM15 0L15 1L14 1L14 2L15 2L15 1L16 1L16 0ZM21 1L21 2L22 2L22 1ZM23 1L23 2L24 2L24 1ZM17 3L17 4L16 4L16 5L15 5L15 7L16 7L16 8L15 8L15 9L14 9L14 11L13 11L13 10L12 10L12 11L11 11L11 13L12 13L12 15L10 15L10 16L11 16L11 17L12 17L12 16L13 16L13 17L14 17L14 19L13 19L13 18L12 18L12 19L13 19L13 21L14 21L14 22L12 22L12 23L11 23L11 22L9 22L9 21L8 21L8 23L6 23L6 24L8 24L8 23L9 23L9 26L10 26L10 27L11 27L11 26L10 26L10 24L11 24L11 25L12 25L12 24L13 24L13 25L14 25L14 22L15 22L15 21L16 21L16 20L17 20L17 19L18 19L18 21L17 21L17 23L15 23L15 24L16 24L16 25L17 25L17 26L16 26L16 28L15 28L15 29L17 29L17 30L19 30L19 31L22 31L22 30L24 30L24 31L26 31L26 32L27 32L27 31L28 31L28 29L27 29L27 31L26 31L26 29L25 29L25 30L24 30L24 24L25 24L25 23L26 23L26 24L27 24L27 23L26 23L26 22L27 22L27 21L28 21L28 23L29 23L29 22L31 22L31 20L32 20L32 19L30 19L30 21L28 21L28 20L27 20L27 19L26 19L26 20L27 20L27 21L25 21L25 23L23 23L23 20L22 20L22 25L21 25L21 23L20 23L20 21L21 21L21 20L20 20L20 21L19 21L19 19L20 19L20 17L21 17L21 18L22 18L22 17L25 17L25 16L26 16L26 15L27 15L27 16L28 16L28 15L27 15L27 14L29 14L29 13L25 13L25 12L23 12L23 10L22 10L22 9L19 9L19 10L18 10L18 9L17 9L17 7L18 7L18 8L20 8L20 6L19 6L19 7L18 7L18 5L20 5L20 3ZM17 4L17 5L18 5L18 4ZM9 5L9 7L10 7L10 5ZM16 6L16 7L17 7L17 6ZM27 8L27 9L28 9L28 8ZM29 8L29 9L31 9L31 12L32 12L32 13L33 13L33 12L32 12L32 9L33 9L33 8ZM5 9L5 10L4 10L4 14L5 14L5 15L6 15L6 16L8 16L8 18L9 18L9 14L7 14L7 13L6 13L6 14L5 14L5 12L8 12L8 10L7 10L7 9ZM15 9L15 12L14 12L14 13L13 13L13 14L14 14L14 13L15 13L15 15L16 15L16 14L17 14L17 16L14 16L14 17L16 17L16 18L15 18L15 20L14 20L14 21L15 21L15 20L16 20L16 19L17 19L17 17L18 17L18 18L19 18L19 16L18 16L18 15L19 15L19 13L20 13L20 14L21 14L21 17L22 17L22 16L25 16L25 15L26 15L26 14L25 14L25 13L22 13L22 11L21 11L21 13L20 13L20 12L18 12L18 11L16 11L16 10L17 10L17 9ZM1 10L1 11L2 11L2 12L3 12L3 10ZM5 10L5 11L7 11L7 10ZM12 11L12 12L13 12L13 11ZM16 12L16 13L17 13L17 12ZM2 13L2 14L1 14L1 15L2 15L2 14L3 14L3 13ZM6 14L6 15L7 15L7 14ZM24 14L24 15L25 15L25 14ZM10 20L10 21L11 21L11 20ZM2 21L2 22L3 22L3 21ZM2 23L2 24L0 24L0 25L3 25L3 24L4 24L4 23ZM17 23L17 25L18 25L18 24L19 24L19 25L20 25L20 26L21 26L21 27L19 27L19 26L17 26L17 29L18 29L18 27L19 27L19 29L20 29L20 30L21 30L21 29L23 29L23 27L22 27L22 26L23 26L23 25L22 25L22 26L21 26L21 25L20 25L20 23ZM30 23L30 24L29 24L29 26L30 26L30 25L31 25L31 23ZM25 25L25 28L28 28L28 25ZM26 26L26 27L27 27L27 26ZM20 28L20 29L21 29L21 28ZM29 30L29 31L30 31L30 30ZM32 32L32 33L33 33L33 32ZM0 0L0 7L7 7L7 0ZM1 1L1 6L6 6L6 1ZM2 2L2 5L5 5L5 2ZM26 0L26 7L33 7L33 0ZM27 1L27 6L32 6L32 1ZM28 2L28 5L31 5L31 2ZM0 26L0 33L7 33L7 26ZM1 27L1 32L6 32L6 27ZM2 28L2 31L5 31L5 28Z" fill="#000000"/></g></g></svg>
