<?xml version="1.0" encoding="UTF-8"?>
<svg xmlns="http://www.w3.org/2000/svg" version="1.1" width="400" height="400" viewBox="0 0 400 400"><rect x="0" y="0" width="400" height="400" fill="#fefefe"/><g transform="scale(9.756)"><g transform="translate(4,4)"><path fill-rule="evenodd" d="M8 0L8 1L9 1L9 2L8 2L8 5L9 5L9 4L11 4L11 5L10 5L10 10L9 10L9 8L8 8L8 9L7 9L7 8L6 8L6 9L7 9L7 10L6 10L6 11L7 11L7 12L6 12L6 13L4 13L4 12L3 12L3 10L1 10L1 11L2 11L2 12L0 12L0 13L4 13L4 15L3 15L3 14L1 14L1 15L2 15L2 16L3 16L3 17L4 17L4 18L3 18L3 19L2 19L2 17L1 17L1 16L0 16L0 22L1 22L1 21L2 21L2 22L3 22L3 23L1 23L1 24L0 24L0 25L1 25L1 24L2 24L2 25L3 25L3 24L4 24L4 25L5 25L5 24L6 24L6 25L7 25L7 24L6 24L6 23L7 23L7 22L6 22L6 21L8 21L8 20L9 20L9 19L11 19L11 22L9 22L9 23L10 23L10 24L8 24L8 26L9 26L9 28L11 28L11 29L8 29L8 33L9 33L9 30L10 30L10 31L11 31L11 32L10 32L10 33L11 33L11 32L12 32L12 33L13 33L13 32L12 32L12 31L11 31L11 30L12 30L12 29L13 29L13 30L15 30L15 31L14 31L14 32L15 32L15 31L16 31L16 33L23 33L23 32L21 32L21 31L20 31L20 32L19 32L19 31L16 31L16 29L15 29L15 28L17 28L17 27L15 27L15 28L12 28L12 27L14 27L14 26L12 26L12 27L10 27L10 26L11 26L11 25L10 25L10 24L12 24L12 25L14 25L14 24L16 24L16 23L13 23L13 24L12 24L12 21L13 21L13 19L14 19L14 20L15 20L15 19L16 19L16 20L17 20L17 21L16 21L16 22L17 22L17 21L19 21L19 22L20 22L20 23L18 23L18 24L17 24L17 25L15 25L15 26L18 26L18 30L19 30L19 27L20 27L20 26L21 26L21 24L20 24L20 23L21 23L21 22L20 22L20 21L23 21L23 22L22 22L22 23L23 23L23 24L22 24L22 25L23 25L23 29L25 29L25 30L23 30L23 31L24 31L24 32L25 32L25 31L26 31L26 32L27 32L27 30L26 30L26 29L29 29L29 31L28 31L28 33L31 33L31 32L30 32L30 29L31 29L31 31L32 31L32 32L33 32L33 31L32 31L32 29L33 29L33 27L31 27L31 26L32 26L32 25L33 25L33 21L32 21L32 20L30 20L30 19L29 19L29 17L32 17L32 18L31 18L31 19L32 19L32 18L33 18L33 16L32 16L32 15L30 15L30 16L28 16L28 15L29 15L29 14L28 14L28 15L27 15L27 16L26 16L26 13L25 13L25 16L22 16L22 15L21 15L21 12L20 12L20 11L19 11L19 12L17 12L17 9L18 9L18 10L20 10L20 9L21 9L21 10L23 10L23 11L22 11L22 13L23 13L23 12L24 12L24 11L25 11L25 12L26 12L26 11L27 11L27 10L28 10L28 13L29 13L29 12L30 12L30 11L29 11L29 10L28 10L28 9L31 9L31 8L28 8L28 9L26 9L26 8L25 8L25 10L24 10L24 9L23 9L23 4L21 4L21 2L18 2L18 0L17 0L17 2L15 2L15 0L12 0L12 1L11 1L11 0L10 0L10 1L9 1L9 0ZM19 0L19 1L20 1L20 0ZM23 0L23 1L22 1L22 2L24 2L24 5L25 5L25 0ZM11 2L11 4L12 4L12 3L13 3L13 2ZM14 2L14 4L13 4L13 5L12 5L12 6L11 6L11 8L12 8L12 6L13 6L13 10L14 10L14 9L15 9L15 11L14 11L14 13L13 13L13 14L12 14L12 16L11 16L11 13L12 13L12 12L13 12L13 11L11 11L11 13L9 13L9 14L8 14L8 13L6 13L6 14L5 14L5 15L4 15L4 16L5 16L5 18L9 18L9 17L6 17L6 16L11 16L11 19L13 19L13 16L16 16L16 15L17 15L17 17L15 17L15 18L14 18L14 19L15 19L15 18L16 18L16 19L17 19L17 18L19 18L19 19L18 19L18 20L19 20L19 19L20 19L20 20L22 20L22 19L21 19L21 18L22 18L22 17L21 17L21 16L20 16L20 15L19 15L19 16L18 16L18 14L19 14L19 13L20 13L20 12L19 12L19 13L17 13L17 12L16 12L16 5L17 5L17 7L18 7L18 6L19 6L19 7L20 7L20 8L22 8L22 5L20 5L20 6L19 6L19 5L17 5L17 3L18 3L18 2L17 2L17 3L16 3L16 5L14 5L14 4L15 4L15 2ZM19 3L19 4L20 4L20 3ZM8 6L8 7L9 7L9 6ZM14 6L14 8L15 8L15 6ZM20 6L20 7L21 7L21 6ZM24 6L24 7L25 7L25 6ZM0 8L0 9L4 9L4 10L5 10L5 9L4 9L4 8ZM18 8L18 9L19 9L19 8ZM32 8L32 10L31 10L31 11L33 11L33 8ZM11 9L11 10L12 10L12 9ZM7 10L7 11L8 11L8 12L9 12L9 10ZM25 10L25 11L26 11L26 10ZM31 12L31 14L32 14L32 12ZM15 13L15 14L17 14L17 13ZM6 14L6 15L5 15L5 16L6 16L6 15L8 15L8 14ZM9 14L9 15L10 15L10 14ZM13 14L13 15L14 15L14 14ZM25 16L25 17L24 17L24 18L23 18L23 19L25 19L25 17L26 17L26 16ZM27 17L27 20L24 20L24 21L25 21L25 22L24 22L24 24L23 24L23 25L24 25L24 24L26 24L26 21L27 21L27 20L28 20L28 23L29 23L29 25L30 25L30 26L29 26L29 29L30 29L30 26L31 26L31 25L32 25L32 21L29 21L29 19L28 19L28 17ZM3 19L3 20L2 20L2 21L4 21L4 23L6 23L6 22L5 22L5 20L8 20L8 19L5 19L5 20L4 20L4 19ZM14 21L14 22L15 22L15 21ZM29 22L29 23L31 23L31 22ZM18 24L18 25L19 25L19 24ZM9 25L9 26L10 26L10 25ZM25 25L25 28L28 28L28 25ZM26 26L26 27L27 27L27 26ZM21 27L21 29L22 29L22 27ZM0 0L0 7L7 7L7 0ZM1 1L1 6L6 6L6 1ZM2 2L2 5L5 5L5 2ZM26 0L26 7L33 7L33 0ZM27 1L27 6L32 6L32 1ZM28 2L28 5L31 5L31 2ZM0 26L0 33L7 33L7 26ZM1 27L1 32L6 32L6 27ZM2 28L2 31L5 31L5 28Z" fill="#000000"/></g></g></svg>
