<?xml version="1.0" encoding="UTF-8"?>
<svg xmlns="http://www.w3.org/2000/svg" version="1.1" width="400" height="400" viewBox="0 0 400 400"><rect x="0" y="0" width="400" height="400" fill="#fefefe"/><g transform="scale(9.756)"><g transform="translate(4,4)"><path fill-rule="evenodd" d="M8 0L8 4L9 4L9 5L8 5L8 7L9 7L9 8L10 8L10 7L11 7L11 5L12 5L12 7L13 7L13 5L14 5L14 7L15 7L15 8L14 8L14 9L13 9L13 8L12 8L12 9L11 9L11 11L10 11L10 13L11 13L11 15L7 15L7 14L9 14L9 11L8 11L8 12L5 12L5 11L4 11L4 10L5 10L5 9L7 9L7 8L4 8L4 10L2 10L2 11L4 11L4 13L3 13L3 14L1 14L1 15L0 15L0 17L1 17L1 19L0 19L0 22L1 22L1 21L2 21L2 20L3 20L3 21L4 21L4 22L2 22L2 23L3 23L3 25L4 25L4 23L5 23L5 24L6 24L6 25L8 25L8 26L9 26L9 27L8 27L8 29L10 29L10 30L9 30L9 31L8 31L8 33L9 33L9 31L10 31L10 30L11 30L11 32L10 32L10 33L12 33L12 30L14 30L14 29L15 29L15 32L14 32L14 33L15 33L15 32L16 32L16 31L17 31L17 33L18 33L18 32L19 32L19 33L20 33L20 31L21 31L21 33L22 33L22 32L23 32L23 31L24 31L24 33L26 33L26 32L25 32L25 31L24 31L24 30L25 30L25 29L26 29L26 31L29 31L29 33L30 33L30 31L32 31L32 30L33 30L33 29L30 29L30 27L31 27L31 28L32 28L32 26L31 26L31 25L32 25L32 24L33 24L33 23L31 23L31 22L32 22L32 21L33 21L33 19L32 19L32 18L31 18L31 17L30 17L30 18L29 18L29 19L28 19L28 18L26 18L26 17L29 17L29 16L30 16L30 14L31 14L31 16L32 16L32 17L33 17L33 16L32 16L32 14L31 14L31 13L29 13L29 12L28 12L28 11L29 11L29 10L27 10L27 12L26 12L26 13L24 13L24 10L25 10L25 11L26 11L26 10L25 10L25 9L22 9L22 8L24 8L24 7L25 7L25 6L24 6L24 7L23 7L23 6L22 6L22 5L21 5L21 3L22 3L22 2L23 2L23 1L25 1L25 0L23 0L23 1L22 1L22 0L20 0L20 1L18 1L18 2L16 2L16 3L15 3L15 4L14 4L14 3L12 3L12 4L9 4L9 3L11 3L11 2L9 2L9 0ZM10 0L10 1L12 1L12 2L13 2L13 0ZM15 0L15 1L14 1L14 2L15 2L15 1L16 1L16 0ZM21 1L21 2L18 2L18 3L17 3L17 4L16 4L16 5L15 5L15 7L16 7L16 8L15 8L15 9L14 9L14 11L13 11L13 10L12 10L12 11L11 11L11 13L12 13L12 15L11 15L11 17L12 17L12 16L13 16L13 17L14 17L14 19L13 19L13 18L12 18L12 19L13 19L13 21L14 21L14 22L15 22L15 21L16 21L16 20L17 20L17 19L18 19L18 21L17 21L17 23L13 23L13 22L12 22L12 23L11 23L11 22L10 22L10 23L11 23L11 25L10 25L10 24L9 24L9 23L8 23L8 25L9 25L9 26L11 26L11 25L12 25L12 24L13 24L13 25L14 25L14 26L12 26L12 27L10 27L10 29L14 29L14 28L15 28L15 29L17 29L17 30L19 30L19 31L20 31L20 29L21 29L21 31L22 31L22 30L23 30L23 29L24 29L24 28L23 28L23 29L21 29L21 28L20 28L20 29L19 29L19 27L22 27L22 25L24 25L24 23L25 23L25 24L26 24L26 23L27 23L27 21L28 21L28 22L31 22L31 20L32 20L32 19L30 19L30 21L28 21L28 19L26 19L26 20L27 20L27 21L25 21L25 22L24 22L24 23L23 23L23 19L22 19L22 25L19 25L19 24L21 24L21 23L20 23L20 22L21 22L21 21L19 21L19 19L20 19L20 20L21 20L21 19L20 19L20 18L23 18L23 17L25 17L25 16L23 16L23 17L19 17L19 18L18 18L18 17L17 17L17 19L16 19L16 20L15 20L15 18L16 18L16 17L14 17L14 16L17 16L17 14L16 14L16 15L15 15L15 13L14 13L14 12L15 12L15 9L17 9L17 10L16 10L16 11L18 11L18 12L19 12L19 11L20 11L20 10L21 10L21 11L22 11L22 12L23 12L23 10L22 10L22 9L19 9L19 10L18 10L18 9L17 9L17 7L18 7L18 8L19 8L19 7L20 7L20 8L21 8L21 7L22 7L22 6L21 6L21 5L20 5L20 3L21 3L21 2L22 2L22 1ZM24 2L24 3L23 3L23 5L25 5L25 2ZM18 3L18 5L19 5L19 6L18 6L18 7L19 7L19 6L20 6L20 7L21 7L21 6L20 6L20 5L19 5L19 3ZM9 5L9 7L10 7L10 5ZM16 6L16 7L17 7L17 6ZM0 8L0 13L2 13L2 12L1 12L1 9L2 9L2 8ZM27 8L27 9L28 9L28 8ZM29 8L29 9L31 9L31 12L32 12L32 13L33 13L33 12L32 12L32 9L33 9L33 8ZM9 9L9 10L10 10L10 9ZM6 10L6 11L7 11L7 10ZM12 11L12 12L13 12L13 11ZM16 12L16 13L17 13L17 12ZM20 12L20 13L19 13L19 15L18 15L18 16L20 16L20 15L23 15L23 13L21 13L21 12ZM4 13L4 14L3 14L3 15L4 15L4 17L3 17L3 16L2 16L2 15L1 15L1 16L2 16L2 17L3 17L3 20L4 20L4 21L6 21L6 22L7 22L7 21L9 21L9 20L10 20L10 19L11 19L11 18L10 18L10 19L9 19L9 18L8 18L8 16L7 16L7 15L6 15L6 16L5 16L5 15L4 15L4 14L5 14L5 13ZM6 13L6 14L7 14L7 13ZM13 13L13 14L14 14L14 13ZM20 13L20 14L21 14L21 13ZM26 13L26 16L27 16L27 15L28 15L28 14L29 14L29 13ZM24 14L24 15L25 15L25 14ZM6 16L6 17L4 17L4 20L6 20L6 21L7 21L7 20L8 20L8 18L6 18L6 17L7 17L7 16ZM9 16L9 17L10 17L10 16ZM6 19L6 20L7 20L7 19ZM14 20L14 21L15 21L15 20ZM6 23L6 24L7 24L7 23ZM17 23L17 25L16 25L16 24L14 24L14 25L15 25L15 28L16 28L16 26L17 26L17 29L18 29L18 27L19 27L19 26L17 26L17 25L18 25L18 24L19 24L19 23ZM28 23L28 24L29 24L29 26L30 26L30 25L31 25L31 23L30 23L30 24L29 24L29 23ZM0 24L0 25L2 25L2 24ZM25 25L25 28L28 28L28 25ZM23 26L23 27L24 27L24 26ZM26 26L26 27L27 27L27 26ZM12 27L12 28L13 28L13 27ZM29 30L29 31L30 31L30 30ZM32 32L32 33L33 33L33 32ZM0 0L0 7L7 7L7 0ZM1 1L1 6L6 6L6 1ZM2 2L2 5L5 5L5 2ZM26 0L26 7L33 7L33 0ZM27 1L27 6L32 6L32 1ZM28 2L28 5L31 5L31 2ZM0 26L0 33L7 33L7 26ZM1 27L1 32L6 32L6 27ZM2 28L2 31L5 31L5 28Z" fill="#000000"/></g></g></svg>
