<?xml version="1.0" encoding="UTF-8"?>
<svg xmlns="http://www.w3.org/2000/svg" version="1.1" width="400" height="400" viewBox="0 0 400 400"><rect x="0" y="0" width="400" height="400" fill="#fefefe"/><g transform="scale(9.756)"><g transform="translate(4,4)"><path fill-rule="evenodd" d="M8 0L8 4L10 4L10 3L11 3L11 4L12 4L12 2L11 2L11 0ZM12 0L12 1L13 1L13 0ZM15 0L15 1L14 1L14 2L15 2L15 1L16 1L16 0ZM20 0L20 1L17 1L17 2L16 2L16 3L15 3L15 4L14 4L14 3L13 3L13 5L11 5L11 6L10 6L10 7L9 7L9 5L8 5L8 7L9 7L9 8L10 8L10 7L11 7L11 6L12 6L12 8L11 8L11 9L8 9L8 10L11 10L11 11L10 11L10 13L8 13L8 12L9 12L9 11L8 11L8 12L6 12L6 11L7 11L7 10L4 10L4 9L7 9L7 8L4 8L4 9L3 9L3 10L2 10L2 8L0 8L0 9L1 9L1 12L2 12L2 11L3 11L3 13L0 13L0 16L1 16L1 15L2 15L2 17L3 17L3 15L5 15L5 14L6 14L6 15L7 15L7 16L5 16L5 17L4 17L4 20L2 20L2 21L0 21L0 22L4 22L4 23L3 23L3 24L4 24L4 25L5 25L5 24L6 24L6 25L8 25L8 26L9 26L9 27L8 27L8 29L9 29L9 30L10 30L10 31L12 31L12 32L13 32L13 30L14 30L14 29L15 29L15 32L14 32L14 33L15 33L15 32L16 32L16 31L17 31L17 33L18 33L18 32L19 32L19 33L20 33L20 32L21 32L21 33L22 33L22 30L23 30L23 29L22 29L22 26L23 26L23 25L22 25L22 20L23 20L23 24L24 24L24 29L25 29L25 31L23 31L23 33L25 33L25 32L26 32L26 33L27 33L27 32L26 32L26 31L27 31L27 29L28 29L28 31L29 31L29 33L30 33L30 31L32 31L32 30L33 30L33 27L32 27L32 26L31 26L31 25L32 25L32 24L33 24L33 23L31 23L31 22L32 22L32 21L33 21L33 19L32 19L32 18L31 18L31 17L30 17L30 18L28 18L28 17L29 17L29 16L30 16L30 14L31 14L31 16L32 16L32 17L33 17L33 16L32 16L32 14L31 14L31 13L29 13L29 10L28 10L28 13L27 13L27 11L24 11L24 10L25 10L25 9L23 9L23 8L22 8L22 7L23 7L23 6L22 6L22 7L21 7L21 5L24 5L24 7L25 7L25 3L24 3L24 2L25 2L25 0L23 0L23 1L22 1L22 0ZM20 1L20 2L18 2L18 3L17 3L17 4L16 4L16 5L15 5L15 7L14 7L14 5L13 5L13 8L12 8L12 9L11 9L11 10L12 10L12 9L14 9L14 11L12 11L12 12L11 12L11 13L10 13L10 14L11 14L11 16L12 16L12 15L13 15L13 17L14 17L14 19L13 19L13 20L12 20L12 23L11 23L11 25L12 25L12 24L13 24L13 25L14 25L14 26L12 26L12 27L13 27L13 28L11 28L11 26L10 26L10 28L9 28L9 29L14 29L14 28L15 28L15 29L17 29L17 30L19 30L19 32L20 32L20 30L22 30L22 29L19 29L19 28L20 28L20 25L21 25L21 26L22 26L22 25L21 25L21 22L20 22L20 21L21 21L21 20L20 20L20 21L19 21L19 19L21 19L21 18L22 18L22 19L23 19L23 17L25 17L25 16L23 16L23 17L21 17L21 16L20 16L20 17L19 17L19 18L18 18L18 17L17 17L17 19L16 19L16 20L15 20L15 18L16 18L16 17L14 17L14 16L17 16L17 14L16 14L16 15L15 15L15 13L14 13L14 12L15 12L15 9L17 9L17 10L16 10L16 11L18 11L18 12L20 12L20 13L19 13L19 15L18 15L18 16L19 16L19 15L20 15L20 13L21 13L21 15L23 15L23 13L25 13L25 14L24 14L24 15L26 15L26 16L27 16L27 17L26 17L26 18L27 18L27 17L28 17L28 16L27 16L27 13L25 13L25 12L23 12L23 9L19 9L19 10L18 10L18 9L17 9L17 7L18 7L18 6L19 6L19 7L20 7L20 6L19 6L19 5L20 5L20 4L19 4L19 5L18 5L18 3L21 3L21 4L22 4L22 3L23 3L23 4L24 4L24 3L23 3L23 2L24 2L24 1L23 1L23 2L22 2L22 1ZM9 2L9 3L10 3L10 2ZM21 2L21 3L22 3L22 2ZM16 6L16 7L15 7L15 8L14 8L14 9L15 9L15 8L16 8L16 7L17 7L17 6ZM27 8L27 9L28 9L28 8ZM29 8L29 9L31 9L31 12L32 12L32 13L33 13L33 12L32 12L32 9L33 9L33 8ZM20 10L20 12L21 12L21 13L23 13L23 12L22 12L22 10ZM4 12L4 13L3 13L3 14L5 14L5 12ZM12 12L12 13L13 13L13 14L14 14L14 13L13 13L13 12ZM16 12L16 13L17 13L17 12ZM6 13L6 14L7 14L7 13ZM28 13L28 15L29 15L29 13ZM8 15L8 18L10 18L10 19L11 19L11 18L12 18L12 17L10 17L10 16L9 16L9 15ZM0 17L0 20L1 20L1 19L2 19L2 18L1 18L1 17ZM5 17L5 18L7 18L7 17ZM20 17L20 18L21 18L21 17ZM5 19L5 20L4 20L4 22L5 22L5 20L7 20L7 21L6 21L6 22L7 22L7 23L6 23L6 24L8 24L8 25L9 25L9 24L8 24L8 22L9 22L9 23L10 23L10 22L11 22L11 21L10 21L10 20L9 20L9 19L8 19L8 20L7 20L7 19ZM17 19L17 20L16 20L16 21L15 21L15 20L14 20L14 21L13 21L13 22L14 22L14 25L15 25L15 28L16 28L16 26L17 26L17 29L18 29L18 27L19 27L19 26L17 26L17 25L18 25L18 24L19 24L19 23L17 23L17 21L18 21L18 19ZM26 19L26 20L25 20L25 21L26 21L26 22L25 22L25 23L24 23L24 24L25 24L25 23L26 23L26 24L28 24L28 23L27 23L27 22L31 22L31 20L32 20L32 19L30 19L30 21L26 21L26 20L28 20L28 19ZM8 20L8 21L9 21L9 22L10 22L10 21L9 21L9 20ZM14 21L14 22L15 22L15 21ZM15 23L15 24L16 24L16 25L17 25L17 23ZM30 23L30 24L29 24L29 26L30 26L30 25L31 25L31 23ZM0 24L0 25L2 25L2 24ZM25 25L25 28L28 28L28 25ZM26 26L26 27L27 27L27 26ZM30 27L30 29L32 29L32 28L31 28L31 27ZM29 30L29 31L30 31L30 30ZM8 31L8 33L10 33L10 32L9 32L9 31ZM32 32L32 33L33 33L33 32ZM0 0L0 7L7 7L7 0ZM1 1L1 6L6 6L6 1ZM2 2L2 5L5 5L5 2ZM26 0L26 7L33 7L33 0ZM27 1L27 6L32 6L32 1ZM28 2L28 5L31 5L31 2ZM0 26L0 33L7 33L7 26ZM1 27L1 32L6 32L6 27ZM2 28L2 31L5 31L5 28Z" fill="#000000"/></g></g></svg>
