<?xml version="1.0" encoding="UTF-8"?>
<svg xmlns="http://www.w3.org/2000/svg" version="1.1" width="400" height="400" viewBox="0 0 400 400"><rect x="0" y="0" width="400" height="400" fill="#fefefe"/><g transform="scale(9.756)"><g transform="translate(4,4)"><path fill-rule="evenodd" d="M8 0L8 1L9 1L9 2L10 2L10 3L11 3L11 1L13 1L13 0L11 0L11 1L9 1L9 0ZM16 0L16 1L18 1L18 3L17 3L17 2L16 2L16 4L17 4L17 5L16 5L16 8L15 8L15 6L14 6L14 5L15 5L15 3L14 3L14 2L15 2L15 1L14 1L14 2L12 2L12 4L11 4L11 5L10 5L10 4L9 4L9 5L10 5L10 8L9 8L9 6L8 6L8 8L9 8L9 10L10 10L10 11L7 11L7 10L8 10L8 9L7 9L7 8L6 8L6 9L5 9L5 8L3 8L3 9L2 9L2 8L0 8L0 10L1 10L1 11L0 11L0 14L1 14L1 12L2 12L2 15L0 15L0 17L1 17L1 18L0 18L0 19L1 19L1 18L2 18L2 17L3 17L3 18L4 18L4 19L3 19L3 21L0 21L0 25L2 25L2 24L3 24L3 25L4 25L4 24L6 24L6 25L7 25L7 24L6 24L6 23L7 23L7 22L8 22L8 23L9 23L9 24L8 24L8 26L10 26L10 27L9 27L9 28L8 28L8 30L9 30L9 31L8 31L8 33L9 33L9 32L10 32L10 33L11 33L11 32L12 32L12 30L13 30L13 32L14 32L14 31L16 31L16 32L15 32L15 33L18 33L18 32L17 32L17 31L18 31L18 29L17 29L17 30L16 30L16 28L15 28L15 27L16 27L16 26L17 26L17 24L18 24L18 23L19 23L19 22L20 22L20 24L19 24L19 25L21 25L21 23L23 23L23 26L21 26L21 27L24 27L24 28L23 28L23 29L27 29L27 31L25 31L25 30L23 30L23 31L25 31L25 32L22 32L22 33L26 33L26 32L27 32L27 31L29 31L29 30L28 30L28 29L29 29L29 25L30 25L30 26L31 26L31 25L32 25L32 24L33 24L33 22L32 22L32 23L30 23L30 22L29 22L29 21L30 21L30 20L31 20L31 21L32 21L32 19L33 19L33 15L31 15L31 13L30 13L30 12L32 12L32 13L33 13L33 12L32 12L32 11L33 11L33 10L30 10L30 12L29 12L29 14L27 14L27 15L25 15L25 14L26 14L26 13L27 13L27 12L26 12L26 13L24 13L24 12L25 12L25 10L26 10L26 11L27 11L27 10L26 10L26 9L27 9L27 8L26 8L26 9L24 9L24 8L25 8L25 6L24 6L24 5L25 5L25 4L24 4L24 5L22 5L22 2L23 2L23 3L24 3L24 2L23 2L23 0L22 0L22 2L21 2L21 3L20 3L20 1L21 1L21 0L20 0L20 1L18 1L18 0ZM24 0L24 1L25 1L25 0ZM18 3L18 4L20 4L20 5L19 5L19 7L18 7L18 5L17 5L17 8L20 8L20 10L19 10L19 11L21 11L21 12L20 12L20 13L19 13L19 14L16 14L16 16L15 16L15 18L17 18L17 20L16 20L16 19L15 19L15 20L13 20L13 19L14 19L14 17L13 17L13 18L12 18L12 19L11 19L11 20L10 20L10 19L8 19L8 17L9 17L9 18L11 18L11 17L12 17L12 16L14 16L14 15L15 15L15 13L16 13L16 11L13 11L13 10L15 10L15 8L13 8L13 7L14 7L14 6L13 6L13 7L12 7L12 5L14 5L14 4L12 4L12 5L11 5L11 7L12 7L12 9L10 9L10 10L12 10L12 11L13 11L13 13L11 13L11 12L10 12L10 13L9 13L9 12L8 12L8 13L6 13L6 14L10 14L10 15L11 15L11 14L13 14L13 13L14 13L14 15L12 15L12 16L10 16L10 17L9 17L9 16L7 16L7 15L5 15L5 14L3 14L3 15L2 15L2 16L3 16L3 17L4 17L4 18L5 18L5 19L6 19L6 20L5 20L5 21L3 21L3 23L5 23L5 22L7 22L7 21L8 21L8 20L10 20L10 21L11 21L11 20L12 20L12 22L13 22L13 25L14 25L14 27L13 27L13 26L11 26L11 27L10 27L10 28L11 28L11 29L9 29L9 30L10 30L10 31L11 31L11 30L12 30L12 29L13 29L13 30L14 30L14 29L13 29L13 28L14 28L14 27L15 27L15 25L16 25L16 24L17 24L17 23L18 23L18 22L19 22L19 21L20 21L20 20L18 20L18 18L17 18L17 17L18 17L18 15L19 15L19 17L20 17L20 19L21 19L21 21L22 21L22 20L26 20L26 22L25 22L25 24L27 24L27 23L29 23L29 22L27 22L27 20L28 20L28 21L29 21L29 20L30 20L30 19L32 19L32 18L30 18L30 19L28 19L28 16L27 16L27 18L26 18L26 16L25 16L25 15L24 15L24 14L22 14L22 11L23 11L23 12L24 12L24 11L23 11L23 10L22 10L22 9L23 9L23 8L24 8L24 6L23 6L23 7L22 7L22 6L21 6L21 4L20 4L20 3ZM20 6L20 8L21 8L21 6ZM32 8L32 9L33 9L33 8ZM3 9L3 10L2 10L2 12L3 12L3 13L4 13L4 12L5 12L5 11L6 11L6 12L7 12L7 11L6 11L6 10L7 10L7 9L6 9L6 10L5 10L5 11L4 11L4 9ZM12 9L12 10L13 10L13 9ZM16 9L16 10L17 10L17 11L18 11L18 9ZM28 9L28 10L29 10L29 9ZM14 12L14 13L15 13L15 12ZM17 12L17 13L18 13L18 12ZM20 13L20 14L19 14L19 15L20 15L20 16L21 16L21 15L22 15L22 16L23 16L23 17L24 17L24 18L21 18L21 19L24 19L24 18L25 18L25 17L24 17L24 16L23 16L23 15L22 15L22 14L21 14L21 13ZM29 14L29 16L30 16L30 17L31 17L31 16L30 16L30 14ZM3 15L3 16L4 16L4 17L7 17L7 16L4 16L4 15ZM16 16L16 17L17 17L17 16ZM6 18L6 19L7 19L7 20L6 20L6 21L7 21L7 20L8 20L8 19L7 19L7 18ZM26 19L26 20L27 20L27 19ZM15 20L15 23L14 23L14 25L15 25L15 24L16 24L16 20ZM17 20L17 21L18 21L18 20ZM1 22L1 24L2 24L2 22ZM9 22L9 23L11 23L11 24L9 24L9 25L11 25L11 24L12 24L12 23L11 23L11 22ZM26 22L26 23L27 23L27 22ZM30 24L30 25L31 25L31 24ZM25 25L25 28L28 28L28 25ZM19 26L19 27L18 27L18 28L19 28L19 27L20 27L20 26ZM26 26L26 27L27 27L27 26ZM12 27L12 28L13 28L13 27ZM30 27L30 28L31 28L31 29L30 29L30 30L31 30L31 29L33 29L33 28L32 28L32 27ZM20 28L20 29L19 29L19 33L21 33L21 31L22 31L22 30L21 30L21 28ZM20 30L20 31L21 31L21 30ZM32 30L32 31L30 31L30 32L28 32L28 33L30 33L30 32L33 32L33 30ZM0 0L0 7L7 7L7 0ZM1 1L1 6L6 6L6 1ZM2 2L2 5L5 5L5 2ZM26 0L26 7L33 7L33 0ZM27 1L27 6L32 6L32 1ZM28 2L28 5L31 5L31 2ZM0 26L0 33L7 33L7 26ZM1 27L1 32L6 32L6 27ZM2 28L2 31L5 31L5 28Z" fill="#000000"/></g></g></svg>
