<?xml version="1.0" encoding="UTF-8"?>
<svg xmlns="http://www.w3.org/2000/svg" version="1.1" width="400" height="400" viewBox="0 0 400 400"><rect x="0" y="0" width="400" height="400" fill="#fefefe"/><g transform="scale(9.756)"><g transform="translate(4,4)"><path fill-rule="evenodd" d="M8 0L8 4L10 4L10 3L11 3L11 4L12 4L12 2L11 2L11 0ZM12 0L12 1L13 1L13 0ZM15 0L15 1L14 1L14 2L15 2L15 1L16 1L16 0ZM20 0L20 1L19 1L19 2L18 2L18 1L17 1L17 2L16 2L16 3L15 3L15 4L14 4L14 3L13 3L13 5L11 5L11 6L10 6L10 7L9 7L9 5L8 5L8 7L9 7L9 8L10 8L10 7L11 7L11 6L12 6L12 8L11 8L11 9L9 9L9 10L11 10L11 11L10 11L10 13L11 13L11 12L12 12L12 13L13 13L13 14L14 14L14 13L15 13L15 15L16 15L16 14L17 14L17 16L14 16L14 17L13 17L13 15L12 15L12 16L11 16L11 15L10 15L10 14L9 14L9 11L8 11L8 9L7 9L7 8L4 8L4 9L3 9L3 10L2 10L2 8L0 8L0 10L1 10L1 11L0 11L0 12L1 12L1 13L2 13L2 14L0 14L0 17L1 17L1 18L0 18L0 19L1 19L1 21L0 21L0 22L6 22L6 23L7 23L7 24L3 24L3 23L2 23L2 24L0 24L0 25L7 25L7 24L8 24L8 26L9 26L9 25L10 25L10 28L11 28L11 27L12 27L12 26L14 26L14 25L15 25L15 28L14 28L14 29L10 29L10 31L8 31L8 33L9 33L9 32L11 32L11 31L12 31L12 32L13 32L13 31L12 31L12 30L14 30L14 29L15 29L15 32L14 32L14 33L15 33L15 32L16 32L16 31L17 31L17 33L18 33L18 32L19 32L19 33L20 33L20 31L21 31L21 33L22 33L22 31L24 31L24 33L25 33L25 32L26 32L26 33L28 33L28 32L29 32L29 33L30 33L30 31L32 31L32 30L33 30L33 27L32 27L32 26L31 26L31 25L32 25L32 24L33 24L33 23L31 23L31 22L32 22L32 21L33 21L33 19L32 19L32 18L31 18L31 17L30 17L30 18L29 18L29 19L28 19L28 17L29 17L29 16L30 16L30 14L31 14L31 16L32 16L32 17L33 17L33 16L32 16L32 14L31 14L31 13L29 13L29 11L28 11L28 10L27 10L27 11L28 11L28 12L25 12L25 10L24 10L24 9L25 9L25 2L24 2L24 3L22 3L22 2L23 2L23 1L25 1L25 0L23 0L23 1L22 1L22 0ZM21 1L21 2L22 2L22 1ZM9 2L9 3L10 3L10 2ZM19 2L19 3L17 3L17 4L16 4L16 5L15 5L15 7L14 7L14 5L13 5L13 8L12 8L12 9L11 9L11 10L12 10L12 9L14 9L14 11L12 11L12 12L13 12L13 13L14 13L14 12L15 12L15 9L17 9L17 10L16 10L16 11L18 11L18 12L20 12L20 13L19 13L19 15L18 15L18 16L20 16L20 17L19 17L19 18L18 18L18 17L17 17L17 19L16 19L16 20L15 20L15 18L16 18L16 17L14 17L14 19L13 19L13 20L12 20L12 23L11 23L11 24L10 24L10 25L12 25L12 24L13 24L13 25L14 25L14 22L15 22L15 21L16 21L16 20L17 20L17 19L18 19L18 21L17 21L17 23L15 23L15 24L16 24L16 25L17 25L17 26L16 26L16 28L15 28L15 29L17 29L17 30L19 30L19 31L20 31L20 30L24 30L24 31L26 31L26 32L28 32L28 31L26 31L26 29L24 29L24 28L23 28L23 27L24 27L24 26L23 26L23 27L22 27L22 25L24 25L24 24L23 24L23 19L22 19L22 25L21 25L21 22L20 22L20 21L21 21L21 20L20 20L20 21L19 21L19 19L21 19L21 18L23 18L23 17L25 17L25 16L27 16L27 17L26 17L26 18L27 18L27 17L28 17L28 16L27 16L27 15L28 15L28 14L29 14L29 13L24 13L24 12L23 12L23 11L22 11L22 9L24 9L24 8L22 8L22 9L19 9L19 10L18 10L18 9L17 9L17 7L18 7L18 8L20 8L20 6L21 6L21 7L22 7L22 6L23 6L23 7L24 7L24 5L21 5L21 4L22 4L22 3L20 3L20 2ZM18 5L18 7L19 7L19 6L20 6L20 5ZM16 6L16 7L15 7L15 8L14 8L14 9L15 9L15 8L16 8L16 7L17 7L17 6ZM27 8L27 9L28 9L28 8ZM29 8L29 9L31 9L31 12L32 12L32 13L33 13L33 12L32 12L32 9L33 9L33 8ZM4 9L4 10L5 10L5 11L6 11L6 12L5 12L5 13L3 13L3 12L4 12L4 11L3 11L3 12L2 12L2 11L1 11L1 12L2 12L2 13L3 13L3 14L2 14L2 15L1 15L1 17L2 17L2 18L1 18L1 19L3 19L3 21L5 21L5 20L7 20L7 21L6 21L6 22L8 22L8 23L10 23L10 22L11 22L11 20L10 20L10 21L9 21L9 22L8 22L8 19L6 19L6 18L9 18L9 19L10 19L10 18L12 18L12 17L11 17L11 16L10 16L10 15L9 15L9 16L10 16L10 18L9 18L9 17L8 17L8 11L6 11L6 10L7 10L7 9ZM20 10L20 12L21 12L21 13L20 13L20 14L21 14L21 17L20 17L20 18L21 18L21 17L23 17L23 16L25 16L25 15L24 15L24 13L23 13L23 12L22 12L22 11L21 11L21 10ZM6 12L6 13L5 13L5 14L6 14L6 15L5 15L5 16L6 16L6 17L7 17L7 16L6 16L6 15L7 15L7 14L6 14L6 13L7 13L7 12ZM16 12L16 13L17 13L17 12ZM21 13L21 14L22 14L22 15L23 15L23 13ZM3 14L3 15L2 15L2 16L3 16L3 15L4 15L4 14ZM26 14L26 15L27 15L27 14ZM3 17L3 19L4 19L4 20L5 20L5 19L4 19L4 18L5 18L5 17ZM26 19L26 20L27 20L27 21L25 21L25 22L24 22L24 23L26 23L26 24L27 24L27 21L28 21L28 22L31 22L31 20L32 20L32 19L30 19L30 21L28 21L28 20L27 20L27 19ZM14 20L14 21L13 21L13 22L14 22L14 21L15 21L15 20ZM17 23L17 25L18 25L18 24L19 24L19 25L20 25L20 26L21 26L21 25L20 25L20 24L19 24L19 23ZM30 23L30 24L29 24L29 26L30 26L30 25L31 25L31 23ZM25 25L25 28L28 28L28 25ZM17 26L17 29L18 29L18 27L19 27L19 29L23 29L23 28L22 28L22 27L19 27L19 26ZM26 26L26 27L27 27L27 26ZM8 27L8 29L9 29L9 27ZM30 27L30 29L32 29L32 28L31 28L31 27ZM29 30L29 31L30 31L30 30ZM32 32L32 33L33 33L33 32ZM0 0L0 7L7 7L7 0ZM1 1L1 6L6 6L6 1ZM2 2L2 5L5 5L5 2ZM26 0L26 7L33 7L33 0ZM27 1L27 6L32 6L32 1ZM28 2L28 5L31 5L31 2ZM0 26L0 33L7 33L7 26ZM1 27L1 32L6 32L6 27ZM2 28L2 31L5 31L5 28Z" fill="#000000"/></g></g></svg>
