<?xml version="1.0" encoding="UTF-8"?>
<svg xmlns="http://www.w3.org/2000/svg" version="1.1" width="400" height="400" viewBox="0 0 400 400"><rect x="0" y="0" width="400" height="400" fill="#fefefe"/><g transform="scale(9.756)"><g transform="translate(4,4)"><path fill-rule="evenodd" d="M9 0L9 1L8 1L8 3L9 3L9 4L8 4L8 8L6 8L6 9L4 9L4 8L3 8L3 9L2 9L2 8L0 8L0 10L1 10L1 9L2 9L2 11L0 11L0 12L1 12L1 13L2 13L2 15L3 15L3 16L4 16L4 15L3 15L3 14L4 14L4 13L5 13L5 14L6 14L6 15L5 15L5 16L6 16L6 17L3 17L3 18L2 18L2 17L1 17L1 18L2 18L2 19L0 19L0 20L1 20L1 22L0 22L0 23L1 23L1 24L0 24L0 25L1 25L1 24L2 24L2 25L3 25L3 24L4 24L4 25L5 25L5 24L6 24L6 25L7 25L7 24L8 24L8 27L12 27L12 28L14 28L14 29L13 29L13 30L14 30L14 32L13 32L13 33L14 33L14 32L16 32L16 33L17 33L17 32L19 32L19 31L17 31L17 29L18 29L18 30L19 30L19 29L18 29L18 26L22 26L22 25L23 25L23 26L24 26L24 29L22 29L22 27L21 27L21 29L20 29L20 33L25 33L25 32L26 32L26 33L29 33L29 32L30 32L30 25L29 25L29 23L27 23L27 22L28 22L28 20L30 20L30 19L29 19L29 18L28 18L28 17L29 17L29 16L30 16L30 15L32 15L32 14L33 14L33 9L32 9L32 8L30 8L30 9L29 9L29 8L26 8L26 10L25 10L25 8L23 8L23 6L22 6L22 5L24 5L24 3L23 3L23 4L21 4L21 5L19 5L19 6L18 6L18 5L17 5L17 6L16 6L16 3L19 3L19 4L20 4L20 3L21 3L21 2L22 2L22 1L23 1L23 2L24 2L24 1L25 1L25 0L21 0L21 1L20 1L20 0L18 0L18 1L17 1L17 0L15 0L15 4L13 4L13 5L14 5L14 7L15 7L15 8L16 8L16 11L15 11L15 9L14 9L14 8L13 8L13 6L12 6L12 5L11 5L11 6L10 6L10 5L9 5L9 4L12 4L12 3L13 3L13 2L14 2L14 0L12 0L12 1L11 1L11 2L9 2L9 1L10 1L10 0ZM19 1L19 3L20 3L20 1ZM9 6L9 7L10 7L10 8L8 8L8 10L7 10L7 9L6 9L6 10L5 10L5 11L4 11L4 9L3 9L3 11L4 11L4 12L5 12L5 13L6 13L6 14L7 14L7 13L8 13L8 12L7 12L7 11L9 11L9 13L12 13L12 12L13 12L13 11L14 11L14 10L13 10L13 8L12 8L12 6L11 6L11 7L10 7L10 6ZM15 6L15 7L16 7L16 8L17 8L17 9L18 9L18 10L20 10L20 11L23 11L23 12L22 12L22 13L23 13L23 14L21 14L21 12L20 12L20 14L19 14L19 13L15 13L15 14L14 14L14 13L13 13L13 15L14 15L14 16L13 16L13 17L10 17L10 16L12 16L12 14L10 14L10 15L9 15L9 14L8 14L8 15L9 15L9 16L7 16L7 15L6 15L6 16L7 16L7 17L6 17L6 18L5 18L5 19L4 19L4 18L3 18L3 19L2 19L2 20L3 20L3 19L4 19L4 21L5 21L5 22L3 22L3 23L4 23L4 24L5 24L5 23L6 23L6 24L7 24L7 23L6 23L6 22L10 22L10 20L11 20L11 23L9 23L9 25L10 25L10 26L13 26L13 27L14 27L14 28L15 28L15 29L14 29L14 30L15 30L15 31L16 31L16 32L17 32L17 31L16 31L16 29L17 29L17 28L15 28L15 27L17 27L17 25L15 25L15 26L14 26L14 25L12 25L12 24L13 24L13 23L12 23L12 21L13 21L13 20L14 20L14 21L15 21L15 22L14 22L14 24L16 24L16 23L17 23L17 24L18 24L18 25L20 25L20 24L21 24L21 23L22 23L22 22L23 22L23 25L24 25L24 23L25 23L25 22L26 22L26 21L27 21L27 17L26 17L26 20L25 20L25 21L24 21L24 20L23 20L23 19L25 19L25 16L26 16L26 15L27 15L27 16L29 16L29 15L28 15L28 14L26 14L26 13L25 13L25 12L26 12L26 11L27 11L27 12L28 12L28 13L29 13L29 14L31 14L31 12L32 12L32 10L31 10L31 11L30 11L30 12L29 12L29 9L28 9L28 11L27 11L27 10L26 10L26 11L24 11L24 9L23 9L23 8L22 8L22 10L20 10L20 9L21 9L21 8L19 8L19 9L18 9L18 8L17 8L17 7L18 7L18 6L17 6L17 7L16 7L16 6ZM19 6L19 7L20 7L20 6ZM21 6L21 7L22 7L22 6ZM24 6L24 7L25 7L25 6ZM10 8L10 10L9 10L9 11L11 11L11 10L12 10L12 9L11 9L11 8ZM6 10L6 11L5 11L5 12L6 12L6 13L7 13L7 12L6 12L6 11L7 11L7 10ZM16 11L16 12L19 12L19 11ZM17 14L17 15L16 15L16 16L14 16L14 17L13 17L13 19L11 19L11 18L10 18L10 17L9 17L9 18L8 18L8 17L7 17L7 18L6 18L6 19L7 19L7 20L5 20L5 21L7 21L7 20L9 20L9 18L10 18L10 19L11 19L11 20L13 20L13 19L15 19L15 20L16 20L16 19L17 19L17 20L18 20L18 19L19 19L19 18L17 18L17 17L21 17L21 18L20 18L20 19L21 19L21 20L19 20L19 21L16 21L16 22L17 22L17 23L18 23L18 24L20 24L20 23L21 23L21 22L19 22L19 21L23 21L23 20L22 20L22 19L23 19L23 18L24 18L24 17L22 17L22 16L25 16L25 14L23 14L23 15L21 15L21 14L20 14L20 15L21 15L21 16L18 16L18 14ZM32 16L32 17L33 17L33 16ZM14 17L14 18L15 18L15 19L16 19L16 18L15 18L15 17ZM7 18L7 19L8 19L8 18ZM31 18L31 19L32 19L32 20L33 20L33 18ZM29 21L29 22L31 22L31 23L33 23L33 21ZM11 23L11 24L10 24L10 25L11 25L11 24L12 24L12 23ZM25 25L25 28L28 28L28 25ZM31 25L31 27L32 27L32 29L31 29L31 31L33 31L33 27L32 27L32 26L33 26L33 25ZM26 26L26 27L27 27L27 26ZM19 27L19 28L20 28L20 27ZM9 28L9 29L8 29L8 30L9 30L9 31L8 31L8 33L12 33L12 31L11 31L11 30L12 30L12 29L11 29L11 30L10 30L10 28ZM24 29L24 30L25 30L25 31L26 31L26 32L27 32L27 31L28 31L28 32L29 32L29 31L28 31L28 29L27 29L27 30L26 30L26 29ZM21 30L21 31L22 31L22 32L24 32L24 31L23 31L23 30ZM10 31L10 32L11 32L11 31ZM31 32L31 33L32 33L32 32ZM0 0L0 7L7 7L7 0ZM1 1L1 6L6 6L6 1ZM2 2L2 5L5 5L5 2ZM26 0L26 7L33 7L33 0ZM27 1L27 6L32 6L32 1ZM28 2L28 5L31 5L31 2ZM0 26L0 33L7 33L7 26ZM1 27L1 32L6 32L6 27ZM2 28L2 31L5 31L5 28Z" fill="#000000"/></g></g></svg>
