<?xml version="1.0" encoding="UTF-8"?>
<svg xmlns="http://www.w3.org/2000/svg" version="1.1" width="400" height="400" viewBox="0 0 400 400"><rect x="0" y="0" width="400" height="400" fill="#fefefe"/><g transform="scale(9.756)"><g transform="translate(4,4)"><path fill-rule="evenodd" d="M8 0L8 1L9 1L9 2L10 2L10 3L11 3L11 1L13 1L13 0L11 0L11 1L9 1L9 0ZM16 0L16 1L17 1L17 2L16 2L16 4L19 4L19 5L16 5L16 8L15 8L15 6L14 6L14 5L15 5L15 3L14 3L14 2L15 2L15 1L14 1L14 2L12 2L12 4L11 4L11 5L10 5L10 4L9 4L9 5L10 5L10 8L9 8L9 6L8 6L8 8L9 8L9 10L10 10L10 11L8 11L8 10L5 10L5 8L3 8L3 9L2 9L2 8L0 8L0 10L1 10L1 11L0 11L0 13L3 13L3 14L2 14L2 15L1 15L1 14L0 14L0 15L1 15L1 16L0 16L0 17L1 17L1 18L0 18L0 25L2 25L2 24L3 24L3 23L4 23L4 25L7 25L7 24L5 24L5 23L7 23L7 22L6 22L6 21L7 21L7 20L6 20L6 19L8 19L8 20L9 20L9 21L8 21L8 22L9 22L9 23L8 23L8 26L9 26L9 27L11 27L11 29L10 29L10 30L9 30L9 28L8 28L8 30L9 30L9 31L8 31L8 33L10 33L10 32L9 32L9 31L10 31L10 30L11 30L11 31L12 31L12 30L13 30L13 32L15 32L15 33L18 33L18 32L17 32L17 31L18 31L18 29L17 29L17 30L16 30L16 28L15 28L15 27L16 27L16 26L17 26L17 24L18 24L18 23L19 23L19 25L20 25L20 26L19 26L19 27L18 27L18 28L20 28L20 29L19 29L19 32L20 32L20 33L21 33L21 31L23 31L23 32L22 32L22 33L23 33L23 32L24 32L24 33L27 33L27 32L28 32L28 33L30 33L30 32L33 32L33 30L32 30L32 31L30 31L30 32L29 32L29 30L28 30L28 29L29 29L29 25L30 25L30 26L31 26L31 25L32 25L32 24L33 24L33 22L32 22L32 23L30 23L30 22L29 22L29 21L30 21L30 20L31 20L31 21L32 21L32 19L33 19L33 15L31 15L31 13L30 13L30 12L32 12L32 13L33 13L33 12L32 12L32 11L33 11L33 10L30 10L30 12L29 12L29 9L28 9L28 12L29 12L29 14L25 14L25 13L27 13L27 12L25 12L25 10L26 10L26 11L27 11L27 10L26 10L26 9L27 9L27 8L26 8L26 9L22 9L22 10L20 10L20 8L21 8L21 6L20 6L20 8L17 8L17 6L18 6L18 7L19 7L19 5L21 5L21 4L22 4L22 8L23 8L23 6L24 6L24 7L25 7L25 4L24 4L24 5L23 5L23 3L25 3L25 0L24 0L24 2L23 2L23 0L22 0L22 2L21 2L21 4L19 4L19 3L20 3L20 1L21 1L21 0L20 0L20 1L18 1L18 0ZM17 2L17 3L18 3L18 2ZM22 2L22 3L23 3L23 2ZM12 4L12 5L11 5L11 7L12 7L12 9L10 9L10 10L12 10L12 11L13 11L13 13L11 13L11 12L10 12L10 13L9 13L9 12L7 12L7 11L5 11L5 12L4 12L4 13L5 13L5 12L7 12L7 13L6 13L6 14L7 14L7 15L6 15L6 16L5 16L5 14L4 14L4 15L2 15L2 16L1 16L1 17L2 17L2 18L3 18L3 16L4 16L4 18L9 18L9 17L8 17L8 16L10 16L10 18L11 18L11 17L12 17L12 16L14 16L14 15L15 15L15 13L16 13L16 11L13 11L13 10L15 10L15 8L13 8L13 7L14 7L14 6L13 6L13 7L12 7L12 5L14 5L14 4ZM6 8L6 9L7 9L7 8ZM32 8L32 9L33 9L33 8ZM1 9L1 10L2 10L2 11L1 11L1 12L2 12L2 11L4 11L4 10L2 10L2 9ZM12 9L12 10L13 10L13 9ZM16 9L16 10L17 10L17 11L18 11L18 9ZM19 10L19 11L20 11L20 10ZM21 11L21 12L20 12L20 13L19 13L19 14L16 14L16 16L15 16L15 18L17 18L17 20L16 20L16 19L15 19L15 20L13 20L13 19L14 19L14 17L13 17L13 18L12 18L12 19L11 19L11 20L12 20L12 22L13 22L13 25L14 25L14 27L12 27L12 26L11 26L11 25L10 25L10 23L9 23L9 26L11 26L11 27L12 27L12 29L11 29L11 30L12 30L12 29L13 29L13 30L14 30L14 29L13 29L13 28L14 28L14 27L15 27L15 25L16 25L16 24L17 24L17 23L18 23L18 22L19 22L19 23L20 23L20 25L21 25L21 26L23 26L23 23L20 23L20 22L21 22L21 21L22 21L22 16L24 16L24 17L23 17L23 18L24 18L24 19L23 19L23 20L25 20L25 22L24 22L24 24L26 24L26 22L28 22L28 23L27 23L27 24L29 24L29 22L28 22L28 21L29 21L29 20L30 20L30 19L32 19L32 18L30 18L30 19L29 19L29 20L28 20L28 16L30 16L30 17L31 17L31 16L30 16L30 14L29 14L29 15L27 15L27 18L26 18L26 16L25 16L25 15L24 15L24 14L22 14L22 11ZM14 12L14 13L13 13L13 14L11 14L11 15L10 15L10 14L9 14L9 13L7 13L7 14L9 14L9 15L10 15L10 16L12 16L12 15L14 15L14 13L15 13L15 12ZM17 12L17 13L18 13L18 12ZM23 12L23 13L25 13L25 12ZM20 13L20 14L19 14L19 15L18 15L18 17L17 17L17 16L16 16L16 17L17 17L17 18L18 18L18 20L17 20L17 21L18 21L18 20L19 20L19 22L20 22L20 20L21 20L21 19L20 19L20 18L21 18L21 15L22 15L22 14L21 14L21 13ZM20 14L20 15L21 15L21 14ZM6 16L6 17L7 17L7 16ZM19 16L19 17L20 17L20 16ZM24 17L24 18L25 18L25 17ZM1 19L1 21L3 21L3 19ZM4 19L4 20L5 20L5 19ZM19 19L19 20L20 20L20 19ZM26 19L26 20L27 20L27 19ZM15 20L15 23L14 23L14 25L15 25L15 24L16 24L16 20ZM9 21L9 22L11 22L11 21ZM1 22L1 24L2 24L2 23L3 23L3 22ZM4 22L4 23L5 23L5 22ZM11 23L11 24L12 24L12 23ZM30 24L30 25L31 25L31 24ZM25 25L25 28L28 28L28 25ZM26 26L26 27L27 27L27 26ZM21 27L21 29L22 29L22 30L23 30L23 28L24 28L24 27ZM30 27L30 28L31 28L31 29L30 29L30 30L31 30L31 29L33 29L33 28L32 28L32 27ZM24 29L24 30L25 30L25 31L24 31L24 32L26 32L26 31L27 31L27 29ZM20 30L20 31L21 31L21 30ZM15 31L15 32L16 32L16 31ZM0 0L0 7L7 7L7 0ZM1 1L1 6L6 6L6 1ZM2 2L2 5L5 5L5 2ZM26 0L26 7L33 7L33 0ZM27 1L27 6L32 6L32 1ZM28 2L28 5L31 5L31 2ZM0 26L0 33L7 33L7 26ZM1 27L1 32L6 32L6 27ZM2 28L2 31L5 31L5 28Z" fill="#000000"/></g></g></svg>
