<?xml version="1.0" encoding="UTF-8"?>
<svg xmlns="http://www.w3.org/2000/svg" version="1.1" width="400" height="400" viewBox="0 0 400 400"><rect x="0" y="0" width="400" height="400" fill="#fefefe"/><g transform="scale(9.756)"><g transform="translate(4,4)"><path fill-rule="evenodd" d="M8 0L8 1L11 1L11 2L10 2L10 4L9 4L9 2L8 2L8 5L11 5L11 4L12 4L12 1L13 1L13 4L14 4L14 5L16 5L16 12L17 12L17 13L15 13L15 14L17 14L17 13L19 13L19 14L18 14L18 16L20 16L20 19L19 19L19 18L17 18L17 19L16 19L16 18L15 18L15 17L17 17L17 15L16 15L16 16L13 16L13 15L14 15L14 14L13 14L13 13L14 13L14 11L15 11L15 9L14 9L14 10L13 10L13 9L11 9L11 6L10 6L10 9L11 9L11 10L9 10L9 8L8 8L8 10L9 10L9 12L8 12L8 11L7 11L7 10L5 10L5 9L4 9L4 8L0 8L0 13L1 13L1 14L2 14L2 16L4 16L4 18L1 18L1 17L0 17L0 18L1 18L1 19L0 19L0 20L1 20L1 19L2 19L2 21L0 21L0 22L2 22L2 23L1 23L1 24L0 24L0 25L1 25L1 24L3 24L3 25L5 25L5 23L7 23L7 22L8 22L8 21L10 21L10 22L11 22L11 24L12 24L12 25L14 25L14 24L16 24L16 23L13 23L13 24L12 24L12 22L13 22L13 21L12 21L12 20L13 20L13 19L14 19L14 20L15 20L15 19L16 19L16 20L17 20L17 21L16 21L16 22L17 22L17 21L19 21L19 22L20 22L20 23L18 23L18 24L17 24L17 25L15 25L15 26L18 26L18 30L19 30L19 28L20 28L20 26L21 26L21 29L22 29L22 30L20 30L20 32L19 32L19 31L16 31L16 29L15 29L15 28L17 28L17 27L15 27L15 28L11 28L11 27L9 27L9 29L8 29L8 33L11 33L11 32L12 32L12 33L13 33L13 31L11 31L11 30L12 30L12 29L13 29L13 30L15 30L15 31L14 31L14 32L15 32L15 31L16 31L16 33L20 33L20 32L21 32L21 33L22 33L22 32L23 32L23 31L22 31L22 30L23 30L23 29L24 29L24 32L25 32L25 33L26 33L26 32L28 32L28 33L29 33L29 32L28 32L28 29L29 29L29 31L30 31L30 29L31 29L31 31L32 31L32 32L33 32L33 31L32 31L32 27L31 27L31 26L32 26L32 25L33 25L33 21L32 21L32 20L30 20L30 19L29 19L29 17L32 17L32 18L31 18L31 19L32 19L32 18L33 18L33 16L32 16L32 15L30 15L30 16L29 16L29 14L27 14L27 16L26 16L26 17L25 17L25 16L23 16L23 13L21 13L21 14L20 14L20 13L19 13L19 12L17 12L17 9L18 9L18 10L20 10L20 9L21 9L21 11L22 11L22 12L23 12L23 11L24 11L24 14L25 14L25 15L26 15L26 13L25 13L25 9L26 9L26 12L27 12L27 9L26 9L26 8L25 8L25 2L24 2L24 1L25 1L25 0L23 0L23 1L22 1L22 2L23 2L23 3L22 3L22 4L23 4L23 3L24 3L24 7L23 7L23 5L21 5L21 2L19 2L19 1L21 1L21 0L18 0L18 1L17 1L17 2L15 2L15 0ZM14 2L14 4L15 4L15 2ZM17 2L17 3L16 3L16 5L17 5L17 7L18 7L18 6L19 6L19 8L18 8L18 9L20 9L20 6L21 6L21 8L22 8L22 11L23 11L23 9L24 9L24 8L23 8L23 7L22 7L22 6L21 6L21 5L20 5L20 6L19 6L19 5L17 5L17 3L19 3L19 4L20 4L20 3L19 3L19 2ZM8 6L8 7L9 7L9 6ZM12 6L12 7L13 7L13 6ZM14 6L14 8L15 8L15 6ZM6 8L6 9L7 9L7 8ZM28 8L28 9L31 9L31 8ZM32 8L32 10L31 10L31 11L33 11L33 8ZM1 9L1 12L2 12L2 9ZM3 10L3 12L4 12L4 13L2 13L2 14L3 14L3 15L6 15L6 16L7 16L7 17L5 17L5 18L7 18L7 19L5 19L5 22L7 22L7 21L8 21L8 20L11 20L11 19L12 19L12 18L13 18L13 16L12 16L12 18L11 18L11 17L10 17L10 18L8 18L8 17L9 17L9 16L8 16L8 15L6 15L6 14L10 14L10 16L11 16L11 15L13 15L13 14L12 14L12 13L13 13L13 12L11 12L11 13L8 13L8 12L7 12L7 11L5 11L5 10ZM12 10L12 11L13 11L13 10ZM29 11L29 12L28 12L28 13L29 13L29 12L30 12L30 11ZM6 12L6 13L7 13L7 12ZM31 12L31 14L32 14L32 12ZM4 13L4 14L5 14L5 13ZM21 14L21 15L20 15L20 16L21 16L21 15L22 15L22 14ZM0 15L0 16L1 16L1 15ZM22 16L22 17L21 17L21 20L23 20L23 19L25 19L25 17L24 17L24 18L23 18L23 16ZM27 17L27 18L28 18L28 17ZM10 18L10 19L11 19L11 18ZM14 18L14 19L15 19L15 18ZM7 19L7 20L6 20L6 21L7 21L7 20L8 20L8 19ZM18 19L18 20L19 20L19 19ZM28 19L28 22L25 22L25 23L22 23L22 22L23 22L23 21L20 21L20 22L21 22L21 23L20 23L20 24L21 24L21 26L22 26L22 25L24 25L24 24L27 24L27 23L28 23L28 22L31 22L31 23L29 23L29 25L30 25L30 26L29 26L29 29L30 29L30 26L31 26L31 25L32 25L32 21L29 21L29 19ZM24 20L24 21L25 21L25 20ZM26 20L26 21L27 21L27 20ZM14 21L14 22L15 22L15 21ZM3 22L3 24L4 24L4 22ZM8 23L8 24L10 24L10 23ZM6 24L6 25L7 25L7 24ZM18 24L18 25L19 25L19 24ZM8 25L8 26L9 26L9 25ZM10 25L10 26L11 26L11 25ZM25 25L25 28L28 28L28 25ZM12 26L12 27L14 27L14 26ZM26 26L26 27L27 27L27 26ZM10 28L10 29L11 29L11 28ZM25 29L25 31L26 31L26 30L27 30L27 29ZM9 30L9 31L10 31L10 30ZM21 31L21 32L22 32L22 31ZM30 32L30 33L31 33L31 32ZM0 0L0 7L7 7L7 0ZM1 1L1 6L6 6L6 1ZM2 2L2 5L5 5L5 2ZM26 0L26 7L33 7L33 0ZM27 1L27 6L32 6L32 1ZM28 2L28 5L31 5L31 2ZM0 26L0 33L7 33L7 26ZM1 27L1 32L6 32L6 27ZM2 28L2 31L5 31L5 28Z" fill="#000000"/></g></g></svg>
