<?xml version="1.0" encoding="UTF-8"?>
<svg xmlns="http://www.w3.org/2000/svg" version="1.1" width="400" height="400" viewBox="0 0 400 400"><rect x="0" y="0" width="400" height="400" fill="#fefefe"/><g transform="scale(9.756)"><g transform="translate(4,4)"><path fill-rule="evenodd" d="M8 0L8 1L10 1L10 0ZM12 0L12 2L9 2L9 4L10 4L10 5L11 5L11 6L10 6L10 8L9 8L9 6L8 6L8 8L9 8L9 9L8 9L8 10L6 10L6 9L7 9L7 8L6 8L6 9L5 9L5 8L3 8L3 9L2 9L2 8L0 8L0 9L1 9L1 12L0 12L0 13L2 13L2 12L3 12L3 11L4 11L4 12L6 12L6 13L7 13L7 12L6 12L6 11L8 11L8 12L9 12L9 13L10 13L10 12L11 12L11 14L8 14L8 15L7 15L7 14L3 14L3 15L2 15L2 14L0 14L0 15L2 15L2 17L1 17L1 19L0 19L0 25L3 25L3 24L1 24L1 22L2 22L2 23L4 23L4 24L6 24L6 25L7 25L7 24L6 24L6 23L7 23L7 22L6 22L6 23L5 23L5 21L8 21L8 22L9 22L9 23L8 23L8 26L9 26L9 27L11 27L11 26L13 26L13 27L12 27L12 28L11 28L11 29L10 29L10 28L8 28L8 30L9 30L9 31L8 31L8 33L11 33L11 32L12 32L12 31L13 31L13 32L15 32L15 33L18 33L18 32L17 32L17 31L18 31L18 29L17 29L17 30L16 30L16 28L15 28L15 27L16 27L16 26L17 26L17 24L18 24L18 23L19 23L19 25L20 25L20 26L19 26L19 27L18 27L18 28L20 28L20 29L19 29L19 32L20 32L20 33L21 33L21 31L22 31L22 30L21 30L21 25L20 25L20 24L21 24L21 23L24 23L24 24L23 24L23 25L24 25L24 26L22 26L22 28L23 28L23 29L24 29L24 31L23 31L23 32L22 32L22 33L23 33L23 32L24 32L24 33L29 33L29 32L33 32L33 30L32 30L32 31L29 31L29 30L28 30L28 29L29 29L29 25L30 25L30 26L31 26L31 25L32 25L32 24L33 24L33 22L32 22L32 23L30 23L30 22L29 22L29 21L30 21L30 20L31 20L31 21L32 21L32 19L33 19L33 15L31 15L31 13L30 13L30 12L32 12L32 13L33 13L33 12L32 12L32 11L33 11L33 10L30 10L30 12L29 12L29 9L28 9L28 10L26 10L26 9L27 9L27 8L26 8L26 9L25 9L25 8L24 8L24 7L25 7L25 4L24 4L24 3L25 3L25 2L24 2L24 3L23 3L23 4L24 4L24 5L22 5L22 2L23 2L23 0L22 0L22 2L20 2L20 1L21 1L21 0L20 0L20 1L18 1L18 3L17 3L17 2L16 2L16 4L17 4L17 5L16 5L16 8L15 8L15 6L14 6L14 5L15 5L15 3L14 3L14 2L15 2L15 1L14 1L14 2L13 2L13 0ZM16 0L16 1L17 1L17 0ZM24 0L24 1L25 1L25 0ZM10 3L10 4L11 4L11 5L12 5L12 4L13 4L13 5L14 5L14 4L13 4L13 3L12 3L12 4L11 4L11 3ZM18 3L18 4L20 4L20 5L19 5L19 7L18 7L18 5L17 5L17 8L19 8L19 7L20 7L20 10L19 10L19 14L16 14L16 16L15 16L15 18L17 18L17 20L16 20L16 19L15 19L15 20L13 20L13 19L14 19L14 17L13 17L13 19L10 19L10 18L12 18L12 17L11 17L11 15L12 15L12 14L13 14L13 13L14 13L14 15L13 15L13 16L14 16L14 15L15 15L15 13L16 13L16 11L11 11L11 12L12 12L12 14L11 14L11 15L8 15L8 16L7 16L7 15L6 15L6 16L7 16L7 17L6 17L6 18L4 18L4 17L5 17L5 16L3 16L3 18L4 18L4 19L3 19L3 20L2 20L2 19L1 19L1 20L2 20L2 22L3 22L3 21L4 21L4 19L5 19L5 20L7 20L7 19L6 19L6 18L7 18L7 17L8 17L8 18L9 18L9 20L13 20L13 25L14 25L14 27L13 27L13 28L12 28L12 29L11 29L11 30L12 30L12 29L13 29L13 30L14 30L14 29L13 29L13 28L14 28L14 27L15 27L15 25L16 25L16 24L17 24L17 23L18 23L18 22L19 22L19 23L20 23L20 22L19 22L19 20L20 20L20 19L21 19L21 21L22 21L22 20L26 20L26 22L28 22L28 23L26 23L26 24L28 24L28 23L29 23L29 22L28 22L28 21L29 21L29 20L30 20L30 19L32 19L32 18L30 18L30 19L29 19L29 20L28 20L28 18L26 18L26 16L25 16L25 15L24 15L24 14L23 14L23 16L24 16L24 17L23 17L23 18L22 18L22 11L23 11L23 12L24 12L24 13L25 13L25 14L26 14L26 15L27 15L27 16L28 16L28 15L29 15L29 16L30 16L30 17L31 17L31 16L30 16L30 14L29 14L29 12L28 12L28 14L27 14L27 13L25 13L25 12L24 12L24 11L23 11L23 9L24 9L24 10L25 10L25 11L26 11L26 12L27 12L27 11L26 11L26 10L25 10L25 9L24 9L24 8L23 8L23 7L24 7L24 6L23 6L23 7L22 7L22 6L21 6L21 7L20 7L20 5L21 5L21 4L20 4L20 3ZM11 6L11 7L12 7L12 6ZM13 6L13 7L14 7L14 6ZM11 8L11 9L12 9L12 8ZM13 8L13 10L15 10L15 8ZM22 8L22 9L23 9L23 8ZM32 8L32 9L33 9L33 8ZM16 9L16 10L17 10L17 11L18 11L18 9ZM2 10L2 11L3 11L3 10ZM5 10L5 11L6 11L6 10ZM9 10L9 11L10 11L10 10ZM20 10L20 11L21 11L21 10ZM14 12L14 13L15 13L15 12ZM17 12L17 13L18 13L18 12ZM20 13L20 14L19 14L19 15L18 15L18 17L17 17L17 16L16 16L16 17L17 17L17 18L18 18L18 20L17 20L17 21L18 21L18 20L19 20L19 19L20 19L20 18L21 18L21 19L22 19L22 18L21 18L21 16L20 16L20 17L19 17L19 15L21 15L21 13ZM8 16L8 17L9 17L9 18L10 18L10 17L9 17L9 16ZM24 17L24 18L23 18L23 19L24 19L24 18L25 18L25 17ZM26 19L26 20L27 20L27 19ZM15 20L15 23L14 23L14 25L15 25L15 24L16 24L16 20ZM9 21L9 22L10 22L10 23L9 23L9 25L11 25L11 24L12 24L12 23L11 23L11 21ZM24 22L24 23L25 23L25 22ZM30 24L30 25L31 25L31 24ZM25 25L25 28L28 28L28 25ZM26 26L26 27L27 27L27 26ZM30 27L30 28L31 28L31 29L30 29L30 30L31 30L31 29L32 29L32 28L33 28L33 27ZM9 29L9 30L10 30L10 29ZM26 29L26 31L24 31L24 32L26 32L26 31L27 31L27 29ZM15 31L15 32L16 32L16 31ZM0 0L0 7L7 7L7 0ZM1 1L1 6L6 6L6 1ZM2 2L2 5L5 5L5 2ZM26 0L26 7L33 7L33 0ZM27 1L27 6L32 6L32 1ZM28 2L28 5L31 5L31 2ZM0 26L0 33L7 33L7 26ZM1 27L1 32L6 32L6 27ZM2 28L2 31L5 31L5 28Z" fill="#000000"/></g></g></svg>
