<?xml version="1.0" encoding="UTF-8"?>
<svg xmlns="http://www.w3.org/2000/svg" version="1.1" width="400" height="400" viewBox="0 0 400 400"><rect x="0" y="0" width="400" height="400" fill="#fefefe"/><g transform="scale(9.756)"><g transform="translate(4,4)"><path fill-rule="evenodd" d="M8 0L8 1L11 1L11 2L10 2L10 4L9 4L9 2L8 2L8 5L11 5L11 4L12 4L12 1L13 1L13 4L14 4L14 5L16 5L16 12L17 12L17 13L15 13L15 14L17 14L17 13L19 13L19 14L18 14L18 16L20 16L20 19L19 19L19 18L17 18L17 19L16 19L16 18L15 18L15 17L17 17L17 15L16 15L16 16L13 16L13 15L14 15L14 14L13 14L13 13L14 13L14 11L15 11L15 9L14 9L14 10L13 10L13 9L11 9L11 6L10 6L10 9L11 9L11 10L9 10L9 8L8 8L8 11L7 11L7 10L6 10L6 11L5 11L5 9L4 9L4 8L0 8L0 10L1 10L1 11L2 11L2 10L3 10L3 11L5 11L5 12L0 12L0 13L2 13L2 14L4 14L4 13L5 13L5 15L4 15L4 16L3 16L3 15L1 15L1 14L0 14L0 16L3 16L3 17L2 17L2 21L1 21L1 19L0 19L0 22L2 22L2 23L1 23L1 24L0 24L0 25L1 25L1 24L2 24L2 25L4 25L4 24L6 24L6 25L8 25L8 26L9 26L9 29L8 29L8 33L13 33L13 32L12 32L12 31L13 31L13 30L15 30L15 31L16 31L16 33L23 33L23 31L24 31L24 32L25 32L25 33L26 33L26 32L28 32L28 33L31 33L31 32L30 32L30 31L32 31L32 32L33 32L33 31L32 31L32 27L31 27L31 26L32 26L32 25L33 25L33 21L32 21L32 20L30 20L30 19L29 19L29 21L32 21L32 25L31 25L31 26L30 26L30 25L29 25L29 23L31 23L31 22L29 22L29 23L28 23L28 22L27 22L27 21L26 21L26 22L25 22L25 21L24 21L24 20L27 20L27 17L28 17L28 18L29 18L29 17L32 17L32 18L31 18L31 19L32 19L32 18L33 18L33 16L32 16L32 15L30 15L30 16L29 16L29 14L26 14L26 13L25 13L25 12L26 12L26 11L28 11L28 13L29 13L29 12L30 12L30 11L28 11L28 10L27 10L27 9L26 9L26 8L24 8L24 7L25 7L25 6L24 6L24 7L23 7L23 5L21 5L21 2L20 2L20 4L19 4L19 3L17 3L17 2L18 2L18 0L17 0L17 2L15 2L15 0ZM19 0L19 1L20 1L20 0ZM23 0L23 1L22 1L22 2L24 2L24 3L25 3L25 2L24 2L24 1L25 1L25 0ZM14 2L14 4L15 4L15 2ZM16 3L16 5L17 5L17 7L18 7L18 9L17 9L17 12L19 12L19 11L20 11L20 12L21 12L21 13L23 13L23 15L22 15L22 14L21 14L21 15L20 15L20 16L21 16L21 15L22 15L22 17L21 17L21 20L20 20L20 21L21 21L21 26L20 26L20 27L19 27L19 30L18 30L18 26L15 26L15 25L17 25L17 24L18 24L18 25L20 25L20 22L19 22L19 21L17 21L17 20L16 20L16 19L15 19L15 18L14 18L14 19L13 19L13 20L12 20L12 21L13 21L13 22L12 22L12 24L8 24L8 22L10 22L10 23L11 23L11 22L10 22L10 18L11 18L11 19L12 19L12 18L13 18L13 16L12 16L12 18L11 18L11 17L9 17L9 16L11 16L11 15L13 15L13 14L12 14L12 13L13 13L13 12L11 12L11 13L10 13L10 15L8 15L8 14L9 14L9 12L8 12L8 14L7 14L7 13L6 13L6 12L7 12L7 11L6 11L6 12L5 12L5 13L6 13L6 14L7 14L7 15L5 15L5 18L3 18L3 19L5 19L5 18L7 18L7 19L6 19L6 20L4 20L4 21L5 21L5 22L3 22L3 23L2 23L2 24L4 24L4 23L6 23L6 24L8 24L8 25L11 25L11 27L10 27L10 28L11 28L11 27L12 27L12 26L14 26L14 27L13 27L13 28L15 28L15 29L16 29L16 31L19 31L19 32L20 32L20 30L22 30L22 29L21 29L21 27L22 27L22 28L24 28L24 27L23 27L23 26L24 26L24 24L25 24L25 22L24 22L24 23L22 23L22 22L23 22L23 21L21 21L21 20L22 20L22 18L23 18L23 19L25 19L25 17L26 17L26 16L27 16L27 15L26 15L26 16L25 16L25 14L24 14L24 12L23 12L23 11L22 11L22 10L23 10L23 7L22 7L22 6L21 6L21 8L20 8L20 6L19 6L19 5L18 5L18 4L17 4L17 3ZM22 3L22 4L23 4L23 3ZM8 6L8 7L9 7L9 6ZM12 6L12 7L13 7L13 6ZM14 6L14 8L15 8L15 6ZM18 6L18 7L19 7L19 6ZM6 8L6 9L7 9L7 8ZM19 8L19 9L18 9L18 10L22 10L22 8L21 8L21 9L20 9L20 8ZM28 8L28 9L31 9L31 8ZM32 8L32 10L31 10L31 11L33 11L33 8ZM1 9L1 10L2 10L2 9ZM25 9L25 10L24 10L24 11L25 11L25 10L26 10L26 9ZM12 10L12 11L13 11L13 10ZM31 12L31 14L32 14L32 12ZM6 16L6 17L7 17L7 18L8 18L8 19L9 19L9 18L8 18L8 16ZM23 16L23 18L24 18L24 17L25 17L25 16ZM14 19L14 20L15 20L15 19ZM18 19L18 20L19 20L19 19ZM6 20L6 21L9 21L9 20ZM14 21L14 22L15 22L15 21ZM16 21L16 22L17 22L17 21ZM6 22L6 23L7 23L7 22ZM13 23L13 24L12 24L12 25L14 25L14 24L16 24L16 23ZM18 23L18 24L19 24L19 23ZM26 23L26 24L28 24L28 23ZM22 25L22 26L23 26L23 25ZM25 25L25 28L28 28L28 25ZM26 26L26 27L27 27L27 26ZM29 26L29 29L28 29L28 32L29 32L29 31L30 31L30 26ZM15 27L15 28L17 28L17 27ZM9 29L9 32L11 32L11 31L12 31L12 30L13 30L13 29L12 29L12 30L11 30L11 29ZM23 29L23 30L25 30L25 29ZM26 29L26 30L27 30L27 29ZM10 30L10 31L11 31L11 30ZM21 31L21 32L22 32L22 31ZM0 0L0 7L7 7L7 0ZM1 1L1 6L6 6L6 1ZM2 2L2 5L5 5L5 2ZM26 0L26 7L33 7L33 0ZM27 1L27 6L32 6L32 1ZM28 2L28 5L31 5L31 2ZM0 26L0 33L7 33L7 26ZM1 27L1 32L6 32L6 27ZM2 28L2 31L5 31L5 28Z" fill="#000000"/></g></g></svg>
