<?xml version="1.0" encoding="UTF-8"?>
<svg xmlns="http://www.w3.org/2000/svg" version="1.1" width="400" height="400" viewBox="0 0 400 400"><rect x="0" y="0" width="400" height="400" fill="#fefefe"/><g transform="scale(9.756)"><g transform="translate(4,4)"><path fill-rule="evenodd" d="M9 0L9 1L8 1L8 2L9 2L9 3L8 3L8 4L9 4L9 3L10 3L10 5L8 5L8 7L9 7L9 8L6 8L6 9L5 9L5 8L0 8L0 9L1 9L1 10L0 10L0 11L1 11L1 12L0 12L0 13L1 13L1 14L0 14L0 15L2 15L2 17L3 17L3 18L2 18L2 19L4 19L4 18L6 18L6 19L5 19L5 20L3 20L3 21L2 21L2 20L1 20L1 16L0 16L0 25L1 25L1 22L3 22L3 23L2 23L2 25L3 25L3 23L4 23L4 24L5 24L5 23L7 23L7 24L6 24L6 25L8 25L8 27L9 27L9 28L8 28L8 33L9 33L9 32L10 32L10 30L12 30L12 31L11 31L11 32L12 32L12 31L13 31L13 29L14 29L14 30L15 30L15 31L14 31L14 32L13 32L13 33L14 33L14 32L15 32L15 33L16 33L16 32L17 32L17 33L18 33L18 32L17 32L17 31L16 31L16 30L17 30L17 29L18 29L18 28L19 28L19 27L18 27L18 28L17 28L17 25L18 25L18 24L17 24L17 23L19 23L19 22L20 22L20 24L22 24L22 25L19 25L19 26L20 26L20 27L21 27L21 28L20 28L20 29L19 29L19 30L20 30L20 29L21 29L21 31L19 31L19 32L20 32L20 33L21 33L21 32L24 32L24 33L25 33L25 32L26 32L26 33L28 33L28 32L26 32L26 31L27 31L27 30L29 30L29 29L30 29L30 28L31 28L31 29L33 29L33 28L32 28L32 26L33 26L33 23L30 23L30 24L32 24L32 25L30 25L30 26L31 26L31 27L30 27L30 28L29 28L29 24L28 24L28 23L29 23L29 22L28 22L28 21L30 21L30 20L31 20L31 19L32 19L32 20L33 20L33 19L32 19L32 18L33 18L33 17L32 17L32 14L33 14L33 13L32 13L32 10L33 10L33 9L32 9L32 8L31 8L31 9L32 9L32 10L29 10L29 11L28 11L28 8L27 8L27 9L26 9L26 8L25 8L25 6L24 6L24 8L23 8L23 9L21 9L21 8L22 8L22 7L23 7L23 6L22 6L22 7L21 7L21 5L22 5L22 4L23 4L23 5L25 5L25 4L24 4L24 3L25 3L25 0L23 0L23 1L20 1L20 0L19 0L19 1L18 1L18 2L19 2L19 3L17 3L17 4L19 4L19 5L17 5L17 6L16 6L16 5L15 5L15 6L14 6L14 5L13 5L13 4L14 4L14 3L13 3L13 2L14 2L14 1L15 1L15 2L16 2L16 1L15 1L15 0ZM10 1L10 3L11 3L11 2L12 2L12 1ZM19 1L19 2L20 2L20 3L19 3L19 4L20 4L20 5L19 5L19 7L18 7L18 6L17 6L17 8L16 8L16 9L15 9L15 7L16 7L16 6L15 6L15 7L14 7L14 6L13 6L13 8L14 8L14 9L13 9L13 10L14 10L14 11L12 11L12 10L11 10L11 9L12 9L12 8L10 8L10 9L6 9L6 10L5 10L5 11L6 11L6 12L4 12L4 11L3 11L3 10L4 10L4 9L3 9L3 10L2 10L2 12L4 12L4 13L6 13L6 14L4 14L4 15L3 15L3 17L4 17L4 15L6 15L6 16L5 16L5 17L6 17L6 18L7 18L7 19L6 19L6 20L7 20L7 21L6 21L6 22L8 22L8 24L9 24L9 27L11 27L11 28L9 28L9 30L10 30L10 29L13 29L13 28L14 28L14 29L15 29L15 30L16 30L16 29L17 29L17 28L16 28L16 29L15 29L15 26L16 26L16 25L17 25L17 24L16 24L16 23L17 23L17 22L19 22L19 21L20 21L20 22L23 22L23 25L22 25L22 26L21 26L21 27L22 27L22 28L21 28L21 29L22 29L22 30L23 30L23 31L24 31L24 32L25 32L25 31L24 31L24 30L27 30L27 29L24 29L24 27L22 27L22 26L23 26L23 25L24 25L24 24L26 24L26 23L28 23L28 22L23 22L23 20L25 20L25 21L28 21L28 20L30 20L30 19L31 19L31 18L30 18L30 17L31 17L31 16L30 16L30 14L29 14L29 13L31 13L31 12L29 12L29 13L28 13L28 12L25 12L25 10L23 10L23 11L22 11L22 10L21 10L21 9L20 9L20 8L19 8L19 7L20 7L20 5L21 5L21 4L22 4L22 3L21 3L21 2L20 2L20 1ZM23 1L23 3L24 3L24 1ZM12 3L12 4L13 4L13 3ZM15 3L15 4L16 4L16 3ZM20 3L20 4L21 4L21 3ZM11 5L11 7L12 7L12 5ZM9 6L9 7L10 7L10 6ZM17 8L17 9L16 9L16 10L15 10L15 9L14 9L14 10L15 10L15 12L16 12L16 11L18 11L18 12L17 12L17 13L16 13L16 14L15 14L15 13L14 13L14 12L13 12L13 13L14 13L14 14L15 14L15 15L16 15L16 17L14 17L14 16L13 16L13 14L12 14L12 13L11 13L11 12L12 12L12 11L11 11L11 10L10 10L10 11L11 11L11 12L9 12L9 14L8 14L8 15L10 15L10 16L6 16L6 17L8 17L8 18L9 18L9 20L8 20L8 19L7 19L7 20L8 20L8 21L10 21L10 23L9 23L9 24L10 24L10 25L11 25L11 26L12 26L12 27L13 27L13 25L14 25L14 26L15 26L15 25L14 25L14 24L15 24L15 23L16 23L16 22L17 22L17 21L18 21L18 20L19 20L19 18L20 18L20 19L21 19L21 20L20 20L20 21L21 21L21 20L22 20L22 19L23 19L23 18L25 18L25 20L26 20L26 19L27 19L27 20L28 20L28 18L27 18L27 17L29 17L29 16L27 16L27 17L26 17L26 18L25 18L25 17L23 17L23 16L22 16L22 15L23 15L23 14L24 14L24 15L25 15L25 14L26 14L26 15L27 15L27 14L28 14L28 13L19 13L19 12L20 12L20 11L19 11L19 10L20 10L20 9L19 9L19 8ZM24 8L24 9L25 9L25 8ZM29 8L29 9L30 9L30 8ZM17 9L17 10L18 10L18 9ZM6 10L6 11L7 11L7 12L6 12L6 13L7 13L7 12L8 12L8 11L7 11L7 10ZM26 10L26 11L27 11L27 10ZM21 11L21 12L22 12L22 11ZM10 13L10 15L12 15L12 14L11 14L11 13ZM6 14L6 15L7 15L7 14ZM17 14L17 16L18 16L18 15L20 15L20 16L19 16L19 17L22 17L22 18L23 18L23 17L22 17L22 16L21 16L21 15L22 15L22 14ZM11 16L11 17L12 17L12 16ZM13 17L13 18L14 18L14 19L12 19L12 18L11 18L11 20L14 20L14 21L13 21L13 24L14 24L14 21L15 21L15 22L16 22L16 21L15 21L15 18L14 18L14 17ZM17 17L17 18L16 18L16 19L17 19L17 20L18 20L18 19L17 19L17 18L18 18L18 17ZM32 21L32 22L33 22L33 21ZM11 22L11 23L12 23L12 22ZM11 24L11 25L12 25L12 24ZM25 25L25 28L28 28L28 25ZM26 26L26 27L27 27L27 26ZM22 28L22 29L23 29L23 30L24 30L24 29L23 29L23 28ZM30 30L30 32L29 32L29 33L30 33L30 32L31 32L31 33L32 33L32 32L31 32L31 31L32 31L32 30ZM0 0L0 7L7 7L7 0ZM1 1L1 6L6 6L6 1ZM2 2L2 5L5 5L5 2ZM26 0L26 7L33 7L33 0ZM27 1L27 6L32 6L32 1ZM28 2L28 5L31 5L31 2ZM0 26L0 33L7 33L7 26ZM1 27L1 32L6 32L6 27ZM2 28L2 31L5 31L5 28Z" fill="#000000"/></g></g></svg>
