<?xml version="1.0" encoding="UTF-8"?>
<svg xmlns="http://www.w3.org/2000/svg" version="1.1" width="400" height="400" viewBox="0 0 400 400"><rect x="0" y="0" width="400" height="400" fill="#fefefe"/><g transform="scale(9.756)"><g transform="translate(4,4)"><path fill-rule="evenodd" d="M8 0L8 4L10 4L10 3L11 3L11 4L12 4L12 2L11 2L11 0ZM12 0L12 1L13 1L13 0ZM15 0L15 1L14 1L14 2L15 2L15 1L16 1L16 0ZM18 0L18 1L19 1L19 2L20 2L20 5L17 5L17 6L16 6L16 7L15 7L15 5L16 5L16 4L17 4L17 3L18 3L18 2L16 2L16 3L15 3L15 4L14 4L14 3L13 3L13 5L11 5L11 6L10 6L10 7L9 7L9 5L8 5L8 7L9 7L9 8L10 8L10 7L11 7L11 6L12 6L12 8L11 8L11 9L9 9L9 10L11 10L11 11L10 11L10 13L11 13L11 12L12 12L12 13L13 13L13 14L14 14L14 13L15 13L15 15L16 15L16 14L17 14L17 16L14 16L14 17L13 17L13 15L12 15L12 16L10 16L10 17L8 17L8 18L6 18L6 19L5 19L5 17L4 17L4 16L6 16L6 17L7 17L7 16L6 16L6 15L7 15L7 14L6 14L6 13L8 13L8 15L11 15L11 14L9 14L9 11L7 11L7 10L8 10L8 9L7 9L7 8L4 8L4 9L3 9L3 10L5 10L5 9L7 9L7 10L6 10L6 11L7 11L7 12L6 12L6 13L3 13L3 11L2 11L2 12L1 12L1 10L0 10L0 12L1 12L1 13L2 13L2 14L5 14L5 15L4 15L4 16L3 16L3 15L1 15L1 14L0 14L0 15L1 15L1 16L0 16L0 17L1 17L1 19L0 19L0 22L1 22L1 21L2 21L2 22L4 22L4 23L7 23L7 24L3 24L3 23L2 23L2 24L0 24L0 25L2 25L2 24L3 24L3 25L8 25L8 26L9 26L9 25L10 25L10 27L8 27L8 29L9 29L9 31L8 31L8 33L9 33L9 32L12 32L12 30L14 30L14 29L15 29L15 32L14 32L14 33L15 33L15 32L16 32L16 31L17 31L17 33L18 33L18 32L19 32L19 33L20 33L20 31L21 31L21 33L22 33L22 30L21 30L21 29L23 29L23 31L24 31L24 33L25 33L25 32L26 32L26 33L27 33L27 32L26 32L26 31L27 31L27 29L28 29L28 31L29 31L29 33L30 33L30 30L29 30L29 29L30 29L30 27L31 27L31 28L32 28L32 29L31 29L31 31L32 31L32 30L33 30L33 27L32 27L32 26L31 26L31 25L32 25L32 24L33 24L33 23L31 23L31 22L32 22L32 21L33 21L33 19L32 19L32 18L31 18L31 17L30 17L30 18L28 18L28 17L29 17L29 16L30 16L30 14L31 14L31 16L32 16L32 17L33 17L33 16L32 16L32 14L31 14L31 13L29 13L29 10L28 10L28 8L27 8L27 12L26 12L26 13L23 13L23 12L22 12L22 11L24 11L24 10L25 10L25 11L26 11L26 9L22 9L22 8L24 8L24 7L25 7L25 0L23 0L23 1L22 1L22 0L21 0L21 1L22 1L22 2L20 2L20 1L19 1L19 0ZM23 1L23 2L22 2L22 3L21 3L21 4L22 4L22 3L23 3L23 2L24 2L24 1ZM9 2L9 3L10 3L10 2ZM13 5L13 8L12 8L12 9L11 9L11 10L12 10L12 9L14 9L14 11L12 11L12 12L13 12L13 13L14 13L14 12L15 12L15 9L17 9L17 10L16 10L16 11L18 11L18 12L20 12L20 11L21 11L21 10L20 10L20 9L21 9L21 8L20 8L20 9L19 9L19 10L18 10L18 9L17 9L17 7L18 7L18 8L19 8L19 7L20 7L20 6L21 6L21 7L22 7L22 6L23 6L23 7L24 7L24 5L20 5L20 6L19 6L19 7L18 7L18 6L17 6L17 7L16 7L16 8L15 8L15 7L14 7L14 5ZM0 8L0 9L2 9L2 8ZM14 8L14 9L15 9L15 8ZM29 8L29 9L31 9L31 12L32 12L32 13L33 13L33 12L32 12L32 9L33 9L33 8ZM16 12L16 13L17 13L17 12ZM19 13L19 15L18 15L18 16L19 16L19 15L20 15L20 17L19 17L19 18L18 18L18 17L17 17L17 19L16 19L16 20L15 20L15 18L16 18L16 17L14 17L14 19L13 19L13 20L12 20L12 23L10 23L10 22L11 22L11 21L10 21L10 20L9 20L9 18L8 18L8 21L6 21L6 20L7 20L7 19L6 19L6 20L5 20L5 19L4 19L4 21L5 21L5 22L9 22L9 23L8 23L8 25L9 25L9 23L10 23L10 25L12 25L12 24L13 24L13 25L14 25L14 26L13 26L13 28L11 28L11 27L10 27L10 28L9 28L9 29L10 29L10 31L11 31L11 29L14 29L14 28L15 28L15 29L17 29L17 30L19 30L19 31L20 31L20 29L21 29L21 27L22 27L22 28L23 28L23 29L24 29L24 28L23 28L23 27L24 27L24 26L23 26L23 25L24 25L24 24L26 24L26 23L27 23L27 24L28 24L28 23L29 23L29 22L31 22L31 20L32 20L32 19L30 19L30 21L26 21L26 20L27 20L27 19L26 19L26 20L25 20L25 21L26 21L26 22L24 22L24 24L23 24L23 20L22 20L22 24L23 24L23 25L19 25L19 24L21 24L21 23L20 23L20 21L21 21L21 18L20 18L20 17L21 17L21 15L22 15L22 14L23 14L23 13ZM26 13L26 15L25 15L25 14L24 14L24 15L25 15L25 16L22 16L22 17L25 17L25 16L27 16L27 17L26 17L26 18L27 18L27 17L28 17L28 15L27 15L27 14L29 14L29 13ZM20 14L20 15L21 15L21 14ZM1 16L1 17L2 17L2 19L1 19L1 20L3 20L3 18L4 18L4 17L2 17L2 16ZM11 17L11 18L10 18L10 19L11 19L11 18L12 18L12 17ZM17 19L17 20L16 20L16 21L15 21L15 20L14 20L14 21L13 21L13 22L14 22L14 25L15 25L15 28L16 28L16 26L17 26L17 29L18 29L18 27L19 27L19 29L20 29L20 27L19 27L19 26L17 26L17 25L18 25L18 24L19 24L19 23L17 23L17 21L18 21L18 19ZM9 21L9 22L10 22L10 21ZM14 21L14 22L15 22L15 21ZM27 22L27 23L28 23L28 22ZM15 23L15 24L16 24L16 25L17 25L17 23ZM30 23L30 24L29 24L29 26L30 26L30 25L31 25L31 23ZM25 25L25 28L28 28L28 25ZM22 26L22 27L23 27L23 26ZM26 26L26 27L27 27L27 26ZM25 29L25 30L24 30L24 31L26 31L26 29ZM32 32L32 33L33 33L33 32ZM0 0L0 7L7 7L7 0ZM1 1L1 6L6 6L6 1ZM2 2L2 5L5 5L5 2ZM26 0L26 7L33 7L33 0ZM27 1L27 6L32 6L32 1ZM28 2L28 5L31 5L31 2ZM0 26L0 33L7 33L7 26ZM1 27L1 32L6 32L6 27ZM2 28L2 31L5 31L5 28Z" fill="#000000"/></g></g></svg>
