<?xml version="1.0" encoding="UTF-8"?>
<svg xmlns="http://www.w3.org/2000/svg" version="1.1" width="400" height="400" viewBox="0 0 400 400"><rect x="0" y="0" width="400" height="400" fill="#fefefe"/><g transform="scale(9.756)"><g transform="translate(4,4)"><path fill-rule="evenodd" d="M8 0L8 4L10 4L10 3L11 3L11 4L12 4L12 2L11 2L11 0ZM12 0L12 1L13 1L13 0ZM15 0L15 1L14 1L14 2L15 2L15 1L16 1L16 0ZM18 0L18 2L16 2L16 3L15 3L15 4L14 4L14 3L13 3L13 5L11 5L11 6L10 6L10 7L9 7L9 5L8 5L8 7L9 7L9 8L10 8L10 7L11 7L11 6L12 6L12 8L11 8L11 9L7 9L7 8L4 8L4 9L2 9L2 8L0 8L0 10L1 10L1 9L2 9L2 11L1 11L1 14L0 14L0 15L4 15L4 16L3 16L3 17L2 17L2 19L3 19L3 18L4 18L4 20L2 20L2 21L0 21L0 22L2 22L2 21L3 21L3 22L4 22L4 21L5 21L5 22L6 22L6 23L7 23L7 22L8 22L8 21L9 21L9 23L8 23L8 24L11 24L11 23L12 23L12 20L13 20L13 19L14 19L14 17L16 17L16 18L15 18L15 20L14 20L14 21L13 21L13 22L14 22L14 25L13 25L13 24L12 24L12 25L11 25L11 26L9 26L9 25L8 25L8 26L9 26L9 27L8 27L8 29L9 29L9 28L10 28L10 27L11 27L11 28L12 28L12 26L14 26L14 25L15 25L15 28L14 28L14 29L10 29L10 30L9 30L9 31L8 31L8 33L11 33L11 32L12 32L12 30L14 30L14 29L15 29L15 31L14 31L14 33L15 33L15 32L16 32L16 31L17 31L17 33L18 33L18 32L19 32L19 33L20 33L20 32L21 32L21 33L22 33L22 31L21 31L21 30L20 30L20 32L19 32L19 30L17 30L17 29L18 29L18 27L19 27L19 26L17 26L17 25L18 25L18 24L19 24L19 25L23 25L23 26L22 26L22 27L21 27L21 26L20 26L20 27L21 27L21 28L19 28L19 29L22 29L22 30L23 30L23 29L22 29L22 28L24 28L24 29L26 29L26 31L24 31L24 33L25 33L25 32L26 32L26 33L28 33L28 32L29 32L29 33L30 33L30 30L29 30L29 29L30 29L30 27L31 27L31 28L32 28L32 29L31 29L31 31L32 31L32 30L33 30L33 27L32 27L32 26L31 26L31 25L32 25L32 24L33 24L33 23L31 23L31 22L32 22L32 21L33 21L33 19L32 19L32 18L31 18L31 17L30 17L30 18L26 18L26 17L29 17L29 16L30 16L30 14L31 14L31 16L32 16L32 17L33 17L33 16L32 16L32 14L31 14L31 13L29 13L29 10L28 10L28 13L27 13L27 12L26 12L26 13L25 13L25 12L24 12L24 11L25 11L25 10L24 10L24 9L25 9L25 3L24 3L24 2L23 2L23 1L25 1L25 0L23 0L23 1L22 1L22 0L21 0L21 1L19 1L19 0ZM21 1L21 2L22 2L22 3L21 3L21 4L22 4L22 3L23 3L23 2L22 2L22 1ZM9 2L9 3L10 3L10 2ZM19 2L19 3L17 3L17 4L16 4L16 5L15 5L15 7L14 7L14 5L13 5L13 8L12 8L12 9L11 9L11 10L9 10L9 13L8 13L8 12L7 12L7 11L8 11L8 10L7 10L7 9L4 9L4 10L3 10L3 13L4 13L4 15L6 15L6 16L4 16L4 18L5 18L5 19L6 19L6 20L5 20L5 21L6 21L6 22L7 22L7 21L8 21L8 20L9 20L9 19L8 19L8 20L7 20L7 19L6 19L6 18L8 18L8 17L9 17L9 16L10 16L10 18L12 18L12 17L11 17L11 16L12 16L12 15L13 15L13 17L14 17L14 16L17 16L17 14L16 14L16 15L15 15L15 13L14 13L14 12L15 12L15 9L17 9L17 10L16 10L16 11L18 11L18 12L21 12L21 11L20 11L20 9L21 9L21 10L22 10L22 11L23 11L23 10L22 10L22 9L24 9L24 8L23 8L23 7L24 7L24 5L21 5L21 7L20 7L20 6L19 6L19 5L20 5L20 2ZM16 6L16 7L15 7L15 8L14 8L14 9L12 9L12 10L11 10L11 11L10 11L10 13L9 13L9 14L6 14L6 15L7 15L7 16L6 16L6 17L8 17L8 15L10 15L10 16L11 16L11 14L10 14L10 13L11 13L11 12L12 12L12 13L13 13L13 14L14 14L14 13L13 13L13 12L12 12L12 11L14 11L14 9L15 9L15 8L16 8L16 7L17 7L17 9L18 9L18 10L19 10L19 9L20 9L20 7L19 7L19 6L18 6L18 7L17 7L17 6ZM22 6L22 7L21 7L21 9L22 9L22 7L23 7L23 6ZM18 7L18 8L19 8L19 7ZM27 8L27 9L28 9L28 8ZM29 8L29 9L31 9L31 12L32 12L32 13L33 13L33 12L32 12L32 9L33 9L33 8ZM5 10L5 11L7 11L7 10ZM26 10L26 11L27 11L27 10ZM4 12L4 13L5 13L5 12ZM6 12L6 13L7 13L7 12ZM16 12L16 13L17 13L17 12ZM22 12L22 13L19 13L19 15L18 15L18 16L19 16L19 15L22 15L22 17L21 17L21 16L20 16L20 17L19 17L19 18L18 18L18 17L17 17L17 19L16 19L16 20L15 20L15 21L14 21L14 22L15 22L15 21L16 21L16 20L17 20L17 19L18 19L18 21L17 21L17 23L15 23L15 24L16 24L16 25L17 25L17 23L19 23L19 24L20 24L20 23L21 23L21 21L19 21L19 20L20 20L20 19L23 19L23 18L22 18L22 17L25 17L25 16L23 16L23 15L22 15L22 13L24 13L24 15L26 15L26 16L27 16L27 13L26 13L26 14L25 14L25 13L24 13L24 12ZM28 13L28 14L29 14L29 13ZM28 15L28 16L29 16L29 15ZM0 17L0 19L1 19L1 17ZM20 17L20 18L21 18L21 17ZM10 19L10 20L11 20L11 19ZM26 19L26 20L25 20L25 21L26 21L26 23L24 23L24 24L23 24L23 20L22 20L22 24L23 24L23 25L24 25L24 24L26 24L26 23L29 23L29 22L31 22L31 20L32 20L32 19L30 19L30 21L26 21L26 20L27 20L27 19ZM28 19L28 20L29 20L29 19ZM6 20L6 21L7 21L7 20ZM10 21L10 22L11 22L11 21ZM2 23L2 24L0 24L0 25L3 25L3 24L4 24L4 25L7 25L7 24L4 24L4 23ZM30 23L30 24L29 24L29 26L30 26L30 25L31 25L31 23ZM25 25L25 28L28 28L28 25ZM16 26L16 28L15 28L15 29L17 29L17 26ZM23 26L23 27L24 27L24 26ZM26 26L26 27L27 27L27 26ZM10 30L10 31L11 31L11 30ZM26 31L26 32L28 32L28 31ZM32 32L32 33L33 33L33 32ZM0 0L0 7L7 7L7 0ZM1 1L1 6L6 6L6 1ZM2 2L2 5L5 5L5 2ZM26 0L26 7L33 7L33 0ZM27 1L27 6L32 6L32 1ZM28 2L28 5L31 5L31 2ZM0 26L0 33L7 33L7 26ZM1 27L1 32L6 32L6 27ZM2 28L2 31L5 31L5 28Z" fill="#000000"/></g></g></svg>
