<?xml version="1.0" encoding="UTF-8"?>
<svg xmlns="http://www.w3.org/2000/svg" version="1.1" width="400" height="400" viewBox="0 0 400 400"><rect x="0" y="0" width="400" height="400" fill="#fefefe"/><g transform="scale(9.756)"><g transform="translate(4,4)"><path fill-rule="evenodd" d="M8 0L8 1L9 1L9 2L10 2L10 3L11 3L11 1L13 1L13 0L11 0L11 1L9 1L9 0ZM16 0L16 1L19 1L19 2L18 2L18 3L17 3L17 2L16 2L16 4L17 4L17 5L16 5L16 8L15 8L15 6L14 6L14 5L15 5L15 3L14 3L14 2L15 2L15 1L14 1L14 2L12 2L12 4L11 4L11 5L10 5L10 4L9 4L9 5L10 5L10 8L9 8L9 6L8 6L8 8L9 8L9 10L8 10L8 9L7 9L7 8L6 8L6 9L5 9L5 8L3 8L3 9L5 9L5 10L3 10L3 11L2 11L2 8L0 8L0 9L1 9L1 10L0 10L0 11L1 11L1 12L0 12L0 15L1 15L1 13L3 13L3 14L2 14L2 15L4 15L4 16L3 16L3 17L2 17L2 18L1 18L1 16L0 16L0 19L2 19L2 18L4 18L4 16L5 16L5 15L7 15L7 16L6 16L6 17L5 17L5 18L6 18L6 19L5 19L5 20L2 20L2 21L0 21L0 25L3 25L3 24L1 24L1 22L2 22L2 23L7 23L7 24L4 24L4 25L7 25L7 24L8 24L8 26L9 26L9 28L8 28L8 30L9 30L9 31L8 31L8 33L11 33L11 32L9 32L9 31L10 31L10 30L9 30L9 29L12 29L12 30L11 30L11 31L12 31L12 30L13 30L13 32L14 32L14 31L16 31L16 32L15 32L15 33L18 33L18 32L17 32L17 31L18 31L18 29L17 29L17 30L16 30L16 28L15 28L15 27L16 27L16 26L17 26L17 24L18 24L18 23L19 23L19 25L20 25L20 26L19 26L19 27L18 27L18 28L19 28L19 32L20 32L20 33L21 33L21 31L22 31L22 33L26 33L26 32L28 32L28 33L30 33L30 32L33 32L33 30L32 30L32 31L31 31L31 30L30 30L30 29L29 29L29 25L30 25L30 26L31 26L31 25L32 25L32 24L33 24L33 22L32 22L32 23L30 23L30 22L29 22L29 21L30 21L30 20L31 20L31 21L32 21L32 19L33 19L33 15L31 15L31 13L30 13L30 12L32 12L32 13L33 13L33 12L32 12L32 11L33 11L33 10L30 10L30 12L29 12L29 11L28 11L28 10L29 10L29 9L28 9L28 10L26 10L26 9L27 9L27 8L26 8L26 9L25 9L25 6L24 6L24 5L25 5L25 4L24 4L24 5L23 5L23 3L25 3L25 2L23 2L23 0L22 0L22 2L20 2L20 1L19 1L19 0ZM24 0L24 1L25 1L25 0ZM22 2L22 3L23 3L23 2ZM19 3L19 4L18 4L18 6L17 6L17 8L18 8L18 6L19 6L19 8L20 8L20 5L21 5L21 10L19 10L19 12L20 12L20 13L19 13L19 14L16 14L16 16L15 16L15 18L17 18L17 20L16 20L16 19L15 19L15 20L13 20L13 19L14 19L14 17L13 17L13 18L12 18L12 19L11 19L11 20L12 20L12 22L13 22L13 25L14 25L14 27L13 27L13 26L10 26L10 27L12 27L12 29L13 29L13 30L14 30L14 29L13 29L13 28L14 28L14 27L15 27L15 25L16 25L16 24L17 24L17 23L18 23L18 22L19 22L19 23L20 23L20 25L21 25L21 26L20 26L20 27L19 27L19 28L20 28L20 30L21 30L21 29L22 29L22 30L23 30L23 32L26 32L26 31L27 31L27 29L25 29L25 31L24 31L24 29L23 29L23 28L24 28L24 27L23 27L23 26L22 26L22 24L23 24L23 23L20 23L20 22L19 22L19 20L18 20L18 18L17 18L17 17L18 17L18 15L19 15L19 14L20 14L20 15L21 15L21 18L20 18L20 19L21 19L21 21L22 21L22 20L25 20L25 23L26 23L26 22L28 22L28 21L29 21L29 20L30 20L30 19L32 19L32 18L30 18L30 19L29 19L29 18L26 18L26 16L25 16L25 15L24 15L24 14L26 14L26 15L28 15L28 14L29 14L29 16L30 16L30 17L31 17L31 16L30 16L30 14L29 14L29 12L27 12L27 11L26 11L26 10L25 10L25 9L24 9L24 6L23 6L23 9L22 9L22 4L20 4L20 3ZM12 4L12 5L11 5L11 7L12 7L12 9L10 9L10 10L9 10L9 11L6 11L6 10L7 10L7 9L6 9L6 10L5 10L5 12L4 12L4 14L7 14L7 13L8 13L8 14L9 14L9 15L8 15L8 16L7 16L7 17L6 17L6 18L9 18L9 19L8 19L8 20L7 20L7 19L6 19L6 20L7 20L7 21L2 21L2 22L7 22L7 21L8 21L8 22L9 22L9 21L8 21L8 20L10 20L10 18L11 18L11 17L12 17L12 16L14 16L14 15L15 15L15 13L16 13L16 11L13 11L13 10L15 10L15 8L13 8L13 7L14 7L14 6L13 6L13 7L12 7L12 5L14 5L14 4ZM19 4L19 5L20 5L20 4ZM32 8L32 9L33 9L33 8ZM12 9L12 10L10 10L10 11L9 11L9 14L10 14L10 15L9 15L9 16L8 16L8 17L11 17L11 16L12 16L12 15L14 15L14 13L15 13L15 12L14 12L14 13L13 13L13 11L12 11L12 10L13 10L13 9ZM16 9L16 10L17 10L17 11L18 11L18 9ZM23 9L23 10L22 10L22 11L24 11L24 12L22 12L22 16L23 16L23 17L24 17L24 18L21 18L21 19L24 19L24 18L25 18L25 17L24 17L24 16L23 16L23 14L24 14L24 13L27 13L27 12L26 12L26 11L25 11L25 10L24 10L24 9ZM20 11L20 12L21 12L21 11ZM5 12L5 13L7 13L7 12ZM10 12L10 14L13 14L13 13L11 13L11 12ZM17 12L17 13L18 13L18 12ZM20 13L20 14L21 14L21 13ZM16 16L16 17L17 17L17 16ZM19 16L19 17L20 17L20 16ZM26 19L26 20L28 20L28 19ZM15 20L15 23L14 23L14 25L15 25L15 24L16 24L16 20ZM17 20L17 21L18 21L18 20ZM10 23L10 25L11 25L11 24L12 24L12 23ZM30 24L30 25L31 25L31 24ZM25 25L25 28L28 28L28 25ZM21 26L21 27L20 27L20 28L21 28L21 27L22 27L22 26ZM26 26L26 27L27 27L27 26ZM30 27L30 28L31 28L31 29L33 29L33 28L32 28L32 27ZM28 29L28 30L29 30L29 29ZM28 31L28 32L30 32L30 31ZM0 0L0 7L7 7L7 0ZM1 1L1 6L6 6L6 1ZM2 2L2 5L5 5L5 2ZM26 0L26 7L33 7L33 0ZM27 1L27 6L32 6L32 1ZM28 2L28 5L31 5L31 2ZM0 26L0 33L7 33L7 26ZM1 27L1 32L6 32L6 27ZM2 28L2 31L5 31L5 28Z" fill="#000000"/></g></g></svg>
