<?xml version="1.0" encoding="UTF-8"?>
<svg xmlns="http://www.w3.org/2000/svg" version="1.1" width="400" height="400" viewBox="0 0 400 400"><rect x="0" y="0" width="400" height="400" fill="#fefefe"/><g transform="scale(9.756)"><g transform="translate(4,4)"><path fill-rule="evenodd" d="M8 0L8 4L9 4L9 5L8 5L8 7L9 7L9 8L10 8L10 7L11 7L11 5L12 5L12 7L13 7L13 5L14 5L14 7L15 7L15 8L14 8L14 9L13 9L13 8L12 8L12 9L11 9L11 11L10 11L10 13L9 13L9 15L7 15L7 14L8 14L8 13L7 13L7 12L6 12L6 11L8 11L8 10L10 10L10 9L7 9L7 8L4 8L4 9L3 9L3 10L1 10L1 9L2 9L2 8L0 8L0 10L1 10L1 11L2 11L2 13L3 13L3 14L4 14L4 12L5 12L5 13L7 13L7 14L5 14L5 15L4 15L4 16L3 16L3 19L7 19L7 18L8 18L8 17L7 17L7 16L9 16L9 18L10 18L10 17L11 17L11 22L10 22L10 23L9 23L9 25L8 25L8 26L9 26L9 27L8 27L8 29L10 29L10 28L9 28L9 27L11 27L11 30L9 30L9 31L8 31L8 33L9 33L9 32L10 32L10 33L11 33L11 32L10 32L10 31L12 31L12 32L13 32L13 31L12 31L12 30L14 30L14 29L15 29L15 31L14 31L14 33L15 33L15 32L16 32L16 31L17 31L17 33L18 33L18 32L19 32L19 33L20 33L20 31L21 31L21 33L22 33L22 31L24 31L24 33L25 33L25 31L24 31L24 30L25 30L25 29L26 29L26 31L29 31L29 33L30 33L30 30L29 30L29 29L30 29L30 27L31 27L31 28L32 28L32 26L31 26L31 25L32 25L32 24L33 24L33 23L31 23L31 22L32 22L32 21L33 21L33 19L32 19L32 18L31 18L31 17L30 17L30 18L28 18L28 17L29 17L29 16L30 16L30 14L31 14L31 16L32 16L32 17L33 17L33 16L32 16L32 14L31 14L31 13L29 13L29 11L28 11L28 10L27 10L27 11L25 11L25 10L24 10L24 9L25 9L25 8L24 8L24 7L25 7L25 6L24 6L24 7L23 7L23 6L22 6L22 7L21 7L21 6L20 6L20 5L19 5L19 6L18 6L18 5L17 5L17 6L16 6L16 7L15 7L15 5L16 5L16 4L17 4L17 3L19 3L19 2L20 2L20 3L22 3L22 2L23 2L23 5L24 5L24 2L23 2L23 1L25 1L25 0L23 0L23 1L22 1L22 0L20 0L20 1L18 1L18 2L16 2L16 3L15 3L15 4L14 4L14 3L12 3L12 4L9 4L9 3L11 3L11 2L9 2L9 0ZM10 0L10 1L12 1L12 2L13 2L13 0ZM15 0L15 1L14 1L14 2L15 2L15 1L16 1L16 0ZM21 1L21 2L22 2L22 1ZM9 5L9 7L10 7L10 5ZM17 6L17 7L16 7L16 8L15 8L15 9L14 9L14 11L13 11L13 10L12 10L12 11L11 11L11 13L10 13L10 14L11 14L11 13L12 13L12 15L9 15L9 16L11 16L11 17L12 17L12 16L13 16L13 17L14 17L14 19L13 19L13 18L12 18L12 19L13 19L13 21L14 21L14 22L15 22L15 21L16 21L16 20L17 20L17 19L18 19L18 21L17 21L17 23L13 23L13 22L12 22L12 23L11 23L11 24L10 24L10 26L11 26L11 25L12 25L12 24L13 24L13 25L14 25L14 26L13 26L13 27L12 27L12 29L14 29L14 28L15 28L15 29L17 29L17 30L19 30L19 31L20 31L20 30L21 30L21 31L22 31L22 29L24 29L24 24L23 24L23 19L22 19L22 17L25 17L25 16L27 16L27 17L26 17L26 18L27 18L27 19L26 19L26 20L27 20L27 21L25 21L25 23L26 23L26 24L28 24L28 22L31 22L31 20L32 20L32 19L30 19L30 21L28 21L28 20L27 20L27 19L28 19L28 18L27 18L27 17L28 17L28 15L27 15L27 13L28 13L28 14L29 14L29 13L28 13L28 11L27 11L27 13L25 13L25 11L24 11L24 12L23 12L23 13L21 13L21 12L20 12L20 11L21 11L21 10L22 10L22 11L23 11L23 9L24 9L24 8L23 8L23 7L22 7L22 8L23 8L23 9L21 9L21 7L20 7L20 6L19 6L19 7L18 7L18 6ZM17 7L17 9L15 9L15 12L14 12L14 13L13 13L13 14L14 14L14 13L15 13L15 15L16 15L16 14L17 14L17 16L14 16L14 17L16 17L16 18L15 18L15 20L14 20L14 21L15 21L15 20L16 20L16 19L17 19L17 17L18 17L18 18L19 18L19 17L20 17L20 18L21 18L21 17L22 17L22 16L25 16L25 15L26 15L26 14L25 14L25 13L23 13L23 15L19 15L19 13L20 13L20 14L21 14L21 13L20 13L20 12L18 12L18 11L16 11L16 10L17 10L17 9L18 9L18 10L19 10L19 9L20 9L20 10L21 10L21 9L20 9L20 7L19 7L19 8L18 8L18 7ZM27 8L27 9L28 9L28 8ZM29 8L29 9L31 9L31 12L32 12L32 13L33 13L33 12L32 12L32 9L33 9L33 8ZM4 9L4 10L3 10L3 12L4 12L4 11L6 11L6 10L7 10L7 9L6 9L6 10L5 10L5 9ZM12 11L12 12L13 12L13 11ZM0 12L0 15L1 15L1 16L2 16L2 15L1 15L1 12ZM16 12L16 13L17 13L17 12ZM24 14L24 15L25 15L25 14ZM5 15L5 17L4 17L4 18L7 18L7 17L6 17L6 16L7 16L7 15ZM18 15L18 16L19 16L19 15ZM20 16L20 17L21 17L21 16ZM0 17L0 22L1 22L1 21L2 21L2 20L1 20L1 18L2 18L2 17ZM8 19L8 21L9 21L9 19ZM19 19L19 21L21 21L21 23L17 23L17 25L16 25L16 24L14 24L14 25L15 25L15 28L16 28L16 26L17 26L17 29L18 29L18 27L19 27L19 26L17 26L17 25L18 25L18 24L19 24L19 25L20 25L20 28L19 28L19 29L22 29L22 27L23 27L23 25L22 25L22 19ZM4 20L4 21L3 21L3 22L4 22L4 24L3 24L3 23L2 23L2 24L0 24L0 25L7 25L7 24L6 24L6 23L7 23L7 22L6 22L6 21L7 21L7 20ZM4 21L4 22L5 22L5 23L6 23L6 22L5 22L5 21ZM27 21L27 22L28 22L28 21ZM30 23L30 24L29 24L29 26L30 26L30 25L31 25L31 23ZM20 24L20 25L21 25L21 26L22 26L22 25L21 25L21 24ZM25 25L25 28L28 28L28 25ZM26 26L26 27L27 27L27 26ZM31 29L31 31L32 31L32 30L33 30L33 29ZM26 32L26 33L28 33L28 32ZM32 32L32 33L33 33L33 32ZM0 0L0 7L7 7L7 0ZM1 1L1 6L6 6L6 1ZM2 2L2 5L5 5L5 2ZM26 0L26 7L33 7L33 0ZM27 1L27 6L32 6L32 1ZM28 2L28 5L31 5L31 2ZM0 26L0 33L7 33L7 26ZM1 27L1 32L6 32L6 27ZM2 28L2 31L5 31L5 28Z" fill="#000000"/></g></g></svg>
