<?xml version="1.0" encoding="UTF-8"?>
<svg xmlns="http://www.w3.org/2000/svg" version="1.1" width="400" height="400" viewBox="0 0 400 400"><rect x="0" y="0" width="400" height="400" fill="#fefefe"/><g transform="scale(9.756)"><g transform="translate(4,4)"><path fill-rule="evenodd" d="M10 0L10 2L11 2L11 0ZM12 0L12 1L13 1L13 2L12 2L12 4L14 4L14 3L13 3L13 2L14 2L14 1L15 1L15 2L16 2L16 1L15 1L15 0ZM19 0L19 1L17 1L17 2L19 2L19 3L20 3L20 4L18 4L18 3L17 3L17 4L18 4L18 7L19 7L19 8L17 8L17 6L16 6L16 5L15 5L15 6L14 6L14 5L11 5L11 6L10 6L10 4L11 4L11 3L8 3L8 4L9 4L9 5L8 5L8 7L9 7L9 8L6 8L6 9L5 9L5 8L0 8L0 13L2 13L2 12L1 12L1 11L3 11L3 12L6 12L6 13L11 13L11 12L9 12L9 9L10 9L10 11L11 11L11 9L12 9L12 10L13 10L13 11L12 11L12 13L14 13L14 14L15 14L15 15L16 15L16 17L14 17L14 16L12 16L12 15L13 15L13 14L11 14L11 16L9 16L9 15L8 15L8 16L9 16L9 17L12 17L12 18L13 18L13 19L14 19L14 18L15 18L15 21L14 21L14 20L13 20L13 21L14 21L14 24L13 24L13 22L12 22L12 20L11 20L11 19L9 19L9 18L6 18L6 17L7 17L7 16L6 16L6 17L5 17L5 18L6 18L6 19L7 19L7 20L4 20L4 21L3 21L3 17L2 17L2 18L0 18L0 25L1 25L1 21L3 21L3 22L2 22L2 24L3 24L3 25L5 25L5 23L7 23L7 24L6 24L6 25L8 25L8 27L9 27L9 25L10 25L10 28L8 28L8 33L11 33L11 32L9 32L9 31L10 31L10 29L11 29L11 30L13 30L13 29L14 29L14 30L15 30L15 33L16 33L16 32L17 32L17 33L18 33L18 32L17 32L17 31L16 31L16 30L17 30L17 29L18 29L18 28L19 28L19 27L18 27L18 28L17 28L17 25L18 25L18 24L17 24L17 23L19 23L19 22L21 22L21 24L19 24L19 26L20 26L20 27L21 27L21 28L22 28L22 27L21 27L21 26L22 26L22 25L23 25L23 27L24 27L24 31L23 31L23 32L24 32L24 33L25 33L25 32L24 32L24 31L27 31L27 30L29 30L29 29L30 29L30 28L31 28L31 29L32 29L32 28L33 28L33 27L32 27L32 26L33 26L33 23L30 23L30 24L32 24L32 25L30 25L30 26L31 26L31 27L30 27L30 28L29 28L29 24L26 24L26 23L27 23L27 22L28 22L28 21L30 21L30 20L31 20L31 19L32 19L32 20L33 20L33 19L32 19L32 18L33 18L33 17L32 17L32 14L33 14L33 13L32 13L32 10L33 10L33 9L32 9L32 8L31 8L31 9L32 9L32 10L28 10L28 11L26 11L26 10L27 10L27 9L28 9L28 8L27 8L27 9L26 9L26 8L25 8L25 5L24 5L24 4L25 4L25 3L24 3L24 2L25 2L25 0L23 0L23 1L20 1L20 0ZM8 1L8 2L9 2L9 1ZM19 1L19 2L20 2L20 3L21 3L21 4L20 4L20 5L19 5L19 7L20 7L20 8L19 8L19 9L24 9L24 10L22 10L22 11L24 11L24 10L26 10L26 9L24 9L24 8L23 8L23 7L24 7L24 5L22 5L22 4L24 4L24 3L21 3L21 2L20 2L20 1ZM23 1L23 2L24 2L24 1ZM15 3L15 4L16 4L16 3ZM21 5L21 6L20 6L20 7L21 7L21 8L22 8L22 7L23 7L23 6L22 6L22 5ZM9 6L9 7L10 7L10 6ZM11 6L11 7L12 7L12 9L13 9L13 10L14 10L14 11L13 11L13 12L14 12L14 13L15 13L15 14L16 14L16 13L17 13L17 12L18 12L18 11L16 11L16 12L15 12L15 10L16 10L16 9L17 9L17 10L18 10L18 9L17 9L17 8L16 8L16 9L15 9L15 7L16 7L16 6L15 6L15 7L14 7L14 6L13 6L13 7L12 7L12 6ZM21 6L21 7L22 7L22 6ZM10 8L10 9L11 9L11 8ZM13 8L13 9L14 9L14 10L15 10L15 9L14 9L14 8ZM29 8L29 9L30 9L30 8ZM1 9L1 10L2 10L2 9ZM3 9L3 10L4 10L4 11L6 11L6 12L7 12L7 11L8 11L8 10L7 10L7 9L6 9L6 10L5 10L5 9ZM6 10L6 11L7 11L7 10ZM19 10L19 11L20 11L20 12L19 12L19 13L21 13L21 14L22 14L22 15L23 15L23 16L21 16L21 15L20 15L20 14L17 14L17 16L18 16L18 15L20 15L20 16L19 16L19 17L25 17L25 18L19 18L19 19L22 19L22 20L18 20L18 19L17 19L17 18L18 18L18 17L17 17L17 18L16 18L16 19L17 19L17 20L18 20L18 21L17 21L17 22L16 22L16 21L15 21L15 22L16 22L16 23L15 23L15 24L14 24L14 25L13 25L13 28L12 28L12 26L11 26L11 28L12 28L12 29L13 29L13 28L14 28L14 29L15 29L15 30L16 30L16 29L17 29L17 28L16 28L16 29L15 29L15 26L16 26L16 25L17 25L17 24L16 24L16 23L17 23L17 22L19 22L19 21L21 21L21 22L23 22L23 24L24 24L24 23L26 23L26 22L23 22L23 20L25 20L25 21L28 21L28 20L30 20L30 19L31 19L31 18L30 18L30 17L31 17L31 16L30 16L30 14L29 14L29 13L31 13L31 12L29 12L29 11L28 11L28 12L26 12L26 11L25 11L25 12L26 12L26 13L24 13L24 12L21 12L21 11L20 11L20 10ZM28 12L28 13L26 13L26 14L24 14L24 13L22 13L22 14L24 14L24 15L26 15L26 16L27 16L27 15L26 15L26 14L28 14L28 13L29 13L29 12ZM3 13L3 14L0 14L0 16L1 16L1 15L2 15L2 16L4 16L4 15L5 15L5 13ZM6 14L6 15L7 15L7 14ZM28 16L28 17L26 17L26 18L25 18L25 20L26 20L26 19L27 19L27 18L28 18L28 17L29 17L29 16ZM13 17L13 18L14 18L14 17ZM8 19L8 21L10 21L10 22L8 22L8 23L9 23L9 24L8 24L8 25L9 25L9 24L10 24L10 25L12 25L12 24L11 24L11 23L12 23L12 22L11 22L11 20L9 20L9 19ZM4 21L4 22L3 22L3 24L4 24L4 23L5 23L5 22L7 22L7 21ZM32 21L32 22L33 22L33 21ZM21 24L21 25L20 25L20 26L21 26L21 25L22 25L22 24ZM14 25L14 26L15 26L15 25ZM25 25L25 28L28 28L28 25ZM26 26L26 27L27 27L27 26ZM19 29L19 30L20 30L20 31L19 31L19 32L20 32L20 33L21 33L21 32L22 32L22 30L23 30L23 29ZM25 29L25 30L27 30L27 29ZM30 30L30 32L29 32L29 31L28 31L28 32L29 32L29 33L30 33L30 32L31 32L31 33L32 33L32 32L31 32L31 31L32 31L32 30ZM12 31L12 32L13 32L13 33L14 33L14 32L13 32L13 31ZM0 0L0 7L7 7L7 0ZM1 1L1 6L6 6L6 1ZM2 2L2 5L5 5L5 2ZM26 0L26 7L33 7L33 0ZM27 1L27 6L32 6L32 1ZM28 2L28 5L31 5L31 2ZM0 26L0 33L7 33L7 26ZM1 27L1 32L6 32L6 27ZM2 28L2 31L5 31L5 28Z" fill="#000000"/></g></g></svg>
