<?xml version="1.0" encoding="UTF-8"?>
<svg xmlns="http://www.w3.org/2000/svg" version="1.1" width="400" height="400" viewBox="0 0 400 400"><rect x="0" y="0" width="400" height="400" fill="#fefefe"/><g transform="scale(9.756)"><g transform="translate(4,4)"><path fill-rule="evenodd" d="M8 0L8 1L9 1L9 2L8 2L8 5L9 5L9 4L11 4L11 5L10 5L10 10L9 10L9 8L8 8L8 9L7 9L7 8L6 8L6 9L5 9L5 10L4 10L4 11L3 11L3 10L2 10L2 9L4 9L4 8L0 8L0 11L1 11L1 12L2 12L2 14L3 14L3 16L2 16L2 15L1 15L1 16L0 16L0 19L1 19L1 16L2 16L2 18L3 18L3 19L2 19L2 20L0 20L0 22L2 22L2 23L1 23L1 24L0 24L0 25L1 25L1 24L2 24L2 25L4 25L4 24L5 24L5 25L8 25L8 26L9 26L9 27L10 27L10 26L11 26L11 24L12 24L12 25L14 25L14 24L16 24L16 23L13 23L13 24L12 24L12 21L13 21L13 19L14 19L14 20L15 20L15 19L16 19L16 20L17 20L17 21L16 21L16 22L17 22L17 21L19 21L19 22L20 22L20 24L21 24L21 22L20 22L20 21L23 21L23 22L22 22L22 23L25 23L25 24L24 24L24 25L22 25L22 26L20 26L20 25L18 25L18 24L19 24L19 23L18 23L18 24L17 24L17 25L15 25L15 26L18 26L18 30L19 30L19 27L21 27L21 29L22 29L22 26L23 26L23 29L24 29L24 30L20 30L20 31L22 31L22 32L19 32L19 31L16 31L16 29L15 29L15 28L17 28L17 27L15 27L15 28L13 28L13 27L14 27L14 26L13 26L13 27L11 27L11 29L10 29L10 28L9 28L9 29L8 29L8 33L13 33L13 32L12 32L12 31L11 31L11 32L10 32L10 31L9 31L9 30L12 30L12 29L13 29L13 30L15 30L15 31L16 31L16 33L23 33L23 31L24 31L24 32L25 32L25 33L26 33L26 32L25 32L25 31L27 31L27 30L26 30L26 29L29 29L29 26L30 26L30 31L29 31L29 33L31 33L31 32L30 32L30 31L32 31L32 32L33 32L33 31L32 31L32 29L33 29L33 27L31 27L31 26L32 26L32 25L33 25L33 21L32 21L32 20L30 20L30 19L28 19L28 18L29 18L29 17L32 17L32 18L31 18L31 19L32 19L32 18L33 18L33 16L32 16L32 15L30 15L30 16L28 16L28 13L29 13L29 12L30 12L30 11L29 11L29 10L28 10L28 9L31 9L31 8L28 8L28 9L26 9L26 8L25 8L25 6L24 6L24 7L23 7L23 5L22 5L22 8L21 8L21 5L20 5L20 4L19 4L19 3L17 3L17 2L15 2L15 0L12 0L12 1L11 1L11 0L10 0L10 1L9 1L9 0ZM18 0L18 2L19 2L19 1L20 1L20 3L21 3L21 0ZM23 0L23 1L22 1L22 2L23 2L23 3L22 3L22 4L23 4L23 3L24 3L24 5L25 5L25 2L24 2L24 1L25 1L25 0ZM11 2L11 4L12 4L12 3L13 3L13 2ZM14 2L14 4L13 4L13 5L12 5L12 6L11 6L11 8L12 8L12 6L13 6L13 10L14 10L14 9L15 9L15 11L14 11L14 13L13 13L13 14L12 14L12 16L11 16L11 17L10 17L10 19L13 19L13 16L16 16L16 15L17 15L17 17L15 17L15 18L14 18L14 19L15 19L15 18L16 18L16 19L17 19L17 18L19 18L19 19L18 19L18 20L19 20L19 19L21 19L21 20L22 20L22 19L25 19L25 17L26 17L26 16L27 16L27 17L28 17L28 16L27 16L27 12L26 12L26 10L25 10L25 8L23 8L23 9L24 9L24 11L23 11L23 10L22 10L22 9L20 9L20 6L19 6L19 5L18 5L18 6L17 6L17 7L18 7L18 6L19 6L19 8L18 8L18 9L17 9L17 12L16 12L16 5L17 5L17 3L16 3L16 5L14 5L14 4L15 4L15 2ZM8 6L8 7L9 7L9 6ZM14 6L14 8L15 8L15 6ZM32 8L32 10L31 10L31 11L33 11L33 8ZM6 9L6 10L7 10L7 11L4 11L4 14L5 14L5 18L4 18L4 19L3 19L3 20L2 20L2 21L3 21L3 20L5 20L5 21L4 21L4 22L3 22L3 23L4 23L4 22L5 22L5 23L6 23L6 24L7 24L7 23L6 23L6 22L11 22L11 21L8 21L8 20L7 20L7 19L6 19L6 18L8 18L8 19L9 19L9 17L6 17L6 16L8 16L8 15L6 15L6 14L7 14L7 13L6 13L6 12L8 12L8 11L9 11L9 10L7 10L7 9ZM11 9L11 10L12 10L12 9ZM18 9L18 10L20 10L20 11L19 11L19 12L17 12L17 13L15 13L15 14L17 14L17 13L19 13L19 14L18 14L18 16L20 16L20 18L21 18L21 17L22 17L22 18L24 18L24 17L25 17L25 16L26 16L26 15L25 15L25 16L22 16L22 15L23 15L23 13L22 13L22 14L21 14L21 10L20 10L20 9ZM1 10L1 11L2 11L2 10ZM27 10L27 11L28 11L28 10ZM11 11L11 13L8 13L8 14L9 14L9 15L10 15L10 14L11 14L11 13L12 13L12 12L13 12L13 11ZM24 11L24 12L25 12L25 11ZM19 12L19 13L20 13L20 12ZM31 12L31 14L32 14L32 12ZM0 13L0 14L1 14L1 13ZM5 13L5 14L6 14L6 13ZM25 13L25 14L26 14L26 13ZM13 14L13 15L14 15L14 14ZM20 14L20 16L21 16L21 14ZM3 16L3 17L4 17L4 16ZM5 19L5 20L6 20L6 21L5 21L5 22L6 22L6 21L7 21L7 20L6 20L6 19ZM27 19L27 20L26 20L26 21L27 21L27 20L28 20L28 23L29 23L29 25L30 25L30 26L31 26L31 25L32 25L32 21L29 21L29 20L28 20L28 19ZM24 20L24 21L25 21L25 20ZM14 21L14 22L15 22L15 21ZM25 22L25 23L26 23L26 24L27 24L27 23L26 23L26 22ZM29 22L29 23L31 23L31 22ZM9 23L9 24L8 24L8 25L10 25L10 24L11 24L11 23ZM25 25L25 28L28 28L28 25ZM26 26L26 27L27 27L27 26ZM0 0L0 7L7 7L7 0ZM1 1L1 6L6 6L6 1ZM2 2L2 5L5 5L5 2ZM26 0L26 7L33 7L33 0ZM27 1L27 6L32 6L32 1ZM28 2L28 5L31 5L31 2ZM0 26L0 33L7 33L7 26ZM1 27L1 32L6 32L6 27ZM2 28L2 31L5 31L5 28Z" fill="#000000"/></g></g></svg>
