<?xml version="1.0" encoding="UTF-8"?>
<svg xmlns="http://www.w3.org/2000/svg" version="1.1" width="400" height="400" viewBox="0 0 400 400"><rect x="0" y="0" width="400" height="400" fill="#fefefe"/><g transform="scale(9.756)"><g transform="translate(4,4)"><path fill-rule="evenodd" d="M8 0L8 4L10 4L10 3L11 3L11 4L12 4L12 2L11 2L11 0ZM12 0L12 1L13 1L13 0ZM15 0L15 1L14 1L14 2L15 2L15 1L16 1L16 0ZM20 0L20 1L19 1L19 3L20 3L20 1L22 1L22 2L21 2L21 3L22 3L22 4L21 4L21 5L24 5L24 7L23 7L23 6L22 6L22 7L21 7L21 6L20 6L20 5L19 5L19 6L18 6L18 5L17 5L17 6L16 6L16 7L15 7L15 5L16 5L16 4L17 4L17 3L18 3L18 2L16 2L16 3L15 3L15 4L14 4L14 3L13 3L13 5L11 5L11 6L10 6L10 7L9 7L9 5L8 5L8 7L9 7L9 8L10 8L10 7L11 7L11 6L12 6L12 8L11 8L11 9L9 9L9 10L11 10L11 11L10 11L10 13L11 13L11 12L12 12L12 13L13 13L13 14L14 14L14 13L15 13L15 15L16 15L16 14L17 14L17 16L14 16L14 17L13 17L13 15L12 15L12 16L11 16L11 17L12 17L12 18L9 18L9 19L10 19L10 20L6 20L6 19L7 19L7 18L6 18L6 19L5 19L5 21L4 21L4 20L3 20L3 19L1 19L1 18L0 18L0 20L1 20L1 21L0 21L0 22L2 22L2 21L4 21L4 22L3 22L3 23L2 23L2 24L0 24L0 25L4 25L4 24L5 24L5 23L7 23L7 22L5 22L5 21L9 21L9 22L8 22L8 23L9 23L9 25L8 25L8 24L6 24L6 25L8 25L8 26L9 26L9 27L8 27L8 29L9 29L9 30L10 30L10 29L9 29L9 28L10 28L10 26L11 26L11 27L12 27L12 28L13 28L13 27L12 27L12 26L14 26L14 25L15 25L15 28L14 28L14 29L11 29L11 32L12 32L12 31L13 31L13 30L14 30L14 29L15 29L15 32L14 32L14 33L15 33L15 32L16 32L16 31L17 31L17 33L18 33L18 32L19 32L19 33L25 33L25 31L23 31L23 30L25 30L25 29L26 29L26 31L27 31L27 29L28 29L28 32L29 32L29 31L30 31L30 30L29 30L29 29L30 29L30 27L31 27L31 28L32 28L32 29L31 29L31 31L32 31L32 30L33 30L33 27L32 27L32 26L31 26L31 25L32 25L32 24L33 24L33 23L31 23L31 22L32 22L32 21L33 21L33 19L32 19L32 18L31 18L31 17L30 17L30 18L26 18L26 17L29 17L29 16L30 16L30 14L31 14L31 16L32 16L32 17L33 17L33 16L32 16L32 14L31 14L31 13L29 13L29 10L28 10L28 8L27 8L27 10L28 10L28 12L26 12L26 13L25 13L25 12L24 12L24 13L22 13L22 10L23 10L23 11L24 11L24 9L25 9L25 11L26 11L26 9L25 9L25 5L24 5L24 3L25 3L25 2L23 2L23 1L25 1L25 0L23 0L23 1L22 1L22 0ZM9 2L9 3L10 3L10 2ZM22 2L22 3L23 3L23 2ZM13 5L13 8L12 8L12 9L11 9L11 10L12 10L12 9L14 9L14 11L12 11L12 12L13 12L13 13L14 13L14 12L15 12L15 9L17 9L17 10L16 10L16 11L18 11L18 12L20 12L20 13L19 13L19 15L18 15L18 16L19 16L19 15L22 15L22 13L21 13L21 12L20 12L20 11L21 11L21 10L22 10L22 9L24 9L24 8L22 8L22 9L21 9L21 8L20 8L20 9L19 9L19 10L18 10L18 9L17 9L17 7L18 7L18 8L19 8L19 7L20 7L20 6L19 6L19 7L18 7L18 6L17 6L17 7L16 7L16 8L15 8L15 7L14 7L14 5ZM0 8L0 9L2 9L2 10L1 10L1 11L0 11L0 12L1 12L1 13L0 13L0 15L1 15L1 16L0 16L0 17L1 17L1 16L3 16L3 17L4 17L4 18L5 18L5 16L3 16L3 15L7 15L7 16L6 16L6 17L9 17L9 16L10 16L10 15L11 15L11 14L10 14L10 15L8 15L8 14L3 14L3 13L4 13L4 12L5 12L5 11L7 11L7 10L5 10L5 9L7 9L7 8L4 8L4 10L3 10L3 9L2 9L2 8ZM14 8L14 9L15 9L15 8ZM29 8L29 9L31 9L31 12L32 12L32 13L33 13L33 12L32 12L32 9L33 9L33 8ZM20 9L20 10L21 10L21 9ZM2 10L2 11L3 11L3 12L2 12L2 13L1 13L1 15L3 15L3 14L2 14L2 13L3 13L3 12L4 12L4 11L5 11L5 10L4 10L4 11L3 11L3 10ZM6 12L6 13L9 13L9 12ZM16 12L16 13L17 13L17 12ZM20 13L20 14L21 14L21 13ZM24 13L24 15L25 15L25 16L23 16L23 17L21 17L21 16L20 16L20 17L19 17L19 18L18 18L18 17L17 17L17 19L16 19L16 20L15 20L15 18L16 18L16 17L14 17L14 19L13 19L13 20L12 20L12 23L11 23L11 24L10 24L10 25L12 25L12 24L13 24L13 25L14 25L14 22L15 22L15 21L16 21L16 20L17 20L17 19L18 19L18 21L17 21L17 23L15 23L15 24L16 24L16 25L17 25L17 26L16 26L16 28L15 28L15 29L17 29L17 30L19 30L19 31L21 31L21 30L22 30L22 29L24 29L24 24L26 24L26 23L27 23L27 22L28 22L28 23L29 23L29 22L31 22L31 20L32 20L32 19L30 19L30 21L26 21L26 20L28 20L28 19L26 19L26 20L25 20L25 21L26 21L26 22L25 22L25 23L24 23L24 24L23 24L23 19L22 19L22 18L23 18L23 17L25 17L25 16L26 16L26 15L27 15L27 14L29 14L29 13L26 13L26 15L25 15L25 13ZM28 15L28 16L29 16L29 15ZM20 17L20 18L21 18L21 17ZM19 19L19 21L21 21L21 22L20 22L20 23L21 23L21 24L19 24L19 23L17 23L17 25L18 25L18 24L19 24L19 25L23 25L23 24L22 24L22 19ZM14 20L14 21L13 21L13 22L14 22L14 21L15 21L15 20ZM9 22L9 23L10 23L10 22ZM30 23L30 24L29 24L29 26L30 26L30 25L31 25L31 23ZM25 25L25 28L28 28L28 25ZM17 26L17 29L18 29L18 27L19 27L19 29L22 29L22 28L23 28L23 27L22 27L22 26L20 26L20 27L19 27L19 26ZM26 26L26 27L27 27L27 26ZM20 27L20 28L21 28L21 27ZM8 31L8 33L10 33L10 31ZM22 31L22 32L23 32L23 31ZM32 32L32 33L33 33L33 32ZM0 0L0 7L7 7L7 0ZM1 1L1 6L6 6L6 1ZM2 2L2 5L5 5L5 2ZM26 0L26 7L33 7L33 0ZM27 1L27 6L32 6L32 1ZM28 2L28 5L31 5L31 2ZM0 26L0 33L7 33L7 26ZM1 27L1 32L6 32L6 27ZM2 28L2 31L5 31L5 28Z" fill="#000000"/></g></g></svg>
