<?xml version="1.0" encoding="UTF-8"?>
<svg xmlns="http://www.w3.org/2000/svg" version="1.1" width="400" height="400" viewBox="0 0 400 400"><rect x="0" y="0" width="400" height="400" fill="#fefefe"/><g transform="scale(9.756)"><g transform="translate(4,4)"><path fill-rule="evenodd" d="M12 0L12 1L13 1L13 2L14 2L14 1L15 1L15 2L16 2L16 1L15 1L15 0ZM19 0L19 1L20 1L20 2L21 2L21 3L20 3L20 4L18 4L18 3L19 3L19 2L18 2L18 3L17 3L17 4L18 4L18 5L17 5L17 6L16 6L16 5L15 5L15 6L14 6L14 5L12 5L12 3L8 3L8 4L9 4L9 5L8 5L8 7L9 7L9 8L6 8L6 9L10 9L10 11L11 11L11 10L13 10L13 9L14 9L14 10L15 10L15 11L14 11L14 12L13 12L13 11L12 11L12 12L13 12L13 13L11 13L11 12L8 12L8 13L9 13L9 17L8 17L8 18L4 18L4 16L2 16L2 15L1 15L1 14L2 14L2 13L3 13L3 10L4 10L4 11L8 11L8 10L5 10L5 8L0 8L0 9L1 9L1 10L2 10L2 13L1 13L1 14L0 14L0 15L1 15L1 16L0 16L0 17L1 17L1 19L0 19L0 25L1 25L1 20L4 20L4 21L5 21L5 22L6 22L6 23L7 23L7 24L5 24L5 23L4 23L4 22L3 22L3 21L2 21L2 22L3 22L3 23L2 23L2 25L4 25L4 24L5 24L5 25L7 25L7 24L8 24L8 27L9 27L9 28L8 28L8 33L10 33L10 32L11 32L11 30L12 30L12 32L13 32L13 33L14 33L14 32L15 32L15 33L16 33L16 32L17 32L17 33L18 33L18 32L17 32L17 31L16 31L16 30L17 30L17 29L18 29L18 28L19 28L19 27L18 27L18 28L17 28L17 25L18 25L18 24L17 24L17 23L19 23L19 22L20 22L20 23L21 23L21 24L20 24L20 25L19 25L19 26L20 26L20 25L21 25L21 26L22 26L22 25L23 25L23 22L25 22L25 21L26 21L26 22L28 22L28 23L27 23L27 24L26 24L26 23L25 23L25 24L24 24L24 26L23 26L23 27L20 27L20 29L19 29L19 30L20 30L20 29L21 29L21 30L22 30L22 29L23 29L23 32L24 32L24 33L26 33L26 32L27 32L27 33L28 33L28 32L31 32L31 33L32 33L32 32L31 32L31 31L32 31L32 30L30 30L30 31L27 31L27 30L29 30L29 29L30 29L30 28L32 28L32 29L33 29L33 27L32 27L32 26L33 26L33 23L30 23L30 24L32 24L32 25L30 25L30 26L31 26L31 27L30 27L30 28L29 28L29 24L28 24L28 23L29 23L29 22L28 22L28 21L30 21L30 20L31 20L31 19L32 19L32 20L33 20L33 19L32 19L32 18L33 18L33 17L32 17L32 14L33 14L33 13L32 13L32 10L33 10L33 9L32 9L32 8L31 8L31 9L32 9L32 10L28 10L28 11L29 11L29 12L28 12L28 13L21 13L21 12L22 12L22 11L23 11L23 12L25 12L25 11L23 11L23 10L25 10L25 9L26 9L26 10L27 10L27 9L28 9L28 8L27 8L27 9L26 9L26 8L25 8L25 6L24 6L24 8L23 8L23 6L22 6L22 5L25 5L25 4L22 4L22 5L20 5L20 4L21 4L21 3L23 3L23 1L25 1L25 0L23 0L23 1L20 1L20 0ZM8 1L8 2L9 2L9 1ZM10 1L10 2L11 2L11 1ZM24 2L24 3L25 3L25 2ZM13 3L13 4L14 4L14 3ZM15 3L15 4L16 4L16 3ZM10 4L10 6L9 6L9 7L10 7L10 6L11 6L11 7L12 7L12 5L11 5L11 4ZM18 5L18 6L17 6L17 8L16 8L16 9L15 9L15 7L16 7L16 6L15 6L15 7L14 7L14 6L13 6L13 8L14 8L14 9L15 9L15 10L16 10L16 9L17 9L17 10L18 10L18 9L17 9L17 8L18 8L18 6L19 6L19 7L20 7L20 8L19 8L19 9L22 9L22 10L23 10L23 9L22 9L22 8L21 8L21 7L22 7L22 6L21 6L21 7L20 7L20 5ZM10 8L10 9L12 9L12 8ZM24 8L24 9L25 9L25 8ZM29 8L29 9L30 9L30 8ZM19 10L19 11L21 11L21 10ZM0 11L0 12L1 12L1 11ZM16 11L16 12L14 12L14 13L13 13L13 16L11 16L11 15L12 15L12 14L11 14L11 13L10 13L10 14L11 14L11 15L10 15L10 16L11 16L11 17L13 17L13 16L14 16L14 17L16 17L16 15L15 15L15 14L16 14L16 13L17 13L17 12L18 12L18 11ZM26 11L26 12L27 12L27 11ZM6 12L6 13L7 13L7 12ZM19 12L19 13L20 13L20 14L17 14L17 16L18 16L18 15L20 15L20 16L19 16L19 17L20 17L20 18L19 18L19 20L18 20L18 19L17 19L17 18L18 18L18 17L17 17L17 18L16 18L16 19L17 19L17 20L18 20L18 21L17 21L17 22L16 22L16 21L15 21L15 18L11 18L11 19L6 19L6 20L5 20L5 21L6 21L6 22L8 22L8 21L9 21L9 22L11 22L11 23L8 23L8 24L11 24L11 25L13 25L13 26L11 26L11 29L10 29L10 30L9 30L9 32L10 32L10 30L11 30L11 29L13 29L13 30L14 30L14 29L15 29L15 30L16 30L16 29L17 29L17 28L16 28L16 29L15 29L15 28L14 28L14 27L15 27L15 26L16 26L16 25L17 25L17 24L16 24L16 23L17 23L17 22L19 22L19 20L21 20L21 21L20 21L20 22L23 22L23 20L25 20L25 18L26 18L26 17L28 17L28 18L29 18L29 19L26 19L26 21L28 21L28 20L30 20L30 19L31 19L31 18L30 18L30 17L31 17L31 16L30 16L30 14L29 14L29 13L31 13L31 12L29 12L29 13L28 13L28 14L26 14L26 15L24 15L24 14L23 14L23 15L22 15L22 14L21 14L21 13L20 13L20 12ZM14 13L14 14L15 14L15 13ZM3 14L3 15L5 15L5 16L6 16L6 17L7 17L7 16L8 16L8 15L7 15L7 14ZM20 14L20 15L21 15L21 16L20 16L20 17L21 17L21 20L22 20L22 18L25 18L25 17L21 17L21 16L22 16L22 15L21 15L21 14ZM6 15L6 16L7 16L7 15ZM1 16L1 17L2 17L2 16ZM28 16L28 17L29 17L29 16ZM9 17L9 18L10 18L10 17ZM2 18L2 19L4 19L4 18ZM6 20L6 21L8 21L8 20ZM10 20L10 21L11 21L11 22L12 22L12 24L13 24L13 25L14 25L14 26L13 26L13 27L12 27L12 28L13 28L13 29L14 29L14 28L13 28L13 27L14 27L14 26L15 26L15 25L14 25L14 24L13 24L13 23L14 23L14 22L15 22L15 23L16 23L16 22L15 22L15 21L14 21L14 20L13 20L13 21L11 21L11 20ZM13 21L13 22L14 22L14 21ZM32 21L32 22L33 22L33 21ZM21 24L21 25L22 25L22 24ZM9 25L9 26L10 26L10 25ZM25 25L25 28L28 28L28 25ZM26 26L26 27L27 27L27 26ZM21 28L21 29L22 29L22 28ZM23 28L23 29L24 29L24 30L27 30L27 29L24 29L24 28ZM13 31L13 32L14 32L14 31ZM21 31L21 32L19 32L19 33L21 33L21 32L22 32L22 31ZM24 31L24 32L26 32L26 31ZM0 0L0 7L7 7L7 0ZM1 1L1 6L6 6L6 1ZM2 2L2 5L5 5L5 2ZM26 0L26 7L33 7L33 0ZM27 1L27 6L32 6L32 1ZM28 2L28 5L31 5L31 2ZM0 26L0 33L7 33L7 26ZM1 27L1 32L6 32L6 27ZM2 28L2 31L5 31L5 28Z" fill="#000000"/></g></g></svg>
