<?xml version="1.0" encoding="UTF-8"?>
<svg xmlns="http://www.w3.org/2000/svg" version="1.1" width="400" height="400" viewBox="0 0 400 400"><rect x="0" y="0" width="400" height="400" fill="#fefefe"/><g transform="scale(9.756)"><g transform="translate(4,4)"><path fill-rule="evenodd" d="M11 0L11 1L8 1L8 3L9 3L9 2L10 2L10 4L8 4L8 8L6 8L6 9L7 9L7 10L6 10L6 11L5 11L5 13L4 13L4 14L3 14L3 15L4 15L4 16L5 16L5 18L4 18L4 17L2 17L2 16L1 16L1 15L0 15L0 20L1 20L1 22L0 22L0 23L1 23L1 24L0 24L0 25L1 25L1 24L2 24L2 25L3 25L3 24L4 24L4 25L8 25L8 27L9 27L9 29L8 29L8 30L9 30L9 31L8 31L8 33L9 33L9 32L10 32L10 33L11 33L11 32L12 32L12 31L13 31L13 30L14 30L14 32L13 32L13 33L14 33L14 32L16 32L16 33L17 33L17 32L20 32L20 33L25 33L25 32L26 32L26 30L27 30L27 29L28 29L28 31L29 31L29 29L30 29L30 31L33 31L33 29L30 29L30 25L29 25L29 24L28 24L28 23L29 23L29 22L31 22L31 23L33 23L33 21L29 21L29 22L28 22L28 20L30 20L30 19L27 19L27 21L26 21L26 23L25 23L25 22L24 22L24 27L21 27L21 29L20 29L20 28L19 28L19 29L18 29L18 26L22 26L22 25L23 25L23 22L22 22L22 23L20 23L20 22L19 22L19 21L16 21L16 22L17 22L17 23L16 23L16 24L15 24L15 23L13 23L13 22L15 22L15 21L14 21L14 20L13 20L13 19L15 19L15 20L16 20L16 19L17 19L17 20L18 20L18 19L19 19L19 18L17 18L17 17L20 17L20 18L21 18L21 19L20 19L20 21L23 21L23 20L24 20L24 21L25 21L25 20L26 20L26 17L27 17L27 18L28 18L28 17L29 17L29 16L30 16L30 15L32 15L32 14L33 14L33 9L32 9L32 8L30 8L30 9L29 9L29 8L26 8L26 10L24 10L24 14L22 14L22 13L23 13L23 11L22 11L22 8L23 8L23 9L24 9L24 7L25 7L25 6L24 6L24 7L23 7L23 6L22 6L22 7L21 7L21 2L22 2L22 1L23 1L23 3L22 3L22 4L23 4L23 5L25 5L25 2L24 2L24 1L25 1L25 0L19 0L19 1L20 1L20 3L19 3L19 2L18 2L18 1L17 1L17 0L15 0L15 4L13 4L13 2L14 2L14 0ZM12 1L12 2L11 2L11 4L12 4L12 2L13 2L13 1ZM16 3L16 6L15 6L15 7L14 7L14 5L11 5L11 7L10 7L10 6L9 6L9 7L10 7L10 8L8 8L8 10L7 10L7 11L6 11L6 12L7 12L7 13L5 13L5 15L6 15L6 16L7 16L7 17L6 17L6 18L5 18L5 19L2 19L2 20L3 20L3 21L5 21L5 22L2 22L2 23L6 23L6 24L8 24L8 25L9 25L9 27L10 27L10 26L13 26L13 27L11 27L11 29L12 29L12 30L10 30L10 32L11 32L11 31L12 31L12 30L13 30L13 29L14 29L14 30L15 30L15 31L16 31L16 32L17 32L17 31L20 31L20 29L19 29L19 30L18 30L18 29L17 29L17 28L15 28L15 27L17 27L17 25L15 25L15 26L14 26L14 25L12 25L12 24L13 24L13 23L12 23L12 22L13 22L13 21L12 21L12 20L11 20L11 22L10 22L10 21L8 21L8 22L7 22L7 21L5 21L5 19L6 19L6 20L7 20L7 19L8 19L8 18L7 18L7 17L9 17L9 16L10 16L10 18L9 18L9 20L10 20L10 18L11 18L11 19L12 19L12 18L13 18L13 17L14 17L14 18L15 18L15 19L16 19L16 18L15 18L15 17L14 17L14 16L16 16L16 15L17 15L17 14L18 14L18 16L19 16L19 15L20 15L20 14L19 14L19 13L20 13L20 12L21 12L21 11L16 11L16 8L17 8L17 9L18 9L18 10L21 10L21 9L20 9L20 6L19 6L19 9L18 9L18 8L17 8L17 7L18 7L18 5L20 5L20 4L19 4L19 3ZM12 6L12 7L13 7L13 6ZM16 6L16 7L15 7L15 8L16 8L16 7L17 7L17 6ZM0 8L0 10L1 10L1 12L0 12L0 14L1 14L1 12L3 12L3 11L4 11L4 10L5 10L5 9L4 9L4 8L3 8L3 9L2 9L2 8ZM10 8L10 9L13 9L13 10L12 10L12 11L11 11L11 10L9 10L9 11L8 11L8 13L9 13L9 15L10 15L10 14L11 14L11 15L13 15L13 16L12 16L12 17L11 17L11 18L12 18L12 17L13 17L13 16L14 16L14 15L13 15L13 13L14 13L14 14L15 14L15 13L19 13L19 12L16 12L16 11L15 11L15 9L14 9L14 8ZM1 9L1 10L2 10L2 9ZM28 9L28 10L29 10L29 9ZM13 10L13 11L14 11L14 10ZM31 10L31 11L30 11L30 12L29 12L29 11L28 11L28 12L27 12L27 15L26 15L26 14L25 14L25 15L26 15L26 16L27 16L27 15L28 15L28 13L29 13L29 14L31 14L31 12L32 12L32 10ZM9 11L9 13L11 13L11 14L12 14L12 13L13 13L13 12L11 12L11 11ZM25 12L25 13L26 13L26 12ZM6 14L6 15L7 15L7 16L8 16L8 15L7 15L7 14ZM21 14L21 15L22 15L22 16L23 16L23 17L22 17L22 18L23 18L23 19L25 19L25 16L23 16L23 15L22 15L22 14ZM20 16L20 17L21 17L21 16ZM32 16L32 17L33 17L33 16ZM23 17L23 18L24 18L24 17ZM6 18L6 19L7 19L7 18ZM31 18L31 19L32 19L32 20L33 20L33 18ZM6 22L6 23L7 23L7 22ZM10 23L10 25L11 25L11 24L12 24L12 23ZM17 23L17 24L18 24L18 25L20 25L20 23L19 23L19 24L18 24L18 23ZM26 23L26 24L27 24L27 23ZM25 25L25 28L28 28L28 25ZM31 25L31 27L32 27L32 26L33 26L33 25ZM26 26L26 27L27 27L27 26ZM13 27L13 28L14 28L14 29L15 29L15 28L14 28L14 27ZM23 28L23 29L22 29L22 30L23 30L23 29L24 29L24 28ZM16 29L16 31L17 31L17 29ZM22 31L22 32L24 32L24 31ZM28 32L28 33L30 33L30 32ZM31 32L31 33L32 33L32 32ZM0 0L0 7L7 7L7 0ZM1 1L1 6L6 6L6 1ZM2 2L2 5L5 5L5 2ZM26 0L26 7L33 7L33 0ZM27 1L27 6L32 6L32 1ZM28 2L28 5L31 5L31 2ZM0 26L0 33L7 33L7 26ZM1 27L1 32L6 32L6 27ZM2 28L2 31L5 31L5 28Z" fill="#000000"/></g></g></svg>
