<?xml version="1.0" encoding="UTF-8"?>
<svg xmlns="http://www.w3.org/2000/svg" version="1.1" width="400" height="400" viewBox="0 0 400 400"><rect x="0" y="0" width="400" height="400" fill="#fefefe"/><g transform="scale(9.756)"><g transform="translate(4,4)"><path fill-rule="evenodd" d="M9 0L9 1L8 1L8 2L9 2L9 3L8 3L8 4L9 4L9 3L10 3L10 5L8 5L8 7L9 7L9 8L6 8L6 9L7 9L7 10L6 10L6 11L5 11L5 10L4 10L4 15L3 15L3 18L2 18L2 17L1 17L1 18L0 18L0 20L1 20L1 21L0 21L0 25L1 25L1 21L2 21L2 20L1 20L1 19L3 19L3 18L4 18L4 19L5 19L5 18L6 18L6 19L7 19L7 20L6 20L6 21L4 21L4 20L3 20L3 21L4 21L4 22L5 22L5 23L4 23L4 24L5 24L5 25L7 25L7 24L5 24L5 23L7 23L7 22L8 22L8 23L9 23L9 24L12 24L12 25L11 25L11 26L13 26L13 25L14 25L14 26L15 26L15 29L14 29L14 28L13 28L13 27L11 27L11 28L10 28L10 26L9 26L9 25L8 25L8 27L9 27L9 28L8 28L8 33L10 33L10 32L9 32L9 28L10 28L10 31L11 31L11 30L12 30L12 32L13 32L13 33L14 33L14 32L13 32L13 29L14 29L14 30L15 30L15 33L16 33L16 32L17 32L17 33L18 33L18 32L17 32L17 31L16 31L16 30L17 30L17 29L18 29L18 28L20 28L20 29L19 29L19 30L20 30L20 29L21 29L21 28L22 28L22 27L24 27L24 29L22 29L22 30L21 30L21 31L20 31L20 33L21 33L21 32L24 32L24 33L26 33L26 32L24 32L24 31L25 31L25 30L26 30L26 31L27 31L27 30L29 30L29 29L30 29L30 28L31 28L31 29L33 29L33 28L32 28L32 26L33 26L33 23L30 23L30 24L32 24L32 25L30 25L30 26L31 26L31 27L30 27L30 28L29 28L29 24L28 24L28 23L27 23L27 24L25 24L25 23L26 23L26 22L28 22L28 21L30 21L30 20L31 20L31 19L32 19L32 20L33 20L33 19L32 19L32 18L33 18L33 17L32 17L32 14L33 14L33 13L32 13L32 10L33 10L33 9L32 9L32 8L31 8L31 9L32 9L32 10L28 10L28 8L27 8L27 9L26 9L26 8L25 8L25 6L24 6L24 7L23 7L23 6L22 6L22 5L25 5L25 4L22 4L22 5L20 5L20 4L21 4L21 3L23 3L23 1L24 1L24 2L25 2L25 0L23 0L23 1L20 1L20 0L19 0L19 1L20 1L20 2L19 2L19 3L17 3L17 5L18 5L18 8L17 8L17 6L16 6L16 5L15 5L15 6L14 6L14 5L13 5L13 4L14 4L14 3L13 3L13 2L14 2L14 1L15 1L15 2L16 2L16 1L15 1L15 0ZM10 1L10 3L11 3L11 2L12 2L12 1ZM12 3L12 4L13 4L13 3ZM15 3L15 4L16 4L16 3ZM19 3L19 4L18 4L18 5L19 5L19 9L20 9L20 10L19 10L19 13L20 13L20 14L17 14L17 16L18 16L18 15L20 15L20 16L19 16L19 17L22 17L22 18L19 18L19 20L18 20L18 19L17 19L17 18L18 18L18 17L17 17L17 18L16 18L16 19L17 19L17 20L18 20L18 21L17 21L17 22L16 22L16 21L15 21L15 18L14 18L14 17L16 17L16 15L15 15L15 14L16 14L16 13L17 13L17 12L18 12L18 11L16 11L16 12L15 12L15 10L16 10L16 9L17 9L17 10L18 10L18 9L17 9L17 8L16 8L16 9L15 9L15 7L16 7L16 6L15 6L15 7L14 7L14 6L13 6L13 8L14 8L14 9L13 9L13 10L14 10L14 11L12 11L12 10L11 10L11 9L12 9L12 8L10 8L10 9L9 9L9 11L6 11L6 12L5 12L5 15L6 15L6 16L4 16L4 18L5 18L5 17L6 17L6 18L7 18L7 17L6 17L6 16L8 16L8 17L10 17L10 18L9 18L9 19L8 19L8 20L9 20L9 19L11 19L11 20L14 20L14 21L13 21L13 22L14 22L14 21L15 21L15 22L16 22L16 23L13 23L13 24L14 24L14 25L15 25L15 26L16 26L16 25L17 25L17 28L16 28L16 29L15 29L15 30L16 30L16 29L17 29L17 28L18 28L18 27L20 27L20 28L21 28L21 27L20 27L20 26L21 26L21 25L22 25L22 26L23 26L23 25L24 25L24 24L23 24L23 25L22 25L22 24L21 24L21 23L20 23L20 22L19 22L19 21L21 21L21 22L23 22L23 23L25 23L25 22L23 22L23 20L25 20L25 21L28 21L28 20L30 20L30 19L31 19L31 18L30 18L30 17L31 17L31 16L30 16L30 14L29 14L29 13L31 13L31 12L29 12L29 11L28 11L28 10L21 10L21 9L25 9L25 8L23 8L23 7L22 7L22 6L21 6L21 7L22 7L22 8L21 8L21 9L20 9L20 5L19 5L19 4L20 4L20 3ZM11 5L11 7L12 7L12 5ZM9 6L9 7L10 7L10 6ZM0 8L0 9L2 9L2 11L1 11L1 10L0 10L0 11L1 11L1 14L2 14L2 12L3 12L3 9L5 9L5 8ZM29 8L29 9L30 9L30 8ZM14 9L14 10L15 10L15 9ZM10 10L10 11L11 11L11 12L8 12L8 13L7 13L7 12L6 12L6 13L7 13L7 14L6 14L6 15L7 15L7 14L8 14L8 13L9 13L9 14L10 14L10 13L11 13L11 14L12 14L12 15L11 15L11 16L10 16L10 17L11 17L11 18L12 18L12 19L14 19L14 18L13 18L13 17L14 17L14 16L13 16L13 14L12 14L12 13L11 13L11 12L12 12L12 11L11 11L11 10ZM21 11L21 12L20 12L20 13L21 13L21 14L22 14L22 15L21 15L21 16L22 16L22 17L23 17L23 18L22 18L22 19L20 19L20 20L22 20L22 19L23 19L23 18L25 18L25 20L26 20L26 19L27 19L27 20L28 20L28 19L27 19L27 18L28 18L28 17L29 17L29 15L25 15L25 14L28 14L28 13L29 13L29 12L28 12L28 13L25 13L25 12L24 12L24 13L23 13L23 12L22 12L22 11ZM13 12L13 13L14 13L14 14L15 14L15 13L14 13L14 12ZM21 12L21 13L22 13L22 14L23 14L23 15L22 15L22 16L23 16L23 17L25 17L25 18L26 18L26 17L28 17L28 16L25 16L25 15L24 15L24 14L25 14L25 13L24 13L24 14L23 14L23 13L22 13L22 12ZM0 15L0 16L2 16L2 15ZM11 16L11 17L12 17L12 16ZM6 21L6 22L7 22L7 21ZM10 21L10 23L12 23L12 22L11 22L11 21ZM32 21L32 22L33 22L33 21ZM2 22L2 25L3 25L3 22ZM17 22L17 23L16 23L16 24L17 24L17 25L18 25L18 24L17 24L17 23L19 23L19 22ZM20 24L20 25L19 25L19 26L20 26L20 25L21 25L21 24ZM25 25L25 28L28 28L28 25ZM26 26L26 27L27 27L27 26ZM11 28L11 29L13 29L13 28ZM26 29L26 30L27 30L27 29ZM22 30L22 31L24 31L24 30ZM30 30L30 31L28 31L28 32L27 32L27 33L28 33L28 32L31 32L31 33L32 33L32 32L31 32L31 31L32 31L32 30ZM0 0L0 7L7 7L7 0ZM1 1L1 6L6 6L6 1ZM2 2L2 5L5 5L5 2ZM26 0L26 7L33 7L33 0ZM27 1L27 6L32 6L32 1ZM28 2L28 5L31 5L31 2ZM0 26L0 33L7 33L7 26ZM1 27L1 32L6 32L6 27ZM2 28L2 31L5 31L5 28Z" fill="#000000"/></g></g></svg>
