<?xml version="1.0" encoding="UTF-8"?>
<svg xmlns="http://www.w3.org/2000/svg" version="1.1" width="400" height="400" viewBox="0 0 400 400"><rect x="0" y="0" width="400" height="400" fill="#fefefe"/><g transform="scale(9.756)"><g transform="translate(4,4)"><path fill-rule="evenodd" d="M9 0L9 1L10 1L10 0ZM12 0L12 2L11 2L11 4L10 4L10 2L9 2L9 3L8 3L8 5L9 5L9 4L10 4L10 8L9 8L9 9L8 9L8 8L5 8L5 10L4 10L4 9L2 9L2 8L0 8L0 9L2 9L2 10L4 10L4 11L2 11L2 13L1 13L1 15L0 15L0 19L1 19L1 17L2 17L2 20L0 20L0 25L2 25L2 24L3 24L3 25L5 25L5 24L4 24L4 23L7 23L7 22L8 22L8 24L9 24L9 23L11 23L11 26L10 26L10 25L8 25L8 28L9 28L9 27L10 27L10 31L11 31L11 32L12 32L12 30L13 30L13 31L14 31L14 32L13 32L13 33L14 33L14 32L15 32L15 33L16 33L16 32L17 32L17 33L18 33L18 32L17 32L17 31L18 31L18 30L17 30L17 29L18 29L18 28L19 28L19 27L18 27L18 28L17 28L17 29L16 29L16 28L15 28L15 27L17 27L17 23L19 23L19 22L21 22L21 23L20 23L20 24L19 24L19 26L20 26L20 24L21 24L21 23L22 23L22 24L23 24L23 25L24 25L24 26L21 26L21 27L23 27L23 28L24 28L24 29L22 29L22 30L23 30L23 32L24 32L24 33L25 33L25 32L26 32L26 33L27 33L27 32L28 32L28 31L29 31L29 32L31 32L31 33L32 33L32 32L31 32L31 30L29 30L29 29L30 29L30 28L31 28L31 29L33 29L33 27L32 27L32 26L33 26L33 25L32 25L32 24L33 24L33 23L30 23L30 24L26 24L26 23L29 23L29 21L30 21L30 20L31 20L31 19L30 19L30 18L32 18L32 20L33 20L33 17L32 17L32 16L33 16L33 15L32 15L32 14L33 14L33 12L32 12L32 10L29 10L29 9L30 9L30 8L28 8L28 10L27 10L27 11L26 11L26 9L23 9L23 8L24 8L24 7L25 7L25 5L24 5L24 4L25 4L25 2L24 2L24 4L23 4L23 0L22 0L22 2L21 2L21 4L22 4L22 5L24 5L24 7L23 7L23 6L22 6L22 10L25 10L25 11L22 11L22 15L23 15L23 14L24 14L24 15L26 15L26 14L28 14L28 10L29 10L29 14L30 14L30 16L31 16L31 17L30 17L30 18L27 18L27 17L26 17L26 18L27 18L27 19L28 19L28 22L26 22L26 21L25 21L25 20L26 20L26 19L25 19L25 20L23 20L23 21L21 21L21 17L19 17L19 15L18 15L18 16L16 16L16 15L17 15L17 14L20 14L20 16L21 16L21 14L20 14L20 12L21 12L21 10L20 10L20 9L19 9L19 5L20 5L20 4L18 4L18 3L16 3L16 4L18 4L18 5L17 5L17 6L16 6L16 8L15 8L15 11L18 11L18 13L17 13L17 12L16 12L16 13L15 13L15 12L14 12L14 14L15 14L15 15L14 15L14 16L13 16L13 14L12 14L12 11L14 11L14 10L13 10L13 9L14 9L14 8L13 8L13 6L14 6L14 7L15 7L15 6L14 6L14 5L13 5L13 4L15 4L15 3L13 3L13 2L14 2L14 1L13 1L13 0ZM16 0L16 1L17 1L17 2L19 2L19 0ZM24 0L24 1L25 1L25 0ZM12 3L12 4L13 4L13 3ZM11 5L11 7L12 7L12 5ZM8 6L8 7L9 7L9 6ZM17 6L17 8L16 8L16 10L18 10L18 9L17 9L17 8L18 8L18 6ZM20 6L20 8L21 8L21 6ZM10 8L10 9L12 9L12 8ZM6 9L6 10L5 10L5 11L4 11L4 12L3 12L3 13L2 13L2 14L4 14L4 13L6 13L6 14L7 14L7 15L5 15L5 16L4 16L4 15L2 15L2 16L3 16L3 17L4 17L4 19L6 19L6 20L7 20L7 21L5 21L5 22L7 22L7 21L9 21L9 22L10 22L10 21L11 21L11 20L14 20L14 21L13 21L13 26L11 26L11 28L12 28L12 29L13 29L13 30L14 30L14 29L15 29L15 28L14 28L14 27L15 27L15 26L14 26L14 22L15 22L15 20L16 20L16 19L14 19L14 17L15 17L15 18L16 18L16 16L14 16L14 17L13 17L13 19L9 19L9 18L10 18L10 17L12 17L12 16L10 16L10 15L12 15L12 14L11 14L11 11L12 11L12 10L11 10L11 11L10 11L10 10L8 10L8 9ZM6 10L6 11L7 11L7 10ZM19 10L19 12L20 12L20 10ZM9 11L9 13L8 13L8 14L9 14L9 15L10 15L10 14L9 14L9 13L10 13L10 11ZM6 12L6 13L7 13L7 12ZM24 12L24 13L25 13L25 14L26 14L26 12ZM30 12L30 13L32 13L32 12ZM7 15L7 16L6 16L6 17L5 17L5 18L6 18L6 19L7 19L7 20L9 20L9 21L10 21L10 20L9 20L9 19L7 19L7 18L9 18L9 17L10 17L10 16L8 16L8 15ZM28 15L28 17L29 17L29 15ZM7 16L7 17L6 17L6 18L7 18L7 17L8 17L8 16ZM22 16L22 17L23 17L23 19L24 19L24 18L25 18L25 17L23 17L23 16ZM17 17L17 20L18 20L18 21L16 21L16 23L17 23L17 22L19 22L19 21L20 21L20 19L19 19L19 20L18 20L18 17ZM29 19L29 20L30 20L30 19ZM2 20L2 21L1 21L1 24L2 24L2 23L3 23L3 22L2 22L2 21L4 21L4 20ZM11 22L11 23L12 23L12 22ZM23 22L23 23L24 23L24 22ZM25 22L25 23L26 23L26 22ZM6 24L6 25L7 25L7 24ZM15 24L15 25L16 25L16 24ZM30 24L30 25L29 25L29 28L30 28L30 27L31 27L31 26L30 26L30 25L31 25L31 24ZM25 25L25 28L28 28L28 25ZM26 26L26 27L27 27L27 26ZM12 27L12 28L13 28L13 29L14 29L14 28L13 28L13 27ZM20 28L20 29L19 29L19 31L20 31L20 33L21 33L21 30L20 30L20 29L21 29L21 28ZM26 29L26 32L27 32L27 31L28 31L28 29ZM24 30L24 32L25 32L25 30ZM32 30L32 31L33 31L33 30ZM8 31L8 33L10 33L10 32L9 32L9 31ZM15 31L15 32L16 32L16 31ZM0 0L0 7L7 7L7 0ZM1 1L1 6L6 6L6 1ZM2 2L2 5L5 5L5 2ZM26 0L26 7L33 7L33 0ZM27 1L27 6L32 6L32 1ZM28 2L28 5L31 5L31 2ZM0 26L0 33L7 33L7 26ZM1 27L1 32L6 32L6 27ZM2 28L2 31L5 31L5 28Z" fill="#000000"/></g></g></svg>
