<?xml version="1.0" encoding="UTF-8"?>
<svg xmlns="http://www.w3.org/2000/svg" version="1.1" width="400" height="400" viewBox="0 0 400 400"><rect x="0" y="0" width="400" height="400" fill="#fefefe"/><g transform="scale(9.756)"><g transform="translate(4,4)"><path fill-rule="evenodd" d="M8 0L8 4L9 4L9 5L8 5L8 7L9 7L9 8L10 8L10 7L11 7L11 5L12 5L12 7L13 7L13 5L14 5L14 7L15 7L15 8L14 8L14 9L13 9L13 8L12 8L12 9L11 9L11 11L10 11L10 13L11 13L11 14L9 14L9 15L7 15L7 14L6 14L6 15L4 15L4 14L5 14L5 13L9 13L9 11L8 11L8 12L5 12L5 11L4 11L4 10L3 10L3 9L2 9L2 8L0 8L0 9L1 9L1 11L4 11L4 12L5 12L5 13L4 13L4 14L2 14L2 15L1 15L1 13L0 13L0 16L2 16L2 17L5 17L5 18L6 18L6 19L4 19L4 18L3 18L3 19L4 19L4 20L2 20L2 19L0 19L0 22L1 22L1 20L2 20L2 24L0 24L0 25L2 25L2 24L3 24L3 25L8 25L8 26L10 26L10 25L11 25L11 28L12 28L12 27L13 27L13 26L14 26L14 25L15 25L15 28L14 28L14 29L11 29L11 31L10 31L10 30L9 30L9 31L8 31L8 33L11 33L11 31L12 31L12 30L14 30L14 29L15 29L15 32L14 32L14 33L15 33L15 32L16 32L16 31L17 31L17 33L18 33L18 32L19 32L19 33L20 33L20 32L19 32L19 30L17 30L17 29L18 29L18 27L19 27L19 26L17 26L17 25L18 25L18 24L19 24L19 25L20 25L20 26L21 26L21 29L20 29L20 31L21 31L21 33L22 33L22 30L23 30L23 31L24 31L24 33L25 33L25 31L27 31L27 29L28 29L28 32L26 32L26 33L28 33L28 32L29 32L29 31L30 31L30 30L29 30L29 29L30 29L30 27L31 27L31 28L32 28L32 26L31 26L31 25L32 25L32 24L33 24L33 23L31 23L31 22L32 22L32 21L33 21L33 19L32 19L32 18L31 18L31 17L30 17L30 18L28 18L28 17L29 17L29 16L30 16L30 14L31 14L31 16L32 16L32 17L33 17L33 16L32 16L32 14L31 14L31 13L29 13L29 10L26 10L26 11L28 11L28 12L25 12L25 13L22 13L22 11L24 11L24 10L25 10L25 9L24 9L24 7L25 7L25 6L24 6L24 7L23 7L23 6L22 6L22 7L21 7L21 5L25 5L25 2L24 2L24 3L22 3L22 2L23 2L23 1L25 1L25 0L23 0L23 1L22 1L22 0L21 0L21 1L19 1L19 0L18 0L18 1L17 1L17 2L16 2L16 3L15 3L15 4L14 4L14 3L12 3L12 4L9 4L9 3L11 3L11 2L9 2L9 0ZM10 0L10 1L12 1L12 2L13 2L13 0ZM15 0L15 1L14 1L14 2L15 2L15 1L16 1L16 0ZM18 1L18 3L17 3L17 4L16 4L16 5L15 5L15 7L16 7L16 8L15 8L15 9L14 9L14 11L13 11L13 10L12 10L12 11L11 11L11 13L12 13L12 15L9 15L9 17L10 17L10 16L11 16L11 17L12 17L12 16L13 16L13 17L14 17L14 19L13 19L13 18L12 18L12 19L13 19L13 21L14 21L14 22L12 22L12 23L11 23L11 22L10 22L10 24L11 24L11 25L12 25L12 24L13 24L13 25L14 25L14 22L15 22L15 21L16 21L16 20L17 20L17 19L18 19L18 21L17 21L17 23L15 23L15 24L16 24L16 25L17 25L17 23L20 23L20 21L21 21L21 19L22 19L22 25L21 25L21 24L20 24L20 25L21 25L21 26L22 26L22 29L21 29L21 30L22 30L22 29L24 29L24 31L25 31L25 29L24 29L24 28L23 28L23 27L24 27L24 26L22 26L22 25L23 25L23 19L22 19L22 18L23 18L23 17L25 17L25 16L23 16L23 15L22 15L22 13L19 13L19 15L18 15L18 16L20 16L20 17L19 17L19 18L18 18L18 17L17 17L17 19L16 19L16 20L15 20L15 18L16 18L16 17L14 17L14 16L17 16L17 14L16 14L16 15L15 15L15 13L14 13L14 12L15 12L15 9L17 9L17 10L16 10L16 11L18 11L18 12L20 12L20 10L21 10L21 11L22 11L22 9L23 9L23 7L22 7L22 9L19 9L19 10L18 10L18 9L17 9L17 7L18 7L18 3L21 3L21 4L22 4L22 3L21 3L21 2L22 2L22 1L21 1L21 2L19 2L19 1ZM19 4L19 5L20 5L20 4ZM9 5L9 7L10 7L10 5ZM16 6L16 7L17 7L17 6ZM19 6L19 7L20 7L20 6ZM4 8L4 9L5 9L5 10L6 10L6 11L7 11L7 10L6 10L6 9L7 9L7 8ZM27 8L27 9L28 9L28 8ZM29 8L29 9L31 9L31 12L32 12L32 13L33 13L33 12L32 12L32 9L33 9L33 8ZM9 9L9 10L10 10L10 9ZM12 11L12 12L13 12L13 11ZM16 12L16 13L17 13L17 12ZM13 13L13 14L14 14L14 13ZM25 13L25 14L24 14L24 15L25 15L25 14L26 14L26 15L27 15L27 17L26 17L26 18L27 18L27 19L26 19L26 20L27 20L27 21L25 21L25 23L24 23L24 24L27 24L27 23L29 23L29 22L31 22L31 20L32 20L32 19L30 19L30 21L28 21L28 20L27 20L27 19L28 19L28 18L27 18L27 17L28 17L28 14L29 14L29 13ZM20 14L20 16L21 16L21 17L20 17L20 18L21 18L21 17L23 17L23 16L22 16L22 15L21 15L21 14ZM2 15L2 16L4 16L4 15ZM6 15L6 16L5 16L5 17L6 17L6 18L7 18L7 19L6 19L6 20L5 20L5 21L4 21L4 22L3 22L3 24L8 24L8 23L9 23L9 20L8 20L8 19L11 19L11 18L8 18L8 16L7 16L7 15ZM6 16L6 17L7 17L7 16ZM0 17L0 18L1 18L1 17ZM19 19L19 21L20 21L20 19ZM6 20L6 21L7 21L7 22L4 22L4 23L7 23L7 22L8 22L8 21L7 21L7 20ZM10 20L10 21L11 21L11 20ZM14 20L14 21L15 21L15 20ZM27 21L27 22L26 22L26 23L27 23L27 22L28 22L28 21ZM30 23L30 24L29 24L29 26L30 26L30 25L31 25L31 23ZM25 25L25 28L28 28L28 25ZM16 26L16 28L15 28L15 29L17 29L17 26ZM26 26L26 27L27 27L27 26ZM8 27L8 29L10 29L10 28L9 28L9 27ZM31 29L31 31L32 31L32 30L33 30L33 29ZM9 31L9 32L10 32L10 31ZM32 32L32 33L33 33L33 32ZM0 0L0 7L7 7L7 0ZM1 1L1 6L6 6L6 1ZM2 2L2 5L5 5L5 2ZM26 0L26 7L33 7L33 0ZM27 1L27 6L32 6L32 1ZM28 2L28 5L31 5L31 2ZM0 26L0 33L7 33L7 26ZM1 27L1 32L6 32L6 27ZM2 28L2 31L5 31L5 28Z" fill="#000000"/></g></g></svg>
