<?xml version="1.0" encoding="UTF-8"?>
<svg xmlns="http://www.w3.org/2000/svg" version="1.1" width="400" height="400" viewBox="0 0 400 400"><rect x="0" y="0" width="400" height="400" fill="#fefefe"/><g transform="scale(9.756)"><g transform="translate(4,4)"><path fill-rule="evenodd" d="M8 0L8 4L9 4L9 5L8 5L8 7L9 7L9 8L10 8L10 7L11 7L11 5L12 5L12 7L13 7L13 5L14 5L14 7L15 7L15 8L14 8L14 9L13 9L13 8L12 8L12 9L11 9L11 11L10 11L10 13L9 13L9 14L10 14L10 15L8 15L8 14L6 14L6 13L8 13L8 12L9 12L9 10L10 10L10 9L9 9L9 10L8 10L8 9L7 9L7 8L4 8L4 10L3 10L3 9L2 9L2 8L0 8L0 9L2 9L2 11L4 11L4 14L5 14L5 16L6 16L6 17L7 17L7 18L6 18L6 19L5 19L5 20L4 20L4 18L5 18L5 17L4 17L4 16L3 16L3 17L4 17L4 18L3 18L3 19L0 19L0 22L3 22L3 21L1 21L1 20L4 20L4 21L5 21L5 22L4 22L4 24L5 24L5 25L7 25L7 24L6 24L6 23L8 23L8 26L9 26L9 27L8 27L8 29L10 29L10 30L9 30L9 31L8 31L8 33L9 33L9 32L10 32L10 33L11 33L11 32L12 32L12 31L13 31L13 30L14 30L14 29L15 29L15 31L14 31L14 33L15 33L15 32L16 32L16 31L17 31L17 33L18 33L18 32L19 32L19 33L20 33L20 32L19 32L19 30L17 30L17 29L18 29L18 27L19 27L19 29L20 29L20 31L21 31L21 33L22 33L22 31L21 31L21 29L22 29L22 30L25 30L25 31L23 31L23 33L26 33L26 31L27 31L27 32L29 32L29 33L30 33L30 31L29 31L29 29L30 29L30 27L31 27L31 28L32 28L32 26L31 26L31 25L32 25L32 24L33 24L33 23L31 23L31 22L32 22L32 21L33 21L33 19L32 19L32 18L31 18L31 17L30 17L30 18L29 18L29 19L28 19L28 18L26 18L26 17L29 17L29 16L30 16L30 14L31 14L31 16L32 16L32 17L33 17L33 16L32 16L32 14L31 14L31 13L29 13L29 10L28 10L28 11L25 11L25 9L24 9L24 7L25 7L25 5L24 5L24 3L25 3L25 2L23 2L23 1L25 1L25 0L23 0L23 1L22 1L22 0L20 0L20 1L17 1L17 2L16 2L16 3L15 3L15 4L14 4L14 3L12 3L12 4L9 4L9 3L11 3L11 2L9 2L9 0ZM10 0L10 1L12 1L12 2L13 2L13 0ZM15 0L15 1L14 1L14 2L15 2L15 1L16 1L16 0ZM20 1L20 2L22 2L22 3L21 3L21 5L20 5L20 3L19 3L19 2L18 2L18 3L17 3L17 4L16 4L16 5L15 5L15 7L16 7L16 8L15 8L15 9L14 9L14 11L13 11L13 10L12 10L12 11L11 11L11 13L10 13L10 14L11 14L11 13L12 13L12 15L10 15L10 16L8 16L8 15L6 15L6 16L7 16L7 17L10 17L10 18L11 18L11 17L12 17L12 16L13 16L13 17L14 17L14 19L13 19L13 18L12 18L12 19L13 19L13 21L14 21L14 22L15 22L15 21L16 21L16 20L17 20L17 19L18 19L18 21L17 21L17 23L13 23L13 22L12 22L12 23L11 23L11 20L9 20L9 18L8 18L8 20L7 20L7 19L6 19L6 20L5 20L5 21L6 21L6 22L5 22L5 23L6 23L6 22L7 22L7 21L9 21L9 22L8 22L8 23L9 23L9 24L10 24L10 25L9 25L9 26L10 26L10 25L12 25L12 24L13 24L13 25L14 25L14 26L13 26L13 27L11 27L11 29L14 29L14 28L15 28L15 29L17 29L17 26L19 26L19 27L20 27L20 26L21 26L21 27L22 27L22 29L24 29L24 28L23 28L23 27L24 27L24 26L22 26L22 25L24 25L24 24L25 24L25 23L26 23L26 24L28 24L28 23L26 23L26 22L31 22L31 20L32 20L32 19L30 19L30 21L25 21L25 22L24 22L24 24L23 24L23 20L22 20L22 25L19 25L19 24L20 24L20 22L21 22L21 21L19 21L19 20L21 20L21 19L23 19L23 17L25 17L25 16L26 16L26 15L27 15L27 16L28 16L28 14L29 14L29 13L28 13L28 12L27 12L27 13L26 13L26 12L25 12L25 11L24 11L24 12L22 12L22 13L19 13L19 15L18 15L18 16L20 16L20 14L22 14L22 15L23 15L23 14L22 14L22 13L26 13L26 14L24 14L24 15L25 15L25 16L23 16L23 17L19 17L19 18L18 18L18 17L17 17L17 19L16 19L16 20L15 20L15 18L16 18L16 17L14 17L14 16L17 16L17 14L16 14L16 15L15 15L15 13L14 13L14 12L15 12L15 9L17 9L17 10L16 10L16 11L18 11L18 12L20 12L20 11L23 11L23 10L22 10L22 9L23 9L23 8L22 8L22 9L21 9L21 7L22 7L22 6L23 6L23 7L24 7L24 5L23 5L23 2L22 2L22 1ZM9 5L9 7L10 7L10 5ZM17 5L17 6L16 6L16 7L17 7L17 9L18 9L18 10L19 10L19 9L20 9L20 10L21 10L21 9L20 9L20 8L19 8L19 6L20 6L20 7L21 7L21 6L22 6L22 5L21 5L21 6L20 6L20 5ZM17 6L17 7L18 7L18 6ZM27 8L27 9L28 9L28 8ZM29 8L29 9L31 9L31 12L32 12L32 13L33 13L33 12L32 12L32 9L33 9L33 8ZM6 9L6 10L4 10L4 11L6 11L6 12L5 12L5 13L6 13L6 12L8 12L8 11L6 11L6 10L7 10L7 9ZM0 11L0 12L1 12L1 13L2 13L2 12L1 12L1 11ZM12 11L12 12L13 12L13 11ZM16 12L16 13L17 13L17 12ZM13 13L13 14L14 14L14 13ZM27 13L27 14L28 14L28 13ZM1 14L1 15L0 15L0 17L2 17L2 16L1 16L1 15L2 15L2 14ZM10 16L10 17L11 17L11 16ZM20 18L20 19L21 19L21 18ZM26 19L26 20L27 20L27 19ZM6 20L6 21L7 21L7 20ZM14 20L14 21L15 21L15 20ZM2 23L2 24L0 24L0 25L3 25L3 23ZM10 23L10 24L11 24L11 23ZM17 23L17 25L16 25L16 24L14 24L14 25L15 25L15 28L16 28L16 26L17 26L17 25L18 25L18 24L19 24L19 23ZM30 23L30 24L29 24L29 26L30 26L30 25L31 25L31 23ZM25 25L25 28L28 28L28 25ZM26 26L26 27L27 27L27 26ZM20 28L20 29L21 29L21 28ZM31 29L31 31L32 31L32 30L33 30L33 29ZM10 31L10 32L11 32L11 31ZM32 32L32 33L33 33L33 32ZM0 0L0 7L7 7L7 0ZM1 1L1 6L6 6L6 1ZM2 2L2 5L5 5L5 2ZM26 0L26 7L33 7L33 0ZM27 1L27 6L32 6L32 1ZM28 2L28 5L31 5L31 2ZM0 26L0 33L7 33L7 26ZM1 27L1 32L6 32L6 27ZM2 28L2 31L5 31L5 28Z" fill="#000000"/></g></g></svg>
