<?xml version="1.0" encoding="UTF-8"?>
<svg xmlns="http://www.w3.org/2000/svg" version="1.1" width="400" height="400" viewBox="0 0 400 400"><rect x="0" y="0" width="400" height="400" fill="#fefefe"/><g transform="scale(9.756)"><g transform="translate(4,4)"><path fill-rule="evenodd" d="M11 0L11 1L8 1L8 3L9 3L9 2L10 2L10 4L8 4L8 8L6 8L6 9L5 9L5 10L4 10L4 8L3 8L3 9L2 9L2 8L0 8L0 9L2 9L2 12L0 12L0 13L2 13L2 14L3 14L3 15L2 15L2 16L1 16L1 15L0 15L0 18L1 18L1 19L0 19L0 21L1 21L1 20L2 20L2 18L1 18L1 17L2 17L2 16L3 16L3 18L4 18L4 19L3 19L3 21L4 21L4 22L5 22L5 23L7 23L7 22L5 22L5 21L8 21L8 22L9 22L9 21L8 21L8 20L9 20L9 18L10 18L10 21L11 21L11 20L12 20L12 21L13 21L13 22L12 22L12 23L11 23L11 22L10 22L10 24L9 24L9 25L8 25L8 27L9 27L9 28L10 28L10 29L11 29L11 30L12 30L12 29L11 29L11 28L14 28L14 29L13 29L13 30L14 30L14 31L15 31L15 32L16 32L16 33L17 33L17 32L20 32L20 31L21 31L21 33L22 33L22 32L23 32L23 33L25 33L25 31L26 31L26 30L27 30L27 29L28 29L28 31L27 31L27 32L28 32L28 33L29 33L29 32L30 32L30 31L33 31L33 29L30 29L30 25L29 25L29 24L26 24L26 23L27 23L27 22L28 22L28 19L29 19L29 20L30 20L30 19L29 19L29 18L28 18L28 17L29 17L29 16L30 16L30 15L32 15L32 14L33 14L33 9L32 9L32 8L30 8L30 9L29 9L29 8L26 8L26 9L25 9L25 10L24 10L24 14L23 14L23 13L22 13L22 12L23 12L23 11L21 11L21 10L22 10L22 7L23 7L23 9L24 9L24 8L25 8L25 6L24 6L24 7L23 7L23 6L22 6L22 5L25 5L25 3L24 3L24 2L25 2L25 0L21 0L21 1L20 1L20 0L18 0L18 1L17 1L17 0L15 0L15 4L13 4L13 2L14 2L14 0ZM12 1L12 2L11 2L11 4L12 4L12 2L13 2L13 1ZM18 1L18 3L16 3L16 6L15 6L15 7L14 7L14 5L11 5L11 7L10 7L10 6L9 6L9 7L10 7L10 8L8 8L8 10L7 10L7 9L6 9L6 10L7 10L7 11L5 11L5 13L4 13L4 14L7 14L7 13L6 13L6 12L7 12L7 11L8 11L8 12L9 12L9 13L8 13L8 14L9 14L9 16L11 16L11 17L10 17L10 18L11 18L11 19L12 19L12 18L13 18L13 17L14 17L14 18L15 18L15 19L13 19L13 20L14 20L14 21L15 21L15 22L14 22L14 24L16 24L16 23L17 23L17 24L18 24L18 25L19 25L19 24L18 24L18 23L17 23L17 22L16 22L16 21L19 21L19 22L20 22L20 23L22 23L22 22L23 22L23 23L26 23L26 21L27 21L27 19L28 19L28 18L27 18L27 17L26 17L26 20L25 20L25 21L24 21L24 20L23 20L23 21L19 21L19 20L21 20L21 19L25 19L25 16L26 16L26 15L28 15L28 16L29 16L29 14L31 14L31 12L32 12L32 10L31 10L31 11L30 11L30 12L28 12L28 13L29 13L29 14L25 14L25 16L22 16L22 17L24 17L24 18L20 18L20 17L21 17L21 16L20 16L20 17L17 17L17 18L19 18L19 19L18 19L18 20L17 20L17 19L16 19L16 18L15 18L15 17L14 17L14 16L16 16L16 15L17 15L17 14L18 14L18 16L19 16L19 15L20 15L20 14L21 14L21 15L22 15L22 14L21 14L21 12L20 12L20 11L16 11L16 8L17 8L17 9L18 9L18 10L20 10L20 9L21 9L21 7L22 7L22 6L21 6L21 7L20 7L20 6L19 6L19 5L20 5L20 4L19 4L19 5L18 5L18 3L19 3L19 2L20 2L20 3L21 3L21 4L23 4L23 1L22 1L22 2L20 2L20 1ZM12 6L12 7L13 7L13 6ZM16 6L16 7L15 7L15 8L16 8L16 7L17 7L17 8L18 8L18 9L19 9L19 8L20 8L20 7L19 7L19 6L18 6L18 7L17 7L17 6ZM10 8L10 9L13 9L13 10L12 10L12 11L11 11L11 10L9 10L9 11L11 11L11 12L13 12L13 13L12 13L12 14L11 14L11 13L9 13L9 14L10 14L10 15L13 15L13 16L12 16L12 17L11 17L11 18L12 18L12 17L13 17L13 16L14 16L14 15L13 15L13 13L14 13L14 14L15 14L15 13L19 13L19 14L20 14L20 13L19 13L19 12L16 12L16 11L15 11L15 9L14 9L14 8ZM27 9L27 10L28 10L28 11L29 11L29 9ZM3 10L3 11L4 11L4 10ZM13 10L13 11L14 11L14 10ZM25 11L25 13L26 13L26 12L27 12L27 11ZM2 12L2 13L3 13L3 12ZM3 15L3 16L4 16L4 17L5 17L5 18L9 18L9 17L8 17L8 15L6 15L6 16L5 16L5 15ZM6 16L6 17L7 17L7 16ZM32 16L32 17L33 17L33 16ZM31 18L31 19L32 19L32 20L33 20L33 18ZM4 19L4 21L5 21L5 19ZM6 19L6 20L8 20L8 19ZM15 19L15 20L16 20L16 19ZM29 21L29 22L31 22L31 23L33 23L33 21ZM0 22L0 23L1 23L1 24L0 24L0 25L1 25L1 24L2 24L2 25L5 25L5 24L3 24L3 23L2 23L2 22ZM12 23L12 24L11 24L11 25L9 25L9 26L10 26L10 28L11 28L11 26L13 26L13 27L14 27L14 28L15 28L15 29L14 29L14 30L15 30L15 31L16 31L16 32L17 32L17 31L20 31L20 29L21 29L21 28L20 28L20 27L21 27L21 24L20 24L20 26L18 26L18 29L17 29L17 28L15 28L15 27L17 27L17 25L15 25L15 26L14 26L14 25L12 25L12 24L13 24L13 23ZM6 24L6 25L7 25L7 24ZM22 24L22 25L23 25L23 27L22 27L22 29L24 29L24 30L25 30L25 29L24 29L24 28L23 28L23 27L24 27L24 24ZM25 25L25 28L28 28L28 25ZM31 25L31 27L32 27L32 26L33 26L33 25ZM26 26L26 27L27 27L27 26ZM19 28L19 29L18 29L18 30L19 30L19 29L20 29L20 28ZM8 29L8 30L9 30L9 31L8 31L8 33L11 33L11 32L12 32L12 31L11 31L11 32L10 32L10 30L9 30L9 29ZM16 29L16 31L17 31L17 29ZM29 29L29 30L30 30L30 29ZM22 30L22 31L23 31L23 32L24 32L24 31L23 31L23 30ZM13 32L13 33L14 33L14 32ZM31 32L31 33L32 33L32 32ZM0 0L0 7L7 7L7 0ZM1 1L1 6L6 6L6 1ZM2 2L2 5L5 5L5 2ZM26 0L26 7L33 7L33 0ZM27 1L27 6L32 6L32 1ZM28 2L28 5L31 5L31 2ZM0 26L0 33L7 33L7 26ZM1 27L1 32L6 32L6 27ZM2 28L2 31L5 31L5 28Z" fill="#000000"/></g></g></svg>
