<?xml version="1.0" encoding="UTF-8"?>
<svg xmlns="http://www.w3.org/2000/svg" version="1.1" width="400" height="400" viewBox="0 0 400 400"><rect x="0" y="0" width="400" height="400" fill="#fefefe"/><g transform="scale(9.756)"><g transform="translate(4,4)"><path fill-rule="evenodd" d="M11 0L11 1L9 1L9 2L11 2L11 1L13 1L13 2L12 2L12 4L15 4L15 3L13 3L13 2L14 2L14 1L13 1L13 0ZM16 0L16 1L17 1L17 0ZM20 0L20 1L21 1L21 0ZM22 0L22 2L20 2L20 3L21 3L21 4L22 4L22 5L24 5L24 8L23 8L23 6L22 6L22 10L21 10L21 8L20 8L20 9L19 9L19 5L20 5L20 4L19 4L19 1L18 1L18 3L16 3L16 4L19 4L19 5L18 5L18 8L17 8L17 6L16 6L16 8L15 8L15 11L18 11L18 13L17 13L17 12L16 12L16 13L15 13L15 12L14 12L14 14L15 14L15 15L14 15L14 16L12 16L12 15L13 15L13 14L11 14L11 15L10 15L10 17L9 17L9 15L8 15L8 14L9 14L9 13L10 13L10 11L11 11L11 10L10 10L10 8L11 8L11 9L12 9L12 10L13 10L13 11L12 11L12 12L11 12L11 13L13 13L13 11L14 11L14 10L13 10L13 9L14 9L14 8L13 8L13 9L12 9L12 7L13 7L13 6L14 6L14 7L15 7L15 6L14 6L14 5L11 5L11 6L10 6L10 8L9 8L9 10L6 10L6 11L5 11L5 9L8 9L8 8L5 8L5 9L2 9L2 8L0 8L0 9L1 9L1 10L0 10L0 13L1 13L1 14L2 14L2 13L3 13L3 15L4 15L4 14L5 14L5 13L7 13L7 14L6 14L6 15L7 15L7 16L4 16L4 17L3 17L3 16L2 16L2 15L0 15L0 25L3 25L3 24L4 24L4 25L5 25L5 24L6 24L6 25L8 25L8 28L10 28L10 29L9 29L9 31L8 31L8 33L9 33L9 31L10 31L10 32L11 32L11 33L12 33L12 32L13 32L13 33L14 33L14 32L13 32L13 31L16 31L16 32L15 32L15 33L16 33L16 32L17 32L17 33L18 33L18 32L17 32L17 31L18 31L18 30L17 30L17 29L18 29L18 28L20 28L20 29L19 29L19 31L23 31L23 32L24 32L24 33L25 33L25 32L26 32L26 29L27 29L27 31L29 31L29 29L30 29L30 28L31 28L31 29L32 29L32 26L33 26L33 25L32 25L32 24L33 24L33 23L30 23L30 24L28 24L28 23L29 23L29 21L30 21L30 20L31 20L31 19L30 19L30 18L32 18L32 20L33 20L33 17L32 17L32 16L33 16L33 15L32 15L32 14L33 14L33 12L32 12L32 10L29 10L29 9L30 9L30 8L28 8L28 10L29 10L29 14L28 14L28 12L26 12L26 14L28 14L28 16L27 16L27 15L25 15L25 13L24 13L24 12L23 12L23 11L22 11L22 10L25 10L25 11L26 11L26 9L24 9L24 8L25 8L25 5L24 5L24 4L25 4L25 2L23 2L23 0ZM24 0L24 1L25 1L25 0ZM8 3L8 5L10 5L10 4L9 4L9 3ZM23 3L23 4L24 4L24 3ZM8 6L8 7L9 7L9 6ZM11 6L11 7L12 7L12 6ZM20 6L20 7L21 7L21 6ZM16 8L16 10L18 10L18 9L17 9L17 8ZM3 10L3 11L2 11L2 12L5 12L5 11L4 11L4 10ZM9 10L9 11L6 11L6 12L9 12L9 11L10 11L10 10ZM19 10L19 12L20 12L20 14L17 14L17 15L16 15L16 16L14 16L14 17L13 17L13 18L12 18L12 17L10 17L10 18L12 18L12 19L9 19L9 20L8 20L8 19L5 19L5 20L7 20L7 21L4 21L4 19L3 19L3 20L2 20L2 19L1 19L1 21L2 21L2 22L1 22L1 24L3 24L3 23L4 23L4 24L5 24L5 23L6 23L6 24L7 24L7 23L6 23L6 22L7 22L7 21L8 21L8 23L9 23L9 24L8 24L8 25L9 25L9 24L10 24L10 23L9 23L9 21L11 21L11 20L12 20L12 22L11 22L11 23L12 23L12 22L13 22L13 27L12 27L12 26L9 26L9 27L12 27L12 28L11 28L11 29L13 29L13 30L14 30L14 29L15 29L15 28L16 28L16 29L17 29L17 28L18 28L18 27L21 27L21 29L20 29L20 30L21 30L21 29L23 29L23 31L24 31L24 32L25 32L25 31L24 31L24 30L25 30L25 29L24 29L24 27L23 27L23 25L24 25L24 22L23 22L23 24L22 24L22 23L20 23L20 22L21 22L21 21L23 21L23 20L25 20L25 21L26 21L26 22L25 22L25 23L28 23L28 20L30 20L30 19L29 19L29 18L30 18L30 17L31 17L31 16L30 16L30 14L29 14L29 17L28 17L28 18L26 18L26 17L27 17L27 16L25 16L25 15L24 15L24 14L22 14L22 15L21 15L21 16L19 16L19 17L21 17L21 18L20 18L20 19L19 19L19 20L18 20L18 17L17 17L17 20L18 20L18 21L16 21L16 23L17 23L17 27L15 27L15 26L14 26L14 22L15 22L15 20L16 20L16 19L14 19L14 17L15 17L15 18L16 18L16 16L18 16L18 15L20 15L20 14L21 14L21 13L22 13L22 11L20 11L20 10ZM30 12L30 13L32 13L32 12ZM1 16L1 18L3 18L3 17L2 17L2 16ZM22 16L22 17L23 17L23 18L21 18L21 19L20 19L20 20L21 20L21 19L22 19L22 20L23 20L23 19L24 19L24 18L25 18L25 17L23 17L23 16ZM4 17L4 18L5 18L5 17ZM6 17L6 18L7 18L7 17ZM8 17L8 18L9 18L9 17ZM25 19L25 20L26 20L26 19ZM27 19L27 20L28 20L28 19ZM13 20L13 21L14 21L14 20ZM3 21L3 22L2 22L2 23L3 23L3 22L4 22L4 23L5 23L5 22L4 22L4 21ZM19 21L19 22L17 22L17 23L19 23L19 22L20 22L20 21ZM15 24L15 25L16 25L16 24ZM19 24L19 26L21 26L21 24ZM30 24L30 25L29 25L29 28L30 28L30 27L31 27L31 26L30 26L30 25L31 25L31 24ZM25 25L25 28L28 28L28 25ZM26 26L26 27L27 27L27 26ZM14 27L14 28L13 28L13 29L14 29L14 28L15 28L15 27ZM10 30L10 31L11 31L11 32L12 32L12 31L11 31L11 30ZM30 30L30 32L29 32L29 33L30 33L30 32L31 32L31 33L32 33L32 32L31 32L31 30ZM32 30L32 31L33 31L33 30ZM19 32L19 33L21 33L21 32ZM27 32L27 33L28 33L28 32ZM0 0L0 7L7 7L7 0ZM1 1L1 6L6 6L6 1ZM2 2L2 5L5 5L5 2ZM26 0L26 7L33 7L33 0ZM27 1L27 6L32 6L32 1ZM28 2L28 5L31 5L31 2ZM0 26L0 33L7 33L7 26ZM1 27L1 32L6 32L6 27ZM2 28L2 31L5 31L5 28Z" fill="#000000"/></g></g></svg>
