<?xml version="1.0" encoding="UTF-8"?>
<svg xmlns="http://www.w3.org/2000/svg" version="1.1" width="400" height="400" viewBox="0 0 400 400"><rect x="0" y="0" width="400" height="400" fill="#fefefe"/><g transform="scale(9.756)"><g transform="translate(4,4)"><path fill-rule="evenodd" d="M8 0L8 4L10 4L10 3L11 3L11 4L12 4L12 2L11 2L11 0ZM12 0L12 1L13 1L13 0ZM15 0L15 1L14 1L14 2L15 2L15 1L16 1L16 0ZM20 0L20 1L19 1L19 2L20 2L20 3L22 3L22 2L23 2L23 1L24 1L24 3L23 3L23 5L24 5L24 9L22 9L22 8L23 8L23 6L22 6L22 5L19 5L19 3L18 3L18 1L17 1L17 2L16 2L16 3L15 3L15 4L14 4L14 3L13 3L13 5L11 5L11 6L10 6L10 7L9 7L9 5L8 5L8 7L9 7L9 8L10 8L10 7L11 7L11 6L12 6L12 8L11 8L11 9L9 9L9 10L8 10L8 9L7 9L7 8L4 8L4 11L3 11L3 10L1 10L1 9L2 9L2 8L0 8L0 12L1 12L1 11L3 11L3 12L2 12L2 13L1 13L1 14L0 14L0 17L1 17L1 18L0 18L0 22L1 22L1 20L2 20L2 24L0 24L0 25L2 25L2 24L3 24L3 25L4 25L4 24L5 24L5 25L7 25L7 24L5 24L5 22L4 22L4 24L3 24L3 21L7 21L7 22L6 22L6 23L7 23L7 22L9 22L9 21L11 21L11 23L10 23L10 24L11 24L11 23L12 23L12 20L13 20L13 19L14 19L14 17L16 17L16 18L15 18L15 20L14 20L14 21L13 21L13 22L14 22L14 25L13 25L13 24L12 24L12 25L11 25L11 26L9 26L9 25L8 25L8 26L9 26L9 27L8 27L8 29L9 29L9 31L8 31L8 33L11 33L11 32L12 32L12 31L13 31L13 30L14 30L14 29L15 29L15 32L14 32L14 33L15 33L15 32L16 32L16 31L17 31L17 33L18 33L18 32L19 32L19 30L17 30L17 29L18 29L18 27L19 27L19 26L17 26L17 25L18 25L18 24L19 24L19 23L17 23L17 21L18 21L18 19L17 19L17 17L18 17L18 18L19 18L19 17L22 17L22 18L21 18L21 21L20 21L20 19L19 19L19 21L20 21L20 22L21 22L21 25L20 25L20 27L21 27L21 29L20 29L20 31L21 31L21 33L22 33L22 31L23 31L23 33L26 33L26 31L27 31L27 32L29 32L29 33L30 33L30 31L29 31L29 29L30 29L30 27L31 27L31 28L32 28L32 29L31 29L31 31L32 31L32 30L33 30L33 27L32 27L32 26L31 26L31 25L32 25L32 24L33 24L33 23L31 23L31 22L32 22L32 21L33 21L33 19L32 19L32 18L31 18L31 17L30 17L30 18L28 18L28 19L27 19L27 18L26 18L26 17L29 17L29 16L30 16L30 14L31 14L31 16L32 16L32 17L33 17L33 16L32 16L32 14L31 14L31 13L29 13L29 11L27 11L27 12L26 12L26 11L25 11L25 10L24 10L24 9L25 9L25 5L24 5L24 3L25 3L25 0L23 0L23 1L22 1L22 0ZM21 1L21 2L22 2L22 1ZM9 2L9 3L10 3L10 2ZM17 3L17 4L16 4L16 5L15 5L15 7L14 7L14 5L13 5L13 8L12 8L12 9L11 9L11 10L9 10L9 11L6 11L6 10L7 10L7 9L5 9L5 12L4 12L4 13L2 13L2 14L3 14L3 15L2 15L2 16L1 16L1 17L2 17L2 18L3 18L3 19L2 19L2 20L3 20L3 19L4 19L4 20L7 20L7 21L8 21L8 20L11 20L11 19L9 19L9 18L10 18L10 17L8 17L8 18L7 18L7 17L4 17L4 18L3 18L3 16L4 16L4 14L5 14L5 12L7 12L7 13L6 13L6 14L8 14L8 15L6 15L6 16L10 16L10 15L11 15L11 16L12 16L12 15L13 15L13 17L14 17L14 16L17 16L17 14L16 14L16 15L15 15L15 13L14 13L14 12L15 12L15 9L17 9L17 10L16 10L16 11L18 11L18 12L19 12L19 11L20 11L20 13L19 13L19 15L18 15L18 16L20 16L20 13L21 13L21 14L22 14L22 17L25 17L25 16L26 16L26 15L27 15L27 16L28 16L28 14L29 14L29 13L25 13L25 12L23 12L23 13L21 13L21 11L23 11L23 10L22 10L22 9L19 9L19 10L18 10L18 9L17 9L17 7L18 7L18 8L20 8L20 6L19 6L19 5L18 5L18 3ZM17 5L17 6L16 6L16 7L15 7L15 8L14 8L14 9L12 9L12 10L11 10L11 11L10 11L10 13L9 13L9 12L8 12L8 14L9 14L9 15L10 15L10 13L11 13L11 12L12 12L12 13L13 13L13 14L14 14L14 13L13 13L13 12L12 12L12 11L14 11L14 9L15 9L15 8L16 8L16 7L17 7L17 6L18 6L18 7L19 7L19 6L18 6L18 5ZM21 6L21 7L22 7L22 6ZM27 8L27 9L28 9L28 8ZM29 8L29 9L31 9L31 12L32 12L32 13L33 13L33 12L32 12L32 9L33 9L33 8ZM16 12L16 13L17 13L17 12ZM23 13L23 16L25 16L25 15L24 15L24 14L25 14L25 13ZM11 17L11 18L12 18L12 17ZM6 18L6 19L7 19L7 20L8 20L8 19L7 19L7 18ZM16 19L16 20L15 20L15 21L14 21L14 22L15 22L15 21L16 21L16 20L17 20L17 19ZM22 19L22 25L23 25L23 29L21 29L21 30L23 30L23 29L24 29L24 24L27 24L27 22L31 22L31 20L32 20L32 19L30 19L30 21L26 21L26 20L27 20L27 19L26 19L26 20L25 20L25 21L26 21L26 23L25 23L25 22L24 22L24 23L23 23L23 19ZM15 23L15 24L16 24L16 25L17 25L17 23ZM28 23L28 24L29 24L29 26L30 26L30 25L31 25L31 23L30 23L30 24L29 24L29 23ZM14 25L14 26L12 26L12 29L14 29L14 28L15 28L15 29L17 29L17 26L16 26L16 28L15 28L15 25ZM25 25L25 28L28 28L28 25ZM26 26L26 27L27 27L27 26ZM9 28L9 29L11 29L11 28ZM24 30L24 31L25 31L25 30ZM9 31L9 32L10 32L10 31ZM32 32L32 33L33 33L33 32ZM0 0L0 7L7 7L7 0ZM1 1L1 6L6 6L6 1ZM2 2L2 5L5 5L5 2ZM26 0L26 7L33 7L33 0ZM27 1L27 6L32 6L32 1ZM28 2L28 5L31 5L31 2ZM0 26L0 33L7 33L7 26ZM1 27L1 32L6 32L6 27ZM2 28L2 31L5 31L5 28Z" fill="#000000"/></g></g></svg>
