<?xml version="1.0" encoding="UTF-8"?>
<svg xmlns="http://www.w3.org/2000/svg" version="1.1" width="400" height="400" viewBox="0 0 400 400"><rect x="0" y="0" width="400" height="400" fill="#fefefe"/><g transform="scale(9.756)"><g transform="translate(4,4)"><path fill-rule="evenodd" d="M8 0L8 4L9 4L9 5L8 5L8 7L9 7L9 8L10 8L10 7L11 7L11 5L12 5L12 7L13 7L13 5L14 5L14 7L15 7L15 8L14 8L14 9L13 9L13 8L12 8L12 9L11 9L11 11L10 11L10 13L8 13L8 14L6 14L6 13L7 13L7 12L8 12L8 11L9 11L9 10L10 10L10 9L9 9L9 10L8 10L8 9L7 9L7 8L4 8L4 9L3 9L3 10L4 10L4 11L2 11L2 12L1 12L1 10L2 10L2 8L0 8L0 14L1 14L1 16L2 16L2 14L3 14L3 13L4 13L4 14L5 14L5 17L4 17L4 15L3 15L3 17L4 17L4 19L3 19L3 20L4 20L4 21L3 21L3 22L2 22L2 23L3 23L3 24L4 24L4 23L8 23L8 24L9 24L9 23L10 23L10 22L11 22L11 23L12 23L12 22L13 22L13 23L17 23L17 25L16 25L16 24L14 24L14 25L13 25L13 24L12 24L12 25L8 25L8 26L9 26L9 27L8 27L8 29L9 29L9 28L10 28L10 29L11 29L11 32L10 32L10 30L9 30L9 31L8 31L8 33L11 33L11 32L13 32L13 31L12 31L12 30L14 30L14 29L15 29L15 32L14 32L14 33L15 33L15 32L16 32L16 31L17 31L17 33L18 33L18 32L19 32L19 33L20 33L20 32L21 32L21 33L22 33L22 32L23 32L23 33L25 33L25 32L26 32L26 33L27 33L27 32L26 32L26 31L28 31L28 32L29 32L29 33L30 33L30 31L29 31L29 29L30 29L30 27L31 27L31 28L32 28L32 26L31 26L31 25L32 25L32 24L33 24L33 23L31 23L31 22L32 22L32 21L33 21L33 19L32 19L32 18L31 18L31 17L30 17L30 18L29 18L29 19L28 19L28 18L26 18L26 17L29 17L29 16L30 16L30 14L31 14L31 16L32 16L32 17L33 17L33 16L32 16L32 14L31 14L31 13L29 13L29 12L28 12L28 11L29 11L29 10L28 10L28 8L27 8L27 12L26 12L26 11L24 11L24 10L26 10L26 9L22 9L22 8L23 8L23 6L22 6L22 5L18 5L18 4L17 4L17 3L19 3L19 2L20 2L20 3L22 3L22 2L23 2L23 1L24 1L24 3L23 3L23 5L24 5L24 7L25 7L25 0L23 0L23 1L22 1L22 0L20 0L20 1L19 1L19 2L16 2L16 3L15 3L15 4L14 4L14 3L12 3L12 4L9 4L9 3L11 3L11 2L9 2L9 0ZM10 0L10 1L12 1L12 2L13 2L13 0ZM15 0L15 1L14 1L14 2L15 2L15 1L16 1L16 0ZM20 1L20 2L22 2L22 1ZM16 4L16 5L15 5L15 7L16 7L16 8L15 8L15 9L14 9L14 11L13 11L13 10L12 10L12 11L11 11L11 13L10 13L10 14L8 14L8 15L6 15L6 16L8 16L8 17L5 17L5 18L9 18L9 19L10 19L10 18L11 18L11 17L12 17L12 16L13 16L13 17L14 17L14 19L13 19L13 18L12 18L12 19L13 19L13 21L14 21L14 22L15 22L15 21L16 21L16 20L17 20L17 19L18 19L18 21L17 21L17 23L19 23L19 24L18 24L18 25L17 25L17 26L16 26L16 28L15 28L15 25L14 25L14 26L12 26L12 28L11 28L11 29L14 29L14 28L15 28L15 29L17 29L17 30L19 30L19 31L20 31L20 29L21 29L21 30L22 30L22 29L23 29L23 30L24 30L24 31L26 31L26 29L24 29L24 24L26 24L26 23L27 23L27 24L28 24L28 22L31 22L31 20L32 20L32 19L30 19L30 21L28 21L28 20L27 20L27 19L26 19L26 20L27 20L27 21L25 21L25 22L26 22L26 23L23 23L23 18L22 18L22 17L25 17L25 16L27 16L27 15L28 15L28 16L29 16L29 15L28 15L28 14L29 14L29 13L26 13L26 12L24 12L24 11L23 11L23 10L22 10L22 9L21 9L21 8L20 8L20 6L19 6L19 7L18 7L18 5L17 5L17 4ZM9 5L9 7L10 7L10 5ZM16 6L16 7L17 7L17 9L15 9L15 12L14 12L14 13L13 13L13 14L14 14L14 13L15 13L15 15L16 15L16 14L17 14L17 16L14 16L14 17L16 17L16 18L15 18L15 20L14 20L14 21L15 21L15 20L16 20L16 19L17 19L17 17L18 17L18 18L19 18L19 17L20 17L20 19L19 19L19 21L20 21L20 24L19 24L19 25L20 25L20 27L19 27L19 26L17 26L17 29L18 29L18 27L19 27L19 29L20 29L20 28L21 28L21 29L22 29L22 26L23 26L23 25L22 25L22 18L21 18L21 17L22 17L22 16L25 16L25 15L26 15L26 13L23 13L23 12L22 12L22 11L21 11L21 9L20 9L20 8L18 8L18 7L17 7L17 6ZM21 6L21 7L22 7L22 6ZM29 8L29 9L31 9L31 12L32 12L32 13L33 13L33 12L32 12L32 9L33 9L33 8ZM4 9L4 10L5 10L5 12L4 12L4 13L5 13L5 12L7 12L7 11L6 11L6 10L7 10L7 9ZM17 9L17 10L16 10L16 11L18 11L18 12L21 12L21 11L20 11L20 9L19 9L19 10L18 10L18 9ZM12 11L12 12L13 12L13 11ZM16 12L16 13L17 13L17 12ZM11 13L11 15L10 15L10 16L9 16L9 15L8 15L8 16L9 16L9 17L10 17L10 16L11 16L11 15L12 15L12 13ZM19 13L19 15L18 15L18 16L20 16L20 17L21 17L21 16L20 16L20 14L21 14L21 15L22 15L22 14L23 14L23 13ZM24 14L24 15L25 15L25 14ZM0 17L0 18L1 18L1 19L0 19L0 22L1 22L1 20L2 20L2 17ZM6 19L6 20L5 20L5 21L6 21L6 22L8 22L8 23L9 23L9 22L10 22L10 20L9 20L9 22L8 22L8 20L7 20L7 19ZM6 20L6 21L7 21L7 20ZM20 20L20 21L21 21L21 20ZM27 21L27 22L28 22L28 21ZM30 23L30 24L29 24L29 26L30 26L30 25L31 25L31 23ZM0 24L0 25L2 25L2 24ZM6 24L6 25L7 25L7 24ZM20 24L20 25L21 25L21 26L22 26L22 25L21 25L21 24ZM25 25L25 28L28 28L28 25ZM10 26L10 27L11 27L11 26ZM26 26L26 27L27 27L27 26ZM31 29L31 31L32 31L32 30L33 30L33 29ZM32 32L32 33L33 33L33 32ZM0 0L0 7L7 7L7 0ZM1 1L1 6L6 6L6 1ZM2 2L2 5L5 5L5 2ZM26 0L26 7L33 7L33 0ZM27 1L27 6L32 6L32 1ZM28 2L28 5L31 5L31 2ZM0 26L0 33L7 33L7 26ZM1 27L1 32L6 32L6 27ZM2 28L2 31L5 31L5 28Z" fill="#000000"/></g></g></svg>
