<?xml version="1.0" encoding="UTF-8"?>
<svg xmlns="http://www.w3.org/2000/svg" version="1.1" width="400" height="400" viewBox="0 0 400 400"><rect x="0" y="0" width="400" height="400" fill="#fefefe"/><g transform="scale(9.756)"><g transform="translate(4,4)"><path fill-rule="evenodd" d="M11 0L11 1L8 1L8 3L9 3L9 2L10 2L10 4L8 4L8 8L6 8L6 9L4 9L4 8L3 8L3 9L2 9L2 8L0 8L0 11L1 11L1 12L0 12L0 14L1 14L1 13L2 13L2 15L0 15L0 18L2 18L2 20L1 20L1 22L0 22L0 23L1 23L1 24L0 24L0 25L1 25L1 24L2 24L2 23L3 23L3 24L4 24L4 25L8 25L8 27L9 27L9 28L10 28L10 27L9 27L9 26L10 26L10 25L8 25L8 24L10 24L10 22L11 22L11 20L12 20L12 21L13 21L13 22L12 22L12 23L11 23L11 24L12 24L12 25L14 25L14 26L15 26L15 25L17 25L17 27L15 27L15 28L14 28L14 27L12 27L12 26L11 26L11 27L12 27L12 28L14 28L14 29L13 29L13 30L12 30L12 29L10 29L10 30L9 30L9 29L8 29L8 30L9 30L9 31L8 31L8 33L10 33L10 32L11 32L11 33L12 33L12 32L13 32L13 33L14 33L14 32L13 32L13 30L14 30L14 31L15 31L15 32L16 32L16 33L17 33L17 32L20 32L20 31L21 31L21 33L22 33L22 32L24 32L24 33L27 33L27 32L25 32L25 31L26 31L26 30L27 30L27 29L28 29L28 33L29 33L29 32L30 32L30 31L33 31L33 29L30 29L30 25L29 25L29 23L28 23L28 20L30 20L30 19L29 19L29 18L28 18L28 17L29 17L29 16L30 16L30 15L32 15L32 14L33 14L33 9L32 9L32 8L30 8L30 9L29 9L29 8L26 8L26 9L25 9L25 10L24 10L24 11L23 11L23 10L22 10L22 7L23 7L23 8L24 8L24 7L25 7L25 6L24 6L24 7L23 7L23 6L22 6L22 5L25 5L25 2L24 2L24 1L25 1L25 0L19 0L19 1L20 1L20 3L19 3L19 2L18 2L18 0L15 0L15 4L13 4L13 2L14 2L14 0ZM12 1L12 2L11 2L11 4L12 4L12 2L13 2L13 1ZM22 1L22 2L21 2L21 3L20 3L20 4L19 4L19 5L18 5L18 3L16 3L16 6L15 6L15 7L14 7L14 5L11 5L11 7L10 7L10 6L9 6L9 7L10 7L10 8L8 8L8 9L9 9L9 10L11 10L11 11L9 11L9 14L7 14L7 13L8 13L8 11L3 11L3 10L4 10L4 9L3 9L3 10L2 10L2 11L3 11L3 12L2 12L2 13L3 13L3 12L4 12L4 14L3 14L3 15L4 15L4 16L1 16L1 17L3 17L3 20L2 20L2 22L3 22L3 20L4 20L4 18L5 18L5 19L6 19L6 20L5 20L5 21L6 21L6 22L7 22L7 23L6 23L6 24L7 24L7 23L8 23L8 21L9 21L9 22L10 22L10 20L8 20L8 19L9 19L9 18L10 18L10 17L12 17L12 18L11 18L11 19L12 19L12 18L13 18L13 17L14 17L14 18L15 18L15 19L13 19L13 20L14 20L14 21L15 21L15 22L14 22L14 24L16 24L16 23L17 23L17 24L18 24L18 25L20 25L20 26L18 26L18 29L17 29L17 28L15 28L15 29L14 29L14 30L15 30L15 31L16 31L16 32L17 32L17 31L20 31L20 29L21 29L21 28L20 28L20 27L22 27L22 26L23 26L23 27L24 27L24 24L27 24L27 23L25 23L25 21L24 21L24 20L23 20L23 21L19 21L19 20L21 20L21 18L20 18L20 17L21 17L21 15L20 15L20 14L21 14L21 11L22 11L22 13L23 13L23 14L22 14L22 16L23 16L23 17L22 17L22 18L23 18L23 19L25 19L25 16L29 16L29 15L27 15L27 14L26 14L26 13L25 13L25 14L26 14L26 15L25 15L25 16L23 16L23 14L24 14L24 12L26 12L26 10L25 10L25 11L24 11L24 12L23 12L23 11L22 11L22 10L21 10L21 9L18 9L18 8L21 8L21 7L22 7L22 6L21 6L21 7L20 7L20 6L19 6L19 5L21 5L21 4L23 4L23 1ZM17 5L17 6L16 6L16 7L15 7L15 8L16 8L16 11L15 11L15 9L14 9L14 8L10 8L10 9L13 9L13 10L12 10L12 11L11 11L11 12L13 12L13 13L12 13L12 14L11 14L11 13L10 13L10 14L9 14L9 15L7 15L7 14L6 14L6 13L7 13L7 12L6 12L6 13L5 13L5 14L4 14L4 15L5 15L5 14L6 14L6 15L7 15L7 16L6 16L6 17L5 17L5 18L6 18L6 19L7 19L7 18L9 18L9 17L10 17L10 16L11 16L11 15L13 15L13 16L12 16L12 17L13 17L13 16L14 16L14 17L15 17L15 18L16 18L16 19L15 19L15 20L16 20L16 19L17 19L17 20L18 20L18 19L19 19L19 18L17 18L17 17L19 17L19 16L20 16L20 15L19 15L19 16L18 16L18 14L17 14L17 15L16 15L16 16L14 16L14 15L13 15L13 13L14 13L14 14L15 14L15 13L19 13L19 14L20 14L20 13L19 13L19 12L20 12L20 10L18 10L18 9L17 9L17 8L18 8L18 7L19 7L19 6L18 6L18 5ZM12 6L12 7L13 7L13 6ZM17 6L17 7L16 7L16 8L17 8L17 7L18 7L18 6ZM6 9L6 10L7 10L7 9ZM27 9L27 10L28 10L28 13L29 13L29 14L31 14L31 12L32 12L32 10L31 10L31 11L30 11L30 12L29 12L29 9ZM13 10L13 11L14 11L14 10ZM16 11L16 12L19 12L19 11ZM10 14L10 15L11 15L11 14ZM7 16L7 17L6 17L6 18L7 18L7 17L9 17L9 16ZM32 16L32 17L33 17L33 16ZM23 17L23 18L24 18L24 17ZM26 17L26 21L27 21L27 20L28 20L28 19L27 19L27 17ZM31 18L31 19L32 19L32 20L33 20L33 18ZM6 20L6 21L8 21L8 20ZM16 21L16 22L17 22L17 23L18 23L18 24L21 24L21 25L23 25L23 24L24 24L24 23L23 23L23 22L22 22L22 23L21 23L21 22L19 22L19 21ZM29 21L29 22L31 22L31 23L33 23L33 21ZM4 23L4 24L5 24L5 23ZM12 23L12 24L13 24L13 23ZM25 25L25 28L28 28L28 25ZM31 25L31 27L32 27L32 26L33 26L33 25ZM26 26L26 27L27 27L27 26ZM19 28L19 29L18 29L18 30L19 30L19 29L20 29L20 28ZM22 28L22 29L23 29L23 30L21 30L21 31L23 31L23 30L24 30L24 28ZM16 29L16 31L17 31L17 29ZM29 29L29 30L30 30L30 29ZM11 30L11 31L12 31L12 30ZM9 31L9 32L10 32L10 31ZM31 32L31 33L32 33L32 32ZM0 0L0 7L7 7L7 0ZM1 1L1 6L6 6L6 1ZM2 2L2 5L5 5L5 2ZM26 0L26 7L33 7L33 0ZM27 1L27 6L32 6L32 1ZM28 2L28 5L31 5L31 2ZM0 26L0 33L7 33L7 26ZM1 27L1 32L6 32L6 27ZM2 28L2 31L5 31L5 28Z" fill="#000000"/></g></g></svg>
