<?xml version="1.0" encoding="UTF-8"?>
<svg xmlns="http://www.w3.org/2000/svg" version="1.1" width="400" height="400" viewBox="0 0 400 400"><rect x="0" y="0" width="400" height="400" fill="#fefefe"/><g transform="scale(9.756)"><g transform="translate(4,4)"><path fill-rule="evenodd" d="M8 0L8 4L9 4L9 5L8 5L8 7L9 7L9 8L10 8L10 7L11 7L11 5L12 5L12 7L13 7L13 5L14 5L14 7L15 7L15 8L14 8L14 9L13 9L13 8L12 8L12 9L11 9L11 11L10 11L10 13L9 13L9 12L8 12L8 10L10 10L10 9L7 9L7 8L4 8L4 10L3 10L3 9L2 9L2 8L0 8L0 9L2 9L2 10L0 10L0 12L1 12L1 11L2 11L2 13L1 13L1 14L0 14L0 15L1 15L1 14L3 14L3 11L4 11L4 12L6 12L6 13L7 13L7 14L5 14L5 15L7 15L7 14L8 14L8 15L9 15L9 16L6 16L6 17L7 17L7 18L6 18L6 19L7 19L7 20L5 20L5 22L4 22L4 21L2 21L2 22L4 22L4 23L2 23L2 24L0 24L0 25L2 25L2 24L5 24L5 25L8 25L8 26L10 26L10 25L9 25L9 23L8 23L8 24L5 24L5 22L6 22L6 23L7 23L7 22L8 22L8 21L10 21L10 19L9 19L9 20L8 20L8 19L7 19L7 18L11 18L11 23L10 23L10 24L11 24L11 23L12 23L12 22L14 22L14 25L13 25L13 24L12 24L12 25L11 25L11 27L10 27L10 29L9 29L9 27L8 27L8 29L9 29L9 31L8 31L8 33L9 33L9 31L12 31L12 32L13 32L13 31L12 31L12 30L14 30L14 29L15 29L15 32L14 32L14 33L15 33L15 32L16 32L16 31L17 31L17 33L18 33L18 32L19 32L19 30L17 30L17 29L18 29L18 27L19 27L19 29L22 29L22 31L21 31L21 33L22 33L22 31L23 31L23 29L22 29L22 27L23 27L23 25L22 25L22 19L23 19L23 23L25 23L25 21L27 21L27 22L28 22L28 21L30 21L30 19L32 19L32 20L31 20L31 22L29 22L29 23L26 23L26 24L24 24L24 29L26 29L26 31L27 31L27 32L28 32L28 31L29 31L29 33L30 33L30 31L29 31L29 29L30 29L30 27L31 27L31 28L32 28L32 26L31 26L31 25L32 25L32 24L33 24L33 23L31 23L31 22L32 22L32 21L33 21L33 19L32 19L32 18L31 18L31 17L30 17L30 18L29 18L29 19L28 19L28 17L29 17L29 16L30 16L30 14L31 14L31 16L32 16L32 17L33 17L33 16L32 16L32 14L31 14L31 13L29 13L29 11L28 11L28 10L27 10L27 11L26 11L26 10L25 10L25 9L23 9L23 8L24 8L24 7L25 7L25 6L24 6L24 7L23 7L23 6L22 6L22 5L21 5L21 3L22 3L22 2L23 2L23 1L24 1L24 3L23 3L23 5L24 5L24 3L25 3L25 0L23 0L23 1L22 1L22 0L20 0L20 1L17 1L17 2L16 2L16 3L15 3L15 4L14 4L14 3L12 3L12 4L9 4L9 3L11 3L11 2L9 2L9 0ZM10 0L10 1L12 1L12 2L13 2L13 0ZM15 0L15 1L14 1L14 2L15 2L15 1L16 1L16 0ZM21 1L21 2L19 2L19 3L17 3L17 4L16 4L16 5L15 5L15 7L16 7L16 8L15 8L15 9L14 9L14 11L13 11L13 10L12 10L12 11L11 11L11 13L10 13L10 14L9 14L9 15L10 15L10 14L11 14L11 13L12 13L12 15L11 15L11 16L10 16L10 17L12 17L12 16L13 16L13 17L14 17L14 19L13 19L13 18L12 18L12 19L13 19L13 21L14 21L14 22L15 22L15 21L16 21L16 20L17 20L17 19L18 19L18 21L17 21L17 23L15 23L15 24L16 24L16 25L17 25L17 26L16 26L16 28L15 28L15 25L14 25L14 26L12 26L12 28L11 28L11 29L14 29L14 28L15 28L15 29L17 29L17 26L19 26L19 27L20 27L20 28L21 28L21 26L22 26L22 25L19 25L19 24L18 24L18 25L17 25L17 23L20 23L20 24L21 24L21 22L20 22L20 21L21 21L21 20L20 20L20 21L19 21L19 19L21 19L21 18L22 18L22 17L25 17L25 16L22 16L22 17L19 17L19 18L18 18L18 17L17 17L17 19L16 19L16 20L15 20L15 18L16 18L16 17L14 17L14 16L17 16L17 14L16 14L16 15L15 15L15 13L14 13L14 12L15 12L15 9L17 9L17 10L16 10L16 11L18 11L18 12L19 12L19 11L20 11L20 12L21 12L21 11L22 11L22 12L23 12L23 11L22 11L22 10L23 10L23 9L19 9L19 10L18 10L18 9L17 9L17 7L18 7L18 5L20 5L20 4L19 4L19 3L21 3L21 2L22 2L22 1ZM9 5L9 7L10 7L10 5ZM16 6L16 7L17 7L17 6ZM19 6L19 8L20 8L20 6ZM21 6L21 7L22 7L22 6ZM27 8L27 9L28 9L28 8ZM29 8L29 9L31 9L31 12L32 12L32 13L33 13L33 12L32 12L32 9L33 9L33 8ZM6 9L6 10L7 10L7 9ZM4 10L4 11L5 11L5 10ZM24 10L24 13L26 13L26 14L24 14L24 15L26 15L26 16L27 16L27 17L26 17L26 18L27 18L27 17L28 17L28 14L29 14L29 13L26 13L26 12L25 12L25 10ZM6 11L6 12L7 12L7 11ZM12 11L12 12L13 12L13 11ZM16 12L16 13L17 13L17 12ZM13 13L13 14L14 14L14 13ZM19 13L19 15L18 15L18 16L19 16L19 15L23 15L23 13ZM2 15L2 16L0 16L0 17L1 17L1 18L0 18L0 19L1 19L1 20L0 20L0 22L1 22L1 20L2 20L2 19L3 19L3 20L4 20L4 19L5 19L5 18L4 18L4 15ZM2 16L2 18L1 18L1 19L2 19L2 18L3 18L3 19L4 19L4 18L3 18L3 16ZM26 19L26 20L27 20L27 21L28 21L28 19ZM14 20L14 21L15 21L15 20ZM6 21L6 22L7 22L7 21ZM30 23L30 24L29 24L29 26L30 26L30 25L31 25L31 23ZM25 25L25 28L28 28L28 25ZM26 26L26 27L27 27L27 26ZM27 29L27 31L28 31L28 29ZM31 29L31 31L32 31L32 30L33 30L33 29ZM24 31L24 33L25 33L25 31ZM32 32L32 33L33 33L33 32ZM0 0L0 7L7 7L7 0ZM1 1L1 6L6 6L6 1ZM2 2L2 5L5 5L5 2ZM26 0L26 7L33 7L33 0ZM27 1L27 6L32 6L32 1ZM28 2L28 5L31 5L31 2ZM0 26L0 33L7 33L7 26ZM1 27L1 32L6 32L6 27ZM2 28L2 31L5 31L5 28Z" fill="#000000"/></g></g></svg>
