<?xml version="1.0" encoding="UTF-8"?>
<svg xmlns="http://www.w3.org/2000/svg" version="1.1" width="400" height="400" viewBox="0 0 400 400"><rect x="0" y="0" width="400" height="400" fill="#fefefe"/><g transform="scale(9.756)"><g transform="translate(4,4)"><path fill-rule="evenodd" d="M9 0L9 1L8 1L8 3L9 3L9 4L8 4L8 8L6 8L6 9L4 9L4 8L3 8L3 9L2 9L2 8L0 8L0 11L1 11L1 9L2 9L2 12L3 12L3 11L4 11L4 10L5 10L5 13L4 13L4 14L5 14L5 13L7 13L7 14L6 14L6 15L7 15L7 16L6 16L6 17L7 17L7 16L8 16L8 18L5 18L5 22L4 22L4 20L2 20L2 21L3 21L3 22L0 22L0 23L1 23L1 24L0 24L0 25L1 25L1 24L2 24L2 25L4 25L4 24L6 24L6 25L7 25L7 24L8 24L8 23L9 23L9 22L8 22L8 21L7 21L7 20L8 20L8 18L9 18L9 20L10 20L10 21L11 21L11 20L13 20L13 21L12 21L12 23L11 23L11 22L10 22L10 23L11 23L11 24L10 24L10 25L8 25L8 27L9 27L9 28L10 28L10 29L8 29L8 30L9 30L9 31L8 31L8 33L11 33L11 32L12 32L12 31L11 31L11 32L9 32L9 31L10 31L10 30L12 30L12 29L11 29L11 28L10 28L10 27L12 27L12 28L14 28L14 29L13 29L13 30L14 30L14 32L13 32L13 33L14 33L14 32L16 32L16 33L17 33L17 32L19 32L19 33L25 33L25 32L26 32L26 33L27 33L27 32L26 32L26 30L27 30L27 29L28 29L28 31L29 31L29 32L28 32L28 33L29 33L29 32L30 32L30 31L33 31L33 27L32 27L32 26L33 26L33 25L31 25L31 27L32 27L32 29L30 29L30 25L29 25L29 24L28 24L28 23L29 23L29 22L31 22L31 23L33 23L33 21L29 21L29 22L28 22L28 19L29 19L29 20L30 20L30 19L29 19L29 18L28 18L28 17L29 17L29 16L30 16L30 15L32 15L32 14L33 14L33 9L32 9L32 8L30 8L30 9L29 9L29 8L26 8L26 9L25 9L25 10L24 10L24 11L23 11L23 10L22 10L22 8L23 8L23 9L24 9L24 8L23 8L23 6L22 6L22 7L21 7L21 5L19 5L19 6L18 6L18 7L17 7L17 6L16 6L16 3L18 3L18 2L17 2L17 0L15 0L15 4L13 4L13 5L14 5L14 7L15 7L15 8L16 8L16 11L15 11L15 9L14 9L14 8L13 8L13 6L12 6L12 5L11 5L11 6L10 6L10 5L9 5L9 4L12 4L12 3L13 3L13 2L14 2L14 0L12 0L12 1L11 1L11 2L9 2L9 1L10 1L10 0ZM18 0L18 1L20 1L20 2L22 2L22 1L23 1L23 3L22 3L22 4L23 4L23 5L25 5L25 3L24 3L24 1L25 1L25 0L21 0L21 1L20 1L20 0ZM19 3L19 4L20 4L20 3ZM9 6L9 7L10 7L10 8L8 8L8 9L6 9L6 10L7 10L7 11L6 11L6 12L7 12L7 13L8 13L8 14L9 14L9 15L8 15L8 16L9 16L9 18L10 18L10 20L11 20L11 19L13 19L13 20L14 20L14 21L15 21L15 22L14 22L14 24L16 24L16 23L17 23L17 24L18 24L18 25L20 25L20 26L18 26L18 29L17 29L17 28L15 28L15 27L17 27L17 25L15 25L15 26L14 26L14 25L12 25L12 24L13 24L13 23L12 23L12 24L11 24L11 25L10 25L10 26L9 26L9 27L10 27L10 26L12 26L12 27L14 27L14 28L15 28L15 29L14 29L14 30L15 30L15 31L16 31L16 32L17 32L17 31L19 31L19 32L21 32L21 31L20 31L20 30L21 30L21 29L19 29L19 28L20 28L20 27L21 27L21 23L22 23L22 22L23 22L23 25L22 25L22 26L23 26L23 28L22 28L22 29L23 29L23 30L24 30L24 26L23 26L23 25L24 25L24 24L25 24L25 22L26 22L26 21L27 21L27 19L28 19L28 18L27 18L27 17L26 17L26 20L25 20L25 21L24 21L24 20L23 20L23 21L20 21L20 17L21 17L21 15L22 15L22 16L23 16L23 17L22 17L22 18L21 18L21 19L25 19L25 16L27 16L27 15L28 15L28 16L29 16L29 14L31 14L31 12L32 12L32 10L31 10L31 11L30 11L30 12L29 12L29 9L27 9L27 10L28 10L28 11L27 11L27 14L26 14L26 15L25 15L25 16L23 16L23 14L24 14L24 12L25 12L25 13L26 13L26 11L24 11L24 12L23 12L23 13L22 13L22 14L21 14L21 12L20 12L20 14L19 14L19 13L15 13L15 14L14 14L14 13L13 13L13 15L14 15L14 16L13 16L13 17L10 17L10 16L9 16L9 15L11 15L11 16L12 16L12 14L9 14L9 13L12 13L12 12L13 12L13 11L14 11L14 10L13 10L13 8L12 8L12 6L11 6L11 7L10 7L10 6ZM15 6L15 7L16 7L16 8L17 8L17 9L18 9L18 10L21 10L21 11L22 11L22 10L21 10L21 9L20 9L20 8L21 8L21 7L20 7L20 6L19 6L19 7L20 7L20 8L19 8L19 9L18 9L18 8L17 8L17 7L16 7L16 6ZM24 6L24 7L25 7L25 6ZM10 8L10 10L9 10L9 11L11 11L11 10L12 10L12 9L11 9L11 8ZM3 9L3 10L4 10L4 9ZM7 11L7 12L8 12L8 13L9 13L9 12L8 12L8 11ZM16 11L16 12L19 12L19 11ZM2 13L2 14L0 14L0 15L2 15L2 14L3 14L3 13ZM28 13L28 14L29 14L29 13ZM17 14L17 15L16 15L16 16L14 16L14 17L13 17L13 19L15 19L15 20L16 20L16 19L17 19L17 20L18 20L18 19L19 19L19 18L17 18L17 17L20 17L20 15L21 15L21 14L20 14L20 15L19 15L19 16L18 16L18 14ZM3 15L3 16L4 16L4 17L2 17L2 16L1 16L1 18L0 18L0 21L1 21L1 19L3 19L3 18L4 18L4 17L5 17L5 15ZM32 16L32 17L33 17L33 16ZM14 17L14 18L15 18L15 19L16 19L16 18L15 18L15 17ZM23 17L23 18L24 18L24 17ZM31 18L31 19L32 19L32 20L33 20L33 18ZM6 19L6 20L7 20L7 19ZM6 21L6 22L7 22L7 23L6 23L6 24L7 24L7 23L8 23L8 22L7 22L7 21ZM16 21L16 22L17 22L17 23L18 23L18 24L19 24L19 23L21 23L21 22L19 22L19 21ZM27 22L27 23L26 23L26 24L27 24L27 23L28 23L28 22ZM2 23L2 24L3 24L3 23ZM25 25L25 28L28 28L28 25ZM26 26L26 27L27 27L27 26ZM16 29L16 31L17 31L17 29ZM18 29L18 30L19 30L19 29ZM29 29L29 30L30 30L30 29ZM22 31L22 32L24 32L24 31ZM31 32L31 33L32 33L32 32ZM0 0L0 7L7 7L7 0ZM1 1L1 6L6 6L6 1ZM2 2L2 5L5 5L5 2ZM26 0L26 7L33 7L33 0ZM27 1L27 6L32 6L32 1ZM28 2L28 5L31 5L31 2ZM0 26L0 33L7 33L7 26ZM1 27L1 32L6 32L6 27ZM2 28L2 31L5 31L5 28Z" fill="#000000"/></g></g></svg>
