<?xml version="1.0" encoding="UTF-8"?>
<svg xmlns="http://www.w3.org/2000/svg" version="1.1" width="400" height="400" viewBox="0 0 400 400"><rect x="0" y="0" width="400" height="400" fill="#fefefe"/><g transform="scale(9.756)"><g transform="translate(4,4)"><path fill-rule="evenodd" d="M9 0L9 1L8 1L8 3L9 3L9 4L8 4L8 8L6 8L6 9L7 9L7 10L6 10L6 11L7 11L7 12L5 12L5 13L7 13L7 12L8 12L8 13L9 13L9 14L10 14L10 15L9 15L9 16L8 16L8 14L5 14L5 15L4 15L4 16L3 16L3 15L2 15L2 14L3 14L3 13L4 13L4 11L5 11L5 10L4 10L4 8L3 8L3 11L2 11L2 14L1 14L1 13L0 13L0 20L1 20L1 19L2 19L2 20L4 20L4 19L5 19L5 18L6 18L6 19L7 19L7 20L5 20L5 22L6 22L6 23L5 23L5 24L4 24L4 25L8 25L8 27L11 27L11 28L10 28L10 29L8 29L8 30L10 30L10 32L9 32L9 31L8 31L8 33L10 33L10 32L11 32L11 33L12 33L12 32L13 32L13 33L14 33L14 32L13 32L13 30L14 30L14 31L15 31L15 32L16 32L16 33L17 33L17 32L19 32L19 31L17 31L17 29L18 29L18 30L19 30L19 29L20 29L20 30L21 30L21 31L20 31L20 33L25 33L25 32L26 32L26 30L27 30L27 29L28 29L28 31L29 31L29 32L28 32L28 33L29 33L29 32L30 32L30 31L33 31L33 27L32 27L32 26L33 26L33 25L31 25L31 27L32 27L32 29L30 29L30 25L29 25L29 24L28 24L28 23L29 23L29 22L31 22L31 23L33 23L33 21L29 21L29 22L28 22L28 23L26 23L26 22L27 22L27 21L26 21L26 22L25 22L25 23L26 23L26 24L24 24L24 27L23 27L23 26L22 26L22 25L23 25L23 22L22 22L22 23L21 23L21 26L20 26L20 25L18 25L18 24L19 24L19 23L20 23L20 22L19 22L19 21L16 21L16 22L17 22L17 23L16 23L16 24L14 24L14 22L15 22L15 21L14 21L14 20L13 20L13 19L15 19L15 20L16 20L16 19L17 19L17 20L18 20L18 19L19 19L19 18L17 18L17 17L20 17L20 18L24 18L24 17L22 17L22 15L21 15L21 17L20 17L20 16L18 16L18 14L17 14L17 15L16 15L16 16L14 16L14 15L13 15L13 13L14 13L14 14L15 14L15 13L19 13L19 14L20 14L20 13L19 13L19 12L21 12L21 14L22 14L22 13L23 13L23 12L25 12L25 13L26 13L26 14L29 14L29 16L27 16L27 15L26 15L26 16L25 16L25 14L23 14L23 16L25 16L25 19L23 19L23 20L22 20L22 19L20 19L20 21L23 21L23 20L24 20L24 21L25 21L25 20L26 20L26 17L27 17L27 18L28 18L28 17L29 17L29 16L30 16L30 15L32 15L32 14L33 14L33 9L32 9L32 8L30 8L30 9L29 9L29 8L26 8L26 11L21 11L21 9L22 9L22 10L23 10L23 9L24 9L24 8L25 8L25 3L23 3L23 4L21 4L21 5L17 5L17 6L16 6L16 3L19 3L19 4L20 4L20 3L19 3L19 1L20 1L20 2L22 2L22 1L23 1L23 2L25 2L25 0L19 0L19 1L17 1L17 0L15 0L15 4L13 4L13 5L14 5L14 7L15 7L15 8L16 8L16 11L15 11L15 9L14 9L14 8L13 8L13 6L12 6L12 5L11 5L11 6L10 6L10 5L9 5L9 4L12 4L12 3L13 3L13 2L14 2L14 0L12 0L12 1L11 1L11 2L9 2L9 1L10 1L10 0ZM22 5L22 6L21 6L21 7L22 7L22 6L23 6L23 8L24 8L24 5ZM9 6L9 7L10 7L10 8L8 8L8 9L9 9L9 10L10 10L10 8L11 8L11 9L12 9L12 10L11 10L11 11L8 11L8 12L9 12L9 13L12 13L12 12L13 12L13 11L14 11L14 10L13 10L13 8L12 8L12 6L11 6L11 7L10 7L10 6ZM15 6L15 7L16 7L16 8L17 8L17 9L18 9L18 10L20 10L20 9L21 9L21 8L19 8L19 9L18 9L18 8L17 8L17 7L18 7L18 6L17 6L17 7L16 7L16 6ZM19 6L19 7L20 7L20 6ZM0 8L0 11L1 11L1 10L2 10L2 8ZM28 9L28 10L27 10L27 11L29 11L29 9ZM31 10L31 11L30 11L30 12L28 12L28 13L29 13L29 14L31 14L31 12L32 12L32 10ZM16 11L16 12L19 12L19 11ZM11 14L11 15L10 15L10 16L9 16L9 20L7 20L7 21L6 21L6 22L7 22L7 21L8 21L8 22L11 22L11 23L9 23L9 24L8 24L8 23L6 23L6 24L8 24L8 25L9 25L9 26L10 26L10 25L11 25L11 26L12 26L12 27L14 27L14 28L11 28L11 29L10 29L10 30L11 30L11 32L12 32L12 30L13 30L13 29L14 29L14 30L15 30L15 31L16 31L16 32L17 32L17 31L16 31L16 29L17 29L17 28L15 28L15 27L17 27L17 25L15 25L15 26L14 26L14 25L12 25L12 24L13 24L13 23L12 23L12 21L13 21L13 20L10 20L10 18L11 18L11 19L13 19L13 17L14 17L14 18L15 18L15 19L16 19L16 18L15 18L15 17L14 17L14 16L13 16L13 17L10 17L10 16L12 16L12 14ZM1 15L1 16L2 16L2 17L1 17L1 18L2 18L2 19L4 19L4 18L5 18L5 16L4 16L4 17L3 17L3 16L2 16L2 15ZM6 15L6 16L7 16L7 15ZM32 16L32 17L33 17L33 16ZM2 17L2 18L3 18L3 17ZM6 17L6 18L7 18L7 19L8 19L8 18L7 18L7 17ZM31 18L31 19L32 19L32 20L33 20L33 18ZM28 19L28 20L30 20L30 19ZM1 21L1 22L0 22L0 23L1 23L1 24L0 24L0 25L1 25L1 24L2 24L2 25L3 25L3 23L4 23L4 22L3 22L3 23L2 23L2 21ZM11 23L11 24L12 24L12 23ZM17 23L17 24L18 24L18 23ZM25 25L25 28L28 28L28 25ZM18 26L18 29L19 29L19 27L20 27L20 29L21 29L21 27L20 27L20 26ZM26 26L26 27L27 27L27 26ZM14 28L14 29L15 29L15 28ZM23 28L23 29L22 29L22 30L23 30L23 31L22 31L22 32L24 32L24 31L25 31L25 29L24 29L24 28ZM11 29L11 30L12 30L12 29ZM29 29L29 30L30 30L30 29ZM31 32L31 33L32 33L32 32ZM0 0L0 7L7 7L7 0ZM1 1L1 6L6 6L6 1ZM2 2L2 5L5 5L5 2ZM26 0L26 7L33 7L33 0ZM27 1L27 6L32 6L32 1ZM28 2L28 5L31 5L31 2ZM0 26L0 33L7 33L7 26ZM1 27L1 32L6 32L6 27ZM2 28L2 31L5 31L5 28Z" fill="#000000"/></g></g></svg>
