<?xml version="1.0" encoding="UTF-8"?>
<svg xmlns="http://www.w3.org/2000/svg" version="1.1" width="400" height="400" viewBox="0 0 400 400"><rect x="0" y="0" width="400" height="400" fill="#fefefe"/><g transform="scale(9.756)"><g transform="translate(4,4)"><path fill-rule="evenodd" d="M9 0L9 1L8 1L8 2L9 2L9 3L8 3L8 4L10 4L10 7L11 7L11 4L12 4L12 5L13 5L13 6L12 6L12 9L14 9L14 10L11 10L11 11L10 11L10 9L11 9L11 8L6 8L6 9L5 9L5 8L0 8L0 9L3 9L3 10L1 10L1 12L2 12L2 11L3 11L3 12L4 12L4 13L2 13L2 15L4 15L4 17L3 17L3 16L1 16L1 15L0 15L0 16L1 16L1 17L0 17L0 18L1 18L1 20L0 20L0 25L1 25L1 22L2 22L2 18L4 18L4 19L3 19L3 20L6 20L6 21L3 21L3 23L2 23L2 25L7 25L7 24L9 24L9 25L8 25L8 27L9 27L9 28L8 28L8 33L9 33L9 32L10 32L10 31L11 31L11 30L12 30L12 32L13 32L13 33L14 33L14 32L13 32L13 29L14 29L14 30L15 30L15 33L16 33L16 32L17 32L17 33L18 33L18 32L17 32L17 31L16 31L16 30L17 30L17 29L18 29L18 28L20 28L20 29L19 29L19 30L20 30L20 31L19 31L19 32L20 32L20 33L21 33L21 32L22 32L22 31L23 31L23 32L24 32L24 33L26 33L26 32L24 32L24 31L27 31L27 32L28 32L28 30L29 30L29 31L30 31L30 32L29 32L29 33L30 33L30 32L31 32L31 33L32 33L32 32L31 32L31 31L32 31L32 30L29 30L29 29L30 29L30 28L31 28L31 27L32 27L32 26L33 26L33 23L30 23L30 24L32 24L32 25L30 25L30 26L31 26L31 27L30 27L30 28L29 28L29 24L28 24L28 23L29 23L29 22L28 22L28 21L30 21L30 20L31 20L31 19L32 19L32 20L33 20L33 19L32 19L32 18L33 18L33 17L32 17L32 14L33 14L33 13L32 13L32 10L33 10L33 9L32 9L32 8L31 8L31 9L32 9L32 10L28 10L28 11L29 11L29 12L28 12L28 13L25 13L25 12L26 12L26 10L27 10L27 9L28 9L28 8L27 8L27 9L26 9L26 8L25 8L25 6L24 6L24 8L25 8L25 9L19 9L19 8L23 8L23 6L22 6L22 5L24 5L24 4L25 4L25 2L23 2L23 1L25 1L25 0L23 0L23 1L20 1L20 0L19 0L19 1L20 1L20 3L24 3L24 4L22 4L22 5L21 5L21 4L18 4L18 3L19 3L19 2L18 2L18 3L17 3L17 4L18 4L18 7L19 7L19 8L17 8L17 6L16 6L16 5L15 5L15 6L14 6L14 5L13 5L13 4L14 4L14 3L13 3L13 4L12 4L12 2L14 2L14 1L15 1L15 2L16 2L16 1L15 1L15 0L13 0L13 1L11 1L11 2L10 2L10 0ZM10 3L10 4L11 4L11 3ZM15 3L15 4L16 4L16 3ZM8 5L8 7L9 7L9 5ZM19 5L19 7L20 7L20 6L21 6L21 7L22 7L22 6L21 6L21 5ZM13 6L13 8L14 8L14 9L15 9L15 10L14 10L14 11L12 11L12 12L14 12L14 13L13 13L13 14L12 14L12 13L11 13L11 12L10 12L10 13L9 13L9 14L10 14L10 13L11 13L11 16L12 16L12 18L11 18L11 17L10 17L10 18L8 18L8 19L6 19L6 20L7 20L7 21L6 21L6 22L4 22L4 23L3 23L3 24L4 24L4 23L5 23L5 24L7 24L7 23L8 23L8 21L10 21L10 22L11 22L11 23L9 23L9 24L11 24L11 25L9 25L9 26L11 26L11 28L9 28L9 29L10 29L10 30L11 30L11 29L13 29L13 28L14 28L14 29L15 29L15 30L16 30L16 29L17 29L17 28L18 28L18 27L20 27L20 28L21 28L21 29L20 29L20 30L21 30L21 31L22 31L22 30L23 30L23 31L24 31L24 30L28 30L28 29L24 29L24 27L23 27L23 29L22 29L22 28L21 28L21 26L19 26L19 25L22 25L22 26L23 26L23 25L24 25L24 24L23 24L23 25L22 25L22 24L21 24L21 23L20 23L20 22L19 22L19 21L21 21L21 22L23 22L23 23L25 23L25 22L26 22L26 24L27 24L27 23L28 23L28 22L26 22L26 21L28 21L28 20L30 20L30 19L31 19L31 18L30 18L30 17L31 17L31 16L30 16L30 14L29 14L29 13L31 13L31 12L29 12L29 13L28 13L28 15L29 15L29 17L28 17L28 16L27 16L27 14L26 14L26 16L25 16L25 15L24 15L24 14L25 14L25 13L24 13L24 12L25 12L25 11L24 11L24 10L21 10L21 11L20 11L20 10L19 10L19 12L21 12L21 13L20 13L20 14L17 14L17 16L18 16L18 15L20 15L20 14L21 14L21 13L24 13L24 14L22 14L22 15L23 15L23 16L21 16L21 17L20 17L20 16L19 16L19 17L20 17L20 18L19 18L19 19L20 19L20 20L18 20L18 19L17 19L17 18L18 18L18 17L17 17L17 18L16 18L16 19L17 19L17 20L18 20L18 21L17 21L17 22L16 22L16 21L15 21L15 18L14 18L14 17L16 17L16 15L15 15L15 14L16 14L16 13L17 13L17 12L18 12L18 11L16 11L16 12L15 12L15 10L16 10L16 9L17 9L17 10L18 10L18 9L17 9L17 8L16 8L16 9L15 9L15 7L16 7L16 6L15 6L15 7L14 7L14 6ZM29 8L29 9L30 9L30 8ZM6 9L6 10L8 10L8 12L9 12L9 10L8 10L8 9ZM25 9L25 10L26 10L26 9ZM4 10L4 11L5 11L5 10ZM6 11L6 12L5 12L5 13L4 13L4 15L6 15L6 16L5 16L5 17L6 17L6 18L7 18L7 17L8 17L8 16L7 16L7 15L8 15L8 13L6 13L6 12L7 12L7 11ZM21 11L21 12L22 12L22 11ZM0 13L0 14L1 14L1 13ZM14 13L14 14L15 14L15 13ZM6 14L6 15L7 15L7 14ZM6 16L6 17L7 17L7 16ZM13 16L13 17L14 17L14 16ZM21 17L21 18L20 18L20 19L21 19L21 20L23 20L23 22L25 22L25 21L26 21L26 19L27 19L27 18L28 18L28 19L29 19L29 18L28 18L28 17L26 17L26 18L25 18L25 17ZM10 18L10 19L9 19L9 20L10 20L10 19L11 19L11 20L12 20L12 21L11 21L11 22L12 22L12 23L11 23L11 24L12 24L12 23L16 23L16 24L17 24L17 25L16 25L16 26L15 26L15 25L14 25L14 24L13 24L13 25L11 25L11 26L12 26L12 28L13 28L13 25L14 25L14 26L15 26L15 29L16 29L16 28L17 28L17 25L18 25L18 24L17 24L17 23L19 23L19 24L20 24L20 23L19 23L19 22L17 22L17 23L16 23L16 22L15 22L15 21L14 21L14 20L13 20L13 19L14 19L14 18L12 18L12 19L11 19L11 18ZM23 18L23 20L25 20L25 18ZM13 21L13 22L14 22L14 21ZM32 21L32 22L33 22L33 21ZM6 22L6 23L7 23L7 22ZM25 25L25 28L28 28L28 25ZM26 26L26 27L27 27L27 26ZM32 28L32 29L33 29L33 28ZM21 29L21 30L22 30L22 29ZM23 29L23 30L24 30L24 29ZM0 0L0 7L7 7L7 0ZM1 1L1 6L6 6L6 1ZM2 2L2 5L5 5L5 2ZM26 0L26 7L33 7L33 0ZM27 1L27 6L32 6L32 1ZM28 2L28 5L31 5L31 2ZM0 26L0 33L7 33L7 26ZM1 27L1 32L6 32L6 27ZM2 28L2 31L5 31L5 28Z" fill="#000000"/></g></g></svg>
