<?xml version="1.0" encoding="UTF-8"?>
<svg xmlns="http://www.w3.org/2000/svg" version="1.1" width="400" height="400" viewBox="0 0 400 400"><rect x="0" y="0" width="400" height="400" fill="#fefefe"/><g transform="scale(9.756)"><g transform="translate(4,4)"><path fill-rule="evenodd" d="M8 0L8 1L11 1L11 2L10 2L10 4L9 4L9 2L8 2L8 5L11 5L11 4L12 4L12 1L13 1L13 4L14 4L14 5L16 5L16 12L17 12L17 13L15 13L15 14L17 14L17 13L19 13L19 14L18 14L18 16L21 16L21 18L20 18L20 19L22 19L22 15L23 15L23 13L22 13L22 15L20 15L20 13L19 13L19 12L21 12L21 10L22 10L22 12L25 12L25 13L26 13L26 12L25 12L25 9L26 9L26 11L27 11L27 14L28 14L28 13L29 13L29 12L30 12L30 11L29 11L29 10L28 10L28 11L27 11L27 9L26 9L26 8L25 8L25 0L23 0L23 1L22 1L22 2L24 2L24 9L23 9L23 10L22 10L22 8L23 8L23 5L22 5L22 8L19 8L19 6L20 6L20 7L21 7L21 5L20 5L20 4L19 4L19 3L21 3L21 2L19 2L19 1L21 1L21 0L18 0L18 1L17 1L17 2L15 2L15 0ZM14 2L14 4L15 4L15 2ZM17 2L17 3L16 3L16 5L17 5L17 7L18 7L18 6L19 6L19 5L18 5L18 4L17 4L17 3L18 3L18 2ZM22 3L22 4L23 4L23 3ZM8 6L8 7L9 7L9 6ZM10 6L10 9L11 9L11 10L9 10L9 11L8 11L8 12L6 12L6 11L7 11L7 10L8 10L8 9L9 9L9 8L8 8L8 9L7 9L7 8L6 8L6 9L5 9L5 10L4 10L4 8L0 8L0 11L2 11L2 12L0 12L0 13L1 13L1 14L0 14L0 15L1 15L1 16L0 16L0 18L1 18L1 20L2 20L2 21L0 21L0 22L2 22L2 23L1 23L1 24L0 24L0 25L1 25L1 24L4 24L4 25L7 25L7 24L5 24L5 23L9 23L9 24L8 24L8 26L9 26L9 24L10 24L10 25L11 25L11 24L12 24L12 25L14 25L14 22L15 22L15 21L14 21L14 22L13 22L13 21L12 21L12 20L13 20L13 19L14 19L14 20L15 20L15 19L16 19L16 20L17 20L17 21L16 21L16 22L17 22L17 21L19 21L19 22L20 22L20 21L23 21L23 22L22 22L22 23L25 23L25 24L24 24L24 26L21 26L21 23L20 23L20 25L18 25L18 24L19 24L19 23L18 23L18 24L17 24L17 25L15 25L15 26L18 26L18 30L19 30L19 27L21 27L21 28L20 28L20 31L22 31L22 32L21 32L21 33L22 33L22 32L23 32L23 33L24 33L24 32L25 32L25 31L26 31L26 33L31 33L31 32L30 32L30 31L32 31L32 32L33 32L33 31L32 31L32 27L31 27L31 26L32 26L32 25L33 25L33 21L32 21L32 20L30 20L30 19L29 19L29 17L32 17L32 18L31 18L31 19L32 19L32 18L33 18L33 16L32 16L32 15L30 15L30 16L28 16L28 17L27 17L27 15L26 15L26 14L25 14L25 16L23 16L23 18L24 18L24 17L25 17L25 19L23 19L23 20L18 20L18 19L19 19L19 18L17 18L17 19L16 19L16 18L15 18L15 17L17 17L17 15L16 15L16 16L13 16L13 15L14 15L14 14L13 14L13 13L14 13L14 11L15 11L15 9L14 9L14 10L13 10L13 9L11 9L11 6ZM12 6L12 7L13 7L13 6ZM14 6L14 8L15 8L15 6ZM18 8L18 9L17 9L17 12L19 12L19 11L20 11L20 10L21 10L21 9L20 9L20 10L18 10L18 9L19 9L19 8ZM28 8L28 9L31 9L31 8ZM32 8L32 10L31 10L31 11L33 11L33 8ZM1 9L1 10L2 10L2 11L3 11L3 9ZM6 9L6 10L7 10L7 9ZM12 10L12 11L13 11L13 10ZM4 11L4 14L3 14L3 13L2 13L2 14L3 14L3 15L5 15L5 16L1 16L1 17L4 17L4 18L2 18L2 20L3 20L3 21L2 21L2 22L3 22L3 21L4 21L4 22L5 22L5 20L7 20L7 21L6 21L6 22L7 22L7 21L8 21L8 16L10 16L10 17L9 17L9 20L10 20L10 19L12 19L12 18L13 18L13 16L12 16L12 18L10 18L10 17L11 17L11 16L10 16L10 14L11 14L11 15L13 15L13 14L12 14L12 13L13 13L13 12L11 12L11 13L8 13L8 14L7 14L7 13L6 13L6 12L5 12L5 11ZM31 12L31 14L32 14L32 12ZM5 14L5 15L7 15L7 14ZM5 16L5 17L7 17L7 16ZM25 16L25 17L26 17L26 16ZM6 18L6 19L7 19L7 18ZM14 18L14 19L15 19L15 18ZM4 19L4 20L5 20L5 19ZM27 19L27 20L24 20L24 21L25 21L25 23L26 23L26 21L27 21L27 20L28 20L28 23L29 23L29 25L30 25L30 26L29 26L29 29L26 29L26 30L27 30L27 32L29 32L29 30L30 30L30 26L31 26L31 25L32 25L32 21L29 21L29 19ZM10 21L10 22L11 22L11 21ZM12 22L12 24L13 24L13 22ZM29 22L29 23L31 23L31 22ZM15 23L15 24L16 24L16 23ZM22 24L22 25L23 25L23 24ZM25 25L25 28L28 28L28 25ZM10 26L10 28L9 28L9 29L8 29L8 33L10 33L10 32L9 32L9 30L10 30L10 28L11 28L11 30L12 30L12 31L11 31L11 33L13 33L13 32L12 32L12 31L13 31L13 30L15 30L15 31L14 31L14 32L15 32L15 31L16 31L16 33L20 33L20 32L19 32L19 31L16 31L16 29L15 29L15 28L17 28L17 27L15 27L15 28L13 28L13 27L14 27L14 26L12 26L12 28L11 28L11 26ZM26 26L26 27L27 27L27 26ZM23 27L23 28L22 28L22 31L23 31L23 28L24 28L24 27ZM12 29L12 30L13 30L13 29ZM24 29L24 30L25 30L25 29ZM0 0L0 7L7 7L7 0ZM1 1L1 6L6 6L6 1ZM2 2L2 5L5 5L5 2ZM26 0L26 7L33 7L33 0ZM27 1L27 6L32 6L32 1ZM28 2L28 5L31 5L31 2ZM0 26L0 33L7 33L7 26ZM1 27L1 32L6 32L6 27ZM2 28L2 31L5 31L5 28Z" fill="#000000"/></g></g></svg>
