<?xml version="1.0" encoding="UTF-8"?>
<svg xmlns="http://www.w3.org/2000/svg" version="1.1" width="400" height="400" viewBox="0 0 400 400"><rect x="0" y="0" width="400" height="400" fill="#fefefe"/><g transform="scale(9.756)"><g transform="translate(4,4)"><path fill-rule="evenodd" d="M8 0L8 4L9 4L9 5L8 5L8 7L9 7L9 8L10 8L10 7L11 7L11 5L12 5L12 7L13 7L13 5L14 5L14 7L15 7L15 8L14 8L14 9L13 9L13 8L12 8L12 9L11 9L11 11L10 11L10 13L11 13L11 15L12 15L12 13L11 13L11 11L12 11L12 12L13 12L13 11L14 11L14 9L15 9L15 12L14 12L14 13L13 13L13 14L14 14L14 13L15 13L15 15L16 15L16 14L17 14L17 16L14 16L14 17L13 17L13 16L12 16L12 17L11 17L11 16L10 16L10 15L9 15L9 14L8 14L8 13L9 13L9 10L10 10L10 9L8 9L8 10L5 10L5 11L8 11L8 13L7 13L7 12L5 12L5 14L2 14L2 15L1 15L1 14L0 14L0 15L1 15L1 17L0 17L0 18L1 18L1 19L0 19L0 20L1 20L1 21L0 21L0 22L1 22L1 21L3 21L3 22L4 22L4 23L3 23L3 24L0 24L0 25L3 25L3 24L4 24L4 25L8 25L8 26L9 26L9 27L8 27L8 29L9 29L9 27L10 27L10 28L13 28L13 26L14 26L14 25L15 25L15 28L14 28L14 29L11 29L11 30L9 30L9 31L8 31L8 33L11 33L11 32L13 32L13 30L14 30L14 29L15 29L15 32L14 32L14 33L15 33L15 32L16 32L16 31L17 31L17 33L18 33L18 32L19 32L19 33L23 33L23 31L22 31L22 30L24 30L24 29L25 29L25 31L24 31L24 33L25 33L25 32L26 32L26 31L27 31L27 33L28 33L28 31L29 31L29 33L30 33L30 31L29 31L29 29L30 29L30 27L31 27L31 28L32 28L32 26L31 26L31 25L32 25L32 24L33 24L33 23L31 23L31 22L32 22L32 21L33 21L33 19L32 19L32 18L31 18L31 17L30 17L30 18L29 18L29 19L28 19L28 20L26 20L26 19L27 19L27 18L26 18L26 17L29 17L29 16L30 16L30 14L31 14L31 16L32 16L32 17L33 17L33 16L32 16L32 14L31 14L31 13L29 13L29 10L28 10L28 8L27 8L27 10L28 10L28 13L27 13L27 11L25 11L25 13L23 13L23 11L24 11L24 10L26 10L26 9L23 9L23 8L25 8L25 6L24 6L24 7L23 7L23 6L22 6L22 5L21 5L21 3L22 3L22 2L23 2L23 5L25 5L25 2L23 2L23 1L25 1L25 0L23 0L23 1L22 1L22 0L21 0L21 1L19 1L19 0L18 0L18 1L17 1L17 2L16 2L16 3L15 3L15 4L14 4L14 3L12 3L12 4L9 4L9 3L11 3L11 2L9 2L9 0ZM10 0L10 1L12 1L12 2L13 2L13 0ZM15 0L15 1L14 1L14 2L15 2L15 1L16 1L16 0ZM21 1L21 2L22 2L22 1ZM18 2L18 3L17 3L17 4L16 4L16 5L15 5L15 7L16 7L16 8L15 8L15 9L17 9L17 10L16 10L16 11L18 11L18 12L19 12L19 11L20 11L20 12L21 12L21 10L22 10L22 11L23 11L23 9L19 9L19 10L18 10L18 9L17 9L17 7L18 7L18 3L19 3L19 5L20 5L20 6L19 6L19 8L21 8L21 7L22 7L22 6L21 6L21 5L20 5L20 3L19 3L19 2ZM9 5L9 7L10 7L10 5ZM16 6L16 7L17 7L17 6ZM20 6L20 7L21 7L21 6ZM0 8L0 12L1 12L1 13L3 13L3 12L4 12L4 11L3 11L3 12L1 12L1 11L2 11L2 10L3 10L3 9L2 9L2 8ZM4 8L4 9L7 9L7 8ZM29 8L29 9L31 9L31 12L32 12L32 13L33 13L33 12L32 12L32 9L33 9L33 8ZM12 10L12 11L13 11L13 10ZM16 12L16 13L17 13L17 12ZM6 13L6 14L5 14L5 15L4 15L4 16L3 16L3 15L2 15L2 16L3 16L3 17L4 17L4 19L3 19L3 18L2 18L2 20L3 20L3 21L6 21L6 22L8 22L8 23L6 23L6 24L8 24L8 25L9 25L9 24L8 24L8 23L9 23L9 22L10 22L10 24L11 24L11 25L12 25L12 24L13 24L13 25L14 25L14 24L16 24L16 25L17 25L17 26L16 26L16 28L15 28L15 29L17 29L17 30L19 30L19 31L20 31L20 32L21 32L21 31L20 31L20 30L22 30L22 29L24 29L24 28L22 28L22 29L19 29L19 27L20 27L20 28L21 28L21 27L22 27L22 26L23 26L23 27L24 27L24 26L23 26L23 25L24 25L24 24L25 24L25 23L26 23L26 24L27 24L27 23L28 23L28 22L31 22L31 20L32 20L32 19L30 19L30 21L25 21L25 22L24 22L24 24L23 24L23 19L22 19L22 17L25 17L25 16L26 16L26 15L27 15L27 13L25 13L25 14L24 14L24 15L25 15L25 16L22 16L22 17L19 17L19 18L18 18L18 17L17 17L17 19L16 19L16 20L15 20L15 18L16 18L16 17L14 17L14 19L13 19L13 18L12 18L12 19L13 19L13 21L14 21L14 22L15 22L15 21L16 21L16 20L17 20L17 19L18 19L18 21L17 21L17 23L13 23L13 22L12 22L12 23L11 23L11 22L10 22L10 20L11 20L11 19L10 19L10 18L11 18L11 17L10 17L10 16L9 16L9 17L10 17L10 18L9 18L9 19L8 19L8 18L7 18L7 17L8 17L8 14L7 14L7 13ZM19 13L19 15L18 15L18 16L19 16L19 15L20 15L20 16L21 16L21 15L20 15L20 14L22 14L22 15L23 15L23 13ZM28 13L28 14L29 14L29 13ZM6 14L6 15L7 15L7 14ZM25 14L25 15L26 15L26 14ZM28 15L28 16L29 16L29 15ZM5 16L5 17L7 17L7 16ZM6 18L6 19L5 19L5 20L6 20L6 21L7 21L7 20L6 20L6 19L7 19L7 18ZM9 19L9 20L10 20L10 19ZM21 19L21 21L20 21L20 23L21 23L21 25L20 25L20 27L21 27L21 25L23 25L23 24L22 24L22 19ZM14 20L14 21L15 21L15 20ZM17 23L17 25L18 25L18 24L19 24L19 23ZM30 23L30 24L29 24L29 26L30 26L30 25L31 25L31 23ZM25 25L25 28L28 28L28 25ZM17 26L17 29L18 29L18 27L19 27L19 26ZM26 26L26 27L27 27L27 26ZM27 29L27 31L28 31L28 29ZM31 29L31 31L32 31L32 30L33 30L33 29ZM32 32L32 33L33 33L33 32ZM0 0L0 7L7 7L7 0ZM1 1L1 6L6 6L6 1ZM2 2L2 5L5 5L5 2ZM26 0L26 7L33 7L33 0ZM27 1L27 6L32 6L32 1ZM28 2L28 5L31 5L31 2ZM0 26L0 33L7 33L7 26ZM1 27L1 32L6 32L6 27ZM2 28L2 31L5 31L5 28Z" fill="#000000"/></g></g></svg>
