<?xml version="1.0" encoding="UTF-8"?>
<svg xmlns="http://www.w3.org/2000/svg" version="1.1" width="400" height="400" viewBox="0 0 400 400"><rect x="0" y="0" width="400" height="400" fill="#fefefe"/><g transform="scale(9.756)"><g transform="translate(4,4)"><path fill-rule="evenodd" d="M8 0L8 4L10 4L10 3L11 3L11 4L12 4L12 2L11 2L11 0ZM12 0L12 1L13 1L13 0ZM15 0L15 1L14 1L14 2L15 2L15 1L16 1L16 0ZM20 0L20 1L18 1L18 2L16 2L16 3L15 3L15 4L14 4L14 3L13 3L13 5L11 5L11 6L10 6L10 7L9 7L9 5L8 5L8 7L9 7L9 8L10 8L10 7L11 7L11 6L12 6L12 8L11 8L11 9L8 9L8 10L11 10L11 11L10 11L10 13L11 13L11 12L12 12L12 13L13 13L13 14L14 14L14 13L15 13L15 15L16 15L16 14L17 14L17 16L14 16L14 17L13 17L13 15L12 15L12 16L10 16L10 17L9 17L9 15L8 15L8 14L9 14L9 12L8 12L8 11L7 11L7 10L6 10L6 9L7 9L7 8L4 8L4 9L3 9L3 10L2 10L2 12L1 12L1 9L2 9L2 8L0 8L0 12L1 12L1 13L0 13L0 14L1 14L1 13L7 13L7 12L8 12L8 14L5 14L5 15L4 15L4 14L2 14L2 18L3 18L3 17L4 17L4 16L5 16L5 15L7 15L7 16L6 16L6 17L7 17L7 16L8 16L8 19L7 19L7 18L5 18L5 19L7 19L7 20L5 20L5 21L4 21L4 20L3 20L3 19L2 19L2 20L3 20L3 21L4 21L4 24L0 24L0 25L4 25L4 24L6 24L6 25L8 25L8 26L10 26L10 28L12 28L12 27L13 27L13 26L14 26L14 25L15 25L15 28L14 28L14 29L11 29L11 31L12 31L12 30L14 30L14 29L15 29L15 32L14 32L14 33L15 33L15 32L16 32L16 31L17 31L17 33L18 33L18 32L19 32L19 33L20 33L20 32L21 32L21 33L22 33L22 32L23 32L23 33L25 33L25 31L26 31L26 33L28 33L28 32L27 32L27 31L29 31L29 33L30 33L30 31L29 31L29 29L30 29L30 27L31 27L31 28L32 28L32 29L31 29L31 31L32 31L32 30L33 30L33 27L32 27L32 26L31 26L31 25L32 25L32 24L33 24L33 23L31 23L31 22L32 22L32 21L33 21L33 19L32 19L32 18L31 18L31 17L30 17L30 18L29 18L29 19L27 19L27 18L26 18L26 17L29 17L29 16L30 16L30 14L31 14L31 16L32 16L32 17L33 17L33 16L32 16L32 14L31 14L31 13L29 13L29 10L27 10L27 11L26 11L26 10L24 10L24 9L25 9L25 3L22 3L22 2L23 2L23 1L25 1L25 0L23 0L23 1L22 1L22 0ZM20 1L20 2L18 2L18 3L17 3L17 4L16 4L16 5L15 5L15 7L14 7L14 5L13 5L13 8L12 8L12 9L11 9L11 10L12 10L12 9L14 9L14 11L12 11L12 12L13 12L13 13L14 13L14 12L15 12L15 9L17 9L17 10L16 10L16 11L18 11L18 12L20 12L20 11L22 11L22 12L23 12L23 13L19 13L19 15L18 15L18 16L19 16L19 18L18 18L18 17L17 17L17 19L16 19L16 20L15 20L15 18L16 18L16 17L14 17L14 19L13 19L13 20L12 20L12 23L9 23L9 24L8 24L8 25L10 25L10 26L11 26L11 25L12 25L12 24L13 24L13 25L14 25L14 22L15 22L15 21L16 21L16 20L17 20L17 19L18 19L18 21L17 21L17 23L15 23L15 24L16 24L16 25L17 25L17 26L16 26L16 28L15 28L15 29L17 29L17 30L19 30L19 31L21 31L21 30L22 30L22 31L25 31L25 29L24 29L24 28L23 28L23 27L24 27L24 26L23 26L23 27L22 27L22 29L21 29L21 28L20 28L20 29L19 29L19 27L20 27L20 25L21 25L21 26L22 26L22 25L24 25L24 23L23 23L23 19L22 19L22 25L21 25L21 23L20 23L20 22L21 22L21 21L19 21L19 20L20 20L20 17L21 17L21 18L22 18L22 17L25 17L25 16L27 16L27 13L28 13L28 15L29 15L29 13L28 13L28 11L27 11L27 13L26 13L26 11L25 11L25 12L23 12L23 11L22 11L22 10L23 10L23 9L24 9L24 8L23 8L23 9L21 9L21 8L20 8L20 6L19 6L19 5L20 5L20 2L22 2L22 1ZM9 2L9 3L10 3L10 2ZM21 3L21 4L22 4L22 3ZM17 5L17 6L16 6L16 7L15 7L15 8L14 8L14 9L15 9L15 8L16 8L16 7L17 7L17 9L18 9L18 10L19 10L19 9L20 9L20 10L21 10L21 9L20 9L20 8L19 8L19 6L18 6L18 5ZM21 5L21 7L22 7L22 6L23 6L23 7L24 7L24 5ZM17 6L17 7L18 7L18 6ZM27 8L27 9L28 9L28 8ZM29 8L29 9L31 9L31 12L32 12L32 13L33 13L33 12L32 12L32 9L33 9L33 8ZM3 10L3 12L7 12L7 11L4 11L4 10ZM16 12L16 13L17 13L17 12ZM23 13L23 16L25 16L25 15L26 15L26 13ZM10 14L10 15L11 15L11 14ZM21 14L21 17L22 17L22 14ZM24 14L24 15L25 15L25 14ZM3 15L3 16L4 16L4 15ZM0 16L0 17L1 17L1 16ZM10 17L10 18L9 18L9 19L11 19L11 18L12 18L12 17ZM0 18L0 22L1 22L1 18ZM26 19L26 20L27 20L27 21L25 21L25 22L26 22L26 24L27 24L27 21L28 21L28 23L29 23L29 22L31 22L31 20L32 20L32 19L30 19L30 21L28 21L28 20L27 20L27 19ZM7 20L7 21L6 21L6 22L7 22L7 23L6 23L6 24L7 24L7 23L8 23L8 22L11 22L11 20L10 20L10 21L8 21L8 20ZM14 20L14 21L13 21L13 22L14 22L14 21L15 21L15 20ZM7 21L7 22L8 22L8 21ZM17 23L17 25L18 25L18 24L19 24L19 25L20 25L20 24L19 24L19 23ZM30 23L30 24L29 24L29 26L30 26L30 25L31 25L31 23ZM10 24L10 25L11 25L11 24ZM25 25L25 28L28 28L28 25ZM17 26L17 29L18 29L18 27L19 27L19 26ZM26 26L26 27L27 27L27 26ZM8 27L8 29L9 29L9 27ZM20 29L20 30L21 30L21 29ZM22 29L22 30L23 30L23 29ZM9 30L9 31L8 31L8 33L10 33L10 30ZM32 32L32 33L33 33L33 32ZM0 0L0 7L7 7L7 0ZM1 1L1 6L6 6L6 1ZM2 2L2 5L5 5L5 2ZM26 0L26 7L33 7L33 0ZM27 1L27 6L32 6L32 1ZM28 2L28 5L31 5L31 2ZM0 26L0 33L7 33L7 26ZM1 27L1 32L6 32L6 27ZM2 28L2 31L5 31L5 28Z" fill="#000000"/></g></g></svg>
