<?xml version="1.0" encoding="UTF-8"?>
<svg xmlns="http://www.w3.org/2000/svg" version="1.1" width="400" height="400" viewBox="0 0 400 400"><rect x="0" y="0" width="400" height="400" fill="#fefefe"/><g transform="scale(9.756)"><g transform="translate(4,4)"><path fill-rule="evenodd" d="M9 0L9 1L8 1L8 3L9 3L9 4L8 4L8 8L6 8L6 9L8 9L8 8L10 8L10 10L9 10L9 11L11 11L11 10L12 10L12 9L11 9L11 8L10 8L10 7L11 7L11 6L12 6L12 8L13 8L13 10L14 10L14 11L13 11L13 12L12 12L12 13L10 13L10 16L9 16L9 15L7 15L7 14L5 14L5 12L6 12L6 13L7 13L7 12L8 12L8 13L9 13L9 12L8 12L8 11L7 11L7 10L6 10L6 11L5 11L5 9L4 9L4 8L3 8L3 9L2 9L2 8L0 8L0 9L2 9L2 10L0 10L0 11L5 11L5 12L3 12L3 13L2 13L2 12L1 12L1 14L0 14L0 15L1 15L1 16L0 16L0 18L1 18L1 20L0 20L0 21L1 21L1 20L3 20L3 19L4 19L4 20L5 20L5 21L2 21L2 22L0 22L0 23L1 23L1 24L0 24L0 25L1 25L1 24L2 24L2 22L3 22L3 24L4 24L4 23L8 23L8 22L9 22L9 24L5 24L5 25L8 25L8 27L9 27L9 26L10 26L10 25L11 25L11 24L12 24L12 25L14 25L14 26L15 26L15 25L17 25L17 27L15 27L15 28L14 28L14 27L13 27L13 26L11 26L11 28L12 28L12 27L13 27L13 28L14 28L14 29L13 29L13 30L14 30L14 32L13 32L13 31L11 31L11 30L12 30L12 29L10 29L10 28L9 28L9 29L8 29L8 30L10 30L10 31L8 31L8 33L9 33L9 32L11 32L11 33L12 33L12 32L13 32L13 33L14 33L14 32L16 32L16 33L17 33L17 32L20 32L20 31L21 31L21 33L22 33L22 30L23 30L23 29L22 29L22 25L24 25L24 27L23 27L23 28L24 28L24 29L25 29L25 30L24 30L24 32L23 32L23 33L25 33L25 31L26 31L26 30L27 30L27 29L28 29L28 31L27 31L27 32L26 32L26 33L27 33L27 32L30 32L30 31L33 31L33 27L32 27L32 26L33 26L33 25L31 25L31 27L32 27L32 29L30 29L30 25L29 25L29 24L23 24L23 22L22 22L22 23L21 23L21 22L19 22L19 21L16 21L16 22L17 22L17 23L16 23L16 24L14 24L14 22L15 22L15 21L14 21L14 20L13 20L13 19L15 19L15 20L16 20L16 19L17 19L17 20L18 20L18 19L19 19L19 20L20 20L20 21L23 21L23 20L24 20L24 21L25 21L25 20L26 20L26 17L27 17L27 18L28 18L28 20L27 20L27 21L26 21L26 22L25 22L25 23L28 23L28 20L30 20L30 19L29 19L29 18L28 18L28 17L29 17L29 16L30 16L30 15L32 15L32 14L33 14L33 9L32 9L32 8L30 8L30 9L29 9L29 8L26 8L26 11L25 11L25 10L24 10L24 11L23 11L23 12L22 12L22 11L21 11L21 14L22 14L22 15L20 15L20 16L18 16L18 14L17 14L17 15L16 15L16 16L14 16L14 15L13 15L13 13L14 13L14 14L15 14L15 13L19 13L19 14L20 14L20 13L19 13L19 12L16 12L16 11L20 11L20 10L18 10L18 9L22 9L22 10L23 10L23 9L24 9L24 7L25 7L25 5L24 5L24 2L25 2L25 0L19 0L19 1L17 1L17 0L15 0L15 4L13 4L13 5L14 5L14 7L15 7L15 8L16 8L16 11L15 11L15 9L14 9L14 8L13 8L13 6L12 6L12 5L11 5L11 6L10 6L10 5L9 5L9 4L12 4L12 3L13 3L13 2L14 2L14 0L12 0L12 1L11 1L11 2L9 2L9 1L10 1L10 0ZM19 1L19 2L20 2L20 4L19 4L19 3L16 3L16 6L15 6L15 7L16 7L16 8L17 8L17 9L18 9L18 8L21 8L21 7L22 7L22 8L23 8L23 7L24 7L24 5L23 5L23 4L22 4L22 3L23 3L23 1L22 1L22 2L20 2L20 1ZM17 4L17 5L18 5L18 4ZM19 5L19 6L18 6L18 7L17 7L17 6L16 6L16 7L17 7L17 8L18 8L18 7L19 7L19 6L20 6L20 7L21 7L21 6L22 6L22 7L23 7L23 6L22 6L22 5L21 5L21 6L20 6L20 5ZM9 6L9 7L10 7L10 6ZM28 9L28 11L26 11L26 12L25 12L25 13L26 13L26 12L27 12L27 14L25 14L25 16L23 16L23 15L22 15L22 17L24 17L24 18L20 18L20 17L21 17L21 16L20 16L20 17L17 17L17 18L19 18L19 19L20 19L20 20L21 20L21 19L25 19L25 16L26 16L26 15L27 15L27 16L29 16L29 14L31 14L31 12L32 12L32 10L31 10L31 11L30 11L30 12L29 12L29 9ZM6 11L6 12L7 12L7 11ZM23 12L23 13L22 13L22 14L24 14L24 12ZM3 13L3 14L1 14L1 15L3 15L3 16L2 16L2 17L1 17L1 18L3 18L3 16L4 16L4 18L7 18L7 17L5 17L5 16L7 16L7 15L3 15L3 14L4 14L4 13ZM28 13L28 14L29 14L29 13ZM11 14L11 16L12 16L12 14ZM13 16L13 17L11 17L11 18L10 18L10 17L9 17L9 18L8 18L8 20L7 20L7 19L5 19L5 20L7 20L7 21L5 21L5 22L7 22L7 21L8 21L8 20L9 20L9 21L10 21L10 22L11 22L11 23L12 23L12 24L13 24L13 23L12 23L12 21L13 21L13 20L10 20L10 19L13 19L13 17L14 17L14 18L15 18L15 19L16 19L16 18L15 18L15 17L14 17L14 16ZM32 16L32 17L33 17L33 16ZM9 18L9 19L10 19L10 18ZM31 18L31 19L32 19L32 20L33 20L33 18ZM29 21L29 22L31 22L31 23L33 23L33 21ZM17 23L17 24L18 24L18 25L20 25L20 24L21 24L21 23L20 23L20 24L18 24L18 23ZM9 24L9 25L10 25L10 24ZM25 25L25 28L28 28L28 25ZM18 26L18 29L17 29L17 28L15 28L15 29L14 29L14 30L15 30L15 31L16 31L16 32L17 32L17 31L20 31L20 29L21 29L21 27L20 27L20 26ZM26 26L26 27L27 27L27 26ZM19 28L19 29L18 29L18 30L19 30L19 29L20 29L20 28ZM16 29L16 31L17 31L17 29ZM29 29L29 30L30 30L30 29ZM31 32L31 33L32 33L32 32ZM0 0L0 7L7 7L7 0ZM1 1L1 6L6 6L6 1ZM2 2L2 5L5 5L5 2ZM26 0L26 7L33 7L33 0ZM27 1L27 6L32 6L32 1ZM28 2L28 5L31 5L31 2ZM0 26L0 33L7 33L7 26ZM1 27L1 32L6 32L6 27ZM2 28L2 31L5 31L5 28Z" fill="#000000"/></g></g></svg>
