<?xml version="1.0" encoding="UTF-8"?>
<svg xmlns="http://www.w3.org/2000/svg" version="1.1" width="400" height="400" viewBox="0 0 400 400"><rect x="0" y="0" width="400" height="400" fill="#fefefe"/><g transform="scale(9.756)"><g transform="translate(4,4)"><path fill-rule="evenodd" d="M9 0L9 1L8 1L8 2L9 2L9 3L8 3L8 4L9 4L9 3L10 3L10 5L8 5L8 7L9 7L9 8L6 8L6 9L7 9L7 10L6 10L6 11L7 11L7 10L8 10L8 11L9 11L9 10L8 10L8 9L10 9L10 8L12 8L12 9L11 9L11 10L10 10L10 11L11 11L11 12L9 12L9 13L11 13L11 14L8 14L8 17L7 17L7 16L6 16L6 15L7 15L7 14L5 14L5 13L8 13L8 12L5 12L5 13L4 13L4 12L3 12L3 13L4 13L4 14L5 14L5 16L4 16L4 18L3 18L3 17L2 17L2 18L1 18L1 17L0 17L0 18L1 18L1 19L2 19L2 18L3 18L3 20L1 20L1 21L0 21L0 25L1 25L1 22L3 22L3 21L4 21L4 23L2 23L2 24L3 24L3 25L4 25L4 24L6 24L6 25L8 25L8 27L9 27L9 28L8 28L8 33L9 33L9 32L10 32L10 33L11 33L11 32L10 32L10 31L11 31L11 30L13 30L13 29L14 29L14 30L15 30L15 33L16 33L16 32L17 32L17 33L18 33L18 32L17 32L17 31L16 31L16 30L17 30L17 29L18 29L18 28L19 28L19 27L18 27L18 28L17 28L17 25L18 25L18 24L17 24L17 23L19 23L19 24L20 24L20 25L19 25L19 26L20 26L20 29L19 29L19 30L20 30L20 29L21 29L21 30L22 30L22 31L19 31L19 32L22 32L22 33L23 33L23 32L24 32L24 33L30 33L30 32L31 32L31 33L32 33L32 32L31 32L31 31L32 31L32 30L29 30L29 29L30 29L30 28L31 28L31 29L33 29L33 28L32 28L32 26L33 26L33 23L30 23L30 24L32 24L32 25L30 25L30 26L31 26L31 27L30 27L30 28L29 28L29 24L28 24L28 21L30 21L30 20L31 20L31 19L32 19L32 20L33 20L33 19L32 19L32 18L33 18L33 17L32 17L32 14L33 14L33 13L32 13L32 10L33 10L33 9L32 9L32 8L31 8L31 9L32 9L32 10L29 10L29 12L28 12L28 13L25 13L25 12L27 12L27 11L28 11L28 8L27 8L27 9L26 9L26 8L24 8L24 7L25 7L25 4L23 4L23 1L25 1L25 0L23 0L23 1L21 1L21 0L18 0L18 1L20 1L20 4L19 4L19 2L18 2L18 3L17 3L17 4L19 4L19 5L18 5L18 8L17 8L17 6L16 6L16 5L15 5L15 6L14 6L14 5L13 5L13 4L14 4L14 3L13 3L13 2L14 2L14 1L15 1L15 2L16 2L16 1L15 1L15 0ZM10 1L10 3L11 3L11 2L12 2L12 1ZM24 2L24 3L25 3L25 2ZM12 3L12 4L13 4L13 3ZM15 3L15 4L16 4L16 3ZM21 3L21 4L20 4L20 5L19 5L19 9L22 9L22 10L23 10L23 13L22 13L22 12L21 12L21 10L19 10L19 12L21 12L21 13L20 13L20 14L17 14L17 16L18 16L18 15L19 15L19 17L25 17L25 18L23 18L23 19L22 19L22 20L18 20L18 19L17 19L17 18L18 18L18 17L17 17L17 18L16 18L16 19L17 19L17 20L18 20L18 21L17 21L17 22L16 22L16 21L15 21L15 18L14 18L14 17L16 17L16 15L15 15L15 14L16 14L16 13L17 13L17 12L18 12L18 11L16 11L16 12L15 12L15 10L16 10L16 9L17 9L17 10L18 10L18 9L17 9L17 8L16 8L16 9L15 9L15 7L16 7L16 6L15 6L15 7L14 7L14 6L13 6L13 8L14 8L14 9L13 9L13 10L14 10L14 11L12 11L12 10L11 10L11 11L12 11L12 12L11 12L11 13L12 13L12 14L11 14L11 15L12 15L12 14L13 14L13 16L14 16L14 17L13 17L13 18L14 18L14 19L12 19L12 18L11 18L11 17L12 17L12 16L9 16L9 17L10 17L10 18L9 18L9 19L8 19L8 18L7 18L7 17L6 17L6 16L5 16L5 17L6 17L6 18L4 18L4 19L5 19L5 20L7 20L7 19L8 19L8 20L9 20L9 21L10 21L10 20L14 20L14 21L13 21L13 22L14 22L14 21L15 21L15 22L16 22L16 23L13 23L13 24L14 24L14 25L13 25L13 28L12 28L12 26L10 26L10 23L12 23L12 22L10 22L10 23L8 23L8 25L9 25L9 27L10 27L10 28L9 28L9 30L11 30L11 29L13 29L13 28L14 28L14 29L15 29L15 30L16 30L16 29L17 29L17 28L16 28L16 29L15 29L15 26L16 26L16 25L17 25L17 24L16 24L16 23L17 23L17 22L19 22L19 23L20 23L20 22L19 22L19 21L21 21L21 22L23 22L23 23L25 23L25 24L26 24L26 23L27 23L27 22L26 22L26 23L25 23L25 22L23 22L23 20L25 20L25 21L28 21L28 20L30 20L30 19L31 19L31 18L30 18L30 17L31 17L31 16L30 16L30 14L29 14L29 13L31 13L31 12L29 12L29 13L28 13L28 14L29 14L29 15L27 15L27 14L26 14L26 15L27 15L27 16L25 16L25 15L24 15L24 14L25 14L25 13L24 13L24 11L25 11L25 9L24 9L24 8L23 8L23 9L22 9L22 8L20 8L20 6L21 6L21 7L22 7L22 6L23 6L23 7L24 7L24 5L23 5L23 4L22 4L22 3ZM21 4L21 6L22 6L22 4ZM11 5L11 7L12 7L12 5ZM9 6L9 7L10 7L10 6ZM0 8L0 13L2 13L2 12L1 12L1 11L3 11L3 10L4 10L4 11L5 11L5 10L4 10L4 9L5 9L5 8ZM29 8L29 9L30 9L30 8ZM1 9L1 10L3 10L3 9ZM14 9L14 10L15 10L15 9ZM23 9L23 10L24 10L24 9ZM26 10L26 11L27 11L27 10ZM13 12L13 13L14 13L14 14L15 14L15 13L14 13L14 12ZM21 13L21 14L20 14L20 16L22 16L22 15L23 15L23 14L24 14L24 13L23 13L23 14L22 14L22 13ZM0 14L0 16L2 16L2 15L1 15L1 14ZM28 16L28 17L26 17L26 18L25 18L25 20L26 20L26 19L27 19L27 20L28 20L28 19L29 19L29 18L28 18L28 17L29 17L29 16ZM6 18L6 19L7 19L7 18ZM19 18L19 19L21 19L21 18ZM5 21L5 23L6 23L6 24L7 24L7 23L6 23L6 22L7 22L7 21ZM32 21L32 22L33 22L33 21ZM11 24L11 25L12 25L12 24ZM21 24L21 25L20 25L20 26L22 26L22 28L21 28L21 29L24 29L24 28L23 28L23 26L24 26L24 24ZM14 25L14 26L15 26L15 25ZM22 25L22 26L23 26L23 25ZM25 25L25 28L28 28L28 25ZM26 26L26 27L27 27L27 26ZM25 29L25 30L28 30L28 31L24 31L24 32L30 32L30 31L29 31L29 30L28 30L28 29ZM13 32L13 33L14 33L14 32ZM0 0L0 7L7 7L7 0ZM1 1L1 6L6 6L6 1ZM2 2L2 5L5 5L5 2ZM26 0L26 7L33 7L33 0ZM27 1L27 6L32 6L32 1ZM28 2L28 5L31 5L31 2ZM0 26L0 33L7 33L7 26ZM1 27L1 32L6 32L6 27ZM2 28L2 31L5 31L5 28Z" fill="#000000"/></g></g></svg>
