<?xml version="1.0" encoding="UTF-8"?>
<svg xmlns="http://www.w3.org/2000/svg" version="1.1" width="400" height="400" viewBox="0 0 400 400"><rect x="0" y="0" width="400" height="400" fill="#fefefe"/><g transform="scale(9.756)"><g transform="translate(4,4)"><path fill-rule="evenodd" d="M8 0L8 4L9 4L9 5L8 5L8 7L9 7L9 8L10 8L10 7L11 7L11 5L12 5L12 7L13 7L13 5L14 5L14 7L15 7L15 8L14 8L14 9L13 9L13 8L12 8L12 9L11 9L11 11L10 11L10 13L9 13L9 10L10 10L10 9L9 9L9 10L8 10L8 9L7 9L7 8L4 8L4 9L3 9L3 10L1 10L1 9L2 9L2 8L0 8L0 10L1 10L1 11L2 11L2 12L0 12L0 16L2 16L2 18L1 18L1 19L0 19L0 22L4 22L4 23L2 23L2 24L0 24L0 25L5 25L5 22L6 22L6 23L7 23L7 24L6 24L6 25L7 25L7 24L8 24L8 26L9 26L9 27L8 27L8 29L9 29L9 30L10 30L10 28L9 28L9 27L13 27L13 26L14 26L14 25L15 25L15 28L14 28L14 29L11 29L11 31L10 31L10 32L11 32L11 31L13 31L13 30L14 30L14 29L15 29L15 32L14 32L14 33L15 33L15 32L16 32L16 31L17 31L17 33L18 33L18 32L19 32L19 30L17 30L17 29L18 29L18 27L19 27L19 26L17 26L17 25L18 25L18 24L19 24L19 25L22 25L22 26L23 26L23 25L22 25L22 19L23 19L23 24L24 24L24 29L22 29L22 27L21 27L21 29L20 29L20 30L21 30L21 33L22 33L22 32L23 32L23 33L25 33L25 32L26 32L26 33L27 33L27 32L26 32L26 31L28 31L28 32L29 32L29 29L30 29L30 27L31 27L31 28L32 28L32 26L31 26L31 25L32 25L32 24L33 24L33 23L31 23L31 22L32 22L32 21L33 21L33 19L32 19L32 18L31 18L31 17L30 17L30 18L29 18L29 19L28 19L28 18L26 18L26 17L29 17L29 16L30 16L30 14L31 14L31 16L32 16L32 17L33 17L33 16L32 16L32 14L31 14L31 13L29 13L29 10L27 10L27 11L28 11L28 13L27 13L27 12L26 12L26 10L25 10L25 9L22 9L22 8L24 8L24 7L25 7L25 6L24 6L24 7L23 7L23 6L22 6L22 5L21 5L21 3L22 3L22 2L23 2L23 1L24 1L24 3L23 3L23 5L25 5L25 0L23 0L23 1L22 1L22 0L21 0L21 1L19 1L19 0L18 0L18 1L17 1L17 2L16 2L16 3L15 3L15 4L14 4L14 3L12 3L12 4L9 4L9 3L11 3L11 2L9 2L9 0ZM10 0L10 1L12 1L12 2L13 2L13 0ZM15 0L15 1L14 1L14 2L15 2L15 1L16 1L16 0ZM21 1L21 2L22 2L22 1ZM18 2L18 3L17 3L17 4L16 4L16 5L15 5L15 7L16 7L16 8L15 8L15 9L14 9L14 11L13 11L13 10L12 10L12 11L11 11L11 13L10 13L10 14L9 14L9 13L8 13L8 12L7 12L7 11L6 11L6 12L5 12L5 10L7 10L7 9L5 9L5 10L4 10L4 11L3 11L3 12L2 12L2 13L3 13L3 12L5 12L5 13L4 13L4 14L1 14L1 15L2 15L2 16L3 16L3 18L2 18L2 19L1 19L1 20L2 20L2 21L3 21L3 20L2 20L2 19L3 19L3 18L4 18L4 19L5 19L5 21L6 21L6 22L7 22L7 23L8 23L8 22L7 22L7 21L9 21L9 19L11 19L11 18L9 18L9 19L8 19L8 18L7 18L7 17L5 17L5 18L4 18L4 16L5 16L5 15L6 15L6 16L7 16L7 15L6 15L6 14L9 14L9 16L8 16L8 17L9 17L9 16L11 16L11 17L12 17L12 16L13 16L13 17L14 17L14 19L13 19L13 18L12 18L12 19L13 19L13 21L14 21L14 22L12 22L12 23L11 23L11 22L10 22L10 23L9 23L9 25L10 25L10 23L11 23L11 25L12 25L12 24L13 24L13 25L14 25L14 22L15 22L15 21L16 21L16 20L17 20L17 19L18 19L18 21L17 21L17 23L15 23L15 24L16 24L16 25L17 25L17 23L19 23L19 24L20 24L20 23L21 23L21 22L20 22L20 21L21 21L21 20L20 20L20 21L19 21L19 19L20 19L20 17L21 17L21 19L22 19L22 17L25 17L25 16L26 16L26 15L27 15L27 16L28 16L28 14L29 14L29 13L28 13L28 14L27 14L27 13L26 13L26 12L25 12L25 11L24 11L24 12L23 12L23 13L19 13L19 15L18 15L18 16L20 16L20 17L19 17L19 18L18 18L18 17L17 17L17 19L16 19L16 20L15 20L15 18L16 18L16 17L14 17L14 16L17 16L17 14L16 14L16 15L15 15L15 13L14 13L14 12L15 12L15 9L17 9L17 10L16 10L16 11L18 11L18 12L19 12L19 11L21 11L21 10L22 10L22 9L21 9L21 7L22 7L22 6L21 6L21 7L20 7L20 6L19 6L19 5L20 5L20 2ZM18 3L18 5L19 5L19 3ZM9 5L9 7L10 7L10 5ZM16 6L16 7L17 7L17 9L18 9L18 10L19 10L19 9L20 9L20 10L21 10L21 9L20 9L20 8L18 8L18 7L19 7L19 6L18 6L18 7L17 7L17 6ZM27 8L27 9L28 9L28 8ZM29 8L29 9L31 9L31 12L32 12L32 13L33 13L33 12L32 12L32 9L33 9L33 8ZM12 11L12 12L13 12L13 11ZM6 12L6 13L7 13L7 12ZM16 12L16 13L17 13L17 12ZM11 13L11 14L10 14L10 15L12 15L12 13ZM13 13L13 14L14 14L14 13ZM23 13L23 14L22 14L22 15L21 15L21 14L20 14L20 15L21 15L21 17L22 17L22 16L25 16L25 15L24 15L24 14L26 14L26 13ZM4 14L4 15L3 15L3 16L4 16L4 15L5 15L5 14ZM5 18L5 19L7 19L7 18ZM26 19L26 20L25 20L25 21L26 21L26 24L27 24L27 23L29 23L29 22L31 22L31 20L32 20L32 19L30 19L30 21L26 21L26 20L28 20L28 19ZM6 20L6 21L7 21L7 20ZM14 20L14 21L15 21L15 20ZM30 23L30 24L29 24L29 26L30 26L30 25L31 25L31 23ZM25 25L25 28L28 28L28 25ZM16 26L16 28L15 28L15 29L17 29L17 26ZM26 26L26 27L27 27L27 26ZM21 29L21 30L22 30L22 29ZM25 29L25 30L23 30L23 31L26 31L26 29ZM31 29L31 31L32 31L32 30L33 30L33 29ZM8 31L8 33L9 33L9 31ZM32 32L32 33L33 33L33 32ZM0 0L0 7L7 7L7 0ZM1 1L1 6L6 6L6 1ZM2 2L2 5L5 5L5 2ZM26 0L26 7L33 7L33 0ZM27 1L27 6L32 6L32 1ZM28 2L28 5L31 5L31 2ZM0 26L0 33L7 33L7 26ZM1 27L1 32L6 32L6 27ZM2 28L2 31L5 31L5 28Z" fill="#000000"/></g></g></svg>
