<?xml version="1.0" encoding="UTF-8"?>
<svg xmlns="http://www.w3.org/2000/svg" version="1.1" width="400" height="400" viewBox="0 0 400 400"><rect x="0" y="0" width="400" height="400" fill="#fefefe"/><g transform="scale(9.756)"><g transform="translate(4,4)"><path fill-rule="evenodd" d="M11 0L11 1L8 1L8 3L9 3L9 2L10 2L10 4L8 4L8 8L6 8L6 9L8 9L8 10L9 10L9 11L11 11L11 12L13 12L13 13L12 13L12 14L11 14L11 13L10 13L10 14L8 14L8 15L7 15L7 14L6 14L6 13L7 13L7 12L6 12L6 11L7 11L7 10L6 10L6 11L5 11L5 9L4 9L4 8L3 8L3 9L2 9L2 8L0 8L0 9L1 9L1 10L0 10L0 11L1 11L1 12L0 12L0 13L1 13L1 14L2 14L2 13L3 13L3 12L2 12L2 11L3 11L3 10L4 10L4 11L5 11L5 12L4 12L4 13L5 13L5 14L4 14L4 15L3 15L3 16L2 16L2 15L0 15L0 16L1 16L1 17L3 17L3 18L4 18L4 19L5 19L5 21L4 21L4 22L2 22L2 21L1 21L1 22L0 22L0 23L1 23L1 24L0 24L0 25L1 25L1 24L2 24L2 25L3 25L3 24L4 24L4 25L7 25L7 24L8 24L8 23L10 23L10 24L12 24L12 25L14 25L14 26L15 26L15 25L17 25L17 27L15 27L15 28L14 28L14 27L12 27L12 26L10 26L10 25L8 25L8 27L9 27L9 29L8 29L8 30L10 30L10 32L12 32L12 31L13 31L13 30L14 30L14 32L13 32L13 33L14 33L14 32L16 32L16 33L17 33L17 32L20 32L20 33L27 33L27 32L28 32L28 33L30 33L30 32L28 32L28 31L33 31L33 29L30 29L30 25L29 25L29 24L26 24L26 23L27 23L27 22L28 22L28 20L30 20L30 19L28 19L28 17L29 17L29 16L30 16L30 15L32 15L32 14L33 14L33 9L32 9L32 8L30 8L30 9L29 9L29 8L26 8L26 10L25 10L25 8L24 8L24 7L25 7L25 3L24 3L24 1L25 1L25 0L21 0L21 1L20 1L20 0L18 0L18 1L17 1L17 0L15 0L15 4L13 4L13 2L14 2L14 0ZM12 1L12 2L11 2L11 4L12 4L12 2L13 2L13 1ZM18 1L18 3L16 3L16 6L15 6L15 7L14 7L14 5L11 5L11 7L10 7L10 6L9 6L9 7L10 7L10 8L8 8L8 9L9 9L9 10L11 10L11 11L12 11L12 10L13 10L13 11L14 11L14 10L13 10L13 9L10 9L10 8L14 8L14 9L15 9L15 11L16 11L16 12L19 12L19 11L16 11L16 8L17 8L17 9L18 9L18 10L21 10L21 11L22 11L22 10L23 10L23 11L24 11L24 12L22 12L22 13L23 13L23 14L24 14L24 12L25 12L25 10L24 10L24 9L23 9L23 8L22 8L22 10L21 10L21 9L20 9L20 8L21 8L21 7L22 7L22 6L23 6L23 7L24 7L24 5L23 5L23 4L22 4L22 3L23 3L23 1L22 1L22 2L20 2L20 1ZM19 2L19 3L18 3L18 7L17 7L17 6L16 6L16 7L15 7L15 8L16 8L16 7L17 7L17 8L18 8L18 9L19 9L19 8L18 8L18 7L19 7L19 6L20 6L20 7L21 7L21 6L20 6L20 5L21 5L21 3L20 3L20 2ZM19 4L19 5L20 5L20 4ZM12 6L12 7L13 7L13 6ZM28 9L28 12L27 12L27 14L26 14L26 13L25 13L25 16L23 16L23 15L22 15L22 17L24 17L24 18L21 18L21 19L22 19L22 20L23 20L23 21L20 21L20 20L19 20L19 19L20 19L20 17L21 17L21 12L20 12L20 14L19 14L19 13L15 13L15 14L14 14L14 13L13 13L13 15L11 15L11 16L10 16L10 15L8 15L8 16L7 16L7 15L5 15L5 16L3 16L3 17L4 17L4 18L5 18L5 19L6 19L6 20L7 20L7 21L5 21L5 22L4 22L4 23L5 23L5 24L7 24L7 23L5 23L5 22L7 22L7 21L9 21L9 20L10 20L10 21L11 21L11 22L10 22L10 23L12 23L12 24L13 24L13 23L12 23L12 22L13 22L13 21L12 21L12 20L10 20L10 19L12 19L12 18L13 18L13 17L14 17L14 18L15 18L15 19L13 19L13 20L14 20L14 21L15 21L15 22L14 22L14 24L16 24L16 23L17 23L17 24L18 24L18 25L19 25L19 24L18 24L18 23L17 23L17 22L16 22L16 21L19 21L19 22L20 22L20 23L22 23L22 22L23 22L23 23L24 23L24 22L26 22L26 21L27 21L27 20L28 20L28 19L27 19L27 17L26 17L26 20L25 20L25 21L24 21L24 20L23 20L23 19L25 19L25 16L26 16L26 15L28 15L28 16L29 16L29 14L31 14L31 12L32 12L32 10L31 10L31 11L30 11L30 12L29 12L29 9ZM1 10L1 11L2 11L2 10ZM28 13L28 14L29 14L29 13ZM17 14L17 15L16 15L16 16L14 16L14 15L13 15L13 16L12 16L12 17L11 17L11 18L12 18L12 17L13 17L13 16L14 16L14 17L15 17L15 18L16 18L16 19L15 19L15 20L16 20L16 19L17 19L17 20L18 20L18 19L19 19L19 18L17 18L17 17L20 17L20 16L18 16L18 14ZM5 16L5 17L7 17L7 18L6 18L6 19L7 19L7 20L9 20L9 19L7 19L7 18L10 18L10 17L9 17L9 16L8 16L8 17L7 17L7 16ZM32 16L32 17L33 17L33 16ZM1 18L1 19L0 19L0 20L2 20L2 18ZM31 18L31 19L32 19L32 20L33 20L33 18ZM29 21L29 22L31 22L31 23L33 23L33 21ZM20 24L20 26L18 26L18 29L17 29L17 28L15 28L15 29L14 29L14 28L10 28L10 30L11 30L11 31L12 31L12 30L13 30L13 29L14 29L14 30L15 30L15 31L16 31L16 32L17 32L17 31L22 31L22 32L24 32L24 30L23 30L23 29L24 29L24 26L23 26L23 25L24 25L24 24L23 24L23 25L22 25L22 26L21 26L21 24ZM25 25L25 28L28 28L28 25ZM31 25L31 27L32 27L32 26L33 26L33 25ZM20 26L20 28L19 28L19 29L18 29L18 30L19 30L19 29L20 29L20 30L22 30L22 31L23 31L23 30L22 30L22 29L23 29L23 26L22 26L22 27L21 27L21 26ZM26 26L26 27L27 27L27 26ZM20 28L20 29L21 29L21 28ZM11 29L11 30L12 30L12 29ZM16 29L16 31L17 31L17 29ZM27 29L27 30L26 30L26 31L25 31L25 32L27 32L27 31L28 31L28 29ZM29 29L29 30L30 30L30 29ZM8 31L8 33L9 33L9 31ZM31 32L31 33L32 33L32 32ZM0 0L0 7L7 7L7 0ZM1 1L1 6L6 6L6 1ZM2 2L2 5L5 5L5 2ZM26 0L26 7L33 7L33 0ZM27 1L27 6L32 6L32 1ZM28 2L28 5L31 5L31 2ZM0 26L0 33L7 33L7 26ZM1 27L1 32L6 32L6 27ZM2 28L2 31L5 31L5 28Z" fill="#000000"/></g></g></svg>
