<?xml version="1.0" encoding="UTF-8"?>
<svg xmlns="http://www.w3.org/2000/svg" version="1.1" width="400" height="400" viewBox="0 0 400 400"><rect x="0" y="0" width="400" height="400" fill="#fefefe"/><g transform="scale(9.756)"><g transform="translate(4,4)"><path fill-rule="evenodd" d="M9 0L9 1L8 1L8 2L9 2L9 3L8 3L8 4L9 4L9 3L10 3L10 5L8 5L8 7L9 7L9 8L6 8L6 9L10 9L10 8L12 8L12 9L11 9L11 10L10 10L10 11L11 11L11 12L8 12L8 11L9 11L9 10L8 10L8 11L7 11L7 10L4 10L4 11L5 11L5 13L8 13L8 14L9 14L9 16L8 16L8 15L7 15L7 14L5 14L5 16L6 16L6 17L4 17L4 16L1 16L1 15L0 15L0 20L1 20L1 21L0 21L0 25L1 25L1 21L3 21L3 22L2 22L2 25L3 25L3 22L4 22L4 21L5 21L5 22L6 22L6 23L5 23L5 24L4 24L4 25L5 25L5 24L6 24L6 25L7 25L7 24L9 24L9 23L10 23L10 25L8 25L8 27L10 27L10 26L12 26L12 28L8 28L8 33L12 33L12 32L13 32L13 33L14 33L14 32L13 32L13 31L12 31L12 32L9 32L9 31L10 31L10 30L9 30L9 29L11 29L11 30L13 30L13 29L14 29L14 30L15 30L15 33L16 33L16 32L17 32L17 33L18 33L18 32L17 32L17 31L16 31L16 30L17 30L17 29L18 29L18 28L19 28L19 27L18 27L18 28L17 28L17 25L18 25L18 24L17 24L17 23L19 23L19 22L20 22L20 21L21 21L21 20L22 20L22 19L23 19L23 18L25 18L25 20L23 20L23 22L21 22L21 23L20 23L20 25L19 25L19 26L20 26L20 27L21 27L21 28L22 28L22 29L19 29L19 30L20 30L20 31L19 31L19 32L20 32L20 33L21 33L21 32L22 32L22 31L26 31L26 32L27 32L27 33L28 33L28 32L31 32L31 33L32 33L32 32L31 32L31 31L32 31L32 30L29 30L29 29L30 29L30 28L31 28L31 29L33 29L33 28L32 28L32 26L33 26L33 23L30 23L30 24L32 24L32 25L30 25L30 26L31 26L31 27L30 27L30 28L29 28L29 24L28 24L28 23L27 23L27 24L26 24L26 22L27 22L27 21L30 21L30 20L31 20L31 19L32 19L32 20L33 20L33 19L32 19L32 18L33 18L33 17L32 17L32 14L33 14L33 13L32 13L32 10L33 10L33 9L32 9L32 8L31 8L31 9L32 9L32 10L28 10L28 8L27 8L27 9L26 9L26 8L25 8L25 5L24 5L24 4L25 4L25 3L24 3L24 2L25 2L25 0L23 0L23 1L20 1L20 0L19 0L19 1L18 1L18 2L19 2L19 3L17 3L17 4L19 4L19 5L18 5L18 8L17 8L17 6L16 6L16 5L15 5L15 6L14 6L14 5L13 5L13 4L14 4L14 3L13 3L13 2L14 2L14 1L15 1L15 2L16 2L16 1L15 1L15 0ZM10 1L10 3L11 3L11 2L12 2L12 1ZM19 1L19 2L20 2L20 3L19 3L19 4L22 4L22 6L21 6L21 5L19 5L19 8L21 8L21 9L20 9L20 10L19 10L19 11L20 11L20 12L19 12L19 13L20 13L20 14L17 14L17 16L18 16L18 15L21 15L21 13L24 13L24 14L23 14L23 17L22 17L22 16L21 16L21 17L20 17L20 16L19 16L19 17L20 17L20 18L19 18L19 19L20 19L20 18L21 18L21 17L22 17L22 18L23 18L23 17L25 17L25 18L26 18L26 17L28 17L28 18L27 18L27 19L26 19L26 21L25 21L25 22L26 22L26 21L27 21L27 20L30 20L30 19L31 19L31 18L30 18L30 17L31 17L31 16L30 16L30 14L29 14L29 13L31 13L31 12L29 12L29 11L28 11L28 10L27 10L27 11L26 11L26 10L23 10L23 9L22 9L22 8L21 8L21 7L22 7L22 6L23 6L23 8L24 8L24 9L25 9L25 8L24 8L24 5L23 5L23 4L24 4L24 3L23 3L23 4L22 4L22 3L21 3L21 2L20 2L20 1ZM23 1L23 2L24 2L24 1ZM12 3L12 4L13 4L13 3ZM15 3L15 4L16 4L16 3ZM11 5L11 7L12 7L12 5ZM9 6L9 7L10 7L10 6ZM13 6L13 8L14 8L14 9L13 9L13 10L14 10L14 11L12 11L12 10L11 10L11 11L12 11L12 12L11 12L11 13L9 13L9 14L10 14L10 15L12 15L12 14L13 14L13 16L14 16L14 17L13 17L13 18L14 18L14 19L12 19L12 18L11 18L11 17L12 17L12 16L11 16L11 17L10 17L10 16L9 16L9 17L8 17L8 16L7 16L7 15L6 15L6 16L7 16L7 17L6 17L6 18L7 18L7 19L4 19L4 20L5 20L5 21L6 21L6 22L9 22L9 17L10 17L10 20L14 20L14 21L13 21L13 22L14 22L14 21L15 21L15 22L16 22L16 23L13 23L13 24L14 24L14 25L13 25L13 28L12 28L12 29L13 29L13 28L14 28L14 29L15 29L15 30L16 30L16 29L17 29L17 28L16 28L16 29L15 29L15 26L16 26L16 25L17 25L17 24L16 24L16 23L17 23L17 22L19 22L19 21L20 21L20 20L18 20L18 19L17 19L17 18L18 18L18 17L17 17L17 18L16 18L16 19L17 19L17 20L18 20L18 21L17 21L17 22L16 22L16 21L15 21L15 18L14 18L14 17L16 17L16 15L15 15L15 14L16 14L16 13L17 13L17 12L18 12L18 11L16 11L16 12L15 12L15 10L16 10L16 9L17 9L17 10L18 10L18 9L17 9L17 8L16 8L16 9L15 9L15 7L16 7L16 6L15 6L15 7L14 7L14 6ZM20 6L20 7L21 7L21 6ZM0 8L0 10L1 10L1 9L5 9L5 8ZM29 8L29 9L30 9L30 8ZM14 9L14 10L15 10L15 9ZM21 9L21 10L20 10L20 11L21 11L21 12L20 12L20 13L21 13L21 12L23 12L23 11L21 11L21 10L22 10L22 9ZM2 10L2 11L0 11L0 14L1 14L1 12L2 12L2 15L3 15L3 12L2 12L2 11L3 11L3 10ZM6 11L6 12L7 12L7 11ZM25 11L25 12L24 12L24 13L25 13L25 14L24 14L24 15L25 15L25 16L26 16L26 15L25 15L25 14L28 14L28 13L29 13L29 12L28 12L28 13L25 13L25 12L26 12L26 11ZM13 12L13 13L14 13L14 14L15 14L15 13L14 13L14 12ZM11 13L11 14L12 14L12 13ZM27 15L27 16L28 16L28 17L29 17L29 16L28 16L28 15ZM1 17L1 18L2 18L2 19L3 19L3 17ZM6 20L6 21L8 21L8 20ZM32 21L32 22L33 22L33 21ZM10 22L10 23L12 23L12 22ZM23 22L23 24L24 24L24 22ZM6 23L6 24L7 24L7 23ZM11 24L11 25L12 25L12 24ZM21 24L21 25L20 25L20 26L21 26L21 25L22 25L22 26L23 26L23 25L22 25L22 24ZM14 25L14 26L15 26L15 25ZM25 25L25 28L28 28L28 25ZM26 26L26 27L27 27L27 26ZM22 27L22 28L23 28L23 29L22 29L22 30L21 30L21 31L22 31L22 30L27 30L27 31L29 31L29 30L27 30L27 29L24 29L24 27ZM23 32L23 33L25 33L25 32ZM0 0L0 7L7 7L7 0ZM1 1L1 6L6 6L6 1ZM2 2L2 5L5 5L5 2ZM26 0L26 7L33 7L33 0ZM27 1L27 6L32 6L32 1ZM28 2L28 5L31 5L31 2ZM0 26L0 33L7 33L7 26ZM1 27L1 32L6 32L6 27ZM2 28L2 31L5 31L5 28Z" fill="#000000"/></g></g></svg>
