<?xml version="1.0" encoding="UTF-8"?>
<svg xmlns="http://www.w3.org/2000/svg" version="1.1" width="400" height="400" viewBox="0 0 400 400"><rect x="0" y="0" width="400" height="400" fill="#fefefe"/><g transform="scale(9.756)"><g transform="translate(4,4)"><path fill-rule="evenodd" d="M8 0L8 1L11 1L11 2L10 2L10 4L9 4L9 2L8 2L8 5L11 5L11 4L12 4L12 1L13 1L13 4L14 4L14 5L16 5L16 12L17 12L17 13L15 13L15 14L17 14L17 13L19 13L19 14L18 14L18 16L19 16L19 17L20 17L20 16L19 16L19 15L21 15L21 17L22 17L22 16L23 16L23 18L24 18L24 17L25 17L25 19L23 19L23 20L21 20L21 18L20 18L20 20L18 20L18 19L19 19L19 18L17 18L17 19L16 19L16 18L15 18L15 17L17 17L17 15L16 15L16 16L13 16L13 15L14 15L14 14L13 14L13 13L14 13L14 11L15 11L15 9L14 9L14 10L13 10L13 9L11 9L11 6L10 6L10 9L11 9L11 10L9 10L9 11L8 11L8 9L9 9L9 8L8 8L8 9L7 9L7 8L6 8L6 9L7 9L7 10L5 10L5 9L4 9L4 8L0 8L0 9L4 9L4 11L8 11L8 13L11 13L11 12L13 12L13 13L12 13L12 14L13 14L13 15L11 15L11 14L10 14L10 15L11 15L11 17L10 17L10 16L9 16L9 15L7 15L7 14L6 14L6 13L7 13L7 12L6 12L6 13L5 13L5 12L4 12L4 16L6 16L6 17L5 17L5 18L6 18L6 19L8 19L8 18L6 18L6 17L9 17L9 20L8 20L8 23L7 23L7 22L6 22L6 21L7 21L7 20L6 20L6 21L5 21L5 19L4 19L4 18L3 18L3 15L2 15L2 13L0 13L0 14L1 14L1 15L0 15L0 16L2 16L2 21L3 21L3 19L4 19L4 21L5 21L5 22L3 22L3 23L5 23L5 24L2 24L2 23L1 23L1 24L0 24L0 25L1 25L1 24L2 24L2 25L5 25L5 24L6 24L6 25L7 25L7 24L8 24L8 26L10 26L10 28L9 28L9 29L8 29L8 33L11 33L11 32L12 32L12 33L13 33L13 32L12 32L12 31L11 31L11 32L9 32L9 29L10 29L10 30L12 30L12 29L13 29L13 30L15 30L15 31L16 31L16 33L24 33L24 32L25 32L25 31L26 31L26 32L27 32L27 30L26 30L26 29L29 29L29 26L30 26L30 30L29 30L29 31L28 31L28 33L29 33L29 31L32 31L32 32L33 32L33 31L32 31L32 27L31 27L31 26L32 26L32 25L33 25L33 21L32 21L32 20L30 20L30 19L29 19L29 17L32 17L32 18L31 18L31 19L32 19L32 18L33 18L33 16L32 16L32 15L30 15L30 16L28 16L28 17L27 17L27 16L26 16L26 13L25 13L25 16L23 16L23 13L22 13L22 15L21 15L21 14L20 14L20 13L19 13L19 12L21 12L21 11L22 11L22 10L23 10L23 12L27 12L27 11L28 11L28 10L27 10L27 9L26 9L26 8L24 8L24 9L23 9L23 8L21 8L21 5L22 5L22 7L23 7L23 4L21 4L21 2L19 2L19 3L17 3L17 2L15 2L15 0ZM19 0L19 1L20 1L20 0ZM23 0L23 1L22 1L22 2L24 2L24 5L25 5L25 2L24 2L24 1L25 1L25 0ZM14 2L14 4L15 4L15 2ZM16 3L16 5L17 5L17 7L18 7L18 9L17 9L17 12L19 12L19 11L21 11L21 9L20 9L20 10L18 10L18 9L19 9L19 7L20 7L20 6L19 6L19 5L18 5L18 4L17 4L17 3ZM19 3L19 4L20 4L20 3ZM8 6L8 7L9 7L9 6ZM12 6L12 7L13 7L13 6ZM14 6L14 8L15 8L15 6ZM18 6L18 7L19 7L19 6ZM24 6L24 7L25 7L25 6ZM28 8L28 9L31 9L31 8ZM32 8L32 10L31 10L31 11L33 11L33 8ZM25 9L25 11L26 11L26 9ZM0 10L0 12L1 12L1 10ZM12 10L12 11L13 11L13 10ZM2 11L2 12L3 12L3 11ZM29 11L29 12L28 12L28 13L29 13L29 12L30 12L30 11ZM31 12L31 14L32 14L32 12ZM27 14L27 15L29 15L29 14ZM6 15L6 16L7 16L7 15ZM12 16L12 18L10 18L10 20L9 20L9 21L10 21L10 23L11 23L11 19L12 19L12 18L13 18L13 16ZM25 16L25 17L26 17L26 16ZM0 17L0 18L1 18L1 17ZM14 18L14 19L13 19L13 20L12 20L12 21L13 21L13 22L12 22L12 24L11 24L11 25L10 25L10 26L11 26L11 28L15 28L15 29L16 29L16 31L19 31L19 32L20 32L20 30L21 30L21 27L22 27L22 31L21 31L21 32L23 32L23 28L24 28L24 27L23 27L23 26L24 26L24 25L23 25L23 24L25 24L25 22L24 22L24 23L22 23L22 22L23 22L23 21L21 21L21 20L20 20L20 21L21 21L21 23L20 23L20 22L19 22L19 21L17 21L17 20L16 20L16 19L15 19L15 18ZM27 18L27 20L26 20L26 21L27 21L27 20L28 20L28 23L29 23L29 25L30 25L30 26L31 26L31 25L32 25L32 21L29 21L29 19L28 19L28 18ZM14 19L14 20L15 20L15 19ZM24 20L24 21L25 21L25 20ZM0 21L0 22L1 22L1 21ZM14 21L14 22L15 22L15 21ZM16 21L16 22L17 22L17 21ZM5 22L5 23L6 23L6 24L7 24L7 23L6 23L6 22ZM29 22L29 23L31 23L31 22ZM8 23L8 24L9 24L9 23ZM13 23L13 24L12 24L12 25L14 25L14 24L16 24L16 23ZM18 23L18 24L17 24L17 25L15 25L15 26L18 26L18 30L19 30L19 27L20 27L20 26L21 26L21 24L20 24L20 23ZM26 23L26 24L27 24L27 23ZM18 24L18 25L20 25L20 24ZM22 25L22 26L23 26L23 25ZM25 25L25 28L28 28L28 25ZM12 26L12 27L14 27L14 26ZM26 26L26 27L27 27L27 26ZM15 27L15 28L17 28L17 27ZM24 29L24 30L25 30L25 29ZM30 32L30 33L31 33L31 32ZM0 0L0 7L7 7L7 0ZM1 1L1 6L6 6L6 1ZM2 2L2 5L5 5L5 2ZM26 0L26 7L33 7L33 0ZM27 1L27 6L32 6L32 1ZM28 2L28 5L31 5L31 2ZM0 26L0 33L7 33L7 26ZM1 27L1 32L6 32L6 27ZM2 28L2 31L5 31L5 28Z" fill="#000000"/></g></g></svg>
