<?xml version="1.0" encoding="UTF-8"?>
<svg xmlns="http://www.w3.org/2000/svg" version="1.1" width="400" height="400" viewBox="0 0 400 400"><rect x="0" y="0" width="400" height="400" fill="#fefefe"/><g transform="scale(9.756)"><g transform="translate(4,4)"><path fill-rule="evenodd" d="M8 0L8 1L10 1L10 0ZM12 0L12 2L9 2L9 4L10 4L10 5L11 5L11 6L10 6L10 8L9 8L9 6L8 6L8 8L9 8L9 10L10 10L10 11L8 11L8 10L6 10L6 9L7 9L7 8L6 8L6 9L5 9L5 8L3 8L3 10L2 10L2 11L3 11L3 10L4 10L4 9L5 9L5 12L4 12L4 13L3 13L3 12L1 12L1 16L2 16L2 17L0 17L0 19L4 19L4 20L1 20L1 21L0 21L0 25L2 25L2 24L3 24L3 25L4 25L4 24L3 24L3 23L5 23L5 25L8 25L8 26L9 26L9 28L8 28L8 30L9 30L9 31L8 31L8 33L9 33L9 31L10 31L10 30L11 30L11 31L12 31L12 32L11 32L11 33L12 33L12 32L15 32L15 33L18 33L18 32L17 32L17 31L18 31L18 29L17 29L17 30L16 30L16 28L15 28L15 27L16 27L16 26L17 26L17 24L18 24L18 23L19 23L19 25L20 25L20 26L19 26L19 27L18 27L18 28L19 28L19 27L20 27L20 28L21 28L21 27L23 27L23 30L22 30L22 31L23 31L23 32L22 32L22 33L23 33L23 32L24 32L24 33L26 33L26 31L25 31L25 32L24 32L24 30L25 30L25 29L29 29L29 30L28 30L28 31L27 31L27 33L29 33L29 32L33 32L33 30L32 30L32 31L31 31L31 30L30 30L30 29L29 29L29 25L30 25L30 26L31 26L31 25L32 25L32 24L33 24L33 22L32 22L32 23L30 23L30 22L29 22L29 21L30 21L30 20L31 20L31 21L32 21L32 19L33 19L33 15L31 15L31 13L30 13L30 12L32 12L32 13L33 13L33 12L32 12L32 11L33 11L33 10L30 10L30 12L29 12L29 11L27 11L27 10L29 10L29 9L27 9L27 8L26 8L26 9L27 9L27 10L26 10L26 13L24 13L24 10L25 10L25 9L23 9L23 8L24 8L24 7L25 7L25 4L24 4L24 5L23 5L23 3L25 3L25 2L23 2L23 0L22 0L22 2L20 2L20 1L19 1L19 0L16 0L16 1L19 1L19 2L18 2L18 3L17 3L17 2L16 2L16 4L17 4L17 5L16 5L16 8L15 8L15 6L14 6L14 5L15 5L15 3L14 3L14 2L15 2L15 1L14 1L14 2L13 2L13 0ZM24 0L24 1L25 1L25 0ZM22 2L22 3L23 3L23 2ZM10 3L10 4L11 4L11 5L12 5L12 4L13 4L13 5L14 5L14 4L13 4L13 3L12 3L12 4L11 4L11 3ZM19 3L19 4L18 4L18 5L17 5L17 8L18 8L18 6L19 6L19 7L20 7L20 6L21 6L21 10L19 10L19 12L20 12L20 11L21 11L21 13L19 13L19 14L16 14L16 16L15 16L15 18L17 18L17 20L16 20L16 19L15 19L15 20L13 20L13 19L14 19L14 17L13 17L13 19L11 19L11 20L10 20L10 22L9 22L9 23L8 23L8 22L7 22L7 21L6 21L6 20L7 20L7 19L6 19L6 20L5 20L5 21L6 21L6 22L7 22L7 23L6 23L6 24L7 24L7 23L8 23L8 24L9 24L9 26L10 26L10 29L11 29L11 30L12 30L12 29L13 29L13 30L14 30L14 29L13 29L13 28L14 28L14 27L15 27L15 25L16 25L16 24L17 24L17 23L18 23L18 22L19 22L19 23L21 23L21 24L20 24L20 25L21 25L21 26L22 26L22 24L26 24L26 23L21 23L21 22L19 22L19 21L20 21L20 20L18 20L18 18L17 18L17 17L18 17L18 15L19 15L19 16L20 16L20 19L21 19L21 21L22 21L22 20L25 20L25 22L27 22L27 24L28 24L28 22L27 22L27 20L26 20L26 19L27 19L27 18L28 18L28 21L29 21L29 20L30 20L30 19L32 19L32 18L30 18L30 19L29 19L29 18L28 18L28 14L29 14L29 16L30 16L30 17L31 17L31 16L30 16L30 14L29 14L29 12L27 12L27 13L26 13L26 14L25 14L25 15L24 15L24 14L23 14L23 16L22 16L22 12L23 12L23 11L21 11L21 10L23 10L23 9L22 9L22 4L20 4L20 3ZM19 4L19 5L20 5L20 4ZM11 6L11 7L12 7L12 6ZM13 6L13 7L14 7L14 6ZM23 6L23 7L24 7L24 6ZM0 8L0 9L2 9L2 8ZM11 8L11 9L12 9L12 8ZM13 8L13 10L15 10L15 8ZM19 8L19 9L20 9L20 8ZM32 8L32 9L33 9L33 8ZM16 9L16 10L17 10L17 11L18 11L18 9ZM6 11L6 12L8 12L8 11ZM11 11L11 12L10 12L10 13L8 13L8 14L10 14L10 17L9 17L9 16L8 16L8 18L12 18L12 17L11 17L11 15L12 15L12 14L13 14L13 13L14 13L14 15L13 15L13 16L14 16L14 15L15 15L15 13L16 13L16 11ZM11 12L11 14L12 14L12 12ZM14 12L14 13L15 13L15 12ZM17 12L17 13L18 13L18 12ZM2 13L2 14L3 14L3 13ZM5 13L5 14L4 14L4 15L3 15L3 16L4 16L4 17L3 17L3 18L4 18L4 17L5 17L5 18L7 18L7 17L6 17L6 16L7 16L7 15L6 15L6 14L7 14L7 13ZM19 14L19 15L20 15L20 16L21 16L21 14ZM4 15L4 16L6 16L6 15ZM26 15L26 18L27 18L27 15ZM16 16L16 17L17 17L17 16ZM23 16L23 17L24 17L24 18L22 18L22 19L24 19L24 18L25 18L25 17L24 17L24 16ZM8 19L8 20L9 20L9 19ZM11 20L11 23L9 23L9 24L11 24L11 25L10 25L10 26L13 26L13 27L14 27L14 25L15 25L15 24L16 24L16 20L15 20L15 24L14 24L14 25L13 25L13 23L14 23L14 22L13 22L13 20ZM17 20L17 21L18 21L18 20ZM1 21L1 24L2 24L2 23L3 23L3 21ZM11 23L11 24L12 24L12 23ZM30 24L30 25L31 25L31 24ZM23 25L23 26L24 26L24 25ZM25 25L25 28L28 28L28 25ZM26 26L26 27L27 27L27 26ZM11 27L11 29L12 29L12 27ZM30 27L30 28L31 28L31 29L32 29L32 28L33 28L33 27ZM19 29L19 31L21 31L21 30L20 30L20 29ZM29 30L29 31L30 31L30 30ZM15 31L15 32L16 32L16 31ZM19 32L19 33L21 33L21 32ZM0 0L0 7L7 7L7 0ZM1 1L1 6L6 6L6 1ZM2 2L2 5L5 5L5 2ZM26 0L26 7L33 7L33 0ZM27 1L27 6L32 6L32 1ZM28 2L28 5L31 5L31 2ZM0 26L0 33L7 33L7 26ZM1 27L1 32L6 32L6 27ZM2 28L2 31L5 31L5 28Z" fill="#000000"/></g></g></svg>
