<?xml version="1.0" encoding="UTF-8"?>
<svg xmlns="http://www.w3.org/2000/svg" version="1.1" width="400" height="400" viewBox="0 0 400 400"><rect x="0" y="0" width="400" height="400" fill="#fefefe"/><g transform="scale(9.756)"><g transform="translate(4,4)"><path fill-rule="evenodd" d="M8 0L8 4L10 4L10 3L11 3L11 4L12 4L12 2L11 2L11 0ZM12 0L12 1L13 1L13 0ZM15 0L15 1L14 1L14 2L15 2L15 1L16 1L16 0ZM18 0L18 1L19 1L19 2L20 2L20 3L22 3L22 2L23 2L23 5L24 5L24 7L25 7L25 3L24 3L24 2L23 2L23 1L25 1L25 0L23 0L23 1L22 1L22 0L21 0L21 1L19 1L19 0ZM21 1L21 2L22 2L22 1ZM9 2L9 3L10 3L10 2ZM16 2L16 3L15 3L15 4L14 4L14 3L13 3L13 5L11 5L11 6L10 6L10 7L9 7L9 5L8 5L8 7L9 7L9 8L10 8L10 7L11 7L11 6L12 6L12 8L11 8L11 9L9 9L9 10L11 10L11 11L10 11L10 13L9 13L9 14L8 14L8 12L9 12L9 11L8 11L8 9L7 9L7 8L4 8L4 10L3 10L3 9L2 9L2 8L0 8L0 9L1 9L1 10L3 10L3 11L4 11L4 10L5 10L5 12L3 12L3 13L1 13L1 11L0 11L0 13L1 13L1 14L0 14L0 15L3 15L3 16L2 16L2 17L1 17L1 18L2 18L2 19L1 19L1 20L2 20L2 21L0 21L0 22L2 22L2 23L3 23L3 25L4 25L4 24L6 24L6 25L7 25L7 24L8 24L8 26L9 26L9 27L8 27L8 29L9 29L9 30L11 30L11 31L12 31L12 30L14 30L14 29L15 29L15 31L14 31L14 33L15 33L15 32L16 32L16 31L17 31L17 33L18 33L18 32L19 32L19 33L20 33L20 32L21 32L21 33L22 33L22 32L23 32L23 33L27 33L27 32L25 32L25 31L27 31L27 29L28 29L28 31L29 31L29 29L30 29L30 27L31 27L31 28L32 28L32 29L31 29L31 31L32 31L32 30L33 30L33 27L32 27L32 26L31 26L31 25L32 25L32 24L33 24L33 23L31 23L31 22L32 22L32 21L33 21L33 19L32 19L32 18L31 18L31 17L30 17L30 18L29 18L29 19L28 19L28 18L26 18L26 17L29 17L29 16L30 16L30 14L31 14L31 16L32 16L32 17L33 17L33 16L32 16L32 14L31 14L31 13L29 13L29 10L27 10L27 11L28 11L28 12L26 12L26 11L25 11L25 9L22 9L22 7L23 7L23 6L22 6L22 7L21 7L21 6L20 6L20 5L18 5L18 4L17 4L17 3L18 3L18 2ZM16 4L16 5L15 5L15 7L14 7L14 5L13 5L13 8L12 8L12 9L11 9L11 10L12 10L12 9L14 9L14 11L12 11L12 12L11 12L11 13L10 13L10 14L11 14L11 16L7 16L7 15L8 15L8 14L7 14L7 13L5 13L5 16L4 16L4 17L2 17L2 18L5 18L5 19L6 19L6 20L7 20L7 19L9 19L9 20L8 20L8 24L9 24L9 26L10 26L10 27L9 27L9 29L14 29L14 28L15 28L15 29L17 29L17 30L19 30L19 32L20 32L20 29L21 29L21 31L22 31L22 30L23 30L23 29L24 29L24 28L23 28L23 29L21 29L21 28L20 28L20 29L19 29L19 27L20 27L20 26L21 26L21 27L22 27L22 26L23 26L23 27L24 27L24 26L23 26L23 25L24 25L24 24L25 24L25 23L24 23L24 24L23 24L23 18L22 18L22 17L25 17L25 16L22 16L22 17L19 17L19 18L18 18L18 17L17 17L17 19L16 19L16 20L15 20L15 18L16 18L16 17L14 17L14 16L17 16L17 14L16 14L16 15L15 15L15 13L14 13L14 12L15 12L15 9L17 9L17 10L16 10L16 11L18 11L18 12L20 12L20 13L19 13L19 15L18 15L18 16L21 16L21 15L22 15L22 14L23 14L23 13L24 13L24 15L25 15L25 13L26 13L26 16L27 16L27 14L29 14L29 13L26 13L26 12L25 12L25 11L22 11L22 12L23 12L23 13L21 13L21 12L20 12L20 11L21 11L21 10L20 10L20 9L21 9L21 8L20 8L20 6L19 6L19 7L18 7L18 5L17 5L17 4ZM16 6L16 7L15 7L15 8L14 8L14 9L15 9L15 8L16 8L16 7L17 7L17 9L18 9L18 10L19 10L19 9L20 9L20 8L18 8L18 7L17 7L17 6ZM27 8L27 9L28 9L28 8ZM29 8L29 9L31 9L31 12L32 12L32 13L33 13L33 12L32 12L32 9L33 9L33 8ZM5 9L5 10L7 10L7 9ZM6 11L6 12L7 12L7 11ZM12 12L12 13L13 13L13 14L14 14L14 13L13 13L13 12ZM16 12L16 13L17 13L17 12ZM24 12L24 13L25 13L25 12ZM20 13L20 15L21 15L21 13ZM3 14L3 15L4 15L4 14ZM6 14L6 15L7 15L7 14ZM12 15L12 16L11 16L11 17L9 17L9 19L10 19L10 21L9 21L9 22L10 22L10 24L11 24L11 23L12 23L12 20L13 20L13 19L14 19L14 17L13 17L13 15ZM6 16L6 17L5 17L5 18L6 18L6 19L7 19L7 18L6 18L6 17L7 17L7 16ZM11 17L11 18L10 18L10 19L11 19L11 18L12 18L12 17ZM20 18L20 19L21 19L21 20L19 20L19 21L21 21L21 23L20 23L20 24L19 24L19 23L17 23L17 21L18 21L18 19L17 19L17 20L16 20L16 21L15 21L15 20L14 20L14 21L13 21L13 22L14 22L14 25L13 25L13 24L12 24L12 25L10 25L10 26L11 26L11 27L10 27L10 28L12 28L12 26L14 26L14 25L15 25L15 28L16 28L16 26L17 26L17 29L18 29L18 27L19 27L19 26L17 26L17 25L18 25L18 24L19 24L19 25L23 25L23 24L22 24L22 19L21 19L21 18ZM3 19L3 20L4 20L4 21L5 21L5 22L3 22L3 21L2 21L2 22L3 22L3 23L5 23L5 22L7 22L7 21L5 21L5 20L4 20L4 19ZM26 19L26 20L25 20L25 21L26 21L26 24L27 24L27 23L29 23L29 22L31 22L31 20L32 20L32 19L30 19L30 21L28 21L28 19ZM26 20L26 21L27 21L27 22L28 22L28 21L27 21L27 20ZM14 21L14 22L15 22L15 21ZM6 23L6 24L7 24L7 23ZM15 23L15 24L16 24L16 25L17 25L17 23ZM30 23L30 24L29 24L29 26L30 26L30 25L31 25L31 23ZM0 24L0 25L2 25L2 24ZM25 25L25 28L28 28L28 25ZM26 26L26 27L27 27L27 26ZM24 30L24 31L25 31L25 30ZM8 31L8 33L9 33L9 32L10 32L10 33L11 33L11 32L10 32L10 31ZM32 32L32 33L33 33L33 32ZM0 0L0 7L7 7L7 0ZM1 1L1 6L6 6L6 1ZM2 2L2 5L5 5L5 2ZM26 0L26 7L33 7L33 0ZM27 1L27 6L32 6L32 1ZM28 2L28 5L31 5L31 2ZM0 26L0 33L7 33L7 26ZM1 27L1 32L6 32L6 27ZM2 28L2 31L5 31L5 28Z" fill="#000000"/></g></g></svg>
