<?xml version="1.0" encoding="UTF-8"?>
<svg xmlns="http://www.w3.org/2000/svg" version="1.1" width="400" height="400" viewBox="0 0 400 400"><rect x="0" y="0" width="400" height="400" fill="#fefefe"/><g transform="scale(9.756)"><g transform="translate(4,4)"><path fill-rule="evenodd" d="M9 0L9 1L8 1L8 3L9 3L9 4L8 4L8 8L6 8L6 9L7 9L7 10L6 10L6 11L5 11L5 9L4 9L4 8L3 8L3 11L4 11L4 14L3 14L3 13L1 13L1 16L0 16L0 17L2 17L2 18L1 18L1 19L0 19L0 21L1 21L1 20L2 20L2 22L0 22L0 23L1 23L1 24L0 24L0 25L1 25L1 24L2 24L2 25L4 25L4 23L5 23L5 25L7 25L7 24L6 24L6 23L10 23L10 25L11 25L11 24L12 24L12 25L14 25L14 26L15 26L15 25L17 25L17 27L15 27L15 28L14 28L14 27L12 27L12 26L9 26L9 24L8 24L8 27L9 27L9 28L10 28L10 29L8 29L8 30L9 30L9 31L8 31L8 33L10 33L10 32L9 32L9 31L10 31L10 30L12 30L12 29L11 29L11 28L10 28L10 27L12 27L12 28L14 28L14 29L13 29L13 30L14 30L14 31L15 31L15 32L16 32L16 33L17 33L17 32L19 32L19 31L17 31L17 29L18 29L18 30L19 30L19 29L20 29L20 30L23 30L23 31L24 31L24 32L23 32L23 33L25 33L25 32L26 32L26 33L27 33L27 32L26 32L26 31L25 31L25 30L24 30L24 29L26 29L26 30L27 30L27 31L33 31L33 27L32 27L32 26L33 26L33 25L31 25L31 27L32 27L32 29L30 29L30 25L29 25L29 24L26 24L26 23L27 23L27 22L28 22L28 23L29 23L29 22L31 22L31 23L33 23L33 21L29 21L29 22L28 22L28 20L30 20L30 19L28 19L28 17L29 17L29 16L30 16L30 15L32 15L32 14L33 14L33 9L32 9L32 8L30 8L30 9L29 9L29 8L26 8L26 9L25 9L25 8L24 8L24 7L25 7L25 2L24 2L24 1L25 1L25 0L19 0L19 1L21 1L21 2L20 2L20 3L19 3L19 2L18 2L18 1L17 1L17 0L15 0L15 4L13 4L13 5L14 5L14 7L15 7L15 8L16 8L16 11L15 11L15 9L14 9L14 8L13 8L13 6L12 6L12 5L11 5L11 6L10 6L10 5L9 5L9 4L12 4L12 3L13 3L13 2L14 2L14 0L12 0L12 1L11 1L11 2L9 2L9 1L10 1L10 0ZM22 1L22 2L21 2L21 3L20 3L20 4L19 4L19 3L16 3L16 6L15 6L15 7L16 7L16 8L17 8L17 9L18 9L18 10L21 10L21 9L18 9L18 8L21 8L21 7L22 7L22 6L23 6L23 7L24 7L24 5L22 5L22 6L21 6L21 7L20 7L20 6L19 6L19 5L21 5L21 4L23 4L23 1ZM17 5L17 6L16 6L16 7L17 7L17 8L18 8L18 7L19 7L19 6L18 6L18 5ZM9 6L9 7L10 7L10 8L8 8L8 10L7 10L7 11L6 11L6 12L7 12L7 11L8 11L8 13L6 13L6 14L5 14L5 15L4 15L4 16L5 16L5 17L6 17L6 18L5 18L5 19L6 19L6 20L7 20L7 21L6 21L6 22L7 22L7 21L8 21L8 22L10 22L10 23L12 23L12 24L13 24L13 23L12 23L12 21L13 21L13 20L14 20L14 21L15 21L15 22L14 22L14 24L16 24L16 23L17 23L17 24L18 24L18 25L20 25L20 26L18 26L18 29L19 29L19 28L20 28L20 29L21 29L21 28L20 28L20 26L21 26L21 27L22 27L22 26L23 26L23 27L24 27L24 24L25 24L25 23L26 23L26 22L25 22L25 21L24 21L24 20L23 20L23 21L21 21L21 20L20 20L20 19L25 19L25 16L23 16L23 14L25 14L25 15L26 15L26 16L29 16L29 15L27 15L27 14L28 14L28 13L29 13L29 14L31 14L31 12L32 12L32 10L31 10L31 11L30 11L30 12L29 12L29 11L28 11L28 12L27 12L27 14L25 14L25 13L26 13L26 12L25 12L25 11L26 11L26 10L24 10L24 9L23 9L23 8L22 8L22 13L23 13L23 14L21 14L21 15L22 15L22 16L23 16L23 17L22 17L22 18L20 18L20 17L21 17L21 16L20 16L20 17L17 17L17 18L19 18L19 19L18 19L18 20L17 20L17 19L16 19L16 18L15 18L15 17L14 17L14 16L16 16L16 15L17 15L17 14L18 14L18 16L19 16L19 15L20 15L20 14L19 14L19 13L20 13L20 12L21 12L21 11L16 11L16 12L19 12L19 13L15 13L15 14L14 14L14 13L13 13L13 15L14 15L14 16L13 16L13 17L10 17L10 16L12 16L12 14L11 14L11 15L10 15L10 13L12 13L12 12L13 12L13 11L14 11L14 10L13 10L13 8L12 8L12 6L11 6L11 7L10 7L10 6ZM17 6L17 7L18 7L18 6ZM0 8L0 9L1 9L1 10L2 10L2 8ZM10 8L10 10L8 10L8 11L11 11L11 10L12 10L12 9L11 9L11 8ZM27 9L27 10L29 10L29 9ZM0 11L0 12L1 12L1 11ZM8 13L8 14L6 14L6 15L5 15L5 16L6 16L6 17L7 17L7 18L6 18L6 19L8 19L8 21L9 21L9 19L8 19L8 18L10 18L10 22L11 22L11 20L13 20L13 19L15 19L15 20L16 20L16 19L15 19L15 18L14 18L14 17L13 17L13 19L11 19L11 18L10 18L10 17L9 17L9 16L10 16L10 15L9 15L9 13ZM6 15L6 16L7 16L7 15ZM8 15L8 16L9 16L9 15ZM32 16L32 17L33 17L33 16ZM3 17L3 18L4 18L4 17ZM23 17L23 18L24 18L24 17ZM26 17L26 21L27 21L27 17ZM31 18L31 19L32 19L32 20L33 20L33 18ZM2 19L2 20L3 20L3 22L2 22L2 24L3 24L3 23L4 23L4 20L3 20L3 19ZM16 21L16 22L17 22L17 23L18 23L18 24L20 24L20 22L21 22L21 21L20 21L20 22L19 22L19 21ZM22 22L22 23L21 23L21 25L23 25L23 22ZM25 25L25 28L28 28L28 25ZM26 26L26 27L27 27L27 26ZM15 28L15 29L14 29L14 30L15 30L15 31L16 31L16 32L17 32L17 31L16 31L16 29L17 29L17 28ZM22 28L22 29L24 29L24 28ZM29 29L29 30L30 30L30 29ZM11 31L11 33L12 33L12 32L13 32L13 33L14 33L14 32L13 32L13 31ZM21 31L21 33L22 33L22 31ZM28 32L28 33L30 33L30 32ZM31 32L31 33L32 33L32 32ZM0 0L0 7L7 7L7 0ZM1 1L1 6L6 6L6 1ZM2 2L2 5L5 5L5 2ZM26 0L26 7L33 7L33 0ZM27 1L27 6L32 6L32 1ZM28 2L28 5L31 5L31 2ZM0 26L0 33L7 33L7 26ZM1 27L1 32L6 32L6 27ZM2 28L2 31L5 31L5 28Z" fill="#000000"/></g></g></svg>
