<?xml version="1.0" encoding="UTF-8"?>
<svg xmlns="http://www.w3.org/2000/svg" version="1.1" width="400" height="400" viewBox="0 0 400 400"><rect x="0" y="0" width="400" height="400" fill="#fefefe"/><g transform="scale(9.756)"><g transform="translate(4,4)"><path fill-rule="evenodd" d="M8 0L8 1L9 1L9 2L8 2L8 5L9 5L9 4L11 4L11 5L10 5L10 10L8 10L8 9L9 9L9 8L8 8L8 9L7 9L7 8L6 8L6 9L7 9L7 10L6 10L6 11L3 11L3 12L4 12L4 15L2 15L2 16L4 16L4 17L5 17L5 16L6 16L6 17L7 17L7 18L1 18L1 17L0 17L0 19L1 19L1 20L2 20L2 19L3 19L3 21L0 21L0 22L2 22L2 23L1 23L1 24L0 24L0 25L1 25L1 24L2 24L2 23L3 23L3 25L8 25L8 26L9 26L9 29L8 29L8 33L9 33L9 32L10 32L10 33L13 33L13 32L12 32L12 31L13 31L13 30L15 30L15 31L14 31L14 32L15 32L15 31L16 31L16 33L24 33L24 32L25 32L25 33L29 33L29 32L28 32L28 31L27 31L27 30L26 30L26 31L25 31L25 30L24 30L24 29L29 29L29 26L30 26L30 30L29 30L29 31L32 31L32 32L33 32L33 31L32 31L32 29L33 29L33 27L31 27L31 26L32 26L32 25L33 25L33 21L32 21L32 20L30 20L30 19L29 19L29 17L32 17L32 18L31 18L31 19L32 19L32 18L33 18L33 16L32 16L32 15L30 15L30 16L26 16L26 14L25 14L25 16L23 16L23 18L24 18L24 17L25 17L25 19L22 19L22 20L21 20L21 19L20 19L20 20L18 20L18 19L19 19L19 18L17 18L17 19L16 19L16 18L15 18L15 17L17 17L17 15L16 15L16 16L13 16L13 19L11 19L11 21L10 21L10 22L11 22L11 24L10 24L10 23L9 23L9 20L10 20L10 19L7 19L7 18L11 18L11 17L9 17L9 16L12 16L12 14L13 14L13 15L14 15L14 14L13 14L13 13L14 13L14 11L15 11L15 9L14 9L14 10L13 10L13 6L12 6L12 5L13 5L13 4L14 4L14 5L16 5L16 12L17 12L17 13L15 13L15 14L17 14L17 13L19 13L19 14L18 14L18 16L21 16L21 17L22 17L22 14L21 14L21 15L20 15L20 13L19 13L19 12L17 12L17 9L18 9L18 10L20 10L20 12L21 12L21 10L22 10L22 8L21 8L21 6L22 6L22 7L23 7L23 8L24 8L24 9L23 9L23 11L24 11L24 10L25 10L25 9L26 9L26 12L25 12L25 13L26 13L26 12L28 12L28 13L29 13L29 12L30 12L30 11L29 11L29 10L27 10L27 9L26 9L26 8L25 8L25 6L24 6L24 7L23 7L23 5L21 5L21 2L20 2L20 4L19 4L19 3L17 3L17 2L15 2L15 0L12 0L12 1L11 1L11 0L10 0L10 1L9 1L9 0ZM19 0L19 1L18 1L18 2L19 2L19 1L20 1L20 0ZM23 0L23 1L22 1L22 2L24 2L24 5L25 5L25 2L24 2L24 1L25 1L25 0ZM11 2L11 4L12 4L12 3L13 3L13 2ZM14 2L14 4L15 4L15 2ZM16 3L16 5L17 5L17 7L18 7L18 5L17 5L17 3ZM22 3L22 4L23 4L23 3ZM8 6L8 7L9 7L9 6ZM11 6L11 8L12 8L12 6ZM14 6L14 8L15 8L15 6ZM19 6L19 8L18 8L18 9L19 9L19 8L20 8L20 9L21 9L21 8L20 8L20 6ZM0 8L0 10L3 10L3 9L4 9L4 10L5 10L5 9L4 9L4 8ZM28 8L28 9L31 9L31 8ZM32 8L32 10L31 10L31 11L33 11L33 8ZM11 9L11 10L12 10L12 9ZM0 11L0 12L1 12L1 13L0 13L0 14L2 14L2 11ZM6 11L6 12L7 12L7 13L5 13L5 14L7 14L7 15L6 15L6 16L9 16L9 13L8 13L8 12L7 12L7 11ZM11 11L11 13L10 13L10 14L11 14L11 13L12 13L12 12L13 12L13 11ZM22 12L22 13L23 13L23 12ZM31 12L31 14L32 14L32 12ZM7 13L7 14L8 14L8 13ZM27 14L27 15L28 15L28 14ZM4 15L4 16L5 16L5 15ZM25 16L25 17L26 17L26 16ZM27 17L27 20L24 20L24 21L25 21L25 23L22 23L22 22L23 22L23 21L20 21L20 22L19 22L19 21L17 21L17 20L16 20L16 19L15 19L15 18L14 18L14 19L13 19L13 21L12 21L12 24L11 24L11 28L10 28L10 29L9 29L9 31L10 31L10 32L11 32L11 31L12 31L12 30L13 30L13 29L12 29L12 30L11 30L11 28L12 28L12 26L14 26L14 27L13 27L13 28L15 28L15 29L16 29L16 31L20 31L20 32L22 32L22 31L20 31L20 27L22 27L22 26L24 26L24 24L25 24L25 23L26 23L26 21L27 21L27 22L28 22L28 23L29 23L29 25L30 25L30 26L31 26L31 25L32 25L32 21L29 21L29 19L28 19L28 17ZM4 19L4 20L7 20L7 21L4 21L4 23L6 23L6 24L8 24L8 23L6 23L6 22L8 22L8 20L7 20L7 19ZM14 19L14 20L15 20L15 19ZM14 21L14 22L15 22L15 21ZM16 21L16 22L17 22L17 21ZM29 22L29 23L31 23L31 22ZM13 23L13 24L12 24L12 25L14 25L14 24L16 24L16 23ZM18 23L18 24L17 24L17 25L15 25L15 26L18 26L18 30L19 30L19 27L20 27L20 26L21 26L21 24L20 24L20 23ZM18 24L18 25L20 25L20 24ZM22 24L22 25L23 25L23 24ZM25 25L25 28L28 28L28 25ZM26 26L26 27L27 27L27 26ZM15 27L15 28L17 28L17 27ZM23 27L23 28L24 28L24 27ZM21 29L21 30L22 30L22 29ZM10 30L10 31L11 31L11 30ZM30 32L30 33L31 33L31 32ZM0 0L0 7L7 7L7 0ZM1 1L1 6L6 6L6 1ZM2 2L2 5L5 5L5 2ZM26 0L26 7L33 7L33 0ZM27 1L27 6L32 6L32 1ZM28 2L28 5L31 5L31 2ZM0 26L0 33L7 33L7 26ZM1 27L1 32L6 32L6 27ZM2 28L2 31L5 31L5 28Z" fill="#000000"/></g></g></svg>
