<?xml version="1.0" encoding="UTF-8"?>
<svg xmlns="http://www.w3.org/2000/svg" version="1.1" width="400" height="400" viewBox="0 0 400 400"><rect x="0" y="0" width="400" height="400" fill="#fefefe"/><g transform="scale(9.756)"><g transform="translate(4,4)"><path fill-rule="evenodd" d="M9 0L9 1L10 1L10 0ZM12 0L12 2L11 2L11 4L10 4L10 2L9 2L9 3L8 3L8 5L9 5L9 4L10 4L10 8L9 8L9 9L8 9L8 8L5 8L5 9L7 9L7 10L6 10L6 11L5 11L5 10L3 10L3 9L2 9L2 8L0 8L0 10L2 10L2 11L0 11L0 13L1 13L1 12L2 12L2 13L3 13L3 15L4 15L4 13L7 13L7 14L5 14L5 16L2 16L2 15L1 15L1 14L0 14L0 15L1 15L1 16L0 16L0 18L1 18L1 16L2 16L2 18L3 18L3 19L4 19L4 20L2 20L2 19L1 19L1 21L0 21L0 25L2 25L2 24L1 24L1 21L2 21L2 23L3 23L3 25L4 25L4 24L5 24L5 23L3 23L3 22L4 22L4 20L5 20L5 22L6 22L6 23L7 23L7 22L6 22L6 21L7 21L7 20L5 20L5 19L7 19L7 18L8 18L8 16L9 16L9 19L8 19L8 20L9 20L9 21L10 21L10 20L11 20L11 22L12 22L12 23L11 23L11 25L10 25L10 24L9 24L9 22L8 22L8 24L9 24L9 25L8 25L8 28L9 28L9 29L10 29L10 30L9 30L9 31L8 31L8 33L9 33L9 32L12 32L12 30L13 30L13 31L16 31L16 32L15 32L15 33L16 33L16 32L17 32L17 33L18 33L18 32L17 32L17 31L18 31L18 30L17 30L17 29L18 29L18 28L20 28L20 29L19 29L19 32L21 32L21 30L20 30L20 29L21 29L21 28L20 28L20 27L22 27L22 29L23 29L23 30L22 30L22 33L25 33L25 32L23 32L23 31L25 31L25 29L28 29L28 31L27 31L27 32L26 32L26 33L27 33L27 32L28 32L28 31L29 31L29 32L31 32L31 33L32 33L32 32L31 32L31 30L30 30L30 31L29 31L29 29L30 29L30 28L31 28L31 29L33 29L33 27L32 27L32 26L33 26L33 25L32 25L32 24L33 24L33 23L30 23L30 24L28 24L28 23L29 23L29 21L30 21L30 20L31 20L31 19L30 19L30 18L32 18L32 20L33 20L33 17L32 17L32 16L33 16L33 15L32 15L32 14L33 14L33 12L32 12L32 10L29 10L29 9L30 9L30 8L28 8L28 9L27 9L27 12L26 12L26 10L24 10L24 9L25 9L25 6L24 6L24 7L23 7L23 6L22 6L22 3L23 3L23 5L25 5L25 4L24 4L24 3L25 3L25 0L24 0L24 3L23 3L23 0L22 0L22 2L19 2L19 3L16 3L16 4L19 4L19 5L20 5L20 7L21 7L21 6L22 6L22 7L23 7L23 8L24 8L24 9L23 9L23 10L24 10L24 12L25 12L25 13L23 13L23 12L22 12L22 13L21 13L21 11L22 11L22 9L21 9L21 8L20 8L20 9L19 9L19 8L17 8L17 6L16 6L16 8L15 8L15 11L18 11L18 13L17 13L17 12L16 12L16 13L15 13L15 12L14 12L14 14L15 14L15 15L14 15L14 16L13 16L13 14L12 14L12 11L14 11L14 10L13 10L13 9L14 9L14 8L13 8L13 6L14 6L14 7L15 7L15 6L14 6L14 5L13 5L13 4L15 4L15 3L13 3L13 2L14 2L14 1L13 1L13 0ZM16 0L16 1L17 1L17 2L18 2L18 0ZM20 0L20 1L21 1L21 0ZM12 3L12 4L13 4L13 3ZM19 3L19 4L20 4L20 3ZM11 5L11 7L12 7L12 5ZM8 6L8 7L9 7L9 6ZM18 6L18 7L19 7L19 6ZM10 8L10 9L12 9L12 8ZM16 8L16 10L18 10L18 9L17 9L17 8ZM7 10L7 11L6 11L6 12L7 12L7 13L9 13L9 11L10 11L10 14L9 14L9 15L10 15L10 14L11 14L11 15L12 15L12 14L11 14L11 11L12 11L12 10L11 10L11 11L10 11L10 10L9 10L9 11L8 11L8 10ZM19 10L19 11L21 11L21 10ZM28 10L28 14L29 14L29 17L28 17L28 15L27 15L27 14L25 14L25 15L24 15L24 14L22 14L22 15L21 15L21 14L17 14L17 15L16 15L16 16L14 16L14 17L13 17L13 19L11 19L11 18L10 18L10 19L9 19L9 20L10 20L10 19L11 19L11 20L14 20L14 21L13 21L13 22L15 22L15 20L16 20L16 19L14 19L14 17L15 17L15 18L16 18L16 16L18 16L18 15L19 15L19 17L20 17L20 18L21 18L21 17L25 17L25 18L24 18L24 19L21 19L21 20L18 20L18 17L17 17L17 20L18 20L18 21L16 21L16 23L17 23L17 27L15 27L15 26L14 26L14 24L15 24L15 25L16 25L16 24L15 24L15 23L13 23L13 26L11 26L11 27L10 27L10 26L9 26L9 28L11 28L11 29L13 29L13 30L14 30L14 29L15 29L15 28L16 28L16 29L17 29L17 28L18 28L18 27L20 27L20 26L22 26L22 27L23 27L23 26L24 26L24 25L23 25L23 26L22 26L22 23L21 23L21 24L20 24L20 22L21 22L21 21L23 21L23 20L25 20L25 21L26 21L26 23L25 23L25 22L23 22L23 23L25 23L25 24L26 24L26 23L27 23L27 20L30 20L30 19L28 19L28 18L30 18L30 17L31 17L31 16L30 16L30 14L29 14L29 10ZM2 11L2 12L3 12L3 13L4 13L4 12L5 12L5 11ZM7 11L7 12L8 12L8 11ZM30 12L30 13L32 13L32 12ZM7 14L7 15L6 15L6 16L5 16L5 17L6 17L6 18L7 18L7 17L6 17L6 16L7 16L7 15L8 15L8 14ZM20 15L20 17L21 17L21 15ZM22 15L22 16L23 16L23 15ZM25 15L25 16L26 16L26 15ZM10 16L10 17L12 17L12 16ZM26 17L26 18L27 18L27 17ZM25 19L25 20L26 20L26 19ZM19 21L19 22L17 22L17 23L19 23L19 22L20 22L20 21ZM6 24L6 25L7 25L7 24ZM19 24L19 26L20 26L20 24ZM30 24L30 25L29 25L29 28L30 28L30 27L31 27L31 26L30 26L30 25L31 25L31 24ZM25 25L25 28L28 28L28 25ZM26 26L26 27L27 27L27 26ZM11 27L11 28L12 28L12 27ZM14 27L14 28L13 28L13 29L14 29L14 28L15 28L15 27ZM23 28L23 29L24 29L24 28ZM10 30L10 31L11 31L11 30ZM32 30L32 31L33 31L33 30ZM13 32L13 33L14 33L14 32ZM0 0L0 7L7 7L7 0ZM1 1L1 6L6 6L6 1ZM2 2L2 5L5 5L5 2ZM26 0L26 7L33 7L33 0ZM27 1L27 6L32 6L32 1ZM28 2L28 5L31 5L31 2ZM0 26L0 33L7 33L7 26ZM1 27L1 32L6 32L6 27ZM2 28L2 31L5 31L5 28Z" fill="#000000"/></g></g></svg>
