<?xml version="1.0" encoding="UTF-8"?>
<svg xmlns="http://www.w3.org/2000/svg" version="1.1" width="400" height="400" viewBox="0 0 400 400"><rect x="0" y="0" width="400" height="400" fill="#fefefe"/><g transform="scale(9.756)"><g transform="translate(4,4)"><path fill-rule="evenodd" d="M11 0L11 1L8 1L8 3L9 3L9 2L10 2L10 4L8 4L8 8L6 8L6 9L4 9L4 8L3 8L3 10L0 10L0 12L2 12L2 11L7 11L7 12L5 12L5 13L4 13L4 14L3 14L3 13L2 13L2 14L1 14L1 13L0 13L0 14L1 14L1 16L2 16L2 14L3 14L3 17L2 17L2 18L1 18L1 21L2 21L2 20L5 20L5 21L7 21L7 22L5 22L5 23L4 23L4 21L3 21L3 22L0 22L0 23L1 23L1 24L0 24L0 25L1 25L1 24L2 24L2 25L3 25L3 24L4 24L4 25L5 25L5 24L6 24L6 25L7 25L7 24L6 24L6 23L9 23L9 22L10 22L10 23L11 23L11 24L8 24L8 27L9 27L9 28L10 28L10 29L8 29L8 30L9 30L9 31L8 31L8 33L11 33L11 32L12 32L12 31L11 31L11 30L12 30L12 29L11 29L11 28L14 28L14 29L13 29L13 30L14 30L14 31L15 31L15 32L16 32L16 33L17 33L17 32L19 32L19 31L17 31L17 29L18 29L18 30L19 30L19 29L21 29L21 30L23 30L23 29L22 29L22 28L24 28L24 29L26 29L26 30L27 30L27 32L26 32L26 33L27 33L27 32L28 32L28 33L29 33L29 32L30 32L30 31L33 31L33 29L31 29L31 30L29 30L29 27L30 27L30 25L29 25L29 24L27 24L27 23L28 23L28 20L30 20L30 19L28 19L28 17L29 17L29 16L30 16L30 15L32 15L32 14L33 14L33 9L32 9L32 8L30 8L30 9L29 9L29 8L26 8L26 9L25 9L25 6L24 6L24 7L23 7L23 6L22 6L22 5L25 5L25 3L23 3L23 4L21 4L21 5L18 5L18 7L17 7L17 6L16 6L16 3L19 3L19 4L20 4L20 3L21 3L21 2L22 2L22 1L23 1L23 2L25 2L25 0L19 0L19 1L20 1L20 3L19 3L19 2L17 2L17 0L15 0L15 4L13 4L13 2L14 2L14 0ZM12 1L12 2L11 2L11 4L12 4L12 2L13 2L13 1ZM11 5L11 7L10 7L10 6L9 6L9 7L10 7L10 8L8 8L8 9L6 9L6 10L7 10L7 11L8 11L8 13L6 13L6 14L4 14L4 15L5 15L5 17L6 17L6 18L7 18L7 19L6 19L6 20L8 20L8 21L9 21L9 18L10 18L10 19L12 19L12 18L13 18L13 17L14 17L14 18L15 18L15 19L13 19L13 20L14 20L14 21L15 21L15 22L13 22L13 21L12 21L12 20L10 20L10 22L11 22L11 23L12 23L12 24L11 24L11 25L10 25L10 26L9 26L9 27L10 27L10 28L11 28L11 26L13 26L13 27L14 27L14 28L15 28L15 29L14 29L14 30L15 30L15 31L16 31L16 32L17 32L17 31L16 31L16 29L17 29L17 28L15 28L15 27L17 27L17 25L15 25L15 26L14 26L14 25L12 25L12 24L13 24L13 23L15 23L15 24L16 24L16 23L17 23L17 24L18 24L18 25L20 25L20 26L18 26L18 29L19 29L19 27L22 27L22 26L23 26L23 27L24 27L24 24L23 24L23 25L22 25L22 26L21 26L21 24L20 24L20 23L22 23L22 22L23 22L23 23L24 23L24 22L25 22L25 23L26 23L26 21L27 21L27 20L28 20L28 19L27 19L27 17L26 17L26 20L25 20L25 21L24 21L24 20L23 20L23 19L25 19L25 16L23 16L23 15L22 15L22 14L25 14L25 15L26 15L26 16L27 16L27 15L28 15L28 16L29 16L29 14L31 14L31 12L32 12L32 10L31 10L31 11L30 11L30 12L28 12L28 13L29 13L29 14L25 14L25 13L26 13L26 12L27 12L27 11L26 11L26 12L24 12L24 11L25 11L25 10L24 10L24 9L23 9L23 10L21 10L21 9L20 9L20 6L19 6L19 7L18 7L18 8L17 8L17 7L16 7L16 6L15 6L15 7L14 7L14 5ZM12 6L12 7L13 7L13 6ZM21 6L21 7L22 7L22 6ZM15 7L15 8L16 8L16 11L15 11L15 9L14 9L14 8L10 8L10 9L13 9L13 10L12 10L12 11L11 11L11 10L9 10L9 9L8 9L8 10L9 10L9 11L11 11L11 12L13 12L13 13L12 13L12 14L11 14L11 13L10 13L10 14L9 14L9 13L8 13L8 14L6 14L6 15L7 15L7 16L6 16L6 17L7 17L7 18L8 18L8 17L10 17L10 18L12 18L12 17L13 17L13 16L14 16L14 17L15 17L15 18L16 18L16 19L15 19L15 20L16 20L16 19L17 19L17 20L18 20L18 19L19 19L19 18L17 18L17 17L20 17L20 18L21 18L21 20L20 20L20 21L23 21L23 20L22 20L22 18L24 18L24 17L22 17L22 15L21 15L21 14L22 14L22 13L23 13L23 12L22 12L22 11L21 11L21 14L20 14L20 13L19 13L19 12L16 12L16 11L20 11L20 10L18 10L18 9L19 9L19 8L18 8L18 9L17 9L17 8L16 8L16 7ZM0 8L0 9L2 9L2 8ZM27 9L27 10L28 10L28 11L29 11L29 9ZM13 10L13 11L14 11L14 10ZM13 13L13 15L11 15L11 14L10 14L10 15L9 15L9 14L8 14L8 15L9 15L9 16L10 16L10 17L12 17L12 16L13 16L13 15L14 15L14 16L16 16L16 15L17 15L17 14L18 14L18 16L19 16L19 15L20 15L20 14L19 14L19 13L15 13L15 14L14 14L14 13ZM10 15L10 16L11 16L11 15ZM7 16L7 17L8 17L8 16ZM20 16L20 17L21 17L21 16ZM32 16L32 17L33 17L33 16ZM2 18L2 19L3 19L3 18ZM31 18L31 19L32 19L32 20L33 20L33 18ZM16 21L16 22L17 22L17 23L18 23L18 24L19 24L19 23L20 23L20 22L19 22L19 21ZM29 21L29 22L31 22L31 23L33 23L33 21ZM12 22L12 23L13 23L13 22ZM2 23L2 24L3 24L3 23ZM25 25L25 28L28 28L28 25ZM31 25L31 27L32 27L32 26L33 26L33 25ZM26 26L26 27L27 27L27 26ZM10 29L10 30L11 30L11 29ZM24 30L24 32L22 32L22 31L21 31L21 32L20 32L20 33L25 33L25 30ZM9 31L9 32L11 32L11 31ZM28 31L28 32L29 32L29 31ZM13 32L13 33L14 33L14 32ZM31 32L31 33L32 33L32 32ZM0 0L0 7L7 7L7 0ZM1 1L1 6L6 6L6 1ZM2 2L2 5L5 5L5 2ZM26 0L26 7L33 7L33 0ZM27 1L27 6L32 6L32 1ZM28 2L28 5L31 5L31 2ZM0 26L0 33L7 33L7 26ZM1 27L1 32L6 32L6 27ZM2 28L2 31L5 31L5 28Z" fill="#000000"/></g></g></svg>
