<?xml version="1.0" encoding="UTF-8"?>
<svg xmlns="http://www.w3.org/2000/svg" version="1.1" width="400" height="400" viewBox="0 0 400 400"><rect x="0" y="0" width="400" height="400" fill="#fefefe"/><g transform="scale(9.756)"><g transform="translate(4,4)"><path fill-rule="evenodd" d="M8 0L8 4L9 4L9 5L8 5L8 7L9 7L9 8L10 8L10 7L11 7L11 5L12 5L12 7L13 7L13 5L14 5L14 7L15 7L15 8L14 8L14 9L13 9L13 8L12 8L12 9L11 9L11 11L10 11L10 13L11 13L11 15L10 15L10 14L9 14L9 12L4 12L4 13L7 13L7 14L5 14L5 15L4 15L4 14L3 14L3 11L4 11L4 10L6 10L6 11L8 11L8 10L10 10L10 9L8 9L8 10L6 10L6 9L7 9L7 8L4 8L4 10L3 10L3 9L2 9L2 8L0 8L0 9L1 9L1 11L0 11L0 12L2 12L2 13L1 13L1 14L0 14L0 16L1 16L1 14L2 14L2 16L3 16L3 20L5 20L5 18L6 18L6 19L7 19L7 20L6 20L6 21L5 21L5 22L4 22L4 21L0 21L0 22L3 22L3 23L5 23L5 22L6 22L6 23L7 23L7 22L8 22L8 24L6 24L6 25L8 25L8 26L10 26L10 27L8 27L8 29L9 29L9 30L10 30L10 32L9 32L9 31L8 31L8 33L11 33L11 32L13 32L13 31L12 31L12 30L14 30L14 29L15 29L15 32L14 32L14 33L15 33L15 32L16 32L16 31L17 31L17 33L18 33L18 32L19 32L19 33L20 33L20 32L21 32L21 33L22 33L22 30L21 30L21 29L23 29L23 33L26 33L26 31L27 31L27 32L28 32L28 31L29 31L29 33L30 33L30 31L29 31L29 27L31 27L31 28L32 28L32 26L31 26L31 25L32 25L32 24L33 24L33 23L31 23L31 22L32 22L32 21L33 21L33 19L32 19L32 18L31 18L31 17L30 17L30 18L29 18L29 19L28 19L28 18L26 18L26 17L29 17L29 16L30 16L30 14L31 14L31 16L32 16L32 17L33 17L33 16L32 16L32 14L31 14L31 13L29 13L29 12L28 12L28 11L29 11L29 10L27 10L27 11L26 11L26 13L25 13L25 10L24 10L24 9L25 9L25 6L24 6L24 7L23 7L23 6L22 6L22 7L21 7L21 6L20 6L20 5L21 5L21 3L22 3L22 2L23 2L23 3L24 3L24 4L23 4L23 5L25 5L25 3L24 3L24 2L23 2L23 1L25 1L25 0L23 0L23 1L22 1L22 0L20 0L20 1L19 1L19 3L20 3L20 5L18 5L18 7L17 7L17 6L16 6L16 7L15 7L15 5L16 5L16 4L17 4L17 3L18 3L18 2L16 2L16 3L15 3L15 4L14 4L14 3L12 3L12 4L9 4L9 3L11 3L11 2L9 2L9 0ZM10 0L10 1L12 1L12 2L13 2L13 0ZM15 0L15 1L14 1L14 2L15 2L15 1L16 1L16 0ZM21 1L21 2L20 2L20 3L21 3L21 2L22 2L22 1ZM9 5L9 7L10 7L10 5ZM19 6L19 7L18 7L18 8L20 8L20 6ZM16 7L16 8L15 8L15 9L14 9L14 11L13 11L13 10L12 10L12 11L11 11L11 13L12 13L12 15L11 15L11 17L12 17L12 16L13 16L13 17L14 17L14 19L13 19L13 18L12 18L12 19L13 19L13 21L14 21L14 22L15 22L15 21L16 21L16 20L17 20L17 19L18 19L18 21L17 21L17 23L13 23L13 22L12 22L12 23L11 23L11 22L10 22L10 24L9 24L9 25L10 25L10 26L11 26L11 25L12 25L12 24L13 24L13 25L14 25L14 26L13 26L13 27L12 27L12 29L14 29L14 28L15 28L15 29L17 29L17 30L19 30L19 31L21 31L21 30L20 30L20 29L21 29L21 27L22 27L22 25L23 25L23 20L22 20L22 25L19 25L19 24L21 24L21 23L20 23L20 21L21 21L21 19L23 19L23 18L22 18L22 17L25 17L25 16L22 16L22 17L19 17L19 18L18 18L18 17L17 17L17 19L16 19L16 20L15 20L15 18L16 18L16 17L14 17L14 16L17 16L17 14L16 14L16 15L15 15L15 13L14 13L14 12L15 12L15 9L17 9L17 10L16 10L16 11L18 11L18 12L19 12L19 15L18 15L18 16L19 16L19 15L20 15L20 16L21 16L21 14L22 14L22 13L24 13L24 15L26 15L26 16L27 16L27 15L28 15L28 16L29 16L29 15L28 15L28 14L29 14L29 13L26 13L26 14L25 14L25 13L24 13L24 12L23 12L23 10L22 10L22 9L24 9L24 8L23 8L23 7L22 7L22 9L19 9L19 10L18 10L18 9L17 9L17 7ZM27 8L27 9L28 9L28 8ZM29 8L29 9L31 9L31 12L32 12L32 13L33 13L33 12L32 12L32 9L33 9L33 8ZM2 10L2 11L3 11L3 10ZM21 10L21 13L20 13L20 14L21 14L21 13L22 13L22 10ZM12 11L12 12L13 12L13 11ZM16 12L16 13L17 13L17 12ZM13 13L13 14L14 14L14 13ZM6 15L6 16L4 16L4 17L6 17L6 18L7 18L7 19L8 19L8 20L7 20L7 21L6 21L6 22L7 22L7 21L9 21L9 18L10 18L10 19L11 19L11 18L10 18L10 15L9 15L9 16L7 16L7 15ZM6 16L6 17L7 17L7 18L8 18L8 17L7 17L7 16ZM0 17L0 18L2 18L2 17ZM20 18L20 19L19 19L19 21L20 21L20 19L21 19L21 18ZM26 19L26 20L25 20L25 21L26 21L26 23L25 23L25 22L24 22L24 24L28 24L28 23L29 23L29 22L31 22L31 20L32 20L32 19L30 19L30 21L28 21L28 19ZM10 20L10 21L11 21L11 20ZM14 20L14 21L15 21L15 20ZM26 20L26 21L27 21L27 23L28 23L28 21L27 21L27 20ZM17 23L17 25L16 25L16 24L14 24L14 25L15 25L15 28L16 28L16 26L17 26L17 29L18 29L18 27L19 27L19 26L17 26L17 25L18 25L18 24L19 24L19 23ZM30 23L30 24L29 24L29 26L30 26L30 25L31 25L31 23ZM0 24L0 25L3 25L3 24ZM4 24L4 25L5 25L5 24ZM25 25L25 28L28 28L28 25ZM20 26L20 27L21 27L21 26ZM23 26L23 27L24 27L24 26ZM26 26L26 27L27 27L27 26ZM10 27L10 30L11 30L11 27ZM19 28L19 29L20 29L20 28ZM23 28L23 29L24 29L24 28ZM25 29L25 30L24 30L24 31L26 31L26 29ZM27 29L27 31L28 31L28 29ZM30 29L30 30L31 30L31 31L32 31L32 30L33 30L33 29ZM32 32L32 33L33 33L33 32ZM0 0L0 7L7 7L7 0ZM1 1L1 6L6 6L6 1ZM2 2L2 5L5 5L5 2ZM26 0L26 7L33 7L33 0ZM27 1L27 6L32 6L32 1ZM28 2L28 5L31 5L31 2ZM0 26L0 33L7 33L7 26ZM1 27L1 32L6 32L6 27ZM2 28L2 31L5 31L5 28Z" fill="#000000"/></g></g></svg>
