<?xml version="1.0" encoding="UTF-8"?>
<svg xmlns="http://www.w3.org/2000/svg" version="1.1" width="400" height="400" viewBox="0 0 400 400"><rect x="0" y="0" width="400" height="400" fill="#fefefe"/><g transform="scale(9.756)"><g transform="translate(4,4)"><path fill-rule="evenodd" d="M8 0L8 1L9 1L9 2L8 2L8 5L9 5L9 4L11 4L11 5L10 5L10 10L9 10L9 12L8 12L8 11L7 11L7 10L8 10L8 9L9 9L9 8L8 8L8 9L7 9L7 8L6 8L6 9L4 9L4 8L0 8L0 9L4 9L4 11L5 11L5 10L6 10L6 11L7 11L7 12L6 12L6 13L7 13L7 12L8 12L8 14L9 14L9 13L11 13L11 14L10 14L10 15L9 15L9 18L6 18L6 19L5 19L5 20L4 20L4 19L3 19L3 18L4 18L4 16L5 16L5 17L7 17L7 16L6 16L6 15L7 15L7 14L5 14L5 15L4 15L4 16L2 16L2 17L1 17L1 16L0 16L0 17L1 17L1 18L0 18L0 22L1 22L1 21L2 21L2 22L3 22L3 21L5 21L5 22L4 22L4 23L5 23L5 24L6 24L6 25L7 25L7 24L6 24L6 23L7 23L7 22L9 22L9 23L10 23L10 24L8 24L8 26L9 26L9 25L10 25L10 28L9 28L9 29L8 29L8 33L9 33L9 32L10 32L10 33L11 33L11 32L12 32L12 33L13 33L13 32L12 32L12 31L13 31L13 30L15 30L15 31L14 31L14 32L15 32L15 31L16 31L16 33L19 33L19 31L16 31L16 29L15 29L15 28L17 28L17 27L15 27L15 28L13 28L13 27L14 27L14 26L13 26L13 27L11 27L11 25L10 25L10 24L12 24L12 25L14 25L14 24L16 24L16 23L13 23L13 24L12 24L12 21L13 21L13 19L14 19L14 20L15 20L15 19L16 19L16 20L17 20L17 21L16 21L16 22L17 22L17 21L19 21L19 22L20 22L20 23L21 23L21 22L20 22L20 21L23 21L23 22L22 22L22 23L24 23L24 22L25 22L25 24L24 24L24 26L23 26L23 25L21 25L21 26L20 26L20 25L18 25L18 24L19 24L19 23L18 23L18 24L17 24L17 25L15 25L15 26L18 26L18 30L19 30L19 27L21 27L21 28L20 28L20 33L23 33L23 31L22 31L22 30L24 30L24 32L25 32L25 33L27 33L27 32L28 32L28 33L31 33L31 32L30 32L30 31L32 31L32 32L33 32L33 31L32 31L32 29L33 29L33 27L31 27L31 26L32 26L32 25L33 25L33 21L32 21L32 20L30 20L30 19L29 19L29 17L32 17L32 18L31 18L31 19L32 19L32 18L33 18L33 16L32 16L32 15L30 15L30 16L29 16L29 14L28 14L28 13L29 13L29 12L30 12L30 11L27 11L27 9L26 9L26 8L25 8L25 6L24 6L24 7L23 7L23 5L21 5L21 2L19 2L19 1L20 1L20 0L19 0L19 1L17 1L17 2L15 2L15 0L12 0L12 1L11 1L11 0L10 0L10 1L9 1L9 0ZM23 0L23 1L22 1L22 2L23 2L23 3L22 3L22 4L23 4L23 3L24 3L24 5L25 5L25 3L24 3L24 2L25 2L25 0ZM11 2L11 4L12 4L12 3L13 3L13 2ZM14 2L14 4L13 4L13 5L12 5L12 6L11 6L11 8L12 8L12 6L13 6L13 10L14 10L14 9L15 9L15 11L14 11L14 13L13 13L13 14L12 14L12 16L11 16L11 15L10 15L10 16L11 16L11 17L10 17L10 19L6 19L6 20L5 20L5 21L6 21L6 22L5 22L5 23L6 23L6 22L7 22L7 21L9 21L9 20L10 20L10 21L11 21L11 19L13 19L13 16L16 16L16 15L17 15L17 17L15 17L15 18L14 18L14 19L15 19L15 18L16 18L16 19L17 19L17 18L19 18L19 19L18 19L18 20L20 20L20 18L23 18L23 19L21 19L21 20L23 20L23 19L25 19L25 17L26 17L26 16L27 16L27 15L25 15L25 14L24 14L24 11L25 11L25 10L26 10L26 9L25 9L25 8L23 8L23 7L22 7L22 6L21 6L21 8L20 8L20 6L19 6L19 8L18 8L18 9L17 9L17 12L16 12L16 5L17 5L17 7L18 7L18 5L19 5L19 4L20 4L20 3L19 3L19 2L17 2L17 3L16 3L16 5L14 5L14 4L15 4L15 2ZM17 3L17 5L18 5L18 3ZM8 6L8 7L9 7L9 6ZM14 6L14 8L15 8L15 6ZM19 8L19 9L18 9L18 10L22 10L22 11L24 11L24 9L23 9L23 8L21 8L21 9L20 9L20 8ZM28 8L28 9L31 9L31 8ZM32 8L32 10L31 10L31 11L33 11L33 8ZM6 9L6 10L7 10L7 9ZM11 9L11 10L12 10L12 9ZM0 10L0 13L3 13L3 14L1 14L1 15L3 15L3 14L4 14L4 13L3 13L3 11L2 11L2 10ZM1 11L1 12L2 12L2 11ZM11 11L11 13L12 13L12 12L13 12L13 11ZM19 11L19 12L17 12L17 13L15 13L15 14L17 14L17 13L19 13L19 14L18 14L18 16L19 16L19 17L20 17L20 16L19 16L19 15L21 15L21 17L22 17L22 14L23 14L23 13L22 13L22 14L20 14L20 13L19 13L19 12L21 12L21 11ZM25 12L25 13L26 13L26 14L27 14L27 12ZM31 12L31 14L32 14L32 12ZM13 14L13 15L14 15L14 14ZM23 16L23 18L24 18L24 17L25 17L25 16ZM2 17L2 18L1 18L1 20L2 20L2 18L3 18L3 17ZM27 17L27 20L26 20L26 21L27 21L27 24L28 24L28 23L29 23L29 25L30 25L30 26L29 26L29 27L30 27L30 26L31 26L31 25L32 25L32 21L29 21L29 19L28 19L28 17ZM6 20L6 21L7 21L7 20ZM24 20L24 21L25 21L25 20ZM14 21L14 22L15 22L15 21ZM10 22L10 23L11 23L11 22ZM29 22L29 23L31 23L31 22ZM1 23L1 24L0 24L0 25L1 25L1 24L3 24L3 25L4 25L4 24L3 24L3 23ZM25 25L25 28L28 28L28 25ZM21 26L21 27L22 27L22 26ZM26 26L26 27L27 27L27 26ZM23 27L23 28L24 28L24 27ZM12 29L12 30L11 30L11 31L10 31L10 30L9 30L9 31L10 31L10 32L11 32L11 31L12 31L12 30L13 30L13 29ZM21 29L21 30L22 30L22 29ZM24 29L24 30L25 30L25 29ZM26 29L26 30L27 30L27 29ZM28 29L28 31L29 31L29 30L31 30L31 29ZM21 31L21 32L22 32L22 31ZM0 0L0 7L7 7L7 0ZM1 1L1 6L6 6L6 1ZM2 2L2 5L5 5L5 2ZM26 0L26 7L33 7L33 0ZM27 1L27 6L32 6L32 1ZM28 2L28 5L31 5L31 2ZM0 26L0 33L7 33L7 26ZM1 27L1 32L6 32L6 27ZM2 28L2 31L5 31L5 28Z" fill="#000000"/></g></g></svg>
