<?xml version="1.0" encoding="UTF-8"?>
<svg xmlns="http://www.w3.org/2000/svg" version="1.1" width="400" height="400" viewBox="0 0 400 400"><rect x="0" y="0" width="400" height="400" fill="#fefefe"/><g transform="scale(9.756)"><g transform="translate(4,4)"><path fill-rule="evenodd" d="M9 0L9 1L8 1L8 2L9 2L9 3L8 3L8 4L9 4L9 3L10 3L10 5L8 5L8 7L9 7L9 8L6 8L6 9L8 9L8 10L9 10L9 9L10 9L10 8L12 8L12 9L11 9L11 10L10 10L10 11L11 11L11 12L9 12L9 13L11 13L11 14L8 14L8 16L6 16L6 17L5 17L5 15L4 15L4 14L3 14L3 13L2 13L2 12L3 12L3 11L4 11L4 12L5 12L5 13L7 13L7 12L5 12L5 11L7 11L7 10L5 10L5 8L0 8L0 9L1 9L1 10L2 10L2 11L0 11L0 13L2 13L2 14L0 14L0 16L1 16L1 15L2 15L2 18L0 18L0 19L3 19L3 20L1 20L1 21L0 21L0 25L1 25L1 21L2 21L2 22L3 22L3 20L6 20L6 21L5 21L5 25L8 25L8 27L9 27L9 26L12 26L12 28L13 28L13 29L11 29L11 30L10 30L10 32L11 32L11 30L12 30L12 31L13 31L13 29L14 29L14 30L15 30L15 33L16 33L16 32L17 32L17 33L18 33L18 32L17 32L17 31L16 31L16 30L17 30L17 29L18 29L18 28L19 28L19 27L18 27L18 28L17 28L17 25L18 25L18 24L17 24L17 23L19 23L19 22L20 22L20 24L22 24L22 25L19 25L19 26L20 26L20 28L23 28L23 27L24 27L24 29L25 29L25 30L23 30L23 29L19 29L19 30L20 30L20 31L21 31L21 32L22 32L22 33L23 33L23 32L24 32L24 33L26 33L26 31L27 31L27 32L28 32L28 30L29 30L29 31L30 31L30 32L29 32L29 33L30 33L30 32L31 32L31 33L32 33L32 32L31 32L31 31L32 31L32 30L31 30L31 29L33 29L33 28L32 28L32 26L33 26L33 23L30 23L30 24L32 24L32 25L30 25L30 26L31 26L31 27L29 27L29 24L28 24L28 23L29 23L29 22L28 22L28 21L30 21L30 20L31 20L31 19L32 19L32 20L33 20L33 19L32 19L32 18L33 18L33 17L32 17L32 14L33 14L33 13L32 13L32 10L33 10L33 9L32 9L32 8L31 8L31 9L32 9L32 10L29 10L29 12L28 12L28 11L27 11L27 13L26 13L26 11L24 11L24 12L25 12L25 13L19 13L19 10L21 10L21 11L20 11L20 12L23 12L23 11L22 11L22 9L23 9L23 10L25 10L25 9L26 9L26 10L27 10L27 9L28 9L28 8L27 8L27 9L26 9L26 8L25 8L25 6L24 6L24 8L25 8L25 9L23 9L23 6L22 6L22 4L23 4L23 5L25 5L25 4L23 4L23 1L24 1L24 3L25 3L25 0L23 0L23 1L20 1L20 0L19 0L19 1L20 1L20 2L18 2L18 1L17 1L17 2L18 2L18 3L17 3L17 4L19 4L19 5L18 5L18 7L19 7L19 8L17 8L17 6L16 6L16 5L15 5L15 6L14 6L14 5L13 5L13 4L14 4L14 3L13 3L13 2L14 2L14 1L15 1L15 2L16 2L16 1L15 1L15 0ZM10 1L10 3L11 3L11 2L12 2L12 1ZM20 2L20 3L19 3L19 4L20 4L20 5L19 5L19 7L20 7L20 8L19 8L19 9L22 9L22 8L21 8L21 7L22 7L22 6L21 6L21 7L20 7L20 5L21 5L21 4L22 4L22 3L21 3L21 2ZM12 3L12 4L13 4L13 3ZM15 3L15 4L16 4L16 3ZM20 3L20 4L21 4L21 3ZM11 5L11 7L12 7L12 5ZM9 6L9 7L10 7L10 6ZM13 6L13 8L14 8L14 9L13 9L13 10L14 10L14 11L12 11L12 10L11 10L11 11L12 11L12 12L11 12L11 13L12 13L12 14L11 14L11 15L12 15L12 14L13 14L13 16L14 16L14 17L13 17L13 18L14 18L14 19L12 19L12 18L11 18L11 20L10 20L10 22L11 22L11 23L12 23L12 22L11 22L11 20L14 20L14 21L13 21L13 24L14 24L14 25L13 25L13 28L14 28L14 29L15 29L15 30L16 30L16 29L17 29L17 28L16 28L16 29L15 29L15 26L16 26L16 25L17 25L17 24L16 24L16 23L17 23L17 22L19 22L19 21L20 21L20 22L23 22L23 25L22 25L22 26L21 26L21 27L23 27L23 25L24 25L24 24L27 24L27 23L28 23L28 22L23 22L23 20L25 20L25 21L28 21L28 20L30 20L30 19L31 19L31 18L30 18L30 17L31 17L31 16L30 16L30 14L29 14L29 13L31 13L31 12L29 12L29 13L27 13L27 14L26 14L26 13L25 13L25 15L24 15L24 14L23 14L23 17L22 17L22 16L21 16L21 14L17 14L17 16L18 16L18 15L19 15L19 16L21 16L21 17L20 17L20 18L19 18L19 19L20 19L20 20L18 20L18 19L17 19L17 18L18 18L18 17L17 17L17 18L16 18L16 19L17 19L17 20L18 20L18 21L17 21L17 22L16 22L16 21L15 21L15 18L14 18L14 17L16 17L16 15L15 15L15 14L16 14L16 13L17 13L17 12L18 12L18 11L16 11L16 12L15 12L15 10L16 10L16 9L17 9L17 10L18 10L18 9L17 9L17 8L16 8L16 9L15 9L15 7L16 7L16 6L15 6L15 7L14 7L14 6ZM29 8L29 9L30 9L30 8ZM2 9L2 10L4 10L4 11L5 11L5 10L4 10L4 9ZM14 9L14 10L15 10L15 9ZM13 12L13 13L14 13L14 14L15 14L15 13L14 13L14 12ZM6 14L6 15L7 15L7 14ZM27 14L27 17L26 17L26 18L25 18L25 17L23 17L23 18L25 18L25 20L26 20L26 19L27 19L27 20L28 20L28 18L27 18L27 17L29 17L29 16L28 16L28 15L29 15L29 14ZM25 15L25 16L26 16L26 15ZM3 16L3 17L4 17L4 18L3 18L3 19L4 19L4 18L5 18L5 19L6 19L6 20L7 20L7 21L6 21L6 22L7 22L7 23L6 23L6 24L8 24L8 25L9 25L9 24L10 24L10 25L12 25L12 24L10 24L10 23L9 23L9 20L7 20L7 19L6 19L6 18L8 18L8 19L10 19L10 18L8 18L8 17L10 17L10 16L8 16L8 17L6 17L6 18L5 18L5 17L4 17L4 16ZM11 16L11 17L12 17L12 16ZM21 17L21 18L20 18L20 19L21 19L21 20L20 20L20 21L21 21L21 20L23 20L23 19L21 19L21 18L22 18L22 17ZM7 21L7 22L8 22L8 21ZM14 21L14 24L15 24L15 23L16 23L16 22L15 22L15 21ZM32 21L32 22L33 22L33 21ZM8 23L8 24L9 24L9 23ZM14 25L14 26L15 26L15 25ZM25 25L25 28L28 28L28 25ZM26 26L26 27L27 27L27 26ZM10 27L10 28L11 28L11 27ZM8 28L8 33L9 33L9 28ZM29 28L29 30L30 30L30 29L31 29L31 28ZM26 29L26 30L25 30L25 31L24 31L24 32L25 32L25 31L26 31L26 30L28 30L28 29ZM22 31L22 32L23 32L23 31ZM13 32L13 33L14 33L14 32ZM0 0L0 7L7 7L7 0ZM1 1L1 6L6 6L6 1ZM2 2L2 5L5 5L5 2ZM26 0L26 7L33 7L33 0ZM27 1L27 6L32 6L32 1ZM28 2L28 5L31 5L31 2ZM0 26L0 33L7 33L7 26ZM1 27L1 32L6 32L6 27ZM2 28L2 31L5 31L5 28Z" fill="#000000"/></g></g></svg>
