<?xml version="1.0" encoding="UTF-8"?>
<svg xmlns="http://www.w3.org/2000/svg" version="1.1" width="400" height="400" viewBox="0 0 400 400"><rect x="0" y="0" width="400" height="400" fill="#fefefe"/><g transform="scale(9.756)"><g transform="translate(4,4)"><path fill-rule="evenodd" d="M8 0L8 4L10 4L10 3L11 3L11 4L12 4L12 2L11 2L11 0ZM12 0L12 1L13 1L13 0ZM15 0L15 1L14 1L14 2L15 2L15 1L16 1L16 0ZM18 0L18 2L16 2L16 3L15 3L15 4L14 4L14 3L13 3L13 5L11 5L11 6L10 6L10 7L9 7L9 5L8 5L8 7L9 7L9 8L10 8L10 7L11 7L11 6L12 6L12 8L11 8L11 9L9 9L9 10L11 10L11 11L10 11L10 13L11 13L11 12L12 12L12 13L13 13L13 14L14 14L14 13L15 13L15 15L16 15L16 14L17 14L17 16L14 16L14 17L13 17L13 15L12 15L12 16L11 16L11 15L10 15L10 14L9 14L9 12L8 12L8 14L6 14L6 13L7 13L7 12L5 12L5 11L8 11L8 9L7 9L7 8L4 8L4 9L3 9L3 12L1 12L1 13L0 13L0 14L1 14L1 15L0 15L0 18L2 18L2 19L3 19L3 20L0 20L0 22L1 22L1 21L4 21L4 22L6 22L6 23L5 23L5 25L8 25L8 26L10 26L10 28L9 28L9 27L8 27L8 29L9 29L9 31L8 31L8 33L12 33L12 31L13 31L13 30L14 30L14 29L15 29L15 32L14 32L14 33L15 33L15 32L16 32L16 31L17 31L17 33L18 33L18 32L19 32L19 33L20 33L20 32L19 32L19 30L17 30L17 29L18 29L18 27L19 27L19 26L17 26L17 25L18 25L18 24L19 24L19 25L20 25L20 28L19 28L19 29L23 29L23 33L25 33L25 31L24 31L24 30L25 30L25 29L26 29L26 31L28 31L28 32L27 32L27 33L28 33L28 32L29 32L29 33L30 33L30 31L29 31L29 27L31 27L31 28L32 28L32 29L30 29L30 30L31 30L31 31L32 31L32 30L33 30L33 27L32 27L32 26L31 26L31 25L32 25L32 24L33 24L33 23L31 23L31 22L32 22L32 21L33 21L33 19L32 19L32 18L31 18L31 17L30 17L30 18L29 18L29 19L28 19L28 20L26 20L26 19L27 19L27 18L28 18L28 17L29 17L29 16L30 16L30 14L31 14L31 16L32 16L32 17L33 17L33 16L32 16L32 14L31 14L31 13L29 13L29 10L28 10L28 11L27 11L27 12L25 12L25 13L22 13L22 12L24 12L24 11L25 11L25 10L24 10L24 9L25 9L25 8L24 8L24 9L22 9L22 8L23 8L23 6L22 6L22 7L21 7L21 5L25 5L25 2L24 2L24 3L22 3L22 2L23 2L23 1L25 1L25 0L23 0L23 1L22 1L22 0L21 0L21 1L22 1L22 2L21 2L21 3L22 3L22 4L21 4L21 5L18 5L18 4L17 4L17 3L19 3L19 2L20 2L20 1L19 1L19 0ZM9 2L9 3L10 3L10 2ZM16 4L16 5L15 5L15 7L14 7L14 5L13 5L13 8L12 8L12 9L11 9L11 10L12 10L12 9L14 9L14 11L12 11L12 12L13 12L13 13L14 13L14 12L15 12L15 9L17 9L17 10L16 10L16 11L18 11L18 12L19 12L19 11L20 11L20 12L21 12L21 10L22 10L22 11L23 11L23 10L22 10L22 9L21 9L21 8L20 8L20 9L19 9L19 10L18 10L18 9L17 9L17 7L18 7L18 8L19 8L19 7L20 7L20 6L19 6L19 7L18 7L18 5L17 5L17 4ZM16 6L16 7L15 7L15 8L14 8L14 9L15 9L15 8L16 8L16 7L17 7L17 6ZM24 6L24 7L25 7L25 6ZM0 8L0 11L1 11L1 9L2 9L2 8ZM27 8L27 9L28 9L28 8ZM29 8L29 9L31 9L31 12L32 12L32 13L33 13L33 12L32 12L32 9L33 9L33 8ZM5 9L5 10L4 10L4 11L5 11L5 10L7 10L7 9ZM20 9L20 10L21 10L21 9ZM4 12L4 13L5 13L5 12ZM16 12L16 13L17 13L17 12ZM1 13L1 14L3 14L3 13ZM19 13L19 15L18 15L18 16L19 16L19 15L21 15L21 14L22 14L22 13ZM25 13L25 14L24 14L24 15L25 15L25 16L22 16L22 17L19 17L19 18L18 18L18 17L17 17L17 19L16 19L16 20L15 20L15 18L16 18L16 17L14 17L14 19L13 19L13 20L12 20L12 23L11 23L11 22L10 22L10 21L11 21L11 19L10 19L10 18L12 18L12 17L10 17L10 18L8 18L8 17L6 17L6 18L5 18L5 15L6 15L6 16L9 16L9 14L8 14L8 15L6 15L6 14L5 14L5 15L3 15L3 17L2 17L2 18L3 18L3 17L4 17L4 21L6 21L6 22L7 22L7 23L6 23L6 24L9 24L9 23L10 23L10 24L11 24L11 25L12 25L12 24L13 24L13 25L14 25L14 26L13 26L13 27L12 27L12 28L11 28L11 29L10 29L10 31L9 31L9 32L11 32L11 29L14 29L14 28L15 28L15 29L17 29L17 26L16 26L16 28L15 28L15 25L14 25L14 22L15 22L15 21L16 21L16 20L17 20L17 19L18 19L18 21L17 21L17 23L15 23L15 24L16 24L16 25L17 25L17 23L19 23L19 24L20 24L20 25L21 25L21 26L22 26L22 25L24 25L24 23L25 23L25 22L26 22L26 24L27 24L27 23L28 23L28 24L29 24L29 26L30 26L30 25L31 25L31 23L30 23L30 24L29 24L29 23L28 23L28 22L31 22L31 20L32 20L32 19L30 19L30 21L25 21L25 22L24 22L24 23L23 23L23 20L22 20L22 25L21 25L21 24L20 24L20 21L21 21L21 19L23 19L23 18L22 18L22 17L25 17L25 16L27 16L27 17L26 17L26 18L27 18L27 17L28 17L28 16L27 16L27 15L26 15L26 14L28 14L28 15L29 15L29 13ZM1 15L1 16L2 16L2 15ZM6 18L6 19L5 19L5 20L6 20L6 21L8 21L8 20L10 20L10 19L8 19L8 18ZM6 19L6 20L8 20L8 19ZM14 20L14 21L13 21L13 22L14 22L14 21L15 21L15 20ZM19 20L19 21L20 21L20 20ZM2 22L2 24L0 24L0 25L2 25L2 24L4 24L4 23L3 23L3 22ZM8 22L8 23L9 23L9 22ZM25 25L25 28L28 28L28 25ZM23 26L23 27L22 27L22 28L23 28L23 29L24 29L24 28L23 28L23 27L24 27L24 26ZM26 26L26 27L27 27L27 26ZM21 30L21 33L22 33L22 30ZM32 32L32 33L33 33L33 32ZM0 0L0 7L7 7L7 0ZM1 1L1 6L6 6L6 1ZM2 2L2 5L5 5L5 2ZM26 0L26 7L33 7L33 0ZM27 1L27 6L32 6L32 1ZM28 2L28 5L31 5L31 2ZM0 26L0 33L7 33L7 26ZM1 27L1 32L6 32L6 27ZM2 28L2 31L5 31L5 28Z" fill="#000000"/></g></g></svg>
