<?xml version="1.0" encoding="UTF-8"?>
<svg xmlns="http://www.w3.org/2000/svg" version="1.1" width="400" height="400" viewBox="0 0 400 400"><rect x="0" y="0" width="400" height="400" fill="#fefefe"/><g transform="scale(9.756)"><g transform="translate(4,4)"><path fill-rule="evenodd" d="M8 0L8 1L9 1L9 2L10 2L10 3L11 3L11 1L13 1L13 0L11 0L11 1L9 1L9 0ZM16 0L16 1L18 1L18 0ZM20 0L20 1L19 1L19 2L18 2L18 3L17 3L17 2L16 2L16 4L17 4L17 5L16 5L16 8L15 8L15 6L14 6L14 5L15 5L15 3L14 3L14 2L15 2L15 1L14 1L14 2L12 2L12 4L11 4L11 5L10 5L10 4L9 4L9 5L10 5L10 8L9 8L9 6L8 6L8 8L9 8L9 9L7 9L7 8L6 8L6 9L7 9L7 10L5 10L5 8L3 8L3 9L2 9L2 8L0 8L0 10L1 10L1 12L2 12L2 10L3 10L3 9L4 9L4 12L3 12L3 13L4 13L4 12L5 12L5 11L7 11L7 10L10 10L10 11L8 11L8 12L6 12L6 13L5 13L5 14L2 14L2 16L1 16L1 17L0 17L0 20L1 20L1 18L3 18L3 20L2 20L2 21L3 21L3 23L5 23L5 22L6 22L6 23L8 23L8 26L9 26L9 27L11 27L11 29L10 29L10 28L8 28L8 30L9 30L9 31L8 31L8 33L9 33L9 31L10 31L10 33L11 33L11 32L12 32L12 30L13 30L13 32L15 32L15 33L18 33L18 32L17 32L17 31L18 31L18 29L17 29L17 30L16 30L16 28L15 28L15 27L16 27L16 26L17 26L17 24L18 24L18 23L19 23L19 25L20 25L20 26L19 26L19 27L18 27L18 28L20 28L20 29L19 29L19 33L21 33L21 31L20 31L20 30L21 30L21 27L20 27L20 26L21 26L21 25L20 25L20 24L21 24L21 23L23 23L23 24L22 24L22 31L23 31L23 32L22 32L22 33L23 33L23 32L24 32L24 33L25 33L25 32L24 32L24 31L25 31L25 30L24 30L24 31L23 31L23 29L29 29L29 30L28 30L28 31L26 31L26 32L27 32L27 33L28 33L28 31L29 31L29 30L30 30L30 32L29 32L29 33L30 33L30 32L33 32L33 30L32 30L32 31L31 31L31 29L33 29L33 28L32 28L32 27L29 27L29 25L30 25L30 26L31 26L31 25L32 25L32 24L33 24L33 22L32 22L32 23L30 23L30 22L29 22L29 21L30 21L30 20L31 20L31 21L32 21L32 19L33 19L33 15L31 15L31 13L30 13L30 12L32 12L32 13L33 13L33 12L32 12L32 11L33 11L33 10L30 10L30 12L29 12L29 11L28 11L28 10L29 10L29 9L28 9L28 10L27 10L27 11L28 11L28 12L29 12L29 14L27 14L27 15L29 15L29 14L30 14L30 16L28 16L28 19L26 19L26 20L23 20L23 19L24 19L24 18L25 18L25 17L24 17L24 16L23 16L23 17L24 17L24 18L22 18L22 17L21 17L21 18L20 18L20 16L21 16L21 13L20 13L20 11L19 11L19 10L21 10L21 11L22 11L22 10L21 10L21 6L20 6L20 7L19 7L19 6L18 6L18 4L19 4L19 5L21 5L21 4L22 4L22 9L23 9L23 11L24 11L24 12L22 12L22 14L24 14L24 15L25 15L25 14L26 14L26 13L27 13L27 12L26 12L26 11L24 11L24 9L25 9L25 10L26 10L26 9L27 9L27 8L26 8L26 9L25 9L25 8L24 8L24 9L23 9L23 6L24 6L24 7L25 7L25 6L24 6L24 5L25 5L25 4L24 4L24 5L23 5L23 3L25 3L25 2L23 2L23 0L22 0L22 2L20 2L20 1L21 1L21 0ZM24 0L24 1L25 1L25 0ZM19 2L19 4L21 4L21 3L20 3L20 2ZM22 2L22 3L23 3L23 2ZM12 4L12 5L11 5L11 7L12 7L12 9L10 9L10 10L12 10L12 11L13 11L13 13L11 13L11 12L10 12L10 13L9 13L9 12L8 12L8 14L7 14L7 13L6 13L6 14L7 14L7 15L4 15L4 16L5 16L5 17L6 17L6 18L7 18L7 19L6 19L6 20L5 20L5 19L4 19L4 22L5 22L5 21L6 21L6 22L8 22L8 23L11 23L11 24L9 24L9 25L10 25L10 26L11 26L11 27L12 27L12 29L11 29L11 30L10 30L10 29L9 29L9 30L10 30L10 31L11 31L11 30L12 30L12 29L13 29L13 30L14 30L14 29L13 29L13 28L14 28L14 27L15 27L15 25L16 25L16 24L17 24L17 23L18 23L18 22L19 22L19 23L21 23L21 22L19 22L19 20L18 20L18 18L17 18L17 17L18 17L18 15L19 15L19 16L20 16L20 15L19 15L19 14L20 14L20 13L19 13L19 14L16 14L16 16L15 16L15 18L17 18L17 20L16 20L16 19L15 19L15 20L13 20L13 19L14 19L14 17L13 17L13 18L12 18L12 19L11 19L11 18L10 18L10 19L9 19L9 18L8 18L8 16L7 16L7 15L8 15L8 14L13 14L13 13L14 13L14 15L12 15L12 16L11 16L11 15L9 15L9 16L10 16L10 17L12 17L12 16L14 16L14 15L15 15L15 13L16 13L16 11L13 11L13 10L15 10L15 8L13 8L13 7L14 7L14 6L13 6L13 7L12 7L12 5L14 5L14 4ZM17 6L17 8L18 8L18 6ZM19 8L19 9L20 9L20 8ZM32 8L32 9L33 9L33 8ZM12 9L12 10L13 10L13 9ZM16 9L16 10L17 10L17 11L18 11L18 9ZM14 12L14 13L15 13L15 12ZM17 12L17 13L18 13L18 12ZM25 12L25 13L24 13L24 14L25 14L25 13L26 13L26 12ZM0 14L0 15L1 15L1 14ZM6 16L6 17L7 17L7 16ZM16 16L16 17L17 17L17 16ZM26 16L26 18L27 18L27 16ZM30 16L30 17L31 17L31 16ZM3 17L3 18L4 18L4 17ZM30 18L30 19L28 19L28 20L26 20L26 22L24 22L24 23L26 23L26 24L28 24L28 23L29 23L29 22L28 22L28 21L29 21L29 20L30 20L30 19L32 19L32 18ZM7 19L7 20L6 20L6 21L9 21L9 22L10 22L10 21L11 21L11 23L12 23L12 24L11 24L11 26L12 26L12 27L14 27L14 25L15 25L15 24L16 24L16 20L15 20L15 23L14 23L14 25L13 25L13 22L12 22L12 20L8 20L8 19ZM20 19L20 20L21 20L21 21L22 21L22 19ZM17 20L17 21L18 21L18 20ZM0 21L0 25L5 25L5 24L1 24L1 21ZM26 22L26 23L27 23L27 22ZM6 24L6 25L7 25L7 24ZM30 24L30 25L31 25L31 24ZM23 25L23 26L24 26L24 25ZM25 25L25 28L28 28L28 25ZM26 26L26 27L27 27L27 26ZM30 28L30 29L31 29L31 28ZM15 31L15 32L16 32L16 31ZM0 0L0 7L7 7L7 0ZM1 1L1 6L6 6L6 1ZM2 2L2 5L5 5L5 2ZM26 0L26 7L33 7L33 0ZM27 1L27 6L32 6L32 1ZM28 2L28 5L31 5L31 2ZM0 26L0 33L7 33L7 26ZM1 27L1 32L6 32L6 27ZM2 28L2 31L5 31L5 28Z" fill="#000000"/></g></g></svg>
