<?xml version="1.0" encoding="UTF-8"?>
<svg xmlns="http://www.w3.org/2000/svg" version="1.1" width="400" height="400" viewBox="0 0 400 400"><rect x="0" y="0" width="400" height="400" fill="#fefefe"/><g transform="scale(9.756)"><g transform="translate(4,4)"><path fill-rule="evenodd" d="M9 0L9 1L8 1L8 2L9 2L9 3L8 3L8 4L9 4L9 3L10 3L10 5L8 5L8 7L9 7L9 8L6 8L6 9L7 9L7 10L6 10L6 11L4 11L4 9L5 9L5 8L0 8L0 13L1 13L1 12L3 12L3 11L4 11L4 13L5 13L5 14L3 14L3 13L2 13L2 14L1 14L1 15L0 15L0 16L1 16L1 17L2 17L2 18L3 18L3 17L5 17L5 18L4 18L4 19L5 19L5 18L6 18L6 19L7 19L7 20L3 20L3 21L0 21L0 25L1 25L1 22L2 22L2 23L3 23L3 22L4 22L4 21L7 21L7 20L8 20L8 18L9 18L9 20L10 20L10 18L12 18L12 19L14 19L14 18L15 18L15 21L14 21L14 20L11 20L11 21L10 21L10 23L11 23L11 24L12 24L12 25L11 25L11 26L13 26L13 25L14 25L14 26L15 26L15 29L14 29L14 28L13 28L13 27L12 27L12 28L13 28L13 29L11 29L11 28L10 28L10 24L9 24L9 21L8 21L8 22L5 22L5 23L4 23L4 25L5 25L5 24L6 24L6 25L8 25L8 27L9 27L9 28L8 28L8 33L10 33L10 32L11 32L11 31L10 31L10 32L9 32L9 29L11 29L11 30L12 30L12 31L13 31L13 29L14 29L14 30L15 30L15 33L16 33L16 32L17 32L17 33L18 33L18 32L17 32L17 31L16 31L16 30L17 30L17 29L18 29L18 28L19 28L19 27L18 27L18 28L17 28L17 25L18 25L18 24L17 24L17 23L19 23L19 22L20 22L20 21L21 21L21 20L22 20L22 19L21 19L21 18L25 18L25 20L23 20L23 22L21 22L21 23L20 23L20 24L23 24L23 22L25 22L25 24L24 24L24 26L23 26L23 25L22 25L22 26L21 26L21 25L19 25L19 26L21 26L21 28L20 28L20 29L19 29L19 30L20 30L20 29L21 29L21 30L23 30L23 32L22 32L22 31L21 31L21 32L22 32L22 33L23 33L23 32L24 32L24 33L25 33L25 32L24 32L24 31L27 31L27 30L29 30L29 32L31 32L31 33L32 33L32 32L31 32L31 31L32 31L32 30L31 30L31 29L33 29L33 28L32 28L32 26L33 26L33 23L30 23L30 24L32 24L32 25L30 25L30 26L31 26L31 27L29 27L29 24L28 24L28 23L29 23L29 22L28 22L28 21L30 21L30 20L31 20L31 19L32 19L32 20L33 20L33 19L32 19L32 18L33 18L33 17L32 17L32 14L33 14L33 13L32 13L32 10L33 10L33 9L32 9L32 8L31 8L31 9L32 9L32 10L29 10L29 12L28 12L28 11L27 11L27 10L28 10L28 8L27 8L27 9L26 9L26 8L24 8L24 9L21 9L21 8L23 8L23 6L22 6L22 4L23 4L23 5L24 5L24 7L25 7L25 4L23 4L23 1L24 1L24 3L25 3L25 0L23 0L23 1L21 1L21 0L18 0L18 2L19 2L19 3L17 3L17 4L19 4L19 5L20 5L20 7L19 7L19 6L18 6L18 7L19 7L19 8L17 8L17 6L16 6L16 5L15 5L15 6L14 6L14 5L13 5L13 4L14 4L14 3L13 3L13 2L14 2L14 1L15 1L15 2L16 2L16 1L15 1L15 0ZM10 1L10 3L11 3L11 2L12 2L12 1ZM19 1L19 2L20 2L20 3L19 3L19 4L20 4L20 5L21 5L21 4L22 4L22 3L21 3L21 1ZM12 3L12 4L13 4L13 3ZM15 3L15 4L16 4L16 3ZM20 3L20 4L21 4L21 3ZM11 5L11 7L12 7L12 5ZM9 6L9 7L10 7L10 6ZM13 6L13 8L14 8L14 9L13 9L13 10L14 10L14 11L12 11L12 10L11 10L11 9L12 9L12 8L10 8L10 9L9 9L9 10L7 10L7 11L6 11L6 12L7 12L7 13L6 13L6 14L7 14L7 15L6 15L6 16L5 16L5 15L3 15L3 14L2 14L2 16L5 16L5 17L6 17L6 18L8 18L8 17L9 17L9 18L10 18L10 17L12 17L12 16L11 16L11 15L12 15L12 14L13 14L13 16L14 16L14 17L13 17L13 18L14 18L14 17L16 17L16 15L15 15L15 14L16 14L16 13L17 13L17 12L18 12L18 11L16 11L16 12L15 12L15 10L16 10L16 9L17 9L17 10L18 10L18 9L17 9L17 8L16 8L16 9L15 9L15 7L16 7L16 6L15 6L15 7L14 7L14 6ZM21 6L21 7L22 7L22 6ZM19 8L19 9L20 9L20 10L19 10L19 11L20 11L20 12L19 12L19 13L20 13L20 14L17 14L17 16L18 16L18 15L20 15L20 16L19 16L19 17L20 17L20 18L19 18L19 19L20 19L20 20L18 20L18 19L17 19L17 18L18 18L18 17L17 17L17 18L16 18L16 19L17 19L17 20L18 20L18 21L17 21L17 22L16 22L16 21L15 21L15 22L16 22L16 23L13 23L13 24L14 24L14 25L15 25L15 26L16 26L16 25L17 25L17 24L16 24L16 23L17 23L17 22L19 22L19 21L20 21L20 20L21 20L21 19L20 19L20 18L21 18L21 17L25 17L25 18L26 18L26 17L28 17L28 18L27 18L27 19L26 19L26 21L25 21L25 22L26 22L26 24L27 24L27 23L28 23L28 22L26 22L26 21L28 21L28 20L30 20L30 19L31 19L31 18L30 18L30 17L31 17L31 16L30 16L30 14L29 14L29 13L31 13L31 12L29 12L29 13L27 13L27 11L26 11L26 10L25 10L25 9L24 9L24 10L23 10L23 11L22 11L22 12L21 12L21 9L20 9L20 8ZM29 8L29 9L30 9L30 8ZM1 9L1 10L2 10L2 9ZM14 9L14 10L15 10L15 9ZM10 10L10 11L11 11L11 12L9 12L9 11L8 11L8 13L7 13L7 14L8 14L8 13L9 13L9 14L10 14L10 13L11 13L11 14L12 14L12 13L11 13L11 12L12 12L12 11L11 11L11 10ZM24 10L24 11L25 11L25 10ZM13 12L13 13L14 13L14 14L15 14L15 13L14 13L14 12ZM20 12L20 13L21 13L21 14L20 14L20 15L21 15L21 16L20 16L20 17L21 17L21 16L23 16L23 14L24 14L24 15L26 15L26 14L27 14L27 15L29 15L29 14L27 14L27 13L26 13L26 12L25 12L25 13L21 13L21 12ZM25 13L25 14L26 14L26 13ZM21 14L21 15L22 15L22 14ZM9 15L9 16L10 16L10 15ZM6 16L6 17L7 17L7 16ZM28 16L28 17L29 17L29 16ZM1 19L1 20L2 20L2 19ZM27 19L27 20L28 20L28 19ZM13 21L13 22L14 22L14 21ZM32 21L32 22L33 22L33 21ZM11 22L11 23L12 23L12 22ZM6 23L6 24L8 24L8 25L9 25L9 24L8 24L8 23ZM25 25L25 28L28 28L28 25ZM22 26L22 27L23 27L23 26ZM26 26L26 27L27 27L27 26ZM16 28L16 29L15 29L15 30L16 30L16 29L17 29L17 28ZM21 28L21 29L24 29L24 30L27 30L27 29L24 29L24 28ZM29 28L29 30L30 30L30 29L31 29L31 28ZM19 31L19 32L20 32L20 31ZM13 32L13 33L14 33L14 32ZM26 32L26 33L28 33L28 32ZM0 0L0 7L7 7L7 0ZM1 1L1 6L6 6L6 1ZM2 2L2 5L5 5L5 2ZM26 0L26 7L33 7L33 0ZM27 1L27 6L32 6L32 1ZM28 2L28 5L31 5L31 2ZM0 26L0 33L7 33L7 26ZM1 27L1 32L6 32L6 27ZM2 28L2 31L5 31L5 28Z" fill="#000000"/></g></g></svg>
