<?xml version="1.0" encoding="UTF-8"?>
<svg xmlns="http://www.w3.org/2000/svg" version="1.1" width="400" height="400" viewBox="0 0 400 400"><rect x="0" y="0" width="400" height="400" fill="#fefefe"/><g transform="scale(9.756)"><g transform="translate(4,4)"><path fill-rule="evenodd" d="M10 0L10 2L11 2L11 0ZM12 0L12 1L13 1L13 2L12 2L12 4L14 4L14 3L13 3L13 2L14 2L14 1L15 1L15 2L16 2L16 1L15 1L15 0ZM19 0L19 1L20 1L20 0ZM23 0L23 1L21 1L21 2L18 2L18 1L17 1L17 2L18 2L18 3L17 3L17 4L19 4L19 5L18 5L18 8L17 8L17 6L16 6L16 5L15 5L15 6L14 6L14 5L11 5L11 6L10 6L10 4L11 4L11 3L8 3L8 4L9 4L9 5L8 5L8 7L9 7L9 8L6 8L6 9L10 9L10 11L11 11L11 9L12 9L12 10L13 10L13 11L12 11L12 13L14 13L14 14L15 14L15 15L16 15L16 17L14 17L14 16L12 16L12 15L13 15L13 14L9 14L9 15L8 15L8 16L5 16L5 15L7 15L7 14L8 14L8 13L7 13L7 12L6 12L6 13L5 13L5 15L4 15L4 13L3 13L3 12L5 12L5 10L4 10L4 11L2 11L2 10L1 10L1 9L5 9L5 8L0 8L0 10L1 10L1 12L2 12L2 13L1 13L1 14L0 14L0 15L1 15L1 16L0 16L0 17L1 17L1 19L2 19L2 22L4 22L4 24L3 24L3 23L2 23L2 24L3 24L3 25L8 25L8 27L11 27L11 26L13 26L13 25L14 25L14 26L15 26L15 29L14 29L14 28L13 28L13 27L12 27L12 28L11 28L11 29L10 29L10 28L8 28L8 33L11 33L11 32L12 32L12 31L13 31L13 29L14 29L14 30L15 30L15 33L16 33L16 32L17 32L17 33L18 33L18 32L17 32L17 31L16 31L16 30L17 30L17 29L18 29L18 28L19 28L19 27L18 27L18 28L17 28L17 25L18 25L18 24L17 24L17 23L19 23L19 22L20 22L20 25L19 25L19 26L20 26L20 25L21 25L21 26L22 26L22 27L20 27L20 28L22 28L22 29L19 29L19 30L21 30L21 32L19 32L19 33L21 33L21 32L22 32L22 31L23 31L23 30L24 30L24 31L25 31L25 30L26 30L26 31L27 31L27 30L29 30L29 32L31 32L31 33L32 33L32 32L31 32L31 31L32 31L32 30L31 30L31 29L32 29L32 28L33 28L33 27L32 27L32 26L33 26L33 23L30 23L30 24L32 24L32 25L30 25L30 26L31 26L31 27L29 27L29 24L27 24L27 23L29 23L29 22L28 22L28 21L30 21L30 20L31 20L31 19L32 19L32 20L33 20L33 19L32 19L32 18L33 18L33 17L32 17L32 14L33 14L33 13L32 13L32 10L33 10L33 9L32 9L32 8L31 8L31 9L32 9L32 10L29 10L29 12L28 12L28 11L27 11L27 12L28 12L28 13L26 13L26 12L25 12L25 13L23 13L23 12L22 12L22 11L23 11L23 10L24 10L24 11L26 11L26 10L27 10L27 9L28 9L28 8L27 8L27 9L26 9L26 8L25 8L25 9L21 9L21 8L24 8L24 7L25 7L25 6L24 6L24 7L23 7L23 6L22 6L22 5L25 5L25 4L22 4L22 5L21 5L21 4L19 4L19 3L24 3L24 2L25 2L25 0ZM8 1L8 2L9 2L9 1ZM23 1L23 2L24 2L24 1ZM15 3L15 4L16 4L16 3ZM19 5L19 8L21 8L21 7L22 7L22 6L21 6L21 7L20 7L20 5ZM9 6L9 7L10 7L10 6ZM11 6L11 7L12 7L12 9L13 9L13 10L14 10L14 11L13 11L13 12L14 12L14 13L15 13L15 14L16 14L16 13L17 13L17 12L18 12L18 11L16 11L16 12L15 12L15 10L16 10L16 9L17 9L17 10L18 10L18 9L17 9L17 8L16 8L16 9L15 9L15 7L16 7L16 6L15 6L15 7L14 7L14 6L13 6L13 7L12 7L12 6ZM10 8L10 9L11 9L11 8ZM13 8L13 9L14 9L14 10L15 10L15 9L14 9L14 8ZM29 8L29 9L30 9L30 8ZM20 9L20 10L19 10L19 13L20 13L20 14L17 14L17 16L18 16L18 15L20 15L20 16L19 16L19 17L22 17L22 19L23 19L23 20L21 20L21 19L20 19L20 18L19 18L19 20L18 20L18 19L17 19L17 18L18 18L18 17L17 17L17 18L16 18L16 19L17 19L17 20L18 20L18 21L17 21L17 22L16 22L16 21L15 21L15 18L14 18L14 17L13 17L13 18L12 18L12 17L11 17L11 18L10 18L10 16L11 16L11 15L10 15L10 16L8 16L8 17L6 17L6 18L5 18L5 16L4 16L4 18L2 18L2 19L3 19L3 21L4 21L4 22L7 22L7 23L5 23L5 24L8 24L8 25L9 25L9 24L8 24L8 20L12 20L12 22L11 22L11 21L9 21L9 22L10 22L10 23L12 23L12 22L13 22L13 24L14 24L14 25L15 25L15 26L16 26L16 25L17 25L17 24L16 24L16 23L17 23L17 22L19 22L19 20L21 20L21 21L20 21L20 22L23 22L23 23L24 23L24 22L23 22L23 20L25 20L25 18L26 18L26 17L27 17L27 18L28 18L28 20L27 20L27 19L26 19L26 21L25 21L25 24L26 24L26 23L27 23L27 22L26 22L26 21L28 21L28 20L30 20L30 19L31 19L31 18L30 18L30 17L31 17L31 16L30 16L30 14L29 14L29 13L31 13L31 12L29 12L29 13L28 13L28 15L27 15L27 14L26 14L26 13L25 13L25 15L24 15L24 14L23 14L23 13L22 13L22 12L21 12L21 13L20 13L20 11L22 11L22 10L21 10L21 9ZM25 9L25 10L26 10L26 9ZM6 10L6 11L8 11L8 12L9 12L9 13L11 13L11 12L9 12L9 11L8 11L8 10ZM2 13L2 14L1 14L1 15L2 15L2 16L1 16L1 17L3 17L3 15L2 15L2 14L3 14L3 13ZM6 13L6 14L7 14L7 13ZM21 13L21 14L20 14L20 15L21 15L21 16L22 16L22 17L23 17L23 18L25 18L25 17L23 17L23 15L22 15L22 13ZM25 15L25 16L27 16L27 17L29 17L29 16L27 16L27 15ZM8 17L8 18L6 18L6 19L7 19L7 20L4 20L4 21L7 21L7 20L8 20L8 19L9 19L9 17ZM4 18L4 19L5 19L5 18ZM13 18L13 19L14 19L14 18ZM13 20L13 21L14 21L14 24L15 24L15 23L16 23L16 22L15 22L15 21L14 21L14 20ZM0 21L0 25L1 25L1 21ZM32 21L32 22L33 22L33 21ZM10 24L10 25L12 25L12 24ZM21 24L21 25L23 25L23 26L24 26L24 24ZM25 25L25 28L28 28L28 25ZM26 26L26 27L27 27L27 26ZM12 28L12 29L13 29L13 28ZM16 28L16 29L15 29L15 30L16 30L16 29L17 29L17 28ZM23 28L23 29L22 29L22 30L23 30L23 29L24 29L24 30L25 30L25 29L24 29L24 28ZM29 28L29 30L30 30L30 29L31 29L31 28ZM9 29L9 32L11 32L11 31L12 31L12 30L11 30L11 31L10 31L10 29ZM26 29L26 30L27 30L27 29ZM13 32L13 33L14 33L14 32ZM23 32L23 33L25 33L25 32ZM26 32L26 33L28 33L28 32ZM0 0L0 7L7 7L7 0ZM1 1L1 6L6 6L6 1ZM2 2L2 5L5 5L5 2ZM26 0L26 7L33 7L33 0ZM27 1L27 6L32 6L32 1ZM28 2L28 5L31 5L31 2ZM0 26L0 33L7 33L7 26ZM1 27L1 32L6 32L6 27ZM2 28L2 31L5 31L5 28Z" fill="#000000"/></g></g></svg>
