<?xml version="1.0" encoding="UTF-8"?>
<svg xmlns="http://www.w3.org/2000/svg" version="1.1" width="400" height="400" viewBox="0 0 400 400"><rect x="0" y="0" width="400" height="400" fill="#fefefe"/><g transform="scale(9.756)"><g transform="translate(4,4)"><path fill-rule="evenodd" d="M9 0L9 1L8 1L8 2L9 2L9 3L8 3L8 4L9 4L9 3L10 3L10 5L8 5L8 7L9 7L9 8L6 8L6 9L7 9L7 10L5 10L5 14L4 14L4 15L5 15L5 14L6 14L6 15L7 15L7 16L5 16L5 18L6 18L6 19L3 19L3 18L4 18L4 16L3 16L3 17L2 17L2 15L3 15L3 13L4 13L4 12L2 12L2 11L4 11L4 10L3 10L3 9L5 9L5 8L0 8L0 15L1 15L1 16L0 16L0 18L1 18L1 19L3 19L3 20L0 20L0 25L1 25L1 22L2 22L2 25L8 25L8 27L9 27L9 28L8 28L8 33L9 33L9 32L11 32L11 33L12 33L12 32L13 32L13 33L14 33L14 32L15 32L15 33L16 33L16 32L17 32L17 33L18 33L18 32L17 32L17 31L16 31L16 30L17 30L17 29L18 29L18 28L20 28L20 27L18 27L18 28L17 28L17 25L18 25L18 24L17 24L17 23L19 23L19 22L20 22L20 23L21 23L21 24L24 24L24 25L19 25L19 26L21 26L21 28L23 28L23 27L24 27L24 29L19 29L19 30L23 30L23 31L19 31L19 32L22 32L22 33L23 33L23 32L24 32L24 33L25 33L25 32L26 32L26 33L28 33L28 32L31 32L31 33L32 33L32 32L31 32L31 31L32 31L32 30L31 30L31 29L33 29L33 28L32 28L32 26L33 26L33 23L30 23L30 24L32 24L32 25L30 25L30 26L31 26L31 27L29 27L29 24L24 24L24 23L26 23L26 22L27 22L27 23L29 23L29 22L27 22L27 21L30 21L30 20L31 20L31 19L32 19L32 20L33 20L33 19L32 19L32 18L33 18L33 17L32 17L32 14L33 14L33 13L32 13L32 10L33 10L33 9L32 9L32 8L31 8L31 9L32 9L32 10L29 10L29 12L28 12L28 11L25 11L25 12L27 12L27 13L22 13L22 14L21 14L21 13L19 13L19 10L20 10L20 11L21 11L21 12L23 12L23 10L28 10L28 8L27 8L27 9L26 9L26 8L25 8L25 4L23 4L23 3L25 3L25 2L23 2L23 1L25 1L25 0L23 0L23 1L21 1L21 0L18 0L18 2L19 2L19 3L17 3L17 5L18 5L18 8L17 8L17 6L16 6L16 5L15 5L15 6L14 6L14 5L13 5L13 4L14 4L14 3L13 3L13 2L14 2L14 1L15 1L15 2L16 2L16 1L15 1L15 0ZM10 1L10 3L11 3L11 2L12 2L12 1ZM19 1L19 2L20 2L20 1ZM12 3L12 4L13 4L13 3ZM15 3L15 4L16 4L16 3ZM19 3L19 4L18 4L18 5L19 5L19 7L20 7L20 8L19 8L19 9L20 9L20 10L21 10L21 9L23 9L23 8L24 8L24 9L25 9L25 8L24 8L24 5L23 5L23 4L22 4L22 3L21 3L21 4L20 4L20 3ZM19 4L19 5L20 5L20 4ZM21 4L21 6L20 6L20 7L21 7L21 8L20 8L20 9L21 9L21 8L23 8L23 6L22 6L22 4ZM11 5L11 7L12 7L12 5ZM9 6L9 7L10 7L10 6ZM13 6L13 8L14 8L14 9L13 9L13 10L14 10L14 11L12 11L12 10L11 10L11 9L12 9L12 8L10 8L10 9L8 9L8 11L6 11L6 12L7 12L7 13L6 13L6 14L7 14L7 15L10 15L10 14L11 14L11 15L12 15L12 14L13 14L13 16L14 16L14 17L13 17L13 18L14 18L14 19L12 19L12 18L11 18L11 17L12 17L12 16L11 16L11 17L10 17L10 16L7 16L7 17L6 17L6 18L7 18L7 19L6 19L6 20L7 20L7 19L8 19L8 21L6 21L6 22L4 22L4 20L3 20L3 23L4 23L4 24L5 24L5 23L6 23L6 24L7 24L7 23L9 23L9 24L8 24L8 25L9 25L9 24L10 24L10 26L9 26L9 27L11 27L11 28L10 28L10 30L9 30L9 31L10 31L10 30L11 30L11 32L12 32L12 31L13 31L13 32L14 32L14 31L15 31L15 30L16 30L16 29L17 29L17 28L16 28L16 29L15 29L15 26L16 26L16 25L17 25L17 24L16 24L16 23L17 23L17 22L19 22L19 21L20 21L20 22L23 22L23 23L24 23L24 22L23 22L23 20L25 20L25 21L27 21L27 19L26 19L26 20L25 20L25 18L26 18L26 17L27 17L27 18L29 18L29 19L28 19L28 20L30 20L30 19L31 19L31 18L30 18L30 17L31 17L31 16L30 16L30 14L29 14L29 13L31 13L31 12L29 12L29 13L27 13L27 14L26 14L26 15L24 15L24 14L22 14L22 16L21 16L21 15L20 15L20 14L17 14L17 16L18 16L18 15L20 15L20 16L19 16L19 17L20 17L20 18L19 18L19 20L18 20L18 19L17 19L17 18L18 18L18 17L17 17L17 18L16 18L16 19L17 19L17 20L18 20L18 21L17 21L17 22L16 22L16 21L15 21L15 18L14 18L14 17L16 17L16 15L15 15L15 14L16 14L16 13L17 13L17 12L18 12L18 11L16 11L16 12L15 12L15 10L16 10L16 9L17 9L17 10L18 10L18 9L17 9L17 8L16 8L16 9L15 9L15 7L16 7L16 6L15 6L15 7L14 7L14 6ZM21 6L21 7L22 7L22 6ZM29 8L29 9L30 9L30 8ZM14 9L14 10L15 10L15 9ZM1 10L1 11L2 11L2 10ZM10 10L10 11L11 11L11 12L9 12L9 11L8 11L8 12L9 12L9 13L11 13L11 14L12 14L12 13L11 13L11 12L12 12L12 11L11 11L11 10ZM1 12L1 15L2 15L2 12ZM13 12L13 13L14 13L14 14L15 14L15 13L14 13L14 12ZM27 14L27 15L26 15L26 16L27 16L27 17L29 17L29 16L27 16L27 15L28 15L28 14ZM20 16L20 17L21 17L21 20L20 20L20 21L21 21L21 20L23 20L23 19L22 19L22 18L25 18L25 17L21 17L21 16ZM7 17L7 18L9 18L9 21L8 21L8 22L9 22L9 23L10 23L10 24L12 24L12 25L11 25L11 26L12 26L12 27L13 27L13 25L14 25L14 26L15 26L15 25L14 25L14 24L13 24L13 23L16 23L16 22L15 22L15 21L14 21L14 20L11 20L11 19L10 19L10 18L9 18L9 17ZM9 21L9 22L10 22L10 21ZM13 21L13 22L14 22L14 21ZM32 21L32 22L33 22L33 21ZM6 22L6 23L7 23L7 22ZM11 22L11 23L12 23L12 22ZM25 25L25 28L28 28L28 25ZM22 26L22 27L23 27L23 26ZM26 26L26 27L27 27L27 26ZM13 28L13 29L11 29L11 30L13 30L13 29L14 29L14 30L15 30L15 29L14 29L14 28ZM29 28L29 30L27 30L27 29L24 29L24 30L27 30L27 31L26 31L26 32L27 32L27 31L29 31L29 30L30 30L30 29L31 29L31 28ZM24 31L24 32L25 32L25 31ZM0 0L0 7L7 7L7 0ZM1 1L1 6L6 6L6 1ZM2 2L2 5L5 5L5 2ZM26 0L26 7L33 7L33 0ZM27 1L27 6L32 6L32 1ZM28 2L28 5L31 5L31 2ZM0 26L0 33L7 33L7 26ZM1 27L1 32L6 32L6 27ZM2 28L2 31L5 31L5 28Z" fill="#000000"/></g></g></svg>
