<?xml version="1.0" encoding="UTF-8"?>
<svg xmlns="http://www.w3.org/2000/svg" version="1.1" width="400" height="400" viewBox="0 0 400 400"><rect x="0" y="0" width="400" height="400" fill="#fefefe"/><g transform="scale(9.756)"><g transform="translate(4,4)"><path fill-rule="evenodd" d="M9 0L9 1L8 1L8 2L9 2L9 3L8 3L8 4L9 4L9 3L10 3L10 5L8 5L8 7L9 7L9 8L6 8L6 9L7 9L7 10L5 10L5 8L0 8L0 9L1 9L1 11L0 11L0 12L1 12L1 13L0 13L0 14L1 14L1 15L2 15L2 14L4 14L4 15L3 15L3 18L4 18L4 17L8 17L8 15L7 15L7 14L10 14L10 15L11 15L11 16L12 16L12 17L9 17L9 18L8 18L8 21L7 21L7 20L6 20L6 21L5 21L5 19L2 19L2 20L0 20L0 25L1 25L1 21L2 21L2 20L3 20L3 22L2 22L2 25L7 25L7 24L8 24L8 27L9 27L9 28L8 28L8 33L9 33L9 31L10 31L10 33L11 33L11 30L12 30L12 31L13 31L13 29L14 29L14 30L15 30L15 31L14 31L14 32L13 32L13 33L14 33L14 32L15 32L15 33L16 33L16 32L17 32L17 33L18 33L18 32L17 32L17 31L16 31L16 30L17 30L17 29L18 29L18 28L20 28L20 29L19 29L19 30L20 30L20 33L21 33L21 32L24 32L24 33L25 33L25 32L24 32L24 31L28 31L28 32L26 32L26 33L28 33L28 32L31 32L31 33L32 33L32 32L31 32L31 31L32 31L32 30L31 30L31 29L33 29L33 28L32 28L32 26L33 26L33 23L30 23L30 24L32 24L32 25L30 25L30 26L31 26L31 27L29 27L29 24L28 24L28 22L27 22L27 21L30 21L30 20L31 20L31 19L32 19L32 20L33 20L33 19L32 19L32 18L33 18L33 17L32 17L32 14L33 14L33 13L32 13L32 10L33 10L33 9L32 9L32 8L31 8L31 9L32 9L32 10L28 10L28 8L27 8L27 9L26 9L26 8L25 8L25 6L24 6L24 7L23 7L23 6L22 6L22 5L24 5L24 4L25 4L25 3L24 3L24 4L22 4L22 5L21 5L21 4L19 4L19 3L20 3L20 2L21 2L21 3L23 3L23 1L25 1L25 0L23 0L23 1L21 1L21 0L18 0L18 1L17 1L17 2L18 2L18 3L17 3L17 4L19 4L19 5L17 5L17 6L16 6L16 5L15 5L15 6L14 6L14 5L13 5L13 4L14 4L14 3L13 3L13 2L14 2L14 1L15 1L15 2L16 2L16 1L15 1L15 0ZM10 1L10 3L11 3L11 2L12 2L12 1ZM19 1L19 2L20 2L20 1ZM12 3L12 4L13 4L13 3ZM15 3L15 4L16 4L16 3ZM11 5L11 7L12 7L12 5ZM19 5L19 7L20 7L20 5ZM9 6L9 7L10 7L10 6ZM13 6L13 8L14 8L14 9L13 9L13 10L14 10L14 11L12 11L12 10L11 10L11 9L12 9L12 8L10 8L10 9L8 9L8 10L7 10L7 11L5 11L5 12L4 12L4 14L5 14L5 15L4 15L4 16L7 16L7 15L6 15L6 14L7 14L7 13L8 13L8 12L7 12L7 11L9 11L9 12L11 12L11 13L10 13L10 14L11 14L11 15L12 15L12 14L13 14L13 16L14 16L14 17L13 17L13 18L14 18L14 19L12 19L12 18L11 18L11 20L10 20L10 19L9 19L9 22L7 22L7 21L6 21L6 22L7 22L7 23L4 23L4 24L7 24L7 23L8 23L8 24L11 24L11 25L10 25L10 26L11 26L11 27L10 27L10 28L11 28L11 29L10 29L10 30L11 30L11 29L13 29L13 28L14 28L14 29L15 29L15 30L16 30L16 29L17 29L17 28L18 28L18 27L20 27L20 28L21 28L21 29L20 29L20 30L21 30L21 29L22 29L22 30L23 30L23 31L24 31L24 28L23 28L23 29L22 29L22 28L21 28L21 27L20 27L20 26L19 26L19 25L22 25L22 26L24 26L24 24L25 24L25 23L26 23L26 24L27 24L27 23L26 23L26 22L25 22L25 23L24 23L24 22L23 22L23 20L25 20L25 21L27 21L27 20L30 20L30 19L31 19L31 18L30 18L30 17L31 17L31 16L30 16L30 14L29 14L29 13L31 13L31 12L29 12L29 11L28 11L28 12L29 12L29 13L27 13L27 10L26 10L26 11L25 11L25 10L23 10L23 9L25 9L25 8L23 8L23 9L22 9L22 8L21 8L21 9L20 9L20 8L19 8L19 9L20 9L20 10L19 10L19 13L20 13L20 14L17 14L17 16L18 16L18 15L20 15L20 16L19 16L19 17L20 17L20 18L19 18L19 20L18 20L18 19L17 19L17 18L18 18L18 17L17 17L17 18L16 18L16 19L17 19L17 20L18 20L18 21L17 21L17 22L16 22L16 21L15 21L15 18L14 18L14 17L16 17L16 15L15 15L15 14L16 14L16 13L17 13L17 12L18 12L18 11L16 11L16 12L15 12L15 10L16 10L16 9L17 9L17 10L18 10L18 9L17 9L17 8L18 8L18 6L17 6L17 8L16 8L16 9L15 9L15 7L16 7L16 6L15 6L15 7L14 7L14 6ZM21 6L21 7L22 7L22 6ZM29 8L29 9L30 9L30 8ZM3 9L3 10L2 10L2 11L1 11L1 12L2 12L2 11L4 11L4 9ZM14 9L14 10L15 10L15 9ZM21 9L21 10L20 10L20 13L21 13L21 14L22 14L22 13L23 13L23 14L24 14L24 15L25 15L25 16L26 16L26 15L25 15L25 14L27 14L27 13L25 13L25 11L24 11L24 13L23 13L23 12L22 12L22 11L21 11L21 10L22 10L22 9ZM10 10L10 11L11 11L11 12L12 12L12 11L11 11L11 10ZM5 12L5 14L6 14L6 13L7 13L7 12ZM13 12L13 13L14 13L14 14L15 14L15 13L14 13L14 12ZM21 12L21 13L22 13L22 12ZM11 13L11 14L12 14L12 13ZM24 13L24 14L25 14L25 13ZM21 15L21 16L20 16L20 17L21 17L21 18L20 18L20 20L23 20L23 19L22 19L22 18L25 18L25 20L26 20L26 19L28 19L28 17L29 17L29 16L28 16L28 15L27 15L27 16L28 16L28 17L26 17L26 18L25 18L25 17L21 17L21 16L23 16L23 15ZM0 16L0 19L1 19L1 18L2 18L2 16ZM6 18L6 19L7 19L7 18ZM11 20L11 22L12 22L12 23L11 23L11 24L12 24L12 25L11 25L11 26L13 26L13 25L14 25L14 26L15 26L15 29L16 29L16 28L17 28L17 25L18 25L18 24L17 24L17 23L19 23L19 24L22 24L22 25L23 25L23 24L24 24L24 23L23 23L23 22L21 22L21 21L19 21L19 22L17 22L17 23L16 23L16 22L15 22L15 21L14 21L14 20ZM13 21L13 22L14 22L14 21ZM32 21L32 22L33 22L33 21ZM19 22L19 23L21 23L21 22ZM13 23L13 24L14 24L14 25L15 25L15 26L16 26L16 25L17 25L17 24L16 24L16 23ZM25 25L25 28L28 28L28 25ZM26 26L26 27L27 27L27 26ZM11 27L11 28L13 28L13 27ZM29 28L29 30L28 30L28 29L25 29L25 30L28 30L28 31L29 31L29 30L30 30L30 29L31 29L31 28ZM0 0L0 7L7 7L7 0ZM1 1L1 6L6 6L6 1ZM2 2L2 5L5 5L5 2ZM26 0L26 7L33 7L33 0ZM27 1L27 6L32 6L32 1ZM28 2L28 5L31 5L31 2ZM0 26L0 33L7 33L7 26ZM1 27L1 32L6 32L6 27ZM2 28L2 31L5 31L5 28Z" fill="#000000"/></g></g></svg>
