<?xml version="1.0" encoding="UTF-8"?>
<svg xmlns="http://www.w3.org/2000/svg" version="1.1" width="400" height="400" viewBox="0 0 400 400"><rect x="0" y="0" width="400" height="400" fill="#fefefe"/><g transform="scale(9.756)"><g transform="translate(4,4)"><path fill-rule="evenodd" d="M9 0L9 1L8 1L8 3L9 3L9 4L8 4L8 8L6 8L6 9L8 9L8 10L9 10L9 11L11 11L11 10L12 10L12 9L11 9L11 8L10 8L10 7L11 7L11 6L12 6L12 8L13 8L13 10L14 10L14 11L13 11L13 12L12 12L12 13L7 13L7 12L8 12L8 11L7 11L7 10L5 10L5 9L4 9L4 8L3 8L3 9L2 9L2 8L0 8L0 10L1 10L1 11L0 11L0 12L3 12L3 13L5 13L5 12L4 12L4 11L7 11L7 12L6 12L6 13L7 13L7 14L3 14L3 15L4 15L4 16L2 16L2 15L0 15L0 16L1 16L1 17L2 17L2 18L1 18L1 19L0 19L0 20L1 20L1 21L2 21L2 22L0 22L0 23L1 23L1 24L0 24L0 25L1 25L1 24L4 24L4 23L3 23L3 21L4 21L4 20L5 20L5 19L7 19L7 20L6 20L6 21L5 21L5 25L8 25L8 27L9 27L9 29L8 29L8 30L10 30L10 32L9 32L9 31L8 31L8 33L12 33L12 32L11 32L11 30L12 30L12 29L11 29L11 30L10 30L10 27L9 27L9 26L11 26L11 28L14 28L14 29L13 29L13 30L14 30L14 31L15 31L15 32L16 32L16 33L17 33L17 32L20 32L20 33L27 33L27 32L26 32L26 30L27 30L27 31L33 31L33 27L32 27L32 26L33 26L33 25L31 25L31 27L32 27L32 29L31 29L31 30L29 30L29 27L30 27L30 25L29 25L29 24L27 24L27 23L28 23L28 22L27 22L27 21L26 21L26 22L25 22L25 24L23 24L23 22L22 22L22 23L20 23L20 22L19 22L19 21L16 21L16 22L17 22L17 23L16 23L16 24L14 24L14 22L15 22L15 21L14 21L14 20L13 20L13 19L15 19L15 20L16 20L16 19L17 19L17 20L18 20L18 19L19 19L19 18L17 18L17 17L20 17L20 18L24 18L24 17L22 17L22 15L23 15L23 16L25 16L25 19L23 19L23 20L22 20L22 19L20 19L20 21L23 21L23 20L24 20L24 21L25 21L25 20L26 20L26 17L27 17L27 15L26 15L26 14L29 14L29 16L28 16L28 17L29 17L29 16L30 16L30 15L32 15L32 14L33 14L33 9L32 9L32 8L30 8L30 9L29 9L29 8L26 8L26 11L25 11L25 8L22 8L22 7L23 7L23 6L22 6L22 5L18 5L18 7L17 7L17 6L16 6L16 3L19 3L19 4L20 4L20 3L21 3L21 2L22 2L22 1L23 1L23 3L22 3L22 4L23 4L23 5L24 5L24 7L25 7L25 3L24 3L24 1L25 1L25 0L19 0L19 1L18 1L18 2L17 2L17 0L15 0L15 4L13 4L13 5L14 5L14 7L15 7L15 8L16 8L16 11L15 11L15 9L14 9L14 8L13 8L13 6L12 6L12 5L11 5L11 6L10 6L10 5L9 5L9 4L12 4L12 3L13 3L13 2L14 2L14 0L12 0L12 1L11 1L11 2L9 2L9 1L10 1L10 0ZM19 1L19 3L20 3L20 2L21 2L21 1ZM9 6L9 7L10 7L10 6ZM15 6L15 7L16 7L16 8L17 8L17 9L18 9L18 10L20 10L20 11L16 11L16 12L19 12L19 13L15 13L15 14L14 14L14 13L13 13L13 15L14 15L14 16L13 16L13 17L11 17L11 19L13 19L13 17L14 17L14 18L15 18L15 19L16 19L16 18L15 18L15 17L14 17L14 16L16 16L16 15L17 15L17 14L18 14L18 16L20 16L20 17L21 17L21 16L20 16L20 14L21 14L21 15L22 15L22 14L25 14L25 13L26 13L26 12L23 12L23 11L24 11L24 9L23 9L23 10L22 10L22 9L20 9L20 6L19 6L19 9L18 9L18 8L17 8L17 7L16 7L16 6ZM21 6L21 7L22 7L22 6ZM8 8L8 9L9 9L9 10L10 10L10 8ZM3 9L3 10L2 10L2 11L3 11L3 10L4 10L4 9ZM28 9L28 10L27 10L27 11L29 11L29 9ZM31 10L31 11L30 11L30 12L28 12L28 13L29 13L29 14L31 14L31 12L32 12L32 10ZM20 11L20 12L21 12L21 13L23 13L23 12L22 12L22 11ZM1 13L1 14L2 14L2 13ZM19 13L19 14L20 14L20 13ZM9 14L9 15L6 15L6 16L7 16L7 17L6 17L6 18L7 18L7 19L8 19L8 20L7 20L7 21L6 21L6 22L7 22L7 23L6 23L6 24L7 24L7 23L8 23L8 22L10 22L10 21L9 21L9 20L10 20L10 18L7 18L7 17L10 17L10 15L11 15L11 16L12 16L12 14ZM25 15L25 16L26 16L26 15ZM4 16L4 17L5 17L5 16ZM32 16L32 17L33 17L33 16ZM3 18L3 19L2 19L2 21L3 21L3 20L4 20L4 19L5 19L5 18ZM27 18L27 20L30 20L30 19L28 19L28 18ZM31 18L31 19L32 19L32 20L33 20L33 18ZM11 20L11 23L9 23L9 25L10 25L10 24L11 24L11 26L12 26L12 27L14 27L14 28L15 28L15 29L14 29L14 30L15 30L15 31L16 31L16 32L17 32L17 31L20 31L20 30L21 30L21 29L19 29L19 28L21 28L21 27L20 27L20 26L21 26L21 24L18 24L18 23L17 23L17 24L18 24L18 25L20 25L20 26L18 26L18 29L17 29L17 28L15 28L15 27L17 27L17 25L15 25L15 26L14 26L14 25L12 25L12 24L13 24L13 23L12 23L12 21L13 21L13 20ZM7 21L7 22L8 22L8 21ZM29 21L29 22L31 22L31 23L33 23L33 21ZM11 23L11 24L12 24L12 23ZM22 25L22 26L23 26L23 27L22 27L22 29L24 29L24 30L25 30L25 29L24 29L24 28L23 28L23 27L24 27L24 25ZM25 25L25 28L28 28L28 25ZM26 26L26 27L27 27L27 26ZM16 29L16 31L17 31L17 29ZM18 29L18 30L19 30L19 29ZM22 31L22 32L24 32L24 31ZM13 32L13 33L14 33L14 32ZM28 32L28 33L30 33L30 32ZM31 32L31 33L32 33L32 32ZM0 0L0 7L7 7L7 0ZM1 1L1 6L6 6L6 1ZM2 2L2 5L5 5L5 2ZM26 0L26 7L33 7L33 0ZM27 1L27 6L32 6L32 1ZM28 2L28 5L31 5L31 2ZM0 26L0 33L7 33L7 26ZM1 27L1 32L6 32L6 27ZM2 28L2 31L5 31L5 28Z" fill="#000000"/></g></g></svg>
