<?xml version="1.0" encoding="UTF-8"?>
<svg xmlns="http://www.w3.org/2000/svg" version="1.1" width="400" height="400" viewBox="0 0 400 400"><rect x="0" y="0" width="400" height="400" fill="#fefefe"/><g transform="scale(9.756)"><g transform="translate(4,4)"><path fill-rule="evenodd" d="M8 0L8 1L11 1L11 2L10 2L10 4L9 4L9 2L8 2L8 5L11 5L11 4L12 4L12 1L13 1L13 4L14 4L14 5L16 5L16 12L17 12L17 13L15 13L15 14L17 14L17 13L19 13L19 14L18 14L18 16L19 16L19 15L20 15L20 19L19 19L19 18L17 18L17 19L16 19L16 18L15 18L15 17L17 17L17 15L16 15L16 16L13 16L13 15L14 15L14 14L13 14L13 13L14 13L14 11L15 11L15 9L14 9L14 10L13 10L13 9L11 9L11 6L10 6L10 9L11 9L11 10L8 10L8 11L9 11L9 12L8 12L8 13L7 13L7 12L6 12L6 11L7 11L7 10L6 10L6 9L7 9L7 8L6 8L6 9L4 9L4 8L0 8L0 9L2 9L2 10L0 10L0 11L2 11L2 12L0 12L0 13L2 13L2 12L3 12L3 15L5 15L5 16L2 16L2 15L1 15L1 14L0 14L0 15L1 15L1 16L2 16L2 17L1 17L1 18L0 18L0 19L1 19L1 18L2 18L2 17L3 17L3 18L4 18L4 17L5 17L5 16L6 16L6 17L7 17L7 16L6 16L6 15L7 15L7 14L8 14L8 15L9 15L9 16L8 16L8 18L10 18L10 17L9 17L9 16L11 16L11 18L12 18L12 19L11 19L11 21L8 21L8 22L10 22L10 24L12 24L12 25L14 25L14 22L15 22L15 21L14 21L14 22L13 22L13 21L12 21L12 20L13 20L13 19L14 19L14 20L15 20L15 19L16 19L16 20L17 20L17 21L16 21L16 22L17 22L17 21L19 21L19 22L20 22L20 24L21 24L21 21L23 21L23 22L22 22L22 23L23 23L23 24L24 24L24 25L22 25L22 26L21 26L21 28L20 28L20 25L18 25L18 24L19 24L19 23L18 23L18 24L17 24L17 25L15 25L15 26L18 26L18 30L19 30L19 28L20 28L20 32L19 32L19 31L16 31L16 29L15 29L15 28L17 28L17 27L15 27L15 28L13 28L13 27L14 27L14 26L13 26L13 27L10 27L10 28L9 28L9 29L8 29L8 33L9 33L9 32L12 32L12 33L13 33L13 32L12 32L12 31L13 31L13 30L15 30L15 31L14 31L14 32L15 32L15 31L16 31L16 33L24 33L24 32L25 32L25 31L26 31L26 33L29 33L29 32L28 32L28 31L27 31L27 30L26 30L26 29L31 29L31 30L29 30L29 31L32 31L32 32L33 32L33 31L32 31L32 27L31 27L31 26L32 26L32 25L33 25L33 21L32 21L32 20L30 20L30 19L29 19L29 21L32 21L32 25L31 25L31 26L30 26L30 25L29 25L29 23L31 23L31 22L28 22L28 19L27 19L27 17L28 17L28 18L29 18L29 17L32 17L32 18L31 18L31 19L32 19L32 18L33 18L33 16L32 16L32 15L30 15L30 16L27 16L27 15L26 15L26 17L25 17L25 16L23 16L23 14L20 14L20 13L19 13L19 12L21 12L21 11L22 11L22 13L23 13L23 11L26 11L26 12L27 12L27 14L28 14L28 15L29 15L29 14L28 14L28 13L29 13L29 12L30 12L30 11L28 11L28 9L31 9L31 8L28 8L28 9L26 9L26 8L24 8L24 7L25 7L25 5L24 5L24 7L23 7L23 4L21 4L21 5L20 5L20 4L19 4L19 5L18 5L18 3L17 3L17 2L19 2L19 1L20 1L20 3L21 3L21 1L20 1L20 0L19 0L19 1L17 1L17 2L15 2L15 0ZM23 0L23 1L22 1L22 2L23 2L23 3L25 3L25 2L24 2L24 1L25 1L25 0ZM14 2L14 4L15 4L15 2ZM16 3L16 5L17 5L17 3ZM21 5L21 8L20 8L20 6L19 6L19 7L18 7L18 6L17 6L17 7L18 7L18 9L17 9L17 12L19 12L19 11L20 11L20 10L18 10L18 9L19 9L19 8L20 8L20 9L21 9L21 8L22 8L22 11L23 11L23 9L24 9L24 8L23 8L23 7L22 7L22 5ZM8 6L8 7L9 7L9 6ZM12 6L12 7L13 7L13 6ZM14 6L14 8L15 8L15 6ZM8 8L8 9L9 9L9 8ZM32 8L32 10L31 10L31 11L33 11L33 8ZM3 9L3 10L4 10L4 11L5 11L5 10L4 10L4 9ZM12 10L12 11L13 11L13 10ZM4 12L4 14L5 14L5 15L6 15L6 14L7 14L7 13L6 13L6 12ZM11 12L11 13L9 13L9 15L13 15L13 14L12 14L12 13L13 13L13 12ZM31 12L31 14L32 14L32 12ZM5 13L5 14L6 14L6 13ZM25 13L25 14L26 14L26 13ZM12 16L12 18L13 18L13 16ZM22 16L22 17L21 17L21 20L20 20L20 21L21 21L21 20L22 20L22 19L25 19L25 17L24 17L24 18L23 18L23 16ZM6 18L6 19L4 19L4 21L3 21L3 19L2 19L2 21L1 21L1 20L0 20L0 22L2 22L2 23L1 23L1 24L0 24L0 25L1 25L1 24L2 24L2 25L5 25L5 24L2 24L2 23L4 23L4 22L5 22L5 23L7 23L7 22L5 22L5 21L7 21L7 20L6 20L6 19L7 19L7 18ZM14 18L14 19L15 19L15 18ZM9 19L9 20L10 20L10 19ZM18 19L18 20L19 20L19 19ZM24 20L24 21L25 21L25 20ZM26 20L26 21L27 21L27 20ZM12 22L12 24L13 24L13 22ZM24 22L24 24L25 24L25 23L26 23L26 24L28 24L28 22L27 22L27 23L26 23L26 22ZM8 23L8 24L9 24L9 23ZM15 23L15 24L16 24L16 23ZM6 24L6 25L7 25L7 24ZM8 25L8 26L10 26L10 25ZM25 25L25 28L28 28L28 25ZM22 26L22 27L23 27L23 26ZM26 26L26 27L27 27L27 26ZM29 26L29 27L30 27L30 26ZM10 29L10 30L9 30L9 31L12 31L12 30L13 30L13 29L12 29L12 30L11 30L11 29ZM21 29L21 32L23 32L23 31L24 31L24 30L25 30L25 29L24 29L24 30L23 30L23 31L22 31L22 29ZM30 32L30 33L31 33L31 32ZM0 0L0 7L7 7L7 0ZM1 1L1 6L6 6L6 1ZM2 2L2 5L5 5L5 2ZM26 0L26 7L33 7L33 0ZM27 1L27 6L32 6L32 1ZM28 2L28 5L31 5L31 2ZM0 26L0 33L7 33L7 26ZM1 27L1 32L6 32L6 27ZM2 28L2 31L5 31L5 28Z" fill="#000000"/></g></g></svg>
