<?xml version="1.0" encoding="UTF-8"?>
<svg xmlns="http://www.w3.org/2000/svg" version="1.1" width="400" height="400" viewBox="0 0 400 400"><rect x="0" y="0" width="400" height="400" fill="#fefefe"/><g transform="scale(9.756)"><g transform="translate(4,4)"><path fill-rule="evenodd" d="M8 0L8 1L9 1L9 2L8 2L8 5L9 5L9 4L11 4L11 5L10 5L10 10L9 10L9 8L8 8L8 9L7 9L7 8L6 8L6 9L5 9L5 10L3 10L3 9L4 9L4 8L0 8L0 9L2 9L2 10L3 10L3 11L1 11L1 10L0 10L0 13L1 13L1 12L2 12L2 13L3 13L3 14L2 14L2 16L0 16L0 17L1 17L1 18L2 18L2 19L3 19L3 18L4 18L4 20L2 20L2 21L3 21L3 23L1 23L1 24L0 24L0 25L1 25L1 24L3 24L3 25L4 25L4 24L6 24L6 25L8 25L8 26L9 26L9 25L10 25L10 26L11 26L11 24L12 24L12 25L14 25L14 24L16 24L16 23L13 23L13 24L12 24L12 21L13 21L13 19L14 19L14 20L15 20L15 19L16 19L16 20L17 20L17 21L16 21L16 22L17 22L17 21L19 21L19 22L21 22L21 21L23 21L23 22L22 22L22 23L24 23L24 22L25 22L25 23L28 23L28 19L27 19L27 17L28 17L28 18L29 18L29 17L32 17L32 18L31 18L31 19L32 19L32 18L33 18L33 16L32 16L32 15L30 15L30 16L28 16L28 15L26 15L26 17L25 17L25 16L23 16L23 18L21 18L21 19L23 19L23 20L21 20L21 21L20 21L20 19L19 19L19 18L17 18L17 19L16 19L16 18L15 18L15 17L17 17L17 15L16 15L16 16L13 16L13 19L11 19L11 21L10 21L10 18L11 18L11 16L12 16L12 14L13 14L13 15L14 15L14 14L13 14L13 13L14 13L14 11L15 11L15 9L14 9L14 10L13 10L13 6L12 6L12 5L13 5L13 4L14 4L14 5L16 5L16 12L17 12L17 13L15 13L15 14L17 14L17 13L19 13L19 14L18 14L18 16L19 16L19 17L20 17L20 16L19 16L19 15L20 15L20 13L19 13L19 12L21 12L21 10L23 10L23 11L22 11L22 12L23 12L23 11L28 11L28 12L27 12L27 14L28 14L28 13L29 13L29 12L30 12L30 11L28 11L28 9L31 9L31 8L28 8L28 9L26 9L26 8L24 8L24 7L25 7L25 5L24 5L24 7L23 7L23 4L21 4L21 3L20 3L20 2L21 2L21 1L20 1L20 0L19 0L19 1L17 1L17 2L15 2L15 0L12 0L12 1L11 1L11 0L10 0L10 1L9 1L9 0ZM23 0L23 1L22 1L22 2L24 2L24 3L25 3L25 2L24 2L24 1L25 1L25 0ZM19 1L19 2L17 2L17 3L16 3L16 5L17 5L17 7L18 7L18 6L19 6L19 7L20 7L20 9L21 9L21 8L23 8L23 9L24 9L24 8L23 8L23 7L22 7L22 5L20 5L20 6L19 6L19 5L17 5L17 3L19 3L19 4L20 4L20 3L19 3L19 2L20 2L20 1ZM11 2L11 4L12 4L12 3L13 3L13 2ZM14 2L14 4L15 4L15 2ZM8 6L8 7L9 7L9 6ZM11 6L11 8L12 8L12 6ZM14 6L14 8L15 8L15 6ZM20 6L20 7L21 7L21 6ZM18 8L18 9L17 9L17 12L19 12L19 11L20 11L20 10L18 10L18 9L19 9L19 8ZM32 8L32 10L31 10L31 11L33 11L33 8ZM6 9L6 10L7 10L7 9ZM11 9L11 10L12 10L12 9ZM3 11L3 13L4 13L4 12L5 12L5 11ZM6 11L6 12L7 12L7 11ZM8 11L8 13L5 13L5 16L4 16L4 15L3 15L3 16L2 16L2 18L3 18L3 17L5 17L5 16L7 16L7 17L6 17L6 18L5 18L5 21L4 21L4 23L6 23L6 24L8 24L8 25L9 25L9 23L10 23L10 24L11 24L11 22L9 22L9 20L8 20L8 19L9 19L9 17L10 17L10 16L11 16L11 13L12 13L12 12L13 12L13 11L11 11L11 13L9 13L9 11ZM24 12L24 14L25 14L25 13L26 13L26 12ZM31 12L31 14L32 14L32 12ZM22 13L22 14L21 14L21 17L22 17L22 15L23 15L23 13ZM6 14L6 15L7 15L7 16L8 16L8 15L9 15L9 16L10 16L10 15L9 15L9 14ZM24 17L24 18L23 18L23 19L25 19L25 17ZM6 18L6 19L7 19L7 18ZM14 18L14 19L15 19L15 18ZM0 19L0 20L1 20L1 19ZM18 19L18 20L19 20L19 19ZM29 19L29 21L32 21L32 25L31 25L31 26L30 26L30 25L29 25L29 24L24 24L24 26L23 26L23 25L22 25L22 26L21 26L21 23L18 23L18 24L17 24L17 25L15 25L15 26L18 26L18 30L19 30L19 27L20 27L20 28L21 28L21 30L20 30L20 31L16 31L16 29L15 29L15 28L17 28L17 27L15 27L15 28L12 28L12 27L14 27L14 26L12 26L12 27L11 27L11 28L10 28L10 27L9 27L9 29L8 29L8 33L13 33L13 32L12 32L12 31L10 31L10 29L11 29L11 30L12 30L12 29L13 29L13 30L15 30L15 31L14 31L14 32L15 32L15 31L16 31L16 33L23 33L23 31L24 31L24 32L26 32L26 33L29 33L29 31L32 31L32 32L33 32L33 31L32 31L32 29L33 29L33 27L31 27L31 26L32 26L32 25L33 25L33 21L32 21L32 20L30 20L30 19ZM6 20L6 21L7 21L7 22L6 22L6 23L7 23L7 22L8 22L8 21L7 21L7 20ZM24 20L24 21L25 21L25 22L26 22L26 21L27 21L27 20ZM0 21L0 22L1 22L1 21ZM14 21L14 22L15 22L15 21ZM29 22L29 23L31 23L31 22ZM18 24L18 25L20 25L20 24ZM25 25L25 28L28 28L28 25ZM22 26L22 31L21 31L21 32L22 32L22 31L23 31L23 30L24 30L24 29L23 29L23 28L24 28L24 27L23 27L23 26ZM26 26L26 27L27 27L27 26ZM29 26L29 27L30 27L30 26ZM26 29L26 30L27 30L27 29ZM28 29L28 31L27 31L27 32L28 32L28 31L29 31L29 30L31 30L31 29ZM30 32L30 33L31 33L31 32ZM0 0L0 7L7 7L7 0ZM1 1L1 6L6 6L6 1ZM2 2L2 5L5 5L5 2ZM26 0L26 7L33 7L33 0ZM27 1L27 6L32 6L32 1ZM28 2L28 5L31 5L31 2ZM0 26L0 33L7 33L7 26ZM1 27L1 32L6 32L6 27ZM2 28L2 31L5 31L5 28Z" fill="#000000"/></g></g></svg>
