<?xml version="1.0" encoding="UTF-8"?>
<svg xmlns="http://www.w3.org/2000/svg" version="1.1" width="400" height="400" viewBox="0 0 400 400"><rect x="0" y="0" width="400" height="400" fill="#fefefe"/><g transform="scale(9.756)"><g transform="translate(4,4)"><path fill-rule="evenodd" d="M8 0L8 4L10 4L10 3L11 3L11 4L12 4L12 2L11 2L11 0ZM12 0L12 1L13 1L13 0ZM15 0L15 1L14 1L14 2L15 2L15 1L16 1L16 0ZM20 0L20 1L19 1L19 2L18 2L18 1L17 1L17 2L16 2L16 3L15 3L15 4L14 4L14 3L13 3L13 5L11 5L11 6L10 6L10 7L9 7L9 5L8 5L8 7L9 7L9 8L10 8L10 7L11 7L11 6L12 6L12 8L11 8L11 9L8 9L8 10L6 10L6 9L7 9L7 8L4 8L4 9L5 9L5 14L4 14L4 10L3 10L3 9L2 9L2 8L0 8L0 11L1 11L1 12L2 12L2 11L1 11L1 9L2 9L2 10L3 10L3 14L2 14L2 16L1 16L1 15L0 15L0 22L2 22L2 23L3 23L3 24L0 24L0 25L3 25L3 24L4 24L4 25L7 25L7 24L8 24L8 23L7 23L7 22L8 22L8 21L9 21L9 20L8 20L8 21L7 21L7 20L6 20L6 19L9 19L9 18L11 18L11 20L10 20L10 21L11 21L11 22L9 22L9 23L10 23L10 24L9 24L9 25L8 25L8 26L9 26L9 27L8 27L8 29L9 29L9 31L8 31L8 33L10 33L10 32L9 32L9 31L12 31L12 32L13 32L13 31L12 31L12 30L14 30L14 29L15 29L15 31L14 31L14 33L15 33L15 32L16 32L16 31L17 31L17 33L18 33L18 32L19 32L19 30L17 30L17 29L18 29L18 27L19 27L19 26L17 26L17 25L18 25L18 24L19 24L19 25L20 25L20 27L21 27L21 29L20 29L20 30L21 30L21 29L22 29L22 31L21 31L21 33L22 33L22 32L23 32L23 31L24 31L24 33L25 33L25 32L26 32L26 31L27 31L27 32L29 32L29 33L30 33L30 31L32 31L32 30L33 30L33 27L32 27L32 26L31 26L31 25L32 25L32 24L33 24L33 23L31 23L31 22L32 22L32 21L33 21L33 19L32 19L32 18L31 18L31 17L30 17L30 18L28 18L28 19L27 19L27 18L26 18L26 17L29 17L29 16L30 16L30 14L31 14L31 16L32 16L32 17L33 17L33 16L32 16L32 14L31 14L31 13L29 13L29 10L28 10L28 8L27 8L27 10L28 10L28 13L27 13L27 11L26 11L26 9L23 9L23 8L24 8L24 7L25 7L25 3L24 3L24 2L25 2L25 0L23 0L23 1L22 1L22 0ZM20 1L20 2L19 2L19 3L17 3L17 4L16 4L16 5L15 5L15 7L14 7L14 5L13 5L13 8L12 8L12 9L11 9L11 10L8 10L8 11L6 11L6 12L9 12L9 14L8 14L8 13L6 13L6 14L8 14L8 15L5 15L5 16L4 16L4 15L3 15L3 16L2 16L2 17L1 17L1 19L3 19L3 20L1 20L1 21L3 21L3 22L4 22L4 24L5 24L5 23L6 23L6 24L7 24L7 23L6 23L6 22L7 22L7 21L5 21L5 22L4 22L4 20L5 20L5 19L6 19L6 18L7 18L7 17L10 17L10 16L8 16L8 15L9 15L9 14L11 14L11 16L12 16L12 15L13 15L13 17L14 17L14 19L13 19L13 20L12 20L12 23L11 23L11 25L12 25L12 24L13 24L13 25L14 25L14 26L13 26L13 27L12 27L12 28L10 28L10 27L11 27L11 26L10 26L10 25L9 25L9 26L10 26L10 27L9 27L9 28L10 28L10 30L11 30L11 29L14 29L14 28L15 28L15 29L17 29L17 26L16 26L16 28L15 28L15 25L14 25L14 22L15 22L15 21L16 21L16 20L17 20L17 19L18 19L18 21L17 21L17 23L15 23L15 24L16 24L16 25L17 25L17 23L19 23L19 24L20 24L20 25L21 25L21 23L20 23L20 21L21 21L21 20L20 20L20 21L19 21L19 19L21 19L21 18L23 18L23 17L25 17L25 16L23 16L23 14L22 14L22 13L24 13L24 15L25 15L25 14L26 14L26 15L29 15L29 13L28 13L28 14L27 14L27 13L24 13L24 12L22 12L22 13L19 13L19 15L18 15L18 16L20 16L20 14L22 14L22 16L23 16L23 17L19 17L19 18L18 18L18 17L17 17L17 19L16 19L16 20L15 20L15 18L16 18L16 17L14 17L14 16L17 16L17 14L16 14L16 15L15 15L15 13L14 13L14 12L15 12L15 9L17 9L17 10L16 10L16 11L18 11L18 12L20 12L20 11L21 11L21 10L22 10L22 11L23 11L23 9L21 9L21 8L20 8L20 9L19 9L19 10L18 10L18 9L17 9L17 7L18 7L18 8L19 8L19 7L20 7L20 6L21 6L21 7L22 7L22 6L23 6L23 7L24 7L24 5L20 5L20 2L22 2L22 3L21 3L21 4L22 4L22 3L23 3L23 4L24 4L24 3L23 3L23 2L24 2L24 1L23 1L23 2L22 2L22 1ZM9 2L9 3L10 3L10 2ZM18 5L18 7L19 7L19 6L20 6L20 5ZM16 6L16 7L15 7L15 8L14 8L14 9L12 9L12 10L11 10L11 11L10 11L10 13L11 13L11 12L12 12L12 13L13 13L13 14L14 14L14 13L13 13L13 12L12 12L12 11L14 11L14 9L15 9L15 8L16 8L16 7L17 7L17 6ZM29 8L29 9L31 9L31 12L32 12L32 13L33 13L33 12L32 12L32 9L33 9L33 8ZM20 9L20 10L21 10L21 9ZM25 11L25 12L26 12L26 11ZM16 12L16 13L17 13L17 12ZM0 13L0 14L1 14L1 13ZM6 16L6 17L7 17L7 16ZM3 17L3 19L5 19L5 18L4 18L4 17ZM11 17L11 18L12 18L12 17ZM22 19L22 25L23 25L23 27L22 27L22 29L23 29L23 30L24 30L24 24L25 24L25 23L23 23L23 19ZM26 19L26 20L27 20L27 21L25 21L25 22L26 22L26 23L27 23L27 24L28 24L28 23L29 23L29 22L31 22L31 20L32 20L32 19L30 19L30 21L28 21L28 20L27 20L27 19ZM14 20L14 21L13 21L13 22L14 22L14 21L15 21L15 20ZM27 21L27 23L28 23L28 21ZM30 23L30 24L29 24L29 26L30 26L30 25L31 25L31 23ZM25 25L25 28L28 28L28 25ZM26 26L26 27L27 27L27 26ZM29 27L29 30L30 30L30 29L32 29L32 28L31 28L31 27ZM32 32L32 33L33 33L33 32ZM0 0L0 7L7 7L7 0ZM1 1L1 6L6 6L6 1ZM2 2L2 5L5 5L5 2ZM26 0L26 7L33 7L33 0ZM27 1L27 6L32 6L32 1ZM28 2L28 5L31 5L31 2ZM0 26L0 33L7 33L7 26ZM1 27L1 32L6 32L6 27ZM2 28L2 31L5 31L5 28Z" fill="#000000"/></g></g></svg>
