<?xml version="1.0" encoding="UTF-8"?>
<svg xmlns="http://www.w3.org/2000/svg" version="1.1" width="400" height="400" viewBox="0 0 400 400"><rect x="0" y="0" width="400" height="400" fill="#fefefe"/><g transform="scale(9.756)"><g transform="translate(4,4)"><path fill-rule="evenodd" d="M9 0L9 1L8 1L8 2L9 2L9 3L8 3L8 4L9 4L9 3L10 3L10 5L8 5L8 7L9 7L9 8L6 8L6 9L5 9L5 8L0 8L0 11L1 11L1 16L0 16L0 17L1 17L1 18L0 18L0 19L1 19L1 20L0 20L0 25L1 25L1 22L4 22L4 24L5 24L5 25L8 25L8 27L10 27L10 28L8 28L8 33L9 33L9 32L10 32L10 31L9 31L9 29L10 29L10 30L12 30L12 31L11 31L11 32L12 32L12 31L13 31L13 29L14 29L14 30L15 30L15 33L16 33L16 32L17 32L17 33L18 33L18 32L17 32L17 31L16 31L16 30L17 30L17 29L18 29L18 28L20 28L20 27L21 27L21 28L24 28L24 29L27 29L27 30L23 30L23 29L19 29L19 30L23 30L23 32L24 32L24 33L28 33L28 31L27 31L27 30L29 30L29 28L31 28L31 29L30 29L30 30L31 30L31 31L30 31L30 32L29 32L29 33L30 33L30 32L31 32L31 33L32 33L32 32L31 32L31 31L32 31L32 30L31 30L31 29L33 29L33 28L32 28L32 26L33 26L33 23L30 23L30 24L32 24L32 25L30 25L30 26L31 26L31 27L29 27L29 24L24 24L24 26L23 26L23 25L19 25L19 26L20 26L20 27L18 27L18 28L17 28L17 25L18 25L18 24L17 24L17 23L19 23L19 22L20 22L20 23L21 23L21 24L23 24L23 22L25 22L25 23L26 23L26 22L27 22L27 23L28 23L28 22L27 22L27 21L30 21L30 20L31 20L31 19L32 19L32 20L33 20L33 19L32 19L32 18L33 18L33 17L32 17L32 14L33 14L33 13L32 13L32 10L33 10L33 9L32 9L32 8L31 8L31 9L32 9L32 10L28 10L28 8L27 8L27 9L26 9L26 8L25 8L25 6L24 6L24 7L23 7L23 6L22 6L22 7L21 7L21 5L22 5L22 4L23 4L23 5L25 5L25 4L23 4L23 3L24 3L24 2L23 2L23 1L25 1L25 0L23 0L23 1L20 1L20 0L19 0L19 1L20 1L20 2L19 2L19 3L20 3L20 2L21 2L21 3L22 3L22 4L18 4L18 3L17 3L17 4L18 4L18 5L20 5L20 7L19 7L19 6L18 6L18 8L17 8L17 6L16 6L16 5L15 5L15 6L14 6L14 5L13 5L13 4L14 4L14 3L13 3L13 2L14 2L14 1L15 1L15 2L16 2L16 1L15 1L15 0ZM10 1L10 3L11 3L11 2L12 2L12 1ZM17 1L17 2L18 2L18 1ZM12 3L12 4L13 4L13 3ZM15 3L15 4L16 4L16 3ZM11 5L11 7L12 7L12 5ZM9 6L9 7L10 7L10 6ZM13 6L13 8L14 8L14 9L13 9L13 10L14 10L14 11L12 11L12 10L11 10L11 9L12 9L12 8L10 8L10 9L9 9L9 11L6 11L6 12L5 12L5 11L4 11L4 10L5 10L5 9L1 9L1 11L4 11L4 12L2 12L2 13L4 13L4 12L5 12L5 13L6 13L6 14L3 14L3 15L2 15L2 16L3 16L3 17L2 17L2 19L3 19L3 18L4 18L4 19L5 19L5 20L2 20L2 21L4 21L4 22L5 22L5 21L6 21L6 22L7 22L7 21L9 21L9 22L8 22L8 23L5 23L5 24L8 24L8 25L9 25L9 26L10 26L10 27L11 27L11 28L10 28L10 29L11 29L11 28L12 28L12 29L13 29L13 28L14 28L14 29L15 29L15 30L16 30L16 29L17 29L17 28L16 28L16 29L15 29L15 26L16 26L16 25L17 25L17 24L16 24L16 23L17 23L17 22L19 22L19 21L21 21L21 22L23 22L23 20L25 20L25 18L26 18L26 17L28 17L28 18L27 18L27 19L26 19L26 21L25 21L25 22L26 22L26 21L27 21L27 19L28 19L28 20L30 20L30 19L31 19L31 18L30 18L30 17L31 17L31 16L30 16L30 14L29 14L29 13L31 13L31 12L29 12L29 11L27 11L27 10L26 10L26 12L25 12L25 11L24 11L24 10L21 10L21 9L25 9L25 8L23 8L23 7L22 7L22 8L21 8L21 7L20 7L20 8L19 8L19 9L20 9L20 10L19 10L19 11L20 11L20 12L19 12L19 13L22 13L22 15L23 15L23 17L22 17L22 16L21 16L21 17L20 17L20 16L19 16L19 17L20 17L20 18L19 18L19 20L18 20L18 19L17 19L17 18L18 18L18 17L17 17L17 18L16 18L16 19L17 19L17 20L18 20L18 21L17 21L17 22L16 22L16 21L15 21L15 18L14 18L14 17L16 17L16 15L15 15L15 14L16 14L16 13L17 13L17 12L18 12L18 11L16 11L16 12L15 12L15 10L16 10L16 9L17 9L17 10L18 10L18 9L17 9L17 8L16 8L16 9L15 9L15 7L16 7L16 6L15 6L15 7L14 7L14 6ZM20 8L20 9L21 9L21 8ZM29 8L29 9L30 9L30 8ZM6 9L6 10L8 10L8 9ZM14 9L14 10L15 10L15 9ZM10 10L10 11L11 11L11 12L9 12L9 13L11 13L11 14L12 14L12 15L9 15L9 14L8 14L8 15L9 15L9 16L10 16L10 18L9 18L9 21L11 21L11 22L10 22L10 23L9 23L9 25L10 25L10 23L11 23L11 24L12 24L12 25L11 25L11 26L13 26L13 25L14 25L14 26L15 26L15 25L14 25L14 24L13 24L13 23L16 23L16 22L15 22L15 21L14 21L14 20L11 20L11 18L12 18L12 19L14 19L14 18L13 18L13 17L14 17L14 16L13 16L13 14L12 14L12 13L11 13L11 12L12 12L12 11L11 11L11 10ZM21 11L21 12L22 12L22 13L23 13L23 14L24 14L24 15L25 15L25 16L26 16L26 15L27 15L27 16L28 16L28 17L29 17L29 15L27 15L27 13L29 13L29 12L27 12L27 13L23 13L23 12L24 12L24 11ZM6 12L6 13L7 13L7 12ZM13 12L13 13L14 13L14 14L15 14L15 13L14 13L14 12ZM6 14L6 15L7 15L7 14ZM17 14L17 16L18 16L18 15L21 15L21 14ZM25 14L25 15L26 15L26 14ZM4 15L4 17L5 17L5 18L6 18L6 19L7 19L7 20L6 20L6 21L7 21L7 20L8 20L8 18L6 18L6 17L7 17L7 16L6 16L6 17L5 17L5 15ZM11 16L11 17L12 17L12 16ZM21 17L21 18L20 18L20 20L23 20L23 19L22 19L22 17ZM23 17L23 18L25 18L25 17ZM13 21L13 22L14 22L14 21ZM32 21L32 22L33 22L33 21ZM11 22L11 23L12 23L12 22ZM25 25L25 28L28 28L28 25ZM21 26L21 27L23 27L23 26ZM26 26L26 27L27 27L27 26ZM12 27L12 28L13 28L13 27ZM19 31L19 32L20 32L20 33L21 33L21 32L22 32L22 31L21 31L21 32L20 32L20 31ZM24 31L24 32L25 32L25 31ZM26 31L26 32L27 32L27 31ZM13 32L13 33L14 33L14 32ZM0 0L0 7L7 7L7 0ZM1 1L1 6L6 6L6 1ZM2 2L2 5L5 5L5 2ZM26 0L26 7L33 7L33 0ZM27 1L27 6L32 6L32 1ZM28 2L28 5L31 5L31 2ZM0 26L0 33L7 33L7 26ZM1 27L1 32L6 32L6 27ZM2 28L2 31L5 31L5 28Z" fill="#000000"/></g></g></svg>
