<?xml version="1.0" encoding="UTF-8"?>
<svg xmlns="http://www.w3.org/2000/svg" version="1.1" width="400" height="400" viewBox="0 0 400 400"><rect x="0" y="0" width="400" height="400" fill="#fefefe"/><g transform="scale(9.756)"><g transform="translate(4,4)"><path fill-rule="evenodd" d="M9 0L9 1L10 1L10 0ZM12 0L12 2L11 2L11 4L10 4L10 2L9 2L9 3L8 3L8 5L9 5L9 4L10 4L10 8L9 8L9 10L10 10L10 11L9 11L9 12L8 12L8 8L5 8L5 9L7 9L7 10L6 10L6 11L5 11L5 10L4 10L4 9L2 9L2 8L0 8L0 9L1 9L1 10L0 10L0 12L1 12L1 13L0 13L0 15L1 15L1 17L2 17L2 19L1 19L1 18L0 18L0 20L1 20L1 21L0 21L0 25L3 25L3 24L6 24L6 25L8 25L8 28L9 28L9 31L8 31L8 33L10 33L10 32L9 32L9 31L10 31L10 30L11 30L11 32L13 32L13 33L14 33L14 32L15 32L15 33L16 33L16 32L17 32L17 33L18 33L18 32L17 32L17 31L18 31L18 30L17 30L17 29L18 29L18 28L19 28L19 27L18 27L18 28L17 28L17 29L16 29L16 28L15 28L15 27L17 27L17 23L19 23L19 26L21 26L21 27L22 27L22 28L24 28L24 29L22 29L22 31L23 31L23 32L24 32L24 33L25 33L25 32L24 32L24 31L25 31L25 30L24 30L24 29L27 29L27 32L26 32L26 33L28 33L28 31L30 31L30 32L29 32L29 33L30 33L30 32L31 32L31 33L32 33L32 32L31 32L31 31L30 31L30 30L31 30L31 29L33 29L33 27L32 27L32 26L33 26L33 25L32 25L32 24L33 24L33 23L30 23L30 24L28 24L28 23L29 23L29 21L30 21L30 20L31 20L31 19L30 19L30 18L32 18L32 20L33 20L33 17L32 17L32 16L33 16L33 15L32 15L32 14L33 14L33 12L32 12L32 10L29 10L29 9L30 9L30 8L28 8L28 9L27 9L27 10L28 10L28 11L27 11L27 12L25 12L25 11L26 11L26 10L25 10L25 11L24 11L24 12L25 12L25 13L23 13L23 14L24 14L24 15L26 15L26 14L27 14L27 12L28 12L28 11L29 11L29 14L28 14L28 17L29 17L29 14L30 14L30 16L31 16L31 17L30 17L30 18L29 18L29 19L30 19L30 20L28 20L28 23L27 23L27 22L26 22L26 21L25 21L25 20L26 20L26 19L25 19L25 20L23 20L23 19L24 19L24 18L25 18L25 17L22 17L22 18L23 18L23 19L22 19L22 20L23 20L23 21L21 21L21 20L20 20L20 21L19 21L19 22L17 22L17 23L16 23L16 21L18 21L18 20L19 20L19 19L21 19L21 18L20 18L20 17L21 17L21 12L20 12L20 11L19 11L19 10L20 10L20 9L19 9L19 8L17 8L17 6L18 6L18 7L19 7L19 5L20 5L20 8L21 8L21 5L20 5L20 3L19 3L19 4L18 4L18 3L16 3L16 4L18 4L18 5L17 5L17 6L16 6L16 8L15 8L15 11L18 11L18 13L17 13L17 12L16 12L16 13L15 13L15 12L14 12L14 14L15 14L15 15L14 15L14 16L13 16L13 14L12 14L12 11L14 11L14 10L13 10L13 9L14 9L14 8L13 8L13 6L14 6L14 7L15 7L15 6L14 6L14 5L13 5L13 4L15 4L15 3L13 3L13 2L14 2L14 1L13 1L13 0ZM16 0L16 1L18 1L18 0ZM20 0L20 1L21 1L21 0ZM22 0L22 2L21 2L21 4L22 4L22 5L24 5L24 7L23 7L23 6L22 6L22 7L23 7L23 8L22 8L22 10L21 10L21 11L22 11L22 12L23 12L23 10L24 10L24 9L25 9L25 8L24 8L24 7L25 7L25 4L23 4L23 3L25 3L25 2L23 2L23 0ZM24 0L24 1L25 1L25 0ZM12 3L12 4L13 4L13 3ZM11 5L11 7L12 7L12 5ZM8 6L8 7L9 7L9 6ZM10 8L10 9L12 9L12 8ZM16 8L16 10L18 10L18 9L17 9L17 8ZM23 8L23 9L24 9L24 8ZM1 10L1 11L2 11L2 13L5 13L5 14L4 14L4 15L5 15L5 16L4 16L4 19L2 19L2 21L1 21L1 24L3 24L3 23L4 23L4 22L5 22L5 21L6 21L6 22L7 22L7 21L6 21L6 20L7 20L7 19L8 19L8 20L14 20L14 21L13 21L13 22L15 22L15 20L16 20L16 19L14 19L14 17L15 17L15 18L16 18L16 16L18 16L18 15L19 15L19 17L20 17L20 14L17 14L17 15L16 15L16 16L14 16L14 17L13 17L13 19L11 19L11 17L12 17L12 16L11 16L11 15L12 15L12 14L11 14L11 11L12 11L12 10L11 10L11 11L10 11L10 14L9 14L9 16L8 16L8 14L7 14L7 13L8 13L8 12L7 12L7 11L6 11L6 12L7 12L7 13L5 13L5 12L4 12L4 11L3 11L3 10ZM30 12L30 13L32 13L32 12ZM1 14L1 15L2 15L2 14ZM6 14L6 15L7 15L7 14ZM10 14L10 15L11 15L11 14ZM22 15L22 16L23 16L23 15ZM2 16L2 17L3 17L3 16ZM6 16L6 17L8 17L8 19L9 19L9 18L10 18L10 16L9 16L9 17L8 17L8 16ZM17 17L17 20L18 20L18 17ZM26 17L26 18L27 18L27 19L28 19L28 18L27 18L27 17ZM6 18L6 19L7 19L7 18ZM4 19L4 20L3 20L3 21L2 21L2 23L3 23L3 22L4 22L4 20L5 20L5 19ZM9 21L9 22L8 22L8 23L9 23L9 24L10 24L10 25L11 25L11 24L10 24L10 21ZM11 22L11 23L12 23L12 22ZM19 22L19 23L20 23L20 24L21 24L21 26L22 26L22 27L23 27L23 26L24 26L24 25L23 25L23 26L22 26L22 23L20 23L20 22ZM23 22L23 23L26 23L26 24L27 24L27 23L26 23L26 22ZM6 23L6 24L7 24L7 23ZM13 23L13 27L12 27L12 26L10 26L10 27L9 27L9 28L10 28L10 27L12 27L12 28L11 28L11 29L13 29L13 30L14 30L14 29L15 29L15 28L14 28L14 27L15 27L15 26L14 26L14 24L15 24L15 25L16 25L16 24L15 24L15 23ZM30 24L30 25L29 25L29 27L31 27L31 26L30 26L30 25L31 25L31 24ZM25 25L25 28L28 28L28 25ZM26 26L26 27L27 27L27 26ZM13 28L13 29L14 29L14 28ZM20 28L20 29L19 29L19 31L20 31L20 33L21 33L21 31L20 31L20 29L21 29L21 28ZM29 28L29 30L30 30L30 29L31 29L31 28ZM32 30L32 31L33 31L33 30ZM13 31L13 32L14 32L14 31ZM15 31L15 32L16 32L16 31ZM0 0L0 7L7 7L7 0ZM1 1L1 6L6 6L6 1ZM2 2L2 5L5 5L5 2ZM26 0L26 7L33 7L33 0ZM27 1L27 6L32 6L32 1ZM28 2L28 5L31 5L31 2ZM0 26L0 33L7 33L7 26ZM1 27L1 32L6 32L6 27ZM2 28L2 31L5 31L5 28Z" fill="#000000"/></g></g></svg>
