<?xml version="1.0" encoding="UTF-8"?>
<svg xmlns="http://www.w3.org/2000/svg" version="1.1" width="400" height="400" viewBox="0 0 400 400"><rect x="0" y="0" width="400" height="400" fill="#fefefe"/><g transform="scale(9.756)"><g transform="translate(4,4)"><path fill-rule="evenodd" d="M10 0L10 1L8 1L8 2L9 2L9 3L8 3L8 4L10 4L10 3L11 3L11 1L12 1L12 3L13 3L13 4L11 4L11 5L10 5L10 7L11 7L11 8L6 8L6 9L8 9L8 11L7 11L7 10L5 10L5 8L0 8L0 12L1 12L1 13L2 13L2 14L0 14L0 16L2 16L2 14L3 14L3 15L4 15L4 16L3 16L3 17L4 17L4 16L5 16L5 18L6 18L6 19L7 19L7 20L4 20L4 19L3 19L3 18L2 18L2 17L1 17L1 18L2 18L2 19L3 19L3 20L2 20L2 21L0 21L0 25L1 25L1 22L3 22L3 24L4 24L4 23L5 23L5 25L8 25L8 27L10 27L10 26L9 26L9 24L10 24L10 25L11 25L11 26L12 26L12 27L11 27L11 28L12 28L12 29L11 29L11 30L9 30L9 28L8 28L8 33L11 33L11 30L13 30L13 29L14 29L14 30L15 30L15 33L16 33L16 32L17 32L17 33L18 33L18 32L17 32L17 31L16 31L16 30L17 30L17 29L18 29L18 28L19 28L19 27L18 27L18 28L17 28L17 25L18 25L18 24L17 24L17 23L19 23L19 24L20 24L20 23L21 23L21 24L24 24L24 25L19 25L19 26L21 26L21 27L20 27L20 28L23 28L23 27L24 27L24 30L23 30L23 29L19 29L19 30L20 30L20 31L21 31L21 32L20 32L20 33L21 33L21 32L24 32L24 33L28 33L28 32L29 32L29 33L30 33L30 32L31 32L31 33L32 33L32 32L31 32L31 31L32 31L32 30L31 30L31 29L33 29L33 28L31 28L31 27L32 27L32 26L33 26L33 23L30 23L30 24L32 24L32 25L30 25L30 26L31 26L31 27L29 27L29 24L28 24L28 23L26 23L26 22L28 22L28 21L30 21L30 20L31 20L31 19L32 19L32 20L33 20L33 19L32 19L32 18L33 18L33 17L32 17L32 14L33 14L33 13L32 13L32 10L33 10L33 9L32 9L32 8L31 8L31 9L32 9L32 10L28 10L28 8L27 8L27 9L26 9L26 8L25 8L25 6L24 6L24 8L23 8L23 6L22 6L22 5L25 5L25 4L22 4L22 5L21 5L21 4L19 4L19 3L17 3L17 4L19 4L19 5L18 5L18 7L19 7L19 5L21 5L21 6L20 6L20 7L21 7L21 8L17 8L17 6L16 6L16 5L15 5L15 6L14 6L14 5L13 5L13 4L14 4L14 3L13 3L13 2L14 2L14 1L15 1L15 2L16 2L16 1L15 1L15 0L13 0L13 1L12 1L12 0ZM18 0L18 1L17 1L17 2L19 2L19 1L21 1L21 2L20 2L20 3L23 3L23 1L25 1L25 0L23 0L23 1L21 1L21 0ZM15 3L15 4L16 4L16 3ZM8 5L8 7L9 7L9 5ZM11 5L11 7L12 7L12 5ZM13 6L13 8L12 8L12 9L13 9L13 10L14 10L14 11L13 11L13 12L14 12L14 13L13 13L13 15L12 15L12 14L10 14L10 13L12 13L12 12L10 12L10 13L9 13L9 14L8 14L8 15L6 15L6 14L7 14L7 13L8 13L8 12L9 12L9 11L8 11L8 12L7 12L7 11L6 11L6 12L7 12L7 13L5 13L5 10L3 10L3 13L4 13L4 14L5 14L5 15L6 15L6 16L7 16L7 17L6 17L6 18L7 18L7 19L10 19L10 21L9 21L9 22L10 22L10 23L11 23L11 24L14 24L14 25L13 25L13 28L14 28L14 29L15 29L15 30L16 30L16 29L17 29L17 28L16 28L16 29L15 29L15 26L16 26L16 25L17 25L17 24L16 24L16 23L17 23L17 22L19 22L19 23L20 23L20 22L23 22L23 23L24 23L24 24L26 24L26 23L24 23L24 22L23 22L23 20L25 20L25 21L28 21L28 20L30 20L30 19L31 19L31 18L30 18L30 17L31 17L31 16L30 16L30 14L29 14L29 13L31 13L31 12L29 12L29 11L27 11L27 10L25 10L25 11L26 11L26 12L24 12L24 10L21 10L21 9L23 9L23 8L21 8L21 9L20 9L20 10L19 10L19 13L20 13L20 14L17 14L17 16L18 16L18 15L20 15L20 16L19 16L19 17L20 17L20 18L19 18L19 19L20 19L20 18L21 18L21 17L22 17L22 19L23 19L23 20L21 20L21 21L20 21L20 20L18 20L18 19L17 19L17 18L18 18L18 17L17 17L17 18L16 18L16 19L17 19L17 20L18 20L18 21L17 21L17 22L16 22L16 21L15 21L15 18L14 18L14 17L16 17L16 15L15 15L15 14L16 14L16 13L17 13L17 12L18 12L18 11L16 11L16 12L15 12L15 10L16 10L16 9L17 9L17 10L18 10L18 9L17 9L17 8L16 8L16 9L15 9L15 7L16 7L16 6L15 6L15 7L14 7L14 6ZM21 6L21 7L22 7L22 6ZM13 8L13 9L14 9L14 10L15 10L15 9L14 9L14 8ZM24 8L24 9L25 9L25 8ZM29 8L29 9L30 9L30 8ZM10 9L10 11L12 11L12 10L11 10L11 9ZM1 10L1 12L2 12L2 10ZM21 11L21 12L20 12L20 13L21 13L21 14L20 14L20 15L21 15L21 16L20 16L20 17L21 17L21 16L22 16L22 17L23 17L23 18L25 18L25 20L26 20L26 19L28 19L28 17L29 17L29 16L28 16L28 15L29 15L29 14L28 14L28 13L29 13L29 12L28 12L28 13L24 13L24 12L23 12L23 11ZM21 12L21 13L22 13L22 14L23 14L23 15L22 15L22 16L23 16L23 17L25 17L25 18L26 18L26 17L28 17L28 16L27 16L27 14L25 14L25 15L24 15L24 14L23 14L23 13L22 13L22 12ZM14 13L14 14L15 14L15 13ZM9 14L9 15L8 15L8 16L9 16L9 15L10 15L10 16L12 16L12 15L10 15L10 14ZM25 15L25 16L26 16L26 15ZM13 16L13 17L14 17L14 16ZM8 17L8 18L10 18L10 17ZM11 17L11 18L12 18L12 19L11 19L11 20L12 20L12 21L11 21L11 22L12 22L12 23L16 23L16 22L15 22L15 21L14 21L14 20L13 20L13 19L14 19L14 18L12 18L12 17ZM0 19L0 20L1 20L1 19ZM3 20L3 21L4 21L4 22L5 22L5 23L6 23L6 24L8 24L8 21L6 21L6 22L5 22L5 21L4 21L4 20ZM13 21L13 22L14 22L14 21ZM19 21L19 22L20 22L20 21ZM32 21L32 22L33 22L33 21ZM6 22L6 23L7 23L7 22ZM14 25L14 26L15 26L15 25ZM25 25L25 28L28 28L28 25ZM22 26L22 27L23 27L23 26ZM26 26L26 27L27 27L27 26ZM29 28L29 30L27 30L27 29L26 29L26 30L25 30L25 31L24 31L24 32L27 32L27 31L29 31L29 32L30 32L30 31L31 31L31 30L30 30L30 29L31 29L31 28ZM21 30L21 31L23 31L23 30ZM26 30L26 31L27 31L27 30ZM9 31L9 32L10 32L10 31ZM12 31L12 32L13 32L13 33L14 33L14 32L13 32L13 31ZM0 0L0 7L7 7L7 0ZM1 1L1 6L6 6L6 1ZM2 2L2 5L5 5L5 2ZM26 0L26 7L33 7L33 0ZM27 1L27 6L32 6L32 1ZM28 2L28 5L31 5L31 2ZM0 26L0 33L7 33L7 26ZM1 27L1 32L6 32L6 27ZM2 28L2 31L5 31L5 28Z" fill="#000000"/></g></g></svg>
