<?xml version="1.0" encoding="UTF-8"?>
<svg xmlns="http://www.w3.org/2000/svg" version="1.1" width="400" height="400" viewBox="0 0 400 400"><rect x="0" y="0" width="400" height="400" fill="#fefefe"/><g transform="scale(9.756)"><g transform="translate(4,4)"><path fill-rule="evenodd" d="M8 0L8 4L9 4L9 5L8 5L8 7L9 7L9 8L10 8L10 7L11 7L11 5L12 5L12 7L13 7L13 5L14 5L14 7L15 7L15 8L14 8L14 9L13 9L13 8L12 8L12 9L11 9L11 11L10 11L10 13L9 13L9 14L8 14L8 15L7 15L7 14L4 14L4 16L2 16L2 15L3 15L3 13L5 13L5 12L6 12L6 13L7 13L7 12L8 12L8 11L9 11L9 10L10 10L10 9L8 9L8 11L7 11L7 10L6 10L6 11L5 11L5 12L4 12L4 10L3 10L3 9L2 9L2 8L0 8L0 9L2 9L2 10L1 10L1 12L3 12L3 13L2 13L2 15L0 15L0 19L2 19L2 17L4 17L4 18L3 18L3 19L4 19L4 21L5 21L5 22L6 22L6 23L7 23L7 22L6 22L6 21L7 21L7 20L9 20L9 22L8 22L8 23L9 23L9 24L5 24L5 23L4 23L4 24L3 24L3 23L2 23L2 24L0 24L0 25L2 25L2 24L3 24L3 25L4 25L4 24L5 24L5 25L8 25L8 26L9 26L9 27L8 27L8 29L9 29L9 31L8 31L8 33L9 33L9 31L10 31L10 32L11 32L11 31L12 31L12 30L14 30L14 29L15 29L15 32L14 32L14 33L15 33L15 32L16 32L16 31L17 31L17 33L18 33L18 32L19 32L19 33L20 33L20 32L19 32L19 30L17 30L17 29L18 29L18 27L19 27L19 26L17 26L17 25L18 25L18 24L19 24L19 23L17 23L17 21L18 21L18 19L17 19L17 17L18 17L18 18L19 18L19 17L20 17L20 19L19 19L19 21L21 21L21 25L20 25L20 26L21 26L21 25L22 25L22 26L23 26L23 25L22 25L22 20L23 20L23 24L24 24L24 30L25 30L25 31L24 31L24 33L28 33L28 32L29 32L29 33L30 33L30 31L32 31L32 30L33 30L33 29L30 29L30 30L29 30L29 27L31 27L31 28L32 28L32 26L31 26L31 25L32 25L32 24L33 24L33 23L31 23L31 22L32 22L32 21L33 21L33 19L32 19L32 18L31 18L31 17L30 17L30 18L29 18L29 19L28 19L28 18L26 18L26 17L29 17L29 16L30 16L30 14L31 14L31 16L32 16L32 17L33 17L33 16L32 16L32 14L31 14L31 13L29 13L29 10L28 10L28 8L27 8L27 11L28 11L28 12L26 12L26 11L25 11L25 10L26 10L26 9L22 9L22 7L23 7L23 6L22 6L22 7L21 7L21 6L20 6L20 5L21 5L21 3L22 3L22 2L23 2L23 5L24 5L24 8L25 8L25 3L24 3L24 2L23 2L23 1L25 1L25 0L23 0L23 1L22 1L22 0L20 0L20 1L19 1L19 2L16 2L16 3L15 3L15 4L14 4L14 3L12 3L12 4L9 4L9 3L11 3L11 2L9 2L9 0ZM10 0L10 1L12 1L12 2L13 2L13 0ZM15 0L15 1L14 1L14 2L15 2L15 1L16 1L16 0ZM21 1L21 2L22 2L22 1ZM17 3L17 4L16 4L16 5L15 5L15 7L16 7L16 8L15 8L15 9L14 9L14 11L13 11L13 10L12 10L12 11L11 11L11 13L10 13L10 14L9 14L9 17L10 17L10 18L9 18L9 20L10 20L10 25L9 25L9 26L10 26L10 31L11 31L11 29L14 29L14 28L15 28L15 29L17 29L17 26L16 26L16 28L15 28L15 25L14 25L14 24L16 24L16 25L17 25L17 23L13 23L13 22L12 22L12 23L11 23L11 20L10 20L10 19L11 19L11 17L12 17L12 16L13 16L13 17L14 17L14 19L13 19L13 18L12 18L12 19L13 19L13 21L14 21L14 22L15 22L15 21L16 21L16 20L17 20L17 19L16 19L16 20L15 20L15 18L16 18L16 17L14 17L14 16L17 16L17 14L16 14L16 15L15 15L15 13L14 13L14 12L15 12L15 9L17 9L17 10L16 10L16 11L18 11L18 12L21 12L21 11L20 11L20 9L21 9L21 10L22 10L22 9L21 9L21 7L20 7L20 6L19 6L19 10L18 10L18 9L17 9L17 7L18 7L18 3ZM19 3L19 5L20 5L20 3ZM9 5L9 7L10 7L10 5ZM16 6L16 7L17 7L17 6ZM4 8L4 9L7 9L7 8ZM29 8L29 9L31 9L31 12L32 12L32 13L33 13L33 12L32 12L32 9L33 9L33 8ZM2 10L2 11L3 11L3 10ZM6 11L6 12L7 12L7 11ZM12 11L12 12L13 12L13 11ZM24 11L24 13L26 13L26 14L24 14L24 15L26 15L26 16L27 16L27 15L28 15L28 14L29 14L29 13L26 13L26 12L25 12L25 11ZM16 12L16 13L17 13L17 12ZM22 12L22 13L19 13L19 15L18 15L18 16L20 16L20 17L21 17L21 19L20 19L20 20L21 20L21 19L22 19L22 17L25 17L25 16L22 16L22 17L21 17L21 15L23 15L23 14L22 14L22 13L23 13L23 12ZM11 13L11 15L10 15L10 17L11 17L11 15L12 15L12 13ZM13 13L13 14L14 14L14 13ZM20 14L20 15L21 15L21 14ZM5 15L5 16L7 16L7 17L5 17L5 18L4 18L4 19L5 19L5 18L8 18L8 16L7 16L7 15ZM1 16L1 17L2 17L2 16ZM6 19L6 20L5 20L5 21L6 21L6 20L7 20L7 19ZM26 19L26 20L28 20L28 19ZM30 19L30 21L25 21L25 23L24 23L24 24L26 24L26 23L28 23L28 22L31 22L31 20L32 20L32 19ZM0 20L0 22L1 22L1 21L2 21L2 22L3 22L3 21L2 21L2 20ZM14 20L14 21L15 21L15 20ZM30 23L30 24L29 24L29 26L30 26L30 25L31 25L31 23ZM12 24L12 25L10 25L10 26L11 26L11 28L12 28L12 26L14 26L14 25L13 25L13 24ZM25 25L25 28L28 28L28 25ZM26 26L26 27L27 27L27 26ZM20 27L20 28L19 28L19 29L20 29L20 30L21 30L21 29L23 29L23 28L22 28L22 27ZM20 28L20 29L21 29L21 28ZM27 29L27 31L28 31L28 29ZM22 30L22 31L21 31L21 33L22 33L22 32L23 32L23 30ZM25 31L25 32L26 32L26 31ZM32 32L32 33L33 33L33 32ZM0 0L0 7L7 7L7 0ZM1 1L1 6L6 6L6 1ZM2 2L2 5L5 5L5 2ZM26 0L26 7L33 7L33 0ZM27 1L27 6L32 6L32 1ZM28 2L28 5L31 5L31 2ZM0 26L0 33L7 33L7 26ZM1 27L1 32L6 32L6 27ZM2 28L2 31L5 31L5 28Z" fill="#000000"/></g></g></svg>
