<?xml version="1.0" encoding="UTF-8"?>
<svg xmlns="http://www.w3.org/2000/svg" version="1.1" width="400" height="400" viewBox="0 0 400 400"><rect x="0" y="0" width="400" height="400" fill="#fefefe"/><g transform="scale(9.756)"><g transform="translate(4,4)"><path fill-rule="evenodd" d="M8 0L8 1L9 1L9 2L10 2L10 3L11 3L11 1L13 1L13 0L11 0L11 1L9 1L9 0ZM16 0L16 1L17 1L17 2L16 2L16 4L17 4L17 5L16 5L16 8L15 8L15 6L14 6L14 5L15 5L15 3L14 3L14 2L15 2L15 1L14 1L14 2L12 2L12 4L11 4L11 5L10 5L10 4L9 4L9 5L10 5L10 8L9 8L9 6L8 6L8 8L9 8L9 10L8 10L8 11L7 11L7 10L6 10L6 9L7 9L7 8L6 8L6 9L5 9L5 8L3 8L3 9L2 9L2 8L0 8L0 9L1 9L1 10L0 10L0 12L3 12L3 13L4 13L4 17L3 17L3 15L2 15L2 16L1 16L1 13L0 13L0 19L3 19L3 20L2 20L2 21L3 21L3 22L2 22L2 24L1 24L1 21L0 21L0 25L4 25L4 24L5 24L5 25L8 25L8 26L9 26L9 27L11 27L11 26L12 26L12 27L14 27L14 28L13 28L13 29L12 29L12 28L11 28L11 29L12 29L12 30L11 30L11 31L10 31L10 28L8 28L8 30L9 30L9 31L8 31L8 33L9 33L9 31L10 31L10 32L12 32L12 30L13 30L13 32L14 32L14 31L16 31L16 32L15 32L15 33L18 33L18 32L17 32L17 31L18 31L18 29L17 29L17 30L16 30L16 28L15 28L15 27L16 27L16 26L17 26L17 24L18 24L18 23L19 23L19 25L21 25L21 24L20 24L20 23L19 23L19 22L20 22L20 17L19 17L19 16L20 16L20 15L21 15L21 13L20 13L20 11L19 11L19 10L20 10L20 8L17 8L17 6L18 6L18 7L19 7L19 6L18 6L18 4L19 4L19 5L21 5L21 4L22 4L22 7L23 7L23 6L24 6L24 7L25 7L25 6L24 6L24 5L23 5L23 3L22 3L22 2L23 2L23 0L22 0L22 2L20 2L20 1L21 1L21 0L20 0L20 1L18 1L18 0ZM24 0L24 2L25 2L25 0ZM17 2L17 3L18 3L18 2ZM19 2L19 4L21 4L21 3L20 3L20 2ZM24 3L24 4L25 4L25 3ZM12 4L12 5L11 5L11 7L12 7L12 9L10 9L10 10L9 10L9 11L8 11L8 12L7 12L7 11L6 11L6 10L5 10L5 9L3 9L3 12L4 12L4 13L5 13L5 15L6 15L6 16L7 16L7 15L6 15L6 14L7 14L7 13L8 13L8 14L9 14L9 16L8 16L8 18L9 18L9 16L10 16L10 17L12 17L12 16L14 16L14 15L15 15L15 13L16 13L16 11L13 11L13 10L15 10L15 8L13 8L13 7L14 7L14 6L13 6L13 7L12 7L12 5L14 5L14 4ZM20 6L20 7L21 7L21 6ZM22 8L22 9L21 9L21 11L22 11L22 12L23 12L23 14L24 14L24 15L25 15L25 16L26 16L26 18L27 18L27 19L26 19L26 20L23 20L23 19L24 19L24 18L25 18L25 17L24 17L24 16L23 16L23 15L22 15L22 16L23 16L23 17L24 17L24 18L21 18L21 19L22 19L22 21L21 21L21 23L24 23L24 24L22 24L22 30L20 30L20 29L19 29L19 33L21 33L21 32L20 32L20 31L22 31L22 33L25 33L25 32L23 32L23 31L26 31L26 32L28 32L28 33L30 33L30 32L33 32L33 30L32 30L32 31L30 31L30 30L31 30L31 29L33 29L33 28L32 28L32 27L29 27L29 25L30 25L30 26L31 26L31 25L32 25L32 24L33 24L33 22L32 22L32 23L30 23L30 22L29 22L29 21L30 21L30 20L31 20L31 21L32 21L32 19L33 19L33 15L31 15L31 13L30 13L30 12L32 12L32 13L33 13L33 12L32 12L32 11L33 11L33 10L30 10L30 12L29 12L29 11L28 11L28 10L29 10L29 9L28 9L28 10L27 10L27 12L25 12L25 13L24 13L24 11L25 11L25 10L26 10L26 9L27 9L27 8L26 8L26 9L23 9L23 8ZM32 8L32 9L33 9L33 8ZM12 9L12 10L10 10L10 11L9 11L9 13L10 13L10 12L11 12L11 13L13 13L13 14L10 14L10 15L11 15L11 16L12 16L12 15L14 15L14 13L15 13L15 12L14 12L14 13L13 13L13 11L12 11L12 10L13 10L13 9ZM16 9L16 10L17 10L17 11L18 11L18 9ZM22 9L22 11L23 11L23 9ZM1 10L1 11L2 11L2 10ZM5 11L5 13L7 13L7 12L6 12L6 11ZM17 12L17 13L18 13L18 12ZM28 12L28 14L27 14L27 13L25 13L25 14L26 14L26 16L27 16L27 15L28 15L28 14L29 14L29 16L30 16L30 17L31 17L31 16L30 16L30 14L29 14L29 12ZM19 13L19 14L16 14L16 16L15 16L15 18L17 18L17 20L16 20L16 19L15 19L15 20L13 20L13 19L14 19L14 17L13 17L13 18L12 18L12 19L11 19L11 18L10 18L10 21L11 21L11 20L12 20L12 22L13 22L13 25L14 25L14 27L15 27L15 25L16 25L16 24L17 24L17 23L18 23L18 22L19 22L19 20L18 20L18 18L17 18L17 17L18 17L18 15L19 15L19 14L20 14L20 13ZM16 16L16 17L17 17L17 16ZM2 17L2 18L3 18L3 19L4 19L4 18L5 18L5 17L4 17L4 18L3 18L3 17ZM6 17L6 18L7 18L7 17ZM30 18L30 19L29 19L29 20L28 20L28 19L27 19L27 20L26 20L26 22L27 22L27 23L26 23L26 24L28 24L28 21L29 21L29 20L30 20L30 19L32 19L32 18ZM6 19L6 20L3 20L3 21L4 21L4 22L3 22L3 23L5 23L5 24L7 24L7 23L8 23L8 24L9 24L9 25L11 25L11 24L12 24L12 23L10 23L10 22L9 22L9 21L8 21L8 22L7 22L7 21L6 21L6 20L7 20L7 19ZM8 19L8 20L9 20L9 19ZM15 20L15 23L14 23L14 25L15 25L15 24L16 24L16 20ZM17 20L17 21L18 21L18 20ZM5 21L5 22L6 22L6 23L7 23L7 22L6 22L6 21ZM8 22L8 23L9 23L9 22ZM24 22L24 23L25 23L25 22ZM30 24L30 25L31 25L31 24ZM23 25L23 26L24 26L24 25ZM25 25L25 28L28 28L28 25ZM19 26L19 27L18 27L18 28L20 28L20 27L21 27L21 26ZM26 26L26 27L27 27L27 26ZM30 28L30 29L31 29L31 28ZM13 29L13 30L14 30L14 29ZM24 29L24 30L25 30L25 29ZM26 29L26 31L27 31L27 29ZM28 29L28 30L29 30L29 29ZM28 31L28 32L30 32L30 31ZM0 0L0 7L7 7L7 0ZM1 1L1 6L6 6L6 1ZM2 2L2 5L5 5L5 2ZM26 0L26 7L33 7L33 0ZM27 1L27 6L32 6L32 1ZM28 2L28 5L31 5L31 2ZM0 26L0 33L7 33L7 26ZM1 27L1 32L6 32L6 27ZM2 28L2 31L5 31L5 28Z" fill="#000000"/></g></g></svg>
