<?xml version="1.0" encoding="UTF-8"?>
<svg xmlns="http://www.w3.org/2000/svg" version="1.1" width="400" height="400" viewBox="0 0 400 400"><rect x="0" y="0" width="400" height="400" fill="#fefefe"/><g transform="scale(9.756)"><g transform="translate(4,4)"><path fill-rule="evenodd" d="M8 0L8 4L9 4L9 5L8 5L8 7L9 7L9 8L10 8L10 7L11 7L11 5L12 5L12 7L13 7L13 5L14 5L14 7L15 7L15 8L14 8L14 9L13 9L13 8L12 8L12 9L11 9L11 11L10 11L10 13L11 13L11 14L9 14L9 15L8 15L8 16L5 16L5 17L7 17L7 18L6 18L6 19L7 19L7 20L5 20L5 21L8 21L8 22L10 22L10 20L8 20L8 17L11 17L11 18L10 18L10 19L11 19L11 23L10 23L10 24L11 24L11 23L12 23L12 22L13 22L13 23L17 23L17 25L16 25L16 24L14 24L14 25L13 25L13 24L12 24L12 25L8 25L8 26L10 26L10 27L12 27L12 28L13 28L13 27L12 27L12 26L14 26L14 25L15 25L15 28L14 28L14 29L11 29L11 28L9 28L9 27L8 27L8 29L9 29L9 30L10 30L10 29L11 29L11 31L13 31L13 30L14 30L14 29L15 29L15 32L14 32L14 33L15 33L15 32L16 32L16 31L17 31L17 33L18 33L18 32L19 32L19 33L20 33L20 31L19 31L19 30L17 30L17 29L18 29L18 27L19 27L19 29L20 29L20 30L21 30L21 29L23 29L23 30L22 30L22 31L21 31L21 33L22 33L22 31L23 31L23 30L25 30L25 31L24 31L24 33L28 33L28 32L29 32L29 33L30 33L30 31L32 31L32 30L33 30L33 29L30 29L30 30L29 30L29 27L31 27L31 28L32 28L32 26L31 26L31 25L32 25L32 24L33 24L33 23L31 23L31 22L32 22L32 21L33 21L33 19L32 19L32 18L31 18L31 17L30 17L30 18L29 18L29 19L28 19L28 17L29 17L29 16L30 16L30 14L31 14L31 16L32 16L32 17L33 17L33 16L32 16L32 14L31 14L31 13L29 13L29 10L28 10L28 11L27 11L27 12L26 12L26 11L25 11L25 9L22 9L22 7L23 7L23 6L22 6L22 7L21 7L21 5L24 5L24 7L25 7L25 0L23 0L23 1L22 1L22 0L20 0L20 1L18 1L18 0L17 0L17 1L18 1L18 2L16 2L16 3L15 3L15 4L14 4L14 3L12 3L12 4L9 4L9 3L11 3L11 2L9 2L9 0ZM10 0L10 1L12 1L12 2L13 2L13 0ZM15 0L15 1L14 1L14 2L15 2L15 1L16 1L16 0ZM20 1L20 3L17 3L17 4L16 4L16 5L15 5L15 7L16 7L16 8L15 8L15 9L14 9L14 11L13 11L13 10L12 10L12 11L11 11L11 13L12 13L12 15L9 15L9 16L11 16L11 17L12 17L12 16L13 16L13 17L14 17L14 19L13 19L13 18L12 18L12 19L13 19L13 21L14 21L14 22L15 22L15 21L16 21L16 20L17 20L17 19L18 19L18 21L17 21L17 23L19 23L19 24L18 24L18 25L17 25L17 26L16 26L16 28L15 28L15 29L17 29L17 26L19 26L19 27L20 27L20 29L21 29L21 27L20 27L20 25L21 25L21 26L23 26L23 27L22 27L22 28L23 28L23 29L24 29L24 24L27 24L27 22L31 22L31 20L32 20L32 19L30 19L30 21L25 21L25 22L24 22L24 23L23 23L23 18L22 18L22 17L25 17L25 16L27 16L27 17L26 17L26 18L27 18L27 17L28 17L28 16L27 16L27 15L29 15L29 13L26 13L26 12L25 12L25 13L24 13L24 12L23 12L23 10L22 10L22 9L21 9L21 7L20 7L20 6L19 6L19 7L18 7L18 5L21 5L21 4L22 4L22 3L23 3L23 2L24 2L24 1L23 1L23 2L22 2L22 1ZM21 2L21 3L22 3L22 2ZM17 4L17 5L18 5L18 4ZM9 5L9 7L10 7L10 5ZM16 6L16 7L17 7L17 9L15 9L15 12L14 12L14 13L13 13L13 14L14 14L14 13L15 13L15 15L16 15L16 14L17 14L17 16L14 16L14 17L16 17L16 18L15 18L15 20L14 20L14 21L15 21L15 20L16 20L16 19L17 19L17 17L18 17L18 18L19 18L19 17L22 17L22 15L23 15L23 16L25 16L25 15L26 15L26 13L25 13L25 15L24 15L24 13L23 13L23 12L22 12L22 10L21 10L21 9L20 9L20 8L18 8L18 7L17 7L17 6ZM0 8L0 9L1 9L1 10L0 10L0 13L1 13L1 12L2 12L2 13L3 13L3 14L5 14L5 15L7 15L7 14L5 14L5 13L7 13L7 12L5 12L5 11L4 11L4 10L6 10L6 11L7 11L7 10L8 10L8 9L7 9L7 8L4 8L4 10L3 10L3 11L1 11L1 10L2 10L2 8ZM27 8L27 9L28 9L28 8ZM29 8L29 9L31 9L31 12L32 12L32 13L33 13L33 12L32 12L32 9L33 9L33 8ZM6 9L6 10L7 10L7 9ZM9 9L9 10L10 10L10 9ZM17 9L17 10L16 10L16 11L18 11L18 12L20 12L20 13L19 13L19 15L18 15L18 16L19 16L19 15L20 15L20 16L21 16L21 15L20 15L20 13L21 13L21 14L23 14L23 13L21 13L21 12L20 12L20 11L21 11L21 10L20 10L20 9L19 9L19 10L18 10L18 9ZM3 11L3 13L5 13L5 12L4 12L4 11ZM8 11L8 13L9 13L9 11ZM12 11L12 12L13 12L13 11ZM16 12L16 13L17 13L17 12ZM0 14L0 15L1 15L1 14ZM2 15L2 16L0 16L0 20L1 20L1 19L2 19L2 20L3 20L3 21L2 21L2 23L4 23L4 24L0 24L0 25L4 25L4 24L5 24L5 25L7 25L7 24L6 24L6 23L7 23L7 22L6 22L6 23L5 23L5 22L4 22L4 19L5 19L5 18L3 18L3 17L2 17L2 16L3 16L3 15ZM2 18L2 19L3 19L3 18ZM21 18L21 20L20 20L20 19L19 19L19 21L21 21L21 22L20 22L20 23L21 23L21 25L23 25L23 24L22 24L22 18ZM26 19L26 20L27 20L27 19ZM0 21L0 22L1 22L1 21ZM25 22L25 23L26 23L26 22ZM28 23L28 24L29 24L29 26L30 26L30 25L31 25L31 23L30 23L30 24L29 24L29 23ZM19 24L19 25L20 25L20 24ZM25 25L25 28L28 28L28 25ZM26 26L26 27L27 27L27 26ZM8 31L8 33L9 33L9 31ZM26 31L26 32L28 32L28 31ZM10 32L10 33L11 33L11 32ZM32 32L32 33L33 33L33 32ZM0 0L0 7L7 7L7 0ZM1 1L1 6L6 6L6 1ZM2 2L2 5L5 5L5 2ZM26 0L26 7L33 7L33 0ZM27 1L27 6L32 6L32 1ZM28 2L28 5L31 5L31 2ZM0 26L0 33L7 33L7 26ZM1 27L1 32L6 32L6 27ZM2 28L2 31L5 31L5 28Z" fill="#000000"/></g></g></svg>
