<?xml version="1.0" encoding="UTF-8"?>
<svg xmlns="http://www.w3.org/2000/svg" version="1.1" width="400" height="400" viewBox="0 0 400 400"><rect x="0" y="0" width="400" height="400" fill="#fefefe"/><g transform="scale(9.756)"><g transform="translate(4,4)"><path fill-rule="evenodd" d="M11 0L11 1L8 1L8 3L9 3L9 2L10 2L10 4L8 4L8 8L6 8L6 9L5 9L5 11L3 11L3 10L4 10L4 8L3 8L3 9L2 9L2 8L0 8L0 11L1 11L1 12L0 12L0 14L1 14L1 16L2 16L2 17L1 17L1 18L2 18L2 19L1 19L1 21L2 21L2 19L3 19L3 22L4 22L4 21L5 21L5 22L6 22L6 23L4 23L4 24L6 24L6 25L8 25L8 27L9 27L9 25L8 25L8 24L9 24L9 23L8 23L8 22L10 22L10 21L7 21L7 20L8 20L8 18L6 18L6 17L7 17L7 16L6 16L6 15L8 15L8 14L9 14L9 15L10 15L10 16L11 16L11 15L13 15L13 16L12 16L12 17L9 17L9 18L10 18L10 20L12 20L12 21L13 21L13 22L12 22L12 23L10 23L10 25L11 25L11 24L12 24L12 25L14 25L14 26L15 26L15 25L17 25L17 27L15 27L15 28L14 28L14 27L12 27L12 26L10 26L10 27L11 27L11 28L9 28L9 29L8 29L8 30L9 30L9 31L8 31L8 33L10 33L10 30L9 30L9 29L11 29L11 30L12 30L12 29L11 29L11 28L14 28L14 29L13 29L13 30L14 30L14 32L13 32L13 33L14 33L14 32L16 32L16 33L17 33L17 32L19 32L19 31L17 31L17 29L18 29L18 30L19 30L19 29L20 29L20 33L23 33L23 32L24 32L24 33L25 33L25 31L26 31L26 30L27 30L27 29L28 29L28 31L27 31L27 32L26 32L26 33L29 33L29 32L30 32L30 31L29 31L29 27L30 27L30 25L29 25L29 24L28 24L28 20L30 20L30 19L28 19L28 18L27 18L27 21L26 21L26 17L27 17L27 16L28 16L28 17L29 17L29 16L30 16L30 15L32 15L32 14L33 14L33 9L32 9L32 8L30 8L30 9L29 9L29 8L26 8L26 11L25 11L25 12L24 12L24 14L22 14L22 15L19 15L19 16L18 16L18 14L17 14L17 15L16 15L16 16L14 16L14 15L13 15L13 13L14 13L14 14L15 14L15 13L19 13L19 14L20 14L20 13L19 13L19 12L16 12L16 11L20 11L20 12L21 12L21 13L23 13L23 12L22 12L22 11L21 11L21 10L23 10L23 9L24 9L24 8L25 8L25 5L24 5L24 3L25 3L25 2L24 2L24 1L25 1L25 0L19 0L19 1L21 1L21 2L22 2L22 1L23 1L23 2L24 2L24 3L23 3L23 4L21 4L21 3L20 3L20 5L19 5L19 6L18 6L18 7L17 7L17 6L16 6L16 3L19 3L19 2L18 2L18 0L15 0L15 4L13 4L13 2L14 2L14 0ZM12 1L12 2L11 2L11 4L12 4L12 2L13 2L13 1ZM11 5L11 7L10 7L10 6L9 6L9 7L10 7L10 8L8 8L8 10L11 10L11 11L9 11L9 12L8 12L8 13L6 13L6 14L8 14L8 13L9 13L9 14L10 14L10 13L11 13L11 14L12 14L12 13L13 13L13 12L11 12L11 11L12 11L12 10L13 10L13 11L14 11L14 10L13 10L13 9L10 9L10 8L14 8L14 9L15 9L15 11L16 11L16 8L17 8L17 9L18 9L18 10L21 10L21 9L18 9L18 8L21 8L21 7L22 7L22 8L23 8L23 7L24 7L24 5L22 5L22 6L21 6L21 5L20 5L20 6L19 6L19 7L18 7L18 8L17 8L17 7L16 7L16 6L15 6L15 7L14 7L14 5ZM12 6L12 7L13 7L13 6ZM20 6L20 7L21 7L21 6ZM22 6L22 7L23 7L23 6ZM15 7L15 8L16 8L16 7ZM1 9L1 10L2 10L2 9ZM6 9L6 10L7 10L7 9ZM28 9L28 10L27 10L27 11L28 11L28 13L29 13L29 14L28 14L28 16L29 16L29 14L31 14L31 12L32 12L32 10L31 10L31 11L30 11L30 12L29 12L29 9ZM2 11L2 13L1 13L1 14L2 14L2 16L4 16L4 17L3 17L3 18L4 18L4 17L6 17L6 16L4 16L4 15L5 15L5 12L7 12L7 11L5 11L5 12L4 12L4 13L3 13L3 11ZM25 12L25 13L26 13L26 12ZM25 14L25 16L23 16L23 15L22 15L22 17L17 17L17 18L19 18L19 19L18 19L18 20L17 20L17 19L16 19L16 18L15 18L15 17L14 17L14 16L13 16L13 17L12 17L12 18L11 18L11 19L12 19L12 18L13 18L13 17L14 17L14 18L15 18L15 19L13 19L13 20L14 20L14 21L15 21L15 22L14 22L14 24L16 24L16 23L17 23L17 24L18 24L18 25L20 25L20 23L22 23L22 22L23 22L23 24L22 24L22 25L23 25L23 26L22 26L22 29L24 29L24 30L25 30L25 29L24 29L24 28L23 28L23 27L24 27L24 25L23 25L23 24L25 24L25 23L24 23L24 22L25 22L25 21L24 21L24 20L23 20L23 19L25 19L25 16L26 16L26 15L27 15L27 14ZM32 16L32 17L33 17L33 16ZM22 17L22 19L21 19L21 18L20 18L20 19L21 19L21 20L20 20L20 21L23 21L23 20L22 20L22 19L23 19L23 18L24 18L24 17ZM31 18L31 19L32 19L32 20L33 20L33 18ZM4 19L4 20L7 20L7 19ZM15 19L15 20L16 20L16 19ZM6 21L6 22L7 22L7 21ZM16 21L16 22L17 22L17 23L18 23L18 24L19 24L19 23L20 23L20 22L19 22L19 21ZM29 21L29 22L31 22L31 23L33 23L33 21ZM0 22L0 23L1 23L1 24L0 24L0 25L1 25L1 24L3 24L3 23L2 23L2 22ZM6 23L6 24L7 24L7 23ZM12 23L12 24L13 24L13 23ZM26 23L26 24L27 24L27 23ZM25 25L25 28L28 28L28 25ZM31 25L31 27L32 27L32 26L33 26L33 25ZM18 26L18 29L19 29L19 27L20 27L20 26ZM26 26L26 27L27 27L27 26ZM15 28L15 29L14 29L14 30L15 30L15 31L16 31L16 32L17 32L17 31L16 31L16 29L17 29L17 28ZM20 28L20 29L21 29L21 28ZM31 29L31 31L33 31L33 29ZM21 30L21 31L23 31L23 30ZM11 31L11 33L12 33L12 31ZM28 31L28 32L29 32L29 31ZM31 32L31 33L32 33L32 32ZM0 0L0 7L7 7L7 0ZM1 1L1 6L6 6L6 1ZM2 2L2 5L5 5L5 2ZM26 0L26 7L33 7L33 0ZM27 1L27 6L32 6L32 1ZM28 2L28 5L31 5L31 2ZM0 26L0 33L7 33L7 26ZM1 27L1 32L6 32L6 27ZM2 28L2 31L5 31L5 28Z" fill="#000000"/></g></g></svg>
