<?xml version="1.0" encoding="UTF-8"?>
<svg xmlns="http://www.w3.org/2000/svg" version="1.1" width="400" height="400" viewBox="0 0 400 400"><rect x="0" y="0" width="400" height="400" fill="#fefefe"/><g transform="scale(9.756)"><g transform="translate(4,4)"><path fill-rule="evenodd" d="M8 0L8 1L9 1L9 2L10 2L10 3L11 3L11 1L13 1L13 0L11 0L11 1L9 1L9 0ZM16 0L16 1L17 1L17 2L16 2L16 4L17 4L17 5L16 5L16 8L15 8L15 6L14 6L14 5L15 5L15 3L14 3L14 2L15 2L15 1L14 1L14 2L12 2L12 4L11 4L11 5L10 5L10 4L9 4L9 5L10 5L10 8L9 8L9 6L8 6L8 8L9 8L9 9L8 9L8 10L6 10L6 11L7 11L7 12L6 12L6 13L5 13L5 11L3 11L3 10L5 10L5 8L3 8L3 10L0 10L0 11L1 11L1 13L2 13L2 14L0 14L0 15L1 15L1 16L0 16L0 18L1 18L1 19L0 19L0 25L4 25L4 24L5 24L5 23L7 23L7 22L9 22L9 21L10 21L10 23L12 23L12 24L10 24L10 25L8 25L8 24L9 24L9 23L8 23L8 24L6 24L6 25L8 25L8 26L9 26L9 28L8 28L8 30L9 30L9 31L8 31L8 33L11 33L11 32L9 32L9 31L10 31L10 30L11 30L11 31L13 31L13 32L14 32L14 31L16 31L16 32L15 32L15 33L18 33L18 32L17 32L17 31L18 31L18 29L17 29L17 30L16 30L16 28L15 28L15 27L16 27L16 26L17 26L17 24L18 24L18 23L19 23L19 22L20 22L20 20L21 20L21 19L22 19L22 21L21 21L21 23L23 23L23 24L22 24L22 26L21 26L21 27L22 27L22 30L21 30L21 28L20 28L20 26L19 26L19 27L18 27L18 28L20 28L20 29L19 29L19 33L21 33L21 32L20 32L20 30L21 30L21 31L22 31L22 33L23 33L23 32L24 32L24 33L26 33L26 32L27 32L27 33L29 33L29 32L33 32L33 30L32 30L32 31L30 31L30 30L31 30L31 29L33 29L33 28L32 28L32 27L29 27L29 25L30 25L30 26L31 26L31 25L32 25L32 24L33 24L33 22L32 22L32 23L30 23L30 22L29 22L29 21L30 21L30 20L31 20L31 21L32 21L32 19L33 19L33 15L31 15L31 13L30 13L30 12L32 12L32 13L33 13L33 12L32 12L32 11L33 11L33 10L30 10L30 12L29 12L29 11L28 11L28 10L29 10L29 9L28 9L28 10L26 10L26 9L27 9L27 8L26 8L26 9L23 9L23 8L24 8L24 7L25 7L25 5L22 5L22 2L23 2L23 0L22 0L22 2L21 2L21 4L19 4L19 3L20 3L20 1L21 1L21 0L20 0L20 1L18 1L18 0ZM24 0L24 1L25 1L25 0ZM17 2L17 3L18 3L18 2ZM24 3L24 4L25 4L25 3ZM12 4L12 5L11 5L11 7L12 7L12 9L10 9L10 10L9 10L9 11L8 11L8 13L6 13L6 14L7 14L7 15L5 15L5 14L4 14L4 12L3 12L3 15L2 15L2 16L5 16L5 17L6 17L6 18L5 18L5 19L1 19L1 20L2 20L2 21L1 21L1 24L2 24L2 23L3 23L3 24L4 24L4 23L3 23L3 22L4 22L4 21L5 21L5 22L7 22L7 21L9 21L9 20L10 20L10 18L8 18L8 19L9 19L9 20L7 20L7 19L6 19L6 18L7 18L7 17L8 17L8 16L10 16L10 17L12 17L12 16L14 16L14 15L15 15L15 13L16 13L16 11L13 11L13 10L15 10L15 8L13 8L13 7L14 7L14 6L13 6L13 7L12 7L12 5L14 5L14 4ZM18 4L18 5L17 5L17 8L21 8L21 9L22 9L22 11L21 11L21 10L19 10L19 12L20 12L20 11L21 11L21 13L19 13L19 14L16 14L16 16L15 16L15 18L17 18L17 20L16 20L16 19L15 19L15 20L13 20L13 19L14 19L14 17L13 17L13 18L12 18L12 19L11 19L11 20L12 20L12 22L13 22L13 25L14 25L14 27L13 27L13 26L10 26L10 28L11 28L11 27L13 27L13 28L12 28L12 29L11 29L11 30L12 30L12 29L13 29L13 30L14 30L14 29L13 29L13 28L14 28L14 27L15 27L15 25L16 25L16 24L17 24L17 23L18 23L18 22L19 22L19 20L18 20L18 18L17 18L17 17L18 17L18 15L19 15L19 17L20 17L20 16L21 16L21 18L20 18L20 19L21 19L21 18L22 18L22 19L23 19L23 20L25 20L25 22L24 22L24 24L28 24L28 23L25 23L25 22L28 22L28 21L29 21L29 20L30 20L30 19L32 19L32 18L30 18L30 19L29 19L29 18L28 18L28 15L27 15L27 14L29 14L29 16L30 16L30 17L31 17L31 16L30 16L30 14L29 14L29 12L28 12L28 11L26 11L26 10L25 10L25 11L23 11L23 9L22 9L22 5L19 5L19 4ZM18 5L18 7L19 7L19 5ZM20 6L20 7L21 7L21 6ZM23 6L23 7L24 7L24 6ZM0 8L0 9L2 9L2 8ZM6 8L6 9L7 9L7 8ZM32 8L32 9L33 9L33 8ZM12 9L12 10L10 10L10 11L9 11L9 13L8 13L8 15L10 15L10 12L11 12L11 13L13 13L13 14L11 14L11 16L12 16L12 15L14 15L14 13L15 13L15 12L14 12L14 13L13 13L13 11L12 11L12 10L13 10L13 9ZM16 9L16 10L17 10L17 11L18 11L18 9ZM17 12L17 13L18 13L18 12ZM22 12L22 13L21 13L21 14L19 14L19 15L22 15L22 16L23 16L23 17L24 17L24 18L23 18L23 19L24 19L24 18L25 18L25 17L24 17L24 16L23 16L23 14L24 14L24 15L25 15L25 16L26 16L26 18L27 18L27 15L25 15L25 13L27 13L27 12L25 12L25 13L24 13L24 12ZM6 16L6 17L7 17L7 16ZM16 16L16 17L17 17L17 16ZM1 17L1 18L3 18L3 17ZM5 19L5 21L7 21L7 20L6 20L6 19ZM26 19L26 20L27 20L27 19ZM3 20L3 21L4 21L4 20ZM15 20L15 23L14 23L14 25L15 25L15 24L16 24L16 20ZM17 20L17 21L18 21L18 20ZM19 24L19 25L21 25L21 24ZM30 24L30 25L31 25L31 24ZM23 25L23 26L22 26L22 27L23 27L23 26L24 26L24 25ZM25 25L25 28L28 28L28 25ZM26 26L26 27L27 27L27 26ZM30 28L30 29L31 29L31 28ZM9 29L9 30L10 30L10 29ZM23 29L23 31L24 31L24 32L26 32L26 31L27 31L27 32L28 32L28 30L29 30L29 29L26 29L26 31L24 31L24 29ZM0 0L0 7L7 7L7 0ZM1 1L1 6L6 6L6 1ZM2 2L2 5L5 5L5 2ZM26 0L26 7L33 7L33 0ZM27 1L27 6L32 6L32 1ZM28 2L28 5L31 5L31 2ZM0 26L0 33L7 33L7 26ZM1 27L1 32L6 32L6 27ZM2 28L2 31L5 31L5 28Z" fill="#000000"/></g></g></svg>
