<?xml version="1.0" encoding="UTF-8"?>
<svg xmlns="http://www.w3.org/2000/svg" version="1.1" width="400" height="400" viewBox="0 0 400 400"><rect x="0" y="0" width="400" height="400" fill="#fefefe"/><g transform="scale(9.756)"><g transform="translate(4,4)"><path fill-rule="evenodd" d="M9 0L9 1L8 1L8 2L9 2L9 3L8 3L8 4L9 4L9 3L10 3L10 5L8 5L8 7L9 7L9 8L6 8L6 9L5 9L5 8L0 8L0 10L1 10L1 9L2 9L2 10L3 10L3 11L1 11L1 12L0 12L0 13L2 13L2 15L1 15L1 14L0 14L0 15L1 15L1 17L0 17L0 18L2 18L2 20L1 20L1 19L0 19L0 20L1 20L1 21L0 21L0 25L1 25L1 22L2 22L2 23L3 23L3 24L4 24L4 25L7 25L7 24L6 24L6 23L7 23L7 22L8 22L8 24L9 24L9 25L8 25L8 27L9 27L9 28L8 28L8 33L9 33L9 31L10 31L10 32L13 32L13 33L14 33L14 32L15 32L15 33L16 33L16 32L17 32L17 33L18 33L18 32L17 32L17 31L16 31L16 30L17 30L17 29L18 29L18 28L19 28L19 30L20 30L20 31L19 31L19 32L20 32L20 33L21 33L21 32L23 32L23 33L27 33L27 32L28 32L28 30L29 30L29 28L31 28L31 29L30 29L30 30L31 30L31 31L29 31L29 32L31 32L31 33L32 33L32 32L31 32L31 31L32 31L32 30L31 30L31 29L33 29L33 28L32 28L32 26L33 26L33 23L30 23L30 24L32 24L32 25L30 25L30 26L31 26L31 27L29 27L29 24L24 24L24 23L26 23L26 22L27 22L27 23L28 23L28 21L30 21L30 20L31 20L31 19L32 19L32 20L33 20L33 19L32 19L32 18L33 18L33 17L32 17L32 14L33 14L33 13L32 13L32 10L33 10L33 9L32 9L32 8L31 8L31 9L32 9L32 10L28 10L28 8L27 8L27 9L26 9L26 8L24 8L24 9L21 9L21 8L22 8L22 7L23 7L23 6L22 6L22 5L24 5L24 4L25 4L25 3L24 3L24 2L25 2L25 0L23 0L23 1L21 1L21 0L18 0L18 1L17 1L17 2L19 2L19 1L21 1L21 2L20 2L20 4L18 4L18 3L17 3L17 4L18 4L18 5L20 5L20 7L21 7L21 8L20 8L20 9L19 9L19 8L17 8L17 6L16 6L16 5L15 5L15 6L14 6L14 5L13 5L13 4L14 4L14 3L13 3L13 2L14 2L14 1L15 1L15 2L16 2L16 1L15 1L15 0ZM10 1L10 3L11 3L11 2L12 2L12 1ZM23 1L23 2L24 2L24 1ZM12 3L12 4L13 4L13 3ZM15 3L15 4L16 4L16 3ZM21 3L21 4L20 4L20 5L22 5L22 4L24 4L24 3ZM11 5L11 7L12 7L12 5ZM9 6L9 7L10 7L10 6ZM13 6L13 8L14 8L14 9L13 9L13 10L14 10L14 11L12 11L12 10L11 10L11 9L12 9L12 8L10 8L10 9L9 9L9 10L8 10L8 11L6 11L6 10L7 10L7 9L6 9L6 10L5 10L5 9L4 9L4 11L3 11L3 12L2 12L2 13L3 13L3 15L4 15L4 16L3 16L3 17L2 17L2 18L4 18L4 16L5 16L5 17L6 17L6 18L5 18L5 19L6 19L6 20L7 20L7 21L6 21L6 22L7 22L7 21L9 21L9 19L10 19L10 23L9 23L9 24L10 24L10 23L12 23L12 22L11 22L11 20L14 20L14 21L13 21L13 22L14 22L14 21L15 21L15 22L16 22L16 23L13 23L13 24L14 24L14 25L13 25L13 27L12 27L12 26L10 26L10 25L9 25L9 26L10 26L10 27L11 27L11 28L10 28L10 29L9 29L9 30L11 30L11 31L13 31L13 32L14 32L14 31L15 31L15 30L16 30L16 29L17 29L17 28L18 28L18 27L19 27L19 28L21 28L21 29L20 29L20 30L21 30L21 29L23 29L23 30L22 30L22 31L23 31L23 32L27 32L27 31L23 31L23 30L28 30L28 29L24 29L24 28L23 28L23 26L24 26L24 24L23 24L23 25L22 25L22 24L21 24L21 23L20 23L20 22L23 22L23 23L24 23L24 22L23 22L23 20L25 20L25 21L28 21L28 20L30 20L30 19L31 19L31 18L30 18L30 17L31 17L31 16L30 16L30 14L29 14L29 13L31 13L31 12L29 12L29 11L28 11L28 10L26 10L26 11L24 11L24 10L25 10L25 9L24 9L24 10L21 10L21 9L20 9L20 10L19 10L19 13L22 13L22 14L21 14L21 15L23 15L23 17L22 17L22 16L20 16L20 14L17 14L17 16L18 16L18 15L19 15L19 17L22 17L22 18L23 18L23 20L21 20L21 19L20 19L20 18L19 18L19 19L20 19L20 20L18 20L18 19L17 19L17 18L18 18L18 17L17 17L17 18L16 18L16 19L17 19L17 20L18 20L18 21L17 21L17 22L16 22L16 21L15 21L15 18L14 18L14 17L16 17L16 15L15 15L15 14L16 14L16 13L17 13L17 12L18 12L18 11L16 11L16 12L15 12L15 10L16 10L16 9L17 9L17 10L18 10L18 9L17 9L17 8L16 8L16 9L15 9L15 7L16 7L16 6L15 6L15 7L14 7L14 6ZM18 6L18 7L19 7L19 6ZM21 6L21 7L22 7L22 6ZM24 6L24 7L25 7L25 6ZM29 8L29 9L30 9L30 8ZM14 9L14 10L15 10L15 9ZM10 10L10 11L11 11L11 12L9 12L9 14L8 14L8 13L7 13L7 12L5 12L5 13L4 13L4 15L5 15L5 16L6 16L6 17L8 17L8 18L9 18L9 16L6 16L6 15L7 15L7 14L8 14L8 15L9 15L9 14L10 14L10 15L11 15L11 16L10 16L10 18L12 18L12 19L14 19L14 18L13 18L13 17L14 17L14 16L13 16L13 14L12 14L12 13L11 13L11 12L12 12L12 11L11 11L11 10ZM20 10L20 12L22 12L22 13L23 13L23 14L24 14L24 15L25 15L25 16L26 16L26 14L28 14L28 13L29 13L29 12L28 12L28 13L23 13L23 12L24 12L24 11L23 11L23 12L22 12L22 11L21 11L21 10ZM26 11L26 12L27 12L27 11ZM13 12L13 13L14 13L14 14L15 14L15 13L14 13L14 12ZM5 13L5 14L7 14L7 13ZM10 13L10 14L11 14L11 15L12 15L12 14L11 14L11 13ZM11 16L11 17L12 17L12 16ZM27 16L27 17L26 17L26 18L25 18L25 17L23 17L23 18L25 18L25 20L26 20L26 19L27 19L27 20L28 20L28 19L27 19L27 17L29 17L29 16ZM6 18L6 19L7 19L7 18ZM3 20L3 21L2 21L2 22L3 22L3 21L4 21L4 23L5 23L5 21L4 21L4 20ZM20 20L20 21L19 21L19 22L17 22L17 23L16 23L16 24L17 24L17 25L16 25L16 26L15 26L15 25L14 25L14 26L15 26L15 29L14 29L14 28L13 28L13 29L11 29L11 30L13 30L13 29L14 29L14 30L15 30L15 29L16 29L16 28L17 28L17 25L18 25L18 24L17 24L17 23L19 23L19 22L20 22L20 21L21 21L21 20ZM32 21L32 22L33 22L33 21ZM11 24L11 25L12 25L12 24ZM20 24L20 25L19 25L19 26L20 26L20 27L21 27L21 28L22 28L22 27L21 27L21 26L22 26L22 25L21 25L21 24ZM20 25L20 26L21 26L21 25ZM25 25L25 28L28 28L28 25ZM26 26L26 27L27 27L27 26ZM20 31L20 32L21 32L21 31ZM0 0L0 7L7 7L7 0ZM1 1L1 6L6 6L6 1ZM2 2L2 5L5 5L5 2ZM26 0L26 7L33 7L33 0ZM27 1L27 6L32 6L32 1ZM28 2L28 5L31 5L31 2ZM0 26L0 33L7 33L7 26ZM1 27L1 32L6 32L6 27ZM2 28L2 31L5 31L5 28Z" fill="#000000"/></g></g></svg>
