<?xml version="1.0" encoding="UTF-8"?>
<svg xmlns="http://www.w3.org/2000/svg" version="1.1" width="400" height="400" viewBox="0 0 400 400"><rect x="0" y="0" width="400" height="400" fill="#fefefe"/><g transform="scale(9.756)"><g transform="translate(4,4)"><path fill-rule="evenodd" d="M8 0L8 4L10 4L10 3L11 3L11 4L12 4L12 2L11 2L11 0ZM12 0L12 1L13 1L13 0ZM15 0L15 1L14 1L14 2L15 2L15 1L16 1L16 0ZM18 0L18 1L19 1L19 2L21 2L21 3L20 3L20 5L19 5L19 3L18 3L18 2L16 2L16 3L15 3L15 4L14 4L14 3L13 3L13 5L11 5L11 6L10 6L10 7L9 7L9 5L8 5L8 7L9 7L9 8L10 8L10 7L11 7L11 6L12 6L12 8L11 8L11 9L8 9L8 10L11 10L11 11L10 11L10 13L9 13L9 11L7 11L7 10L6 10L6 9L7 9L7 8L4 8L4 9L2 9L2 8L0 8L0 9L1 9L1 10L0 10L0 11L1 11L1 10L2 10L2 11L3 11L3 10L4 10L4 11L5 11L5 13L4 13L4 15L3 15L3 14L2 14L2 16L5 16L5 15L8 15L8 17L7 17L7 16L6 16L6 17L7 17L7 18L5 18L5 17L4 17L4 18L2 18L2 20L1 20L1 16L0 16L0 22L4 22L4 23L5 23L5 22L6 22L6 23L7 23L7 22L6 22L6 21L7 21L7 20L8 20L8 24L0 24L0 25L8 25L8 26L9 26L9 25L10 25L10 27L11 27L11 28L9 28L9 27L8 27L8 29L9 29L9 31L8 31L8 33L10 33L10 32L13 32L13 30L14 30L14 29L15 29L15 32L14 32L14 33L15 33L15 32L16 32L16 31L17 31L17 33L18 33L18 32L19 32L19 33L20 33L20 32L21 32L21 33L22 33L22 31L21 31L21 29L22 29L22 30L23 30L23 33L28 33L28 32L29 32L29 31L32 31L32 30L33 30L33 27L32 27L32 26L31 26L31 25L32 25L32 24L33 24L33 23L31 23L31 22L32 22L32 21L33 21L33 19L32 19L32 18L31 18L31 17L30 17L30 18L29 18L29 19L28 19L28 18L26 18L26 17L29 17L29 16L30 16L30 14L31 14L31 16L32 16L32 17L33 17L33 16L32 16L32 14L31 14L31 13L29 13L29 10L28 10L28 8L27 8L27 10L28 10L28 13L27 13L27 11L26 11L26 9L25 9L25 5L24 5L24 3L25 3L25 0L23 0L23 1L22 1L22 0L21 0L21 1L19 1L19 0ZM21 1L21 2L22 2L22 3L21 3L21 5L20 5L20 6L19 6L19 5L18 5L18 3L17 3L17 4L16 4L16 5L15 5L15 7L14 7L14 5L13 5L13 8L12 8L12 9L11 9L11 10L12 10L12 9L14 9L14 11L12 11L12 12L11 12L11 13L10 13L10 14L9 14L9 13L8 13L8 12L7 12L7 11L6 11L6 12L7 12L7 13L6 13L6 14L9 14L9 16L12 16L12 15L13 15L13 17L14 17L14 19L13 19L13 20L12 20L12 23L11 23L11 22L10 22L10 21L9 21L9 22L10 22L10 23L9 23L9 24L8 24L8 25L9 25L9 24L10 24L10 23L11 23L11 25L12 25L12 24L13 24L13 25L14 25L14 26L12 26L12 27L13 27L13 28L11 28L11 29L14 29L14 28L15 28L15 29L17 29L17 30L19 30L19 31L20 31L20 29L21 29L21 27L20 27L20 25L21 25L21 26L22 26L22 29L24 29L24 28L23 28L23 27L24 27L24 26L22 26L22 25L24 25L24 24L26 24L26 23L27 23L27 21L28 21L28 23L29 23L29 22L31 22L31 20L32 20L32 19L30 19L30 21L28 21L28 19L26 19L26 20L25 20L25 21L26 21L26 23L25 23L25 22L24 22L24 24L23 24L23 19L22 19L22 17L25 17L25 16L27 16L27 15L29 15L29 13L28 13L28 14L27 14L27 13L24 13L24 12L26 12L26 11L25 11L25 9L24 9L24 5L23 5L23 2L24 2L24 1L23 1L23 2L22 2L22 1ZM9 2L9 3L10 3L10 2ZM16 6L16 7L15 7L15 8L14 8L14 9L15 9L15 12L14 12L14 13L13 13L13 12L12 12L12 13L13 13L13 14L14 14L14 13L15 13L15 15L16 15L16 14L17 14L17 16L14 16L14 17L16 17L16 18L15 18L15 20L14 20L14 21L13 21L13 22L14 22L14 25L15 25L15 28L16 28L16 26L17 26L17 29L18 29L18 27L19 27L19 26L17 26L17 25L18 25L18 24L19 24L19 25L20 25L20 24L19 24L19 23L17 23L17 21L18 21L18 19L17 19L17 17L18 17L18 18L19 18L19 17L22 17L22 16L25 16L25 15L24 15L24 13L23 13L23 11L24 11L24 9L23 9L23 8L22 8L22 7L23 7L23 6L22 6L22 7L21 7L21 6L20 6L20 8L19 8L19 6L18 6L18 7L17 7L17 6ZM16 7L16 8L15 8L15 9L17 9L17 10L16 10L16 11L18 11L18 12L20 12L20 11L23 11L23 9L19 9L19 10L18 10L18 9L17 9L17 7ZM29 8L29 9L31 9L31 12L32 12L32 13L33 13L33 12L32 12L32 9L33 9L33 8ZM4 9L4 10L5 10L5 9ZM0 12L0 13L1 13L1 12ZM2 12L2 13L3 13L3 12ZM16 12L16 13L17 13L17 12ZM19 13L19 15L18 15L18 16L19 16L19 15L23 15L23 13ZM0 14L0 15L1 15L1 14ZM26 14L26 15L27 15L27 14ZM8 17L8 20L11 20L11 19L9 19L9 17ZM11 17L11 18L12 18L12 17ZM4 19L4 20L7 20L7 19ZM16 19L16 20L15 20L15 21L14 21L14 22L15 22L15 21L16 21L16 20L17 20L17 19ZM20 19L20 20L19 20L19 21L21 21L21 25L22 25L22 19ZM26 20L26 21L27 21L27 20ZM4 21L4 22L5 22L5 21ZM15 23L15 24L16 24L16 25L17 25L17 23ZM30 23L30 24L29 24L29 26L30 26L30 25L31 25L31 23ZM25 25L25 28L28 28L28 25ZM26 26L26 27L27 27L27 26ZM29 27L29 30L30 30L30 29L32 29L32 28L31 28L31 27ZM27 29L27 31L25 31L25 30L24 30L24 31L25 31L25 32L27 32L27 31L28 31L28 29ZM10 30L10 31L9 31L9 32L10 32L10 31L11 31L11 30ZM32 32L32 33L33 33L33 32ZM0 0L0 7L7 7L7 0ZM1 1L1 6L6 6L6 1ZM2 2L2 5L5 5L5 2ZM26 0L26 7L33 7L33 0ZM27 1L27 6L32 6L32 1ZM28 2L28 5L31 5L31 2ZM0 26L0 33L7 33L7 26ZM1 27L1 32L6 32L6 27ZM2 28L2 31L5 31L5 28Z" fill="#000000"/></g></g></svg>
