<?xml version="1.0" encoding="UTF-8"?>
<svg xmlns="http://www.w3.org/2000/svg" version="1.1" width="400" height="400" viewBox="0 0 400 400"><rect x="0" y="0" width="400" height="400" fill="#fefefe"/><g transform="scale(9.756)"><g transform="translate(4,4)"><path fill-rule="evenodd" d="M8 0L8 4L9 4L9 5L8 5L8 7L9 7L9 8L10 8L10 7L11 7L11 5L12 5L12 7L13 7L13 5L14 5L14 7L15 7L15 8L14 8L14 9L13 9L13 8L12 8L12 9L11 9L11 11L10 11L10 13L11 13L11 15L10 15L10 14L9 14L9 15L8 15L8 13L9 13L9 10L10 10L10 9L9 9L9 10L8 10L8 9L7 9L7 8L4 8L4 9L2 9L2 8L0 8L0 9L1 9L1 10L0 10L0 16L1 16L1 17L3 17L3 16L1 16L1 15L2 15L2 13L3 13L3 15L4 15L4 20L5 20L5 22L6 22L6 23L4 23L4 24L3 24L3 25L4 25L4 24L6 24L6 25L8 25L8 26L9 26L9 27L8 27L8 29L9 29L9 31L8 31L8 33L10 33L10 31L11 31L11 32L13 32L13 31L12 31L12 30L14 30L14 29L15 29L15 32L14 32L14 33L15 33L15 32L16 32L16 31L17 31L17 33L18 33L18 32L19 32L19 33L20 33L20 32L21 32L21 33L22 33L22 30L21 30L21 29L23 29L23 28L24 28L24 29L26 29L26 31L23 31L23 33L25 33L25 32L26 32L26 33L28 33L28 32L29 32L29 31L32 31L32 30L33 30L33 29L30 29L30 30L29 30L29 27L31 27L31 28L32 28L32 26L31 26L31 25L32 25L32 24L33 24L33 23L31 23L31 22L32 22L32 21L33 21L33 19L32 19L32 18L31 18L31 17L30 17L30 18L29 18L29 19L27 19L27 18L28 18L28 17L29 17L29 16L30 16L30 14L31 14L31 16L32 16L32 17L33 17L33 16L32 16L32 14L31 14L31 13L29 13L29 10L27 10L27 11L26 11L26 13L25 13L25 12L24 12L24 13L23 13L23 12L22 12L22 11L25 11L25 10L24 10L24 9L25 9L25 8L24 8L24 9L22 9L22 7L23 7L23 6L22 6L22 7L21 7L21 3L22 3L22 2L23 2L23 1L24 1L24 3L23 3L23 5L24 5L24 7L25 7L25 5L24 5L24 3L25 3L25 0L23 0L23 1L22 1L22 0L21 0L21 1L19 1L19 0L18 0L18 1L19 1L19 3L18 3L18 2L16 2L16 3L15 3L15 4L14 4L14 3L12 3L12 4L9 4L9 3L11 3L11 2L9 2L9 0ZM10 0L10 1L12 1L12 2L13 2L13 0ZM15 0L15 1L14 1L14 2L15 2L15 1L16 1L16 0ZM21 1L21 2L20 2L20 3L19 3L19 5L18 5L18 3L17 3L17 4L16 4L16 5L15 5L15 7L16 7L16 8L15 8L15 9L14 9L14 11L13 11L13 10L12 10L12 11L11 11L11 13L12 13L12 15L11 15L11 17L12 17L12 16L13 16L13 17L14 17L14 19L13 19L13 18L12 18L12 19L13 19L13 21L14 21L14 22L12 22L12 23L11 23L11 22L9 22L9 21L11 21L11 18L9 18L9 17L10 17L10 16L9 16L9 17L8 17L8 15L5 15L5 13L4 13L4 15L5 15L5 16L7 16L7 17L5 17L5 20L7 20L7 21L6 21L6 22L7 22L7 23L6 23L6 24L7 24L7 23L9 23L9 24L8 24L8 25L9 25L9 26L10 26L10 28L11 28L11 25L12 25L12 24L13 24L13 25L14 25L14 26L13 26L13 27L12 27L12 29L14 29L14 28L15 28L15 29L17 29L17 30L19 30L19 32L20 32L20 29L21 29L21 27L24 27L24 26L23 26L23 25L24 25L24 24L26 24L26 23L27 23L27 24L28 24L28 23L27 23L27 21L28 21L28 22L31 22L31 20L32 20L32 19L30 19L30 21L28 21L28 20L27 20L27 19L26 19L26 20L27 20L27 21L25 21L25 23L24 23L24 24L23 24L23 19L22 19L22 24L23 24L23 25L19 25L19 24L18 24L18 25L17 25L17 23L20 23L20 24L21 24L21 22L20 22L20 21L21 21L21 18L22 18L22 17L25 17L25 16L26 16L26 15L27 15L27 17L26 17L26 18L27 18L27 17L28 17L28 14L29 14L29 13L26 13L26 15L25 15L25 13L24 13L24 15L25 15L25 16L23 16L23 13L19 13L19 15L18 15L18 16L20 16L20 17L19 17L19 18L18 18L18 17L17 17L17 19L16 19L16 20L15 20L15 18L16 18L16 17L14 17L14 16L17 16L17 14L16 14L16 15L15 15L15 13L14 13L14 12L15 12L15 9L17 9L17 10L16 10L16 11L18 11L18 12L19 12L19 11L20 11L20 12L21 12L21 10L22 10L22 9L21 9L21 8L20 8L20 9L19 9L19 10L18 10L18 9L17 9L17 7L18 7L18 8L19 8L19 7L20 7L20 6L19 6L19 5L20 5L20 3L21 3L21 2L22 2L22 1ZM9 5L9 7L10 7L10 5ZM17 5L17 6L16 6L16 7L17 7L17 6L18 6L18 7L19 7L19 6L18 6L18 5ZM27 8L27 9L28 9L28 8ZM29 8L29 9L31 9L31 12L32 12L32 13L33 13L33 12L32 12L32 9L33 9L33 8ZM6 9L6 10L7 10L7 11L6 11L6 12L7 12L7 13L6 13L6 14L7 14L7 13L8 13L8 12L7 12L7 11L8 11L8 10L7 10L7 9ZM20 9L20 10L21 10L21 9ZM1 10L1 13L2 13L2 11L3 11L3 12L4 12L4 11L5 11L5 10L4 10L4 11L3 11L3 10ZM12 11L12 12L13 12L13 11ZM27 11L27 12L28 12L28 11ZM16 12L16 13L17 13L17 12ZM13 13L13 14L14 14L14 13ZM20 14L20 15L21 15L21 17L20 17L20 18L21 18L21 17L22 17L22 14ZM7 17L7 18L6 18L6 19L7 19L7 18L8 18L8 17ZM0 18L0 22L1 22L1 19L2 19L2 23L3 23L3 22L4 22L4 21L3 21L3 19L2 19L2 18ZM8 19L8 21L9 21L9 19ZM17 19L17 20L16 20L16 21L15 21L15 20L14 20L14 21L15 21L15 22L14 22L14 25L15 25L15 28L16 28L16 26L17 26L17 29L18 29L18 27L19 27L19 26L17 26L17 25L16 25L16 24L15 24L15 23L17 23L17 21L18 21L18 19ZM19 20L19 21L20 21L20 20ZM30 23L30 24L29 24L29 26L30 26L30 25L31 25L31 23ZM0 24L0 25L2 25L2 24ZM10 24L10 25L11 25L11 24ZM25 25L25 28L28 28L28 25ZM20 26L20 27L21 27L21 26ZM26 26L26 27L27 27L27 26ZM10 29L10 30L11 30L11 29ZM26 31L26 32L28 32L28 31ZM32 32L32 33L33 33L33 32ZM0 0L0 7L7 7L7 0ZM1 1L1 6L6 6L6 1ZM2 2L2 5L5 5L5 2ZM26 0L26 7L33 7L33 0ZM27 1L27 6L32 6L32 1ZM28 2L28 5L31 5L31 2ZM0 26L0 33L7 33L7 26ZM1 27L1 32L6 32L6 27ZM2 28L2 31L5 31L5 28Z" fill="#000000"/></g></g></svg>
