<?xml version="1.0" encoding="UTF-8"?>
<svg xmlns="http://www.w3.org/2000/svg" version="1.1" width="400" height="400" viewBox="0 0 400 400"><rect x="0" y="0" width="400" height="400" fill="#fefefe"/><g transform="scale(9.756)"><g transform="translate(4,4)"><path fill-rule="evenodd" d="M8 0L8 1L10 1L10 0ZM12 0L12 2L9 2L9 4L10 4L10 5L11 5L11 6L10 6L10 8L9 8L9 6L8 6L8 8L9 8L9 10L10 10L10 11L9 11L9 13L10 13L10 12L11 12L11 14L12 14L12 15L11 15L11 17L10 17L10 16L9 16L9 18L8 18L8 19L7 19L7 18L6 18L6 17L8 17L8 16L6 16L6 15L9 15L9 14L8 14L8 12L3 12L3 13L2 13L2 15L3 15L3 16L4 16L4 15L5 15L5 17L3 17L3 18L2 18L2 17L1 17L1 19L3 19L3 18L5 18L5 19L4 19L4 20L5 20L5 19L7 19L7 20L6 20L6 21L8 21L8 22L5 22L5 21L4 21L4 22L5 22L5 23L4 23L4 24L6 24L6 25L8 25L8 26L9 26L9 27L11 27L11 28L10 28L10 30L9 30L9 28L8 28L8 30L9 30L9 31L8 31L8 33L11 33L11 32L12 32L12 30L13 30L13 32L15 32L15 33L18 33L18 32L17 32L17 31L18 31L18 29L17 29L17 30L16 30L16 28L15 28L15 27L16 27L16 26L17 26L17 24L18 24L18 23L19 23L19 25L21 25L21 23L23 23L23 25L24 25L24 26L23 26L23 29L24 29L24 31L22 31L22 33L23 33L23 32L24 32L24 33L25 33L25 32L28 32L28 33L29 33L29 32L33 32L33 30L32 30L32 31L30 31L30 30L31 30L31 29L32 29L32 28L33 28L33 27L29 27L29 25L30 25L30 26L31 26L31 25L32 25L32 24L33 24L33 22L32 22L32 23L30 23L30 22L29 22L29 21L30 21L30 20L31 20L31 21L32 21L32 19L33 19L33 15L31 15L31 13L30 13L30 12L32 12L32 13L33 13L33 12L32 12L32 11L33 11L33 10L30 10L30 12L29 12L29 11L27 11L27 10L26 10L26 9L27 9L27 8L26 8L26 9L25 9L25 6L24 6L24 5L25 5L25 4L24 4L24 5L23 5L23 3L25 3L25 0L24 0L24 2L23 2L23 0L22 0L22 2L21 2L21 4L20 4L20 1L21 1L21 0L20 0L20 1L18 1L18 3L17 3L17 2L16 2L16 4L17 4L17 5L16 5L16 8L15 8L15 6L14 6L14 5L15 5L15 3L14 3L14 2L15 2L15 1L14 1L14 2L13 2L13 0ZM16 0L16 1L17 1L17 0ZM22 2L22 3L23 3L23 2ZM10 3L10 4L11 4L11 5L12 5L12 4L13 4L13 5L14 5L14 4L13 4L13 3L12 3L12 4L11 4L11 3ZM18 4L18 6L17 6L17 8L18 8L18 6L19 6L19 8L20 8L20 10L19 10L19 11L20 11L20 10L21 10L21 12L20 12L20 13L19 13L19 14L16 14L16 16L15 16L15 18L17 18L17 20L16 20L16 19L15 19L15 20L13 20L13 19L14 19L14 17L13 17L13 19L11 19L11 20L10 20L10 21L11 21L11 20L13 20L13 25L14 25L14 27L13 27L13 28L12 28L12 29L11 29L11 30L12 30L12 29L13 29L13 30L14 30L14 29L13 29L13 28L14 28L14 27L15 27L15 25L16 25L16 24L17 24L17 23L18 23L18 22L19 22L19 23L20 23L20 22L21 22L21 21L22 21L22 19L23 19L23 20L26 20L26 22L28 22L28 21L29 21L29 20L30 20L30 19L32 19L32 18L30 18L30 19L28 19L28 18L26 18L26 16L25 16L25 15L27 15L27 16L28 16L28 15L29 15L29 16L30 16L30 17L31 17L31 16L30 16L30 14L29 14L29 12L28 12L28 15L27 15L27 13L25 13L25 12L27 12L27 11L26 11L26 10L25 10L25 9L24 9L24 8L23 8L23 7L24 7L24 6L23 6L23 7L22 7L22 4L21 4L21 8L20 8L20 5L19 5L19 4ZM11 6L11 7L12 7L12 6ZM13 6L13 7L14 7L14 6ZM0 8L0 12L2 12L2 10L3 10L3 9L5 9L5 10L4 10L4 11L7 11L7 10L8 10L8 9L7 9L7 8L6 8L6 9L5 9L5 8L3 8L3 9L2 9L2 8ZM11 8L11 9L12 9L12 8ZM13 8L13 10L15 10L15 8ZM22 8L22 9L23 9L23 12L22 12L22 14L24 14L24 15L25 15L25 13L24 13L24 9L23 9L23 8ZM32 8L32 9L33 9L33 8ZM1 9L1 10L2 10L2 9ZM6 9L6 10L7 10L7 9ZM16 9L16 10L17 10L17 11L18 11L18 9ZM28 9L28 10L29 10L29 9ZM11 11L11 12L12 12L12 14L13 14L13 13L14 13L14 15L13 15L13 16L14 16L14 15L15 15L15 13L16 13L16 11ZM14 12L14 13L15 13L15 12ZM17 12L17 13L18 13L18 12ZM0 13L0 14L1 14L1 13ZM3 13L3 14L7 14L7 13ZM20 13L20 14L19 14L19 15L18 15L18 17L17 17L17 16L16 16L16 17L17 17L17 18L18 18L18 20L17 20L17 21L18 21L18 20L19 20L19 22L20 22L20 19L22 19L22 18L20 18L20 17L19 17L19 15L20 15L20 16L21 16L21 15L20 15L20 14L21 14L21 13ZM0 15L0 16L1 16L1 15ZM23 16L23 17L24 17L24 18L23 18L23 19L24 19L24 18L25 18L25 17L24 17L24 16ZM11 17L11 18L12 18L12 17ZM9 18L9 19L10 19L10 18ZM26 19L26 20L27 20L27 19ZM0 20L0 25L3 25L3 24L1 24L1 20ZM8 20L8 21L9 21L9 20ZM15 20L15 23L14 23L14 25L15 25L15 24L16 24L16 20ZM8 22L8 23L6 23L6 24L8 24L8 23L10 23L10 22ZM24 22L24 23L25 23L25 24L27 24L27 23L25 23L25 22ZM11 23L11 24L12 24L12 23ZM9 24L9 25L10 25L10 24ZM30 24L30 25L31 25L31 24ZM25 25L25 28L28 28L28 25ZM11 26L11 27L12 27L12 26ZM19 26L19 27L18 27L18 28L21 28L21 27L22 27L22 26ZM26 26L26 27L27 27L27 26ZM30 28L30 29L31 29L31 28ZM19 29L19 33L21 33L21 31L20 31L20 29ZM26 29L26 31L27 31L27 29ZM28 29L28 30L29 30L29 29ZM9 31L9 32L11 32L11 31ZM15 31L15 32L16 32L16 31ZM24 31L24 32L25 32L25 31ZM28 31L28 32L29 32L29 31ZM0 0L0 7L7 7L7 0ZM1 1L1 6L6 6L6 1ZM2 2L2 5L5 5L5 2ZM26 0L26 7L33 7L33 0ZM27 1L27 6L32 6L32 1ZM28 2L28 5L31 5L31 2ZM0 26L0 33L7 33L7 26ZM1 27L1 32L6 32L6 27ZM2 28L2 31L5 31L5 28Z" fill="#000000"/></g></g></svg>
