<?xml version="1.0" encoding="UTF-8"?>
<svg xmlns="http://www.w3.org/2000/svg" version="1.1" width="400" height="400" viewBox="0 0 400 400"><rect x="0" y="0" width="400" height="400" fill="#fefefe"/><g transform="scale(9.756)"><g transform="translate(4,4)"><path fill-rule="evenodd" d="M8 0L8 4L10 4L10 3L11 3L11 4L12 4L12 2L11 2L11 0ZM12 0L12 1L13 1L13 0ZM15 0L15 1L14 1L14 2L15 2L15 1L16 1L16 0ZM18 0L18 1L17 1L17 2L16 2L16 3L15 3L15 4L14 4L14 3L13 3L13 5L11 5L11 6L10 6L10 7L9 7L9 5L8 5L8 7L9 7L9 8L10 8L10 7L11 7L11 6L12 6L12 8L11 8L11 9L9 9L9 10L11 10L11 11L10 11L10 13L11 13L11 12L12 12L12 13L13 13L13 14L14 14L14 13L15 13L15 15L16 15L16 14L17 14L17 16L14 16L14 17L13 17L13 15L12 15L12 16L9 16L9 15L7 15L7 14L6 14L6 13L8 13L8 12L9 12L9 11L8 11L8 12L6 12L6 11L7 11L7 10L5 10L5 9L7 9L7 8L4 8L4 10L3 10L3 9L2 9L2 8L0 8L0 9L2 9L2 10L3 10L3 11L4 11L4 12L2 12L2 11L1 11L1 12L0 12L0 14L2 14L2 13L3 13L3 15L0 15L0 16L1 16L1 18L0 18L0 19L1 19L1 20L2 20L2 23L3 23L3 24L0 24L0 25L4 25L4 23L5 23L5 21L3 21L3 20L5 20L5 17L4 17L4 16L3 16L3 15L4 15L4 14L5 14L5 15L7 15L7 16L6 16L6 17L7 17L7 18L6 18L6 19L8 19L8 18L9 18L9 20L8 20L8 21L9 21L9 22L10 22L10 23L9 23L9 24L10 24L10 23L12 23L12 20L13 20L13 19L14 19L14 17L16 17L16 18L15 18L15 20L14 20L14 21L13 21L13 22L14 22L14 25L13 25L13 24L12 24L12 25L11 25L11 28L9 28L9 27L8 27L8 29L10 29L10 30L11 30L11 31L8 31L8 33L9 33L9 32L10 32L10 33L11 33L11 31L13 31L13 30L14 30L14 29L15 29L15 31L14 31L14 33L15 33L15 32L16 32L16 31L17 31L17 33L18 33L18 32L19 32L19 33L20 33L20 32L21 32L21 33L22 33L22 32L23 32L23 33L28 33L28 32L29 32L29 31L32 31L32 30L33 30L33 27L32 27L32 26L31 26L31 25L32 25L32 24L33 24L33 23L31 23L31 22L32 22L32 21L33 21L33 19L32 19L32 18L31 18L31 17L30 17L30 18L28 18L28 19L27 19L27 18L26 18L26 17L29 17L29 16L30 16L30 14L31 14L31 16L32 16L32 17L33 17L33 16L32 16L32 14L31 14L31 13L29 13L29 10L28 10L28 8L27 8L27 10L28 10L28 11L27 11L27 12L26 12L26 11L24 11L24 9L25 9L25 10L26 10L26 9L25 9L25 3L24 3L24 2L23 2L23 1L25 1L25 0L23 0L23 1L22 1L22 0L21 0L21 1L19 1L19 0ZM21 1L21 2L19 2L19 5L18 5L18 3L17 3L17 4L16 4L16 5L15 5L15 7L14 7L14 5L13 5L13 8L12 8L12 9L11 9L11 10L12 10L12 9L14 9L14 11L12 11L12 12L13 12L13 13L14 13L14 12L15 12L15 9L17 9L17 10L16 10L16 11L18 11L18 12L19 12L19 11L20 11L20 12L21 12L21 10L22 10L22 11L23 11L23 9L24 9L24 5L21 5L21 7L22 7L22 6L23 6L23 9L19 9L19 10L18 10L18 9L17 9L17 7L18 7L18 6L19 6L19 7L20 7L20 6L19 6L19 5L20 5L20 3L21 3L21 4L22 4L22 3L23 3L23 2L22 2L22 1ZM9 2L9 3L10 3L10 2ZM21 2L21 3L22 3L22 2ZM16 6L16 7L15 7L15 8L14 8L14 9L15 9L15 8L16 8L16 7L17 7L17 6ZM29 8L29 9L31 9L31 12L32 12L32 13L33 13L33 12L32 12L32 9L33 9L33 8ZM4 12L4 13L6 13L6 12ZM16 12L16 13L17 13L17 12ZM22 12L22 13L19 13L19 15L18 15L18 16L19 16L19 15L20 15L20 17L19 17L19 18L18 18L18 17L17 17L17 19L16 19L16 20L15 20L15 21L14 21L14 22L15 22L15 21L16 21L16 20L17 20L17 19L18 19L18 21L17 21L17 23L15 23L15 24L16 24L16 25L17 25L17 26L16 26L16 28L15 28L15 25L14 25L14 26L13 26L13 27L12 27L12 28L11 28L11 29L14 29L14 28L15 28L15 29L17 29L17 30L19 30L19 32L20 32L20 31L26 31L26 32L28 32L28 29L27 29L27 31L26 31L26 29L24 29L24 28L23 28L23 29L21 29L21 28L20 28L20 27L24 27L24 26L23 26L23 25L24 25L24 24L25 24L25 23L23 23L23 17L25 17L25 16L23 16L23 14L22 14L22 13L24 13L24 15L26 15L26 16L27 16L27 15L28 15L28 16L29 16L29 15L28 15L28 14L29 14L29 13L28 13L28 12L27 12L27 13L24 13L24 12ZM27 13L27 14L26 14L26 15L27 15L27 14L28 14L28 13ZM20 14L20 15L21 15L21 17L20 17L20 20L19 20L19 21L21 21L21 22L20 22L20 23L17 23L17 25L18 25L18 24L19 24L19 25L20 25L20 26L21 26L21 25L23 25L23 24L22 24L22 18L21 18L21 17L23 17L23 16L22 16L22 14ZM2 17L2 18L1 18L1 19L2 19L2 20L3 20L3 19L4 19L4 18L3 18L3 17ZM9 17L9 18L10 18L10 17ZM11 17L11 18L12 18L12 17ZM26 19L26 20L27 20L27 19ZM28 19L28 20L29 20L29 19ZM30 19L30 21L25 21L25 22L26 22L26 24L28 24L28 23L29 23L29 22L31 22L31 20L32 20L32 19ZM6 20L6 21L7 21L7 20ZM10 20L10 22L11 22L11 20ZM0 21L0 22L1 22L1 21ZM6 22L6 23L8 23L8 22ZM27 22L27 23L28 23L28 22ZM30 23L30 24L29 24L29 26L30 26L30 25L31 25L31 23ZM5 24L5 25L8 25L8 26L10 26L10 25L8 25L8 24ZM20 24L20 25L21 25L21 24ZM25 25L25 28L28 28L28 25ZM17 26L17 29L18 29L18 27L19 27L19 26ZM26 26L26 27L27 27L27 26ZM29 27L29 30L30 30L30 29L32 29L32 28L31 28L31 27ZM19 28L19 29L20 29L20 30L21 30L21 29L20 29L20 28ZM32 32L32 33L33 33L33 32ZM0 0L0 7L7 7L7 0ZM1 1L1 6L6 6L6 1ZM2 2L2 5L5 5L5 2ZM26 0L26 7L33 7L33 0ZM27 1L27 6L32 6L32 1ZM28 2L28 5L31 5L31 2ZM0 26L0 33L7 33L7 26ZM1 27L1 32L6 32L6 27ZM2 28L2 31L5 31L5 28Z" fill="#000000"/></g></g></svg>
