<?xml version="1.0" encoding="UTF-8"?>
<svg xmlns="http://www.w3.org/2000/svg" version="1.1" width="400" height="400" viewBox="0 0 400 400"><rect x="0" y="0" width="400" height="400" fill="#fefefe"/><g transform="scale(9.756)"><g transform="translate(4,4)"><path fill-rule="evenodd" d="M11 0L11 1L8 1L8 3L9 3L9 2L10 2L10 4L8 4L8 8L6 8L6 9L7 9L7 10L6 10L6 11L5 11L5 10L4 10L4 8L3 8L3 10L4 10L4 11L3 11L3 13L2 13L2 14L0 14L0 15L2 15L2 16L1 16L1 17L0 17L0 18L1 18L1 19L0 19L0 21L2 21L2 20L1 20L1 19L3 19L3 20L4 20L4 22L0 22L0 23L1 23L1 24L0 24L0 25L1 25L1 24L2 24L2 23L4 23L4 22L5 22L5 24L3 24L3 25L5 25L5 24L6 24L6 25L8 25L8 27L9 27L9 25L10 25L10 26L11 26L11 27L10 27L10 28L11 28L11 27L12 27L12 28L14 28L14 29L13 29L13 30L14 30L14 31L15 31L15 32L16 32L16 33L17 33L17 32L20 32L20 31L21 31L21 33L22 33L22 32L23 32L23 33L25 33L25 31L26 31L26 30L27 30L27 29L28 29L28 31L27 31L27 32L26 32L26 33L27 33L27 32L28 32L28 33L29 33L29 32L30 32L30 30L29 30L29 27L30 27L30 25L29 25L29 24L28 24L28 23L27 23L27 22L28 22L28 19L29 19L29 20L30 20L30 19L29 19L29 18L28 18L28 17L29 17L29 16L30 16L30 15L32 15L32 14L33 14L33 9L32 9L32 8L30 8L30 9L29 9L29 8L26 8L26 9L25 9L25 10L24 10L24 11L21 11L21 9L22 9L22 10L23 10L23 9L24 9L24 8L25 8L25 6L24 6L24 8L23 8L23 6L22 6L22 7L21 7L21 6L20 6L20 5L21 5L21 2L22 2L22 1L23 1L23 3L22 3L22 4L23 4L23 5L25 5L25 2L24 2L24 1L25 1L25 0L19 0L19 1L21 1L21 2L17 2L17 0L15 0L15 4L13 4L13 2L14 2L14 0ZM12 1L12 2L11 2L11 4L12 4L12 2L13 2L13 1ZM16 3L16 6L15 6L15 7L14 7L14 5L11 5L11 7L10 7L10 6L9 6L9 7L10 7L10 8L8 8L8 9L9 9L9 10L11 10L11 11L6 11L6 12L9 12L9 13L11 13L11 14L12 14L12 13L13 13L13 15L11 15L11 16L10 16L10 14L8 14L8 15L5 15L5 16L8 16L8 15L9 15L9 16L10 16L10 17L6 17L6 18L5 18L5 17L4 17L4 16L2 16L2 18L4 18L4 19L6 19L6 20L5 20L5 21L6 21L6 22L7 22L7 23L6 23L6 24L7 24L7 23L8 23L8 24L11 24L11 26L12 26L12 27L14 27L14 28L15 28L15 29L14 29L14 30L15 30L15 31L16 31L16 32L17 32L17 31L20 31L20 29L21 29L21 27L23 27L23 29L22 29L22 30L21 30L21 31L23 31L23 32L24 32L24 30L25 30L25 29L24 29L24 26L23 26L23 25L24 25L24 24L25 24L25 23L24 23L24 22L26 22L26 21L27 21L27 19L28 19L28 18L27 18L27 17L26 17L26 20L25 20L25 21L24 21L24 20L23 20L23 19L25 19L25 16L22 16L22 17L17 17L17 18L19 18L19 19L18 19L18 20L17 20L17 19L16 19L16 18L15 18L15 17L14 17L14 16L16 16L16 15L17 15L17 14L18 14L18 16L21 16L21 15L22 15L22 14L24 14L24 12L28 12L28 13L29 13L29 14L31 14L31 12L32 12L32 10L31 10L31 11L30 11L30 12L29 12L29 9L27 9L27 11L24 11L24 12L23 12L23 13L22 13L22 14L21 14L21 11L16 11L16 8L17 8L17 9L18 9L18 10L20 10L20 9L21 9L21 7L20 7L20 6L19 6L19 5L20 5L20 4L19 4L19 3ZM12 6L12 7L13 7L13 6ZM16 6L16 7L15 7L15 8L16 8L16 7L17 7L17 8L18 8L18 9L19 9L19 8L20 8L20 7L19 7L19 6L18 6L18 7L17 7L17 6ZM18 7L18 8L19 8L19 7ZM0 8L0 9L2 9L2 8ZM10 8L10 9L13 9L13 10L12 10L12 11L11 11L11 12L13 12L13 13L14 13L14 14L15 14L15 13L19 13L19 14L20 14L20 13L19 13L19 12L16 12L16 11L15 11L15 9L14 9L14 8ZM0 10L0 12L1 12L1 10ZM13 10L13 11L14 11L14 10ZM3 13L3 15L4 15L4 14L7 14L7 13ZM25 13L25 15L27 15L27 14L26 14L26 13ZM13 15L13 16L12 16L12 17L10 17L10 18L12 18L12 19L11 19L11 20L9 20L9 21L8 21L8 19L9 19L9 18L8 18L8 19L7 19L7 18L6 18L6 19L7 19L7 20L6 20L6 21L8 21L8 23L10 23L10 22L9 22L9 21L11 21L11 20L12 20L12 21L13 21L13 22L12 22L12 23L11 23L11 24L12 24L12 25L14 25L14 26L15 26L15 25L17 25L17 27L15 27L15 28L17 28L17 29L16 29L16 31L17 31L17 29L18 29L18 30L19 30L19 29L20 29L20 27L21 27L21 26L22 26L22 25L23 25L23 24L24 24L24 23L23 23L23 22L22 22L22 23L20 23L20 22L19 22L19 21L16 21L16 22L17 22L17 23L16 23L16 24L15 24L15 23L13 23L13 22L15 22L15 21L14 21L14 20L13 20L13 19L15 19L15 20L16 20L16 19L15 19L15 18L14 18L14 17L13 17L13 16L14 16L14 15ZM28 15L28 16L29 16L29 15ZM32 16L32 17L33 17L33 16ZM12 17L12 18L13 18L13 17ZM22 17L22 19L20 19L20 21L23 21L23 20L22 20L22 19L23 19L23 18L24 18L24 17ZM31 18L31 19L32 19L32 20L33 20L33 18ZM29 21L29 22L31 22L31 23L33 23L33 21ZM12 23L12 24L13 24L13 23ZM17 23L17 24L18 24L18 25L20 25L20 26L18 26L18 29L19 29L19 27L20 27L20 26L21 26L21 24L20 24L20 23L19 23L19 24L18 24L18 23ZM25 25L25 28L28 28L28 25ZM31 25L31 27L32 27L32 26L33 26L33 25ZM26 26L26 27L27 27L27 26ZM8 29L8 30L9 30L9 31L8 31L8 33L12 33L12 32L13 32L13 33L14 33L14 32L13 32L13 31L12 31L12 32L9 32L9 31L10 31L10 29ZM11 29L11 30L12 30L12 29ZM23 29L23 30L24 30L24 29ZM31 29L31 31L33 31L33 29ZM31 32L31 33L32 33L32 32ZM0 0L0 7L7 7L7 0ZM1 1L1 6L6 6L6 1ZM2 2L2 5L5 5L5 2ZM26 0L26 7L33 7L33 0ZM27 1L27 6L32 6L32 1ZM28 2L28 5L31 5L31 2ZM0 26L0 33L7 33L7 26ZM1 27L1 32L6 32L6 27ZM2 28L2 31L5 31L5 28Z" fill="#000000"/></g></g></svg>
