<?xml version="1.0" encoding="UTF-8"?>
<svg xmlns="http://www.w3.org/2000/svg" version="1.1" width="400" height="400" viewBox="0 0 400 400"><rect x="0" y="0" width="400" height="400" fill="#fefefe"/><g transform="scale(9.756)"><g transform="translate(4,4)"><path fill-rule="evenodd" d="M11 0L11 1L8 1L8 3L9 3L9 2L10 2L10 4L8 4L8 8L6 8L6 9L4 9L4 8L3 8L3 9L4 9L4 10L3 10L3 11L7 11L7 10L6 10L6 9L8 9L8 11L11 11L11 12L13 12L13 13L12 13L12 14L11 14L11 13L10 13L10 15L13 15L13 16L12 16L12 17L11 17L11 18L12 18L12 19L11 19L11 20L10 20L10 22L6 22L6 21L7 21L7 20L6 20L6 19L10 19L10 18L8 18L8 17L9 17L9 14L8 14L8 12L6 12L6 13L7 13L7 14L4 14L4 13L5 13L5 12L2 12L2 8L0 8L0 9L1 9L1 11L0 11L0 12L2 12L2 16L1 16L1 14L0 14L0 17L3 17L3 20L1 20L1 22L0 22L0 23L1 23L1 24L0 24L0 25L1 25L1 24L2 24L2 25L4 25L4 24L5 24L5 25L8 25L8 27L9 27L9 29L8 29L8 30L9 30L9 31L8 31L8 33L9 33L9 32L10 32L10 33L12 33L12 32L13 32L13 33L14 33L14 32L16 32L16 33L17 33L17 32L19 32L19 31L17 31L17 29L18 29L18 30L19 30L19 29L18 29L18 26L20 26L20 25L18 25L18 24L19 24L19 23L20 23L20 24L21 24L21 29L20 29L20 30L21 30L21 29L22 29L22 31L20 31L20 32L21 32L21 33L22 33L22 31L23 31L23 32L24 32L24 33L25 33L25 32L26 32L26 31L25 31L25 30L23 30L23 29L22 29L22 26L23 26L23 25L22 25L22 24L24 24L24 27L23 27L23 28L24 28L24 29L26 29L26 30L27 30L27 29L28 29L28 32L27 32L27 33L29 33L29 32L30 32L30 30L29 30L29 27L30 27L30 25L29 25L29 24L27 24L27 23L28 23L28 20L30 20L30 19L28 19L28 17L29 17L29 16L30 16L30 15L32 15L32 14L33 14L33 9L32 9L32 8L30 8L30 9L29 9L29 8L26 8L26 10L25 10L25 5L24 5L24 2L25 2L25 0L19 0L19 1L17 1L17 0L15 0L15 4L13 4L13 2L14 2L14 0ZM12 1L12 2L11 2L11 4L12 4L12 2L13 2L13 1ZM19 1L19 3L20 3L20 1ZM22 1L22 2L21 2L21 4L23 4L23 1ZM16 3L16 6L15 6L15 7L14 7L14 5L11 5L11 7L10 7L10 6L9 6L9 7L10 7L10 8L8 8L8 9L9 9L9 10L11 10L11 11L12 11L12 10L13 10L13 11L14 11L14 10L13 10L13 9L10 9L10 8L14 8L14 9L15 9L15 11L16 11L16 12L19 12L19 13L15 13L15 14L14 14L14 13L13 13L13 15L14 15L14 16L13 16L13 17L12 17L12 18L13 18L13 17L14 17L14 18L15 18L15 19L13 19L13 20L14 20L14 21L15 21L15 22L14 22L14 24L16 24L16 23L17 23L17 24L18 24L18 23L17 23L17 22L16 22L16 21L19 21L19 22L21 22L21 23L22 23L22 22L23 22L23 23L25 23L25 24L26 24L26 23L25 23L25 21L24 21L24 20L23 20L23 21L19 21L19 20L21 20L21 19L22 19L22 18L21 18L21 17L17 17L17 18L19 18L19 19L18 19L18 20L17 20L17 19L16 19L16 18L15 18L15 17L14 17L14 16L16 16L16 15L17 15L17 14L18 14L18 16L21 16L21 15L23 15L23 14L25 14L25 15L27 15L27 14L28 14L28 13L29 13L29 14L31 14L31 12L32 12L32 10L31 10L31 11L30 11L30 12L29 12L29 9L28 9L28 12L27 12L27 14L25 14L25 13L26 13L26 11L27 11L27 10L26 10L26 11L24 11L24 9L23 9L23 7L24 7L24 5L22 5L22 6L21 6L21 5L20 5L20 4L19 4L19 5L20 5L20 6L19 6L19 7L18 7L18 6L17 6L17 5L18 5L18 3ZM12 6L12 7L13 7L13 6ZM16 6L16 7L15 7L15 8L16 8L16 11L19 11L19 12L20 12L20 13L19 13L19 14L20 14L20 15L21 15L21 14L22 14L22 13L23 13L23 12L24 12L24 11L23 11L23 10L22 10L22 7L23 7L23 6L22 6L22 7L21 7L21 6L20 6L20 8L21 8L21 9L20 9L20 10L18 10L18 9L19 9L19 8L18 8L18 7L17 7L17 6ZM16 7L16 8L17 8L17 9L18 9L18 8L17 8L17 7ZM20 10L20 12L21 12L21 11L22 11L22 10ZM4 15L4 16L3 16L3 17L4 17L4 19L6 19L6 18L7 18L7 17L6 17L6 18L5 18L5 17L4 17L4 16L5 16L5 15ZM6 15L6 16L8 16L8 15ZM22 16L22 17L24 17L24 18L23 18L23 19L25 19L25 16ZM32 16L32 17L33 17L33 16ZM26 17L26 21L27 21L27 17ZM31 18L31 19L32 19L32 20L33 20L33 18ZM15 19L15 20L16 20L16 19ZM8 20L8 21L9 21L9 20ZM11 20L11 23L12 23L12 24L11 24L11 25L10 25L10 23L9 23L9 24L8 24L8 23L6 23L6 24L8 24L8 25L10 25L10 26L9 26L9 27L10 27L10 29L9 29L9 30L10 30L10 29L12 29L12 30L11 30L11 31L10 31L10 32L11 32L11 31L12 31L12 30L13 30L13 32L14 32L14 30L15 30L15 31L16 31L16 32L17 32L17 31L16 31L16 29L17 29L17 28L15 28L15 27L17 27L17 25L15 25L15 26L14 26L14 25L12 25L12 24L13 24L13 23L12 23L12 22L13 22L13 21L12 21L12 20ZM2 21L2 23L3 23L3 22L4 22L4 23L5 23L5 21ZM29 21L29 22L31 22L31 23L33 23L33 21ZM25 25L25 28L28 28L28 25ZM31 25L31 27L32 27L32 26L33 26L33 25ZM10 26L10 27L11 27L11 28L12 28L12 27L13 27L13 28L14 28L14 29L13 29L13 30L14 30L14 29L15 29L15 28L14 28L14 27L13 27L13 26ZM26 26L26 27L27 27L27 26ZM19 27L19 28L20 28L20 27ZM31 29L31 31L33 31L33 29ZM31 32L31 33L32 33L32 32ZM0 0L0 7L7 7L7 0ZM1 1L1 6L6 6L6 1ZM2 2L2 5L5 5L5 2ZM26 0L26 7L33 7L33 0ZM27 1L27 6L32 6L32 1ZM28 2L28 5L31 5L31 2ZM0 26L0 33L7 33L7 26ZM1 27L1 32L6 32L6 27ZM2 28L2 31L5 31L5 28Z" fill="#000000"/></g></g></svg>
