<?xml version="1.0" encoding="UTF-8"?>
<svg xmlns="http://www.w3.org/2000/svg" version="1.1" width="400" height="400" viewBox="0 0 400 400"><rect x="0" y="0" width="400" height="400" fill="#fefefe"/><g transform="scale(9.756)"><g transform="translate(4,4)"><path fill-rule="evenodd" d="M9 0L9 1L10 1L10 0ZM12 0L12 2L11 2L11 4L10 4L10 2L9 2L9 3L8 3L8 5L9 5L9 4L10 4L10 8L9 8L9 9L8 9L8 8L5 8L5 9L4 9L4 10L3 10L3 9L2 9L2 8L0 8L0 9L1 9L1 12L0 12L0 13L1 13L1 14L0 14L0 16L1 16L1 17L2 17L2 18L0 18L0 25L2 25L2 24L3 24L3 25L5 25L5 24L6 24L6 25L8 25L8 28L9 28L9 27L10 27L10 29L11 29L11 30L10 30L10 32L11 32L11 31L12 31L12 32L13 32L13 33L14 33L14 32L15 32L15 33L16 33L16 32L17 32L17 33L18 33L18 32L17 32L17 31L18 31L18 30L17 30L17 29L18 29L18 28L20 28L20 27L18 27L18 28L17 28L17 29L16 29L16 28L15 28L15 27L17 27L17 23L19 23L19 26L20 26L20 23L22 23L22 25L21 25L21 27L22 27L22 29L23 29L23 28L24 28L24 29L28 29L28 31L27 31L27 32L28 32L28 31L29 31L29 28L31 28L31 29L30 29L30 30L31 30L31 29L33 29L33 27L32 27L32 26L33 26L33 25L32 25L32 24L33 24L33 23L30 23L30 24L28 24L28 22L29 22L29 21L30 21L30 20L31 20L31 19L30 19L30 18L32 18L32 20L33 20L33 17L32 17L32 16L33 16L33 15L32 15L32 14L33 14L33 12L32 12L32 10L29 10L29 9L30 9L30 8L28 8L28 10L27 10L27 12L25 12L25 13L24 13L24 12L23 12L23 11L22 11L22 12L23 12L23 14L21 14L21 15L23 15L23 14L24 14L24 15L25 15L25 16L28 16L28 17L29 17L29 14L30 14L30 16L31 16L31 17L30 17L30 18L29 18L29 19L30 19L30 20L28 20L28 18L27 18L27 17L26 17L26 18L27 18L27 20L28 20L28 22L27 22L27 24L23 24L23 22L26 22L26 21L25 21L25 20L26 20L26 19L25 19L25 20L23 20L23 19L24 19L24 18L25 18L25 17L22 17L22 18L21 18L21 17L19 17L19 15L18 15L18 16L16 16L16 15L17 15L17 14L20 14L20 13L19 13L19 10L20 10L20 11L21 11L21 8L17 8L17 6L16 6L16 8L15 8L15 11L18 11L18 13L17 13L17 12L16 12L16 13L15 13L15 12L14 12L14 14L15 14L15 15L14 15L14 16L13 16L13 14L12 14L12 11L14 11L14 10L13 10L13 9L14 9L14 8L13 8L13 6L14 6L14 7L15 7L15 6L14 6L14 5L13 5L13 4L15 4L15 3L13 3L13 2L14 2L14 1L13 1L13 0ZM16 0L16 1L18 1L18 0ZM20 0L20 2L21 2L21 3L20 3L20 4L18 4L18 3L19 3L19 2L18 2L18 3L16 3L16 4L18 4L18 5L22 5L22 3L23 3L23 5L24 5L24 8L25 8L25 4L24 4L24 3L25 3L25 2L24 2L24 3L23 3L23 0L22 0L22 2L21 2L21 0ZM24 0L24 1L25 1L25 0ZM12 3L12 4L13 4L13 3ZM11 5L11 7L12 7L12 5ZM8 6L8 7L9 7L9 6ZM18 6L18 7L19 7L19 6ZM20 6L20 7L21 7L21 6ZM22 6L22 8L23 8L23 6ZM10 8L10 9L12 9L12 8ZM16 8L16 10L18 10L18 9L17 9L17 8ZM5 9L5 10L8 10L8 9ZM23 9L23 10L24 10L24 11L26 11L26 9ZM9 10L9 11L8 11L8 12L9 12L9 11L10 11L10 13L8 13L8 14L11 14L11 15L12 15L12 14L11 14L11 11L12 11L12 10L11 10L11 11L10 11L10 10ZM28 10L28 12L27 12L27 14L25 14L25 15L28 15L28 14L29 14L29 10ZM2 11L2 12L1 12L1 13L3 13L3 11ZM6 11L6 12L5 12L5 14L4 14L4 15L5 15L5 14L7 14L7 13L6 13L6 12L7 12L7 11ZM30 12L30 13L32 13L32 12ZM1 14L1 15L2 15L2 16L3 16L3 15L2 15L2 14ZM6 15L6 16L5 16L5 18L4 18L4 17L3 17L3 18L2 18L2 19L1 19L1 21L2 21L2 22L1 22L1 24L2 24L2 22L3 22L3 23L4 23L4 22L8 22L8 23L9 23L9 24L8 24L8 25L10 25L10 22L11 22L11 23L12 23L12 22L11 22L11 21L10 21L10 20L14 20L14 21L13 21L13 22L15 22L15 20L16 20L16 19L14 19L14 17L15 17L15 18L16 18L16 16L14 16L14 17L13 17L13 19L11 19L11 18L10 18L10 17L9 17L9 16L10 16L10 15L9 15L9 16L8 16L8 15ZM6 16L6 17L8 17L8 16ZM11 16L11 17L12 17L12 16ZM17 17L17 20L18 20L18 21L16 21L16 23L17 23L17 22L19 22L19 23L20 23L20 22L21 22L21 21L23 21L23 20L22 20L22 19L23 19L23 18L22 18L22 19L21 19L21 20L20 20L20 19L19 19L19 20L18 20L18 17ZM3 18L3 19L2 19L2 20L3 20L3 22L4 22L4 20L3 20L3 19L4 19L4 18ZM5 18L5 20L6 20L6 21L7 21L7 20L8 20L8 22L9 22L9 20L8 20L8 19L7 19L7 18ZM9 18L9 19L10 19L10 18ZM6 19L6 20L7 20L7 19ZM19 21L19 22L20 22L20 21ZM6 23L6 24L7 24L7 23ZM13 23L13 28L11 28L11 29L13 29L13 30L12 30L12 31L13 31L13 32L14 32L14 31L13 31L13 30L14 30L14 29L15 29L15 28L14 28L14 27L15 27L15 26L14 26L14 24L15 24L15 25L16 25L16 24L15 24L15 23ZM30 24L30 25L29 25L29 27L31 27L31 26L30 26L30 25L31 25L31 24ZM23 25L23 26L22 26L22 27L23 27L23 26L24 26L24 25ZM25 25L25 28L28 28L28 25ZM11 26L11 27L12 27L12 26ZM26 26L26 27L27 27L27 26ZM13 28L13 29L14 29L14 28ZM19 29L19 31L20 31L20 32L21 32L21 31L22 31L22 33L23 33L23 32L24 32L24 33L26 33L26 31L25 31L25 30L23 30L23 31L22 31L22 30L21 30L21 29ZM20 30L20 31L21 31L21 30ZM32 30L32 31L33 31L33 30ZM8 31L8 33L9 33L9 31ZM15 31L15 32L16 32L16 31ZM24 31L24 32L25 32L25 31ZM30 31L30 32L29 32L29 33L30 33L30 32L31 32L31 33L32 33L32 32L31 32L31 31ZM0 0L0 7L7 7L7 0ZM1 1L1 6L6 6L6 1ZM2 2L2 5L5 5L5 2ZM26 0L26 7L33 7L33 0ZM27 1L27 6L32 6L32 1ZM28 2L28 5L31 5L31 2ZM0 26L0 33L7 33L7 26ZM1 27L1 32L6 32L6 27ZM2 28L2 31L5 31L5 28Z" fill="#000000"/></g></g></svg>
