<?xml version="1.0" encoding="UTF-8"?>
<svg xmlns="http://www.w3.org/2000/svg" version="1.1" width="400" height="400" viewBox="0 0 400 400"><rect x="0" y="0" width="400" height="400" fill="#fefefe"/><g transform="scale(9.756)"><g transform="translate(4,4)"><path fill-rule="evenodd" d="M10 0L10 2L11 2L11 0ZM12 0L12 1L13 1L13 2L12 2L12 4L14 4L14 3L13 3L13 2L14 2L14 1L15 1L15 2L16 2L16 1L15 1L15 0ZM18 0L18 1L17 1L17 2L18 2L18 3L17 3L17 4L19 4L19 5L20 5L20 7L21 7L21 8L20 8L20 9L19 9L19 6L18 6L18 5L17 5L17 6L16 6L16 5L15 5L15 6L14 6L14 5L11 5L11 6L10 6L10 4L11 4L11 3L8 3L8 4L9 4L9 5L8 5L8 7L9 7L9 8L6 8L6 9L5 9L5 8L0 8L0 10L2 10L2 9L5 9L5 11L4 11L4 10L3 10L3 12L2 12L2 11L0 11L0 14L2 14L2 13L3 13L3 15L4 15L4 16L5 16L5 17L3 17L3 18L0 18L0 19L1 19L1 20L0 20L0 25L1 25L1 21L2 21L2 25L4 25L4 24L3 24L3 20L2 20L2 19L4 19L4 20L5 20L5 22L4 22L4 23L5 23L5 22L6 22L6 23L7 23L7 24L6 24L6 25L7 25L7 24L8 24L8 21L9 21L9 23L10 23L10 25L8 25L8 27L9 27L9 28L8 28L8 33L9 33L9 32L10 32L10 33L11 33L11 32L13 32L13 33L14 33L14 32L15 32L15 33L16 33L16 32L17 32L17 33L18 33L18 32L17 32L17 31L16 31L16 30L17 30L17 29L18 29L18 28L20 28L20 29L19 29L19 30L20 30L20 33L21 33L21 32L22 32L22 30L23 30L23 31L26 31L26 32L29 32L29 33L30 33L30 32L31 32L31 33L32 33L32 32L31 32L31 31L32 31L32 30L31 30L31 29L32 29L32 28L33 28L33 27L32 27L32 26L33 26L33 23L30 23L30 24L32 24L32 25L30 25L30 26L31 26L31 27L29 27L29 24L24 24L24 26L23 26L23 25L19 25L19 26L23 26L23 27L18 27L18 28L17 28L17 25L18 25L18 24L17 24L17 23L19 23L19 22L20 22L20 23L21 23L21 24L23 24L23 22L27 22L27 23L28 23L28 21L30 21L30 20L31 20L31 19L32 19L32 20L33 20L33 19L32 19L32 18L33 18L33 17L32 17L32 14L33 14L33 13L32 13L32 10L33 10L33 9L32 9L32 8L31 8L31 9L32 9L32 10L28 10L28 8L27 8L27 9L26 9L26 8L24 8L24 9L21 9L21 8L22 8L22 7L23 7L23 6L22 6L22 5L25 5L25 4L22 4L22 5L20 5L20 4L21 4L21 3L23 3L23 1L25 1L25 0L23 0L23 1L21 1L21 0ZM8 1L8 2L9 2L9 1ZM18 1L18 2L19 2L19 4L20 4L20 2L21 2L21 1ZM24 2L24 3L25 3L25 2ZM15 3L15 4L16 4L16 3ZM9 6L9 7L10 7L10 6ZM11 6L11 7L12 7L12 9L11 9L11 8L10 8L10 9L6 9L6 10L7 10L7 11L5 11L5 12L4 12L4 13L5 13L5 14L4 14L4 15L6 15L6 16L7 16L7 17L6 17L6 18L7 18L7 17L8 17L8 18L9 18L9 17L10 17L10 16L11 16L11 14L13 14L13 15L12 15L12 16L14 16L14 17L13 17L13 18L12 18L12 17L11 17L11 19L10 19L10 20L9 20L9 19L8 19L8 20L9 20L9 21L10 21L10 20L12 20L12 22L11 22L11 23L12 23L12 22L13 22L13 24L14 24L14 25L13 25L13 26L11 26L11 25L12 25L12 24L11 24L11 25L10 25L10 26L9 26L9 27L10 27L10 26L11 26L11 29L10 29L10 28L9 28L9 31L10 31L10 32L11 32L11 31L13 31L13 32L14 32L14 31L15 31L15 30L16 30L16 29L17 29L17 28L16 28L16 29L15 29L15 26L16 26L16 25L17 25L17 24L16 24L16 23L17 23L17 22L19 22L19 21L20 21L20 22L23 22L23 20L25 20L25 21L28 21L28 20L30 20L30 19L31 19L31 18L30 18L30 17L31 17L31 16L30 16L30 14L29 14L29 13L31 13L31 12L29 12L29 11L28 11L28 10L26 10L26 12L25 12L25 9L24 9L24 10L22 10L22 12L21 12L21 13L20 13L20 11L21 11L21 9L20 9L20 10L19 10L19 13L20 13L20 14L17 14L17 16L18 16L18 15L19 15L19 17L21 17L21 18L22 18L22 20L21 20L21 19L20 19L20 18L19 18L19 19L20 19L20 20L18 20L18 19L17 19L17 18L18 18L18 17L17 17L17 18L16 18L16 19L17 19L17 20L18 20L18 21L17 21L17 22L16 22L16 21L15 21L15 18L14 18L14 17L16 17L16 15L15 15L15 14L16 14L16 13L17 13L17 12L18 12L18 11L16 11L16 12L15 12L15 10L16 10L16 9L17 9L17 10L18 10L18 9L17 9L17 8L18 8L18 6L17 6L17 8L16 8L16 9L15 9L15 7L16 7L16 6L15 6L15 7L14 7L14 6L13 6L13 7L12 7L12 6ZM21 6L21 7L22 7L22 6ZM24 6L24 7L25 7L25 6ZM13 8L13 9L12 9L12 10L13 10L13 11L12 11L12 13L14 13L14 14L15 14L15 13L14 13L14 12L13 12L13 11L14 11L14 10L15 10L15 9L14 9L14 8ZM29 8L29 9L30 9L30 8ZM10 9L10 11L11 11L11 9ZM13 9L13 10L14 10L14 9ZM8 10L8 11L7 11L7 12L6 12L6 13L8 13L8 11L9 11L9 10ZM27 11L27 13L25 13L25 12L24 12L24 13L21 13L21 14L24 14L24 15L26 15L26 14L27 14L27 13L29 13L29 12L28 12L28 11ZM1 12L1 13L2 13L2 12ZM9 12L9 14L6 14L6 15L7 15L7 16L8 16L8 15L9 15L9 16L10 16L10 15L9 15L9 14L10 14L10 13L11 13L11 12ZM24 13L24 14L25 14L25 13ZM0 15L0 17L2 17L2 16L1 16L1 15ZM20 15L20 16L22 16L22 15ZM27 15L27 16L28 16L28 17L26 17L26 18L25 18L25 17L22 17L22 18L25 18L25 20L26 20L26 19L27 19L27 20L28 20L28 19L29 19L29 18L28 18L28 17L29 17L29 15ZM13 18L13 19L14 19L14 18ZM6 19L6 20L7 20L7 19ZM13 20L13 21L14 21L14 24L15 24L15 23L16 23L16 22L15 22L15 21L14 21L14 20ZM20 20L20 21L21 21L21 20ZM6 21L6 22L7 22L7 21ZM32 21L32 22L33 22L33 21ZM14 25L14 26L15 26L15 25ZM25 25L25 28L28 28L28 25ZM26 26L26 27L27 27L27 26ZM13 28L13 29L11 29L11 30L13 30L13 29L14 29L14 30L15 30L15 29L14 29L14 28ZM21 28L21 29L20 29L20 30L21 30L21 29L24 29L24 28ZM29 28L29 30L27 30L27 29L25 29L25 30L27 30L27 31L29 31L29 32L30 32L30 31L31 31L31 30L30 30L30 29L31 29L31 28ZM29 30L29 31L30 31L30 30ZM23 32L23 33L25 33L25 32ZM0 0L0 7L7 7L7 0ZM1 1L1 6L6 6L6 1ZM2 2L2 5L5 5L5 2ZM26 0L26 7L33 7L33 0ZM27 1L27 6L32 6L32 1ZM28 2L28 5L31 5L31 2ZM0 26L0 33L7 33L7 26ZM1 27L1 32L6 32L6 27ZM2 28L2 31L5 31L5 28Z" fill="#000000"/></g></g></svg>
