<?xml version="1.0" encoding="UTF-8"?>
<svg xmlns="http://www.w3.org/2000/svg" version="1.1" width="400" height="400" viewBox="0 0 400 400"><rect x="0" y="0" width="400" height="400" fill="#fefefe"/><g transform="scale(9.756)"><g transform="translate(4,4)"><path fill-rule="evenodd" d="M10 0L10 2L11 2L11 0ZM12 0L12 1L13 1L13 2L12 2L12 4L14 4L14 3L13 3L13 2L14 2L14 1L15 1L15 2L16 2L16 1L15 1L15 0ZM18 0L18 1L20 1L20 2L21 2L21 3L19 3L19 2L18 2L18 3L17 3L17 4L19 4L19 5L20 5L20 7L21 7L21 8L22 8L22 7L23 7L23 6L22 6L22 5L25 5L25 4L22 4L22 5L20 5L20 4L21 4L21 3L24 3L24 2L25 2L25 0L23 0L23 1L21 1L21 0ZM8 1L8 2L9 2L9 1ZM23 1L23 2L24 2L24 1ZM8 3L8 4L9 4L9 5L8 5L8 7L9 7L9 8L6 8L6 9L7 9L7 10L5 10L5 8L0 8L0 9L3 9L3 11L2 11L2 10L1 10L1 11L0 11L0 16L1 16L1 17L0 17L0 19L1 19L1 20L2 20L2 18L3 18L3 19L4 19L4 18L5 18L5 17L4 17L4 16L3 16L3 15L4 15L4 14L5 14L5 15L7 15L7 16L6 16L6 17L8 17L8 18L6 18L6 19L5 19L5 20L3 20L3 21L0 21L0 25L1 25L1 22L3 22L3 23L4 23L4 24L3 24L3 25L8 25L8 27L9 27L9 28L8 28L8 33L10 33L10 32L9 32L9 31L10 31L10 30L9 30L9 29L11 29L11 30L12 30L12 32L13 32L13 33L14 33L14 32L15 32L15 33L16 33L16 32L17 32L17 33L18 33L18 32L17 32L17 31L16 31L16 30L17 30L17 29L18 29L18 28L19 28L19 27L18 27L18 28L17 28L17 25L18 25L18 24L17 24L17 23L19 23L19 24L20 24L20 25L19 25L19 26L20 26L20 27L21 27L21 28L22 28L22 29L19 29L19 30L21 30L21 31L19 31L19 32L22 32L22 33L23 33L23 32L24 32L24 33L26 33L26 31L27 31L27 30L29 30L29 31L30 31L30 32L27 32L27 33L30 33L30 32L31 32L31 33L32 33L32 32L31 32L31 31L32 31L32 30L31 30L31 29L32 29L32 28L33 28L33 27L32 27L32 26L33 26L33 23L30 23L30 24L32 24L32 25L30 25L30 26L31 26L31 27L29 27L29 24L26 24L26 23L25 23L25 21L26 21L26 22L27 22L27 23L29 23L29 22L28 22L28 21L30 21L30 20L31 20L31 19L32 19L32 20L33 20L33 19L32 19L32 18L33 18L33 17L32 17L32 14L33 14L33 13L32 13L32 10L33 10L33 9L32 9L32 8L31 8L31 9L32 9L32 10L28 10L28 8L27 8L27 9L26 9L26 8L24 8L24 9L19 9L19 6L18 6L18 5L17 5L17 6L16 6L16 5L15 5L15 6L14 6L14 5L11 5L11 6L10 6L10 4L11 4L11 3ZM15 3L15 4L16 4L16 3ZM9 6L9 7L10 7L10 6ZM11 6L11 7L12 7L12 9L11 9L11 8L10 8L10 9L9 9L9 11L8 11L8 12L11 12L11 13L8 13L8 14L7 14L7 13L6 13L6 12L7 12L7 11L5 11L5 10L4 10L4 11L3 11L3 12L2 12L2 14L1 14L1 16L2 16L2 17L1 17L1 18L2 18L2 17L3 17L3 18L4 18L4 17L3 17L3 16L2 16L2 14L4 14L4 11L5 11L5 14L7 14L7 15L8 15L8 17L11 17L11 18L8 18L8 19L6 19L6 20L5 20L5 21L4 21L4 22L5 22L5 23L6 23L6 24L8 24L8 25L12 25L12 24L11 24L11 23L12 23L12 22L13 22L13 24L14 24L14 25L13 25L13 26L11 26L11 27L12 27L12 28L11 28L11 29L13 29L13 32L14 32L14 31L15 31L15 30L16 30L16 29L17 29L17 28L16 28L16 29L15 29L15 26L16 26L16 25L17 25L17 24L16 24L16 23L17 23L17 22L19 22L19 23L21 23L21 22L23 22L23 23L24 23L24 24L23 24L23 25L22 25L22 24L21 24L21 25L20 25L20 26L21 26L21 27L23 27L23 26L24 26L24 24L25 24L25 23L24 23L24 22L23 22L23 20L25 20L25 18L26 18L26 17L27 17L27 19L26 19L26 21L28 21L28 20L30 20L30 19L31 19L31 18L30 18L30 17L31 17L31 16L30 16L30 14L29 14L29 13L31 13L31 12L29 12L29 11L28 11L28 10L25 10L25 9L24 9L24 10L19 10L19 13L20 13L20 14L17 14L17 16L18 16L18 15L22 15L22 16L19 16L19 17L22 17L22 19L23 19L23 20L21 20L21 21L20 21L20 20L18 20L18 19L17 19L17 18L18 18L18 17L17 17L17 18L16 18L16 19L17 19L17 20L18 20L18 21L17 21L17 22L16 22L16 21L15 21L15 18L14 18L14 17L16 17L16 15L15 15L15 14L16 14L16 13L17 13L17 12L18 12L18 11L16 11L16 12L15 12L15 10L16 10L16 9L17 9L17 10L18 10L18 9L17 9L17 8L18 8L18 6L17 6L17 8L16 8L16 9L15 9L15 7L16 7L16 6L15 6L15 7L14 7L14 6L13 6L13 7L12 7L12 6ZM21 6L21 7L22 7L22 6ZM24 6L24 7L25 7L25 6ZM13 8L13 9L12 9L12 10L13 10L13 11L12 11L12 13L14 13L14 14L15 14L15 13L14 13L14 12L13 12L13 11L14 11L14 10L15 10L15 9L14 9L14 8ZM29 8L29 9L30 9L30 8ZM10 9L10 11L11 11L11 9ZM13 9L13 10L14 10L14 9ZM24 10L24 11L20 11L20 13L21 13L21 14L22 14L22 15L23 15L23 14L24 14L24 15L25 15L25 13L26 13L26 14L27 14L27 15L26 15L26 16L27 16L27 17L29 17L29 16L27 16L27 15L28 15L28 14L27 14L27 13L29 13L29 12L28 12L28 11L27 11L27 13L26 13L26 11L25 11L25 10ZM21 12L21 13L25 13L25 12ZM9 14L9 15L10 15L10 14ZM11 14L11 17L12 17L12 18L13 18L13 19L14 19L14 18L13 18L13 17L14 17L14 16L12 16L12 15L13 15L13 14ZM22 16L22 17L23 17L23 18L25 18L25 17L23 17L23 16ZM19 18L19 19L20 19L20 18ZM28 18L28 19L29 19L29 18ZM10 19L10 20L11 20L11 21L10 21L10 23L11 23L11 22L12 22L12 20L11 20L11 19ZM6 20L6 21L7 21L7 20ZM8 20L8 22L9 22L9 20ZM13 20L13 21L14 21L14 24L15 24L15 23L16 23L16 22L15 22L15 21L14 21L14 20ZM19 21L19 22L20 22L20 21ZM32 21L32 22L33 22L33 21ZM6 22L6 23L7 23L7 22ZM14 25L14 26L15 26L15 25ZM21 25L21 26L22 26L22 25ZM25 25L25 28L28 28L28 25ZM26 26L26 27L27 27L27 26ZM13 28L13 29L14 29L14 30L15 30L15 29L14 29L14 28ZM23 28L23 29L22 29L22 31L23 31L23 30L24 30L24 28ZM29 28L29 30L30 30L30 31L31 31L31 30L30 30L30 29L31 29L31 28ZM25 29L25 30L27 30L27 29ZM24 31L24 32L25 32L25 31ZM0 0L0 7L7 7L7 0ZM1 1L1 6L6 6L6 1ZM2 2L2 5L5 5L5 2ZM26 0L26 7L33 7L33 0ZM27 1L27 6L32 6L32 1ZM28 2L28 5L31 5L31 2ZM0 26L0 33L7 33L7 26ZM1 27L1 32L6 32L6 27ZM2 28L2 31L5 31L5 28Z" fill="#000000"/></g></g></svg>
