<?xml version="1.0" encoding="UTF-8"?>
<svg xmlns="http://www.w3.org/2000/svg" version="1.1" width="400" height="400" viewBox="0 0 400 400"><rect x="0" y="0" width="400" height="400" fill="#fefefe"/><g transform="scale(9.756)"><g transform="translate(4,4)"><path fill-rule="evenodd" d="M9 0L9 1L8 1L8 3L9 3L9 4L8 4L8 8L6 8L6 9L7 9L7 10L6 10L6 11L5 11L5 9L4 9L4 8L3 8L3 9L2 9L2 8L0 8L0 9L2 9L2 10L3 10L3 9L4 9L4 11L5 11L5 12L2 12L2 13L1 13L1 12L0 12L0 13L1 13L1 14L0 14L0 19L1 19L1 18L2 18L2 21L1 21L1 22L0 22L0 23L1 23L1 24L0 24L0 25L1 25L1 24L2 24L2 23L3 23L3 24L4 24L4 25L7 25L7 24L8 24L8 27L9 27L9 28L12 28L12 26L9 26L9 24L8 24L8 23L9 23L9 22L10 22L10 21L11 21L11 20L13 20L13 21L12 21L12 23L11 23L11 24L10 24L10 25L11 25L11 24L12 24L12 25L14 25L14 26L15 26L15 25L17 25L17 27L15 27L15 28L14 28L14 27L13 27L13 28L14 28L14 29L13 29L13 30L12 30L12 29L8 29L8 30L9 30L9 31L8 31L8 33L10 33L10 32L9 32L9 31L11 31L11 33L12 33L12 32L13 32L13 33L14 33L14 32L13 32L13 30L14 30L14 31L15 31L15 32L16 32L16 33L17 33L17 32L19 32L19 31L17 31L17 29L18 29L18 30L19 30L19 29L21 29L21 30L20 30L20 31L21 31L21 32L20 32L20 33L27 33L27 32L25 32L25 31L24 31L24 32L22 32L22 31L21 31L21 30L23 30L23 29L22 29L22 28L24 28L24 29L26 29L26 30L27 30L27 29L28 29L28 33L30 33L30 32L29 32L29 31L30 31L30 30L29 30L29 27L30 27L30 25L29 25L29 24L28 24L28 22L27 22L27 21L26 21L26 23L27 23L27 24L23 24L23 22L22 22L22 23L21 23L21 26L20 26L20 25L18 25L18 24L19 24L19 23L20 23L20 22L19 22L19 21L16 21L16 22L17 22L17 23L16 23L16 24L14 24L14 22L15 22L15 21L14 21L14 20L13 20L13 19L15 19L15 20L16 20L16 19L17 19L17 20L18 20L18 19L19 19L19 20L20 20L20 21L23 21L23 20L24 20L24 21L25 21L25 20L26 20L26 17L27 17L27 18L28 18L28 20L30 20L30 19L29 19L29 18L28 18L28 17L29 17L29 16L30 16L30 15L32 15L32 14L33 14L33 9L32 9L32 8L30 8L30 9L29 9L29 8L26 8L26 10L24 10L24 11L23 11L23 9L24 9L24 7L25 7L25 6L24 6L24 7L23 7L23 6L22 6L22 5L21 5L21 3L20 3L20 5L19 5L19 6L18 6L18 7L17 7L17 6L16 6L16 3L19 3L19 2L17 2L17 0L15 0L15 4L13 4L13 5L14 5L14 7L15 7L15 8L16 8L16 11L15 11L15 9L14 9L14 8L13 8L13 6L12 6L12 5L11 5L11 6L10 6L10 5L9 5L9 4L12 4L12 3L13 3L13 2L14 2L14 0L12 0L12 1L11 1L11 2L9 2L9 1L10 1L10 0ZM19 0L19 1L20 1L20 2L22 2L22 1L23 1L23 3L22 3L22 4L23 4L23 5L25 5L25 2L24 2L24 1L25 1L25 0ZM23 3L23 4L24 4L24 3ZM20 5L20 6L19 6L19 7L18 7L18 8L17 8L17 7L16 7L16 6L15 6L15 7L16 7L16 8L17 8L17 9L18 9L18 10L21 10L21 11L22 11L22 10L21 10L21 9L20 9L20 6L21 6L21 7L22 7L22 8L23 8L23 7L22 7L22 6L21 6L21 5ZM9 6L9 7L10 7L10 8L8 8L8 9L9 9L9 10L10 10L10 8L11 8L11 9L12 9L12 10L11 10L11 11L9 11L9 12L8 12L8 15L5 15L5 16L4 16L4 17L2 17L2 18L4 18L4 17L6 17L6 18L5 18L5 19L4 19L4 20L7 20L7 21L3 21L3 23L4 23L4 22L5 22L5 23L6 23L6 24L7 24L7 23L6 23L6 22L9 22L9 21L10 21L10 20L11 20L11 19L13 19L13 17L14 17L14 18L15 18L15 19L16 19L16 18L15 18L15 17L14 17L14 16L16 16L16 15L17 15L17 14L18 14L18 16L20 16L20 17L17 17L17 18L19 18L19 19L20 19L20 20L21 20L21 18L20 18L20 17L21 17L21 15L22 15L22 14L24 14L24 12L26 12L26 11L24 11L24 12L23 12L23 13L22 13L22 14L21 14L21 15L20 15L20 14L19 14L19 13L20 13L20 11L16 11L16 12L19 12L19 13L15 13L15 14L14 14L14 13L13 13L13 15L14 15L14 16L13 16L13 17L10 17L10 16L12 16L12 14L11 14L11 15L10 15L10 14L9 14L9 13L12 13L12 12L13 12L13 11L14 11L14 10L13 10L13 8L12 8L12 6L11 6L11 7L10 7L10 6ZM18 8L18 9L19 9L19 8ZM28 9L28 10L27 10L27 11L28 11L28 12L27 12L27 14L26 14L26 13L25 13L25 15L28 15L28 13L29 13L29 14L31 14L31 12L32 12L32 10L31 10L31 11L30 11L30 12L29 12L29 11L28 11L28 10L29 10L29 9ZM0 10L0 11L1 11L1 10ZM7 10L7 11L6 11L6 12L5 12L5 13L3 13L3 14L7 14L7 13L6 13L6 12L7 12L7 11L8 11L8 10ZM1 14L1 15L2 15L2 16L3 16L3 15L2 15L2 14ZM9 15L9 16L10 16L10 15ZM6 16L6 17L7 17L7 18L6 18L6 19L8 19L8 18L9 18L9 19L10 19L10 18L9 18L9 17L7 17L7 16ZM22 16L22 17L24 17L24 18L23 18L23 19L25 19L25 16ZM32 16L32 17L33 17L33 16ZM31 18L31 19L32 19L32 20L33 20L33 18ZM29 21L29 22L31 22L31 23L33 23L33 21ZM24 22L24 23L25 23L25 22ZM12 23L12 24L13 24L13 23ZM17 23L17 24L18 24L18 23ZM22 24L22 25L23 25L23 27L24 27L24 25L23 25L23 24ZM25 25L25 28L28 28L28 25ZM31 25L31 27L32 27L32 29L31 29L31 31L33 31L33 27L32 27L32 26L33 26L33 25ZM18 26L18 29L19 29L19 27L20 27L20 28L21 28L21 27L22 27L22 26L21 26L21 27L20 27L20 26ZM26 26L26 27L27 27L27 26ZM15 28L15 29L14 29L14 30L15 30L15 31L16 31L16 32L17 32L17 31L16 31L16 29L17 29L17 28ZM11 30L11 31L12 31L12 30ZM31 32L31 33L32 33L32 32ZM0 0L0 7L7 7L7 0ZM1 1L1 6L6 6L6 1ZM2 2L2 5L5 5L5 2ZM26 0L26 7L33 7L33 0ZM27 1L27 6L32 6L32 1ZM28 2L28 5L31 5L31 2ZM0 26L0 33L7 33L7 26ZM1 27L1 32L6 32L6 27ZM2 28L2 31L5 31L5 28Z" fill="#000000"/></g></g></svg>
