<?xml version="1.0" encoding="UTF-8"?>
<svg xmlns="http://www.w3.org/2000/svg" version="1.1" width="400" height="400" viewBox="0 0 400 400"><rect x="0" y="0" width="400" height="400" fill="#fefefe"/><g transform="scale(9.756)"><g transform="translate(4,4)"><path fill-rule="evenodd" d="M8 0L8 4L10 4L10 3L11 3L11 4L12 4L12 2L11 2L11 0ZM12 0L12 1L13 1L13 0ZM15 0L15 1L14 1L14 2L15 2L15 1L16 1L16 0ZM20 0L20 1L18 1L18 2L16 2L16 3L15 3L15 4L14 4L14 3L13 3L13 5L11 5L11 6L10 6L10 7L9 7L9 5L8 5L8 7L9 7L9 8L10 8L10 7L11 7L11 6L12 6L12 8L11 8L11 9L8 9L8 10L5 10L5 11L4 11L4 9L7 9L7 8L4 8L4 9L2 9L2 8L0 8L0 9L1 9L1 10L3 10L3 12L4 12L4 13L2 13L2 11L1 11L1 12L0 12L0 17L2 17L2 18L0 18L0 22L1 22L1 19L2 19L2 20L3 20L3 21L2 21L2 22L3 22L3 21L4 21L4 22L6 22L6 23L7 23L7 24L5 24L5 23L2 23L2 24L0 24L0 25L2 25L2 24L3 24L3 25L4 25L4 24L5 24L5 25L7 25L7 24L8 24L8 26L10 26L10 27L12 27L12 28L13 28L13 27L12 27L12 26L14 26L14 25L15 25L15 28L14 28L14 29L11 29L11 30L10 30L10 29L9 29L9 27L8 27L8 29L9 29L9 30L10 30L10 31L8 31L8 33L9 33L9 32L10 32L10 33L11 33L11 32L13 32L13 31L12 31L12 30L14 30L14 29L15 29L15 32L14 32L14 33L15 33L15 32L16 32L16 31L17 31L17 33L18 33L18 32L19 32L19 33L20 33L20 32L19 32L19 30L17 30L17 29L18 29L18 27L19 27L19 26L17 26L17 25L18 25L18 24L19 24L19 25L21 25L21 26L20 26L20 28L19 28L19 29L21 29L21 30L20 30L20 31L21 31L21 33L22 33L22 32L23 32L23 33L26 33L26 32L25 32L25 31L23 31L23 30L25 30L25 29L26 29L26 31L28 31L28 32L29 32L29 27L31 27L31 28L32 28L32 29L30 29L30 31L32 31L32 30L33 30L33 27L32 27L32 26L31 26L31 25L32 25L32 24L33 24L33 23L31 23L31 22L32 22L32 21L33 21L33 19L32 19L32 18L31 18L31 17L30 17L30 18L28 18L28 19L27 19L27 18L26 18L26 17L29 17L29 16L30 16L30 14L31 14L31 16L32 16L32 17L33 17L33 16L32 16L32 14L31 14L31 13L29 13L29 11L28 11L28 12L26 12L26 10L25 10L25 9L22 9L22 7L23 7L23 6L22 6L22 7L21 7L21 5L17 5L17 6L16 6L16 7L15 7L15 5L16 5L16 4L17 4L17 3L18 3L18 2L19 2L19 3L20 3L20 2L21 2L21 3L22 3L22 2L23 2L23 5L24 5L24 8L25 8L25 2L23 2L23 1L25 1L25 0L23 0L23 1L22 1L22 0ZM21 1L21 2L22 2L22 1ZM9 2L9 3L10 3L10 2ZM13 5L13 8L12 8L12 9L11 9L11 10L9 10L9 11L8 11L8 12L7 12L7 11L5 11L5 13L4 13L4 14L3 14L3 15L4 15L4 16L3 16L3 17L4 17L4 18L2 18L2 19L5 19L5 17L6 17L6 18L7 18L7 19L6 19L6 20L5 20L5 21L6 21L6 22L7 22L7 23L10 23L10 24L9 24L9 25L10 25L10 26L11 26L11 25L12 25L12 24L13 24L13 25L14 25L14 22L15 22L15 21L16 21L16 20L17 20L17 19L18 19L18 21L17 21L17 23L15 23L15 24L16 24L16 25L17 25L17 23L19 23L19 24L21 24L21 23L20 23L20 22L21 22L21 21L19 21L19 20L21 20L21 19L23 19L23 18L22 18L22 17L25 17L25 16L28 16L28 14L29 14L29 13L25 13L25 12L24 12L24 11L25 11L25 10L24 10L24 11L23 11L23 12L22 12L22 13L21 13L21 12L20 12L20 13L19 13L19 15L18 15L18 16L20 16L20 17L19 17L19 18L18 18L18 17L17 17L17 19L16 19L16 20L15 20L15 18L16 18L16 17L14 17L14 16L17 16L17 14L16 14L16 15L15 15L15 13L14 13L14 12L15 12L15 9L17 9L17 10L16 10L16 11L18 11L18 12L19 12L19 11L22 11L22 9L21 9L21 7L20 7L20 6L19 6L19 8L20 8L20 9L19 9L19 10L18 10L18 9L17 9L17 7L18 7L18 6L17 6L17 7L16 7L16 8L15 8L15 7L14 7L14 5ZM14 8L14 9L12 9L12 10L11 10L11 11L10 11L10 13L8 13L8 14L10 14L10 15L9 15L9 16L6 16L6 17L7 17L7 18L8 18L8 17L9 17L9 16L10 16L10 17L12 17L12 18L11 18L11 22L10 22L10 21L9 21L9 22L10 22L10 23L12 23L12 20L13 20L13 19L14 19L14 17L13 17L13 15L12 15L12 16L10 16L10 15L11 15L11 14L10 14L10 13L11 13L11 12L12 12L12 13L13 13L13 14L14 14L14 13L13 13L13 12L12 12L12 11L14 11L14 9L15 9L15 8ZM27 8L27 9L28 9L28 8ZM29 8L29 9L31 9L31 12L32 12L32 13L33 13L33 12L32 12L32 9L33 9L33 8ZM20 9L20 10L21 10L21 9ZM6 12L6 13L5 13L5 14L4 14L4 15L7 15L7 14L6 14L6 13L7 13L7 12ZM16 12L16 13L17 13L17 12ZM20 13L20 16L21 16L21 17L20 17L20 19L21 19L21 17L22 17L22 15L23 15L23 16L25 16L25 15L24 15L24 14L25 14L25 13L22 13L22 14L21 14L21 13ZM4 16L4 17L5 17L5 16ZM9 18L9 19L8 19L8 20L6 20L6 21L8 21L8 20L10 20L10 18ZM26 19L26 20L27 20L27 19ZM28 19L28 20L29 20L29 19ZM30 19L30 21L25 21L25 23L24 23L24 24L27 24L27 23L28 23L28 24L29 24L29 26L30 26L30 25L31 25L31 23L30 23L30 24L29 24L29 23L28 23L28 22L31 22L31 20L32 20L32 19ZM14 20L14 21L13 21L13 22L14 22L14 21L15 21L15 20ZM22 20L22 25L23 25L23 20ZM10 24L10 25L11 25L11 24ZM25 25L25 28L28 28L28 25ZM16 26L16 28L15 28L15 29L17 29L17 26ZM23 26L23 27L24 27L24 26ZM26 26L26 27L27 27L27 26ZM22 28L22 29L24 29L24 28ZM32 32L32 33L33 33L33 32ZM0 0L0 7L7 7L7 0ZM1 1L1 6L6 6L6 1ZM2 2L2 5L5 5L5 2ZM26 0L26 7L33 7L33 0ZM27 1L27 6L32 6L32 1ZM28 2L28 5L31 5L31 2ZM0 26L0 33L7 33L7 26ZM1 27L1 32L6 32L6 27ZM2 28L2 31L5 31L5 28Z" fill="#000000"/></g></g></svg>
