<?xml version="1.0" encoding="UTF-8"?>
<svg xmlns="http://www.w3.org/2000/svg" version="1.1" width="400" height="400" viewBox="0 0 400 400"><rect x="0" y="0" width="400" height="400" fill="#fefefe"/><g transform="scale(9.756)"><g transform="translate(4,4)"><path fill-rule="evenodd" d="M10 0L10 2L11 2L11 0ZM12 0L12 1L13 1L13 2L12 2L12 4L14 4L14 3L13 3L13 2L14 2L14 1L15 1L15 2L16 2L16 1L15 1L15 0ZM19 0L19 1L18 1L18 3L17 3L17 4L19 4L19 5L20 5L20 7L19 7L19 6L18 6L18 5L17 5L17 6L16 6L16 5L15 5L15 6L14 6L14 5L11 5L11 6L10 6L10 4L11 4L11 3L8 3L8 4L9 4L9 5L8 5L8 7L9 7L9 8L6 8L6 9L10 9L10 11L11 11L11 9L12 9L12 10L13 10L13 11L12 11L12 13L14 13L14 14L15 14L15 15L16 15L16 17L14 17L14 16L12 16L12 15L13 15L13 14L10 14L10 13L11 13L11 12L9 12L9 13L8 13L8 15L9 15L9 14L10 14L10 15L11 15L11 17L12 17L12 18L13 18L13 19L14 19L14 18L15 18L15 21L14 21L14 20L13 20L13 21L14 21L14 24L13 24L13 22L12 22L12 20L11 20L11 19L10 19L10 18L9 18L9 17L10 17L10 16L9 16L9 17L8 17L8 16L5 16L5 15L7 15L7 14L5 14L5 13L7 13L7 12L8 12L8 11L9 11L9 10L8 10L8 11L7 11L7 10L6 10L6 11L5 11L5 8L0 8L0 11L1 11L1 12L0 12L0 13L1 13L1 14L0 14L0 15L2 15L2 16L1 16L1 17L3 17L3 18L4 18L4 19L5 19L5 18L4 18L4 17L3 17L3 16L5 16L5 17L7 17L7 18L6 18L6 19L7 19L7 20L6 20L6 21L8 21L8 20L9 20L9 21L10 21L10 22L9 22L9 23L8 23L8 24L6 24L6 23L7 23L7 22L5 22L5 24L6 24L6 25L8 25L8 27L9 27L9 26L10 26L10 28L8 28L8 33L9 33L9 31L10 31L10 32L12 32L12 31L11 31L11 30L13 30L13 29L14 29L14 30L15 30L15 33L16 33L16 32L17 32L17 33L18 33L18 32L17 32L17 31L16 31L16 30L17 30L17 29L18 29L18 28L20 28L20 29L19 29L19 30L20 30L20 29L21 29L21 31L20 31L20 32L22 32L22 33L25 33L25 32L26 32L26 31L27 31L27 33L28 33L28 32L31 32L31 33L32 33L32 32L31 32L31 31L32 31L32 30L31 30L31 29L32 29L32 28L33 28L33 27L32 27L32 26L33 26L33 23L30 23L30 24L32 24L32 25L30 25L30 26L31 26L31 27L29 27L29 24L28 24L28 23L26 23L26 22L27 22L27 21L30 21L30 20L31 20L31 19L32 19L32 20L33 20L33 19L32 19L32 18L33 18L33 17L32 17L32 14L33 14L33 13L32 13L32 10L33 10L33 9L32 9L32 8L31 8L31 9L32 9L32 10L29 10L29 12L28 12L28 11L25 11L25 12L28 12L28 13L19 13L19 10L20 10L20 12L23 12L23 11L22 11L22 10L25 10L25 9L26 9L26 10L27 10L27 9L28 9L28 8L27 8L27 9L26 9L26 8L25 8L25 4L23 4L23 3L24 3L24 2L23 2L23 1L25 1L25 0L23 0L23 1L21 1L21 2L19 2L19 1L20 1L20 0ZM8 1L8 2L9 2L9 1ZM15 3L15 4L16 4L16 3ZM19 3L19 4L22 4L22 5L21 5L21 7L20 7L20 8L19 8L19 9L20 9L20 10L21 10L21 9L25 9L25 8L24 8L24 5L23 5L23 4L22 4L22 3ZM9 6L9 7L10 7L10 6ZM11 6L11 7L12 7L12 9L13 9L13 10L14 10L14 11L13 11L13 12L14 12L14 13L15 13L15 14L16 14L16 13L17 13L17 12L18 12L18 11L16 11L16 12L15 12L15 10L16 10L16 9L17 9L17 10L18 10L18 9L17 9L17 8L18 8L18 6L17 6L17 8L16 8L16 9L15 9L15 7L16 7L16 6L15 6L15 7L14 7L14 6L13 6L13 7L12 7L12 6ZM22 6L22 7L21 7L21 8L20 8L20 9L21 9L21 8L22 8L22 7L23 7L23 6ZM10 8L10 9L11 9L11 8ZM13 8L13 9L14 9L14 10L15 10L15 9L14 9L14 8ZM29 8L29 9L30 9L30 8ZM1 9L1 11L3 11L3 12L2 12L2 13L4 13L4 12L5 12L5 11L3 11L3 10L4 10L4 9L3 9L3 10L2 10L2 9ZM6 11L6 12L7 12L7 11ZM29 12L29 13L28 13L28 14L29 14L29 15L28 15L28 16L27 16L27 14L26 14L26 16L25 16L25 15L24 15L24 14L21 14L21 15L20 15L20 14L17 14L17 16L18 16L18 15L19 15L19 17L20 17L20 18L19 18L19 20L18 20L18 19L17 19L17 18L18 18L18 17L17 17L17 18L16 18L16 19L17 19L17 20L18 20L18 21L17 21L17 22L16 22L16 21L15 21L15 22L16 22L16 23L15 23L15 24L14 24L14 25L13 25L13 26L11 26L11 27L13 27L13 28L10 28L10 29L13 29L13 28L14 28L14 29L15 29L15 30L16 30L16 29L17 29L17 28L18 28L18 27L20 27L20 28L21 28L21 29L23 29L23 32L25 32L25 31L24 31L24 30L28 30L28 31L29 31L29 30L30 30L30 31L31 31L31 30L30 30L30 29L31 29L31 28L29 28L29 30L28 30L28 29L24 29L24 28L23 28L23 26L24 26L24 24L26 24L26 23L24 23L24 22L23 22L23 20L25 20L25 21L27 21L27 20L30 20L30 19L31 19L31 18L30 18L30 17L31 17L31 16L30 16L30 14L29 14L29 13L31 13L31 12ZM21 15L21 16L20 16L20 17L21 17L21 18L20 18L20 19L21 19L21 20L20 20L20 21L19 21L19 22L17 22L17 23L16 23L16 24L17 24L17 25L16 25L16 26L15 26L15 25L14 25L14 26L15 26L15 29L16 29L16 28L17 28L17 25L18 25L18 24L17 24L17 23L19 23L19 24L20 24L20 25L19 25L19 26L20 26L20 27L21 27L21 28L22 28L22 26L23 26L23 25L21 25L21 24L23 24L23 22L20 22L20 21L21 21L21 20L23 20L23 18L25 18L25 20L26 20L26 19L27 19L27 18L28 18L28 17L29 17L29 16L28 16L28 17L26 17L26 18L25 18L25 17L23 17L23 15ZM21 16L21 17L22 17L22 18L23 18L23 17L22 17L22 16ZM13 17L13 18L14 18L14 17ZM0 18L0 19L1 19L1 21L0 21L0 25L1 25L1 22L2 22L2 24L4 24L4 22L2 22L2 21L3 21L3 19L1 19L1 18ZM7 18L7 19L9 19L9 20L10 20L10 21L11 21L11 20L10 20L10 19L9 19L9 18ZM32 21L32 22L33 22L33 21ZM11 22L11 23L12 23L12 22ZM19 22L19 23L20 23L20 24L21 24L21 23L20 23L20 22ZM8 24L8 25L10 25L10 24ZM11 24L11 25L12 25L12 24ZM20 25L20 26L21 26L21 25ZM25 25L25 28L28 28L28 25ZM26 26L26 27L27 27L27 26ZM13 32L13 33L14 33L14 32ZM0 0L0 7L7 7L7 0ZM1 1L1 6L6 6L6 1ZM2 2L2 5L5 5L5 2ZM26 0L26 7L33 7L33 0ZM27 1L27 6L32 6L32 1ZM28 2L28 5L31 5L31 2ZM0 26L0 33L7 33L7 26ZM1 27L1 32L6 32L6 27ZM2 28L2 31L5 31L5 28Z" fill="#000000"/></g></g></svg>
