<?xml version="1.0" encoding="UTF-8"?>
<svg xmlns="http://www.w3.org/2000/svg" version="1.1" width="400" height="400" viewBox="0 0 400 400"><rect x="0" y="0" width="400" height="400" fill="#fefefe"/><g transform="scale(9.756)"><g transform="translate(4,4)"><path fill-rule="evenodd" d="M8 0L8 4L9 4L9 5L8 5L8 7L9 7L9 8L10 8L10 7L11 7L11 5L12 5L12 7L13 7L13 5L14 5L14 7L15 7L15 8L14 8L14 9L13 9L13 8L12 8L12 9L11 9L11 11L10 11L10 13L7 13L7 12L9 12L9 11L8 11L8 10L10 10L10 9L8 9L8 10L6 10L6 9L7 9L7 8L4 8L4 10L3 10L3 9L2 9L2 8L0 8L0 9L2 9L2 10L3 10L3 11L2 11L2 12L1 12L1 10L0 10L0 13L1 13L1 15L0 15L0 19L1 19L1 18L3 18L3 16L2 16L2 15L4 15L4 14L5 14L5 13L7 13L7 14L6 14L6 15L5 15L5 16L4 16L4 17L5 17L5 18L4 18L4 19L5 19L5 20L4 20L4 21L2 21L2 20L1 20L1 21L0 21L0 22L5 22L5 23L2 23L2 24L0 24L0 25L2 25L2 24L5 24L5 23L7 23L7 22L8 22L8 24L9 24L9 23L10 23L10 24L11 24L11 23L12 23L12 22L13 22L13 23L17 23L17 25L16 25L16 24L14 24L14 25L13 25L13 24L12 24L12 25L11 25L11 26L10 26L10 25L8 25L8 26L10 26L10 27L8 27L8 29L10 29L10 30L9 30L9 31L8 31L8 33L10 33L10 32L12 32L12 31L13 31L13 30L14 30L14 29L15 29L15 31L14 31L14 33L15 33L15 32L16 32L16 31L17 31L17 33L18 33L18 32L19 32L19 33L20 33L20 32L21 32L21 33L22 33L22 32L23 32L23 33L25 33L25 31L27 31L27 32L26 32L26 33L28 33L28 32L29 32L29 27L31 27L31 28L32 28L32 26L31 26L31 25L32 25L32 24L33 24L33 23L31 23L31 22L32 22L32 21L33 21L33 19L32 19L32 18L31 18L31 17L30 17L30 18L26 18L26 17L29 17L29 16L30 16L30 14L31 14L31 16L32 16L32 17L33 17L33 16L32 16L32 14L31 14L31 13L29 13L29 12L28 12L28 11L29 11L29 10L28 10L28 11L26 11L26 10L25 10L25 9L23 9L23 8L25 8L25 6L24 6L24 7L23 7L23 6L22 6L22 5L21 5L21 3L22 3L22 2L23 2L23 1L25 1L25 0L23 0L23 1L22 1L22 0L20 0L20 1L19 1L19 2L20 2L20 1L22 1L22 2L21 2L21 3L18 3L18 1L17 1L17 2L16 2L16 3L15 3L15 4L14 4L14 3L12 3L12 4L9 4L9 3L11 3L11 2L9 2L9 0ZM10 0L10 1L12 1L12 2L13 2L13 0ZM15 0L15 1L14 1L14 2L15 2L15 1L16 1L16 0ZM24 2L24 3L23 3L23 5L25 5L25 2ZM17 3L17 4L16 4L16 5L15 5L15 7L16 7L16 8L15 8L15 9L14 9L14 11L13 11L13 10L12 10L12 11L11 11L11 13L10 13L10 14L9 14L9 15L8 15L8 14L7 14L7 15L6 15L6 16L7 16L7 17L6 17L6 18L9 18L9 17L8 17L8 16L10 16L10 18L11 18L11 17L12 17L12 16L13 16L13 17L14 17L14 19L13 19L13 18L12 18L12 19L13 19L13 21L14 21L14 22L15 22L15 21L16 21L16 20L17 20L17 19L18 19L18 21L17 21L17 23L20 23L20 21L21 21L21 20L20 20L20 21L19 21L19 19L21 19L21 18L22 18L22 24L23 24L23 25L21 25L21 24L20 24L20 25L19 25L19 24L18 24L18 25L17 25L17 26L16 26L16 28L15 28L15 25L14 25L14 26L13 26L13 28L10 28L10 29L14 29L14 28L15 28L15 29L17 29L17 30L19 30L19 32L20 32L20 29L21 29L21 28L20 28L20 29L19 29L19 27L23 27L23 28L22 28L22 29L23 29L23 31L25 31L25 29L24 29L24 24L28 24L28 23L26 23L26 22L31 22L31 20L32 20L32 19L30 19L30 21L25 21L25 23L23 23L23 17L25 17L25 16L27 16L27 15L28 15L28 16L29 16L29 15L28 15L28 14L29 14L29 13L26 13L26 12L25 12L25 11L23 11L23 13L19 13L19 15L18 15L18 16L20 16L20 15L23 15L23 13L24 13L24 15L25 15L25 16L23 16L23 17L19 17L19 18L18 18L18 17L17 17L17 19L16 19L16 20L15 20L15 18L16 18L16 17L14 17L14 16L17 16L17 14L16 14L16 15L15 15L15 13L14 13L14 12L15 12L15 9L17 9L17 10L16 10L16 11L18 11L18 12L20 12L20 10L21 10L21 11L22 11L22 10L23 10L23 9L19 9L19 10L18 10L18 9L17 9L17 7L18 7L18 3ZM19 4L19 5L20 5L20 4ZM9 5L9 7L10 7L10 5ZM16 6L16 7L17 7L17 6ZM19 6L19 8L20 8L20 6ZM21 6L21 7L22 7L22 6ZM27 8L27 9L28 9L28 8ZM29 8L29 9L31 9L31 12L32 12L32 13L33 13L33 12L32 12L32 9L33 9L33 8ZM5 10L5 12L7 12L7 11L6 11L6 10ZM12 11L12 12L13 12L13 11ZM16 12L16 13L17 13L17 12ZM24 12L24 13L25 13L25 15L26 15L26 13L25 13L25 12ZM3 13L3 14L4 14L4 13ZM11 13L11 14L10 14L10 15L12 15L12 13ZM13 13L13 14L14 14L14 13ZM7 15L7 16L8 16L8 15ZM1 16L1 17L2 17L2 16ZM6 19L6 20L7 20L7 21L6 21L6 22L7 22L7 21L8 21L8 22L11 22L11 21L9 21L9 19ZM26 19L26 20L28 20L28 19ZM14 20L14 21L15 21L15 20ZM30 23L30 24L29 24L29 26L30 26L30 25L31 25L31 23ZM6 24L6 25L7 25L7 24ZM20 25L20 26L21 26L21 25ZM25 25L25 28L28 28L28 25ZM17 26L17 29L18 29L18 27L19 27L19 26ZM26 26L26 27L27 27L27 26ZM30 29L30 31L32 31L32 30L33 30L33 29ZM10 30L10 31L11 31L11 30ZM32 32L32 33L33 33L33 32ZM0 0L0 7L7 7L7 0ZM1 1L1 6L6 6L6 1ZM2 2L2 5L5 5L5 2ZM26 0L26 7L33 7L33 0ZM27 1L27 6L32 6L32 1ZM28 2L28 5L31 5L31 2ZM0 26L0 33L7 33L7 26ZM1 27L1 32L6 32L6 27ZM2 28L2 31L5 31L5 28Z" fill="#000000"/></g></g></svg>
