<?xml version="1.0" encoding="UTF-8"?>
<svg xmlns="http://www.w3.org/2000/svg" version="1.1" width="400" height="400" viewBox="0 0 400 400"><rect x="0" y="0" width="400" height="400" fill="#fefefe"/><g transform="scale(9.756)"><g transform="translate(4,4)"><path fill-rule="evenodd" d="M8 0L8 4L10 4L10 3L11 3L11 4L12 4L12 2L11 2L11 0ZM12 0L12 1L13 1L13 0ZM15 0L15 1L14 1L14 2L15 2L15 1L16 1L16 0ZM20 0L20 1L17 1L17 2L16 2L16 3L15 3L15 4L14 4L14 3L13 3L13 5L11 5L11 6L10 6L10 7L9 7L9 5L8 5L8 7L9 7L9 8L10 8L10 7L11 7L11 6L12 6L12 8L11 8L11 9L7 9L7 8L4 8L4 9L3 9L3 10L1 10L1 11L0 11L0 13L1 13L1 14L2 14L2 15L3 15L3 16L1 16L1 17L3 17L3 16L4 16L4 15L3 15L3 14L4 14L4 11L5 11L5 9L7 9L7 10L6 10L6 11L7 11L7 12L6 12L6 13L7 13L7 14L6 14L6 15L5 15L5 16L6 16L6 17L5 17L5 18L3 18L3 19L2 19L2 20L1 20L1 19L0 19L0 22L1 22L1 21L2 21L2 22L3 22L3 23L2 23L2 24L0 24L0 25L3 25L3 23L4 23L4 24L6 24L6 25L7 25L7 24L8 24L8 23L10 23L10 22L9 22L9 20L10 20L10 21L11 21L11 23L12 23L12 20L13 20L13 19L14 19L14 17L16 17L16 18L15 18L15 20L14 20L14 21L13 21L13 22L14 22L14 25L13 25L13 24L12 24L12 25L11 25L11 24L10 24L10 25L11 25L11 27L8 27L8 29L9 29L9 30L10 30L10 32L9 32L9 31L8 31L8 33L12 33L12 30L14 30L14 29L15 29L15 32L14 32L14 33L15 33L15 32L16 32L16 31L17 31L17 33L18 33L18 32L19 32L19 33L20 33L20 31L21 31L21 33L22 33L22 32L23 32L23 31L21 31L21 30L20 30L20 31L19 31L19 30L17 30L17 29L18 29L18 27L19 27L19 26L17 26L17 25L18 25L18 24L19 24L19 25L22 25L22 27L21 27L21 26L20 26L20 28L19 28L19 29L23 29L23 30L25 30L25 29L26 29L26 31L24 31L24 33L28 33L28 32L29 32L29 27L31 27L31 28L32 28L32 29L30 29L30 31L32 31L32 30L33 30L33 27L32 27L32 26L31 26L31 25L32 25L32 24L33 24L33 23L31 23L31 22L32 22L32 21L33 21L33 19L32 19L32 18L31 18L31 17L30 17L30 18L29 18L29 19L28 19L28 17L29 17L29 16L30 16L30 14L31 14L31 16L32 16L32 17L33 17L33 16L32 16L32 14L31 14L31 13L29 13L29 10L28 10L28 11L27 11L27 12L26 12L26 10L25 10L25 9L24 9L24 7L25 7L25 3L24 3L24 2L25 2L25 0L23 0L23 1L22 1L22 0ZM21 1L21 2L22 2L22 3L21 3L21 4L22 4L22 3L23 3L23 2L24 2L24 1L23 1L23 2L22 2L22 1ZM9 2L9 3L10 3L10 2ZM19 2L19 5L20 5L20 2ZM17 3L17 4L16 4L16 5L15 5L15 7L14 7L14 5L13 5L13 8L12 8L12 9L11 9L11 10L9 10L9 11L8 11L8 10L7 10L7 11L8 11L8 12L7 12L7 13L8 13L8 14L7 14L7 15L6 15L6 16L7 16L7 17L6 17L6 18L5 18L5 19L3 19L3 20L2 20L2 21L3 21L3 22L5 22L5 21L6 21L6 22L7 22L7 21L8 21L8 20L7 20L7 19L6 19L6 18L9 18L9 16L10 16L10 17L11 17L11 18L10 18L10 19L11 19L11 18L12 18L12 17L11 17L11 16L12 16L12 15L13 15L13 17L14 17L14 16L17 16L17 14L16 14L16 15L15 15L15 13L14 13L14 12L15 12L15 9L17 9L17 10L16 10L16 11L18 11L18 12L20 12L20 13L19 13L19 15L18 15L18 16L19 16L19 15L21 15L21 14L22 14L22 17L25 17L25 16L23 16L23 13L26 13L26 14L24 14L24 15L26 15L26 16L27 16L27 17L26 17L26 18L27 18L27 17L28 17L28 15L29 15L29 13L28 13L28 12L27 12L27 13L26 13L26 12L24 12L24 11L22 11L22 10L23 10L23 9L19 9L19 10L18 10L18 9L17 9L17 7L18 7L18 6L17 6L17 5L18 5L18 3ZM21 5L21 7L20 7L20 6L19 6L19 7L20 7L20 8L21 8L21 7L22 7L22 8L23 8L23 7L24 7L24 5ZM16 6L16 7L15 7L15 8L14 8L14 9L12 9L12 10L11 10L11 11L10 11L10 13L9 13L9 14L10 14L10 16L11 16L11 14L10 14L10 13L11 13L11 12L12 12L12 13L13 13L13 14L14 14L14 13L13 13L13 12L12 12L12 11L14 11L14 9L15 9L15 8L16 8L16 7L17 7L17 6ZM22 6L22 7L23 7L23 6ZM0 8L0 9L2 9L2 8ZM27 8L27 9L28 9L28 8ZM29 8L29 9L31 9L31 12L32 12L32 13L33 13L33 12L32 12L32 9L33 9L33 8ZM20 10L20 11L21 11L21 13L20 13L20 14L21 14L21 13L23 13L23 12L22 12L22 11L21 11L21 10ZM1 11L1 13L2 13L2 14L3 14L3 12L2 12L2 11ZM16 12L16 13L17 13L17 12ZM27 13L27 15L28 15L28 13ZM7 15L7 16L9 16L9 15ZM17 17L17 19L16 19L16 20L15 20L15 21L14 21L14 22L15 22L15 21L16 21L16 20L17 20L17 19L18 19L18 21L17 21L17 23L15 23L15 24L16 24L16 25L17 25L17 23L19 23L19 24L20 24L20 21L21 21L21 19L20 19L20 18L21 18L21 17L19 17L19 18L18 18L18 17ZM26 19L26 20L25 20L25 21L26 21L26 24L27 24L27 23L28 23L28 24L29 24L29 26L30 26L30 25L31 25L31 23L30 23L30 24L29 24L29 23L28 23L28 22L31 22L31 20L32 20L32 19L30 19L30 21L26 21L26 20L27 20L27 19ZM4 20L4 21L5 21L5 20ZM6 20L6 21L7 21L7 20ZM22 20L22 25L24 25L24 23L25 23L25 22L24 22L24 23L23 23L23 20ZM6 23L6 24L7 24L7 23ZM8 25L8 26L9 26L9 25ZM14 25L14 26L13 26L13 27L11 27L11 28L9 28L9 29L14 29L14 28L15 28L15 29L17 29L17 26L16 26L16 28L15 28L15 25ZM25 25L25 28L28 28L28 25ZM23 26L23 27L24 27L24 26ZM26 26L26 27L27 27L27 26ZM23 28L23 29L24 29L24 28ZM26 31L26 32L28 32L28 31ZM32 32L32 33L33 33L33 32ZM0 0L0 7L7 7L7 0ZM1 1L1 6L6 6L6 1ZM2 2L2 5L5 5L5 2ZM26 0L26 7L33 7L33 0ZM27 1L27 6L32 6L32 1ZM28 2L28 5L31 5L31 2ZM0 26L0 33L7 33L7 26ZM1 27L1 32L6 32L6 27ZM2 28L2 31L5 31L5 28Z" fill="#000000"/></g></g></svg>
