<?xml version="1.0" encoding="UTF-8"?>
<svg xmlns="http://www.w3.org/2000/svg" version="1.1" width="400" height="400" viewBox="0 0 400 400"><rect x="0" y="0" width="400" height="400" fill="#fefefe"/><g transform="scale(9.756)"><g transform="translate(4,4)"><path fill-rule="evenodd" d="M11 0L11 1L8 1L8 3L9 3L9 2L10 2L10 4L8 4L8 8L6 8L6 9L7 9L7 10L5 10L5 9L4 9L4 8L3 8L3 9L2 9L2 8L0 8L0 9L2 9L2 10L3 10L3 12L5 12L5 11L7 11L7 12L6 12L6 13L7 13L7 14L4 14L4 13L2 13L2 12L1 12L1 13L2 13L2 14L0 14L0 15L1 15L1 18L2 18L2 19L0 19L0 20L2 20L2 21L1 21L1 22L0 22L0 23L1 23L1 24L0 24L0 25L1 25L1 24L2 24L2 25L3 25L3 24L4 24L4 23L5 23L5 24L6 24L6 25L8 25L8 27L9 27L9 23L11 23L11 24L10 24L10 28L9 28L9 29L8 29L8 30L9 30L9 29L10 29L10 32L9 32L9 31L8 31L8 33L11 33L11 32L12 32L12 31L11 31L11 30L12 30L12 29L10 29L10 28L12 28L12 27L13 27L13 28L14 28L14 29L13 29L13 30L14 30L14 32L13 32L13 33L14 33L14 32L16 32L16 33L17 33L17 32L19 32L19 31L17 31L17 29L18 29L18 30L19 30L19 29L20 29L20 30L21 30L21 29L22 29L22 31L20 31L20 33L30 33L30 32L29 32L29 31L30 31L30 30L29 30L29 27L30 27L30 25L29 25L29 24L28 24L28 23L29 23L29 22L31 22L31 23L33 23L33 21L29 21L29 22L28 22L28 20L30 20L30 19L27 19L27 21L26 21L26 22L24 22L24 27L23 27L23 26L22 26L22 27L21 27L21 26L20 26L20 25L18 25L18 24L19 24L19 23L20 23L20 24L21 24L21 25L23 25L23 22L22 22L22 23L21 23L21 22L19 22L19 21L16 21L16 22L17 22L17 23L16 23L16 24L14 24L14 22L15 22L15 21L14 21L14 20L13 20L13 19L15 19L15 20L16 20L16 19L17 19L17 20L18 20L18 19L19 19L19 18L17 18L17 17L19 17L19 16L20 16L20 15L19 15L19 16L18 16L18 14L17 14L17 15L16 15L16 16L14 16L14 15L13 15L13 13L14 13L14 14L15 14L15 13L19 13L19 14L20 14L20 13L19 13L19 12L16 12L16 11L20 11L20 12L21 12L21 14L22 14L22 15L21 15L21 17L20 17L20 19L21 19L21 20L20 20L20 21L23 21L23 20L24 20L24 21L25 21L25 20L26 20L26 17L27 17L27 16L28 16L28 17L29 17L29 16L30 16L30 15L32 15L32 14L33 14L33 9L32 9L32 8L30 8L30 9L29 9L29 8L26 8L26 9L25 9L25 10L26 10L26 11L25 11L25 12L24 12L24 11L23 11L23 12L22 12L22 11L20 11L20 10L23 10L23 8L24 8L24 7L25 7L25 2L24 2L24 1L25 1L25 0L19 0L19 1L21 1L21 2L17 2L17 0L15 0L15 4L13 4L13 2L14 2L14 0ZM12 1L12 2L11 2L11 4L12 4L12 2L13 2L13 1ZM22 1L22 2L21 2L21 3L20 3L20 4L19 4L19 3L16 3L16 6L15 6L15 7L14 7L14 5L11 5L11 7L10 7L10 6L9 6L9 7L10 7L10 8L8 8L8 10L7 10L7 11L8 11L8 12L9 12L9 14L8 14L8 15L3 15L3 14L2 14L2 17L4 17L4 18L3 18L3 19L5 19L5 21L2 21L2 22L3 22L3 23L2 23L2 24L3 24L3 23L4 23L4 22L5 22L5 21L6 21L6 22L7 22L7 23L6 23L6 24L7 24L7 23L8 23L8 22L7 22L7 21L9 21L9 22L10 22L10 21L11 21L11 23L12 23L12 24L11 24L11 26L13 26L13 27L14 27L14 28L15 28L15 29L14 29L14 30L15 30L15 31L16 31L16 32L17 32L17 31L16 31L16 29L17 29L17 28L15 28L15 27L17 27L17 25L15 25L15 26L14 26L14 25L12 25L12 24L13 24L13 23L12 23L12 22L13 22L13 21L12 21L12 20L9 20L9 19L10 19L10 18L11 18L11 19L12 19L12 18L13 18L13 17L14 17L14 18L15 18L15 19L16 19L16 18L15 18L15 17L14 17L14 16L13 16L13 15L9 15L9 14L10 14L10 13L11 13L11 14L12 14L12 13L13 13L13 12L11 12L11 11L12 11L12 10L13 10L13 11L14 11L14 10L13 10L13 9L10 9L10 8L14 8L14 9L15 9L15 11L16 11L16 8L17 8L17 9L18 9L18 10L20 10L20 9L21 9L21 7L22 7L22 8L23 8L23 7L24 7L24 5L23 5L23 4L22 4L22 3L24 3L24 2L23 2L23 1ZM19 5L19 6L18 6L18 7L17 7L17 6L16 6L16 7L15 7L15 8L16 8L16 7L17 7L17 8L18 8L18 9L19 9L19 8L20 8L20 7L21 7L21 6L22 6L22 7L23 7L23 6L22 6L22 5ZM12 6L12 7L13 7L13 6ZM19 6L19 7L18 7L18 8L19 8L19 7L20 7L20 6ZM27 9L27 10L28 10L28 11L29 11L29 9ZM0 10L0 11L1 11L1 10ZM8 10L8 11L11 11L11 10ZM31 10L31 11L30 11L30 12L28 12L28 13L29 13L29 14L31 14L31 12L32 12L32 10ZM26 11L26 12L27 12L27 11ZM23 12L23 13L22 13L22 14L24 14L24 12ZM25 13L25 14L26 14L26 15L25 15L25 16L23 16L23 15L22 15L22 17L21 17L21 19L22 19L22 20L23 20L23 19L25 19L25 16L27 16L27 14L26 14L26 13ZM8 15L8 17L7 17L7 16L4 16L4 17L7 17L7 18L5 18L5 19L7 19L7 20L6 20L6 21L7 21L7 20L8 20L8 19L9 19L9 17L10 17L10 16L9 16L9 15ZM28 15L28 16L29 16L29 15ZM12 16L12 17L11 17L11 18L12 18L12 17L13 17L13 16ZM32 16L32 17L33 17L33 16ZM22 17L22 19L23 19L23 18L24 18L24 17ZM31 18L31 19L32 19L32 20L33 20L33 18ZM26 22L26 23L27 23L27 22ZM17 23L17 24L18 24L18 23ZM25 25L25 28L28 28L28 25ZM31 25L31 27L32 27L32 26L33 26L33 25ZM18 26L18 29L19 29L19 28L20 28L20 29L21 29L21 27L20 27L20 26ZM26 26L26 27L27 27L27 26ZM22 28L22 29L24 29L24 28ZM31 29L31 31L33 31L33 29ZM23 30L23 32L24 32L24 30ZM26 30L26 32L28 32L28 31L27 31L27 30ZM31 32L31 33L32 33L32 32ZM0 0L0 7L7 7L7 0ZM1 1L1 6L6 6L6 1ZM2 2L2 5L5 5L5 2ZM26 0L26 7L33 7L33 0ZM27 1L27 6L32 6L32 1ZM28 2L28 5L31 5L31 2ZM0 26L0 33L7 33L7 26ZM1 27L1 32L6 32L6 27ZM2 28L2 31L5 31L5 28Z" fill="#000000"/></g></g></svg>
