<?xml version="1.0" encoding="UTF-8"?>
<svg xmlns="http://www.w3.org/2000/svg" version="1.1" width="400" height="400" viewBox="0 0 400 400"><rect x="0" y="0" width="400" height="400" fill="#fefefe"/><g transform="scale(9.756)"><g transform="translate(4,4)"><path fill-rule="evenodd" d="M8 0L8 4L9 4L9 5L8 5L8 7L9 7L9 8L10 8L10 7L11 7L11 5L12 5L12 7L13 7L13 5L14 5L14 7L15 7L15 8L14 8L14 9L13 9L13 8L12 8L12 9L11 9L11 11L10 11L10 13L11 13L11 15L9 15L9 14L8 14L8 13L9 13L9 12L6 12L6 13L7 13L7 14L6 14L6 15L9 15L9 16L5 16L5 17L4 17L4 19L3 19L3 15L5 15L5 12L4 12L4 9L5 9L5 11L8 11L8 10L10 10L10 9L7 9L7 8L4 8L4 9L3 9L3 10L2 10L2 8L0 8L0 9L1 9L1 10L2 10L2 11L3 11L3 12L1 12L1 11L0 11L0 13L3 13L3 15L2 15L2 14L1 14L1 15L0 15L0 16L1 16L1 17L2 17L2 18L1 18L1 20L3 20L3 21L2 21L2 24L0 24L0 25L5 25L5 24L3 24L3 23L4 23L4 22L3 22L3 21L5 21L5 20L6 20L6 21L8 21L8 22L6 22L6 23L8 23L8 26L10 26L10 27L8 27L8 29L9 29L9 28L10 28L10 30L9 30L9 31L8 31L8 33L11 33L11 32L12 32L12 31L13 31L13 30L14 30L14 29L15 29L15 32L14 32L14 33L15 33L15 32L16 32L16 31L17 31L17 33L18 33L18 32L19 32L19 33L28 33L28 31L29 31L29 27L31 27L31 28L32 28L32 26L31 26L31 25L32 25L32 24L33 24L33 23L31 23L31 22L32 22L32 21L33 21L33 19L32 19L32 18L31 18L31 17L30 17L30 18L29 18L29 19L28 19L28 18L26 18L26 17L29 17L29 16L30 16L30 14L31 14L31 16L32 16L32 17L33 17L33 16L32 16L32 14L31 14L31 13L29 13L29 10L28 10L28 11L27 11L27 10L26 10L26 11L27 11L27 12L25 12L25 10L24 10L24 9L25 9L25 2L23 2L23 1L25 1L25 0L23 0L23 1L22 1L22 0L21 0L21 1L19 1L19 0L18 0L18 1L17 1L17 2L16 2L16 3L15 3L15 4L14 4L14 3L12 3L12 4L9 4L9 3L11 3L11 2L9 2L9 0ZM10 0L10 1L12 1L12 2L13 2L13 0ZM15 0L15 1L14 1L14 2L15 2L15 1L16 1L16 0ZM21 1L21 2L20 2L20 3L19 3L19 2L18 2L18 3L17 3L17 4L16 4L16 5L15 5L15 7L16 7L16 8L15 8L15 9L14 9L14 11L13 11L13 10L12 10L12 11L11 11L11 13L12 13L12 15L11 15L11 16L9 16L9 17L12 17L12 16L13 16L13 17L14 17L14 19L13 19L13 18L12 18L12 19L13 19L13 21L14 21L14 22L15 22L15 21L16 21L16 20L17 20L17 19L18 19L18 21L17 21L17 23L13 23L13 22L12 22L12 23L11 23L11 18L10 18L10 20L9 20L9 18L8 18L8 19L6 19L6 18L7 18L7 17L5 17L5 19L4 19L4 20L5 20L5 19L6 19L6 20L9 20L9 22L8 22L8 23L11 23L11 24L10 24L10 26L11 26L11 25L12 25L12 24L13 24L13 25L14 25L14 26L13 26L13 28L11 28L11 29L14 29L14 28L15 28L15 29L17 29L17 30L19 30L19 32L20 32L20 29L21 29L21 31L22 31L22 29L23 29L23 31L25 31L25 32L27 32L27 31L25 31L25 30L24 30L24 28L23 28L23 27L24 27L24 26L23 26L23 27L22 27L22 25L23 25L23 20L22 20L22 25L21 25L21 24L20 24L20 23L21 23L21 21L19 21L19 19L20 19L20 20L21 20L21 19L22 19L22 18L23 18L23 17L25 17L25 16L23 16L23 15L22 15L22 14L23 14L23 13L25 13L25 14L24 14L24 15L26 15L26 16L27 16L27 15L28 15L28 14L29 14L29 13L28 13L28 12L27 12L27 13L25 13L25 12L23 12L23 13L21 13L21 10L22 10L22 11L23 11L23 10L22 10L22 9L24 9L24 5L23 5L23 2L22 2L22 1ZM21 2L21 3L20 3L20 5L19 5L19 6L18 6L18 5L17 5L17 6L16 6L16 7L17 7L17 9L15 9L15 12L14 12L14 13L13 13L13 14L14 14L14 13L15 13L15 15L16 15L16 14L17 14L17 16L14 16L14 17L16 17L16 18L15 18L15 20L14 20L14 21L15 21L15 20L16 20L16 19L17 19L17 17L18 17L18 18L19 18L19 17L20 17L20 19L21 19L21 17L23 17L23 16L22 16L22 15L21 15L21 17L20 17L20 16L18 16L18 15L19 15L19 13L20 13L20 14L21 14L21 13L20 13L20 11L19 11L19 12L18 12L18 11L16 11L16 10L17 10L17 9L18 9L18 10L19 10L19 9L22 9L22 8L23 8L23 6L22 6L22 5L21 5L21 3L22 3L22 2ZM9 5L9 7L10 7L10 5ZM20 5L20 6L19 6L19 8L21 8L21 7L22 7L22 6L21 6L21 5ZM17 6L17 7L18 7L18 6ZM20 6L20 7L21 7L21 6ZM27 8L27 9L28 9L28 8ZM29 8L29 9L31 9L31 12L32 12L32 13L33 13L33 12L32 12L32 9L33 9L33 8ZM6 9L6 10L7 10L7 9ZM12 11L12 12L13 12L13 11ZM3 12L3 13L4 13L4 12ZM16 12L16 13L17 13L17 12ZM27 13L27 14L26 14L26 15L27 15L27 14L28 14L28 13ZM26 19L26 20L27 20L27 19ZM30 19L30 21L25 21L25 22L24 22L24 24L25 24L25 23L26 23L26 24L27 24L27 23L26 23L26 22L31 22L31 20L32 20L32 19ZM0 21L0 22L1 22L1 21ZM17 23L17 25L16 25L16 24L14 24L14 25L15 25L15 28L16 28L16 26L17 26L17 29L18 29L18 27L19 27L19 26L17 26L17 25L18 25L18 24L19 24L19 25L20 25L20 26L21 26L21 25L20 25L20 24L19 24L19 23ZM30 23L30 24L29 24L29 26L30 26L30 25L31 25L31 23ZM6 24L6 25L7 25L7 24ZM25 25L25 28L28 28L28 25ZM26 26L26 27L27 27L27 26ZM20 27L20 28L19 28L19 29L20 29L20 28L21 28L21 29L22 29L22 27ZM30 29L30 31L32 31L32 30L33 30L33 29ZM32 32L32 33L33 33L33 32ZM0 0L0 7L7 7L7 0ZM1 1L1 6L6 6L6 1ZM2 2L2 5L5 5L5 2ZM26 0L26 7L33 7L33 0ZM27 1L27 6L32 6L32 1ZM28 2L28 5L31 5L31 2ZM0 26L0 33L7 33L7 26ZM1 27L1 32L6 32L6 27ZM2 28L2 31L5 31L5 28Z" fill="#000000"/></g></g></svg>
