<?xml version="1.0" encoding="UTF-8"?>
<svg xmlns="http://www.w3.org/2000/svg" version="1.1" width="400" height="400" viewBox="0 0 400 400"><rect x="0" y="0" width="400" height="400" fill="#fefefe"/><g transform="scale(9.756)"><g transform="translate(4,4)"><path fill-rule="evenodd" d="M8 0L8 4L9 4L9 5L8 5L8 7L9 7L9 8L10 8L10 7L11 7L11 5L12 5L12 7L13 7L13 5L14 5L14 7L15 7L15 8L14 8L14 9L13 9L13 8L12 8L12 9L11 9L11 11L10 11L10 13L11 13L11 15L10 15L10 16L11 16L11 15L12 15L12 13L11 13L11 11L12 11L12 12L13 12L13 11L14 11L14 9L15 9L15 12L14 12L14 13L13 13L13 14L14 14L14 13L15 13L15 15L16 15L16 14L17 14L17 16L14 16L14 17L13 17L13 16L12 16L12 17L11 17L11 19L10 19L10 18L6 18L6 19L7 19L7 20L6 20L6 21L7 21L7 22L4 22L4 21L5 21L5 20L4 20L4 19L3 19L3 20L4 20L4 21L3 21L3 22L2 22L2 24L0 24L0 25L3 25L3 23L4 23L4 25L8 25L8 26L10 26L10 27L8 27L8 29L9 29L9 30L10 30L10 31L8 31L8 33L11 33L11 32L12 32L12 31L13 31L13 30L14 30L14 29L15 29L15 32L14 32L14 33L15 33L15 32L16 32L16 31L17 31L17 33L18 33L18 32L19 32L19 33L25 33L25 32L26 32L26 33L28 33L28 31L29 31L29 27L31 27L31 28L32 28L32 26L31 26L31 25L32 25L32 24L33 24L33 23L31 23L31 22L32 22L32 21L33 21L33 19L32 19L32 18L31 18L31 17L30 17L30 18L28 18L28 20L26 20L26 19L27 19L27 18L26 18L26 17L29 17L29 16L30 16L30 14L31 14L31 16L32 16L32 17L33 17L33 16L32 16L32 14L31 14L31 13L29 13L29 10L28 10L28 8L27 8L27 10L28 10L28 11L25 11L25 10L26 10L26 9L25 9L25 8L24 8L24 9L22 9L22 8L23 8L23 6L22 6L22 7L21 7L21 6L20 6L20 5L25 5L25 3L24 3L24 2L25 2L25 0L23 0L23 1L22 1L22 0L21 0L21 1L19 1L19 0L18 0L18 1L17 1L17 2L16 2L16 3L15 3L15 4L14 4L14 3L12 3L12 4L9 4L9 3L11 3L11 2L9 2L9 0ZM10 0L10 1L12 1L12 2L13 2L13 0ZM15 0L15 1L14 1L14 2L15 2L15 1L16 1L16 0ZM18 1L18 3L17 3L17 4L16 4L16 5L15 5L15 7L16 7L16 8L15 8L15 9L17 9L17 10L16 10L16 11L18 11L18 12L19 12L19 11L20 11L20 13L19 13L19 15L18 15L18 16L21 16L21 15L23 15L23 14L22 14L22 13L24 13L24 15L25 15L25 16L22 16L22 17L25 17L25 16L27 16L27 14L29 14L29 13L24 13L24 12L25 12L25 11L24 11L24 12L22 12L22 13L21 13L21 11L22 11L22 9L19 9L19 10L18 10L18 9L17 9L17 7L18 7L18 6L19 6L19 7L20 7L20 8L21 8L21 7L20 7L20 6L19 6L19 5L20 5L20 2L19 2L19 1ZM21 1L21 2L22 2L22 3L21 3L21 4L22 4L22 3L23 3L23 4L24 4L24 3L23 3L23 2L24 2L24 1L23 1L23 2L22 2L22 1ZM9 5L9 7L10 7L10 5ZM17 5L17 6L16 6L16 7L17 7L17 6L18 6L18 5ZM24 6L24 7L25 7L25 6ZM0 8L0 12L1 12L1 14L0 14L0 16L4 16L4 17L1 17L1 19L2 19L2 18L4 18L4 17L9 17L9 13L7 13L7 12L5 12L5 11L4 11L4 10L5 10L5 9L7 9L7 10L6 10L6 11L8 11L8 9L7 9L7 8L4 8L4 9L2 9L2 8ZM29 8L29 9L31 9L31 12L32 12L32 13L33 13L33 12L32 12L32 9L33 9L33 8ZM1 9L1 11L2 11L2 15L5 15L5 12L4 12L4 13L3 13L3 10L2 10L2 9ZM9 9L9 10L10 10L10 9ZM24 9L24 10L25 10L25 9ZM12 10L12 11L13 11L13 10ZM20 10L20 11L21 11L21 10ZM16 12L16 13L17 13L17 12ZM6 13L6 14L7 14L7 15L6 15L6 16L7 16L7 15L8 15L8 14L7 14L7 13ZM20 13L20 15L21 15L21 13ZM25 14L25 15L26 15L26 14ZM28 15L28 16L29 16L29 15ZM14 17L14 19L13 19L13 18L12 18L12 19L13 19L13 21L14 21L14 22L15 22L15 21L16 21L16 20L17 20L17 19L18 19L18 21L17 21L17 23L13 23L13 22L12 22L12 23L10 23L10 24L11 24L11 25L10 25L10 26L11 26L11 25L12 25L12 24L13 24L13 25L14 25L14 26L13 26L13 27L12 27L12 28L9 28L9 29L14 29L14 28L15 28L15 29L17 29L17 30L19 30L19 32L20 32L20 31L25 31L25 30L23 30L23 29L24 29L24 24L23 24L23 20L22 20L22 24L23 24L23 25L21 25L21 24L20 24L20 21L21 21L21 20L20 20L20 21L19 21L19 19L21 19L21 17L19 17L19 18L18 18L18 17L17 17L17 19L16 19L16 20L15 20L15 18L16 18L16 17ZM9 19L9 20L8 20L8 22L11 22L11 20L10 20L10 19ZM30 19L30 21L25 21L25 22L26 22L26 23L25 23L25 24L27 24L27 23L28 23L28 22L31 22L31 20L32 20L32 19ZM0 20L0 22L1 22L1 21L2 21L2 20ZM14 20L14 21L15 21L15 20ZM5 23L5 24L8 24L8 23ZM17 23L17 25L16 25L16 24L14 24L14 25L15 25L15 28L16 28L16 26L17 26L17 29L18 29L18 27L19 27L19 26L17 26L17 25L18 25L18 24L19 24L19 25L20 25L20 27L21 27L21 29L20 29L20 28L19 28L19 29L20 29L20 30L21 30L21 29L23 29L23 28L22 28L22 26L21 26L21 25L20 25L20 24L19 24L19 23ZM30 23L30 24L29 24L29 26L30 26L30 25L31 25L31 23ZM25 25L25 28L28 28L28 25ZM26 26L26 27L27 27L27 26ZM30 29L30 31L32 31L32 30L33 30L33 29ZM10 31L10 32L11 32L11 31ZM26 31L26 32L27 32L27 31ZM32 32L32 33L33 33L33 32ZM0 0L0 7L7 7L7 0ZM1 1L1 6L6 6L6 1ZM2 2L2 5L5 5L5 2ZM26 0L26 7L33 7L33 0ZM27 1L27 6L32 6L32 1ZM28 2L28 5L31 5L31 2ZM0 26L0 33L7 33L7 26ZM1 27L1 32L6 32L6 27ZM2 28L2 31L5 31L5 28Z" fill="#000000"/></g></g></svg>
