<?xml version="1.0" encoding="UTF-8"?>
<svg xmlns="http://www.w3.org/2000/svg" version="1.1" width="400" height="400" viewBox="0 0 400 400"><rect x="0" y="0" width="400" height="400" fill="#fefefe"/><g transform="scale(9.756)"><g transform="translate(4,4)"><path fill-rule="evenodd" d="M8 0L8 4L9 4L9 5L8 5L8 7L9 7L9 8L10 8L10 7L11 7L11 5L12 5L12 7L13 7L13 5L14 5L14 7L15 7L15 8L14 8L14 9L13 9L13 8L12 8L12 9L11 9L11 11L10 11L10 13L9 13L9 12L8 12L8 9L7 9L7 8L4 8L4 9L5 9L5 10L2 10L2 8L0 8L0 9L1 9L1 10L0 10L0 11L1 11L1 12L0 12L0 14L1 14L1 16L2 16L2 19L3 19L3 20L2 20L2 21L0 21L0 22L2 22L2 23L3 23L3 25L8 25L8 26L9 26L9 27L8 27L8 29L9 29L9 27L11 27L11 28L10 28L10 29L11 29L11 30L9 30L9 31L8 31L8 33L10 33L10 32L13 32L13 30L14 30L14 29L15 29L15 32L14 32L14 33L15 33L15 32L16 32L16 31L17 31L17 33L18 33L18 32L19 32L19 33L20 33L20 31L21 31L21 33L22 33L22 31L23 31L23 29L22 29L22 27L23 27L23 28L24 28L24 30L25 30L25 29L26 29L26 31L24 31L24 33L25 33L25 32L26 32L26 33L27 33L27 32L28 32L28 31L29 31L29 33L30 33L30 30L31 30L31 31L32 31L32 30L33 30L33 29L29 29L29 27L31 27L31 28L32 28L32 26L31 26L31 25L32 25L32 24L33 24L33 23L31 23L31 22L32 22L32 21L33 21L33 19L32 19L32 18L31 18L31 17L30 17L30 18L29 18L29 19L27 19L27 18L26 18L26 17L29 17L29 16L30 16L30 14L31 14L31 16L32 16L32 17L33 17L33 16L32 16L32 14L31 14L31 13L29 13L29 10L28 10L28 11L26 11L26 10L25 10L25 9L22 9L22 8L23 8L23 6L22 6L22 5L21 5L21 6L20 6L20 5L18 5L18 7L17 7L17 6L16 6L16 7L15 7L15 5L16 5L16 4L17 4L17 3L19 3L19 2L20 2L20 1L22 1L22 2L21 2L21 3L22 3L22 2L23 2L23 3L24 3L24 4L23 4L23 5L24 5L24 8L25 8L25 3L24 3L24 2L25 2L25 0L23 0L23 1L22 1L22 0L20 0L20 1L17 1L17 2L16 2L16 3L15 3L15 4L14 4L14 3L12 3L12 4L9 4L9 3L11 3L11 2L9 2L9 0ZM10 0L10 1L12 1L12 2L13 2L13 0ZM15 0L15 1L14 1L14 2L15 2L15 1L16 1L16 0ZM23 1L23 2L24 2L24 1ZM9 5L9 7L10 7L10 5ZM19 6L19 10L18 10L18 9L17 9L17 7L16 7L16 8L15 8L15 9L14 9L14 11L13 11L13 10L12 10L12 11L11 11L11 13L10 13L10 14L11 14L11 13L12 13L12 15L11 15L11 17L12 17L12 16L13 16L13 17L14 17L14 19L13 19L13 18L12 18L12 19L13 19L13 21L14 21L14 22L12 22L12 23L11 23L11 24L8 24L8 25L9 25L9 26L11 26L11 25L12 25L12 24L13 24L13 25L14 25L14 26L12 26L12 27L13 27L13 28L11 28L11 29L14 29L14 28L15 28L15 29L17 29L17 30L19 30L19 31L20 31L20 30L21 30L21 31L22 31L22 29L19 29L19 28L20 28L20 25L21 25L21 27L22 27L22 26L23 26L23 27L24 27L24 26L23 26L23 25L24 25L24 24L23 24L23 19L22 19L22 17L25 17L25 16L26 16L26 15L28 15L28 14L29 14L29 13L28 13L28 12L27 12L27 13L25 13L25 12L26 12L26 11L25 11L25 12L24 12L24 11L23 11L23 10L22 10L22 9L21 9L21 7L22 7L22 6L21 6L21 7L20 7L20 6ZM27 8L27 9L28 9L28 8ZM29 8L29 9L31 9L31 12L32 12L32 13L33 13L33 12L32 12L32 9L33 9L33 8ZM6 9L6 10L7 10L7 9ZM9 9L9 10L10 10L10 9ZM15 9L15 12L14 12L14 13L13 13L13 14L14 14L14 13L15 13L15 15L16 15L16 14L17 14L17 16L14 16L14 17L16 17L16 18L15 18L15 20L14 20L14 21L15 21L15 22L14 22L14 25L15 25L15 28L16 28L16 26L17 26L17 29L18 29L18 27L19 27L19 26L17 26L17 25L18 25L18 24L19 24L19 25L20 25L20 24L21 24L21 25L23 25L23 24L22 24L22 19L21 19L21 17L22 17L22 16L25 16L25 15L26 15L26 14L25 14L25 13L23 13L23 12L22 12L22 10L21 10L21 9L20 9L20 11L21 11L21 13L20 13L20 14L21 14L21 13L23 13L23 15L21 15L21 17L20 17L20 15L19 15L19 12L18 12L18 11L16 11L16 10L17 10L17 9ZM1 10L1 11L2 11L2 13L1 13L1 14L2 14L2 15L3 15L3 14L5 14L5 15L4 15L4 18L3 18L3 19L5 19L5 20L7 20L7 21L4 21L4 22L3 22L3 23L4 23L4 24L5 24L5 22L8 22L8 23L9 23L9 22L8 22L8 21L10 21L10 20L11 20L11 18L10 18L10 17L9 17L9 16L10 16L10 15L6 15L6 14L8 14L8 12L7 12L7 11L6 11L6 12L4 12L4 11L2 11L2 10ZM12 11L12 12L13 12L13 11ZM6 12L6 13L7 13L7 12ZM16 12L16 13L17 13L17 12ZM2 13L2 14L3 14L3 13ZM27 13L27 14L28 14L28 13ZM24 14L24 15L25 15L25 14ZM18 15L18 16L19 16L19 15ZM6 16L6 17L5 17L5 19L7 19L7 18L6 18L6 17L8 17L8 16ZM0 17L0 18L1 18L1 17ZM17 17L17 19L16 19L16 20L15 20L15 21L16 21L16 20L17 20L17 19L18 19L18 21L17 21L17 23L15 23L15 24L16 24L16 25L17 25L17 23L19 23L19 24L20 24L20 21L21 21L21 19L20 19L20 17L19 17L19 18L18 18L18 17ZM8 18L8 20L10 20L10 18ZM26 19L26 20L27 20L27 19ZM30 19L30 21L25 21L25 22L24 22L24 23L25 23L25 24L26 24L26 23L28 23L28 24L29 24L29 26L30 26L30 25L31 25L31 23L30 23L30 24L29 24L29 23L28 23L28 22L31 22L31 20L32 20L32 19ZM19 20L19 21L20 21L20 20ZM6 23L6 24L7 24L7 23ZM0 24L0 25L2 25L2 24ZM25 25L25 28L28 28L28 25ZM26 26L26 27L27 27L27 26ZM9 31L9 32L10 32L10 31ZM26 31L26 32L27 32L27 31ZM32 32L32 33L33 33L33 32ZM0 0L0 7L7 7L7 0ZM1 1L1 6L6 6L6 1ZM2 2L2 5L5 5L5 2ZM26 0L26 7L33 7L33 0ZM27 1L27 6L32 6L32 1ZM28 2L28 5L31 5L31 2ZM0 26L0 33L7 33L7 26ZM1 27L1 32L6 32L6 27ZM2 28L2 31L5 31L5 28Z" fill="#000000"/></g></g></svg>
