<?xml version="1.0" encoding="UTF-8"?>
<svg xmlns="http://www.w3.org/2000/svg" version="1.1" width="400" height="400" viewBox="0 0 400 400"><rect x="0" y="0" width="400" height="400" fill="#fefefe"/><g transform="scale(9.756)"><g transform="translate(4,4)"><path fill-rule="evenodd" d="M9 0L9 1L8 1L8 3L9 3L9 4L8 4L8 8L6 8L6 9L8 9L8 10L9 10L9 11L11 11L11 10L12 10L12 9L11 9L11 8L10 8L10 7L11 7L11 6L12 6L12 8L13 8L13 10L14 10L14 11L13 11L13 12L12 12L12 13L8 13L8 11L7 11L7 10L5 10L5 9L4 9L4 8L3 8L3 9L4 9L4 11L3 11L3 10L1 10L1 9L2 9L2 8L0 8L0 11L3 11L3 12L2 12L2 14L1 14L1 12L0 12L0 15L1 15L1 17L2 17L2 19L1 19L1 18L0 18L0 20L1 20L1 21L3 21L3 20L4 20L4 21L5 21L5 22L6 22L6 23L4 23L4 22L3 22L3 23L2 23L2 22L0 22L0 23L1 23L1 24L0 24L0 25L1 25L1 24L2 24L2 25L7 25L7 24L6 24L6 23L7 23L7 22L6 22L6 21L8 21L8 23L9 23L9 22L10 22L10 25L9 25L9 24L8 24L8 27L9 27L9 28L10 28L10 30L9 30L9 29L8 29L8 30L9 30L9 31L8 31L8 33L10 33L10 31L11 31L11 33L12 33L12 31L13 31L13 30L14 30L14 31L15 31L15 32L16 32L16 33L17 33L17 32L19 32L19 31L17 31L17 29L18 29L18 30L19 30L19 29L20 29L20 30L21 30L21 29L22 29L22 31L21 31L21 32L20 32L20 33L23 33L23 32L24 32L24 33L25 33L25 32L26 32L26 33L29 33L29 32L30 32L30 31L33 31L33 27L32 27L32 26L33 26L33 25L31 25L31 27L32 27L32 29L31 29L31 30L30 30L30 29L29 29L29 27L30 27L30 25L29 25L29 24L27 24L27 23L28 23L28 20L30 20L30 19L28 19L28 17L29 17L29 16L30 16L30 15L32 15L32 14L33 14L33 9L32 9L32 8L30 8L30 9L29 9L29 8L26 8L26 11L27 11L27 10L28 10L28 9L29 9L29 12L30 12L30 11L31 11L31 10L32 10L32 12L31 12L31 14L29 14L29 13L28 13L28 12L26 12L26 13L25 13L25 14L23 14L23 13L24 13L24 12L23 12L23 11L22 11L22 7L23 7L23 9L24 9L24 11L25 11L25 6L24 6L24 7L23 7L23 6L22 6L22 5L21 5L21 6L20 6L20 5L19 5L19 4L20 4L20 3L21 3L21 2L22 2L22 1L23 1L23 2L24 2L24 3L22 3L22 4L23 4L23 5L24 5L24 3L25 3L25 0L19 0L19 1L18 1L18 2L17 2L17 0L15 0L15 4L13 4L13 5L14 5L14 7L15 7L15 8L16 8L16 11L15 11L15 9L14 9L14 8L13 8L13 6L12 6L12 5L11 5L11 6L10 6L10 5L9 5L9 4L12 4L12 3L13 3L13 2L14 2L14 0L12 0L12 1L11 1L11 2L9 2L9 1L10 1L10 0ZM19 1L19 3L20 3L20 1ZM16 3L16 6L15 6L15 7L16 7L16 8L17 8L17 9L18 9L18 10L20 10L20 11L16 11L16 12L19 12L19 13L15 13L15 14L14 14L14 13L13 13L13 15L14 15L14 16L13 16L13 17L11 17L11 19L10 19L10 17L9 17L9 18L8 18L8 20L9 20L9 19L10 19L10 22L11 22L11 23L12 23L12 24L11 24L11 25L10 25L10 26L12 26L12 27L14 27L14 28L11 28L11 27L10 27L10 28L11 28L11 29L12 29L12 30L11 30L11 31L12 31L12 30L13 30L13 29L14 29L14 30L15 30L15 31L16 31L16 32L17 32L17 31L16 31L16 29L17 29L17 28L15 28L15 27L17 27L17 25L15 25L15 26L14 26L14 25L12 25L12 24L13 24L13 23L12 23L12 21L13 21L13 20L14 20L14 21L15 21L15 22L14 22L14 24L16 24L16 23L17 23L17 24L18 24L18 25L20 25L20 26L18 26L18 29L19 29L19 28L20 28L20 29L21 29L21 28L20 28L20 26L21 26L21 23L22 23L22 22L23 22L23 24L22 24L22 25L23 25L23 26L22 26L22 29L23 29L23 30L25 30L25 29L24 29L24 28L23 28L23 27L24 27L24 25L23 25L23 24L25 24L25 23L26 23L26 21L27 21L27 20L28 20L28 19L27 19L27 17L26 17L26 20L25 20L25 21L24 21L24 20L23 20L23 21L21 21L21 19L22 19L22 18L21 18L21 17L17 17L17 18L19 18L19 19L18 19L18 20L17 20L17 19L16 19L16 18L15 18L15 17L14 17L14 16L16 16L16 15L17 15L17 14L18 14L18 16L20 16L20 15L22 15L22 17L24 17L24 18L23 18L23 19L25 19L25 16L29 16L29 14L28 14L28 15L27 15L27 14L26 14L26 15L25 15L25 16L23 16L23 14L19 14L19 13L20 13L20 11L21 11L21 9L20 9L20 8L21 8L21 7L22 7L22 6L21 6L21 7L20 7L20 6L19 6L19 5L18 5L18 3ZM17 5L17 6L16 6L16 7L17 7L17 8L18 8L18 9L19 9L19 8L20 8L20 7L19 7L19 6L18 6L18 5ZM9 6L9 7L10 7L10 6ZM17 6L17 7L18 7L18 6ZM8 8L8 9L9 9L9 10L10 10L10 8ZM4 11L4 12L3 12L3 13L4 13L4 15L6 15L6 16L5 16L5 17L4 17L4 16L3 16L3 14L2 14L2 16L3 16L3 18L7 18L7 17L8 17L8 16L12 16L12 14L9 14L9 15L8 15L8 13L6 13L6 14L5 14L5 11ZM6 11L6 12L7 12L7 11ZM22 12L22 13L23 13L23 12ZM6 14L6 15L7 15L7 16L6 16L6 17L7 17L7 16L8 16L8 15L7 15L7 14ZM32 16L32 17L33 17L33 16ZM13 17L13 19L11 19L11 20L13 20L13 19L15 19L15 20L16 20L16 19L15 19L15 18L14 18L14 17ZM20 18L20 19L19 19L19 20L20 20L20 19L21 19L21 18ZM31 18L31 19L32 19L32 20L33 20L33 18ZM4 19L4 20L7 20L7 19ZM16 21L16 22L17 22L17 23L18 23L18 24L19 24L19 23L21 23L21 21L20 21L20 22L19 22L19 21ZM29 21L29 22L31 22L31 23L33 23L33 21ZM3 23L3 24L4 24L4 23ZM25 25L25 28L28 28L28 25ZM26 26L26 27L27 27L27 26ZM14 28L14 29L15 29L15 28ZM26 30L26 32L28 32L28 31L27 31L27 30ZM29 30L29 31L30 31L30 30ZM13 32L13 33L14 33L14 32ZM31 32L31 33L32 33L32 32ZM0 0L0 7L7 7L7 0ZM1 1L1 6L6 6L6 1ZM2 2L2 5L5 5L5 2ZM26 0L26 7L33 7L33 0ZM27 1L27 6L32 6L32 1ZM28 2L28 5L31 5L31 2ZM0 26L0 33L7 33L7 26ZM1 27L1 32L6 32L6 27ZM2 28L2 31L5 31L5 28Z" fill="#000000"/></g></g></svg>
