<?xml version="1.0" encoding="UTF-8"?>
<svg xmlns="http://www.w3.org/2000/svg" version="1.1" width="400" height="400" viewBox="0 0 400 400"><rect x="0" y="0" width="400" height="400" fill="#fefefe"/><g transform="scale(9.756)"><g transform="translate(4,4)"><path fill-rule="evenodd" d="M8 0L8 4L9 4L9 5L8 5L8 7L9 7L9 8L10 8L10 7L11 7L11 5L12 5L12 7L13 7L13 5L14 5L14 7L15 7L15 8L14 8L14 9L13 9L13 8L12 8L12 9L11 9L11 11L10 11L10 13L11 13L11 14L8 14L8 11L9 11L9 10L10 10L10 9L9 9L9 10L8 10L8 11L7 11L7 10L6 10L6 11L7 11L7 12L6 12L6 13L3 13L3 12L4 12L4 11L3 11L3 10L5 10L5 9L7 9L7 8L4 8L4 9L3 9L3 10L2 10L2 8L0 8L0 9L1 9L1 10L0 10L0 11L1 11L1 12L0 12L0 13L1 13L1 12L2 12L2 13L3 13L3 15L4 15L4 14L6 14L6 15L7 15L7 16L6 16L6 17L5 17L5 16L4 16L4 19L5 19L5 20L3 20L3 22L2 22L2 20L1 20L1 19L3 19L3 18L2 18L2 17L3 17L3 16L2 16L2 17L1 17L1 18L0 18L0 20L1 20L1 21L0 21L0 22L2 22L2 23L3 23L3 24L0 24L0 25L5 25L5 24L6 24L6 25L7 25L7 24L8 24L8 26L9 26L9 27L8 27L8 29L9 29L9 31L8 31L8 33L9 33L9 32L10 32L10 29L11 29L11 32L12 32L12 31L13 31L13 30L14 30L14 29L15 29L15 32L14 32L14 33L15 33L15 32L16 32L16 31L17 31L17 33L18 33L18 32L19 32L19 33L20 33L20 32L19 32L19 30L17 30L17 29L18 29L18 27L19 27L19 26L17 26L17 25L18 25L18 24L19 24L19 25L22 25L22 26L20 26L20 27L21 27L21 28L19 28L19 29L22 29L22 30L20 30L20 31L21 31L21 33L22 33L22 32L23 32L23 30L25 30L25 29L26 29L26 31L24 31L24 33L26 33L26 31L27 31L27 33L28 33L28 31L29 31L29 33L30 33L30 30L31 30L31 31L32 31L32 30L33 30L33 29L29 29L29 27L31 27L31 28L32 28L32 26L31 26L31 25L32 25L32 24L33 24L33 23L31 23L31 22L32 22L32 21L33 21L33 19L32 19L32 18L31 18L31 17L30 17L30 18L26 18L26 17L29 17L29 16L30 16L30 14L31 14L31 16L32 16L32 17L33 17L33 16L32 16L32 14L31 14L31 13L29 13L29 12L28 12L28 11L29 11L29 10L28 10L28 11L26 11L26 12L25 12L25 11L24 11L24 10L25 10L25 9L24 9L24 7L25 7L25 2L23 2L23 1L25 1L25 0L23 0L23 1L22 1L22 0L21 0L21 1L19 1L19 0L18 0L18 1L17 1L17 2L16 2L16 3L15 3L15 4L14 4L14 3L12 3L12 4L9 4L9 3L11 3L11 2L9 2L9 0ZM10 0L10 1L12 1L12 2L13 2L13 0ZM15 0L15 1L14 1L14 2L15 2L15 1L16 1L16 0ZM18 1L18 3L17 3L17 4L16 4L16 5L15 5L15 7L16 7L16 8L15 8L15 9L14 9L14 11L13 11L13 10L12 10L12 11L11 11L11 13L12 13L12 15L11 15L11 16L10 16L10 17L9 17L9 15L8 15L8 16L7 16L7 17L6 17L6 18L5 18L5 19L6 19L6 20L7 20L7 19L6 19L6 18L7 18L7 17L8 17L8 18L9 18L9 23L10 23L10 24L9 24L9 25L10 25L10 26L11 26L11 25L12 25L12 24L13 24L13 25L14 25L14 26L13 26L13 28L11 28L11 29L14 29L14 28L15 28L15 29L17 29L17 26L16 26L16 28L15 28L15 25L14 25L14 22L15 22L15 21L16 21L16 20L17 20L17 19L18 19L18 21L17 21L17 23L15 23L15 24L16 24L16 25L17 25L17 23L19 23L19 24L21 24L21 23L20 23L20 21L21 21L21 19L20 19L20 18L21 18L21 17L19 17L19 18L18 18L18 17L17 17L17 19L16 19L16 20L15 20L15 18L16 18L16 17L14 17L14 16L17 16L17 14L16 14L16 15L15 15L15 13L14 13L14 12L15 12L15 9L17 9L17 10L16 10L16 11L18 11L18 12L20 12L20 13L19 13L19 15L18 15L18 16L20 16L20 13L21 13L21 15L23 15L23 13L24 13L24 15L25 15L25 16L22 16L22 17L25 17L25 16L28 16L28 14L29 14L29 13L24 13L24 11L22 11L22 10L23 10L23 9L21 9L21 7L22 7L22 8L23 8L23 7L24 7L24 5L21 5L21 4L22 4L22 3L23 3L23 2L22 2L22 1L21 1L21 2L20 2L20 3L19 3L19 1ZM21 2L21 3L22 3L22 2ZM17 4L17 5L18 5L18 7L17 7L17 6L16 6L16 7L17 7L17 9L18 9L18 10L19 10L19 9L20 9L20 11L21 11L21 13L23 13L23 12L22 12L22 11L21 11L21 9L20 9L20 8L18 8L18 7L19 7L19 6L20 6L20 7L21 7L21 6L20 6L20 5L18 5L18 4ZM9 5L9 7L10 7L10 5ZM22 6L22 7L23 7L23 6ZM27 8L27 9L28 9L28 8ZM29 8L29 9L31 9L31 12L32 12L32 13L33 13L33 12L32 12L32 9L33 9L33 8ZM1 10L1 11L2 11L2 12L3 12L3 11L2 11L2 10ZM12 11L12 12L13 12L13 11ZM16 12L16 13L17 13L17 12ZM6 13L6 14L7 14L7 13ZM13 13L13 14L14 14L14 13ZM0 14L0 16L1 16L1 15L2 15L2 14ZM12 16L12 17L11 17L11 18L10 18L10 19L11 19L11 21L10 21L10 23L12 23L12 22L14 22L14 21L15 21L15 20L14 20L14 21L13 21L13 19L14 19L14 17L13 17L13 16ZM12 18L12 19L13 19L13 18ZM26 19L26 20L27 20L27 21L25 21L25 22L24 22L24 23L23 23L23 20L22 20L22 25L23 25L23 26L22 26L22 29L24 29L24 23L26 23L26 24L28 24L28 23L29 23L29 22L31 22L31 20L32 20L32 19L30 19L30 21L28 21L28 19ZM4 21L4 22L3 22L3 23L4 23L4 22L5 22L5 23L6 23L6 24L7 24L7 23L8 23L8 21L6 21L6 22L5 22L5 21ZM27 21L27 23L28 23L28 21ZM6 22L6 23L7 23L7 22ZM30 23L30 24L29 24L29 26L30 26L30 25L31 25L31 23ZM25 25L25 28L28 28L28 25ZM26 26L26 27L27 27L27 26ZM9 28L9 29L10 29L10 28ZM27 29L27 31L28 31L28 29ZM32 32L32 33L33 33L33 32ZM0 0L0 7L7 7L7 0ZM1 1L1 6L6 6L6 1ZM2 2L2 5L5 5L5 2ZM26 0L26 7L33 7L33 0ZM27 1L27 6L32 6L32 1ZM28 2L28 5L31 5L31 2ZM0 26L0 33L7 33L7 26ZM1 27L1 32L6 32L6 27ZM2 28L2 31L5 31L5 28Z" fill="#000000"/></g></g></svg>
