<?xml version="1.0" encoding="UTF-8"?>
<svg xmlns="http://www.w3.org/2000/svg" version="1.1" width="400" height="400" viewBox="0 0 400 400"><rect x="0" y="0" width="400" height="400" fill="#fefefe"/><g transform="scale(9.756)"><g transform="translate(4,4)"><path fill-rule="evenodd" d="M8 0L8 1L9 1L9 2L10 2L10 3L11 3L11 1L13 1L13 0L11 0L11 1L9 1L9 0ZM16 0L16 1L17 1L17 0ZM20 0L20 1L18 1L18 2L19 2L19 3L17 3L17 2L16 2L16 4L17 4L17 5L16 5L16 8L15 8L15 6L14 6L14 5L15 5L15 3L14 3L14 2L15 2L15 1L14 1L14 2L12 2L12 4L11 4L11 5L10 5L10 4L9 4L9 5L10 5L10 8L9 8L9 6L8 6L8 8L9 8L9 10L10 10L10 11L9 11L9 12L8 12L8 11L7 11L7 10L6 10L6 9L7 9L7 8L6 8L6 9L5 9L5 8L3 8L3 11L0 11L0 13L1 13L1 12L3 12L3 11L4 11L4 12L5 12L5 11L7 11L7 12L6 12L6 13L4 13L4 14L3 14L3 15L4 15L4 16L3 16L3 17L4 17L4 18L3 18L3 19L2 19L2 17L0 17L0 20L1 20L1 21L0 21L0 25L3 25L3 24L5 24L5 23L3 23L3 24L1 24L1 21L2 21L2 22L6 22L6 23L7 23L7 24L6 24L6 25L8 25L8 26L9 26L9 28L8 28L8 30L9 30L9 31L8 31L8 33L9 33L9 32L10 32L10 33L11 33L11 32L15 32L15 33L18 33L18 32L17 32L17 31L18 31L18 29L17 29L17 30L16 30L16 28L15 28L15 27L16 27L16 26L17 26L17 24L18 24L18 23L19 23L19 22L21 22L21 23L25 23L25 24L23 24L23 27L22 27L22 30L23 30L23 32L24 32L24 33L25 33L25 32L26 32L26 33L27 33L27 32L28 32L28 33L30 33L30 32L33 32L33 30L32 30L32 31L31 31L31 29L33 29L33 28L32 28L32 27L29 27L29 25L30 25L30 26L31 26L31 25L32 25L32 24L33 24L33 22L32 22L32 23L30 23L30 22L29 22L29 21L30 21L30 20L31 20L31 21L32 21L32 19L33 19L33 15L31 15L31 13L30 13L30 12L32 12L32 13L33 13L33 12L32 12L32 11L33 11L33 10L30 10L30 12L29 12L29 11L28 11L28 10L29 10L29 9L28 9L28 10L26 10L26 9L27 9L27 8L26 8L26 9L23 9L23 8L25 8L25 6L24 6L24 5L25 5L25 4L24 4L24 5L23 5L23 3L22 3L22 2L23 2L23 0L22 0L22 2L21 2L21 0ZM24 0L24 2L25 2L25 0ZM20 2L20 4L21 4L21 8L20 8L20 5L19 5L19 4L18 4L18 6L17 6L17 8L18 8L18 6L19 6L19 8L20 8L20 10L19 10L19 12L20 12L20 11L21 11L21 13L19 13L19 14L16 14L16 16L15 16L15 18L17 18L17 20L16 20L16 19L15 19L15 20L13 20L13 19L14 19L14 17L13 17L13 18L12 18L12 19L11 19L11 20L12 20L12 22L13 22L13 25L14 25L14 27L13 27L13 26L11 26L11 25L10 25L10 23L11 23L11 24L12 24L12 23L11 23L11 21L10 21L10 20L8 20L8 19L10 19L10 17L12 17L12 16L14 16L14 15L15 15L15 13L16 13L16 11L13 11L13 10L15 10L15 8L13 8L13 7L14 7L14 6L13 6L13 7L12 7L12 5L14 5L14 4L12 4L12 5L11 5L11 7L12 7L12 9L10 9L10 10L12 10L12 11L13 11L13 13L11 13L11 12L10 12L10 14L9 14L9 13L8 13L8 12L7 12L7 13L6 13L6 14L4 14L4 15L5 15L5 16L4 16L4 17L6 17L6 18L7 18L7 17L9 17L9 18L8 18L8 19L3 19L3 21L6 21L6 22L7 22L7 23L8 23L8 25L9 25L9 26L11 26L11 27L13 27L13 28L12 28L12 29L11 29L11 28L10 28L10 29L9 29L9 30L10 30L10 31L11 31L11 30L12 30L12 31L13 31L13 30L14 30L14 29L13 29L13 28L14 28L14 27L15 27L15 25L16 25L16 24L17 24L17 23L18 23L18 22L19 22L19 21L20 21L20 20L18 20L18 18L17 18L17 17L18 17L18 15L19 15L19 14L20 14L20 16L19 16L19 17L20 17L20 19L21 19L21 21L22 21L22 20L26 20L26 22L28 22L28 23L26 23L26 24L28 24L28 23L29 23L29 22L28 22L28 21L29 21L29 20L30 20L30 19L32 19L32 18L30 18L30 19L28 19L28 16L27 16L27 18L26 18L26 15L29 15L29 16L30 16L30 17L31 17L31 16L30 16L30 14L29 14L29 12L28 12L28 14L27 14L27 13L26 13L26 12L27 12L27 11L26 11L26 12L25 12L25 11L23 11L23 12L22 12L22 10L23 10L23 9L22 9L22 8L23 8L23 7L24 7L24 6L23 6L23 7L22 7L22 4L21 4L21 2ZM0 8L0 9L2 9L2 8ZM32 8L32 9L33 9L33 8ZM4 9L4 11L5 11L5 9ZM12 9L12 10L13 10L13 9ZM16 9L16 10L17 10L17 11L18 11L18 9ZM14 12L14 13L13 13L13 14L11 14L11 16L12 16L12 15L14 15L14 13L15 13L15 12ZM17 12L17 13L18 13L18 12ZM23 12L23 14L21 14L21 15L23 15L23 14L24 14L24 15L25 15L25 14L26 14L26 13L24 13L24 12ZM0 14L0 16L1 16L1 15L2 15L2 14ZM6 14L6 15L7 15L7 16L6 16L6 17L7 17L7 16L9 16L9 17L10 17L10 15L9 15L9 14L8 14L8 15L7 15L7 14ZM16 16L16 17L17 17L17 16ZM23 16L23 17L24 17L24 18L23 18L23 19L24 19L24 18L25 18L25 17L24 17L24 16ZM21 18L21 19L22 19L22 18ZM1 19L1 20L2 20L2 19ZM26 19L26 20L27 20L27 19ZM6 20L6 21L7 21L7 20ZM15 20L15 23L14 23L14 25L15 25L15 24L16 24L16 20ZM17 20L17 21L18 21L18 20ZM8 21L8 23L10 23L10 21ZM19 24L19 25L20 25L20 26L19 26L19 27L18 27L18 28L21 28L21 27L20 27L20 26L21 26L21 25L20 25L20 24ZM30 24L30 25L31 25L31 24ZM25 25L25 28L28 28L28 25ZM26 26L26 27L27 27L27 26ZM23 27L23 28L24 28L24 27ZM30 28L30 29L28 29L28 30L30 30L30 29L31 29L31 28ZM12 29L12 30L13 30L13 29ZM19 29L19 31L20 31L20 32L19 32L19 33L20 33L20 32L21 32L21 31L20 31L20 29ZM26 29L26 31L27 31L27 29ZM15 31L15 32L16 32L16 31ZM24 31L24 32L25 32L25 31ZM29 31L29 32L30 32L30 31ZM0 0L0 7L7 7L7 0ZM1 1L1 6L6 6L6 1ZM2 2L2 5L5 5L5 2ZM26 0L26 7L33 7L33 0ZM27 1L27 6L32 6L32 1ZM28 2L28 5L31 5L31 2ZM0 26L0 33L7 33L7 26ZM1 27L1 32L6 32L6 27ZM2 28L2 31L5 31L5 28Z" fill="#000000"/></g></g></svg>
