<?xml version="1.0" encoding="UTF-8"?>
<svg xmlns="http://www.w3.org/2000/svg" version="1.1" width="400" height="400" viewBox="0 0 400 400"><rect x="0" y="0" width="400" height="400" fill="#fefefe"/><g transform="scale(9.756)"><g transform="translate(4,4)"><path fill-rule="evenodd" d="M8 0L8 4L9 4L9 5L8 5L8 7L9 7L9 8L10 8L10 7L11 7L11 5L12 5L12 7L13 7L13 5L14 5L14 7L15 7L15 8L14 8L14 9L13 9L13 8L12 8L12 9L11 9L11 11L10 11L10 13L11 13L11 15L10 15L10 14L9 14L9 13L7 13L7 12L8 12L8 11L9 11L9 10L10 10L10 9L9 9L9 10L6 10L6 9L7 9L7 8L4 8L4 9L2 9L2 8L0 8L0 10L2 10L2 11L0 11L0 14L1 14L1 16L0 16L0 17L1 17L1 18L0 18L0 22L1 22L1 21L3 21L3 22L2 22L2 24L0 24L0 25L2 25L2 24L3 24L3 25L7 25L7 24L6 24L6 23L8 23L8 24L9 24L9 23L12 23L12 22L14 22L14 25L13 25L13 24L12 24L12 25L10 25L10 26L9 26L9 25L8 25L8 26L9 26L9 27L8 27L8 29L9 29L9 28L11 28L11 27L12 27L12 26L14 26L14 25L15 25L15 28L14 28L14 29L10 29L10 30L9 30L9 31L8 31L8 33L11 33L11 32L12 32L12 30L14 30L14 29L15 29L15 32L14 32L14 33L15 33L15 32L16 32L16 31L17 31L17 33L18 33L18 32L19 32L19 33L20 33L20 31L19 31L19 30L17 30L17 29L18 29L18 27L19 27L19 26L17 26L17 25L18 25L18 24L19 24L19 25L22 25L22 26L21 26L21 27L20 27L20 28L19 28L19 29L21 29L21 33L22 33L22 32L23 32L23 31L24 31L24 33L25 33L25 32L26 32L26 31L29 31L29 33L30 33L30 30L31 30L31 31L32 31L32 30L33 30L33 29L29 29L29 27L31 27L31 28L32 28L32 26L31 26L31 25L32 25L32 24L33 24L33 23L31 23L31 22L32 22L32 21L33 21L33 19L32 19L32 18L31 18L31 17L30 17L30 18L29 18L29 19L27 19L27 18L28 18L28 17L29 17L29 16L30 16L30 14L31 14L31 16L32 16L32 17L33 17L33 16L32 16L32 14L31 14L31 13L29 13L29 12L28 12L28 11L29 11L29 10L28 10L28 8L27 8L27 10L28 10L28 11L24 11L24 9L25 9L25 10L26 10L26 9L25 9L25 8L24 8L24 9L23 9L23 6L22 6L22 5L19 5L19 6L18 6L18 7L17 7L17 6L16 6L16 7L15 7L15 5L16 5L16 4L17 4L17 3L18 3L18 2L20 2L20 3L22 3L22 2L23 2L23 5L24 5L24 7L25 7L25 3L24 3L24 2L23 2L23 1L25 1L25 0L23 0L23 1L22 1L22 0L21 0L21 1L19 1L19 0L18 0L18 1L17 1L17 2L16 2L16 3L15 3L15 4L14 4L14 3L12 3L12 4L9 4L9 3L11 3L11 2L9 2L9 0ZM10 0L10 1L12 1L12 2L13 2L13 0ZM15 0L15 1L14 1L14 2L15 2L15 1L16 1L16 0ZM21 1L21 2L22 2L22 1ZM9 5L9 7L10 7L10 5ZM19 6L19 7L18 7L18 8L19 8L19 7L20 7L20 6ZM21 6L21 7L22 7L22 6ZM16 7L16 8L15 8L15 9L14 9L14 11L13 11L13 10L12 10L12 11L11 11L11 13L12 13L12 15L11 15L11 17L12 17L12 16L13 16L13 17L14 17L14 19L13 19L13 18L12 18L12 19L13 19L13 21L14 21L14 22L15 22L15 21L16 21L16 20L17 20L17 19L18 19L18 21L17 21L17 23L15 23L15 24L16 24L16 25L17 25L17 23L21 23L21 22L20 22L20 21L21 21L21 20L20 20L20 21L19 21L19 19L22 19L22 18L23 18L23 17L25 17L25 16L26 16L26 15L27 15L27 17L26 17L26 18L27 18L27 17L28 17L28 15L29 15L29 13L26 13L26 12L24 12L24 11L23 11L23 9L19 9L19 10L18 10L18 9L17 9L17 7ZM29 8L29 9L31 9L31 12L32 12L32 13L33 13L33 12L32 12L32 9L33 9L33 8ZM15 9L15 12L14 12L14 13L13 13L13 14L14 14L14 13L15 13L15 15L16 15L16 14L17 14L17 16L14 16L14 17L16 17L16 18L15 18L15 20L14 20L14 21L15 21L15 20L16 20L16 19L17 19L17 17L18 17L18 18L19 18L19 17L20 17L20 18L21 18L21 17L23 17L23 16L25 16L25 15L26 15L26 13L22 13L22 10L21 10L21 12L20 12L20 11L19 11L19 12L18 12L18 11L16 11L16 10L17 10L17 9ZM4 10L4 12L3 12L3 11L2 11L2 13L1 13L1 14L4 14L4 13L6 13L6 14L5 14L5 15L3 15L3 16L5 16L5 19L6 19L6 20L7 20L7 21L6 21L6 22L4 22L4 23L3 23L3 24L4 24L4 23L6 23L6 22L8 22L8 19L10 19L10 20L11 20L11 19L10 19L10 17L9 17L9 16L10 16L10 15L9 15L9 16L7 16L7 15L6 15L6 14L7 14L7 13L6 13L6 12L7 12L7 11L6 11L6 12L5 12L5 10ZM12 11L12 12L13 12L13 11ZM16 12L16 13L17 13L17 12ZM19 13L19 15L18 15L18 16L19 16L19 15L20 15L20 17L21 17L21 13ZM24 14L24 15L25 15L25 14ZM27 14L27 15L28 15L28 14ZM5 15L5 16L6 16L6 17L7 17L7 16L6 16L6 15ZM3 17L3 18L2 18L2 19L1 19L1 20L3 20L3 21L5 21L5 20L4 20L4 19L3 19L3 18L4 18L4 17ZM8 17L8 18L9 18L9 17ZM6 18L6 19L7 19L7 18ZM26 19L26 20L27 20L27 19ZM30 19L30 21L25 21L25 22L24 22L24 23L26 23L26 24L27 24L27 23L26 23L26 22L28 22L28 23L29 23L29 22L31 22L31 20L32 20L32 19ZM22 20L22 25L23 25L23 27L22 27L22 29L24 29L24 24L23 24L23 20ZM9 21L9 22L11 22L11 21ZM30 23L30 24L29 24L29 26L30 26L30 25L31 25L31 23ZM25 25L25 28L28 28L28 25ZM16 26L16 28L15 28L15 29L17 29L17 26ZM26 26L26 27L27 27L27 26ZM24 30L24 31L25 31L25 30ZM9 31L9 32L11 32L11 31ZM27 32L27 33L28 33L28 32ZM32 32L32 33L33 33L33 32ZM0 0L0 7L7 7L7 0ZM1 1L1 6L6 6L6 1ZM2 2L2 5L5 5L5 2ZM26 0L26 7L33 7L33 0ZM27 1L27 6L32 6L32 1ZM28 2L28 5L31 5L31 2ZM0 26L0 33L7 33L7 26ZM1 27L1 32L6 32L6 27ZM2 28L2 31L5 31L5 28Z" fill="#000000"/></g></g></svg>
