<?xml version="1.0" encoding="UTF-8"?>
<svg xmlns="http://www.w3.org/2000/svg" version="1.1" width="400" height="400" viewBox="0 0 400 400"><rect x="0" y="0" width="400" height="400" fill="#fefefe"/><g transform="scale(9.756)"><g transform="translate(4,4)"><path fill-rule="evenodd" d="M11 0L11 1L8 1L8 3L9 3L9 2L10 2L10 4L8 4L8 8L6 8L6 9L4 9L4 8L3 8L3 9L2 9L2 8L0 8L0 14L1 14L1 16L0 16L0 17L1 17L1 16L2 16L2 19L1 19L1 20L2 20L2 22L0 22L0 23L1 23L1 24L0 24L0 25L1 25L1 24L4 24L4 25L7 25L7 24L8 24L8 27L9 27L9 28L10 28L10 29L8 29L8 30L10 30L10 29L11 29L11 30L12 30L12 29L11 29L11 28L12 28L12 27L13 27L13 28L14 28L14 29L13 29L13 30L14 30L14 32L13 32L13 33L14 33L14 32L16 32L16 33L17 33L17 32L19 32L19 31L17 31L17 29L18 29L18 30L19 30L19 29L20 29L20 30L21 30L21 33L22 33L22 32L23 32L23 33L26 33L26 31L25 31L25 30L24 30L24 29L26 29L26 30L27 30L27 29L28 29L28 32L30 32L30 31L33 31L33 29L31 29L31 30L30 30L30 29L29 29L29 27L30 27L30 25L29 25L29 24L28 24L28 23L27 23L27 22L28 22L28 20L30 20L30 19L29 19L29 18L28 18L28 17L29 17L29 16L30 16L30 15L32 15L32 14L33 14L33 9L32 9L32 8L30 8L30 9L29 9L29 8L26 8L26 9L25 9L25 10L24 10L24 11L27 11L27 12L25 12L25 13L26 13L26 14L22 14L22 13L24 13L24 12L23 12L23 11L20 11L20 10L18 10L18 9L19 9L19 8L20 8L20 9L22 9L22 10L23 10L23 9L24 9L24 8L25 8L25 2L24 2L24 1L25 1L25 0L21 0L21 2L20 2L20 3L19 3L19 1L20 1L20 0L18 0L18 2L17 2L17 0L15 0L15 4L13 4L13 2L14 2L14 0ZM12 1L12 2L11 2L11 4L12 4L12 2L13 2L13 1ZM22 1L22 2L21 2L21 3L20 3L20 4L19 4L19 5L20 5L20 6L19 6L19 7L18 7L18 6L17 6L17 5L18 5L18 3L16 3L16 6L15 6L15 7L14 7L14 5L11 5L11 7L10 7L10 6L9 6L9 7L10 7L10 8L8 8L8 9L6 9L6 10L5 10L5 11L4 11L4 9L3 9L3 10L2 10L2 9L1 9L1 11L3 11L3 13L4 13L4 14L5 14L5 15L3 15L3 14L2 14L2 16L3 16L3 19L2 19L2 20L3 20L3 22L2 22L2 23L3 23L3 22L4 22L4 21L6 21L6 22L8 22L8 20L9 20L9 21L10 21L10 22L11 22L11 23L10 23L10 24L9 24L9 23L8 23L8 24L9 24L9 27L10 27L10 26L13 26L13 27L14 27L14 28L15 28L15 29L14 29L14 30L15 30L15 31L16 31L16 32L17 32L17 31L16 31L16 29L17 29L17 28L15 28L15 27L17 27L17 25L15 25L15 26L14 26L14 25L12 25L12 24L13 24L13 23L12 23L12 22L13 22L13 21L12 21L12 20L11 20L11 19L12 19L12 18L13 18L13 17L14 17L14 18L15 18L15 19L13 19L13 20L14 20L14 21L15 21L15 22L14 22L14 24L16 24L16 23L17 23L17 24L18 24L18 25L19 25L19 24L18 24L18 23L17 23L17 22L16 22L16 21L19 21L19 22L20 22L20 21L21 21L21 23L22 23L22 22L23 22L23 25L21 25L21 24L20 24L20 26L18 26L18 29L19 29L19 28L20 28L20 29L21 29L21 28L20 28L20 27L22 27L22 26L23 26L23 27L24 27L24 22L26 22L26 21L27 21L27 20L28 20L28 18L27 18L27 17L26 17L26 20L25 20L25 21L24 21L24 20L23 20L23 21L21 21L21 18L20 18L20 17L21 17L21 15L22 15L22 16L23 16L23 17L22 17L22 18L23 18L23 19L25 19L25 16L23 16L23 15L22 15L22 14L21 14L21 12L20 12L20 14L19 14L19 13L15 13L15 14L14 14L14 13L13 13L13 12L11 12L11 11L12 11L12 10L13 10L13 11L14 11L14 10L13 10L13 9L10 9L10 8L14 8L14 9L15 9L15 11L16 11L16 12L19 12L19 11L16 11L16 8L17 8L17 9L18 9L18 8L19 8L19 7L20 7L20 6L21 6L21 7L22 7L22 8L23 8L23 7L24 7L24 5L23 5L23 4L22 4L22 3L23 3L23 1ZM21 5L21 6L22 6L22 7L23 7L23 6L22 6L22 5ZM12 6L12 7L13 7L13 6ZM16 6L16 7L15 7L15 8L16 8L16 7L17 7L17 8L18 8L18 7L17 7L17 6ZM8 9L8 10L6 10L6 11L8 11L8 10L9 10L9 11L11 11L11 10L9 10L9 9ZM27 9L27 10L28 10L28 11L29 11L29 9ZM31 10L31 11L30 11L30 12L28 12L28 13L29 13L29 14L31 14L31 12L32 12L32 10ZM5 12L5 13L7 13L7 12ZM8 12L8 13L9 13L9 14L6 14L6 15L8 15L8 16L6 16L6 17L4 17L4 19L3 19L3 20L4 20L4 19L5 19L5 20L6 20L6 21L7 21L7 20L8 20L8 17L9 17L9 19L10 19L10 18L12 18L12 17L13 17L13 16L14 16L14 17L15 17L15 18L16 18L16 19L15 19L15 20L16 20L16 19L17 19L17 20L18 20L18 19L19 19L19 18L17 18L17 17L19 17L19 16L20 16L20 15L19 15L19 16L18 16L18 14L17 14L17 15L16 15L16 16L14 16L14 15L13 15L13 13L12 13L12 14L11 14L11 13L9 13L9 12ZM26 14L26 15L27 15L27 14ZM9 15L9 17L12 17L12 16L13 16L13 15ZM28 15L28 16L29 16L29 15ZM32 16L32 17L33 17L33 16ZM6 17L6 18L5 18L5 19L6 19L6 20L7 20L7 19L6 19L6 18L7 18L7 17ZM23 17L23 18L24 18L24 17ZM31 18L31 19L32 19L32 20L33 20L33 18ZM29 21L29 22L31 22L31 23L33 23L33 21ZM6 23L6 24L7 24L7 23ZM11 23L11 24L12 24L12 23ZM25 25L25 28L28 28L28 25ZM31 25L31 27L32 27L32 26L33 26L33 25ZM26 26L26 27L27 27L27 26ZM22 28L22 29L24 29L24 28ZM29 30L29 31L30 31L30 30ZM8 31L8 33L9 33L9 32L10 32L10 33L12 33L12 32L11 32L11 31ZM23 31L23 32L24 32L24 31ZM31 32L31 33L32 33L32 32ZM0 0L0 7L7 7L7 0ZM1 1L1 6L6 6L6 1ZM2 2L2 5L5 5L5 2ZM26 0L26 7L33 7L33 0ZM27 1L27 6L32 6L32 1ZM28 2L28 5L31 5L31 2ZM0 26L0 33L7 33L7 26ZM1 27L1 32L6 32L6 27ZM2 28L2 31L5 31L5 28Z" fill="#000000"/></g></g></svg>
