<?xml version="1.0" encoding="UTF-8"?>
<svg xmlns="http://www.w3.org/2000/svg" version="1.1" width="400" height="400" viewBox="0 0 400 400"><rect x="0" y="0" width="400" height="400" fill="#fefefe"/><g transform="scale(9.756)"><g transform="translate(4,4)"><path fill-rule="evenodd" d="M11 0L11 1L8 1L8 3L9 3L9 2L10 2L10 4L8 4L8 8L6 8L6 9L8 9L8 10L6 10L6 11L5 11L5 12L4 12L4 13L3 13L3 12L2 12L2 11L3 11L3 10L2 10L2 8L0 8L0 9L1 9L1 10L2 10L2 11L0 11L0 12L2 12L2 13L0 13L0 18L1 18L1 19L0 19L0 20L1 20L1 21L2 21L2 22L0 22L0 23L1 23L1 24L0 24L0 25L1 25L1 24L3 24L3 25L5 25L5 23L3 23L3 22L4 22L4 21L10 21L10 22L11 22L11 20L12 20L12 21L13 21L13 22L12 22L12 23L10 23L10 25L9 25L9 24L8 24L8 23L9 23L9 22L8 22L8 23L7 23L7 22L6 22L6 23L7 23L7 24L6 24L6 25L8 25L8 27L9 27L9 28L10 28L10 29L8 29L8 30L9 30L9 31L8 31L8 33L12 33L12 32L13 32L13 33L14 33L14 32L16 32L16 33L17 33L17 32L19 32L19 31L17 31L17 29L18 29L18 30L19 30L19 29L18 29L18 26L20 26L20 25L18 25L18 24L19 24L19 23L20 23L20 24L21 24L21 29L20 29L20 31L21 31L21 32L20 32L20 33L25 33L25 30L24 30L24 32L22 32L22 31L23 31L23 30L22 30L22 29L23 29L23 28L24 28L24 29L26 29L26 30L27 30L27 29L28 29L28 32L30 32L30 31L33 31L33 29L31 29L31 30L30 30L30 29L29 29L29 27L30 27L30 25L29 25L29 24L27 24L27 21L26 21L26 22L24 22L24 23L26 23L26 24L24 24L24 27L22 27L22 25L23 25L23 22L22 22L22 23L20 23L20 22L21 22L21 21L23 21L23 20L24 20L24 21L25 21L25 20L26 20L26 17L27 17L27 18L28 18L28 20L30 20L30 19L29 19L29 18L28 18L28 17L29 17L29 16L30 16L30 15L32 15L32 14L33 14L33 9L32 9L32 8L30 8L30 9L29 9L29 8L26 8L26 9L25 9L25 11L23 11L23 9L24 9L24 8L25 8L25 6L24 6L24 8L22 8L22 7L23 7L23 6L22 6L22 5L21 5L21 3L20 3L20 5L19 5L19 3L18 3L18 1L17 1L17 0L15 0L15 4L13 4L13 2L14 2L14 0ZM19 0L19 1L21 1L21 2L22 2L22 1L23 1L23 2L24 2L24 3L22 3L22 4L23 4L23 5L24 5L24 3L25 3L25 0ZM12 1L12 2L11 2L11 4L12 4L12 2L13 2L13 1ZM16 3L16 6L15 6L15 7L14 7L14 5L11 5L11 7L10 7L10 6L9 6L9 7L10 7L10 8L8 8L8 9L9 9L9 10L11 10L11 11L9 11L9 12L8 12L8 15L6 15L6 14L7 14L7 13L6 13L6 12L7 12L7 11L6 11L6 12L5 12L5 13L6 13L6 14L4 14L4 15L5 15L5 16L8 16L8 15L9 15L9 13L11 13L11 14L12 14L12 13L13 13L13 15L11 15L11 17L10 17L10 16L9 16L9 17L10 17L10 18L9 18L9 19L8 19L8 18L7 18L7 17L5 17L5 19L6 19L6 20L7 20L7 19L8 19L8 20L11 20L11 19L12 19L12 18L13 18L13 17L14 17L14 18L15 18L15 19L13 19L13 20L14 20L14 21L15 21L15 22L13 22L13 23L12 23L12 24L11 24L11 25L10 25L10 26L9 26L9 27L10 27L10 26L13 26L13 27L12 27L12 28L11 28L11 29L10 29L10 32L11 32L11 31L13 31L13 32L14 32L14 30L15 30L15 31L16 31L16 32L17 32L17 31L16 31L16 29L17 29L17 28L15 28L15 27L17 27L17 25L15 25L15 26L14 26L14 25L12 25L12 24L13 24L13 23L15 23L15 24L16 24L16 23L17 23L17 24L18 24L18 23L17 23L17 22L16 22L16 21L19 21L19 22L20 22L20 21L21 21L21 20L20 20L20 19L22 19L22 20L23 20L23 19L25 19L25 16L29 16L29 15L27 15L27 14L28 14L28 13L29 13L29 14L31 14L31 12L32 12L32 10L31 10L31 11L30 11L30 12L29 12L29 9L27 9L27 11L25 11L25 12L23 12L23 11L22 11L22 12L23 12L23 13L21 13L21 15L22 15L22 17L24 17L24 18L20 18L20 17L21 17L21 16L20 16L20 14L19 14L19 13L20 13L20 11L21 11L21 9L20 9L20 6L19 6L19 7L18 7L18 6L17 6L17 5L18 5L18 3ZM12 6L12 7L13 7L13 6ZM16 6L16 7L15 7L15 8L16 8L16 11L15 11L15 9L14 9L14 8L10 8L10 9L13 9L13 10L12 10L12 11L11 11L11 12L13 12L13 13L14 13L14 14L15 14L15 13L19 13L19 12L16 12L16 11L20 11L20 10L18 10L18 9L19 9L19 8L18 8L18 7L17 7L17 6ZM21 6L21 7L22 7L22 6ZM16 7L16 8L17 8L17 9L18 9L18 8L17 8L17 7ZM3 8L3 9L4 9L4 10L5 10L5 9L4 9L4 8ZM13 10L13 11L14 11L14 10ZM26 12L26 13L25 13L25 14L22 14L22 15L23 15L23 16L25 16L25 15L26 15L26 14L27 14L27 12ZM2 13L2 14L3 14L3 13ZM17 14L17 15L16 15L16 16L14 16L14 15L13 15L13 16L12 16L12 17L11 17L11 18L10 18L10 19L11 19L11 18L12 18L12 17L13 17L13 16L14 16L14 17L15 17L15 18L16 18L16 19L15 19L15 20L16 20L16 19L17 19L17 20L18 20L18 19L19 19L19 18L17 18L17 17L20 17L20 16L18 16L18 14ZM2 15L2 17L1 17L1 18L2 18L2 19L4 19L4 18L3 18L3 15ZM32 16L32 17L33 17L33 16ZM6 18L6 19L7 19L7 18ZM31 18L31 19L32 19L32 20L33 20L33 18ZM3 20L3 21L4 21L4 20ZM29 21L29 22L31 22L31 23L33 23L33 21ZM25 25L25 28L28 28L28 25ZM31 25L31 27L32 27L32 26L33 26L33 25ZM26 26L26 27L27 27L27 26ZM13 27L13 28L14 28L14 29L13 29L13 30L14 30L14 29L15 29L15 28L14 28L14 27ZM19 27L19 28L20 28L20 27ZM11 29L11 30L12 30L12 29ZM21 30L21 31L22 31L22 30ZM29 30L29 31L30 31L30 30ZM26 32L26 33L27 33L27 32ZM31 32L31 33L32 33L32 32ZM0 0L0 7L7 7L7 0ZM1 1L1 6L6 6L6 1ZM2 2L2 5L5 5L5 2ZM26 0L26 7L33 7L33 0ZM27 1L27 6L32 6L32 1ZM28 2L28 5L31 5L31 2ZM0 26L0 33L7 33L7 26ZM1 27L1 32L6 32L6 27ZM2 28L2 31L5 31L5 28Z" fill="#000000"/></g></g></svg>
