<?xml version="1.0" encoding="UTF-8"?>
<svg xmlns="http://www.w3.org/2000/svg" version="1.1" width="400" height="400" viewBox="0 0 400 400"><rect x="0" y="0" width="400" height="400" fill="#fefefe"/><g transform="scale(9.756)"><g transform="translate(4,4)"><path fill-rule="evenodd" d="M8 0L8 4L9 4L9 5L8 5L8 7L9 7L9 8L10 8L10 7L11 7L11 5L12 5L12 7L13 7L13 5L14 5L14 7L15 7L15 8L14 8L14 9L13 9L13 8L12 8L12 9L11 9L11 11L10 11L10 13L11 13L11 14L10 14L10 15L12 15L12 13L11 13L11 11L12 11L12 12L13 12L13 11L14 11L14 9L15 9L15 12L14 12L14 13L13 13L13 14L14 14L14 13L15 13L15 15L16 15L16 14L17 14L17 16L14 16L14 17L13 17L13 16L12 16L12 17L11 17L11 16L8 16L8 17L10 17L10 18L11 18L11 20L9 20L9 21L8 21L8 19L9 19L9 18L8 18L8 19L7 19L7 18L6 18L6 17L7 17L7 16L6 16L6 15L9 15L9 13L8 13L8 14L5 14L5 13L7 13L7 12L8 12L8 11L9 11L9 10L10 10L10 9L8 9L8 10L6 10L6 9L7 9L7 8L4 8L4 9L5 9L5 10L6 10L6 11L5 11L5 12L4 12L4 10L3 10L3 12L2 12L2 10L1 10L1 9L2 9L2 8L0 8L0 11L1 11L1 12L0 12L0 14L2 14L2 15L0 15L0 16L1 16L1 18L0 18L0 20L1 20L1 21L0 21L0 22L1 22L1 21L2 21L2 24L0 24L0 25L4 25L4 24L5 24L5 25L8 25L8 26L9 26L9 27L8 27L8 29L11 29L11 30L9 30L9 31L8 31L8 33L9 33L9 32L11 32L11 31L12 31L12 30L14 30L14 29L15 29L15 31L14 31L14 33L15 33L15 32L16 32L16 31L17 31L17 33L18 33L18 32L19 32L19 30L17 30L17 29L18 29L18 27L19 27L19 29L20 29L20 30L21 30L21 29L22 29L22 31L21 31L21 33L22 33L22 31L23 31L23 33L25 33L25 32L26 32L26 33L27 33L27 32L28 32L28 31L30 31L30 30L31 30L31 31L32 31L32 30L33 30L33 29L29 29L29 27L31 27L31 28L32 28L32 26L31 26L31 25L32 25L32 24L33 24L33 23L31 23L31 22L32 22L32 21L33 21L33 19L32 19L32 18L31 18L31 17L30 17L30 18L29 18L29 19L28 19L28 17L29 17L29 16L30 16L30 14L31 14L31 16L32 16L32 17L33 17L33 16L32 16L32 14L31 14L31 13L29 13L29 10L28 10L28 8L27 8L27 11L28 11L28 13L27 13L27 12L26 12L26 9L25 9L25 8L24 8L24 7L25 7L25 6L24 6L24 7L23 7L23 6L22 6L22 5L19 5L19 6L18 6L18 7L17 7L17 6L16 6L16 7L15 7L15 5L16 5L16 4L17 4L17 3L19 3L19 2L20 2L20 3L22 3L22 2L23 2L23 1L25 1L25 0L23 0L23 1L22 1L22 0L20 0L20 1L19 1L19 2L16 2L16 3L15 3L15 4L14 4L14 3L12 3L12 4L9 4L9 3L11 3L11 2L9 2L9 0ZM10 0L10 1L12 1L12 2L13 2L13 0ZM15 0L15 1L14 1L14 2L15 2L15 1L16 1L16 0ZM20 1L20 2L22 2L22 1ZM24 2L24 3L23 3L23 5L25 5L25 2ZM9 5L9 7L10 7L10 5ZM19 6L19 10L18 10L18 9L17 9L17 7L16 7L16 8L15 8L15 9L17 9L17 10L16 10L16 11L18 11L18 12L20 12L20 9L21 9L21 7L22 7L22 6L21 6L21 7L20 7L20 6ZM22 8L22 9L24 9L24 10L25 10L25 9L24 9L24 8ZM29 8L29 9L31 9L31 12L32 12L32 13L33 13L33 12L32 12L32 9L33 9L33 8ZM12 10L12 11L13 11L13 10ZM6 11L6 12L7 12L7 11ZM22 11L22 13L19 13L19 15L18 15L18 16L20 16L20 17L19 17L19 18L18 18L18 17L17 17L17 19L16 19L16 20L15 20L15 18L16 18L16 17L14 17L14 19L13 19L13 18L12 18L12 19L13 19L13 21L14 21L14 22L15 22L15 21L16 21L16 20L17 20L17 19L18 19L18 21L17 21L17 23L13 23L13 22L12 22L12 23L11 23L11 21L9 21L9 23L10 23L10 25L12 25L12 24L13 24L13 25L14 25L14 26L12 26L12 28L11 28L11 29L14 29L14 28L15 28L15 29L17 29L17 26L19 26L19 27L20 27L20 29L21 29L21 27L22 27L22 29L24 29L24 28L23 28L23 27L24 27L24 26L22 26L22 25L24 25L24 24L25 24L25 23L26 23L26 24L27 24L27 23L28 23L28 24L29 24L29 26L30 26L30 25L31 25L31 23L30 23L30 24L29 24L29 23L28 23L28 22L31 22L31 20L32 20L32 19L30 19L30 21L28 21L28 20L27 20L27 19L26 19L26 20L27 20L27 21L25 21L25 22L24 22L24 23L23 23L23 19L22 19L22 18L23 18L23 17L25 17L25 16L26 16L26 15L29 15L29 13L28 13L28 14L27 14L27 13L25 13L25 12L23 12L23 11ZM16 12L16 13L17 13L17 12ZM22 13L22 15L21 15L21 17L20 17L20 19L19 19L19 21L21 21L21 22L20 22L20 23L21 23L21 25L20 25L20 24L19 24L19 23L17 23L17 25L16 25L16 24L14 24L14 25L15 25L15 28L16 28L16 26L17 26L17 25L18 25L18 24L19 24L19 25L20 25L20 27L21 27L21 25L22 25L22 19L21 19L21 17L23 17L23 16L25 16L25 15L24 15L24 14L25 14L25 13ZM2 15L2 18L1 18L1 20L5 20L5 23L6 23L6 24L7 24L7 23L8 23L8 21L6 21L6 20L7 20L7 19L6 19L6 20L5 20L5 19L2 19L2 18L4 18L4 17L5 17L5 15ZM27 16L27 17L26 17L26 18L27 18L27 17L28 17L28 16ZM20 19L20 20L21 20L21 19ZM14 20L14 21L15 21L15 20ZM27 21L27 22L26 22L26 23L27 23L27 22L28 22L28 21ZM3 22L3 24L4 24L4 22ZM6 22L6 23L7 23L7 22ZM8 24L8 25L9 25L9 24ZM25 25L25 28L28 28L28 25ZM10 26L10 27L9 27L9 28L10 28L10 27L11 27L11 26ZM26 26L26 27L27 27L27 26ZM25 29L25 30L23 30L23 31L26 31L26 32L27 32L27 31L26 31L26 29ZM32 32L32 33L33 33L33 32ZM0 0L0 7L7 7L7 0ZM1 1L1 6L6 6L6 1ZM2 2L2 5L5 5L5 2ZM26 0L26 7L33 7L33 0ZM27 1L27 6L32 6L32 1ZM28 2L28 5L31 5L31 2ZM0 26L0 33L7 33L7 26ZM1 27L1 32L6 32L6 27ZM2 28L2 31L5 31L5 28Z" fill="#000000"/></g></g></svg>
