<?xml version="1.0" encoding="UTF-8"?>
<svg xmlns="http://www.w3.org/2000/svg" version="1.1" width="400" height="400" viewBox="0 0 400 400"><rect x="0" y="0" width="400" height="400" fill="#fefefe"/><g transform="scale(9.756)"><g transform="translate(4,4)"><path fill-rule="evenodd" d="M10 0L10 2L11 2L11 0ZM12 0L12 1L13 1L13 2L12 2L12 4L14 4L14 3L13 3L13 2L14 2L14 1L15 1L15 2L16 2L16 1L15 1L15 0ZM17 0L17 1L18 1L18 3L17 3L17 5L18 5L18 8L17 8L17 6L16 6L16 5L15 5L15 6L14 6L14 5L11 5L11 6L10 6L10 4L11 4L11 3L8 3L8 4L9 4L9 5L8 5L8 7L9 7L9 8L6 8L6 9L5 9L5 8L0 8L0 9L1 9L1 10L0 10L0 11L1 11L1 12L3 12L3 13L5 13L5 14L6 14L6 15L4 15L4 16L3 16L3 14L2 14L2 16L1 16L1 14L0 14L0 17L2 17L2 18L0 18L0 20L1 20L1 19L2 19L2 21L0 21L0 25L1 25L1 22L2 22L2 21L3 21L3 24L2 24L2 25L7 25L7 24L8 24L8 23L9 23L9 25L8 25L8 27L9 27L9 28L8 28L8 33L9 33L9 30L10 30L10 29L11 29L11 30L13 30L13 29L14 29L14 30L15 30L15 33L16 33L16 32L17 32L17 33L18 33L18 32L17 32L17 31L16 31L16 30L17 30L17 29L18 29L18 28L20 28L20 29L19 29L19 30L20 30L20 31L21 31L21 32L22 32L22 33L26 33L26 32L28 32L28 30L30 30L30 31L29 31L29 32L31 32L31 33L32 33L32 32L31 32L31 31L32 31L32 30L31 30L31 29L32 29L32 28L33 28L33 27L32 27L32 26L33 26L33 23L30 23L30 24L32 24L32 25L30 25L30 26L31 26L31 27L29 27L29 24L28 24L28 23L29 23L29 22L28 22L28 21L30 21L30 20L31 20L31 19L32 19L32 20L33 20L33 19L32 19L32 18L33 18L33 17L32 17L32 14L33 14L33 13L32 13L32 10L33 10L33 9L32 9L32 8L31 8L31 9L32 9L32 10L29 10L29 12L28 12L28 13L23 13L23 11L22 11L22 10L27 10L27 11L26 11L26 12L27 12L27 11L28 11L28 8L27 8L27 9L26 9L26 8L25 8L25 5L24 5L24 4L25 4L25 0L23 0L23 1L21 1L21 3L24 3L24 4L22 4L22 5L21 5L21 4L19 4L19 3L20 3L20 2L19 2L19 1L20 1L20 0L19 0L19 1L18 1L18 0ZM8 1L8 2L9 2L9 1ZM23 1L23 2L24 2L24 1ZM15 3L15 4L16 4L16 3ZM18 4L18 5L19 5L19 9L25 9L25 8L23 8L23 7L24 7L24 5L22 5L22 6L21 6L21 5L19 5L19 4ZM9 6L9 7L10 7L10 6ZM11 6L11 7L12 7L12 9L11 9L11 8L10 8L10 9L8 9L8 10L7 10L7 9L6 9L6 10L7 10L7 11L6 11L6 12L7 12L7 13L6 13L6 14L7 14L7 13L8 13L8 14L9 14L9 13L8 13L8 12L11 12L11 13L10 13L10 14L13 14L13 15L12 15L12 16L14 16L14 17L13 17L13 18L12 18L12 17L10 17L10 16L11 16L11 15L8 15L8 16L9 16L9 17L10 17L10 19L9 19L9 18L8 18L8 19L4 19L4 18L2 18L2 19L4 19L4 20L3 20L3 21L4 21L4 24L7 24L7 23L8 23L8 22L7 22L7 21L6 21L6 22L7 22L7 23L5 23L5 21L4 21L4 20L9 20L9 21L11 21L11 20L12 20L12 22L11 22L11 23L10 23L10 22L9 22L9 23L10 23L10 25L9 25L9 27L10 27L10 25L12 25L12 24L11 24L11 23L12 23L12 22L13 22L13 24L14 24L14 25L13 25L13 26L11 26L11 28L12 28L12 29L13 29L13 28L14 28L14 29L15 29L15 30L16 30L16 29L17 29L17 28L18 28L18 27L21 27L21 26L22 26L22 28L21 28L21 29L20 29L20 30L22 30L22 31L23 31L23 32L26 32L26 31L23 31L23 30L22 30L22 29L24 29L24 27L23 27L23 26L22 26L22 25L24 25L24 24L21 24L21 25L20 25L20 22L19 22L19 21L21 21L21 22L23 22L23 23L28 23L28 22L23 22L23 20L25 20L25 21L28 21L28 20L30 20L30 19L31 19L31 18L30 18L30 17L31 17L31 16L30 16L30 14L29 14L29 13L31 13L31 12L29 12L29 13L28 13L28 14L29 14L29 15L28 15L28 16L29 16L29 17L27 17L27 15L26 15L26 14L25 14L25 15L24 15L24 14L23 14L23 13L22 13L22 12L21 12L21 13L20 13L20 10L19 10L19 13L20 13L20 14L17 14L17 16L18 16L18 15L20 15L20 14L21 14L21 15L22 15L22 16L21 16L21 17L20 17L20 16L19 16L19 17L20 17L20 18L19 18L19 19L20 19L20 20L18 20L18 19L17 19L17 18L18 18L18 17L17 17L17 18L16 18L16 19L17 19L17 20L18 20L18 21L17 21L17 22L16 22L16 21L15 21L15 18L14 18L14 17L16 17L16 15L15 15L15 14L16 14L16 13L17 13L17 12L18 12L18 11L16 11L16 12L15 12L15 10L16 10L16 9L17 9L17 10L18 10L18 9L17 9L17 8L16 8L16 9L15 9L15 7L16 7L16 6L15 6L15 7L14 7L14 6L13 6L13 7L12 7L12 6ZM20 6L20 8L22 8L22 7L23 7L23 6L22 6L22 7L21 7L21 6ZM13 8L13 9L12 9L12 10L13 10L13 11L12 11L12 13L14 13L14 14L15 14L15 13L14 13L14 12L13 12L13 11L14 11L14 10L15 10L15 9L14 9L14 8ZM29 8L29 9L30 9L30 8ZM3 9L3 11L4 11L4 10L5 10L5 9ZM10 9L10 11L11 11L11 9ZM13 9L13 10L14 10L14 9ZM8 10L8 11L9 11L9 10ZM24 11L24 12L25 12L25 11ZM21 13L21 14L22 14L22 13ZM6 15L6 16L5 16L5 17L6 17L6 18L7 18L7 17L6 17L6 16L7 16L7 15ZM25 15L25 16L26 16L26 15ZM22 17L22 18L21 18L21 20L23 20L23 19L22 19L22 18L25 18L25 20L26 20L26 19L27 19L27 20L28 20L28 19L29 19L29 18L28 18L28 19L27 19L27 17L26 17L26 18L25 18L25 17ZM13 18L13 19L14 19L14 18ZM10 19L10 20L11 20L11 19ZM13 20L13 21L14 21L14 24L15 24L15 23L16 23L16 24L17 24L17 25L16 25L16 26L15 26L15 25L14 25L14 26L15 26L15 29L16 29L16 28L17 28L17 25L18 25L18 24L17 24L17 23L19 23L19 22L17 22L17 23L16 23L16 22L15 22L15 21L14 21L14 20ZM32 21L32 22L33 22L33 21ZM19 25L19 26L20 26L20 25ZM25 25L25 28L28 28L28 25ZM26 26L26 27L27 27L27 26ZM12 27L12 28L13 28L13 27ZM9 28L9 29L10 29L10 28ZM29 28L29 29L31 29L31 28ZM25 29L25 30L28 30L28 29ZM10 31L10 33L11 33L11 31ZM13 32L13 33L14 33L14 32ZM0 0L0 7L7 7L7 0ZM1 1L1 6L6 6L6 1ZM2 2L2 5L5 5L5 2ZM26 0L26 7L33 7L33 0ZM27 1L27 6L32 6L32 1ZM28 2L28 5L31 5L31 2ZM0 26L0 33L7 33L7 26ZM1 27L1 32L6 32L6 27ZM2 28L2 31L5 31L5 28Z" fill="#000000"/></g></g></svg>
