<?xml version="1.0" encoding="UTF-8"?>
<svg xmlns="http://www.w3.org/2000/svg" version="1.1" width="400" height="400" viewBox="0 0 400 400"><rect x="0" y="0" width="400" height="400" fill="#fefefe"/><g transform="scale(9.756)"><g transform="translate(4,4)"><path fill-rule="evenodd" d="M8 0L8 4L10 4L10 3L11 3L11 4L12 4L12 2L11 2L11 0ZM12 0L12 1L13 1L13 0ZM15 0L15 1L14 1L14 2L15 2L15 1L16 1L16 0ZM20 0L20 1L19 1L19 2L21 2L21 3L19 3L19 4L20 4L20 5L17 5L17 6L16 6L16 7L15 7L15 5L16 5L16 4L17 4L17 3L18 3L18 1L17 1L17 2L16 2L16 3L15 3L15 4L14 4L14 3L13 3L13 5L11 5L11 6L10 6L10 7L9 7L9 5L8 5L8 7L9 7L9 8L10 8L10 7L11 7L11 6L12 6L12 8L11 8L11 9L9 9L9 10L6 10L6 9L7 9L7 8L4 8L4 9L5 9L5 10L6 10L6 11L4 11L4 12L3 12L3 10L2 10L2 8L0 8L0 9L1 9L1 10L2 10L2 11L1 11L1 12L0 12L0 17L1 17L1 19L2 19L2 20L3 20L3 22L2 22L2 24L0 24L0 25L2 25L2 24L3 24L3 25L7 25L7 24L4 24L4 23L5 23L5 20L6 20L6 21L8 21L8 19L9 19L9 22L8 22L8 26L9 26L9 27L8 27L8 29L9 29L9 30L10 30L10 32L9 32L9 31L8 31L8 33L11 33L11 32L12 32L12 31L13 31L13 30L14 30L14 29L15 29L15 32L14 32L14 33L15 33L15 32L16 32L16 31L17 31L17 33L18 33L18 32L19 32L19 33L20 33L20 32L21 32L21 33L22 33L22 32L23 32L23 31L24 31L24 33L25 33L25 31L24 31L24 29L26 29L26 31L28 31L28 32L26 32L26 33L28 33L28 32L29 32L29 31L30 31L30 30L31 30L31 31L32 31L32 30L33 30L33 27L32 27L32 26L31 26L31 25L32 25L32 24L33 24L33 23L31 23L31 22L32 22L32 21L33 21L33 19L32 19L32 18L31 18L31 17L30 17L30 18L26 18L26 17L29 17L29 16L30 16L30 14L31 14L31 16L32 16L32 17L33 17L33 16L32 16L32 14L31 14L31 13L29 13L29 10L28 10L28 8L27 8L27 11L28 11L28 13L27 13L27 12L26 12L26 11L25 11L25 12L26 12L26 13L24 13L24 10L26 10L26 9L22 9L22 8L24 8L24 7L25 7L25 6L24 6L24 7L23 7L23 6L22 6L22 7L21 7L21 6L20 6L20 5L24 5L24 3L25 3L25 2L23 2L23 1L25 1L25 0L23 0L23 1L22 1L22 0ZM21 1L21 2L22 2L22 3L21 3L21 4L22 4L22 3L23 3L23 2L22 2L22 1ZM9 2L9 3L10 3L10 2ZM13 5L13 8L12 8L12 9L11 9L11 10L9 10L9 11L6 11L6 12L5 12L5 14L1 14L1 17L3 17L3 19L4 19L4 17L5 17L5 18L9 18L9 19L11 19L11 18L12 18L12 17L11 17L11 16L12 16L12 15L13 15L13 17L14 17L14 19L13 19L13 20L12 20L12 23L11 23L11 24L10 24L10 23L9 23L9 24L10 24L10 25L12 25L12 24L13 24L13 25L14 25L14 26L13 26L13 28L10 28L10 27L11 27L11 26L10 26L10 27L9 27L9 28L10 28L10 30L11 30L11 29L14 29L14 28L15 28L15 29L17 29L17 30L19 30L19 32L20 32L20 30L21 30L21 31L23 31L23 30L22 30L22 29L24 29L24 28L22 28L22 29L19 29L19 27L22 27L22 25L24 25L24 24L25 24L25 23L26 23L26 24L27 24L27 21L28 21L28 22L31 22L31 20L32 20L32 19L30 19L30 21L28 21L28 19L26 19L26 20L25 20L25 21L26 21L26 22L25 22L25 23L24 23L24 24L23 24L23 19L22 19L22 25L21 25L21 24L20 24L20 21L21 21L21 18L20 18L20 17L21 17L21 15L22 15L22 17L25 17L25 16L23 16L23 14L22 14L22 13L23 13L23 10L22 10L22 9L21 9L21 8L20 8L20 6L19 6L19 8L20 8L20 9L19 9L19 10L18 10L18 9L17 9L17 7L18 7L18 6L17 6L17 7L16 7L16 8L15 8L15 7L14 7L14 5ZM14 8L14 9L12 9L12 10L11 10L11 11L10 11L10 13L11 13L11 12L12 12L12 13L13 13L13 14L14 14L14 13L15 13L15 15L16 15L16 14L17 14L17 16L14 16L14 17L16 17L16 18L15 18L15 20L14 20L14 21L13 21L13 22L14 22L14 25L15 25L15 28L16 28L16 26L17 26L17 29L18 29L18 27L19 27L19 26L17 26L17 25L18 25L18 24L19 24L19 25L20 25L20 26L21 26L21 25L20 25L20 24L19 24L19 23L17 23L17 21L18 21L18 19L17 19L17 17L18 17L18 18L19 18L19 16L18 16L18 15L19 15L19 12L18 12L18 11L16 11L16 10L17 10L17 9L15 9L15 8ZM29 8L29 9L31 9L31 12L32 12L32 13L33 13L33 12L32 12L32 9L33 9L33 8ZM14 9L14 11L12 11L12 12L13 12L13 13L14 13L14 12L15 12L15 9ZM20 9L20 10L21 10L21 9ZM21 11L21 13L20 13L20 15L21 15L21 13L22 13L22 11ZM6 12L6 13L8 13L8 14L9 14L9 17L10 17L10 18L11 18L11 17L10 17L10 16L11 16L11 14L9 14L9 13L8 13L8 12ZM16 12L16 13L17 13L17 12ZM26 13L26 14L24 14L24 15L26 15L26 16L27 16L27 15L29 15L29 13L28 13L28 14L27 14L27 13ZM5 14L5 15L2 15L2 16L5 16L5 17L8 17L8 16L6 16L6 15L7 15L7 14ZM6 19L6 20L7 20L7 19ZM16 19L16 20L15 20L15 21L14 21L14 22L15 22L15 21L16 21L16 20L17 20L17 19ZM0 20L0 22L1 22L1 20ZM26 20L26 21L27 21L27 20ZM10 21L10 22L11 22L11 21ZM3 22L3 23L4 23L4 22ZM6 22L6 23L7 23L7 22ZM15 23L15 24L16 24L16 25L17 25L17 23ZM30 23L30 24L29 24L29 26L30 26L30 25L31 25L31 23ZM25 25L25 28L28 28L28 25ZM23 26L23 27L24 27L24 26ZM26 26L26 27L27 27L27 26ZM29 27L29 29L32 29L32 28L31 28L31 27ZM32 32L32 33L33 33L33 32ZM0 0L0 7L7 7L7 0ZM1 1L1 6L6 6L6 1ZM2 2L2 5L5 5L5 2ZM26 0L26 7L33 7L33 0ZM27 1L27 6L32 6L32 1ZM28 2L28 5L31 5L31 2ZM0 26L0 33L7 33L7 26ZM1 27L1 32L6 32L6 27ZM2 28L2 31L5 31L5 28Z" fill="#000000"/></g></g></svg>
