<?xml version="1.0" encoding="UTF-8"?>
<svg xmlns="http://www.w3.org/2000/svg" version="1.1" width="400" height="400" viewBox="0 0 400 400"><rect x="0" y="0" width="400" height="400" fill="#fefefe"/><g transform="scale(9.756)"><g transform="translate(4,4)"><path fill-rule="evenodd" d="M8 0L8 1L11 1L11 2L10 2L10 4L9 4L9 2L8 2L8 5L11 5L11 4L12 4L12 1L13 1L13 4L14 4L14 5L16 5L16 12L17 12L17 13L15 13L15 14L17 14L17 13L19 13L19 14L18 14L18 16L19 16L19 17L20 17L20 16L19 16L19 15L21 15L21 17L22 17L22 15L21 15L21 14L20 14L20 13L19 13L19 12L17 12L17 9L18 9L18 10L20 10L20 12L21 12L21 10L22 10L22 11L25 11L25 12L24 12L24 14L25 14L25 16L23 16L23 18L21 18L21 19L20 19L20 21L19 21L19 20L18 20L18 19L19 19L19 18L17 18L17 19L16 19L16 18L15 18L15 17L17 17L17 15L16 15L16 16L13 16L13 15L14 15L14 14L13 14L13 13L14 13L14 11L15 11L15 9L14 9L14 10L13 10L13 9L11 9L11 6L10 6L10 9L11 9L11 10L9 10L9 8L8 8L8 10L9 10L9 12L8 12L8 11L7 11L7 10L4 10L4 11L3 11L3 14L2 14L2 15L1 15L1 14L0 14L0 15L1 15L1 16L0 16L0 19L7 19L7 18L8 18L8 19L9 19L9 18L12 18L12 19L11 19L11 20L9 20L9 21L7 21L7 20L5 20L5 23L4 23L4 22L3 22L3 21L2 21L2 23L1 23L1 24L0 24L0 25L1 25L1 24L3 24L3 23L4 23L4 25L7 25L7 24L8 24L8 26L9 26L9 27L11 27L11 28L9 28L9 29L8 29L8 33L9 33L9 30L10 30L10 33L13 33L13 32L12 32L12 31L11 31L11 30L12 30L12 29L13 29L13 30L15 30L15 31L14 31L14 32L15 32L15 31L16 31L16 33L20 33L20 32L21 32L21 33L22 33L22 32L21 32L21 31L16 31L16 29L15 29L15 28L17 28L17 27L15 27L15 28L13 28L13 27L14 27L14 26L12 26L12 27L11 27L11 25L10 25L10 24L9 24L9 23L10 23L10 22L11 22L11 24L12 24L12 25L14 25L14 22L15 22L15 21L14 21L14 22L13 22L13 21L12 21L12 20L13 20L13 19L14 19L14 20L15 20L15 19L16 19L16 20L17 20L17 21L16 21L16 22L17 22L17 21L19 21L19 22L20 22L20 25L18 25L18 24L19 24L19 23L18 23L18 24L17 24L17 25L15 25L15 26L18 26L18 30L19 30L19 28L20 28L20 30L21 30L21 29L22 29L22 27L21 27L21 28L20 28L20 26L21 26L21 22L20 22L20 21L23 21L23 22L22 22L22 23L25 23L25 24L24 24L24 26L23 26L23 27L24 27L24 28L23 28L23 31L24 31L24 32L27 32L27 33L29 33L29 32L28 32L28 29L29 29L29 30L30 30L30 31L32 31L32 32L33 32L33 31L32 31L32 27L31 27L31 26L32 26L32 25L33 25L33 21L32 21L32 20L30 20L30 19L29 19L29 21L32 21L32 25L31 25L31 26L30 26L30 25L29 25L29 23L31 23L31 22L29 22L29 23L27 23L27 21L26 21L26 20L28 20L28 19L27 19L27 17L28 17L28 18L29 18L29 17L32 17L32 18L31 18L31 19L32 19L32 18L33 18L33 16L32 16L32 15L30 15L30 16L28 16L28 15L29 15L29 14L28 14L28 13L29 13L29 12L30 12L30 11L28 11L28 9L31 9L31 8L28 8L28 9L26 9L26 8L25 8L25 6L24 6L24 7L23 7L23 5L20 5L20 4L19 4L19 3L21 3L21 0L18 0L18 1L20 1L20 2L19 2L19 3L17 3L17 2L15 2L15 0ZM23 0L23 1L22 1L22 2L23 2L23 3L22 3L22 4L23 4L23 3L24 3L24 5L25 5L25 2L24 2L24 1L25 1L25 0ZM14 2L14 4L15 4L15 2ZM16 3L16 5L17 5L17 3ZM18 5L18 6L17 6L17 7L18 7L18 6L19 6L19 8L18 8L18 9L20 9L20 10L21 10L21 9L20 9L20 6L19 6L19 5ZM8 6L8 7L9 7L9 6ZM12 6L12 7L13 7L13 6ZM14 6L14 8L15 8L15 6ZM21 6L21 8L22 8L22 10L23 10L23 9L24 9L24 8L23 8L23 7L22 7L22 6ZM0 8L0 10L1 10L1 9L4 9L4 8ZM6 8L6 9L7 9L7 8ZM32 8L32 10L31 10L31 11L33 11L33 8ZM12 10L12 11L13 11L13 10ZM0 11L0 12L1 12L1 13L2 13L2 12L1 12L1 11ZM4 11L4 12L5 12L5 13L6 13L6 14L3 14L3 15L6 15L6 16L5 16L5 17L3 17L3 18L5 18L5 17L6 17L6 18L7 18L7 17L6 17L6 16L7 16L7 15L6 15L6 14L7 14L7 13L8 13L8 12L7 12L7 11ZM6 12L6 13L7 13L7 12ZM11 12L11 13L10 13L10 14L8 14L8 16L9 16L9 17L8 17L8 18L9 18L9 17L11 17L11 16L9 16L9 15L13 15L13 14L12 14L12 13L13 13L13 12ZM26 12L26 13L25 13L25 14L26 14L26 15L28 15L28 14L27 14L27 12ZM31 12L31 14L32 14L32 12ZM22 13L22 14L23 14L23 13ZM1 16L1 18L2 18L2 16ZM12 16L12 18L13 18L13 16ZM25 16L25 17L24 17L24 18L23 18L23 19L21 19L21 20L23 20L23 19L25 19L25 17L26 17L26 16ZM14 18L14 19L15 19L15 18ZM0 20L0 22L1 22L1 20ZM24 20L24 21L25 21L25 20ZM6 21L6 22L7 22L7 21ZM9 21L9 22L10 22L10 21ZM12 22L12 24L13 24L13 22ZM6 23L6 24L7 24L7 23ZM15 23L15 24L16 24L16 23ZM26 23L26 24L27 24L27 23ZM22 24L22 25L23 25L23 24ZM9 25L9 26L10 26L10 25ZM25 25L25 28L28 28L28 25ZM26 26L26 27L27 27L27 26ZM29 26L29 27L30 27L30 26ZM10 29L10 30L11 30L11 29ZM24 29L24 30L25 30L25 31L26 31L26 30L27 30L27 29ZM30 29L30 30L31 30L31 29ZM30 32L30 33L31 33L31 32ZM0 0L0 7L7 7L7 0ZM1 1L1 6L6 6L6 1ZM2 2L2 5L5 5L5 2ZM26 0L26 7L33 7L33 0ZM27 1L27 6L32 6L32 1ZM28 2L28 5L31 5L31 2ZM0 26L0 33L7 33L7 26ZM1 27L1 32L6 32L6 27ZM2 28L2 31L5 31L5 28Z" fill="#000000"/></g></g></svg>
