<?xml version="1.0" encoding="UTF-8"?>
<svg xmlns="http://www.w3.org/2000/svg" version="1.1" width="400" height="400" viewBox="0 0 400 400"><rect x="0" y="0" width="400" height="400" fill="#fefefe"/><g transform="scale(9.756)"><g transform="translate(4,4)"><path fill-rule="evenodd" d="M8 0L8 4L9 4L9 5L8 5L8 7L9 7L9 8L10 8L10 7L11 7L11 5L12 5L12 7L13 7L13 5L14 5L14 7L15 7L15 8L14 8L14 9L13 9L13 8L12 8L12 9L11 9L11 11L10 11L10 13L7 13L7 12L6 12L6 11L7 11L7 10L6 10L6 9L7 9L7 8L4 8L4 9L3 9L3 10L2 10L2 8L0 8L0 10L1 10L1 11L0 11L0 13L1 13L1 12L2 12L2 11L4 11L4 12L3 12L3 13L2 13L2 14L0 14L0 15L1 15L1 16L0 16L0 17L2 17L2 18L0 18L0 20L1 20L1 21L0 21L0 22L1 22L1 21L2 21L2 20L3 20L3 21L7 21L7 22L3 22L3 24L0 24L0 25L3 25L3 24L4 24L4 25L7 25L7 24L8 24L8 26L9 26L9 27L8 27L8 29L9 29L9 30L10 30L10 32L9 32L9 31L8 31L8 33L10 33L10 32L12 32L12 30L14 30L14 29L15 29L15 32L14 32L14 33L15 33L15 32L16 32L16 31L17 31L17 33L18 33L18 32L19 32L19 33L20 33L20 32L19 32L19 30L17 30L17 29L18 29L18 27L19 27L19 29L21 29L21 33L22 33L22 31L23 31L23 33L26 33L26 31L28 31L28 32L27 32L27 33L28 33L28 32L29 32L29 31L30 31L30 30L31 30L31 31L32 31L32 30L33 30L33 29L29 29L29 27L31 27L31 28L32 28L32 26L31 26L31 25L32 25L32 24L33 24L33 23L31 23L31 22L32 22L32 21L33 21L33 19L32 19L32 18L31 18L31 17L30 17L30 18L29 18L29 19L27 19L27 18L26 18L26 17L29 17L29 16L30 16L30 14L31 14L31 16L32 16L32 17L33 17L33 16L32 16L32 14L31 14L31 13L29 13L29 12L28 12L28 11L29 11L29 10L28 10L28 8L27 8L27 11L26 11L26 12L25 12L25 10L26 10L26 9L22 9L22 8L24 8L24 7L25 7L25 6L24 6L24 7L23 7L23 6L22 6L22 7L21 7L21 5L24 5L24 3L25 3L25 0L23 0L23 1L22 1L22 0L20 0L20 1L18 1L18 0L17 0L17 1L18 1L18 2L16 2L16 3L15 3L15 4L14 4L14 3L12 3L12 4L9 4L9 3L11 3L11 2L9 2L9 0ZM10 0L10 1L12 1L12 2L13 2L13 0ZM15 0L15 1L14 1L14 2L15 2L15 1L16 1L16 0ZM20 1L20 2L22 2L22 3L21 3L21 4L22 4L22 3L24 3L24 1L23 1L23 2L22 2L22 1ZM17 3L17 4L16 4L16 5L15 5L15 7L16 7L16 8L15 8L15 9L14 9L14 11L13 11L13 10L12 10L12 11L11 11L11 13L10 13L10 14L9 14L9 15L8 15L8 14L7 14L7 13L6 13L6 12L5 12L5 13L6 13L6 14L4 14L4 13L3 13L3 14L2 14L2 16L3 16L3 17L6 17L6 18L5 18L5 19L4 19L4 18L3 18L3 20L7 20L7 21L8 21L8 22L7 22L7 23L6 23L6 24L7 24L7 23L8 23L8 24L9 24L9 26L10 26L10 25L12 25L12 24L13 24L13 25L14 25L14 26L13 26L13 27L9 27L9 28L10 28L10 29L14 29L14 28L15 28L15 29L17 29L17 26L19 26L19 27L24 27L24 26L22 26L22 25L24 25L24 24L23 24L23 20L22 20L22 25L21 25L21 24L20 24L20 25L19 25L19 24L18 24L18 25L17 25L17 23L21 23L21 22L20 22L20 21L21 21L21 20L20 20L20 17L21 17L21 16L20 16L20 15L21 15L21 14L22 14L22 17L25 17L25 16L23 16L23 13L25 13L25 14L24 14L24 15L25 15L25 14L26 14L26 16L27 16L27 15L29 15L29 13L25 13L25 12L23 12L23 13L21 13L21 11L20 11L20 9L21 9L21 10L22 10L22 11L23 11L23 10L22 10L22 9L21 9L21 8L20 8L20 9L19 9L19 10L18 10L18 9L17 9L17 7L18 7L18 5L20 5L20 3ZM17 4L17 5L18 5L18 4ZM9 5L9 7L10 7L10 5ZM16 6L16 7L17 7L17 6ZM19 6L19 7L20 7L20 6ZM29 8L29 9L31 9L31 12L32 12L32 13L33 13L33 12L32 12L32 9L33 9L33 8ZM9 9L9 10L10 10L10 9ZM15 9L15 12L14 12L14 13L13 13L13 14L14 14L14 13L15 13L15 15L16 15L16 14L17 14L17 16L14 16L14 17L13 17L13 16L12 16L12 17L11 17L11 15L12 15L12 13L11 13L11 14L10 14L10 15L9 15L9 16L10 16L10 18L9 18L9 19L8 19L8 20L10 20L10 18L11 18L11 23L9 23L9 22L10 22L10 21L9 21L9 22L8 22L8 23L9 23L9 24L11 24L11 23L12 23L12 22L14 22L14 25L15 25L15 28L16 28L16 26L17 26L17 25L16 25L16 24L15 24L15 23L17 23L17 21L18 21L18 19L17 19L17 17L18 17L18 18L19 18L19 17L20 17L20 16L18 16L18 15L19 15L19 13L20 13L20 14L21 14L21 13L20 13L20 11L19 11L19 12L18 12L18 11L16 11L16 10L17 10L17 9ZM5 10L5 11L6 11L6 10ZM8 11L8 12L9 12L9 11ZM12 11L12 12L13 12L13 11ZM16 12L16 13L17 13L17 12ZM3 14L3 15L4 15L4 16L6 16L6 17L7 17L7 16L8 16L8 15L7 15L7 14L6 14L6 15L4 15L4 14ZM6 15L6 16L7 16L7 15ZM14 17L14 19L13 19L13 18L12 18L12 19L13 19L13 21L14 21L14 22L15 22L15 21L16 21L16 20L17 20L17 19L16 19L16 20L15 20L15 18L16 18L16 17ZM6 18L6 19L7 19L7 18ZM26 19L26 20L27 20L27 21L25 21L25 24L28 24L28 23L29 23L29 22L31 22L31 20L32 20L32 19L30 19L30 21L28 21L28 20L27 20L27 19ZM14 20L14 21L15 21L15 20ZM19 20L19 21L20 21L20 20ZM27 21L27 22L26 22L26 23L27 23L27 22L28 22L28 21ZM30 23L30 24L29 24L29 26L30 26L30 25L31 25L31 23ZM20 25L20 26L21 26L21 25ZM25 25L25 28L28 28L28 25ZM26 26L26 27L27 27L27 26ZM22 28L22 29L24 29L24 31L25 31L25 29L24 29L24 28ZM32 32L32 33L33 33L33 32ZM0 0L0 7L7 7L7 0ZM1 1L1 6L6 6L6 1ZM2 2L2 5L5 5L5 2ZM26 0L26 7L33 7L33 0ZM27 1L27 6L32 6L32 1ZM28 2L28 5L31 5L31 2ZM0 26L0 33L7 33L7 26ZM1 27L1 32L6 32L6 27ZM2 28L2 31L5 31L5 28Z" fill="#000000"/></g></g></svg>
