<?xml version="1.0" encoding="UTF-8"?>
<svg xmlns="http://www.w3.org/2000/svg" version="1.1" width="400" height="400" viewBox="0 0 400 400"><rect x="0" y="0" width="400" height="400" fill="#fefefe"/><g transform="scale(9.756)"><g transform="translate(4,4)"><path fill-rule="evenodd" d="M8 0L8 4L10 4L10 3L11 3L11 4L12 4L12 2L11 2L11 0ZM12 0L12 1L13 1L13 0ZM15 0L15 1L14 1L14 2L15 2L15 1L16 1L16 0ZM18 0L18 1L17 1L17 2L16 2L16 3L15 3L15 4L14 4L14 3L13 3L13 5L11 5L11 6L10 6L10 7L9 7L9 5L8 5L8 7L9 7L9 8L10 8L10 7L11 7L11 6L12 6L12 8L11 8L11 9L9 9L9 10L11 10L11 11L10 11L10 13L7 13L7 12L8 12L8 11L7 11L7 10L8 10L8 9L7 9L7 8L4 8L4 9L2 9L2 8L0 8L0 10L2 10L2 13L1 13L1 15L2 15L2 13L3 13L3 11L5 11L5 13L4 13L4 14L3 14L3 15L9 15L9 16L11 16L11 17L12 17L12 18L11 18L11 21L10 21L10 17L8 17L8 18L9 18L9 19L7 19L7 18L6 18L6 17L7 17L7 16L6 16L6 17L4 17L4 16L2 16L2 18L3 18L3 17L4 17L4 19L3 19L3 20L1 20L1 21L0 21L0 22L2 22L2 23L3 23L3 24L4 24L4 25L5 25L5 24L6 24L6 25L7 25L7 24L8 24L8 26L9 26L9 27L8 27L8 29L9 29L9 30L10 30L10 31L11 31L11 33L12 33L12 30L14 30L14 29L15 29L15 31L14 31L14 33L15 33L15 32L16 32L16 31L17 31L17 33L18 33L18 32L19 32L19 33L26 33L26 32L25 32L25 31L27 31L27 32L29 32L29 33L30 33L30 31L29 31L29 30L31 30L31 31L32 31L32 30L33 30L33 27L32 27L32 26L31 26L31 25L32 25L32 24L33 24L33 23L31 23L31 22L32 22L32 21L33 21L33 19L32 19L32 18L31 18L31 17L30 17L30 18L28 18L28 21L27 21L27 20L26 20L26 19L27 19L27 18L26 18L26 17L29 17L29 16L30 16L30 14L31 14L31 16L32 16L32 17L33 17L33 16L32 16L32 14L31 14L31 13L29 13L29 11L26 11L26 10L25 10L25 9L22 9L22 8L25 8L25 0L23 0L23 1L22 1L22 0L21 0L21 1L22 1L22 2L20 2L20 1L19 1L19 0ZM23 1L23 2L22 2L22 3L21 3L21 4L22 4L22 3L23 3L23 2L24 2L24 1ZM9 2L9 3L10 3L10 2ZM18 2L18 3L17 3L17 4L16 4L16 5L15 5L15 7L14 7L14 5L13 5L13 8L12 8L12 9L11 9L11 10L12 10L12 9L14 9L14 11L12 11L12 12L11 12L11 13L10 13L10 14L9 14L9 15L11 15L11 16L12 16L12 15L13 15L13 17L14 17L14 19L13 19L13 20L12 20L12 23L11 23L11 24L10 24L10 23L9 23L9 21L8 21L8 20L7 20L7 19L6 19L6 18L5 18L5 19L6 19L6 20L4 20L4 22L3 22L3 23L4 23L4 24L5 24L5 22L7 22L7 23L6 23L6 24L7 24L7 23L9 23L9 26L10 26L10 27L9 27L9 29L10 29L10 30L11 30L11 29L14 29L14 28L15 28L15 29L17 29L17 30L19 30L19 31L21 31L21 30L20 30L20 29L21 29L21 27L20 27L20 25L21 25L21 26L22 26L22 29L24 29L24 28L23 28L23 27L24 27L24 26L22 26L22 25L24 25L24 24L25 24L25 22L26 22L26 24L27 24L27 21L25 21L25 22L24 22L24 23L23 23L23 20L22 20L22 25L21 25L21 24L20 24L20 25L19 25L19 24L18 24L18 25L17 25L17 23L21 23L21 21L19 21L19 19L20 19L20 20L21 20L21 19L22 19L22 17L25 17L25 16L26 16L26 15L28 15L28 14L29 14L29 13L28 13L28 12L27 12L27 13L26 13L26 11L25 11L25 10L24 10L24 11L23 11L23 13L21 13L21 11L20 11L20 9L21 9L21 10L22 10L22 9L21 9L21 7L22 7L22 6L23 6L23 7L24 7L24 5L21 5L21 7L20 7L20 6L19 6L19 7L18 7L18 6L17 6L17 5L18 5L18 3L19 3L19 5L20 5L20 3L19 3L19 2ZM16 6L16 7L15 7L15 8L14 8L14 9L15 9L15 12L14 12L14 13L13 13L13 12L12 12L12 13L13 13L13 14L14 14L14 13L15 13L15 15L16 15L16 14L17 14L17 16L14 16L14 17L16 17L16 18L15 18L15 20L14 20L14 21L13 21L13 22L14 22L14 25L13 25L13 24L12 24L12 25L10 25L10 26L11 26L11 27L10 27L10 28L12 28L12 27L13 27L13 26L14 26L14 25L15 25L15 28L16 28L16 26L17 26L17 29L18 29L18 27L19 27L19 26L17 26L17 25L16 25L16 24L15 24L15 23L17 23L17 21L18 21L18 19L17 19L17 17L18 17L18 18L19 18L19 17L20 17L20 18L21 18L21 17L22 17L22 15L23 15L23 16L25 16L25 15L24 15L24 14L26 14L26 13L23 13L23 14L22 14L22 15L20 15L20 16L18 16L18 15L19 15L19 13L20 13L20 14L21 14L21 13L20 13L20 12L18 12L18 11L16 11L16 10L17 10L17 9L18 9L18 10L19 10L19 9L20 9L20 7L19 7L19 8L18 8L18 7L17 7L17 6ZM16 7L16 8L15 8L15 9L17 9L17 7ZM27 8L27 9L28 9L28 8ZM29 8L29 9L31 9L31 12L32 12L32 13L33 13L33 12L32 12L32 9L33 9L33 8ZM6 9L6 10L5 10L5 11L6 11L6 12L7 12L7 11L6 11L6 10L7 10L7 9ZM0 11L0 12L1 12L1 11ZM24 11L24 12L25 12L25 11ZM16 12L16 13L17 13L17 12ZM6 13L6 14L7 14L7 13ZM27 13L27 14L28 14L28 13ZM0 16L0 17L1 17L1 16ZM20 16L20 17L21 17L21 16ZM0 18L0 19L1 19L1 18ZM16 19L16 20L15 20L15 21L14 21L14 22L15 22L15 21L16 21L16 20L17 20L17 19ZM30 19L30 21L28 21L28 22L31 22L31 20L32 20L32 19ZM6 20L6 21L7 21L7 22L8 22L8 21L7 21L7 20ZM30 23L30 24L29 24L29 26L30 26L30 25L31 25L31 23ZM0 24L0 25L2 25L2 24ZM25 25L25 28L28 28L28 25ZM26 26L26 27L27 27L27 26ZM29 27L29 29L32 29L32 28L31 28L31 27ZM19 28L19 29L20 29L20 28ZM23 30L23 31L25 31L25 30ZM8 31L8 33L9 33L9 31ZM32 32L32 33L33 33L33 32ZM0 0L0 7L7 7L7 0ZM1 1L1 6L6 6L6 1ZM2 2L2 5L5 5L5 2ZM26 0L26 7L33 7L33 0ZM27 1L27 6L32 6L32 1ZM28 2L28 5L31 5L31 2ZM0 26L0 33L7 33L7 26ZM1 27L1 32L6 32L6 27ZM2 28L2 31L5 31L5 28Z" fill="#000000"/></g></g></svg>
