<?xml version="1.0" encoding="UTF-8"?>
<svg xmlns="http://www.w3.org/2000/svg" version="1.1" width="400" height="400" viewBox="0 0 400 400"><rect x="0" y="0" width="400" height="400" fill="#fefefe"/><g transform="scale(9.756)"><g transform="translate(4,4)"><path fill-rule="evenodd" d="M11 0L11 1L8 1L8 3L9 3L9 2L10 2L10 4L8 4L8 8L6 8L6 9L5 9L5 10L6 10L6 11L3 11L3 12L4 12L4 13L3 13L3 14L4 14L4 13L5 13L5 12L6 12L6 13L7 13L7 14L5 14L5 16L4 16L4 17L3 17L3 15L0 15L0 18L1 18L1 19L0 19L0 20L1 20L1 22L0 22L0 23L1 23L1 24L0 24L0 25L1 25L1 24L2 24L2 25L4 25L4 24L3 24L3 22L2 22L2 21L4 21L4 23L5 23L5 22L6 22L6 23L7 23L7 24L5 24L5 25L7 25L7 24L10 24L10 23L11 23L11 24L12 24L12 25L14 25L14 26L15 26L15 25L17 25L17 27L15 27L15 28L14 28L14 27L13 27L13 26L11 26L11 27L9 27L9 26L10 26L10 25L8 25L8 27L9 27L9 29L8 29L8 30L9 30L9 29L10 29L10 31L11 31L11 30L12 30L12 29L11 29L11 27L13 27L13 28L14 28L14 29L13 29L13 30L14 30L14 32L13 32L13 33L14 33L14 32L16 32L16 33L17 33L17 32L21 32L21 33L22 33L22 32L24 32L24 33L26 33L26 32L27 32L27 31L26 31L26 30L27 30L27 29L28 29L28 33L29 33L29 32L30 32L30 31L33 31L33 29L31 29L31 30L30 30L30 29L29 29L29 27L30 27L30 25L29 25L29 24L27 24L27 21L26 21L26 17L27 17L27 16L28 16L28 17L29 17L29 16L30 16L30 15L32 15L32 14L33 14L33 9L32 9L32 8L30 8L30 9L29 9L29 8L26 8L26 9L25 9L25 8L23 8L23 9L24 9L24 10L26 10L26 11L25 11L25 13L26 13L26 14L27 14L27 16L25 16L25 14L22 14L22 15L21 15L21 13L23 13L23 11L22 11L22 7L23 7L23 6L22 6L22 5L24 5L24 7L25 7L25 3L24 3L24 1L25 1L25 0L19 0L19 1L21 1L21 2L22 2L22 1L23 1L23 4L21 4L21 3L20 3L20 5L17 5L17 6L16 6L16 3L19 3L19 2L18 2L18 0L15 0L15 4L13 4L13 2L14 2L14 0ZM12 1L12 2L11 2L11 4L12 4L12 2L13 2L13 1ZM11 5L11 7L10 7L10 6L9 6L9 7L10 7L10 8L8 8L8 9L6 9L6 10L7 10L7 11L6 11L6 12L7 12L7 11L8 11L8 12L9 12L9 13L8 13L8 14L7 14L7 15L6 15L6 16L7 16L7 17L6 17L6 18L5 18L5 17L4 17L4 19L6 19L6 20L4 20L4 21L6 21L6 22L7 22L7 21L8 21L8 22L9 22L9 23L10 23L10 21L9 21L9 20L10 20L10 19L12 19L12 18L13 18L13 17L14 17L14 18L15 18L15 19L13 19L13 20L14 20L14 21L15 21L15 22L14 22L14 24L16 24L16 23L17 23L17 24L18 24L18 25L20 25L20 26L18 26L18 29L17 29L17 28L15 28L15 29L14 29L14 30L15 30L15 31L16 31L16 32L17 32L17 31L20 31L20 29L21 29L21 27L20 27L20 26L21 26L21 23L22 23L22 22L23 22L23 24L22 24L22 25L23 25L23 26L22 26L22 29L23 29L23 30L24 30L24 28L23 28L23 27L24 27L24 25L23 25L23 24L26 24L26 23L24 23L24 22L25 22L25 21L24 21L24 20L23 20L23 21L20 21L20 19L21 19L21 18L20 18L20 17L21 17L21 15L20 15L20 14L19 14L19 13L20 13L20 11L16 11L16 8L17 8L17 9L18 9L18 10L21 10L21 9L20 9L20 8L19 8L19 7L20 7L20 6L21 6L21 7L22 7L22 6L21 6L21 5L20 5L20 6L19 6L19 7L18 7L18 6L17 6L17 7L16 7L16 6L15 6L15 7L14 7L14 5ZM12 6L12 7L13 7L13 6ZM15 7L15 8L16 8L16 7ZM17 7L17 8L18 8L18 9L19 9L19 8L18 8L18 7ZM0 8L0 9L2 9L2 10L0 10L0 12L1 12L1 14L2 14L2 12L1 12L1 11L2 11L2 10L4 10L4 8L3 8L3 9L2 9L2 8ZM10 8L10 9L13 9L13 10L12 10L12 11L11 11L11 10L9 10L9 9L8 9L8 10L9 10L9 11L11 11L11 12L13 12L13 13L12 13L12 14L11 14L11 13L10 13L10 14L8 14L8 15L7 15L7 16L9 16L9 15L10 15L10 14L11 14L11 15L13 15L13 16L12 16L12 17L11 17L11 16L10 16L10 17L8 17L8 18L6 18L6 19L7 19L7 20L6 20L6 21L7 21L7 20L9 20L9 18L12 18L12 17L13 17L13 16L14 16L14 17L15 17L15 18L16 18L16 19L15 19L15 20L16 20L16 19L17 19L17 20L18 20L18 19L19 19L19 18L17 18L17 17L20 17L20 16L18 16L18 14L17 14L17 15L16 15L16 16L14 16L14 15L13 15L13 13L14 13L14 14L15 14L15 13L19 13L19 12L16 12L16 11L15 11L15 9L14 9L14 8ZM27 9L27 10L28 10L28 12L27 12L27 14L28 14L28 13L29 13L29 14L31 14L31 12L32 12L32 10L31 10L31 11L30 11L30 12L29 12L29 9ZM13 10L13 11L14 11L14 10ZM22 15L22 16L23 16L23 17L22 17L22 18L23 18L23 19L25 19L25 16L23 16L23 15ZM28 15L28 16L29 16L29 15ZM32 16L32 17L33 17L33 16ZM23 17L23 18L24 18L24 17ZM2 18L2 19L1 19L1 20L2 20L2 19L3 19L3 18ZM28 18L28 20L30 20L30 19L29 19L29 18ZM31 18L31 19L32 19L32 20L33 20L33 18ZM11 20L11 23L12 23L12 24L13 24L13 23L12 23L12 22L13 22L13 21L12 21L12 20ZM16 21L16 22L17 22L17 23L18 23L18 24L19 24L19 23L21 23L21 22L19 22L19 21ZM29 21L29 22L28 22L28 23L29 23L29 22L31 22L31 23L33 23L33 21ZM25 25L25 28L28 28L28 25ZM31 25L31 27L32 27L32 26L33 26L33 25ZM26 26L26 27L27 27L27 26ZM19 27L19 28L20 28L20 27ZM16 29L16 31L17 31L17 29ZM18 29L18 30L19 30L19 29ZM8 31L8 33L10 33L10 32L9 32L9 31ZM25 31L25 32L26 32L26 31ZM11 32L11 33L12 33L12 32ZM31 32L31 33L32 33L32 32ZM0 0L0 7L7 7L7 0ZM1 1L1 6L6 6L6 1ZM2 2L2 5L5 5L5 2ZM26 0L26 7L33 7L33 0ZM27 1L27 6L32 6L32 1ZM28 2L28 5L31 5L31 2ZM0 26L0 33L7 33L7 26ZM1 27L1 32L6 32L6 27ZM2 28L2 31L5 31L5 28Z" fill="#000000"/></g></g></svg>
