<?xml version="1.0" encoding="UTF-8"?>
<svg xmlns="http://www.w3.org/2000/svg" version="1.1" width="400" height="400" viewBox="0 0 400 400"><rect x="0" y="0" width="400" height="400" fill="#fefefe"/><g transform="scale(9.756)"><g transform="translate(4,4)"><path fill-rule="evenodd" d="M8 0L8 1L9 1L9 2L10 2L10 3L11 3L11 1L13 1L13 0L11 0L11 1L9 1L9 0ZM16 0L16 1L17 1L17 2L16 2L16 4L17 4L17 5L16 5L16 8L15 8L15 6L14 6L14 5L15 5L15 3L14 3L14 2L15 2L15 1L14 1L14 2L12 2L12 4L11 4L11 5L10 5L10 4L9 4L9 5L10 5L10 8L9 8L9 6L8 6L8 8L9 8L9 9L7 9L7 8L6 8L6 9L7 9L7 10L6 10L6 11L5 11L5 10L4 10L4 11L5 11L5 12L6 12L6 13L7 13L7 14L6 14L6 15L5 15L5 16L4 16L4 17L2 17L2 14L0 14L0 17L2 17L2 18L3 18L3 19L4 19L4 20L2 20L2 19L1 19L1 18L0 18L0 20L2 20L2 21L7 21L7 20L6 20L6 19L8 19L8 18L10 18L10 19L9 19L9 20L8 20L8 21L9 21L9 20L10 20L10 21L11 21L11 22L10 22L10 23L9 23L9 22L8 22L8 23L7 23L7 22L6 22L6 23L4 23L4 22L2 22L2 24L1 24L1 21L0 21L0 25L8 25L8 26L9 26L9 25L10 25L10 27L9 27L9 28L8 28L8 30L9 30L9 31L8 31L8 33L11 33L11 32L14 32L14 31L16 31L16 32L15 32L15 33L18 33L18 32L17 32L17 31L18 31L18 29L17 29L17 30L16 30L16 28L15 28L15 27L16 27L16 26L17 26L17 24L18 24L18 23L19 23L19 22L20 22L20 18L21 18L21 19L22 19L22 21L21 21L21 23L24 23L24 22L26 22L26 20L27 20L27 19L26 19L26 20L23 20L23 19L24 19L24 18L25 18L25 17L24 17L24 16L23 16L23 17L24 17L24 18L23 18L23 19L22 19L22 18L21 18L21 16L20 16L20 17L19 17L19 15L21 15L21 13L20 13L20 11L21 11L21 4L22 4L22 7L23 7L23 6L24 6L24 7L25 7L25 6L24 6L24 5L23 5L23 3L24 3L24 4L25 4L25 0L24 0L24 2L23 2L23 0L22 0L22 2L20 2L20 1L21 1L21 0L20 0L20 1L19 1L19 2L18 2L18 0ZM17 2L17 3L18 3L18 2ZM22 2L22 3L23 3L23 2ZM19 3L19 4L18 4L18 5L17 5L17 8L20 8L20 5L19 5L19 4L21 4L21 3ZM12 4L12 5L11 5L11 7L12 7L12 9L10 9L10 10L9 10L9 11L8 11L8 12L7 12L7 11L6 11L6 12L7 12L7 13L8 13L8 14L7 14L7 15L6 15L6 16L5 16L5 18L4 18L4 19L5 19L5 18L8 18L8 17L9 17L9 16L11 16L11 17L12 17L12 16L14 16L14 15L15 15L15 13L16 13L16 11L13 11L13 10L15 10L15 8L13 8L13 7L14 7L14 6L13 6L13 7L12 7L12 5L14 5L14 4ZM18 6L18 7L19 7L19 6ZM0 8L0 9L1 9L1 11L2 11L2 12L3 12L3 15L4 15L4 12L3 12L3 10L2 10L2 8ZM3 8L3 9L5 9L5 8ZM24 8L24 9L22 9L22 10L23 10L23 11L24 11L24 12L22 12L22 15L23 15L23 14L24 14L24 15L25 15L25 16L26 16L26 18L27 18L27 16L26 16L26 14L25 14L25 13L27 13L27 11L28 11L28 12L29 12L29 14L30 14L30 16L29 16L29 15L28 15L28 14L27 14L27 15L28 15L28 20L29 20L29 21L28 21L28 22L27 22L27 24L26 24L26 23L25 23L25 24L22 24L22 28L23 28L23 30L24 30L24 31L23 31L23 32L22 32L22 33L23 33L23 32L24 32L24 33L25 33L25 32L26 32L26 33L30 33L30 32L33 32L33 30L32 30L32 31L31 31L31 29L33 29L33 28L32 28L32 27L29 27L29 25L30 25L30 26L31 26L31 25L32 25L32 24L33 24L33 22L32 22L32 23L30 23L30 22L29 22L29 21L30 21L30 20L31 20L31 21L32 21L32 19L33 19L33 15L31 15L31 13L30 13L30 12L32 12L32 13L33 13L33 12L32 12L32 11L33 11L33 10L30 10L30 12L29 12L29 9L27 9L27 8L26 8L26 9L27 9L27 10L25 10L25 11L24 11L24 9L25 9L25 8ZM32 8L32 9L33 9L33 8ZM12 9L12 10L10 10L10 11L9 11L9 13L10 13L10 12L11 12L11 13L13 13L13 14L11 14L11 16L12 16L12 15L14 15L14 13L15 13L15 12L14 12L14 13L13 13L13 11L12 11L12 10L13 10L13 9ZM16 9L16 10L17 10L17 11L18 11L18 9ZM19 10L19 11L20 11L20 10ZM25 11L25 12L24 12L24 13L25 13L25 12L26 12L26 11ZM0 12L0 13L1 13L1 12ZM17 12L17 13L18 13L18 12ZM19 13L19 14L16 14L16 16L15 16L15 18L17 18L17 20L16 20L16 19L15 19L15 20L13 20L13 19L14 19L14 17L13 17L13 18L12 18L12 19L11 19L11 20L12 20L12 22L13 22L13 25L14 25L14 27L13 27L13 28L12 28L12 29L11 29L11 27L12 27L12 26L11 26L11 27L10 27L10 28L9 28L9 30L12 30L12 29L13 29L13 30L14 30L14 29L13 29L13 28L14 28L14 27L15 27L15 25L16 25L16 24L17 24L17 23L18 23L18 22L19 22L19 20L18 20L18 18L17 18L17 17L18 17L18 15L19 15L19 14L20 14L20 13ZM9 14L9 15L7 15L7 16L6 16L6 17L8 17L8 16L9 16L9 15L10 15L10 14ZM16 16L16 17L17 17L17 16ZM30 16L30 17L31 17L31 16ZM30 18L30 19L29 19L29 20L30 20L30 19L32 19L32 18ZM15 20L15 23L14 23L14 25L15 25L15 24L16 24L16 20ZM17 20L17 21L18 21L18 20ZM28 22L28 23L29 23L29 22ZM6 23L6 24L7 24L7 23ZM11 23L11 24L12 24L12 23ZM8 24L8 25L9 25L9 24ZM19 24L19 25L20 25L20 26L19 26L19 27L18 27L18 28L20 28L20 29L19 29L19 31L21 31L21 27L20 27L20 26L21 26L21 25L20 25L20 24ZM30 24L30 25L31 25L31 24ZM25 25L25 28L28 28L28 25ZM26 26L26 27L27 27L27 26ZM23 27L23 28L24 28L24 27ZM30 28L30 29L25 29L25 31L24 31L24 32L25 32L25 31L28 31L28 32L30 32L30 29L31 29L31 28ZM28 30L28 31L29 31L29 30ZM9 31L9 32L11 32L11 31ZM19 32L19 33L21 33L21 32ZM0 0L0 7L7 7L7 0ZM1 1L1 6L6 6L6 1ZM2 2L2 5L5 5L5 2ZM26 0L26 7L33 7L33 0ZM27 1L27 6L32 6L32 1ZM28 2L28 5L31 5L31 2ZM0 26L0 33L7 33L7 26ZM1 27L1 32L6 32L6 27ZM2 28L2 31L5 31L5 28Z" fill="#000000"/></g></g></svg>
