<?xml version="1.0" encoding="UTF-8"?>
<svg xmlns="http://www.w3.org/2000/svg" version="1.1" width="400" height="400" viewBox="0 0 400 400"><rect x="0" y="0" width="400" height="400" fill="#fefefe"/><g transform="scale(9.756)"><g transform="translate(4,4)"><path fill-rule="evenodd" d="M10 0L10 2L11 2L11 0ZM12 0L12 1L13 1L13 2L12 2L12 4L14 4L14 3L13 3L13 2L14 2L14 1L15 1L15 2L16 2L16 1L15 1L15 0ZM18 0L18 2L19 2L19 3L17 3L17 4L19 4L19 5L20 5L20 4L21 4L21 3L23 3L23 1L25 1L25 0L23 0L23 1L21 1L21 0ZM8 1L8 2L9 2L9 1ZM19 1L19 2L20 2L20 3L19 3L19 4L20 4L20 3L21 3L21 2L20 2L20 1ZM24 2L24 4L22 4L22 5L21 5L21 6L20 6L20 7L19 7L19 6L18 6L18 8L17 8L17 6L16 6L16 5L15 5L15 6L14 6L14 5L11 5L11 6L10 6L10 4L11 4L11 3L8 3L8 4L9 4L9 5L8 5L8 7L9 7L9 8L6 8L6 9L7 9L7 10L3 10L3 9L5 9L5 8L0 8L0 12L1 12L1 13L0 13L0 15L1 15L1 16L2 16L2 17L3 17L3 18L2 18L2 19L3 19L3 18L4 18L4 17L8 17L8 15L9 15L9 13L11 13L11 12L9 12L9 11L7 11L7 10L9 10L9 9L10 9L10 11L11 11L11 9L12 9L12 10L13 10L13 11L12 11L12 13L14 13L14 14L15 14L15 15L16 15L16 17L14 17L14 16L12 16L12 15L13 15L13 14L10 14L10 18L11 18L11 17L12 17L12 18L13 18L13 19L14 19L14 18L15 18L15 21L14 21L14 20L13 20L13 21L14 21L14 24L13 24L13 22L12 22L12 20L11 20L11 19L10 19L10 20L9 20L9 18L6 18L6 19L5 19L5 20L4 20L4 22L5 22L5 20L6 20L6 21L8 21L8 22L6 22L6 23L5 23L5 24L4 24L4 23L2 23L2 24L4 24L4 25L5 25L5 24L6 24L6 25L7 25L7 24L8 24L8 23L10 23L10 22L9 22L9 21L11 21L11 22L12 22L12 23L11 23L11 24L9 24L9 25L8 25L8 27L9 27L9 25L10 25L10 28L8 28L8 33L9 33L9 32L10 32L10 33L11 33L11 32L12 32L12 31L11 31L11 30L13 30L13 29L14 29L14 30L15 30L15 31L14 31L14 32L13 32L13 33L14 33L14 32L15 32L15 33L16 33L16 32L17 32L17 33L18 33L18 32L17 32L17 31L16 31L16 30L17 30L17 29L18 29L18 28L20 28L20 27L18 27L18 28L17 28L17 25L18 25L18 24L17 24L17 23L19 23L19 22L20 22L20 23L21 23L21 24L20 24L20 25L19 25L19 26L20 26L20 25L21 25L21 26L22 26L22 27L21 27L21 28L22 28L22 27L23 27L23 28L24 28L24 29L19 29L19 30L21 30L21 32L20 32L20 33L21 33L21 32L22 32L22 31L23 31L23 32L24 32L24 33L25 33L25 32L24 32L24 31L27 31L27 32L26 32L26 33L28 33L28 32L29 32L29 33L30 33L30 32L31 32L31 33L32 33L32 32L31 32L31 31L32 31L32 30L31 30L31 29L32 29L32 28L33 28L33 27L32 27L32 26L33 26L33 23L30 23L30 24L32 24L32 25L30 25L30 26L31 26L31 27L29 27L29 23L27 23L27 24L26 24L26 22L28 22L28 21L30 21L30 20L31 20L31 19L32 19L32 20L33 20L33 19L32 19L32 18L33 18L33 17L32 17L32 14L33 14L33 13L32 13L32 10L33 10L33 9L32 9L32 8L31 8L31 9L32 9L32 10L28 10L28 8L27 8L27 9L26 9L26 8L25 8L25 6L24 6L24 7L23 7L23 6L22 6L22 5L24 5L24 4L25 4L25 2ZM15 3L15 4L16 4L16 3ZM9 6L9 7L10 7L10 6ZM11 6L11 7L12 7L12 9L13 9L13 10L14 10L14 11L13 11L13 12L14 12L14 13L15 13L15 14L16 14L16 13L17 13L17 12L18 12L18 11L16 11L16 12L15 12L15 10L16 10L16 9L17 9L17 10L18 10L18 9L17 9L17 8L16 8L16 9L15 9L15 7L16 7L16 6L15 6L15 7L14 7L14 6L13 6L13 7L12 7L12 6ZM21 6L21 7L20 7L20 8L19 8L19 9L21 9L21 10L22 10L22 11L24 11L24 12L21 12L21 11L20 11L20 10L19 10L19 11L20 11L20 12L19 12L19 13L28 13L28 14L27 14L27 15L26 15L26 14L25 14L25 15L24 15L24 14L23 14L23 17L22 17L22 16L21 16L21 15L20 15L20 14L17 14L17 16L18 16L18 15L19 15L19 17L20 17L20 18L19 18L19 20L18 20L18 19L17 19L17 18L18 18L18 17L17 17L17 18L16 18L16 19L17 19L17 20L18 20L18 21L17 21L17 22L16 22L16 21L15 21L15 22L16 22L16 23L15 23L15 24L14 24L14 25L13 25L13 27L12 27L12 26L11 26L11 29L9 29L9 31L10 31L10 32L11 32L11 31L10 31L10 30L11 30L11 29L13 29L13 28L14 28L14 29L15 29L15 30L16 30L16 29L17 29L17 28L16 28L16 29L15 29L15 26L16 26L16 25L17 25L17 24L16 24L16 23L17 23L17 22L19 22L19 21L21 21L21 22L23 22L23 24L21 24L21 25L23 25L23 26L24 26L24 24L25 24L25 23L24 23L24 22L23 22L23 20L25 20L25 18L26 18L26 17L28 17L28 18L29 18L29 19L26 19L26 21L25 21L25 22L26 22L26 21L28 21L28 20L30 20L30 19L31 19L31 18L30 18L30 17L31 17L31 16L30 16L30 14L29 14L29 13L31 13L31 12L29 12L29 11L28 11L28 12L25 12L25 11L24 11L24 10L25 10L25 9L24 9L24 8L21 8L21 7L22 7L22 6ZM10 8L10 9L11 9L11 8ZM13 8L13 9L14 9L14 10L15 10L15 9L14 9L14 8ZM29 8L29 9L30 9L30 8ZM1 9L1 12L4 12L4 13L1 13L1 15L2 15L2 16L3 16L3 17L4 17L4 16L5 16L5 15L4 15L4 14L7 14L7 15L6 15L6 16L7 16L7 15L8 15L8 14L7 14L7 13L8 13L8 12L7 12L7 11L6 11L6 12L4 12L4 11L2 11L2 9ZM22 9L22 10L24 10L24 9ZM26 10L26 11L27 11L27 10ZM6 12L6 13L7 13L7 12ZM28 12L28 13L29 13L29 12ZM28 14L28 15L27 15L27 16L28 16L28 17L29 17L29 16L28 16L28 15L29 15L29 14ZM3 15L3 16L4 16L4 15ZM20 16L20 17L21 17L21 18L20 18L20 20L22 20L22 19L21 19L21 18L22 18L22 17L21 17L21 16ZM0 17L0 20L1 20L1 21L0 21L0 25L1 25L1 22L3 22L3 20L1 20L1 17ZM13 17L13 18L14 18L14 17ZM23 17L23 18L25 18L25 17ZM6 19L6 20L7 20L7 19ZM8 20L8 21L9 21L9 20ZM32 21L32 22L33 22L33 21ZM6 23L6 24L7 24L7 23ZM11 24L11 25L12 25L12 24ZM14 25L14 26L15 26L15 25ZM25 25L25 28L28 28L28 25ZM26 26L26 27L27 27L27 26ZM29 28L29 29L31 29L31 28ZM24 29L24 30L28 30L28 31L29 31L29 32L30 32L30 31L29 31L29 30L28 30L28 29ZM0 0L0 7L7 7L7 0ZM1 1L1 6L6 6L6 1ZM2 2L2 5L5 5L5 2ZM26 0L26 7L33 7L33 0ZM27 1L27 6L32 6L32 1ZM28 2L28 5L31 5L31 2ZM0 26L0 33L7 33L7 26ZM1 27L1 32L6 32L6 27ZM2 28L2 31L5 31L5 28Z" fill="#000000"/></g></g></svg>
