<?xml version="1.0" encoding="UTF-8"?>
<svg xmlns="http://www.w3.org/2000/svg" version="1.1" width="400" height="400" viewBox="0 0 400 400"><rect x="0" y="0" width="400" height="400" fill="#fefefe"/><g transform="scale(9.756)"><g transform="translate(4,4)"><path fill-rule="evenodd" d="M8 0L8 4L9 4L9 5L8 5L8 7L9 7L9 8L10 8L10 7L11 7L11 5L12 5L12 7L13 7L13 5L14 5L14 7L15 7L15 8L14 8L14 9L13 9L13 8L12 8L12 9L11 9L11 11L10 11L10 13L11 13L11 14L10 14L10 15L8 15L8 14L9 14L9 10L10 10L10 9L8 9L8 14L6 14L6 15L8 15L8 16L6 16L6 17L5 17L5 15L4 15L4 13L5 13L5 12L6 12L6 13L7 13L7 12L6 12L6 11L7 11L7 10L3 10L3 9L2 9L2 8L0 8L0 12L2 12L2 13L1 13L1 14L0 14L0 17L1 17L1 18L0 18L0 22L2 22L2 23L3 23L3 21L4 21L4 20L6 20L6 21L5 21L5 22L4 22L4 24L6 24L6 25L7 25L7 24L6 24L6 23L8 23L8 24L10 24L10 23L12 23L12 22L13 22L13 23L17 23L17 25L16 25L16 24L14 24L14 25L13 25L13 24L12 24L12 25L10 25L10 29L9 29L9 27L8 27L8 29L9 29L9 30L10 30L10 29L11 29L11 31L12 31L12 30L14 30L14 29L15 29L15 31L14 31L14 33L15 33L15 32L16 32L16 31L17 31L17 33L18 33L18 32L19 32L19 33L20 33L20 32L21 32L21 33L22 33L22 32L23 32L23 31L24 31L24 33L26 33L26 32L25 32L25 31L29 31L29 33L30 33L30 31L29 31L29 30L31 30L31 31L32 31L32 30L33 30L33 29L29 29L29 27L31 27L31 28L32 28L32 26L31 26L31 25L32 25L32 24L33 24L33 23L31 23L31 22L32 22L32 21L33 21L33 19L32 19L32 18L31 18L31 17L30 17L30 18L29 18L29 19L28 19L28 18L26 18L26 17L29 17L29 16L30 16L30 14L31 14L31 16L32 16L32 17L33 17L33 16L32 16L32 14L31 14L31 13L29 13L29 10L28 10L28 8L27 8L27 10L28 10L28 11L27 11L27 12L26 12L26 13L25 13L25 12L24 12L24 13L23 13L23 12L22 12L22 11L24 11L24 10L25 10L25 11L26 11L26 9L23 9L23 8L24 8L24 7L25 7L25 6L24 6L24 7L23 7L23 6L22 6L22 7L21 7L21 6L20 6L20 5L18 5L18 4L17 4L17 3L18 3L18 2L19 2L19 3L20 3L20 2L21 2L21 3L22 3L22 2L23 2L23 5L25 5L25 3L24 3L24 2L23 2L23 1L25 1L25 0L23 0L23 1L22 1L22 0L20 0L20 1L18 1L18 2L16 2L16 3L15 3L15 4L14 4L14 3L12 3L12 4L9 4L9 3L11 3L11 2L9 2L9 0ZM10 0L10 1L12 1L12 2L13 2L13 0ZM15 0L15 1L14 1L14 2L15 2L15 1L16 1L16 0ZM21 1L21 2L22 2L22 1ZM16 4L16 5L15 5L15 7L16 7L16 8L15 8L15 9L14 9L14 11L13 11L13 10L12 10L12 11L11 11L11 13L12 13L12 15L10 15L10 16L9 16L9 17L10 17L10 16L11 16L11 17L12 17L12 16L13 16L13 17L14 17L14 19L13 19L13 18L12 18L12 19L13 19L13 21L14 21L14 22L15 22L15 21L16 21L16 20L17 20L17 19L18 19L18 21L17 21L17 23L20 23L20 25L19 25L19 24L18 24L18 25L17 25L17 26L16 26L16 28L15 28L15 25L14 25L14 26L13 26L13 28L12 28L12 27L11 27L11 29L14 29L14 28L15 28L15 29L17 29L17 30L19 30L19 31L20 31L20 29L21 29L21 31L22 31L22 30L23 30L23 29L24 29L24 31L25 31L25 29L24 29L24 28L23 28L23 27L24 27L24 26L23 26L23 27L22 27L22 25L24 25L24 23L23 23L23 20L22 20L22 25L21 25L21 22L20 22L20 21L21 21L21 20L20 20L20 21L19 21L19 19L22 19L22 18L23 18L23 17L25 17L25 16L23 16L23 17L21 17L21 16L20 16L20 17L19 17L19 18L18 18L18 17L17 17L17 19L16 19L16 20L15 20L15 18L16 18L16 17L14 17L14 16L17 16L17 14L16 14L16 15L15 15L15 13L14 13L14 12L15 12L15 9L17 9L17 10L16 10L16 11L18 11L18 12L19 12L19 11L20 11L20 13L19 13L19 15L18 15L18 16L19 16L19 15L23 15L23 13L21 13L21 10L23 10L23 9L21 9L21 8L20 8L20 6L19 6L19 7L18 7L18 5L17 5L17 4ZM9 5L9 7L10 7L10 5ZM16 6L16 7L17 7L17 9L18 9L18 10L19 10L19 9L20 9L20 10L21 10L21 9L20 9L20 8L18 8L18 7L17 7L17 6ZM22 7L22 8L23 8L23 7ZM4 8L4 9L7 9L7 8ZM29 8L29 9L31 9L31 12L32 12L32 13L33 13L33 12L32 12L32 9L33 9L33 8ZM1 9L1 11L2 11L2 12L3 12L3 13L4 13L4 11L3 11L3 10L2 10L2 9ZM12 11L12 12L13 12L13 11ZM16 12L16 13L17 13L17 12ZM27 12L27 13L26 13L26 16L27 16L27 13L28 13L28 15L29 15L29 13L28 13L28 12ZM13 13L13 14L14 14L14 13ZM20 13L20 14L21 14L21 13ZM24 13L24 15L25 15L25 13ZM1 14L1 16L2 16L2 17L3 17L3 18L2 18L2 19L1 19L1 20L2 20L2 21L3 21L3 20L4 20L4 19L3 19L3 18L5 18L5 19L6 19L6 20L7 20L7 21L6 21L6 22L5 22L5 23L6 23L6 22L8 22L8 23L10 23L10 22L11 22L11 21L10 21L10 20L9 20L9 18L8 18L8 17L6 17L6 18L5 18L5 17L4 17L4 16L3 16L3 15L2 15L2 14ZM20 17L20 18L21 18L21 17ZM6 18L6 19L8 19L8 18ZM2 19L2 20L3 20L3 19ZM26 19L26 20L25 20L25 21L26 21L26 22L25 22L25 23L26 23L26 24L28 24L28 23L29 23L29 22L31 22L31 20L32 20L32 19L30 19L30 21L26 21L26 20L27 20L27 19ZM14 20L14 21L15 21L15 20ZM9 21L9 22L10 22L10 21ZM30 23L30 24L29 24L29 26L30 26L30 25L31 25L31 23ZM0 24L0 25L3 25L3 24ZM8 25L8 26L9 26L9 25ZM20 25L20 27L19 27L19 26L17 26L17 29L18 29L18 27L19 27L19 29L20 29L20 27L21 27L21 29L23 29L23 28L22 28L22 27L21 27L21 25ZM25 25L25 28L28 28L28 25ZM26 26L26 27L27 27L27 26ZM8 31L8 33L11 33L11 32L10 32L10 31ZM32 32L32 33L33 33L33 32ZM0 0L0 7L7 7L7 0ZM1 1L1 6L6 6L6 1ZM2 2L2 5L5 5L5 2ZM26 0L26 7L33 7L33 0ZM27 1L27 6L32 6L32 1ZM28 2L28 5L31 5L31 2ZM0 26L0 33L7 33L7 26ZM1 27L1 32L6 32L6 27ZM2 28L2 31L5 31L5 28Z" fill="#000000"/></g></g></svg>
