<?xml version="1.0" encoding="UTF-8"?>
<svg xmlns="http://www.w3.org/2000/svg" version="1.1" width="400" height="400" viewBox="0 0 400 400"><rect x="0" y="0" width="400" height="400" fill="#fefefe"/><g transform="scale(9.756)"><g transform="translate(4,4)"><path fill-rule="evenodd" d="M8 0L8 1L9 1L9 2L10 2L10 3L11 3L11 1L13 1L13 0L11 0L11 1L9 1L9 0ZM16 0L16 1L17 1L17 2L16 2L16 4L17 4L17 5L16 5L16 8L15 8L15 6L14 6L14 5L15 5L15 3L14 3L14 2L15 2L15 1L14 1L14 2L12 2L12 4L11 4L11 5L10 5L10 4L9 4L9 5L10 5L10 8L9 8L9 6L8 6L8 8L9 8L9 9L7 9L7 8L6 8L6 9L5 9L5 8L3 8L3 10L2 10L2 11L1 11L1 12L0 12L0 13L2 13L2 11L3 11L3 12L4 12L4 13L3 13L3 14L4 14L4 15L3 15L3 17L2 17L2 18L3 18L3 17L9 17L9 18L8 18L8 19L7 19L7 18L6 18L6 19L7 19L7 20L5 20L5 19L1 19L1 18L0 18L0 19L1 19L1 21L0 21L0 25L2 25L2 24L1 24L1 22L2 22L2 23L4 23L4 25L5 25L5 24L6 24L6 25L7 25L7 24L8 24L8 26L13 26L13 27L14 27L14 28L13 28L13 29L12 29L12 28L10 28L10 27L9 27L9 28L8 28L8 30L9 30L9 31L8 31L8 33L11 33L11 32L15 32L15 33L18 33L18 32L17 32L17 31L18 31L18 29L17 29L17 30L16 30L16 28L15 28L15 27L16 27L16 26L17 26L17 24L18 24L18 23L19 23L19 25L20 25L20 26L19 26L19 27L18 27L18 28L19 28L19 27L24 27L24 28L23 28L23 29L24 29L24 31L23 31L23 30L21 30L21 28L20 28L20 29L19 29L19 31L20 31L20 32L19 32L19 33L20 33L20 32L21 32L21 31L22 31L22 32L24 32L24 33L25 33L25 32L26 32L26 31L25 31L25 29L27 29L27 31L29 31L29 30L28 30L28 29L30 29L30 32L28 32L28 33L30 33L30 32L33 32L33 30L32 30L32 31L31 31L31 29L33 29L33 28L32 28L32 27L29 27L29 25L30 25L30 26L31 26L31 25L32 25L32 24L33 24L33 22L32 22L32 23L30 23L30 22L29 22L29 21L30 21L30 20L31 20L31 21L32 21L32 19L33 19L33 15L31 15L31 13L30 13L30 12L32 12L32 13L33 13L33 12L32 12L32 11L33 11L33 10L30 10L30 12L29 12L29 9L27 9L27 8L26 8L26 9L27 9L27 10L25 10L25 11L27 11L27 10L28 10L28 12L24 12L24 9L25 9L25 8L24 8L24 9L22 9L22 10L21 10L21 6L20 6L20 7L19 7L19 5L21 5L21 4L22 4L22 8L23 8L23 6L24 6L24 7L25 7L25 6L24 6L24 5L25 5L25 4L24 4L24 5L23 5L23 3L22 3L22 2L23 2L23 0L22 0L22 2L21 2L21 1L19 1L19 0ZM24 0L24 1L25 1L25 0ZM17 2L17 3L19 3L19 2ZM20 2L20 4L21 4L21 2ZM24 2L24 3L25 3L25 2ZM12 4L12 5L11 5L11 7L12 7L12 9L10 9L10 10L9 10L9 11L6 11L6 10L7 10L7 9L6 9L6 10L5 10L5 11L4 11L4 12L5 12L5 13L4 13L4 14L5 14L5 16L9 16L9 14L8 14L8 12L9 12L9 11L10 11L10 10L12 10L12 11L13 11L13 13L11 13L11 12L10 12L10 15L11 15L11 14L13 14L13 13L14 13L14 15L12 15L12 16L10 16L10 18L9 18L9 19L10 19L10 20L12 20L12 22L13 22L13 25L14 25L14 27L15 27L15 25L16 25L16 24L17 24L17 23L18 23L18 22L19 22L19 23L20 23L20 22L19 22L19 20L21 20L21 21L22 21L22 20L26 20L26 22L25 22L25 23L26 23L26 22L27 22L27 20L26 20L26 19L27 19L27 18L28 18L28 21L29 21L29 20L30 20L30 19L32 19L32 18L30 18L30 19L29 19L29 18L28 18L28 16L27 16L27 18L26 18L26 15L24 15L24 14L27 14L27 15L29 15L29 16L30 16L30 17L31 17L31 16L30 16L30 14L29 14L29 12L28 12L28 14L27 14L27 13L24 13L24 14L23 14L23 15L22 15L22 12L23 12L23 11L21 11L21 10L19 10L19 11L21 11L21 12L20 12L20 13L19 13L19 14L16 14L16 16L15 16L15 18L17 18L17 20L16 20L16 19L15 19L15 20L13 20L13 19L14 19L14 17L13 17L13 18L12 18L12 19L10 19L10 18L11 18L11 17L12 17L12 16L14 16L14 15L15 15L15 13L16 13L16 11L13 11L13 10L15 10L15 8L13 8L13 7L14 7L14 6L13 6L13 7L12 7L12 5L14 5L14 4ZM18 4L18 5L17 5L17 8L19 8L19 9L20 9L20 8L19 8L19 7L18 7L18 5L19 5L19 4ZM0 8L0 9L2 9L2 8ZM32 8L32 9L33 9L33 8ZM12 9L12 10L13 10L13 9ZM16 9L16 10L17 10L17 11L18 11L18 9ZM5 11L5 12L6 12L6 13L5 13L5 14L6 14L6 15L7 15L7 14L6 14L6 13L7 13L7 12L6 12L6 11ZM14 12L14 13L15 13L15 12ZM17 12L17 13L18 13L18 12ZM20 13L20 14L19 14L19 15L18 15L18 17L17 17L17 16L16 16L16 17L17 17L17 18L18 18L18 20L17 20L17 21L18 21L18 20L19 20L19 19L22 19L22 18L20 18L20 17L19 17L19 15L20 15L20 16L21 16L21 13ZM1 14L1 16L0 16L0 17L1 17L1 16L2 16L2 14ZM23 16L23 17L24 17L24 18L23 18L23 19L24 19L24 18L25 18L25 17L24 17L24 16ZM7 20L7 21L2 21L2 22L5 22L5 23L6 23L6 24L7 24L7 23L6 23L6 22L7 22L7 21L8 21L8 24L9 24L9 25L11 25L11 24L12 24L12 23L10 23L10 22L11 22L11 21L8 21L8 20ZM15 20L15 23L14 23L14 25L15 25L15 24L16 24L16 20ZM28 22L28 23L27 23L27 24L29 24L29 22ZM9 23L9 24L10 24L10 23ZM21 23L21 24L20 24L20 25L21 25L21 26L23 26L23 24L24 24L24 23ZM30 24L30 25L31 25L31 24ZM25 25L25 28L28 28L28 25ZM26 26L26 27L27 27L27 26ZM30 28L30 29L31 29L31 28ZM11 29L11 30L10 30L10 31L9 31L9 32L11 32L11 30L12 30L12 29ZM13 29L13 30L14 30L14 29ZM15 31L15 32L16 32L16 31ZM24 31L24 32L25 32L25 31ZM0 0L0 7L7 7L7 0ZM1 1L1 6L6 6L6 1ZM2 2L2 5L5 5L5 2ZM26 0L26 7L33 7L33 0ZM27 1L27 6L32 6L32 1ZM28 2L28 5L31 5L31 2ZM0 26L0 33L7 33L7 26ZM1 27L1 32L6 32L6 27ZM2 28L2 31L5 31L5 28Z" fill="#000000"/></g></g></svg>
