<?xml version="1.0" encoding="UTF-8"?>
<svg xmlns="http://www.w3.org/2000/svg" version="1.1" width="400" height="400" viewBox="0 0 400 400"><rect x="0" y="0" width="400" height="400" fill="#fefefe"/><g transform="scale(9.756)"><g transform="translate(4,4)"><path fill-rule="evenodd" d="M8 0L8 4L9 4L9 5L8 5L8 7L9 7L9 8L10 8L10 7L11 7L11 5L12 5L12 7L13 7L13 5L14 5L14 7L15 7L15 8L14 8L14 9L13 9L13 8L12 8L12 9L11 9L11 11L10 11L10 13L11 13L11 14L9 14L9 13L8 13L8 12L9 12L9 10L10 10L10 9L8 9L8 11L7 11L7 10L6 10L6 9L7 9L7 8L4 8L4 9L3 9L3 10L2 10L2 8L0 8L0 9L1 9L1 10L0 10L0 18L2 18L2 19L4 19L4 20L2 20L2 21L1 21L1 19L0 19L0 22L4 22L4 23L5 23L5 24L6 24L6 25L8 25L8 26L9 26L9 27L8 27L8 29L10 29L10 31L8 31L8 33L10 33L10 32L11 32L11 33L12 33L12 31L13 31L13 30L14 30L14 29L15 29L15 32L14 32L14 33L15 33L15 32L16 32L16 31L17 31L17 33L18 33L18 32L19 32L19 30L17 30L17 29L18 29L18 27L19 27L19 29L20 29L20 30L21 30L21 29L22 29L22 31L21 31L21 33L22 33L22 31L23 31L23 29L22 29L22 26L21 26L21 25L23 25L23 24L22 24L22 20L23 20L23 23L24 23L24 22L25 22L25 21L27 21L27 22L26 22L26 23L27 23L27 24L24 24L24 30L25 30L25 31L24 31L24 33L28 33L28 32L29 32L29 33L30 33L30 31L29 31L29 30L31 30L31 31L32 31L32 30L33 30L33 29L29 29L29 27L31 27L31 28L32 28L32 26L31 26L31 25L32 25L32 24L33 24L33 23L31 23L31 22L32 22L32 21L33 21L33 19L32 19L32 18L31 18L31 17L30 17L30 18L28 18L28 21L27 21L27 20L26 20L26 19L27 19L27 18L26 18L26 17L29 17L29 16L30 16L30 14L31 14L31 16L32 16L32 17L33 17L33 16L32 16L32 14L31 14L31 13L29 13L29 10L28 10L28 12L25 12L25 11L24 11L24 10L25 10L25 9L22 9L22 7L23 7L23 8L24 8L24 7L25 7L25 6L24 6L24 7L23 7L23 6L22 6L22 7L21 7L21 6L20 6L20 5L24 5L24 2L23 2L23 1L25 1L25 0L23 0L23 1L22 1L22 0L21 0L21 1L22 1L22 2L20 2L20 1L19 1L19 0L18 0L18 1L17 1L17 2L16 2L16 3L15 3L15 4L14 4L14 3L12 3L12 4L9 4L9 3L11 3L11 2L9 2L9 0ZM10 0L10 1L12 1L12 2L13 2L13 0ZM15 0L15 1L14 1L14 2L15 2L15 1L16 1L16 0ZM18 1L18 3L17 3L17 4L16 4L16 5L15 5L15 7L16 7L16 8L15 8L15 9L14 9L14 11L13 11L13 10L12 10L12 11L11 11L11 13L12 13L12 15L11 15L11 17L10 17L10 16L7 16L7 15L8 15L8 14L7 14L7 13L5 13L5 11L3 11L3 12L4 12L4 14L2 14L2 13L1 13L1 14L2 14L2 15L1 15L1 16L2 16L2 15L5 15L5 16L4 16L4 17L3 17L3 18L4 18L4 19L6 19L6 20L5 20L5 23L6 23L6 24L7 24L7 23L6 23L6 22L8 22L8 25L9 25L9 24L10 24L10 25L12 25L12 24L13 24L13 25L14 25L14 26L13 26L13 28L11 28L11 29L14 29L14 28L15 28L15 29L17 29L17 26L19 26L19 27L20 27L20 29L21 29L21 27L20 27L20 25L21 25L21 24L20 24L20 23L21 23L21 21L19 21L19 20L20 20L20 18L21 18L21 19L22 19L22 18L23 18L23 17L25 17L25 16L23 16L23 17L19 17L19 18L18 18L18 17L17 17L17 19L16 19L16 20L15 20L15 18L16 18L16 17L14 17L14 16L17 16L17 14L16 14L16 15L15 15L15 13L14 13L14 12L15 12L15 9L17 9L17 10L16 10L16 11L18 11L18 12L19 12L19 11L20 11L20 13L19 13L19 15L18 15L18 16L19 16L19 15L21 15L21 14L22 14L22 13L25 13L25 14L24 14L24 15L26 15L26 16L28 16L28 15L29 15L29 13L25 13L25 12L24 12L24 11L23 11L23 10L22 10L22 9L19 9L19 10L18 10L18 9L17 9L17 7L18 7L18 8L20 8L20 6L19 6L19 5L20 5L20 3L19 3L19 1ZM22 2L22 3L21 3L21 4L22 4L22 3L23 3L23 2ZM9 5L9 7L10 7L10 5ZM16 6L16 7L17 7L17 6ZM18 6L18 7L19 7L19 6ZM27 8L27 9L28 9L28 8ZM29 8L29 9L31 9L31 12L32 12L32 13L33 13L33 12L32 12L32 9L33 9L33 8ZM4 9L4 10L5 10L5 9ZM26 10L26 11L27 11L27 10ZM1 11L1 12L2 12L2 11ZM6 11L6 12L7 12L7 11ZM12 11L12 12L13 12L13 11ZM21 11L21 13L20 13L20 14L21 14L21 13L22 13L22 12L23 12L23 11ZM16 12L16 13L17 13L17 12ZM13 13L13 14L14 14L14 13ZM6 14L6 15L7 15L7 14ZM26 14L26 15L28 15L28 14ZM6 16L6 17L5 17L5 18L6 18L6 19L7 19L7 20L6 20L6 21L8 21L8 22L9 22L9 21L8 21L8 20L9 20L9 19L10 19L10 21L11 21L11 22L10 22L10 23L12 23L12 22L13 22L13 23L17 23L17 25L16 25L16 24L14 24L14 25L15 25L15 28L16 28L16 26L17 26L17 25L18 25L18 24L19 24L19 25L20 25L20 24L19 24L19 23L17 23L17 21L18 21L18 19L17 19L17 20L16 20L16 21L15 21L15 20L14 20L14 21L13 21L13 19L14 19L14 17L13 17L13 16L12 16L12 17L11 17L11 19L10 19L10 18L6 18L6 17L7 17L7 16ZM12 18L12 19L13 19L13 18ZM30 19L30 21L28 21L28 22L27 22L27 23L28 23L28 24L29 24L29 26L30 26L30 25L31 25L31 23L30 23L30 24L29 24L29 23L28 23L28 22L31 22L31 20L32 20L32 19ZM14 21L14 22L15 22L15 21ZM2 23L2 24L0 24L0 25L3 25L3 23ZM25 25L25 28L28 28L28 25ZM10 26L10 27L11 27L11 26ZM26 26L26 27L27 27L27 26ZM25 31L25 32L27 32L27 31ZM32 32L32 33L33 33L33 32ZM0 0L0 7L7 7L7 0ZM1 1L1 6L6 6L6 1ZM2 2L2 5L5 5L5 2ZM26 0L26 7L33 7L33 0ZM27 1L27 6L32 6L32 1ZM28 2L28 5L31 5L31 2ZM0 26L0 33L7 33L7 26ZM1 27L1 32L6 32L6 27ZM2 28L2 31L5 31L5 28Z" fill="#000000"/></g></g></svg>
