<?xml version="1.0" encoding="UTF-8"?>
<svg xmlns="http://www.w3.org/2000/svg" version="1.1" width="400" height="400" viewBox="0 0 400 400"><rect x="0" y="0" width="400" height="400" fill="#fefefe"/><g transform="scale(9.756)"><g transform="translate(4,4)"><path fill-rule="evenodd" d="M10 0L10 2L11 2L11 0ZM12 0L12 1L13 1L13 2L12 2L12 4L14 4L14 3L13 3L13 2L14 2L14 1L15 1L15 2L16 2L16 1L15 1L15 0ZM18 0L18 2L19 2L19 3L20 3L20 4L18 4L18 3L17 3L17 4L18 4L18 5L17 5L17 6L16 6L16 5L15 5L15 6L14 6L14 5L11 5L11 6L10 6L10 4L11 4L11 3L8 3L8 4L9 4L9 5L8 5L8 7L9 7L9 8L6 8L6 9L5 9L5 8L0 8L0 12L1 12L1 14L3 14L3 17L4 17L4 18L3 18L3 19L4 19L4 20L3 20L3 22L2 22L2 19L0 19L0 25L1 25L1 22L2 22L2 25L3 25L3 23L4 23L4 24L5 24L5 25L8 25L8 27L9 27L9 28L8 28L8 33L9 33L9 29L10 29L10 27L9 27L9 25L10 25L10 24L12 24L12 25L11 25L11 26L13 26L13 25L14 25L14 26L15 26L15 29L14 29L14 28L13 28L13 27L11 27L11 28L13 28L13 29L11 29L11 30L10 30L10 33L12 33L12 32L13 32L13 33L14 33L14 32L13 32L13 31L12 31L12 32L11 32L11 30L13 30L13 29L14 29L14 30L15 30L15 33L16 33L16 32L17 32L17 33L18 33L18 32L17 32L17 31L16 31L16 30L17 30L17 29L18 29L18 28L19 28L19 30L20 30L20 29L21 29L21 30L23 30L23 32L24 32L24 33L26 33L26 31L27 31L27 32L28 32L28 31L27 31L27 30L29 30L29 31L30 31L30 32L29 32L29 33L30 33L30 32L31 32L31 33L32 33L32 32L31 32L31 31L32 31L32 30L31 30L31 29L32 29L32 28L33 28L33 27L32 27L32 26L33 26L33 23L30 23L30 24L32 24L32 25L30 25L30 26L31 26L31 27L29 27L29 24L28 24L28 23L29 23L29 22L28 22L28 21L30 21L30 20L31 20L31 19L32 19L32 20L33 20L33 19L32 19L32 18L33 18L33 17L32 17L32 14L33 14L33 13L32 13L32 10L33 10L33 9L32 9L32 8L31 8L31 9L32 9L32 10L29 10L29 12L27 12L27 13L23 13L23 12L22 12L22 10L25 10L25 11L24 11L24 12L26 12L26 10L27 10L27 11L28 11L28 8L27 8L27 9L26 9L26 8L25 8L25 5L24 5L24 4L25 4L25 0L23 0L23 1L21 1L21 0ZM8 1L8 2L9 2L9 1ZM19 1L19 2L21 2L21 1ZM23 1L23 2L24 2L24 1ZM15 3L15 4L16 4L16 3ZM21 3L21 4L20 4L20 5L19 5L19 7L18 7L18 6L17 6L17 8L16 8L16 9L15 9L15 7L16 7L16 6L15 6L15 7L14 7L14 6L13 6L13 7L12 7L12 6L11 6L11 7L12 7L12 9L11 9L11 8L10 8L10 9L6 9L6 10L5 10L5 9L3 9L3 11L2 11L2 9L1 9L1 12L2 12L2 13L3 13L3 14L4 14L4 17L5 17L5 19L6 19L6 20L4 20L4 23L6 23L6 24L8 24L8 23L6 23L6 22L7 22L7 21L6 21L6 20L7 20L7 19L6 19L6 18L8 18L8 19L10 19L10 20L12 20L12 22L11 22L11 23L12 23L12 22L13 22L13 24L14 24L14 25L15 25L15 26L16 26L16 25L17 25L17 28L16 28L16 29L15 29L15 30L16 30L16 29L17 29L17 28L18 28L18 27L19 27L19 28L21 28L21 29L23 29L23 30L27 30L27 29L24 29L24 28L21 28L21 27L23 27L23 26L24 26L24 24L26 24L26 23L28 23L28 22L23 22L23 20L25 20L25 21L28 21L28 20L30 20L30 19L31 19L31 18L30 18L30 17L31 17L31 16L30 16L30 14L29 14L29 13L31 13L31 12L29 12L29 13L27 13L27 14L29 14L29 15L28 15L28 16L29 16L29 17L27 17L27 15L26 15L26 14L25 14L25 15L24 15L24 14L23 14L23 13L22 13L22 12L21 12L21 13L20 13L20 11L21 11L21 10L19 10L19 13L20 13L20 14L17 14L17 16L18 16L18 15L20 15L20 16L19 16L19 17L20 17L20 18L19 18L19 20L18 20L18 19L17 19L17 18L18 18L18 17L17 17L17 18L16 18L16 19L17 19L17 20L18 20L18 21L17 21L17 22L16 22L16 21L15 21L15 18L14 18L14 17L16 17L16 15L15 15L15 14L16 14L16 13L17 13L17 12L18 12L18 11L16 11L16 12L15 12L15 10L16 10L16 9L17 9L17 10L18 10L18 9L17 9L17 8L19 8L19 9L25 9L25 8L24 8L24 5L23 5L23 4L24 4L24 3L23 3L23 4L22 4L22 3ZM21 4L21 5L20 5L20 7L21 7L21 8L22 8L22 7L23 7L23 6L22 6L22 7L21 7L21 5L22 5L22 4ZM9 6L9 7L10 7L10 6ZM13 8L13 9L12 9L12 10L13 10L13 11L12 11L12 13L14 13L14 14L15 14L15 13L14 13L14 12L13 12L13 11L14 11L14 10L15 10L15 9L14 9L14 8ZM29 8L29 9L30 9L30 8ZM10 9L10 11L11 11L11 9ZM13 9L13 10L14 10L14 9ZM4 10L4 11L3 11L3 13L5 13L5 14L6 14L6 15L7 15L7 14L6 14L6 13L7 13L7 12L9 12L9 13L11 13L11 12L9 12L9 11L7 11L7 10L6 10L6 11L7 11L7 12L4 12L4 11L5 11L5 10ZM21 13L21 14L20 14L20 15L21 15L21 16L20 16L20 17L21 17L21 18L20 18L20 21L19 21L19 22L17 22L17 23L16 23L16 22L15 22L15 21L14 21L14 20L13 20L13 21L14 21L14 24L15 24L15 23L16 23L16 24L17 24L17 25L18 25L18 24L17 24L17 23L19 23L19 24L20 24L20 23L21 23L21 24L22 24L22 25L19 25L19 26L22 26L22 25L23 25L23 22L20 22L20 21L21 21L21 20L23 20L23 19L21 19L21 18L22 18L22 17L23 17L23 18L25 18L25 20L26 20L26 19L27 19L27 17L26 17L26 18L25 18L25 17L23 17L23 15L22 15L22 13ZM11 14L11 15L10 15L10 16L11 16L11 17L12 17L12 18L13 18L13 19L14 19L14 18L13 18L13 17L14 17L14 16L12 16L12 15L13 15L13 14ZM0 15L0 16L1 16L1 18L2 18L2 15ZM8 15L8 16L9 16L9 15ZM5 16L5 17L7 17L7 16ZM21 16L21 17L22 17L22 16ZM8 17L8 18L9 18L9 17ZM28 18L28 19L29 19L29 18ZM5 21L5 22L6 22L6 21ZM9 21L9 23L10 23L10 21ZM32 21L32 22L33 22L33 21ZM19 22L19 23L20 23L20 22ZM25 25L25 28L28 28L28 25ZM26 26L26 27L27 27L27 26ZM29 28L29 29L31 29L31 28ZM21 31L21 32L19 32L19 33L21 33L21 32L22 32L22 31ZM24 31L24 32L25 32L25 31ZM0 0L0 7L7 7L7 0ZM1 1L1 6L6 6L6 1ZM2 2L2 5L5 5L5 2ZM26 0L26 7L33 7L33 0ZM27 1L27 6L32 6L32 1ZM28 2L28 5L31 5L31 2ZM0 26L0 33L7 33L7 26ZM1 27L1 32L6 32L6 27ZM2 28L2 31L5 31L5 28Z" fill="#000000"/></g></g></svg>
