<?xml version="1.0" encoding="UTF-8"?>
<svg xmlns="http://www.w3.org/2000/svg" version="1.1" width="400" height="400" viewBox="0 0 400 400"><rect x="0" y="0" width="400" height="400" fill="#fefefe"/><g transform="scale(9.756)"><g transform="translate(4,4)"><path fill-rule="evenodd" d="M8 0L8 4L9 4L9 5L8 5L8 7L9 7L9 8L10 8L10 7L11 7L11 5L12 5L12 7L13 7L13 5L14 5L14 7L15 7L15 8L14 8L14 9L13 9L13 8L12 8L12 9L11 9L11 11L10 11L10 13L11 13L11 15L10 15L10 14L9 14L9 13L8 13L8 16L9 16L9 17L7 17L7 16L6 16L6 17L7 17L7 18L5 18L5 19L3 19L3 18L4 18L4 15L5 15L5 14L4 14L4 12L5 12L5 13L7 13L7 12L8 12L8 11L9 11L9 10L10 10L10 9L7 9L7 8L4 8L4 9L5 9L5 10L3 10L3 9L2 9L2 8L0 8L0 10L1 10L1 16L2 16L2 17L3 17L3 18L2 18L2 19L0 19L0 22L1 22L1 21L3 21L3 22L2 22L2 23L5 23L5 24L3 24L3 25L7 25L7 24L6 24L6 23L7 23L7 22L5 22L5 19L7 19L7 20L6 20L6 21L8 21L8 23L9 23L9 22L10 22L10 23L12 23L12 22L14 22L14 25L13 25L13 24L12 24L12 25L11 25L11 26L10 26L10 27L11 27L11 28L12 28L12 26L14 26L14 25L15 25L15 28L14 28L14 29L9 29L9 27L8 27L8 29L9 29L9 31L8 31L8 33L9 33L9 32L10 32L10 33L11 33L11 31L12 31L12 30L14 30L14 29L15 29L15 32L14 32L14 33L15 33L15 32L16 32L16 31L17 31L17 33L18 33L18 32L19 32L19 33L23 33L23 32L22 32L22 31L24 31L24 33L25 33L25 31L28 31L28 32L26 32L26 33L28 33L28 32L29 32L29 33L30 33L30 31L29 31L29 30L31 30L31 31L32 31L32 30L33 30L33 29L29 29L29 27L31 27L31 28L32 28L32 26L31 26L31 25L32 25L32 24L33 24L33 23L31 23L31 22L32 22L32 21L33 21L33 19L32 19L32 18L31 18L31 17L30 17L30 18L29 18L29 19L28 19L28 17L29 17L29 16L30 16L30 14L31 14L31 16L32 16L32 17L33 17L33 16L32 16L32 14L31 14L31 13L29 13L29 10L28 10L28 13L27 13L27 12L25 12L25 11L24 11L24 9L25 9L25 6L24 6L24 7L23 7L23 6L22 6L22 7L21 7L21 5L25 5L25 3L24 3L24 2L23 2L23 1L25 1L25 0L23 0L23 1L22 1L22 0L21 0L21 1L22 1L22 2L21 2L21 3L22 3L22 4L21 4L21 5L19 5L19 3L18 3L18 2L20 2L20 1L19 1L19 0L18 0L18 1L17 1L17 2L16 2L16 3L15 3L15 4L14 4L14 3L12 3L12 4L9 4L9 3L11 3L11 2L9 2L9 0ZM10 0L10 1L12 1L12 2L13 2L13 0ZM15 0L15 1L14 1L14 2L15 2L15 1L16 1L16 0ZM22 2L22 3L23 3L23 2ZM17 3L17 4L16 4L16 5L15 5L15 7L16 7L16 8L15 8L15 9L14 9L14 11L13 11L13 10L12 10L12 11L11 11L11 13L12 13L12 15L11 15L11 16L10 16L10 15L9 15L9 16L10 16L10 18L11 18L11 17L12 17L12 16L13 16L13 17L14 17L14 19L13 19L13 18L12 18L12 19L13 19L13 21L14 21L14 22L15 22L15 21L16 21L16 20L17 20L17 19L18 19L18 21L17 21L17 23L15 23L15 24L16 24L16 25L17 25L17 26L16 26L16 28L15 28L15 29L17 29L17 30L19 30L19 31L21 31L21 30L22 30L22 29L23 29L23 30L24 30L24 31L25 31L25 29L24 29L24 28L23 28L23 27L24 27L24 26L23 26L23 27L22 27L22 29L21 29L21 28L20 28L20 29L19 29L19 27L21 27L21 26L22 26L22 25L24 25L24 24L25 24L25 23L23 23L23 18L22 18L22 17L25 17L25 16L26 16L26 15L27 15L27 17L26 17L26 18L27 18L27 17L28 17L28 15L29 15L29 13L28 13L28 15L27 15L27 13L24 13L24 12L23 12L23 10L22 10L22 9L24 9L24 8L23 8L23 7L22 7L22 9L21 9L21 7L20 7L20 6L19 6L19 7L18 7L18 6L17 6L17 5L18 5L18 3ZM9 5L9 7L10 7L10 5ZM16 6L16 7L17 7L17 9L15 9L15 12L14 12L14 13L13 13L13 14L14 14L14 13L15 13L15 15L16 15L16 14L17 14L17 16L14 16L14 17L16 17L16 18L15 18L15 20L14 20L14 21L15 21L15 20L16 20L16 19L17 19L17 17L18 17L18 18L19 18L19 16L18 16L18 15L19 15L19 13L22 13L22 14L20 14L20 15L21 15L21 17L20 17L20 18L21 18L21 19L19 19L19 21L20 21L20 22L21 22L21 24L20 24L20 23L17 23L17 25L18 25L18 24L19 24L19 25L22 25L22 18L21 18L21 17L22 17L22 15L23 15L23 16L25 16L25 15L26 15L26 14L25 14L25 15L24 15L24 13L22 13L22 10L21 10L21 9L20 9L20 7L19 7L19 8L18 8L18 7L17 7L17 6ZM27 8L27 9L28 9L28 8ZM29 8L29 9L31 9L31 12L32 12L32 13L33 13L33 12L32 12L32 9L33 9L33 8ZM1 9L1 10L2 10L2 9ZM6 9L6 10L5 10L5 11L6 11L6 12L7 12L7 11L8 11L8 10L7 10L7 9ZM17 9L17 10L16 10L16 11L18 11L18 12L20 12L20 9L19 9L19 10L18 10L18 9ZM6 10L6 11L7 11L7 10ZM26 10L26 11L27 11L27 10ZM2 11L2 15L4 15L4 14L3 14L3 12L4 12L4 11ZM12 11L12 12L13 12L13 11ZM16 12L16 13L17 13L17 12ZM6 14L6 15L7 15L7 14ZM0 17L0 18L1 18L1 17ZM2 19L2 20L3 20L3 21L4 21L4 20L3 20L3 19ZM8 19L8 21L9 21L9 20L10 20L10 21L11 21L11 19ZM26 19L26 20L25 20L25 21L26 21L26 24L27 24L27 23L28 23L28 22L31 22L31 20L32 20L32 19L30 19L30 21L26 21L26 20L27 20L27 19ZM20 20L20 21L21 21L21 20ZM30 23L30 24L29 24L29 26L30 26L30 25L31 25L31 23ZM0 24L0 25L2 25L2 24ZM8 24L8 26L9 26L9 25L10 25L10 24ZM25 25L25 28L28 28L28 25ZM17 26L17 29L18 29L18 27L19 27L19 26ZM26 26L26 27L27 27L27 26ZM20 29L20 30L21 30L21 29ZM32 32L32 33L33 33L33 32ZM0 0L0 7L7 7L7 0ZM1 1L1 6L6 6L6 1ZM2 2L2 5L5 5L5 2ZM26 0L26 7L33 7L33 0ZM27 1L27 6L32 6L32 1ZM28 2L28 5L31 5L31 2ZM0 26L0 33L7 33L7 26ZM1 27L1 32L6 32L6 27ZM2 28L2 31L5 31L5 28Z" fill="#000000"/></g></g></svg>
