<?xml version="1.0" encoding="UTF-8"?>
<svg xmlns="http://www.w3.org/2000/svg" version="1.1" width="400" height="400" viewBox="0 0 400 400"><rect x="0" y="0" width="400" height="400" fill="#fefefe"/><g transform="scale(9.756)"><g transform="translate(4,4)"><path fill-rule="evenodd" d="M8 0L8 1L10 1L10 0ZM12 0L12 2L9 2L9 4L10 4L10 5L11 5L11 6L10 6L10 8L9 8L9 6L8 6L8 8L9 8L9 10L8 10L8 9L7 9L7 8L6 8L6 9L5 9L5 8L3 8L3 9L2 9L2 8L0 8L0 9L2 9L2 10L3 10L3 9L4 9L4 10L5 10L5 11L3 11L3 12L2 12L2 11L1 11L1 13L0 13L0 14L1 14L1 13L3 13L3 14L2 14L2 15L1 15L1 16L0 16L0 17L1 17L1 18L0 18L0 19L1 19L1 20L0 20L0 25L3 25L3 24L4 24L4 25L5 25L5 24L4 24L4 23L2 23L2 24L1 24L1 20L3 20L3 21L2 21L2 22L3 22L3 21L4 21L4 22L6 22L6 23L7 23L7 22L8 22L8 23L9 23L9 22L10 22L10 23L12 23L12 24L9 24L9 25L8 25L8 26L9 26L9 27L10 27L10 28L8 28L8 30L9 30L9 29L11 29L11 27L10 27L10 26L12 26L12 28L13 28L13 29L12 29L12 30L10 30L10 31L12 31L12 32L14 32L14 31L16 31L16 32L15 32L15 33L18 33L18 32L17 32L17 31L18 31L18 29L17 29L17 30L16 30L16 28L15 28L15 27L16 27L16 26L17 26L17 24L18 24L18 23L19 23L19 25L21 25L21 24L20 24L20 23L19 23L19 22L21 22L21 23L24 23L24 24L23 24L23 25L24 25L24 26L23 26L23 30L24 30L24 31L25 31L25 32L22 32L22 33L25 33L25 32L27 32L27 31L25 31L25 30L24 30L24 29L30 29L30 32L29 32L29 30L28 30L28 33L30 33L30 32L33 32L33 30L32 30L32 31L31 31L31 29L32 29L32 28L33 28L33 27L29 27L29 25L30 25L30 26L31 26L31 25L32 25L32 24L33 24L33 22L32 22L32 23L30 23L30 22L29 22L29 21L30 21L30 20L31 20L31 21L32 21L32 19L33 19L33 15L31 15L31 13L30 13L30 12L32 12L32 13L33 13L33 12L32 12L32 11L33 11L33 10L30 10L30 12L29 12L29 11L27 11L27 10L26 10L26 9L27 9L27 8L26 8L26 9L25 9L25 6L24 6L24 5L23 5L23 3L24 3L24 4L25 4L25 2L23 2L23 0L22 0L22 2L20 2L20 1L21 1L21 0L20 0L20 1L18 1L18 0L16 0L16 1L17 1L17 2L16 2L16 4L17 4L17 5L16 5L16 8L15 8L15 6L14 6L14 5L15 5L15 3L14 3L14 2L15 2L15 1L14 1L14 2L13 2L13 0ZM24 0L24 1L25 1L25 0ZM17 2L17 3L18 3L18 2ZM22 2L22 3L23 3L23 2ZM10 3L10 4L11 4L11 5L12 5L12 4L13 4L13 5L14 5L14 4L13 4L13 3L12 3L12 4L11 4L11 3ZM19 3L19 4L18 4L18 5L17 5L17 8L19 8L19 7L20 7L20 5L19 5L19 4L21 4L21 8L20 8L20 10L19 10L19 12L20 12L20 10L23 10L23 9L24 9L24 13L26 13L26 15L28 15L28 14L29 14L29 16L30 16L30 17L31 17L31 16L30 16L30 14L29 14L29 12L27 12L27 13L26 13L26 12L25 12L25 9L24 9L24 8L23 8L23 9L22 9L22 4L21 4L21 3ZM18 5L18 7L19 7L19 5ZM11 6L11 7L12 7L12 6ZM13 6L13 7L14 7L14 6ZM23 6L23 7L24 7L24 6ZM11 8L11 9L12 9L12 8ZM13 8L13 10L15 10L15 8ZM32 8L32 9L33 9L33 8ZM6 9L6 10L7 10L7 11L6 11L6 12L4 12L4 17L3 17L3 16L2 16L2 17L3 17L3 18L4 18L4 17L5 17L5 13L6 13L6 14L7 14L7 13L8 13L8 14L11 14L11 15L8 15L8 17L6 17L6 18L5 18L5 19L4 19L4 21L5 21L5 20L7 20L7 21L6 21L6 22L7 22L7 21L8 21L8 22L9 22L9 21L8 21L8 20L10 20L10 22L11 22L11 20L13 20L13 25L14 25L14 27L13 27L13 28L14 28L14 27L15 27L15 25L16 25L16 24L17 24L17 23L18 23L18 22L19 22L19 21L20 21L20 20L18 20L18 18L17 18L17 17L18 17L18 15L19 15L19 16L20 16L20 19L21 19L21 21L22 21L22 19L23 19L23 20L26 20L26 22L25 22L25 23L26 23L26 24L28 24L28 23L26 23L26 22L27 22L27 20L26 20L26 19L27 19L27 18L28 18L28 16L27 16L27 18L26 18L26 16L25 16L25 15L24 15L24 14L23 14L23 12L22 12L22 11L21 11L21 13L19 13L19 14L16 14L16 16L15 16L15 18L17 18L17 20L16 20L16 19L15 19L15 20L13 20L13 19L14 19L14 17L13 17L13 19L11 19L11 18L12 18L12 17L11 17L11 18L10 18L10 17L9 17L9 16L11 16L11 15L12 15L12 14L13 14L13 13L14 13L14 15L13 15L13 16L14 16L14 15L15 15L15 13L16 13L16 11L11 11L11 12L10 12L10 13L9 13L9 11L10 11L10 10L9 10L9 11L8 11L8 10L7 10L7 9ZM16 9L16 10L17 10L17 11L18 11L18 9ZM28 9L28 10L29 10L29 9ZM7 11L7 12L6 12L6 13L7 13L7 12L8 12L8 11ZM11 12L11 14L12 14L12 12ZM14 12L14 13L15 13L15 12ZM17 12L17 13L18 13L18 12ZM19 14L19 15L20 15L20 16L21 16L21 15L23 15L23 14L21 14L21 15L20 15L20 14ZM6 15L6 16L7 16L7 15ZM16 16L16 17L17 17L17 16ZM23 16L23 17L24 17L24 18L23 18L23 19L24 19L24 18L25 18L25 17L24 17L24 16ZM6 18L6 19L7 19L7 18ZM21 18L21 19L22 19L22 18ZM30 18L30 19L28 19L28 21L29 21L29 20L30 20L30 19L32 19L32 18ZM10 19L10 20L11 20L11 19ZM15 20L15 23L14 23L14 25L15 25L15 24L16 24L16 20ZM17 20L17 21L18 21L18 20ZM6 24L6 25L7 25L7 24ZM30 24L30 25L31 25L31 24ZM9 25L9 26L10 26L10 25ZM25 25L25 28L28 28L28 25ZM19 26L19 27L18 27L18 28L20 28L20 26ZM21 26L21 27L22 27L22 26ZM26 26L26 27L27 27L27 26ZM30 28L30 29L31 29L31 28ZM13 29L13 30L14 30L14 29ZM19 29L19 32L20 32L20 33L21 33L21 31L22 31L22 30L21 30L21 31L20 31L20 29ZM8 31L8 33L9 33L9 31ZM10 32L10 33L11 33L11 32ZM0 0L0 7L7 7L7 0ZM1 1L1 6L6 6L6 1ZM2 2L2 5L5 5L5 2ZM26 0L26 7L33 7L33 0ZM27 1L27 6L32 6L32 1ZM28 2L28 5L31 5L31 2ZM0 26L0 33L7 33L7 26ZM1 27L1 32L6 32L6 27ZM2 28L2 31L5 31L5 28Z" fill="#000000"/></g></g></svg>
