<?xml version="1.0" encoding="UTF-8"?>
<svg xmlns="http://www.w3.org/2000/svg" version="1.1" width="400" height="400" viewBox="0 0 400 400"><rect x="0" y="0" width="400" height="400" fill="#fefefe"/><g transform="scale(9.756)"><g transform="translate(4,4)"><path fill-rule="evenodd" d="M9 0L9 1L8 1L8 2L9 2L9 3L8 3L8 4L9 4L9 3L10 3L10 5L8 5L8 7L9 7L9 8L6 8L6 9L5 9L5 8L0 8L0 9L3 9L3 10L6 10L6 11L5 11L5 12L4 12L4 13L3 13L3 15L1 15L1 12L0 12L0 20L1 20L1 21L0 21L0 25L1 25L1 21L2 21L2 22L3 22L3 23L2 23L2 25L4 25L4 24L3 24L3 23L7 23L7 22L8 22L8 21L9 21L9 19L7 19L7 18L8 18L8 17L7 17L7 16L8 16L8 15L7 15L7 14L6 14L6 13L8 13L8 11L9 11L9 10L8 10L8 9L10 9L10 8L12 8L12 9L11 9L11 10L10 10L10 11L11 11L11 12L9 12L9 13L11 13L11 14L12 14L12 15L10 15L10 16L9 16L9 17L10 17L10 18L12 18L12 19L14 19L14 18L15 18L15 21L14 21L14 20L11 20L11 19L10 19L10 20L11 20L11 22L10 22L10 23L8 23L8 27L11 27L11 28L13 28L13 29L11 29L11 30L10 30L10 29L9 29L9 28L8 28L8 33L9 33L9 31L11 31L11 32L13 32L13 33L14 33L14 32L13 32L13 31L11 31L11 30L13 30L13 29L14 29L14 30L15 30L15 33L16 33L16 32L17 32L17 33L18 33L18 32L17 32L17 31L16 31L16 30L17 30L17 29L18 29L18 28L20 28L20 27L18 27L18 28L17 28L17 25L18 25L18 24L17 24L17 23L19 23L19 22L21 22L21 23L20 23L20 24L24 24L24 25L19 25L19 26L21 26L21 28L22 28L22 29L19 29L19 30L21 30L21 32L22 32L22 33L26 33L26 32L23 32L23 30L22 30L22 29L23 29L23 28L22 28L22 26L23 26L23 27L24 27L24 29L27 29L27 30L24 30L24 31L27 31L27 32L29 32L29 33L30 33L30 32L31 32L31 33L32 33L32 32L31 32L31 31L32 31L32 30L31 30L31 29L33 29L33 28L32 28L32 26L33 26L33 23L30 23L30 24L32 24L32 25L30 25L30 26L31 26L31 27L29 27L29 24L28 24L28 23L29 23L29 22L28 22L28 21L30 21L30 20L31 20L31 19L32 19L32 20L33 20L33 19L32 19L32 18L33 18L33 17L32 17L32 14L33 14L33 13L32 13L32 10L33 10L33 9L32 9L32 8L31 8L31 9L32 9L32 10L29 10L29 12L27 12L27 13L26 13L26 12L25 12L25 13L19 13L19 10L20 10L20 9L21 9L21 10L24 10L24 9L25 9L25 10L27 10L27 11L28 11L28 8L27 8L27 9L26 9L26 8L25 8L25 6L24 6L24 7L23 7L23 6L22 6L22 7L21 7L21 5L22 5L22 4L23 4L23 5L25 5L25 4L23 4L23 3L24 3L24 2L23 2L23 1L25 1L25 0L23 0L23 1L21 1L21 3L20 3L20 2L19 2L19 3L20 3L20 4L18 4L18 3L17 3L17 4L18 4L18 5L20 5L20 9L19 9L19 6L18 6L18 8L17 8L17 6L16 6L16 5L15 5L15 6L14 6L14 5L13 5L13 4L14 4L14 3L13 3L13 2L14 2L14 1L15 1L15 2L16 2L16 1L15 1L15 0ZM19 0L19 1L20 1L20 0ZM10 1L10 3L11 3L11 2L12 2L12 1ZM12 3L12 4L13 4L13 3ZM15 3L15 4L16 4L16 3ZM21 3L21 4L20 4L20 5L21 5L21 4L22 4L22 3ZM11 5L11 7L12 7L12 5ZM9 6L9 7L10 7L10 6ZM13 6L13 8L14 8L14 9L13 9L13 10L14 10L14 11L12 11L12 10L11 10L11 11L12 11L12 12L11 12L11 13L12 13L12 14L13 14L13 16L14 16L14 17L13 17L13 18L14 18L14 17L16 17L16 15L15 15L15 14L16 14L16 13L17 13L17 12L18 12L18 11L16 11L16 12L15 12L15 10L16 10L16 9L17 9L17 10L18 10L18 9L17 9L17 8L16 8L16 9L15 9L15 7L16 7L16 6L15 6L15 7L14 7L14 6ZM22 7L22 8L21 8L21 9L24 9L24 8L23 8L23 7ZM29 8L29 9L30 9L30 8ZM6 9L6 10L7 10L7 11L6 11L6 12L7 12L7 11L8 11L8 10L7 10L7 9ZM14 9L14 10L15 10L15 9ZM20 11L20 12L22 12L22 11ZM23 11L23 12L24 12L24 11ZM13 12L13 13L14 13L14 14L15 14L15 13L14 13L14 12ZM29 12L29 13L27 13L27 14L26 14L26 13L25 13L25 15L24 15L24 14L23 14L23 15L22 15L22 14L17 14L17 16L18 16L18 15L19 15L19 17L20 17L20 18L19 18L19 20L18 20L18 19L17 19L17 18L18 18L18 17L17 17L17 18L16 18L16 19L17 19L17 20L18 20L18 21L17 21L17 22L16 22L16 21L15 21L15 22L16 22L16 23L15 23L15 24L14 24L14 21L13 21L13 24L14 24L14 25L13 25L13 28L14 28L14 29L15 29L15 30L16 30L16 29L17 29L17 28L16 28L16 29L15 29L15 26L16 26L16 25L17 25L17 24L16 24L16 23L17 23L17 22L19 22L19 21L21 21L21 22L23 22L23 23L24 23L24 22L23 22L23 20L25 20L25 21L28 21L28 20L30 20L30 19L31 19L31 18L30 18L30 17L31 17L31 16L30 16L30 14L29 14L29 13L31 13L31 12ZM4 14L4 15L5 15L5 14ZM6 15L6 16L5 16L5 17L4 17L4 16L3 16L3 17L4 17L4 18L2 18L2 17L1 17L1 18L2 18L2 19L1 19L1 20L2 20L2 21L3 21L3 22L7 22L7 21L5 21L5 20L7 20L7 19L5 19L5 17L6 17L6 18L7 18L7 17L6 17L6 16L7 16L7 15ZM21 15L21 16L20 16L20 17L21 17L21 19L20 19L20 20L23 20L23 19L22 19L22 17L23 17L23 18L25 18L25 20L26 20L26 19L27 19L27 20L28 20L28 19L29 19L29 18L28 18L28 17L29 17L29 16L28 16L28 17L26 17L26 18L25 18L25 17L23 17L23 16L22 16L22 15ZM25 15L25 16L26 16L26 15ZM10 16L10 17L12 17L12 16ZM21 16L21 17L22 17L22 16ZM27 18L27 19L28 19L28 18ZM3 19L3 20L5 20L5 19ZM32 21L32 22L33 22L33 21ZM11 22L11 23L10 23L10 24L9 24L9 26L11 26L11 27L12 27L12 26L11 26L11 25L12 25L12 24L11 24L11 23L12 23L12 22ZM26 22L26 23L25 23L25 24L26 24L26 23L28 23L28 22ZM6 24L6 25L7 25L7 24ZM10 24L10 25L11 25L11 24ZM14 25L14 26L15 26L15 25ZM25 25L25 28L28 28L28 25ZM26 26L26 27L27 27L27 26ZM29 28L29 29L31 29L31 28ZM27 30L27 31L29 31L29 32L30 32L30 31L29 31L29 30ZM19 31L19 32L20 32L20 31ZM0 0L0 7L7 7L7 0ZM1 1L1 6L6 6L6 1ZM2 2L2 5L5 5L5 2ZM26 0L26 7L33 7L33 0ZM27 1L27 6L32 6L32 1ZM28 2L28 5L31 5L31 2ZM0 26L0 33L7 33L7 26ZM1 27L1 32L6 32L6 27ZM2 28L2 31L5 31L5 28Z" fill="#000000"/></g></g></svg>
