<?xml version="1.0" encoding="UTF-8"?>
<svg xmlns="http://www.w3.org/2000/svg" version="1.1" width="400" height="400" viewBox="0 0 400 400"><rect x="0" y="0" width="400" height="400" fill="#fefefe"/><g transform="scale(9.756)"><g transform="translate(4,4)"><path fill-rule="evenodd" d="M8 0L8 4L9 4L9 5L8 5L8 7L9 7L9 8L10 8L10 7L11 7L11 5L12 5L12 7L13 7L13 5L14 5L14 7L15 7L15 8L14 8L14 9L13 9L13 8L12 8L12 9L11 9L11 11L10 11L10 13L8 13L8 14L6 14L6 15L7 15L7 16L6 16L6 17L9 17L9 15L10 15L10 13L11 13L11 15L12 15L12 13L11 13L11 11L12 11L12 12L13 12L13 11L14 11L14 9L15 9L15 12L14 12L14 13L13 13L13 14L14 14L14 13L15 13L15 15L16 15L16 14L17 14L17 16L14 16L14 17L13 17L13 16L12 16L12 17L11 17L11 16L10 16L10 17L11 17L11 18L9 18L9 19L7 19L7 18L5 18L5 17L3 17L3 16L5 16L5 14L4 14L4 15L3 15L3 14L2 14L2 15L1 15L1 13L2 13L2 12L3 12L3 13L7 13L7 12L9 12L9 11L7 11L7 10L4 10L4 9L7 9L7 8L4 8L4 9L3 9L3 10L4 10L4 11L2 11L2 12L1 12L1 9L2 9L2 8L0 8L0 12L1 12L1 13L0 13L0 15L1 15L1 17L0 17L0 18L2 18L2 19L1 19L1 20L0 20L0 22L1 22L1 21L2 21L2 22L3 22L3 21L8 21L8 20L9 20L9 19L11 19L11 20L10 20L10 21L9 21L9 23L7 23L7 22L6 22L6 23L7 23L7 24L5 24L5 25L8 25L8 26L11 26L11 27L10 27L10 28L11 28L11 29L10 29L10 30L11 30L11 31L10 31L10 32L13 32L13 31L12 31L12 30L14 30L14 29L15 29L15 32L14 32L14 33L15 33L15 32L16 32L16 31L17 31L17 33L18 33L18 32L19 32L19 33L20 33L20 31L21 31L21 33L22 33L22 32L23 32L23 33L25 33L25 31L23 31L23 30L25 30L25 29L26 29L26 31L29 31L29 33L30 33L30 31L29 31L29 30L31 30L31 31L32 31L32 30L33 30L33 29L29 29L29 27L31 27L31 28L32 28L32 26L31 26L31 25L32 25L32 24L33 24L33 23L31 23L31 22L32 22L32 21L33 21L33 19L32 19L32 18L31 18L31 17L30 17L30 18L28 18L28 17L29 17L29 16L30 16L30 14L31 14L31 16L32 16L32 17L33 17L33 16L32 16L32 14L31 14L31 13L29 13L29 10L28 10L28 13L27 13L27 12L25 12L25 11L26 11L26 10L25 10L25 9L23 9L23 8L25 8L25 6L24 6L24 7L23 7L23 6L22 6L22 7L21 7L21 5L25 5L25 3L22 3L22 2L23 2L23 1L24 1L24 2L25 2L25 0L23 0L23 1L22 1L22 0L20 0L20 1L18 1L18 0L17 0L17 1L18 1L18 2L16 2L16 3L15 3L15 4L14 4L14 3L12 3L12 4L9 4L9 3L11 3L11 2L9 2L9 0ZM10 0L10 1L12 1L12 2L13 2L13 0ZM15 0L15 1L14 1L14 2L15 2L15 1L16 1L16 0ZM20 1L20 2L19 2L19 5L21 5L21 4L22 4L22 3L20 3L20 2L22 2L22 1ZM17 3L17 4L16 4L16 5L15 5L15 7L16 7L16 8L15 8L15 9L17 9L17 10L16 10L16 11L18 11L18 12L21 12L21 11L20 11L20 10L23 10L23 9L19 9L19 10L18 10L18 9L17 9L17 7L18 7L18 3ZM9 5L9 7L10 7L10 5ZM16 6L16 7L17 7L17 6ZM19 6L19 7L20 7L20 6ZM27 8L27 9L28 9L28 8ZM29 8L29 9L31 9L31 12L32 12L32 13L33 13L33 12L32 12L32 9L33 9L33 8ZM8 9L8 10L10 10L10 9ZM12 10L12 11L13 11L13 10ZM5 11L5 12L7 12L7 11ZM22 11L22 13L19 13L19 15L18 15L18 16L20 16L20 17L19 17L19 18L18 18L18 17L17 17L17 19L16 19L16 20L15 20L15 18L16 18L16 17L14 17L14 19L13 19L13 18L12 18L12 19L13 19L13 21L14 21L14 22L15 22L15 21L16 21L16 20L17 20L17 19L18 19L18 21L17 21L17 23L13 23L13 22L12 22L12 23L9 23L9 24L8 24L8 25L12 25L12 24L13 24L13 25L14 25L14 26L12 26L12 29L14 29L14 28L15 28L15 29L17 29L17 30L19 30L19 31L20 31L20 29L21 29L21 31L22 31L22 29L24 29L24 28L23 28L23 27L24 27L24 26L23 26L23 27L22 27L22 25L23 25L23 17L25 17L25 16L26 16L26 15L27 15L27 17L26 17L26 18L27 18L27 19L26 19L26 20L27 20L27 19L28 19L28 18L27 18L27 17L28 17L28 15L27 15L27 13L24 13L24 12L23 12L23 11ZM16 12L16 13L17 13L17 12ZM22 13L22 14L20 14L20 16L21 16L21 17L20 17L20 19L21 19L21 20L19 20L19 21L21 21L21 22L20 22L20 23L21 23L21 24L19 24L19 23L17 23L17 25L16 25L16 24L14 24L14 25L15 25L15 28L16 28L16 26L17 26L17 29L18 29L18 27L19 27L19 26L17 26L17 25L18 25L18 24L19 24L19 25L22 25L22 18L21 18L21 17L23 17L23 16L25 16L25 15L24 15L24 13ZM28 13L28 14L29 14L29 13ZM8 14L8 15L9 15L9 14ZM22 14L22 16L23 16L23 14ZM2 15L2 16L3 16L3 15ZM3 18L3 20L2 20L2 21L3 21L3 20L5 20L5 18ZM6 19L6 20L7 20L7 19ZM30 19L30 21L25 21L25 22L26 22L26 23L24 23L24 24L26 24L26 23L29 23L29 22L31 22L31 20L32 20L32 19ZM14 20L14 21L15 21L15 20ZM4 22L4 23L5 23L5 22ZM2 23L2 24L0 24L0 25L2 25L2 24L3 24L3 25L4 25L4 24L3 24L3 23ZM30 23L30 24L29 24L29 26L30 26L30 25L31 25L31 23ZM25 25L25 28L28 28L28 25ZM20 26L20 27L21 27L21 29L22 29L22 27L21 27L21 26ZM26 26L26 27L27 27L27 26ZM8 27L8 29L9 29L9 27ZM8 31L8 33L9 33L9 31ZM27 32L27 33L28 33L28 32ZM32 32L32 33L33 33L33 32ZM0 0L0 7L7 7L7 0ZM1 1L1 6L6 6L6 1ZM2 2L2 5L5 5L5 2ZM26 0L26 7L33 7L33 0ZM27 1L27 6L32 6L32 1ZM28 2L28 5L31 5L31 2ZM0 26L0 33L7 33L7 26ZM1 27L1 32L6 32L6 27ZM2 28L2 31L5 31L5 28Z" fill="#000000"/></g></g></svg>
