<?xml version="1.0" encoding="UTF-8"?>
<svg xmlns="http://www.w3.org/2000/svg" version="1.1" width="400" height="400" viewBox="0 0 400 400"><rect x="0" y="0" width="400" height="400" fill="#fefefe"/><g transform="scale(9.756)"><g transform="translate(4,4)"><path fill-rule="evenodd" d="M11 0L11 1L8 1L8 3L9 3L9 2L10 2L10 4L8 4L8 8L6 8L6 9L4 9L4 8L3 8L3 9L2 9L2 8L0 8L0 9L2 9L2 11L3 11L3 9L4 9L4 10L5 10L5 11L4 11L4 15L3 15L3 13L2 13L2 12L1 12L1 13L0 13L0 14L1 14L1 13L2 13L2 15L0 15L0 20L1 20L1 19L4 19L4 20L3 20L3 21L5 21L5 23L3 23L3 22L2 22L2 21L1 21L1 22L0 22L0 23L1 23L1 24L0 24L0 25L1 25L1 24L2 24L2 25L3 25L3 24L6 24L6 25L7 25L7 24L9 24L9 23L7 23L7 22L6 22L6 21L8 21L8 20L6 20L6 19L10 19L10 20L9 20L9 21L10 21L10 24L12 24L12 25L14 25L14 26L15 26L15 25L17 25L17 27L15 27L15 28L14 28L14 27L12 27L12 26L11 26L11 25L8 25L8 27L9 27L9 28L10 28L10 29L8 29L8 30L9 30L9 31L8 31L8 33L10 33L10 30L12 30L12 31L11 31L11 33L12 33L12 32L13 32L13 33L14 33L14 32L13 32L13 30L14 30L14 31L15 31L15 32L16 32L16 33L17 33L17 32L19 32L19 31L17 31L17 29L18 29L18 30L19 30L19 29L21 29L21 30L22 30L22 31L21 31L21 32L20 32L20 33L25 33L25 31L26 31L26 32L28 32L28 33L30 33L30 32L28 32L28 31L33 31L33 29L31 29L31 30L30 30L30 29L29 29L29 27L30 27L30 25L29 25L29 24L28 24L28 23L29 23L29 22L31 22L31 23L33 23L33 21L29 21L29 22L28 22L28 19L29 19L29 20L30 20L30 19L29 19L29 18L28 18L28 17L29 17L29 16L30 16L30 15L32 15L32 14L33 14L33 9L32 9L32 8L30 8L30 9L29 9L29 8L26 8L26 9L25 9L25 12L24 12L24 11L23 11L23 9L24 9L24 8L25 8L25 5L24 5L24 3L25 3L25 0L19 0L19 1L20 1L20 2L22 2L22 1L23 1L23 2L24 2L24 3L22 3L22 4L23 4L23 5L24 5L24 8L22 8L22 7L23 7L23 6L22 6L22 5L21 5L21 3L20 3L20 5L19 5L19 2L18 2L18 1L17 1L17 0L15 0L15 4L13 4L13 2L14 2L14 0ZM12 1L12 2L11 2L11 4L12 4L12 2L13 2L13 1ZM16 3L16 6L15 6L15 7L14 7L14 5L11 5L11 7L10 7L10 6L9 6L9 7L10 7L10 8L8 8L8 9L6 9L6 10L8 10L8 9L9 9L9 10L11 10L11 11L9 11L9 13L11 13L11 14L10 14L10 15L9 15L9 14L8 14L8 16L9 16L9 17L6 17L6 16L7 16L7 15L6 15L6 14L7 14L7 13L8 13L8 11L6 11L6 12L5 12L5 13L6 13L6 14L5 14L5 15L4 15L4 16L1 16L1 17L4 17L4 16L5 16L5 17L6 17L6 18L9 18L9 17L10 17L10 18L11 18L11 19L12 19L12 18L13 18L13 17L14 17L14 18L15 18L15 19L13 19L13 20L14 20L14 21L15 21L15 22L14 22L14 24L16 24L16 23L17 23L17 24L18 24L18 25L20 25L20 24L21 24L21 23L22 23L22 22L23 22L23 23L24 23L24 22L25 22L25 21L24 21L24 20L23 20L23 21L21 21L21 19L20 19L20 18L21 18L21 17L17 17L17 18L19 18L19 19L18 19L18 20L17 20L17 19L16 19L16 18L15 18L15 17L14 17L14 16L16 16L16 15L17 15L17 14L18 14L18 16L19 16L19 15L23 15L23 14L24 14L24 12L23 12L23 13L22 13L22 14L21 14L21 12L19 12L19 11L16 11L16 8L17 8L17 9L18 9L18 10L20 10L20 9L21 9L21 8L20 8L20 6L21 6L21 7L22 7L22 6L21 6L21 5L20 5L20 6L19 6L19 7L18 7L18 3ZM12 6L12 7L13 7L13 6ZM16 6L16 7L15 7L15 8L16 8L16 7L17 7L17 8L18 8L18 9L19 9L19 8L18 8L18 7L17 7L17 6ZM10 8L10 9L13 9L13 10L12 10L12 11L11 11L11 12L13 12L13 13L12 13L12 14L11 14L11 15L10 15L10 17L11 17L11 18L12 18L12 17L13 17L13 16L14 16L14 15L13 15L13 13L14 13L14 14L15 14L15 13L19 13L19 14L20 14L20 13L19 13L19 12L16 12L16 11L15 11L15 9L14 9L14 8ZM27 9L27 11L26 11L26 12L25 12L25 13L26 13L26 12L27 12L27 11L28 11L28 13L29 13L29 14L28 14L28 16L29 16L29 14L31 14L31 12L32 12L32 10L31 10L31 11L30 11L30 12L29 12L29 11L28 11L28 10L29 10L29 9ZM0 10L0 11L1 11L1 10ZM13 10L13 11L14 11L14 10ZM21 10L21 11L22 11L22 10ZM6 12L6 13L7 13L7 12ZM26 14L26 15L25 15L25 16L22 16L22 17L24 17L24 18L23 18L23 19L25 19L25 16L26 16L26 15L27 15L27 14ZM11 15L11 17L12 17L12 16L13 16L13 15ZM32 16L32 17L33 17L33 16ZM26 17L26 21L27 21L27 17ZM4 18L4 19L5 19L5 18ZM31 18L31 19L32 19L32 20L33 20L33 18ZM15 19L15 20L16 20L16 19ZM19 19L19 20L20 20L20 19ZM5 20L5 21L6 21L6 20ZM11 20L11 23L12 23L12 24L13 24L13 23L12 23L12 22L13 22L13 21L12 21L12 20ZM16 21L16 22L17 22L17 23L18 23L18 24L20 24L20 22L21 22L21 21L20 21L20 22L19 22L19 21ZM6 23L6 24L7 24L7 23ZM26 23L26 24L27 24L27 23ZM23 24L23 25L22 25L22 26L21 26L21 27L20 27L20 26L18 26L18 29L19 29L19 28L21 28L21 27L22 27L22 26L23 26L23 29L22 29L22 30L25 30L25 29L24 29L24 26L23 26L23 25L24 25L24 24ZM25 25L25 28L28 28L28 25ZM31 25L31 27L32 27L32 26L33 26L33 25ZM26 26L26 27L27 27L27 26ZM10 27L10 28L11 28L11 29L12 29L12 30L13 30L13 29L14 29L14 30L15 30L15 31L16 31L16 32L17 32L17 31L16 31L16 29L17 29L17 28L15 28L15 29L14 29L14 28L11 28L11 27ZM26 30L26 31L27 31L27 30ZM22 31L22 32L24 32L24 31ZM31 32L31 33L32 33L32 32ZM0 0L0 7L7 7L7 0ZM1 1L1 6L6 6L6 1ZM2 2L2 5L5 5L5 2ZM26 0L26 7L33 7L33 0ZM27 1L27 6L32 6L32 1ZM28 2L28 5L31 5L31 2ZM0 26L0 33L7 33L7 26ZM1 27L1 32L6 32L6 27ZM2 28L2 31L5 31L5 28Z" fill="#000000"/></g></g></svg>
