<?xml version="1.0" encoding="UTF-8"?>
<svg xmlns="http://www.w3.org/2000/svg" version="1.1" width="400" height="400" viewBox="0 0 400 400"><rect x="0" y="0" width="400" height="400" fill="#fefefe"/><g transform="scale(9.756)"><g transform="translate(4,4)"><path fill-rule="evenodd" d="M11 0L11 1L8 1L8 3L9 3L9 2L10 2L10 4L8 4L8 8L6 8L6 9L7 9L7 10L5 10L5 11L2 11L2 10L3 10L3 9L4 9L4 8L3 8L3 9L2 9L2 8L0 8L0 9L2 9L2 10L0 10L0 11L2 11L2 12L0 12L0 13L2 13L2 14L1 14L1 15L0 15L0 17L1 17L1 15L2 15L2 16L4 16L4 17L2 17L2 18L0 18L0 20L1 20L1 19L3 19L3 18L4 18L4 20L3 20L3 21L1 21L1 22L0 22L0 23L1 23L1 24L0 24L0 25L1 25L1 24L2 24L2 25L4 25L4 24L5 24L5 25L7 25L7 24L8 24L8 23L9 23L9 24L10 24L10 25L8 25L8 27L9 27L9 29L8 29L8 30L10 30L10 31L11 31L11 30L12 30L12 27L13 27L13 28L14 28L14 29L13 29L13 30L14 30L14 31L15 31L15 32L16 32L16 33L17 33L17 32L19 32L19 31L17 31L17 29L18 29L18 30L19 30L19 29L21 29L21 30L20 30L20 32L21 32L21 33L22 33L22 30L24 30L24 31L23 31L23 32L24 32L24 33L25 33L25 32L26 32L26 33L30 33L30 32L29 32L29 31L33 31L33 29L31 29L31 30L30 30L30 29L29 29L29 27L30 27L30 25L29 25L29 24L28 24L28 22L27 22L27 21L26 21L26 17L27 17L27 15L29 15L29 16L28 16L28 17L29 17L29 16L30 16L30 15L32 15L32 14L33 14L33 9L32 9L32 8L30 8L30 9L29 9L29 8L26 8L26 11L27 11L27 12L26 12L26 13L25 13L25 12L24 12L24 14L23 14L23 15L21 15L21 17L20 17L20 16L18 16L18 14L17 14L17 15L16 15L16 16L14 16L14 15L13 15L13 13L14 13L14 14L15 14L15 13L19 13L19 14L22 14L22 13L23 13L23 12L22 12L22 10L23 10L23 9L24 9L24 8L25 8L25 2L24 2L24 1L25 1L25 0L21 0L21 1L20 1L20 0L18 0L18 1L17 1L17 0L15 0L15 4L13 4L13 2L14 2L14 0ZM12 1L12 2L11 2L11 4L12 4L12 2L13 2L13 1ZM19 1L19 2L20 2L20 4L19 4L19 3L16 3L16 6L15 6L15 7L14 7L14 5L11 5L11 7L10 7L10 6L9 6L9 7L10 7L10 8L8 8L8 9L9 9L9 10L11 10L11 11L9 11L9 12L7 12L7 11L8 11L8 10L7 10L7 11L5 11L5 12L4 12L4 13L3 13L3 14L2 14L2 15L4 15L4 16L7 16L7 17L4 17L4 18L5 18L5 19L6 19L6 20L7 20L7 21L6 21L6 22L4 22L4 23L6 23L6 24L7 24L7 23L6 23L6 22L8 22L8 20L10 20L10 18L11 18L11 19L12 19L12 18L13 18L13 17L14 17L14 18L15 18L15 19L13 19L13 20L14 20L14 21L15 21L15 22L13 22L13 21L12 21L12 20L11 20L11 23L12 23L12 24L11 24L11 26L9 26L9 27L10 27L10 30L11 30L11 26L13 26L13 27L14 27L14 28L15 28L15 29L14 29L14 30L15 30L15 31L16 31L16 32L17 32L17 31L16 31L16 29L17 29L17 28L15 28L15 27L17 27L17 25L15 25L15 26L14 26L14 25L12 25L12 24L13 24L13 23L15 23L15 24L16 24L16 23L17 23L17 24L18 24L18 25L19 25L19 24L18 24L18 23L17 23L17 22L16 22L16 21L19 21L19 22L20 22L20 23L22 23L22 22L23 22L23 25L22 25L22 27L24 27L24 24L25 24L25 23L26 23L26 24L27 24L27 23L26 23L26 22L25 22L25 21L24 21L24 20L23 20L23 21L21 21L21 20L19 20L19 19L20 19L20 17L17 17L17 18L19 18L19 19L18 19L18 20L17 20L17 19L16 19L16 18L15 18L15 17L14 17L14 16L13 16L13 15L11 15L11 14L12 14L12 13L13 13L13 12L11 12L11 11L12 11L12 10L13 10L13 11L14 11L14 10L13 10L13 9L10 9L10 8L14 8L14 9L15 9L15 11L16 11L16 12L19 12L19 13L20 13L20 12L19 12L19 11L16 11L16 8L17 8L17 9L18 9L18 10L20 10L20 11L21 11L21 9L20 9L20 8L21 8L21 7L22 7L22 6L23 6L23 7L24 7L24 5L23 5L23 4L22 4L22 3L24 3L24 2L23 2L23 1L22 1L22 2L20 2L20 1ZM17 4L17 5L18 5L18 4ZM19 5L19 6L18 6L18 7L17 7L17 6L16 6L16 7L15 7L15 8L16 8L16 7L17 7L17 8L18 8L18 9L19 9L19 8L20 8L20 7L21 7L21 5ZM12 6L12 7L13 7L13 6ZM19 6L19 7L18 7L18 8L19 8L19 7L20 7L20 6ZM28 9L28 10L27 10L27 11L28 11L28 13L29 13L29 14L31 14L31 12L32 12L32 10L31 10L31 11L30 11L30 12L29 12L29 9ZM6 12L6 13L4 13L4 14L6 14L6 15L8 15L8 14L9 14L9 13L8 13L8 14L6 14L6 13L7 13L7 12ZM10 13L10 14L11 14L11 13ZM26 14L26 15L25 15L25 16L22 16L22 17L24 17L24 18L22 18L22 19L25 19L25 16L26 16L26 15L27 15L27 14ZM9 15L9 16L8 16L8 17L9 17L9 16L10 16L10 15ZM12 16L12 17L11 17L11 18L12 18L12 17L13 17L13 16ZM32 16L32 17L33 17L33 16ZM6 18L6 19L7 19L7 18ZM31 18L31 19L32 19L32 20L33 20L33 18ZM15 19L15 20L16 20L16 19ZM28 19L28 20L30 20L30 19ZM9 21L9 23L10 23L10 21ZM20 21L20 22L21 22L21 21ZM29 21L29 22L31 22L31 23L33 23L33 21ZM12 22L12 23L13 23L13 22ZM20 24L20 26L18 26L18 29L19 29L19 27L20 27L20 28L21 28L21 27L20 27L20 26L21 26L21 24ZM25 25L25 28L28 28L28 25ZM31 25L31 27L32 27L32 26L33 26L33 25ZM26 26L26 27L27 27L27 26ZM22 28L22 29L24 29L24 30L25 30L25 29L24 29L24 28ZM27 29L27 30L26 30L26 32L27 32L27 31L28 31L28 29ZM8 31L8 33L10 33L10 32L9 32L9 31ZM12 31L12 32L11 32L11 33L12 33L12 32L13 32L13 33L14 33L14 32L13 32L13 31ZM31 32L31 33L32 33L32 32ZM0 0L0 7L7 7L7 0ZM1 1L1 6L6 6L6 1ZM2 2L2 5L5 5L5 2ZM26 0L26 7L33 7L33 0ZM27 1L27 6L32 6L32 1ZM28 2L28 5L31 5L31 2ZM0 26L0 33L7 33L7 26ZM1 27L1 32L6 32L6 27ZM2 28L2 31L5 31L5 28Z" fill="#000000"/></g></g></svg>
