<?xml version="1.0" encoding="UTF-8"?>
<svg xmlns="http://www.w3.org/2000/svg" version="1.1" width="400" height="400" viewBox="0 0 400 400"><rect x="0" y="0" width="400" height="400" fill="#fefefe"/><g transform="scale(9.756)"><g transform="translate(4,4)"><path fill-rule="evenodd" d="M9 0L9 1L8 1L8 2L9 2L9 3L8 3L8 4L9 4L9 3L10 3L10 5L8 5L8 7L9 7L9 8L6 8L6 9L7 9L7 10L5 10L5 8L0 8L0 10L1 10L1 14L2 14L2 16L1 16L1 17L2 17L2 18L3 18L3 19L2 19L2 21L3 21L3 20L5 20L5 18L3 18L3 17L4 17L4 15L3 15L3 14L5 14L5 15L7 15L7 16L6 16L6 17L8 17L8 15L7 15L7 14L6 14L6 13L8 13L8 11L9 11L9 10L8 10L8 9L10 9L10 8L12 8L12 9L11 9L11 10L10 10L10 11L11 11L11 12L9 12L9 15L10 15L10 13L11 13L11 14L12 14L12 15L11 15L11 16L12 16L12 17L11 17L11 18L12 18L12 19L14 19L14 18L15 18L15 21L14 21L14 20L11 20L11 21L10 21L10 19L9 19L9 18L8 18L8 20L6 20L6 21L4 21L4 22L3 22L3 24L2 24L2 25L3 25L3 24L4 24L4 23L7 23L7 22L6 22L6 21L10 21L10 22L12 22L12 23L11 23L11 24L10 24L10 23L9 23L9 24L8 24L8 27L10 27L10 28L13 28L13 29L10 29L10 30L9 30L9 28L8 28L8 33L10 33L10 30L12 30L12 32L13 32L13 33L14 33L14 32L13 32L13 29L14 29L14 30L15 30L15 33L16 33L16 32L17 32L17 33L18 33L18 32L17 32L17 31L16 31L16 30L17 30L17 29L18 29L18 28L20 28L20 29L19 29L19 30L20 30L20 31L19 31L19 32L20 32L20 31L21 31L21 32L22 32L22 33L25 33L25 32L22 32L22 30L23 30L23 29L22 29L22 30L20 30L20 29L21 29L21 28L24 28L24 29L27 29L27 30L24 30L24 31L27 31L27 32L26 32L26 33L27 33L27 32L28 32L28 31L27 31L27 30L29 30L29 32L31 32L31 33L32 33L32 32L31 32L31 31L32 31L32 30L31 30L31 29L33 29L33 28L32 28L32 26L33 26L33 23L30 23L30 24L32 24L32 25L30 25L30 26L31 26L31 27L29 27L29 24L28 24L28 23L29 23L29 22L28 22L28 21L30 21L30 20L31 20L31 19L32 19L32 20L33 20L33 19L32 19L32 18L33 18L33 17L32 17L32 14L33 14L33 13L32 13L32 10L33 10L33 9L32 9L32 8L31 8L31 9L32 9L32 10L28 10L28 11L29 11L29 12L28 12L28 13L26 13L26 10L27 10L27 9L28 9L28 8L27 8L27 9L26 9L26 8L25 8L25 4L23 4L23 1L24 1L24 3L25 3L25 0L23 0L23 1L21 1L21 3L22 3L22 4L19 4L19 3L20 3L20 2L19 2L19 1L20 1L20 0L19 0L19 1L18 1L18 0L17 0L17 1L18 1L18 3L17 3L17 4L19 4L19 5L20 5L20 7L19 7L19 6L18 6L18 7L19 7L19 8L17 8L17 6L16 6L16 5L15 5L15 6L14 6L14 5L13 5L13 4L14 4L14 3L13 3L13 2L14 2L14 1L15 1L15 2L16 2L16 1L15 1L15 0ZM10 1L10 3L11 3L11 2L12 2L12 1ZM12 3L12 4L13 4L13 3ZM15 3L15 4L16 4L16 3ZM22 4L22 5L21 5L21 7L20 7L20 8L19 8L19 9L23 9L23 8L24 8L24 9L25 9L25 10L23 10L23 13L22 13L22 12L19 12L19 13L22 13L22 14L17 14L17 16L18 16L18 15L22 15L22 16L21 16L21 17L20 17L20 16L19 16L19 17L20 17L20 18L19 18L19 20L18 20L18 19L17 19L17 18L18 18L18 17L17 17L17 18L16 18L16 19L17 19L17 20L18 20L18 21L17 21L17 22L16 22L16 21L15 21L15 22L16 22L16 23L15 23L15 24L14 24L14 21L13 21L13 24L14 24L14 25L13 25L13 26L10 26L10 27L13 27L13 28L14 28L14 29L15 29L15 30L16 30L16 29L17 29L17 28L18 28L18 27L20 27L20 28L21 28L21 27L22 27L22 26L21 26L21 25L23 25L23 26L24 26L24 24L26 24L26 23L28 23L28 22L26 22L26 21L28 21L28 20L27 20L27 19L29 19L29 20L30 20L30 19L31 19L31 18L30 18L30 17L31 17L31 16L30 16L30 14L29 14L29 13L31 13L31 12L29 12L29 13L28 13L28 14L29 14L29 15L28 15L28 16L26 16L26 15L27 15L27 14L26 14L26 13L24 13L24 11L25 11L25 10L26 10L26 9L25 9L25 8L24 8L24 5L23 5L23 4ZM11 5L11 7L12 7L12 5ZM9 6L9 7L10 7L10 6ZM13 6L13 8L14 8L14 9L13 9L13 10L14 10L14 11L12 11L12 10L11 10L11 11L12 11L12 12L11 12L11 13L12 13L12 14L13 14L13 16L14 16L14 17L13 17L13 18L14 18L14 17L16 17L16 15L15 15L15 14L16 14L16 13L17 13L17 12L18 12L18 11L16 11L16 12L15 12L15 10L16 10L16 9L17 9L17 10L18 10L18 9L17 9L17 8L16 8L16 9L15 9L15 7L16 7L16 6L15 6L15 7L14 7L14 6ZM22 6L22 7L21 7L21 8L22 8L22 7L23 7L23 6ZM29 8L29 9L30 9L30 8ZM2 9L2 10L4 10L4 9ZM14 9L14 10L15 10L15 9ZM7 10L7 11L5 11L5 13L6 13L6 12L7 12L7 11L8 11L8 10ZM19 10L19 11L22 11L22 10ZM3 11L3 12L2 12L2 13L4 13L4 11ZM13 12L13 13L14 13L14 14L15 14L15 13L14 13L14 12ZM23 13L23 14L24 14L24 15L26 15L26 14L24 14L24 13ZM2 16L2 17L3 17L3 16ZM28 16L28 17L26 17L26 18L25 18L25 17L21 17L21 18L25 18L25 20L23 20L23 19L20 19L20 20L23 20L23 22L21 22L21 21L19 21L19 22L17 22L17 23L16 23L16 24L17 24L17 25L16 25L16 26L15 26L15 25L14 25L14 26L15 26L15 29L16 29L16 28L17 28L17 25L18 25L18 24L17 24L17 23L19 23L19 24L20 24L20 25L19 25L19 26L20 26L20 27L21 27L21 26L20 26L20 25L21 25L21 24L24 24L24 23L25 23L25 21L26 21L26 19L27 19L27 18L28 18L28 17L29 17L29 16ZM0 18L0 19L1 19L1 18ZM6 18L6 19L7 19L7 18ZM0 20L0 25L1 25L1 20ZM32 21L32 22L33 22L33 21ZM19 22L19 23L20 23L20 24L21 24L21 23L20 23L20 22ZM23 22L23 23L24 23L24 22ZM5 24L5 25L7 25L7 24ZM11 24L11 25L12 25L12 24ZM25 25L25 28L28 28L28 25ZM26 26L26 27L27 27L27 26ZM29 28L29 29L31 29L31 28ZM0 0L0 7L7 7L7 0ZM1 1L1 6L6 6L6 1ZM2 2L2 5L5 5L5 2ZM26 0L26 7L33 7L33 0ZM27 1L27 6L32 6L32 1ZM28 2L28 5L31 5L31 2ZM0 26L0 33L7 33L7 26ZM1 27L1 32L6 32L6 27ZM2 28L2 31L5 31L5 28Z" fill="#000000"/></g></g></svg>
