<?xml version="1.0" encoding="UTF-8"?>
<svg xmlns="http://www.w3.org/2000/svg" version="1.1" width="400" height="400" viewBox="0 0 400 400"><rect x="0" y="0" width="400" height="400" fill="#fefefe"/><g transform="scale(9.756)"><g transform="translate(4,4)"><path fill-rule="evenodd" d="M8 0L8 4L10 4L10 3L11 3L11 4L12 4L12 2L11 2L11 0ZM12 0L12 1L13 1L13 0ZM15 0L15 1L14 1L14 2L15 2L15 1L16 1L16 0ZM17 0L17 1L18 1L18 2L16 2L16 3L15 3L15 4L14 4L14 3L13 3L13 5L11 5L11 6L10 6L10 7L9 7L9 5L8 5L8 7L9 7L9 8L10 8L10 7L11 7L11 6L12 6L12 8L11 8L11 9L8 9L8 10L6 10L6 9L7 9L7 8L4 8L4 10L3 10L3 9L2 9L2 8L0 8L0 9L2 9L2 10L1 10L1 12L0 12L0 14L1 14L1 15L0 15L0 17L1 17L1 15L2 15L2 18L3 18L3 19L2 19L2 21L1 21L1 20L0 20L0 22L2 22L2 21L3 21L3 24L0 24L0 25L4 25L4 23L5 23L5 25L7 25L7 24L6 24L6 23L10 23L10 24L8 24L8 26L10 26L10 27L11 27L11 28L9 28L9 27L8 27L8 29L10 29L10 30L11 30L11 31L12 31L12 32L13 32L13 30L14 30L14 29L15 29L15 31L14 31L14 33L15 33L15 32L16 32L16 31L17 31L17 33L18 33L18 32L19 32L19 33L23 33L23 32L22 32L22 30L21 30L21 29L23 29L23 28L24 28L24 29L25 29L25 31L24 31L24 30L23 30L23 31L24 31L24 33L28 33L28 32L29 32L29 30L31 30L31 31L32 31L32 30L33 30L33 27L32 27L32 26L31 26L31 25L32 25L32 24L33 24L33 23L31 23L31 22L32 22L32 21L33 21L33 19L32 19L32 18L31 18L31 17L30 17L30 18L26 18L26 17L29 17L29 16L30 16L30 14L31 14L31 16L32 16L32 17L33 17L33 16L32 16L32 14L31 14L31 13L29 13L29 10L27 10L27 11L28 11L28 12L25 12L25 13L23 13L23 12L22 12L22 11L24 11L24 9L25 9L25 8L24 8L24 9L23 9L23 8L22 8L22 7L23 7L23 6L22 6L22 7L21 7L21 6L20 6L20 5L21 5L21 3L22 3L22 2L23 2L23 5L24 5L24 2L23 2L23 1L25 1L25 0L23 0L23 1L22 1L22 0L20 0L20 1L18 1L18 0ZM21 1L21 2L19 2L19 3L17 3L17 4L16 4L16 5L15 5L15 7L14 7L14 5L13 5L13 8L12 8L12 9L11 9L11 10L8 10L8 11L6 11L6 12L5 12L5 13L4 13L4 12L2 12L2 13L1 13L1 14L2 14L2 13L4 13L4 14L5 14L5 15L3 15L3 16L4 16L4 17L6 17L6 18L5 18L5 19L4 19L4 20L3 20L3 21L4 21L4 20L5 20L5 19L6 19L6 20L7 20L7 21L5 21L5 22L8 22L8 21L9 21L9 20L10 20L10 19L11 19L11 18L12 18L12 17L10 17L10 16L12 16L12 15L13 15L13 17L14 17L14 19L13 19L13 20L12 20L12 23L11 23L11 22L10 22L10 23L11 23L11 25L10 25L10 26L11 26L11 25L12 25L12 24L13 24L13 25L14 25L14 26L13 26L13 27L12 27L12 28L11 28L11 29L14 29L14 28L15 28L15 29L17 29L17 30L19 30L19 32L21 32L21 31L20 31L20 29L21 29L21 28L20 28L20 29L19 29L19 27L20 27L20 25L21 25L21 26L22 26L22 25L24 25L24 24L26 24L26 23L27 23L27 21L28 21L28 23L29 23L29 22L31 22L31 20L32 20L32 19L30 19L30 21L28 21L28 19L26 19L26 20L27 20L27 21L25 21L25 22L24 22L24 24L23 24L23 20L22 20L22 25L21 25L21 23L20 23L20 22L21 22L21 21L19 21L19 20L21 20L21 19L23 19L23 17L25 17L25 16L28 16L28 15L29 15L29 13L25 13L25 14L24 14L24 15L25 15L25 16L23 16L23 17L19 17L19 18L18 18L18 17L17 17L17 19L16 19L16 20L15 20L15 18L16 18L16 17L14 17L14 16L17 16L17 14L16 14L16 15L15 15L15 13L14 13L14 12L15 12L15 9L17 9L17 10L16 10L16 11L18 11L18 12L20 12L20 13L19 13L19 15L18 15L18 16L19 16L19 15L21 15L21 14L22 14L22 15L23 15L23 13L21 13L21 11L22 11L22 10L23 10L23 9L21 9L21 7L20 7L20 6L19 6L19 5L20 5L20 4L19 4L19 3L21 3L21 2L22 2L22 1ZM9 2L9 3L10 3L10 2ZM17 5L17 6L16 6L16 7L15 7L15 8L14 8L14 9L12 9L12 10L11 10L11 11L10 11L10 13L8 13L8 12L9 12L9 11L8 11L8 12L6 12L6 13L5 13L5 14L6 14L6 15L5 15L5 16L6 16L6 17L7 17L7 18L6 18L6 19L7 19L7 20L8 20L8 19L9 19L9 18L10 18L10 17L9 17L9 16L10 16L10 13L11 13L11 12L12 12L12 13L13 13L13 14L14 14L14 13L13 13L13 12L12 12L12 11L14 11L14 9L15 9L15 8L16 8L16 7L17 7L17 9L18 9L18 10L19 10L19 6L18 6L18 5ZM17 6L17 7L18 7L18 6ZM24 6L24 7L25 7L25 6ZM27 8L27 9L28 9L28 8ZM29 8L29 9L31 9L31 12L32 12L32 13L33 13L33 12L32 12L32 9L33 9L33 8ZM20 9L20 11L21 11L21 9ZM2 10L2 11L3 11L3 10ZM16 12L16 13L17 13L17 12ZM6 13L6 14L7 14L7 15L6 15L6 16L7 16L7 17L8 17L8 16L9 16L9 14L7 14L7 13ZM20 13L20 14L21 14L21 13ZM25 14L25 15L26 15L26 14ZM27 14L27 15L28 15L28 14ZM0 18L0 19L1 19L1 18ZM20 18L20 19L21 19L21 18ZM17 19L17 20L16 20L16 21L15 21L15 20L14 20L14 21L13 21L13 22L14 22L14 25L15 25L15 28L16 28L16 26L17 26L17 29L18 29L18 27L19 27L19 26L17 26L17 25L18 25L18 24L19 24L19 25L20 25L20 23L17 23L17 21L18 21L18 19ZM14 21L14 22L15 22L15 21ZM15 23L15 24L16 24L16 25L17 25L17 23ZM30 23L30 24L29 24L29 26L30 26L30 25L31 25L31 23ZM25 25L25 28L28 28L28 25ZM23 26L23 27L22 27L22 28L23 28L23 27L24 27L24 26ZM26 26L26 27L27 27L27 26ZM29 27L29 29L32 29L32 28L31 28L31 27ZM27 29L27 32L28 32L28 29ZM8 31L8 33L9 33L9 31ZM25 31L25 32L26 32L26 31ZM32 32L32 33L33 33L33 32ZM0 0L0 7L7 7L7 0ZM1 1L1 6L6 6L6 1ZM2 2L2 5L5 5L5 2ZM26 0L26 7L33 7L33 0ZM27 1L27 6L32 6L32 1ZM28 2L28 5L31 5L31 2ZM0 26L0 33L7 33L7 26ZM1 27L1 32L6 32L6 27ZM2 28L2 31L5 31L5 28Z" fill="#000000"/></g></g></svg>
