<?xml version="1.0" encoding="UTF-8"?>
<svg xmlns="http://www.w3.org/2000/svg" version="1.1" width="400" height="400" viewBox="0 0 400 400"><rect x="0" y="0" width="400" height="400" fill="#fefefe"/><g transform="scale(9.756)"><g transform="translate(4,4)"><path fill-rule="evenodd" d="M9 0L9 1L8 1L8 2L9 2L9 3L8 3L8 4L9 4L9 3L10 3L10 5L8 5L8 7L9 7L9 8L6 8L6 9L8 9L8 13L7 13L7 12L6 12L6 11L7 11L7 10L6 10L6 11L5 11L5 12L3 12L3 13L4 13L4 14L2 14L2 16L1 16L1 13L0 13L0 18L1 18L1 19L0 19L0 25L1 25L1 22L2 22L2 23L4 23L4 24L3 24L3 25L4 25L4 24L6 24L6 25L8 25L8 27L11 27L11 26L13 26L13 25L14 25L14 26L15 26L15 29L14 29L14 28L13 28L13 27L12 27L12 28L10 28L10 29L9 29L9 28L8 28L8 33L10 33L10 32L11 32L11 33L12 33L12 32L13 32L13 33L14 33L14 32L15 32L15 33L16 33L16 32L17 32L17 33L18 33L18 32L17 32L17 31L16 31L16 30L17 30L17 29L18 29L18 28L20 28L20 27L18 27L18 28L17 28L17 25L18 25L18 24L17 24L17 23L19 23L19 22L20 22L20 23L21 23L21 24L24 24L24 25L22 25L22 26L21 26L21 25L19 25L19 26L21 26L21 28L22 28L22 29L19 29L19 30L20 30L20 31L19 31L19 32L20 32L20 33L21 33L21 32L22 32L22 31L21 31L21 30L22 30L22 29L23 29L23 28L22 28L22 26L23 26L23 27L24 27L24 29L25 29L25 30L23 30L23 32L24 32L24 33L25 33L25 32L26 32L26 31L27 31L27 30L31 30L31 31L30 31L30 32L29 32L29 33L30 33L30 32L31 32L31 33L32 33L32 32L31 32L31 31L32 31L32 30L31 30L31 29L33 29L33 28L32 28L32 26L33 26L33 23L30 23L30 24L32 24L32 25L30 25L30 26L31 26L31 27L29 27L29 24L28 24L28 23L29 23L29 22L27 22L27 21L30 21L30 20L31 20L31 19L32 19L32 20L33 20L33 19L32 19L32 18L33 18L33 17L32 17L32 14L33 14L33 13L32 13L32 10L33 10L33 9L32 9L32 8L31 8L31 9L32 9L32 10L29 10L29 11L28 11L28 10L27 10L27 9L28 9L28 8L27 8L27 9L26 9L26 8L25 8L25 6L24 6L24 7L23 7L23 6L22 6L22 7L21 7L21 6L20 6L20 7L19 7L19 6L18 6L18 5L17 5L17 6L16 6L16 5L15 5L15 6L14 6L14 5L13 5L13 4L14 4L14 3L13 3L13 2L14 2L14 1L15 1L15 2L16 2L16 1L15 1L15 0ZM18 0L18 1L21 1L21 2L20 2L20 3L22 3L22 4L19 4L19 3L17 3L17 4L19 4L19 5L22 5L22 4L23 4L23 5L24 5L24 4L25 4L25 2L24 2L24 4L23 4L23 1L25 1L25 0L23 0L23 1L21 1L21 0ZM10 1L10 3L11 3L11 2L12 2L12 1ZM12 3L12 4L13 4L13 3ZM15 3L15 4L16 4L16 3ZM11 5L11 7L12 7L12 5ZM9 6L9 7L10 7L10 6ZM13 6L13 8L14 8L14 9L13 9L13 10L14 10L14 11L12 11L12 10L11 10L11 9L12 9L12 8L10 8L10 9L9 9L9 12L11 12L11 13L9 13L9 14L8 14L8 16L7 16L7 15L6 15L6 14L7 14L7 13L6 13L6 12L5 12L5 14L4 14L4 15L3 15L3 16L4 16L4 18L3 18L3 20L2 20L2 19L1 19L1 20L2 20L2 21L3 21L3 22L4 22L4 23L6 23L6 24L7 24L7 23L8 23L8 25L12 25L12 24L10 24L10 23L9 23L9 22L7 22L7 21L8 21L8 20L9 20L9 21L10 21L10 22L11 22L11 23L12 23L12 22L11 22L11 21L10 21L10 20L9 20L9 19L8 19L8 18L9 18L9 17L10 17L10 18L11 18L11 20L14 20L14 21L13 21L13 24L14 24L14 25L15 25L15 26L16 26L16 25L17 25L17 24L16 24L16 23L17 23L17 22L19 22L19 21L20 21L20 22L23 22L23 23L24 23L24 24L25 24L25 23L26 23L26 24L27 24L27 22L26 22L26 21L27 21L27 20L30 20L30 19L31 19L31 18L30 18L30 17L31 17L31 16L30 16L30 14L29 14L29 13L31 13L31 12L29 12L29 13L28 13L28 12L26 12L26 11L27 11L27 10L26 10L26 9L24 9L24 8L23 8L23 7L22 7L22 8L21 8L21 9L20 9L20 8L19 8L19 7L18 7L18 6L17 6L17 8L16 8L16 9L15 9L15 7L16 7L16 6L15 6L15 7L14 7L14 6ZM0 8L0 9L1 9L1 12L2 12L2 10L5 10L5 8ZM17 8L17 9L16 9L16 10L15 10L15 9L14 9L14 10L15 10L15 12L16 12L16 11L18 11L18 12L17 12L17 13L16 13L16 14L15 14L15 13L14 13L14 12L13 12L13 13L14 13L14 14L15 14L15 15L16 15L16 17L14 17L14 16L13 16L13 14L12 14L12 13L11 13L11 14L12 14L12 15L10 15L10 16L12 16L12 17L11 17L11 18L12 18L12 19L14 19L14 18L15 18L15 21L14 21L14 24L15 24L15 23L16 23L16 22L17 22L17 21L18 21L18 20L19 20L19 18L21 18L21 20L20 20L20 21L21 21L21 20L23 20L23 22L25 22L25 21L26 21L26 19L27 19L27 17L29 17L29 16L28 16L28 15L27 15L27 17L26 17L26 18L25 18L25 17L23 17L23 16L22 16L22 15L21 15L21 16L22 16L22 17L19 17L19 16L20 16L20 15L18 15L18 16L17 16L17 14L20 14L20 13L21 13L21 14L22 14L22 13L23 13L23 14L24 14L24 15L26 15L26 14L28 14L28 13L23 13L23 12L24 12L24 11L26 11L26 10L24 10L24 9L21 9L21 10L20 10L20 9L19 9L19 8ZM29 8L29 9L30 9L30 8ZM17 9L17 10L18 10L18 9ZM10 10L10 11L11 11L11 12L12 12L12 11L11 11L11 10ZM19 10L19 13L20 13L20 10ZM21 10L21 11L24 11L24 10ZM21 12L21 13L22 13L22 12ZM5 15L5 17L7 17L7 16L6 16L6 15ZM13 17L13 18L14 18L14 17ZM17 17L17 18L16 18L16 19L17 19L17 20L18 20L18 19L17 19L17 18L18 18L18 17ZM22 17L22 18L23 18L23 20L25 20L25 18L23 18L23 17ZM6 18L6 19L7 19L7 20L4 20L4 22L5 22L5 21L7 21L7 20L8 20L8 19L7 19L7 18ZM15 21L15 22L16 22L16 21ZM32 21L32 22L33 22L33 21ZM6 22L6 23L7 23L7 22ZM25 25L25 28L28 28L28 25ZM26 26L26 27L27 27L27 26ZM12 28L12 29L13 29L13 32L14 32L14 31L15 31L15 30L16 30L16 29L17 29L17 28L16 28L16 29L15 29L15 30L14 30L14 29L13 29L13 28ZM29 28L29 29L31 29L31 28ZM26 29L26 30L25 30L25 31L24 31L24 32L25 32L25 31L26 31L26 30L27 30L27 29ZM9 30L9 31L11 31L11 32L12 32L12 30ZM20 31L20 32L21 32L21 31ZM27 32L27 33L28 33L28 32ZM0 0L0 7L7 7L7 0ZM1 1L1 6L6 6L6 1ZM2 2L2 5L5 5L5 2ZM26 0L26 7L33 7L33 0ZM27 1L27 6L32 6L32 1ZM28 2L28 5L31 5L31 2ZM0 26L0 33L7 33L7 26ZM1 27L1 32L6 32L6 27ZM2 28L2 31L5 31L5 28Z" fill="#000000"/></g></g></svg>
