<?xml version="1.0" encoding="UTF-8"?>
<svg xmlns="http://www.w3.org/2000/svg" version="1.1" width="400" height="400" viewBox="0 0 400 400"><rect x="0" y="0" width="400" height="400" fill="#fefefe"/><g transform="scale(9.756)"><g transform="translate(4,4)"><path fill-rule="evenodd" d="M9 0L9 1L8 1L8 2L9 2L9 3L8 3L8 4L9 4L9 3L10 3L10 5L8 5L8 7L9 7L9 8L6 8L6 9L5 9L5 8L0 8L0 9L3 9L3 11L2 11L2 10L1 10L1 11L0 11L0 13L1 13L1 14L0 14L0 16L2 16L2 17L4 17L4 16L2 16L2 15L1 15L1 14L4 14L4 9L5 9L5 11L7 11L7 10L6 10L6 9L8 9L8 11L9 11L9 9L10 9L10 8L12 8L12 9L11 9L11 10L10 10L10 11L11 11L11 12L8 12L8 13L11 13L11 14L12 14L12 15L8 15L8 14L6 14L6 15L7 15L7 16L5 16L5 18L4 18L4 19L3 19L3 18L1 18L1 17L0 17L0 20L1 20L1 21L0 21L0 25L1 25L1 21L2 21L2 22L3 22L3 21L4 21L4 23L3 23L3 24L2 24L2 25L4 25L4 24L5 24L5 25L8 25L8 27L10 27L10 25L11 25L11 26L12 26L12 28L13 28L13 29L11 29L11 30L10 30L10 32L9 32L9 28L8 28L8 33L11 33L11 30L12 30L12 32L13 32L13 33L14 33L14 32L13 32L13 31L14 31L14 30L15 30L15 33L16 33L16 32L17 32L17 33L18 33L18 32L17 32L17 31L16 31L16 30L17 30L17 29L18 29L18 28L19 28L19 30L20 30L20 29L21 29L21 32L20 32L20 33L21 33L21 32L24 32L24 33L28 33L28 32L29 32L29 33L30 33L30 32L31 32L31 33L32 33L32 32L31 32L31 31L32 31L32 30L31 30L31 29L33 29L33 28L32 28L32 26L33 26L33 23L30 23L30 24L32 24L32 25L30 25L30 26L31 26L31 27L29 27L29 24L28 24L28 23L29 23L29 22L28 22L28 23L26 23L26 22L27 22L27 21L30 21L30 20L31 20L31 19L32 19L32 20L33 20L33 19L32 19L32 18L33 18L33 17L32 17L32 14L33 14L33 13L32 13L32 10L33 10L33 9L32 9L32 8L31 8L31 9L32 9L32 10L29 10L29 12L28 12L28 13L26 13L26 12L27 12L27 11L26 11L26 10L27 10L27 9L28 9L28 8L27 8L27 9L26 9L26 8L24 8L24 7L25 7L25 4L22 4L22 5L21 5L21 4L18 4L18 3L17 3L17 4L18 4L18 5L17 5L17 6L16 6L16 5L15 5L15 6L14 6L14 5L13 5L13 4L14 4L14 3L13 3L13 2L14 2L14 1L15 1L15 2L16 2L16 1L15 1L15 0ZM18 0L18 2L19 2L19 3L20 3L20 2L19 2L19 1L21 1L21 3L24 3L24 2L25 2L25 0L23 0L23 1L21 1L21 0ZM10 1L10 3L11 3L11 2L12 2L12 1ZM23 1L23 2L24 2L24 1ZM12 3L12 4L13 4L13 3ZM15 3L15 4L16 4L16 3ZM11 5L11 7L12 7L12 5ZM19 5L19 9L20 9L20 10L19 10L19 12L21 12L21 13L20 13L20 14L17 14L17 16L18 16L18 15L20 15L20 16L19 16L19 17L21 17L21 18L22 18L22 20L20 20L20 18L19 18L19 20L18 20L18 19L17 19L17 18L18 18L18 17L17 17L17 18L16 18L16 19L17 19L17 20L18 20L18 21L17 21L17 22L16 22L16 21L15 21L15 18L14 18L14 17L16 17L16 15L15 15L15 14L16 14L16 13L17 13L17 12L18 12L18 11L16 11L16 12L15 12L15 10L16 10L16 9L17 9L17 10L18 10L18 9L17 9L17 8L18 8L18 6L17 6L17 8L16 8L16 9L15 9L15 7L16 7L16 6L15 6L15 7L14 7L14 6L13 6L13 8L14 8L14 9L13 9L13 10L14 10L14 11L12 11L12 10L11 10L11 11L12 11L12 12L11 12L11 13L12 13L12 14L13 14L13 16L14 16L14 17L13 17L13 18L14 18L14 19L12 19L12 18L11 18L11 19L10 19L10 17L9 17L9 16L8 16L8 19L10 19L10 20L7 20L7 19L4 19L4 21L5 21L5 24L8 24L8 22L7 22L7 21L9 21L9 22L10 22L10 23L9 23L9 24L10 24L10 23L12 23L12 22L11 22L11 21L10 21L10 20L14 20L14 21L13 21L13 22L14 22L14 21L15 21L15 22L16 22L16 23L13 23L13 24L14 24L14 25L13 25L13 28L14 28L14 29L13 29L13 30L14 30L14 29L15 29L15 30L16 30L16 29L17 29L17 28L18 28L18 27L19 27L19 28L21 28L21 29L22 29L22 30L23 30L23 31L24 31L24 32L25 32L25 31L24 31L24 28L23 28L23 27L22 27L22 28L21 28L21 27L20 27L20 26L21 26L21 25L23 25L23 26L24 26L24 24L25 24L25 23L24 23L24 22L23 22L23 20L25 20L25 21L27 21L27 19L28 19L28 20L30 20L30 19L31 19L31 18L30 18L30 17L31 17L31 16L30 16L30 14L29 14L29 13L31 13L31 12L29 12L29 13L28 13L28 14L29 14L29 15L28 15L28 16L29 16L29 17L27 17L27 14L26 14L26 13L25 13L25 12L26 12L26 11L25 11L25 12L23 12L23 11L24 11L24 10L26 10L26 9L24 9L24 8L23 8L23 9L22 9L22 8L21 8L21 9L20 9L20 6L21 6L21 7L22 7L22 6L23 6L23 7L24 7L24 5L22 5L22 6L21 6L21 5ZM9 6L9 7L10 7L10 6ZM29 8L29 9L30 9L30 8ZM14 9L14 10L15 10L15 9ZM21 9L21 10L20 10L20 11L21 11L21 12L22 12L22 11L23 11L23 10L24 10L24 9L23 9L23 10L22 10L22 9ZM1 11L1 13L3 13L3 12L2 12L2 11ZM6 12L6 13L7 13L7 12ZM13 12L13 13L14 13L14 14L15 14L15 13L14 13L14 12ZM22 13L22 14L21 14L21 16L22 16L22 14L24 14L24 15L26 15L26 14L25 14L25 13ZM11 16L11 17L12 17L12 16ZM6 17L6 18L7 18L7 17ZM22 17L22 18L25 18L25 20L26 20L26 19L27 19L27 17L26 17L26 18L25 18L25 17ZM28 18L28 19L29 19L29 18ZM1 19L1 20L3 20L3 19ZM6 20L6 21L7 21L7 20ZM19 21L19 22L17 22L17 23L16 23L16 24L17 24L17 25L16 25L16 26L15 26L15 25L14 25L14 26L15 26L15 29L16 29L16 28L17 28L17 25L18 25L18 24L17 24L17 23L19 23L19 24L20 24L20 25L19 25L19 26L20 26L20 25L21 25L21 24L24 24L24 23L23 23L23 22L21 22L21 21ZM32 21L32 22L33 22L33 21ZM6 22L6 23L7 23L7 22ZM19 22L19 23L20 23L20 24L21 24L21 23L20 23L20 22ZM11 24L11 25L12 25L12 24ZM25 25L25 28L28 28L28 25ZM26 26L26 27L27 27L27 26ZM22 28L22 29L23 29L23 28ZM29 28L29 29L31 29L31 28ZM25 29L25 30L28 30L28 31L29 31L29 32L30 32L30 31L31 31L31 30L28 30L28 29ZM26 31L26 32L27 32L27 31ZM0 0L0 7L7 7L7 0ZM1 1L1 6L6 6L6 1ZM2 2L2 5L5 5L5 2ZM26 0L26 7L33 7L33 0ZM27 1L27 6L32 6L32 1ZM28 2L28 5L31 5L31 2ZM0 26L0 33L7 33L7 26ZM1 27L1 32L6 32L6 27ZM2 28L2 31L5 31L5 28Z" fill="#000000"/></g></g></svg>
