<?xml version="1.0" encoding="UTF-8"?>
<svg xmlns="http://www.w3.org/2000/svg" version="1.1" width="400" height="400" viewBox="0 0 400 400"><rect x="0" y="0" width="400" height="400" fill="#fefefe"/><g transform="scale(9.756)"><g transform="translate(4,4)"><path fill-rule="evenodd" d="M8 0L8 4L9 4L9 5L8 5L8 7L9 7L9 8L10 8L10 7L11 7L11 5L12 5L12 7L13 7L13 5L14 5L14 7L15 7L15 8L14 8L14 9L13 9L13 8L12 8L12 9L11 9L11 11L10 11L10 13L11 13L11 14L9 14L9 12L8 12L8 13L7 13L7 12L6 12L6 13L7 13L7 14L6 14L6 15L7 15L7 14L8 14L8 15L12 15L12 13L11 13L11 11L12 11L12 12L13 12L13 11L14 11L14 9L15 9L15 12L14 12L14 13L13 13L13 14L14 14L14 13L15 13L15 15L16 15L16 14L17 14L17 16L14 16L14 17L13 17L13 16L12 16L12 17L11 17L11 16L8 16L8 17L7 17L7 16L4 16L4 18L3 18L3 17L1 17L1 16L3 16L3 14L4 14L4 15L5 15L5 14L4 14L4 12L5 12L5 11L3 11L3 10L1 10L1 11L0 11L0 12L2 12L2 13L1 13L1 14L2 14L2 15L1 15L1 16L0 16L0 20L2 20L2 21L0 21L0 22L2 22L2 24L0 24L0 25L2 25L2 24L4 24L4 25L7 25L7 24L6 24L6 23L7 23L7 22L8 22L8 21L9 21L9 23L8 23L8 26L9 26L9 27L8 27L8 29L9 29L9 28L13 28L13 27L12 27L12 26L14 26L14 25L15 25L15 28L14 28L14 29L10 29L10 30L9 30L9 31L8 31L8 33L9 33L9 31L10 31L10 30L11 30L11 31L13 31L13 30L14 30L14 29L15 29L15 31L14 31L14 33L15 33L15 32L16 32L16 31L17 31L17 33L18 33L18 32L19 32L19 33L23 33L23 31L22 31L22 30L21 30L21 29L23 29L23 30L24 30L24 29L26 29L26 31L27 31L27 32L26 32L26 33L27 33L27 32L28 32L28 31L29 31L29 33L30 33L30 31L32 31L32 30L33 30L33 29L29 29L29 27L31 27L31 28L32 28L32 26L31 26L31 25L32 25L32 24L33 24L33 23L31 23L31 22L32 22L32 21L33 21L33 19L32 19L32 18L31 18L31 17L30 17L30 18L28 18L28 17L29 17L29 16L30 16L30 14L31 14L31 16L32 16L32 17L33 17L33 16L32 16L32 14L31 14L31 13L29 13L29 10L28 10L28 11L27 11L27 12L25 12L25 11L26 11L26 10L25 10L25 11L24 11L24 9L25 9L25 3L22 3L22 2L23 2L23 1L25 1L25 0L23 0L23 1L22 1L22 0L20 0L20 1L18 1L18 0L17 0L17 1L18 1L18 2L16 2L16 3L15 3L15 4L14 4L14 3L12 3L12 4L9 4L9 3L11 3L11 2L9 2L9 0ZM10 0L10 1L12 1L12 2L13 2L13 0ZM15 0L15 1L14 1L14 2L15 2L15 1L16 1L16 0ZM21 1L21 2L22 2L22 1ZM19 2L19 3L17 3L17 4L16 4L16 5L15 5L15 7L16 7L16 8L15 8L15 9L17 9L17 10L16 10L16 11L18 11L18 12L19 12L19 11L20 11L20 9L21 9L21 11L22 11L22 13L21 13L21 12L20 12L20 13L19 13L19 15L18 15L18 16L19 16L19 15L20 15L20 16L21 16L21 15L23 15L23 14L22 14L22 13L25 13L25 14L24 14L24 15L25 15L25 16L22 16L22 17L19 17L19 18L18 18L18 17L17 17L17 19L16 19L16 20L15 20L15 18L16 18L16 17L14 17L14 19L13 19L13 18L12 18L12 19L13 19L13 21L14 21L14 22L15 22L15 21L16 21L16 20L17 20L17 19L18 19L18 21L17 21L17 23L13 23L13 22L12 22L12 23L11 23L11 22L10 22L10 25L9 25L9 26L11 26L11 25L12 25L12 24L13 24L13 25L14 25L14 24L16 24L16 25L17 25L17 26L16 26L16 28L15 28L15 29L17 29L17 30L19 30L19 31L20 31L20 32L21 32L21 30L20 30L20 29L21 29L21 27L22 27L22 28L23 28L23 29L24 29L24 28L23 28L23 27L24 27L24 26L22 26L22 25L24 25L24 24L26 24L26 23L27 23L27 24L28 24L28 22L31 22L31 20L32 20L32 19L30 19L30 21L28 21L28 20L27 20L27 19L28 19L28 18L27 18L27 17L28 17L28 15L27 15L27 13L28 13L28 14L29 14L29 13L28 13L28 12L27 12L27 13L25 13L25 12L23 12L23 11L22 11L22 10L23 10L23 9L24 9L24 5L21 5L21 7L22 7L22 8L23 8L23 9L21 9L21 8L20 8L20 6L19 6L19 7L18 7L18 5L20 5L20 2ZM21 3L21 4L22 4L22 3ZM17 4L17 5L18 5L18 4ZM9 5L9 7L10 7L10 5ZM16 6L16 7L17 7L17 9L18 9L18 10L19 10L19 9L20 9L20 8L18 8L18 7L17 7L17 6ZM22 6L22 7L23 7L23 6ZM0 8L0 9L2 9L2 8ZM4 8L4 9L5 9L5 10L6 10L6 11L7 11L7 10L10 10L10 9L7 9L7 8ZM27 8L27 9L28 9L28 8ZM29 8L29 9L31 9L31 12L32 12L32 13L33 13L33 12L32 12L32 9L33 9L33 8ZM6 9L6 10L7 10L7 9ZM12 10L12 11L13 11L13 10ZM2 11L2 12L3 12L3 11ZM16 12L16 13L17 13L17 12ZM20 13L20 14L21 14L21 13ZM26 15L26 16L25 16L25 17L22 17L22 18L20 18L20 19L19 19L19 21L21 21L21 22L20 22L20 23L21 23L21 24L19 24L19 23L17 23L17 25L18 25L18 24L19 24L19 25L22 25L22 18L23 18L23 23L24 23L24 22L25 22L25 23L26 23L26 21L27 21L27 22L28 22L28 21L27 21L27 20L26 20L26 19L27 19L27 18L26 18L26 17L27 17L27 15ZM6 17L6 18L7 18L7 19L5 19L5 18L4 18L4 19L3 19L3 18L1 18L1 19L2 19L2 20L3 20L3 21L5 21L5 20L7 20L7 21L6 21L6 22L5 22L5 23L4 23L4 24L5 24L5 23L6 23L6 22L7 22L7 21L8 21L8 20L10 20L10 19L11 19L11 17L10 17L10 18L9 18L9 17L8 17L8 18L7 18L7 17ZM7 19L7 20L8 20L8 19ZM20 19L20 20L21 20L21 19ZM14 20L14 21L15 21L15 20ZM25 20L25 21L26 21L26 20ZM30 23L30 24L29 24L29 26L30 26L30 25L31 25L31 23ZM25 25L25 28L28 28L28 25ZM17 26L17 29L18 29L18 27L19 27L19 29L20 29L20 27L21 27L21 26L20 26L20 27L19 27L19 26ZM26 26L26 27L27 27L27 26ZM24 31L24 33L25 33L25 31ZM32 32L32 33L33 33L33 32ZM0 0L0 7L7 7L7 0ZM1 1L1 6L6 6L6 1ZM2 2L2 5L5 5L5 2ZM26 0L26 7L33 7L33 0ZM27 1L27 6L32 6L32 1ZM28 2L28 5L31 5L31 2ZM0 26L0 33L7 33L7 26ZM1 27L1 32L6 32L6 27ZM2 28L2 31L5 31L5 28Z" fill="#000000"/></g></g></svg>
