<?xml version="1.0" encoding="UTF-8"?>
<svg xmlns="http://www.w3.org/2000/svg" version="1.1" width="400" height="400" viewBox="0 0 400 400"><rect x="0" y="0" width="400" height="400" fill="#fefefe"/><g transform="scale(9.756)"><g transform="translate(4,4)"><path fill-rule="evenodd" d="M9 0L9 1L8 1L8 3L9 3L9 4L8 4L8 8L6 8L6 9L8 9L8 8L10 8L10 10L9 10L9 11L7 11L7 10L6 10L6 11L5 11L5 10L4 10L4 11L3 11L3 10L2 10L2 8L0 8L0 12L1 12L1 11L3 11L3 12L2 12L2 13L1 13L1 14L3 14L3 16L1 16L1 15L0 15L0 18L1 18L1 19L2 19L2 21L3 21L3 22L0 22L0 23L1 23L1 24L0 24L0 25L1 25L1 24L2 24L2 25L4 25L4 24L6 24L6 25L7 25L7 24L6 24L6 23L7 23L7 22L6 22L6 21L9 21L9 22L8 22L8 23L9 23L9 24L8 24L8 27L9 27L9 29L8 29L8 30L9 30L9 31L8 31L8 33L9 33L9 32L10 32L10 33L12 33L12 31L13 31L13 30L14 30L14 32L13 32L13 33L14 33L14 32L16 32L16 33L17 33L17 32L19 32L19 31L17 31L17 29L18 29L18 30L19 30L19 29L20 29L20 33L23 33L23 32L24 32L24 33L25 33L25 32L26 32L26 33L29 33L29 32L30 32L30 31L29 31L29 30L30 30L30 29L29 29L29 27L30 27L30 25L29 25L29 24L28 24L28 19L29 19L29 20L30 20L30 19L29 19L29 18L28 18L28 17L29 17L29 16L30 16L30 15L32 15L32 14L33 14L33 9L32 9L32 8L30 8L30 9L29 9L29 8L26 8L26 9L25 9L25 8L24 8L24 7L25 7L25 0L21 0L21 2L19 2L19 1L20 1L20 0L18 0L18 1L17 1L17 0L15 0L15 4L13 4L13 5L14 5L14 7L15 7L15 8L16 8L16 11L15 11L15 9L14 9L14 8L13 8L13 6L12 6L12 5L11 5L11 6L10 6L10 5L9 5L9 4L12 4L12 3L13 3L13 2L14 2L14 0L12 0L12 1L11 1L11 2L9 2L9 1L10 1L10 0ZM22 1L22 2L21 2L21 4L23 4L23 3L24 3L24 2L23 2L23 1ZM18 2L18 3L16 3L16 6L15 6L15 7L16 7L16 8L17 8L17 9L18 9L18 10L21 10L21 11L20 11L20 12L19 12L19 11L16 11L16 12L19 12L19 13L15 13L15 14L14 14L14 13L13 13L13 15L14 15L14 16L13 16L13 17L11 17L11 16L12 16L12 14L11 14L11 16L10 16L10 15L9 15L9 16L8 16L8 18L9 18L9 19L10 19L10 20L9 20L9 21L10 21L10 20L11 20L11 23L10 23L10 24L11 24L11 25L9 25L9 27L11 27L11 26L12 26L12 28L11 28L11 29L9 29L9 30L10 30L10 31L12 31L12 30L13 30L13 29L14 29L14 30L15 30L15 31L16 31L16 32L17 32L17 31L16 31L16 29L17 29L17 28L15 28L15 27L17 27L17 25L15 25L15 26L14 26L14 25L12 25L12 24L13 24L13 23L12 23L12 21L13 21L13 20L14 20L14 21L15 21L15 22L14 22L14 24L16 24L16 23L17 23L17 24L18 24L18 25L20 25L20 24L21 24L21 23L22 23L22 22L23 22L23 25L22 25L22 26L18 26L18 29L19 29L19 27L22 27L22 29L21 29L21 28L20 28L20 29L21 29L21 31L22 31L22 29L23 29L23 30L25 30L25 31L26 31L26 32L27 32L27 31L28 31L28 29L27 29L27 30L26 30L26 29L24 29L24 28L23 28L23 27L24 27L24 24L25 24L25 23L24 23L24 22L26 22L26 21L27 21L27 19L28 19L28 18L27 18L27 17L26 17L26 20L25 20L25 21L24 21L24 20L23 20L23 19L25 19L25 16L23 16L23 14L25 14L25 13L26 13L26 11L24 11L24 9L23 9L23 10L21 10L21 9L20 9L20 8L19 8L19 9L18 9L18 8L17 8L17 7L18 7L18 6L19 6L19 7L20 7L20 6L21 6L21 7L22 7L22 6L23 6L23 7L24 7L24 5L22 5L22 6L21 6L21 5L20 5L20 4L19 4L19 2ZM17 4L17 5L18 5L18 4ZM19 5L19 6L20 6L20 5ZM9 6L9 7L10 7L10 8L11 8L11 9L12 9L12 10L11 10L11 11L9 11L9 14L10 14L10 13L12 13L12 12L13 12L13 11L14 11L14 10L13 10L13 8L12 8L12 6L11 6L11 7L10 7L10 6ZM16 6L16 7L17 7L17 6ZM3 8L3 9L4 9L4 8ZM27 9L27 14L26 14L26 16L29 16L29 14L31 14L31 12L32 12L32 10L31 10L31 11L30 11L30 12L29 12L29 11L28 11L28 10L29 10L29 9ZM4 11L4 12L3 12L3 13L5 13L5 15L4 15L4 17L5 17L5 18L3 18L3 21L6 21L6 20L7 20L7 19L6 19L6 20L5 20L5 18L7 18L7 17L6 17L6 16L7 16L7 15L8 15L8 14L7 14L7 13L8 13L8 12L7 12L7 11L6 11L6 12L5 12L5 11ZM21 11L21 14L20 14L20 13L19 13L19 14L20 14L20 15L19 15L19 16L18 16L18 14L17 14L17 15L16 15L16 16L14 16L14 17L13 17L13 19L11 19L11 20L13 20L13 19L15 19L15 20L16 20L16 19L17 19L17 20L18 20L18 19L19 19L19 18L17 18L17 17L20 17L20 18L22 18L22 19L20 19L20 21L23 21L23 20L22 20L22 19L23 19L23 18L24 18L24 17L22 17L22 13L23 13L23 11ZM6 12L6 13L7 13L7 12ZM28 13L28 14L27 14L27 15L28 15L28 14L29 14L29 13ZM6 14L6 15L7 15L7 14ZM20 16L20 17L21 17L21 16ZM32 16L32 17L33 17L33 16ZM1 17L1 18L2 18L2 17ZM9 17L9 18L11 18L11 17ZM14 17L14 18L15 18L15 19L16 19L16 18L15 18L15 17ZM31 18L31 19L32 19L32 20L33 20L33 18ZM0 20L0 21L1 21L1 20ZM16 21L16 22L17 22L17 23L18 23L18 24L20 24L20 22L19 22L19 21ZM29 21L29 22L31 22L31 23L33 23L33 21ZM5 22L5 23L6 23L6 22ZM11 23L11 24L12 24L12 23ZM26 23L26 24L27 24L27 23ZM25 25L25 28L28 28L28 25ZM31 25L31 27L32 27L32 29L31 29L31 31L33 31L33 27L32 27L32 26L33 26L33 25ZM26 26L26 27L27 27L27 26ZM13 27L13 28L14 28L14 29L15 29L15 28L14 28L14 27ZM11 29L11 30L12 30L12 29ZM31 32L31 33L32 33L32 32ZM0 0L0 7L7 7L7 0ZM1 1L1 6L6 6L6 1ZM2 2L2 5L5 5L5 2ZM26 0L26 7L33 7L33 0ZM27 1L27 6L32 6L32 1ZM28 2L28 5L31 5L31 2ZM0 26L0 33L7 33L7 26ZM1 27L1 32L6 32L6 27ZM2 28L2 31L5 31L5 28Z" fill="#000000"/></g></g></svg>
