<?xml version="1.0" encoding="UTF-8"?>
<svg xmlns="http://www.w3.org/2000/svg" version="1.1" width="400" height="400" viewBox="0 0 400 400"><rect x="0" y="0" width="400" height="400" fill="#fefefe"/><g transform="scale(9.756)"><g transform="translate(4,4)"><path fill-rule="evenodd" d="M8 0L8 4L9 4L9 5L8 5L8 7L9 7L9 8L10 8L10 7L11 7L11 5L12 5L12 7L13 7L13 5L14 5L14 7L15 7L15 8L14 8L14 9L13 9L13 8L12 8L12 9L11 9L11 11L10 11L10 13L11 13L11 15L12 15L12 13L11 13L11 11L12 11L12 12L13 12L13 11L14 11L14 9L15 9L15 12L14 12L14 13L13 13L13 14L14 14L14 13L15 13L15 15L16 15L16 14L17 14L17 16L14 16L14 17L13 17L13 16L12 16L12 17L11 17L11 19L10 19L10 18L8 18L8 19L7 19L7 18L6 18L6 17L7 17L7 16L8 16L8 15L7 15L7 14L9 14L9 12L8 12L8 11L9 11L9 10L10 10L10 9L9 9L9 10L8 10L8 11L7 11L7 10L6 10L6 9L7 9L7 8L4 8L4 9L2 9L2 8L0 8L0 10L1 10L1 9L2 9L2 11L1 11L1 15L2 15L2 16L1 16L1 19L0 19L0 22L1 22L1 21L2 21L2 22L3 22L3 24L5 24L5 25L7 25L7 24L8 24L8 22L9 22L9 23L10 23L10 26L9 26L9 25L8 25L8 26L9 26L9 27L8 27L8 29L9 29L9 31L8 31L8 33L9 33L9 31L10 31L10 33L11 33L11 31L12 31L12 32L13 32L13 30L14 30L14 29L15 29L15 31L14 31L14 33L15 33L15 32L16 32L16 31L17 31L17 33L18 33L18 32L19 32L19 33L20 33L20 31L19 31L19 30L17 30L17 29L18 29L18 27L19 27L19 26L17 26L17 25L18 25L18 24L19 24L19 25L20 25L20 28L19 28L19 29L20 29L20 30L21 30L21 29L22 29L22 31L21 31L21 33L22 33L22 32L23 32L23 33L25 33L25 31L23 31L23 29L22 29L22 28L23 28L23 27L22 27L22 26L23 26L23 25L22 25L22 20L23 20L23 23L25 23L25 24L24 24L24 30L25 30L25 29L26 29L26 31L28 31L28 32L26 32L26 33L28 33L28 32L29 32L29 33L30 33L30 31L32 31L32 30L33 30L33 29L29 29L29 27L31 27L31 28L32 28L32 26L31 26L31 25L32 25L32 24L33 24L33 23L31 23L31 22L32 22L32 21L33 21L33 19L32 19L32 18L31 18L31 17L30 17L30 18L29 18L29 19L28 19L28 18L26 18L26 17L29 17L29 16L30 16L30 14L31 14L31 16L32 16L32 17L33 17L33 16L32 16L32 14L31 14L31 13L29 13L29 10L28 10L28 11L27 11L27 12L26 12L26 10L25 10L25 9L24 9L24 7L25 7L25 6L24 6L24 7L23 7L23 6L22 6L22 7L21 7L21 6L20 6L20 5L17 5L17 6L16 6L16 7L15 7L15 5L16 5L16 4L17 4L17 3L18 3L18 1L17 1L17 2L16 2L16 3L15 3L15 4L14 4L14 3L12 3L12 4L9 4L9 3L11 3L11 2L9 2L9 0ZM10 0L10 1L12 1L12 2L13 2L13 0ZM15 0L15 1L14 1L14 2L15 2L15 1L16 1L16 0ZM20 0L20 1L19 1L19 2L20 2L20 1L22 1L22 2L21 2L21 3L22 3L22 4L21 4L21 5L25 5L25 3L22 3L22 2L23 2L23 1L25 1L25 0L23 0L23 1L22 1L22 0ZM9 5L9 7L10 7L10 5ZM17 6L17 7L16 7L16 8L15 8L15 9L17 9L17 10L16 10L16 11L18 11L18 12L19 12L19 11L20 11L20 13L19 13L19 15L18 15L18 16L20 16L20 17L19 17L19 18L18 18L18 17L17 17L17 19L16 19L16 20L15 20L15 18L16 18L16 17L14 17L14 19L13 19L13 18L12 18L12 19L13 19L13 21L14 21L14 22L12 22L12 23L11 23L11 25L12 25L12 24L13 24L13 25L14 25L14 26L13 26L13 27L11 27L11 26L10 26L10 27L11 27L11 28L9 28L9 29L14 29L14 28L15 28L15 29L17 29L17 26L16 26L16 28L15 28L15 25L14 25L14 22L15 22L15 21L16 21L16 20L17 20L17 19L18 19L18 21L17 21L17 23L15 23L15 24L16 24L16 25L17 25L17 23L20 23L20 21L21 21L21 19L23 19L23 17L25 17L25 16L27 16L27 15L28 15L28 14L29 14L29 13L25 13L25 12L24 12L24 11L23 11L23 10L22 10L22 9L23 9L23 8L22 8L22 9L19 9L19 10L18 10L18 9L17 9L17 7L18 7L18 8L21 8L21 7L20 7L20 6L19 6L19 7L18 7L18 6ZM27 8L27 9L28 9L28 8ZM29 8L29 9L31 9L31 12L32 12L32 13L33 13L33 12L32 12L32 9L33 9L33 8ZM3 10L3 11L2 11L2 12L3 12L3 13L4 13L4 15L5 15L5 16L4 16L4 17L5 17L5 16L7 16L7 15L5 15L5 14L7 14L7 13L8 13L8 12L7 12L7 11L6 11L6 12L3 12L3 11L5 11L5 10ZM12 10L12 11L13 11L13 10ZM21 11L21 13L20 13L20 14L21 14L21 17L20 17L20 19L19 19L19 21L20 21L20 19L21 19L21 17L23 17L23 16L25 16L25 15L24 15L24 14L25 14L25 13L23 13L23 11ZM6 12L6 13L7 13L7 12ZM16 12L16 13L17 13L17 12ZM21 13L21 14L22 14L22 16L23 16L23 13ZM2 14L2 15L3 15L3 14ZM26 14L26 15L27 15L27 14ZM9 15L9 17L10 17L10 15ZM2 17L2 19L1 19L1 20L2 20L2 21L5 21L5 23L6 23L6 24L7 24L7 23L6 23L6 22L8 22L8 21L9 21L9 22L11 22L11 20L10 20L10 19L9 19L9 20L7 20L7 19L6 19L6 18L4 18L4 20L3 20L3 17ZM26 19L26 20L25 20L25 21L26 21L26 24L27 24L27 21L28 21L28 22L31 22L31 20L32 20L32 19L30 19L30 21L28 21L28 19ZM5 20L5 21L7 21L7 20ZM9 20L9 21L10 21L10 20ZM14 20L14 21L15 21L15 20ZM26 20L26 21L27 21L27 20ZM30 23L30 24L29 24L29 26L30 26L30 25L31 25L31 23ZM0 24L0 25L2 25L2 24ZM20 24L20 25L21 25L21 26L22 26L22 25L21 25L21 24ZM25 25L25 28L28 28L28 25ZM26 26L26 27L27 27L27 26ZM20 28L20 29L21 29L21 28ZM10 30L10 31L11 31L11 30ZM32 32L32 33L33 33L33 32ZM0 0L0 7L7 7L7 0ZM1 1L1 6L6 6L6 1ZM2 2L2 5L5 5L5 2ZM26 0L26 7L33 7L33 0ZM27 1L27 6L32 6L32 1ZM28 2L28 5L31 5L31 2ZM0 26L0 33L7 33L7 26ZM1 27L1 32L6 32L6 27ZM2 28L2 31L5 31L5 28Z" fill="#000000"/></g></g></svg>
