<?xml version="1.0" encoding="UTF-8"?>
<svg xmlns="http://www.w3.org/2000/svg" version="1.1" width="400" height="400" viewBox="0 0 400 400"><rect x="0" y="0" width="400" height="400" fill="#fefefe"/><g transform="scale(9.756)"><g transform="translate(4,4)"><path fill-rule="evenodd" d="M10 0L10 2L11 2L11 0ZM12 0L12 1L13 1L13 2L12 2L12 4L14 4L14 3L13 3L13 2L14 2L14 1L15 1L15 2L16 2L16 1L15 1L15 0ZM19 0L19 1L20 1L20 2L18 2L18 1L17 1L17 2L18 2L18 3L17 3L17 4L19 4L19 5L20 5L20 8L22 8L22 9L19 9L19 8L17 8L17 6L18 6L18 7L19 7L19 6L18 6L18 5L17 5L17 6L16 6L16 5L15 5L15 6L14 6L14 5L11 5L11 6L10 6L10 4L11 4L11 3L8 3L8 4L9 4L9 5L8 5L8 7L9 7L9 8L6 8L6 9L5 9L5 8L0 8L0 11L1 11L1 9L4 9L4 10L6 10L6 11L5 11L5 12L6 12L6 13L7 13L7 12L6 12L6 11L9 11L9 10L6 10L6 9L10 9L10 11L11 11L11 9L12 9L12 10L13 10L13 11L12 11L12 13L14 13L14 14L15 14L15 15L16 15L16 17L14 17L14 16L12 16L12 15L13 15L13 14L10 14L10 15L11 15L11 17L10 17L10 18L9 18L9 17L8 17L8 18L6 18L6 19L5 19L5 18L4 18L4 17L3 17L3 15L4 15L4 16L5 16L5 14L4 14L4 13L3 13L3 12L4 12L4 11L2 11L2 12L1 12L1 13L0 13L0 16L1 16L1 15L2 15L2 18L1 18L1 17L0 17L0 20L1 20L1 21L0 21L0 25L1 25L1 22L2 22L2 23L4 23L4 25L5 25L5 24L6 24L6 25L7 25L7 24L6 24L6 23L7 23L7 22L8 22L8 24L9 24L9 20L10 20L10 18L11 18L11 17L12 17L12 18L13 18L13 19L14 19L14 18L15 18L15 21L14 21L14 20L13 20L13 21L14 21L14 24L13 24L13 22L12 22L12 20L11 20L11 22L12 22L12 23L11 23L11 24L12 24L12 25L8 25L8 27L11 27L11 28L10 28L10 32L9 32L9 28L8 28L8 33L11 33L11 32L13 32L13 33L14 33L14 32L13 32L13 31L11 31L11 30L13 30L13 29L14 29L14 30L15 30L15 33L16 33L16 32L17 32L17 33L18 33L18 32L17 32L17 31L16 31L16 30L17 30L17 29L18 29L18 28L20 28L20 27L18 27L18 28L17 28L17 25L18 25L18 24L17 24L17 23L19 23L19 24L20 24L20 23L21 23L21 24L22 24L22 25L19 25L19 26L21 26L21 28L24 28L24 30L26 30L26 31L25 31L25 32L24 32L24 31L23 31L23 29L19 29L19 30L22 30L22 31L21 31L21 32L22 32L22 33L23 33L23 32L24 32L24 33L26 33L26 31L27 31L27 32L29 32L29 33L30 33L30 32L31 32L31 33L32 33L32 32L31 32L31 31L32 31L32 30L31 30L31 29L32 29L32 28L33 28L33 27L32 27L32 26L33 26L33 23L30 23L30 24L32 24L32 25L30 25L30 26L31 26L31 27L29 27L29 24L28 24L28 23L27 23L27 24L25 24L25 23L26 23L26 22L28 22L28 21L30 21L30 20L31 20L31 19L32 19L32 20L33 20L33 19L32 19L32 18L33 18L33 17L32 17L32 14L33 14L33 13L32 13L32 10L33 10L33 9L32 9L32 8L31 8L31 9L32 9L32 10L29 10L29 11L27 11L27 10L28 10L28 8L27 8L27 9L26 9L26 8L24 8L24 7L25 7L25 4L24 4L24 3L25 3L25 0L23 0L23 1L20 1L20 0ZM8 1L8 2L9 2L9 1ZM23 1L23 3L24 3L24 1ZM20 2L20 3L19 3L19 4L22 4L22 6L21 6L21 7L22 7L22 6L23 6L23 7L24 7L24 5L23 5L23 4L22 4L22 3L21 3L21 2ZM15 3L15 4L16 4L16 3ZM9 6L9 7L10 7L10 6ZM11 6L11 7L12 7L12 9L13 9L13 10L14 10L14 11L13 11L13 12L14 12L14 13L15 13L15 14L16 14L16 13L17 13L17 12L18 12L18 11L16 11L16 12L15 12L15 10L16 10L16 9L17 9L17 10L18 10L18 9L17 9L17 8L16 8L16 9L15 9L15 7L16 7L16 6L15 6L15 7L14 7L14 6L13 6L13 7L12 7L12 6ZM10 8L10 9L11 9L11 8ZM13 8L13 9L14 9L14 10L15 10L15 9L14 9L14 8ZM23 8L23 9L22 9L22 10L21 10L21 11L20 11L20 10L19 10L19 13L20 13L20 14L17 14L17 16L18 16L18 15L19 15L19 17L20 17L20 18L19 18L19 19L20 19L20 20L18 20L18 19L17 19L17 18L18 18L18 17L17 17L17 18L16 18L16 19L17 19L17 20L18 20L18 21L17 21L17 22L16 22L16 21L15 21L15 22L16 22L16 23L15 23L15 24L14 24L14 25L13 25L13 27L12 27L12 26L11 26L11 27L12 27L12 28L11 28L11 29L13 29L13 28L14 28L14 29L15 29L15 30L16 30L16 29L17 29L17 28L16 28L16 29L15 29L15 26L16 26L16 25L17 25L17 24L16 24L16 23L17 23L17 22L19 22L19 23L20 23L20 22L23 22L23 23L24 23L24 22L23 22L23 20L25 20L25 18L26 18L26 17L28 17L28 18L29 18L29 19L28 19L28 20L27 20L27 19L26 19L26 21L25 21L25 22L26 22L26 21L28 21L28 20L30 20L30 19L31 19L31 18L30 18L30 17L31 17L31 16L30 16L30 14L29 14L29 13L31 13L31 12L29 12L29 13L28 13L28 12L27 12L27 11L26 11L26 10L25 10L25 9L24 9L24 8ZM29 8L29 9L30 9L30 8ZM23 9L23 10L22 10L22 11L21 11L21 12L20 12L20 13L21 13L21 14L24 14L24 15L25 15L25 16L26 16L26 15L25 15L25 13L26 13L26 14L27 14L27 15L28 15L28 13L26 13L26 12L25 12L25 10L24 10L24 9ZM23 10L23 11L22 11L22 12L21 12L21 13L25 13L25 12L24 12L24 10ZM8 12L8 13L11 13L11 12ZM2 13L2 15L3 15L3 13ZM6 14L6 15L7 15L7 16L6 16L6 17L7 17L7 16L8 16L8 15L9 15L9 14L8 14L8 15L7 15L7 14ZM21 15L21 16L20 16L20 17L21 17L21 18L20 18L20 19L21 19L21 20L20 20L20 21L19 21L19 22L20 22L20 21L21 21L21 20L22 20L22 19L23 19L23 18L25 18L25 17L23 17L23 16L22 16L22 15ZM21 16L21 17L22 17L22 18L21 18L21 19L22 19L22 18L23 18L23 17L22 17L22 16ZM28 16L28 17L29 17L29 16ZM13 17L13 18L14 18L14 17ZM2 18L2 19L1 19L1 20L2 20L2 21L4 21L4 20L5 20L5 19L3 19L3 18ZM6 19L6 20L7 20L7 21L6 21L6 22L4 22L4 23L6 23L6 22L7 22L7 21L8 21L8 20L7 20L7 19ZM32 21L32 22L33 22L33 21ZM2 24L2 25L3 25L3 24ZM23 24L23 25L22 25L22 27L23 27L23 26L24 26L24 24ZM14 25L14 26L15 26L15 25ZM25 25L25 28L28 28L28 25ZM26 26L26 27L27 27L27 26ZM29 28L29 29L31 29L31 28ZM26 29L26 30L28 30L28 31L29 31L29 32L30 32L30 31L31 31L31 30L28 30L28 29ZM19 31L19 32L20 32L20 31ZM0 0L0 7L7 7L7 0ZM1 1L1 6L6 6L6 1ZM2 2L2 5L5 5L5 2ZM26 0L26 7L33 7L33 0ZM27 1L27 6L32 6L32 1ZM28 2L28 5L31 5L31 2ZM0 26L0 33L7 33L7 26ZM1 27L1 32L6 32L6 27ZM2 28L2 31L5 31L5 28Z" fill="#000000"/></g></g></svg>
