<?xml version="1.0" encoding="UTF-8"?>
<svg xmlns="http://www.w3.org/2000/svg" version="1.1" width="400" height="400" viewBox="0 0 400 400"><rect x="0" y="0" width="400" height="400" fill="#fefefe"/><g transform="scale(9.756)"><g transform="translate(4,4)"><path fill-rule="evenodd" d="M9 0L9 1L8 1L8 2L9 2L9 3L8 3L8 4L9 4L9 3L10 3L10 5L8 5L8 7L9 7L9 8L6 8L6 9L8 9L8 10L6 10L6 11L5 11L5 10L4 10L4 9L5 9L5 8L0 8L0 9L2 9L2 11L0 11L0 12L1 12L1 17L0 17L0 19L1 19L1 20L3 20L3 21L2 21L2 22L3 22L3 25L7 25L7 24L8 24L8 23L9 23L9 24L10 24L10 26L12 26L12 28L13 28L13 29L11 29L11 27L10 27L10 28L8 28L8 33L11 33L11 32L12 32L12 31L11 31L11 30L13 30L13 29L14 29L14 30L15 30L15 33L16 33L16 32L17 32L17 33L18 33L18 32L17 32L17 31L16 31L16 30L17 30L17 29L18 29L18 28L20 28L20 29L19 29L19 30L20 30L20 31L21 31L21 32L19 32L19 33L21 33L21 32L24 32L24 33L26 33L26 32L24 32L24 31L25 31L25 30L26 30L26 31L27 31L27 32L29 32L29 33L30 33L30 32L31 32L31 33L32 33L32 32L31 32L31 31L32 31L32 30L31 30L31 29L33 29L33 28L32 28L32 26L33 26L33 23L30 23L30 24L32 24L32 25L30 25L30 26L31 26L31 27L29 27L29 24L27 24L27 23L28 23L28 22L27 22L27 21L30 21L30 20L31 20L31 19L32 19L32 20L33 20L33 19L32 19L32 18L33 18L33 17L32 17L32 14L33 14L33 13L32 13L32 10L33 10L33 9L32 9L32 8L31 8L31 9L32 9L32 10L28 10L28 8L27 8L27 9L26 9L26 8L25 8L25 6L24 6L24 9L23 9L23 8L22 8L22 7L23 7L23 6L22 6L22 5L25 5L25 4L22 4L22 5L21 5L21 6L20 6L20 7L19 7L19 5L20 5L20 4L21 4L21 3L25 3L25 0L23 0L23 1L20 1L20 0L19 0L19 1L18 1L18 0L17 0L17 1L18 1L18 3L17 3L17 4L19 4L19 5L17 5L17 6L16 6L16 5L15 5L15 6L14 6L14 5L13 5L13 4L14 4L14 3L13 3L13 2L14 2L14 1L15 1L15 2L16 2L16 1L15 1L15 0ZM10 1L10 3L11 3L11 2L12 2L12 1ZM19 1L19 3L21 3L21 2L20 2L20 1ZM23 1L23 2L24 2L24 1ZM12 3L12 4L13 4L13 3ZM15 3L15 4L16 4L16 3ZM11 5L11 7L12 7L12 5ZM9 6L9 7L10 7L10 6ZM13 6L13 8L14 8L14 9L13 9L13 10L14 10L14 11L12 11L12 10L11 10L11 9L12 9L12 8L10 8L10 9L9 9L9 10L8 10L8 11L6 11L6 12L8 12L8 14L7 14L7 13L6 13L6 14L5 14L5 15L6 15L6 16L4 16L4 17L2 17L2 18L1 18L1 19L3 19L3 20L4 20L4 17L6 17L6 18L5 18L5 20L7 20L7 19L8 19L8 22L7 22L7 21L6 21L6 22L7 22L7 23L5 23L5 22L4 22L4 24L7 24L7 23L8 23L8 22L9 22L9 23L12 23L12 22L9 22L9 19L8 19L8 18L10 18L10 20L14 20L14 21L13 21L13 24L14 24L14 25L13 25L13 28L14 28L14 29L15 29L15 30L16 30L16 29L17 29L17 28L18 28L18 27L23 27L23 26L24 26L24 24L25 24L25 23L27 23L27 22L26 22L26 21L27 21L27 20L30 20L30 19L31 19L31 18L30 18L30 17L31 17L31 16L30 16L30 14L29 14L29 13L31 13L31 12L29 12L29 11L28 11L28 10L27 10L27 11L26 11L26 10L25 10L25 9L24 9L24 10L23 10L23 9L22 9L22 8L21 8L21 7L22 7L22 6L21 6L21 7L20 7L20 8L19 8L19 7L18 7L18 6L17 6L17 8L16 8L16 9L15 9L15 7L16 7L16 6L15 6L15 7L14 7L14 6ZM17 8L17 9L16 9L16 10L15 10L15 9L14 9L14 10L15 10L15 12L16 12L16 11L18 11L18 12L17 12L17 13L16 13L16 14L15 14L15 13L14 13L14 12L13 12L13 13L14 13L14 14L15 14L15 15L16 15L16 17L14 17L14 16L13 16L13 14L12 14L12 13L11 13L11 12L12 12L12 11L11 11L11 10L10 10L10 11L11 11L11 12L9 12L9 11L8 11L8 12L9 12L9 14L10 14L10 13L11 13L11 14L12 14L12 15L10 15L10 16L12 16L12 17L11 17L11 18L12 18L12 19L14 19L14 18L15 18L15 21L14 21L14 24L15 24L15 23L16 23L16 24L17 24L17 25L16 25L16 26L15 26L15 25L14 25L14 26L15 26L15 29L16 29L16 28L17 28L17 25L18 25L18 24L17 24L17 23L19 23L19 24L20 24L20 23L19 23L19 22L20 22L20 21L21 21L21 20L22 20L22 19L21 19L21 18L22 18L22 17L23 17L23 18L25 18L25 20L23 20L23 22L21 22L21 24L24 24L24 23L25 23L25 21L26 21L26 19L29 19L29 18L28 18L28 17L29 17L29 15L27 15L27 16L28 16L28 17L26 17L26 18L25 18L25 17L23 17L23 15L22 15L22 13L23 13L23 14L24 14L24 15L25 15L25 16L26 16L26 14L28 14L28 13L29 13L29 12L28 12L28 11L27 11L27 12L28 12L28 13L26 13L26 12L25 12L25 13L23 13L23 12L24 12L24 11L23 11L23 10L22 10L22 9L19 9L19 8ZM29 8L29 9L30 9L30 8ZM17 9L17 10L18 10L18 9ZM19 10L19 13L20 13L20 14L17 14L17 16L18 16L18 15L19 15L19 17L22 17L22 16L20 16L20 15L21 15L21 13L22 13L22 12L23 12L23 11L22 11L22 10ZM4 11L4 12L2 12L2 14L3 14L3 15L2 15L2 16L3 16L3 15L4 15L4 14L3 14L3 13L4 13L4 12L5 12L5 11ZM20 11L20 13L21 13L21 12L22 12L22 11ZM25 13L25 14L26 14L26 13ZM6 14L6 15L7 15L7 14ZM6 16L6 17L8 17L8 16ZM13 17L13 18L14 18L14 17ZM17 17L17 18L16 18L16 19L17 19L17 20L18 20L18 21L17 21L17 22L16 22L16 21L15 21L15 22L16 22L16 23L17 23L17 22L19 22L19 21L20 21L20 20L21 20L21 19L20 19L20 18L19 18L19 19L20 19L20 20L18 20L18 19L17 19L17 18L18 18L18 17ZM6 18L6 19L7 19L7 18ZM0 21L0 25L1 25L1 21ZM32 21L32 22L33 22L33 21ZM23 22L23 23L24 23L24 22ZM11 24L11 25L12 25L12 24ZM8 25L8 27L9 27L9 25ZM19 25L19 26L23 26L23 25ZM25 25L25 28L28 28L28 25ZM26 26L26 27L27 27L27 26ZM21 28L21 29L20 29L20 30L21 30L21 29L23 29L23 30L22 30L22 31L23 31L23 30L25 30L25 29L24 29L24 28ZM29 28L29 29L31 29L31 28ZM10 29L10 30L9 30L9 31L10 31L10 30L11 30L11 29ZM26 29L26 30L27 30L27 31L29 31L29 32L30 32L30 31L31 31L31 30L27 30L27 29ZM13 32L13 33L14 33L14 32ZM0 0L0 7L7 7L7 0ZM1 1L1 6L6 6L6 1ZM2 2L2 5L5 5L5 2ZM26 0L26 7L33 7L33 0ZM27 1L27 6L32 6L32 1ZM28 2L28 5L31 5L31 2ZM0 26L0 33L7 33L7 26ZM1 27L1 32L6 32L6 27ZM2 28L2 31L5 31L5 28Z" fill="#000000"/></g></g></svg>
