<?xml version="1.0" encoding="UTF-8"?>
<svg xmlns="http://www.w3.org/2000/svg" version="1.1" width="400" height="400" viewBox="0 0 400 400"><rect x="0" y="0" width="400" height="400" fill="#fefefe"/><g transform="scale(9.756)"><g transform="translate(4,4)"><path fill-rule="evenodd" d="M8 0L8 4L9 4L9 5L8 5L8 7L9 7L9 8L10 8L10 7L11 7L11 5L12 5L12 7L13 7L13 5L14 5L14 7L15 7L15 8L14 8L14 9L13 9L13 8L12 8L12 9L11 9L11 11L10 11L10 13L11 13L11 15L10 15L10 14L8 14L8 16L9 16L9 17L11 17L11 19L10 19L10 18L8 18L8 17L7 17L7 16L6 16L6 15L7 15L7 14L6 14L6 13L7 13L7 12L5 12L5 11L2 11L2 8L0 8L0 9L1 9L1 11L0 11L0 14L1 14L1 13L2 13L2 14L3 14L3 16L2 16L2 15L0 15L0 16L1 16L1 17L4 17L4 19L2 19L2 18L1 18L1 19L2 19L2 20L1 20L1 21L0 21L0 22L1 22L1 21L3 21L3 22L2 22L2 24L0 24L0 25L3 25L3 24L4 24L4 25L7 25L7 24L4 24L4 21L7 21L7 22L6 22L6 23L7 23L7 22L8 22L8 23L9 23L9 24L11 24L11 23L12 23L12 22L14 22L14 25L13 25L13 24L12 24L12 25L11 25L11 26L10 26L10 25L8 25L8 26L10 26L10 27L8 27L8 29L9 29L9 30L10 30L10 31L13 31L13 30L14 30L14 29L15 29L15 32L14 32L14 33L15 33L15 32L16 32L16 31L17 31L17 33L18 33L18 32L19 32L19 33L25 33L25 32L26 32L26 33L28 33L28 32L26 32L26 31L29 31L29 33L30 33L30 31L32 31L32 30L33 30L33 29L29 29L29 27L31 27L31 28L32 28L32 26L31 26L31 25L32 25L32 24L33 24L33 23L31 23L31 22L32 22L32 21L33 21L33 19L32 19L32 18L31 18L31 17L30 17L30 18L29 18L29 19L28 19L28 18L26 18L26 17L29 17L29 16L30 16L30 14L31 14L31 16L32 16L32 17L33 17L33 16L32 16L32 14L31 14L31 13L29 13L29 10L27 10L27 11L28 11L28 12L25 12L25 10L24 10L24 9L25 9L25 8L24 8L24 9L22 9L22 7L23 7L23 6L22 6L22 7L21 7L21 6L20 6L20 5L24 5L24 3L25 3L25 2L23 2L23 1L25 1L25 0L23 0L23 1L22 1L22 0L20 0L20 1L17 1L17 2L16 2L16 3L15 3L15 4L14 4L14 3L12 3L12 4L9 4L9 3L11 3L11 2L9 2L9 0ZM10 0L10 1L12 1L12 2L13 2L13 0ZM15 0L15 1L14 1L14 2L15 2L15 1L16 1L16 0ZM20 1L20 2L19 2L19 3L17 3L17 4L16 4L16 5L15 5L15 7L16 7L16 8L15 8L15 9L14 9L14 11L13 11L13 10L12 10L12 11L11 11L11 13L12 13L12 15L11 15L11 17L12 17L12 16L13 16L13 17L14 17L14 19L13 19L13 18L12 18L12 19L13 19L13 21L14 21L14 22L15 22L15 21L16 21L16 20L17 20L17 19L18 19L18 21L17 21L17 23L15 23L15 24L16 24L16 25L17 25L17 26L16 26L16 28L15 28L15 25L14 25L14 26L12 26L12 28L11 28L11 27L10 27L10 29L14 29L14 28L15 28L15 29L17 29L17 30L19 30L19 32L20 32L20 29L21 29L21 30L23 30L23 29L24 29L24 31L26 31L26 29L24 29L24 28L23 28L23 27L24 27L24 26L23 26L23 27L22 27L22 28L23 28L23 29L21 29L21 26L22 26L22 25L24 25L24 24L23 24L23 20L22 20L22 25L21 25L21 23L20 23L20 21L21 21L21 19L23 19L23 17L25 17L25 16L23 16L23 15L22 15L22 16L23 16L23 17L19 17L19 18L18 18L18 17L17 17L17 19L16 19L16 20L15 20L15 18L16 18L16 17L14 17L14 16L17 16L17 14L16 14L16 15L15 15L15 13L14 13L14 12L15 12L15 9L17 9L17 10L16 10L16 11L18 11L18 12L20 12L20 9L21 9L21 11L22 11L22 13L19 13L19 15L18 15L18 16L19 16L19 15L20 15L20 16L21 16L21 15L20 15L20 14L22 14L22 13L25 13L25 14L24 14L24 15L26 15L26 16L28 16L28 14L29 14L29 13L25 13L25 12L24 12L24 11L23 11L23 10L22 10L22 9L21 9L21 7L20 7L20 6L19 6L19 10L18 10L18 9L17 9L17 7L18 7L18 6L17 6L17 5L20 5L20 3L21 3L21 4L22 4L22 3L23 3L23 2L22 2L22 1ZM21 2L21 3L22 3L22 2ZM9 5L9 7L10 7L10 5ZM16 6L16 7L17 7L17 6ZM24 6L24 7L25 7L25 6ZM4 8L4 9L3 9L3 10L6 10L6 11L7 11L7 10L8 10L8 11L9 11L9 10L10 10L10 9L7 9L7 8ZM27 8L27 9L28 9L28 8ZM29 8L29 9L31 9L31 12L32 12L32 13L33 13L33 12L32 12L32 9L33 9L33 8ZM6 9L6 10L7 10L7 9ZM12 11L12 12L13 12L13 11ZM8 12L8 13L9 13L9 12ZM16 12L16 13L17 13L17 12ZM4 13L4 14L5 14L5 15L4 15L4 17L6 17L6 18L7 18L7 19L6 19L6 20L7 20L7 19L8 19L8 20L9 20L9 21L8 21L8 22L9 22L9 21L10 21L10 23L11 23L11 21L10 21L10 19L8 19L8 18L7 18L7 17L6 17L6 16L5 16L5 15L6 15L6 14L5 14L5 13ZM13 13L13 14L14 14L14 13ZM26 14L26 15L27 15L27 14ZM9 15L9 16L10 16L10 15ZM20 18L20 19L21 19L21 18ZM4 19L4 20L3 20L3 21L4 21L4 20L5 20L5 19ZM26 19L26 20L27 20L27 21L25 21L25 22L24 22L24 23L25 23L25 24L26 24L26 23L28 23L28 22L31 22L31 20L32 20L32 19L30 19L30 21L28 21L28 20L27 20L27 19ZM14 20L14 21L15 21L15 20ZM27 21L27 22L28 22L28 21ZM25 22L25 23L26 23L26 22ZM17 23L17 25L18 25L18 24L19 24L19 23ZM30 23L30 24L29 24L29 26L30 26L30 25L31 25L31 23ZM20 25L20 26L21 26L21 25ZM25 25L25 28L28 28L28 25ZM17 26L17 29L18 29L18 27L19 27L19 26ZM26 26L26 27L27 27L27 26ZM19 28L19 29L20 29L20 28ZM8 31L8 33L11 33L11 32L9 32L9 31ZM22 31L22 32L23 32L23 31ZM32 32L32 33L33 33L33 32ZM0 0L0 7L7 7L7 0ZM1 1L1 6L6 6L6 1ZM2 2L2 5L5 5L5 2ZM26 0L26 7L33 7L33 0ZM27 1L27 6L32 6L32 1ZM28 2L28 5L31 5L31 2ZM0 26L0 33L7 33L7 26ZM1 27L1 32L6 32L6 27ZM2 28L2 31L5 31L5 28Z" fill="#000000"/></g></g></svg>
