<?xml version="1.0" encoding="UTF-8"?>
<svg xmlns="http://www.w3.org/2000/svg" version="1.1" width="400" height="400" viewBox="0 0 400 400"><rect x="0" y="0" width="400" height="400" fill="#fefefe"/><g transform="scale(9.756)"><g transform="translate(4,4)"><path fill-rule="evenodd" d="M8 0L8 4L9 4L9 5L8 5L8 7L9 7L9 8L10 8L10 7L11 7L11 5L12 5L12 7L13 7L13 5L14 5L14 7L15 7L15 8L14 8L14 9L13 9L13 8L12 8L12 9L11 9L11 11L10 11L10 13L9 13L9 12L6 12L6 11L7 11L7 10L4 10L4 9L7 9L7 8L4 8L4 9L3 9L3 10L4 10L4 11L5 11L5 12L4 12L4 13L3 13L3 12L2 12L2 13L1 13L1 14L0 14L0 15L1 15L1 16L0 16L0 17L1 17L1 18L0 18L0 22L2 22L2 21L1 21L1 20L2 20L2 18L3 18L3 19L4 19L4 20L3 20L3 21L4 21L4 20L5 20L5 19L4 19L4 18L3 18L3 17L2 17L2 16L4 16L4 17L5 17L5 18L6 18L6 19L7 19L7 18L6 18L6 17L7 17L7 16L9 16L9 17L11 17L11 22L9 22L9 23L8 23L8 24L6 24L6 23L7 23L7 22L8 22L8 21L10 21L10 19L8 19L8 21L7 21L7 20L6 20L6 21L5 21L5 22L4 22L4 23L5 23L5 24L4 24L4 25L8 25L8 26L9 26L9 27L8 27L8 29L9 29L9 28L10 28L10 30L9 30L9 31L8 31L8 33L9 33L9 31L11 31L11 33L12 33L12 30L14 30L14 29L15 29L15 32L14 32L14 33L15 33L15 32L16 32L16 31L17 31L17 33L18 33L18 32L19 32L19 33L20 33L20 32L21 32L21 33L22 33L22 30L21 30L21 29L23 29L23 30L25 30L25 31L23 31L23 33L26 33L26 32L25 32L25 31L27 31L27 29L28 29L28 31L29 31L29 33L30 33L30 31L32 31L32 30L33 30L33 29L29 29L29 27L31 27L31 28L32 28L32 26L31 26L31 25L32 25L32 24L33 24L33 23L31 23L31 22L32 22L32 21L33 21L33 19L32 19L32 18L31 18L31 17L30 17L30 18L28 18L28 19L27 19L27 18L26 18L26 17L29 17L29 16L30 16L30 14L31 14L31 16L32 16L32 17L33 17L33 16L32 16L32 14L31 14L31 13L29 13L29 12L28 12L28 11L29 11L29 10L28 10L28 11L26 11L26 12L25 12L25 13L22 13L22 11L24 11L24 10L25 10L25 9L22 9L22 8L23 8L23 6L22 6L22 5L21 5L21 3L22 3L22 2L23 2L23 5L25 5L25 2L23 2L23 1L25 1L25 0L23 0L23 1L22 1L22 0L20 0L20 1L19 1L19 2L18 2L18 1L17 1L17 2L16 2L16 3L15 3L15 4L14 4L14 3L12 3L12 4L9 4L9 3L11 3L11 2L9 2L9 0ZM10 0L10 1L12 1L12 2L13 2L13 0ZM15 0L15 1L14 1L14 2L15 2L15 1L16 1L16 0ZM20 1L20 2L22 2L22 1ZM17 3L17 4L16 4L16 5L15 5L15 7L16 7L16 8L15 8L15 9L14 9L14 11L13 11L13 10L12 10L12 11L11 11L11 13L10 13L10 14L11 14L11 13L12 13L12 15L9 15L9 16L11 16L11 17L12 17L12 16L13 16L13 17L14 17L14 19L13 19L13 18L12 18L12 19L13 19L13 21L14 21L14 22L15 22L15 21L16 21L16 20L17 20L17 19L18 19L18 21L17 21L17 23L13 23L13 22L12 22L12 23L11 23L11 24L10 24L10 23L9 23L9 24L8 24L8 25L9 25L9 24L10 24L10 25L12 25L12 24L13 24L13 25L14 25L14 26L13 26L13 27L12 27L12 29L14 29L14 28L15 28L15 29L17 29L17 30L19 30L19 32L20 32L20 31L21 31L21 30L20 30L20 29L21 29L21 28L20 28L20 29L19 29L19 27L23 27L23 29L24 29L24 24L25 24L25 23L26 23L26 24L27 24L27 22L28 22L28 23L29 23L29 22L31 22L31 20L32 20L32 19L30 19L30 21L26 21L26 20L27 20L27 19L26 19L26 20L25 20L25 21L26 21L26 22L25 22L25 23L23 23L23 20L22 20L22 24L23 24L23 25L21 25L21 23L20 23L20 22L21 22L21 21L19 21L19 19L21 19L21 18L20 18L20 17L21 17L21 15L22 15L22 17L25 17L25 16L26 16L26 15L29 15L29 13L25 13L25 14L24 14L24 15L25 15L25 16L23 16L23 15L22 15L22 13L19 13L19 15L18 15L18 16L19 16L19 15L20 15L20 17L19 17L19 18L18 18L18 17L17 17L17 19L16 19L16 20L15 20L15 18L16 18L16 17L14 17L14 16L17 16L17 14L16 14L16 15L15 15L15 13L14 13L14 12L15 12L15 9L17 9L17 10L16 10L16 11L18 11L18 12L19 12L19 11L20 11L20 12L21 12L21 11L20 11L20 9L21 9L21 8L20 8L20 9L19 9L19 10L18 10L18 9L17 9L17 7L18 7L18 6L17 6L17 5L18 5L18 3ZM19 3L19 5L20 5L20 3ZM9 5L9 7L10 7L10 5ZM16 6L16 7L17 7L17 6ZM19 6L19 7L20 7L20 6ZM21 6L21 7L22 7L22 6ZM24 6L24 8L25 8L25 6ZM0 8L0 12L1 12L1 11L2 11L2 10L1 10L1 9L2 9L2 8ZM27 8L27 9L28 9L28 8ZM29 8L29 9L31 9L31 12L32 12L32 13L33 13L33 12L32 12L32 9L33 9L33 8ZM8 9L8 10L10 10L10 9ZM12 11L12 12L13 12L13 11ZM5 12L5 13L6 13L6 14L8 14L8 13L6 13L6 12ZM16 12L16 13L17 13L17 12ZM13 13L13 14L14 14L14 13ZM3 14L3 15L5 15L5 14ZM20 14L20 15L21 15L21 14ZM6 15L6 16L7 16L7 15ZM28 19L28 20L29 20L29 19ZM14 20L14 21L15 21L15 20ZM6 21L6 22L5 22L5 23L6 23L6 22L7 22L7 21ZM17 23L17 25L16 25L16 24L14 24L14 25L15 25L15 28L16 28L16 26L17 26L17 29L18 29L18 27L19 27L19 26L17 26L17 25L18 25L18 24L19 24L19 25L20 25L20 26L21 26L21 25L20 25L20 23ZM30 23L30 24L29 24L29 26L30 26L30 25L31 25L31 23ZM0 24L0 25L3 25L3 24ZM25 25L25 28L28 28L28 25ZM10 26L10 27L11 27L11 26ZM26 26L26 27L27 27L27 26ZM27 32L27 33L28 33L28 32ZM32 32L32 33L33 33L33 32ZM0 0L0 7L7 7L7 0ZM1 1L1 6L6 6L6 1ZM2 2L2 5L5 5L5 2ZM26 0L26 7L33 7L33 0ZM27 1L27 6L32 6L32 1ZM28 2L28 5L31 5L31 2ZM0 26L0 33L7 33L7 26ZM1 27L1 32L6 32L6 27ZM2 28L2 31L5 31L5 28Z" fill="#000000"/></g></g></svg>
