<?xml version="1.0" encoding="UTF-8"?>
<svg xmlns="http://www.w3.org/2000/svg" version="1.1" width="400" height="400" viewBox="0 0 400 400"><rect x="0" y="0" width="400" height="400" fill="#fefefe"/><g transform="scale(9.756)"><g transform="translate(4,4)"><path fill-rule="evenodd" d="M11 0L11 1L8 1L8 3L9 3L9 2L10 2L10 4L8 4L8 8L6 8L6 9L4 9L4 8L3 8L3 9L2 9L2 8L0 8L0 9L1 9L1 10L0 10L0 11L3 11L3 12L4 12L4 13L2 13L2 12L1 12L1 15L0 15L0 17L1 17L1 18L0 18L0 19L2 19L2 17L3 17L3 14L5 14L5 16L4 16L4 18L5 18L5 20L6 20L6 21L7 21L7 20L8 20L8 21L11 21L11 20L12 20L12 21L13 21L13 22L12 22L12 23L11 23L11 22L9 22L9 23L8 23L8 22L6 22L6 23L3 23L3 21L4 21L4 22L5 22L5 21L4 21L4 20L3 20L3 21L2 21L2 20L0 20L0 21L1 21L1 22L0 22L0 23L1 23L1 24L0 24L0 25L1 25L1 24L2 24L2 25L8 25L8 27L10 27L10 29L8 29L8 30L10 30L10 31L11 31L11 32L9 32L9 31L8 31L8 33L12 33L12 31L11 31L11 30L12 30L12 29L11 29L11 27L13 27L13 28L14 28L14 29L13 29L13 30L14 30L14 31L15 31L15 32L16 32L16 33L17 33L17 32L19 32L19 31L17 31L17 29L18 29L18 30L19 30L19 29L22 29L22 31L20 31L20 33L25 33L25 31L26 31L26 30L27 30L27 29L28 29L28 31L27 31L27 32L26 32L26 33L27 33L27 32L30 32L30 31L29 31L29 30L30 30L30 29L29 29L29 27L30 27L30 25L29 25L29 24L28 24L28 23L27 23L27 22L28 22L28 20L30 20L30 19L28 19L28 20L27 20L27 21L26 21L26 23L27 23L27 24L23 24L23 22L22 22L22 23L20 23L20 22L19 22L19 21L23 21L23 20L24 20L24 21L25 21L25 20L26 20L26 17L27 17L27 18L28 18L28 17L29 17L29 16L30 16L30 15L32 15L32 14L33 14L33 9L32 9L32 8L30 8L30 9L29 9L29 8L26 8L26 10L25 10L25 11L23 11L23 9L24 9L24 8L25 8L25 5L24 5L24 3L25 3L25 0L21 0L21 1L20 1L20 0L18 0L18 1L17 1L17 0L15 0L15 4L13 4L13 2L14 2L14 0ZM12 1L12 2L11 2L11 4L12 4L12 2L13 2L13 1ZM19 1L19 2L18 2L18 3L16 3L16 6L15 6L15 7L14 7L14 5L11 5L11 7L10 7L10 6L9 6L9 7L10 7L10 8L8 8L8 9L9 9L9 10L7 10L7 9L6 9L6 10L5 10L5 11L4 11L4 12L5 12L5 14L7 14L7 15L6 15L6 16L9 16L9 17L6 17L6 18L7 18L7 19L6 19L6 20L7 20L7 19L8 19L8 20L11 20L11 19L12 19L12 18L13 18L13 17L14 17L14 18L15 18L15 19L13 19L13 20L14 20L14 21L15 21L15 22L13 22L13 23L12 23L12 24L11 24L11 26L13 26L13 27L14 27L14 28L15 28L15 29L14 29L14 30L15 30L15 31L16 31L16 32L17 32L17 31L16 31L16 29L17 29L17 28L15 28L15 27L17 27L17 25L15 25L15 26L14 26L14 25L12 25L12 24L13 24L13 23L15 23L15 24L16 24L16 23L17 23L17 24L18 24L18 25L20 25L20 26L18 26L18 29L19 29L19 28L20 28L20 27L21 27L21 24L18 24L18 23L17 23L17 22L16 22L16 21L19 21L19 20L21 20L21 19L22 19L22 18L21 18L21 17L17 17L17 18L19 18L19 19L18 19L18 20L17 20L17 19L16 19L16 18L15 18L15 17L14 17L14 16L16 16L16 15L17 15L17 14L18 14L18 16L21 16L21 15L23 15L23 14L25 14L25 16L22 16L22 17L24 17L24 18L23 18L23 19L25 19L25 16L27 16L27 14L25 14L25 13L26 13L26 11L29 11L29 9L28 9L28 10L26 10L26 11L25 11L25 12L22 12L22 13L23 13L23 14L21 14L21 12L19 12L19 11L16 11L16 8L17 8L17 9L18 9L18 10L21 10L21 11L22 11L22 10L21 10L21 9L20 9L20 8L21 8L21 7L22 7L22 6L23 6L23 8L24 8L24 5L22 5L22 6L21 6L21 5L20 5L20 4L19 4L19 2L20 2L20 3L21 3L21 4L23 4L23 3L24 3L24 2L23 2L23 1L22 1L22 2L20 2L20 1ZM18 5L18 7L17 7L17 6L16 6L16 7L15 7L15 8L16 8L16 7L17 7L17 8L18 8L18 9L19 9L19 6L20 6L20 7L21 7L21 6L20 6L20 5ZM12 6L12 7L13 7L13 6ZM10 8L10 9L13 9L13 10L12 10L12 11L11 11L11 10L9 10L9 11L11 11L11 12L13 12L13 13L12 13L12 14L11 14L11 13L10 13L10 14L8 14L8 13L9 13L9 12L8 12L8 11L7 11L7 10L6 10L6 11L5 11L5 12L6 12L6 13L7 13L7 14L8 14L8 15L10 15L10 16L11 16L11 15L13 15L13 16L12 16L12 17L11 17L11 18L8 18L8 19L11 19L11 18L12 18L12 17L13 17L13 16L14 16L14 15L13 15L13 13L14 13L14 14L15 14L15 13L19 13L19 14L20 14L20 13L19 13L19 12L16 12L16 11L15 11L15 9L14 9L14 8ZM3 9L3 10L4 10L4 9ZM13 10L13 11L14 11L14 10ZM31 10L31 11L30 11L30 12L28 12L28 13L29 13L29 14L28 14L28 16L29 16L29 14L31 14L31 12L32 12L32 10ZM6 11L6 12L7 12L7 13L8 13L8 12L7 12L7 11ZM1 16L1 17L2 17L2 16ZM32 16L32 17L33 17L33 16ZM20 18L20 19L21 19L21 18ZM31 18L31 19L32 19L32 20L33 20L33 18ZM15 19L15 20L16 20L16 19ZM29 21L29 22L31 22L31 23L33 23L33 21ZM6 23L6 24L8 24L8 25L10 25L10 23L9 23L9 24L8 24L8 23ZM22 24L22 25L23 25L23 26L22 26L22 29L24 29L24 30L25 30L25 29L24 29L24 28L23 28L23 27L24 27L24 25L23 25L23 24ZM25 25L25 28L28 28L28 25ZM31 25L31 27L32 27L32 26L33 26L33 25ZM26 26L26 27L27 27L27 26ZM31 29L31 31L33 31L33 29ZM22 31L22 32L24 32L24 31ZM13 32L13 33L14 33L14 32ZM31 32L31 33L32 33L32 32ZM0 0L0 7L7 7L7 0ZM1 1L1 6L6 6L6 1ZM2 2L2 5L5 5L5 2ZM26 0L26 7L33 7L33 0ZM27 1L27 6L32 6L32 1ZM28 2L28 5L31 5L31 2ZM0 26L0 33L7 33L7 26ZM1 27L1 32L6 32L6 27ZM2 28L2 31L5 31L5 28Z" fill="#000000"/></g></g></svg>
