<?xml version="1.0" encoding="UTF-8"?>
<svg xmlns="http://www.w3.org/2000/svg" version="1.1" width="400" height="400" viewBox="0 0 400 400"><rect x="0" y="0" width="400" height="400" fill="#fefefe"/><g transform="scale(9.756)"><g transform="translate(4,4)"><path fill-rule="evenodd" d="M9 0L9 1L8 1L8 2L9 2L9 3L8 3L8 4L9 4L9 3L10 3L10 5L8 5L8 7L9 7L9 8L6 8L6 9L5 9L5 8L0 8L0 10L2 10L2 12L1 12L1 14L0 14L0 15L2 15L2 16L1 16L1 17L2 17L2 16L4 16L4 15L5 15L5 13L7 13L7 14L6 14L6 15L7 15L7 16L5 16L5 17L4 17L4 19L3 19L3 18L1 18L1 19L0 19L0 25L1 25L1 21L2 21L2 23L3 23L3 25L4 25L4 23L5 23L5 24L6 24L6 25L8 25L8 27L9 27L9 28L8 28L8 33L10 33L10 32L11 32L11 31L10 31L10 30L13 30L13 29L14 29L14 30L15 30L15 31L14 31L14 32L13 32L13 33L14 33L14 32L15 32L15 33L16 33L16 32L17 32L17 33L18 33L18 32L17 32L17 31L16 31L16 30L17 30L17 29L18 29L18 28L20 28L20 29L19 29L19 30L20 30L20 29L21 29L21 31L20 31L20 32L22 32L22 33L25 33L25 32L26 32L26 31L28 31L28 30L31 30L31 31L30 31L30 32L27 32L27 33L30 33L30 32L31 32L31 33L32 33L32 32L31 32L31 31L32 31L32 30L31 30L31 29L33 29L33 28L32 28L32 26L33 26L33 23L30 23L30 24L32 24L32 25L30 25L30 26L31 26L31 27L29 27L29 24L28 24L28 22L27 22L27 21L30 21L30 20L31 20L31 19L32 19L32 20L33 20L33 19L32 19L32 18L33 18L33 17L32 17L32 14L33 14L33 13L32 13L32 10L33 10L33 9L32 9L32 8L31 8L31 9L32 9L32 10L28 10L28 11L27 11L27 13L24 13L24 12L26 12L26 11L25 11L25 9L26 9L26 10L27 10L27 9L28 9L28 8L27 8L27 9L26 9L26 8L25 8L25 5L24 5L24 4L25 4L25 2L23 2L23 1L25 1L25 0L23 0L23 1L21 1L21 0L18 0L18 1L17 1L17 2L18 2L18 3L17 3L17 4L19 4L19 5L20 5L20 7L21 7L21 8L17 8L17 6L16 6L16 5L15 5L15 6L14 6L14 5L13 5L13 4L14 4L14 3L13 3L13 2L14 2L14 1L15 1L15 2L16 2L16 1L15 1L15 0ZM10 1L10 3L11 3L11 2L12 2L12 1ZM19 1L19 4L20 4L20 5L21 5L21 4L22 4L22 6L21 6L21 7L22 7L22 6L23 6L23 9L22 9L22 8L21 8L21 9L20 9L20 10L19 10L19 12L21 12L21 13L20 13L20 14L17 14L17 16L18 16L18 15L22 15L22 16L19 16L19 17L25 17L25 18L23 18L23 19L22 19L22 20L21 20L21 19L20 19L20 18L19 18L19 20L18 20L18 19L17 19L17 18L18 18L18 17L17 17L17 18L16 18L16 19L17 19L17 20L18 20L18 21L17 21L17 22L16 22L16 21L15 21L15 18L14 18L14 17L16 17L16 15L15 15L15 14L16 14L16 13L17 13L17 12L18 12L18 11L16 11L16 12L15 12L15 10L16 10L16 9L17 9L17 10L18 10L18 9L17 9L17 8L16 8L16 9L15 9L15 7L16 7L16 6L15 6L15 7L14 7L14 6L13 6L13 8L14 8L14 9L13 9L13 10L14 10L14 11L12 11L12 10L11 10L11 9L12 9L12 8L10 8L10 9L9 9L9 11L8 11L8 10L7 10L7 9L6 9L6 10L7 10L7 11L5 11L5 9L4 9L4 10L3 10L3 9L2 9L2 10L3 10L3 11L4 11L4 12L3 12L3 13L2 13L2 14L4 14L4 12L7 12L7 13L8 13L8 12L11 12L11 13L9 13L9 14L7 14L7 15L10 15L10 16L9 16L9 17L8 17L8 18L11 18L11 19L10 19L10 20L9 20L9 19L6 19L6 18L7 18L7 17L5 17L5 19L4 19L4 21L3 21L3 23L4 23L4 22L7 22L7 23L6 23L6 24L8 24L8 25L9 25L9 26L10 26L10 25L12 25L12 24L10 24L10 23L12 23L12 22L11 22L11 20L14 20L14 21L13 21L13 24L14 24L14 25L13 25L13 26L11 26L11 27L10 27L10 28L9 28L9 29L13 29L13 28L14 28L14 29L15 29L15 30L16 30L16 29L17 29L17 28L18 28L18 27L20 27L20 28L21 28L21 29L23 29L23 32L25 32L25 31L26 31L26 30L28 30L28 29L26 29L26 30L25 30L25 29L24 29L24 27L23 27L23 28L21 28L21 25L22 25L22 26L23 26L23 25L24 25L24 24L23 24L23 25L22 25L22 24L21 24L21 22L23 22L23 23L24 23L24 22L23 22L23 20L25 20L25 18L26 18L26 17L27 17L27 18L28 18L28 19L26 19L26 21L25 21L25 22L26 22L26 24L27 24L27 22L26 22L26 21L27 21L27 20L30 20L30 19L31 19L31 18L30 18L30 17L31 17L31 16L30 16L30 14L29 14L29 13L31 13L31 12L29 12L29 11L28 11L28 12L29 12L29 13L27 13L27 14L26 14L26 16L25 16L25 15L24 15L24 14L21 14L21 13L23 13L23 12L24 12L24 10L23 10L23 9L25 9L25 8L24 8L24 5L23 5L23 4L24 4L24 3L23 3L23 4L22 4L22 3L21 3L21 4L20 4L20 2L21 2L21 1ZM12 3L12 4L13 4L13 3ZM15 3L15 4L16 4L16 3ZM11 5L11 7L12 7L12 5ZM9 6L9 7L10 7L10 6ZM18 6L18 7L19 7L19 6ZM29 8L29 9L30 9L30 8ZM14 9L14 10L15 10L15 9ZM21 9L21 10L22 10L22 9ZM10 10L10 11L11 11L11 12L12 12L12 11L11 11L11 10ZM21 11L21 12L22 12L22 11ZM13 12L13 13L14 13L14 14L15 14L15 13L14 13L14 12ZM11 13L11 14L12 14L12 15L11 15L11 16L10 16L10 17L11 17L11 18L12 18L12 19L14 19L14 18L13 18L13 17L14 17L14 16L13 16L13 14L12 14L12 13ZM27 15L27 17L29 17L29 16L28 16L28 15ZM11 16L11 17L12 17L12 16ZM2 19L2 20L3 20L3 19ZM5 20L5 21L7 21L7 22L8 22L8 23L10 23L10 22L9 22L9 20ZM14 21L14 24L15 24L15 23L16 23L16 24L17 24L17 25L16 25L16 26L15 26L15 25L14 25L14 26L15 26L15 29L16 29L16 28L17 28L17 25L18 25L18 24L17 24L17 23L19 23L19 24L20 24L20 25L19 25L19 26L20 26L20 25L21 25L21 24L20 24L20 23L19 23L19 22L21 22L21 21L19 21L19 22L17 22L17 23L16 23L16 22L15 22L15 21ZM32 21L32 22L33 22L33 21ZM25 25L25 28L28 28L28 25ZM26 26L26 27L27 27L27 26ZM11 27L11 28L13 28L13 27ZM29 28L29 29L31 29L31 28ZM24 30L24 31L25 31L25 30ZM9 31L9 32L10 32L10 31ZM0 0L0 7L7 7L7 0ZM1 1L1 6L6 6L6 1ZM2 2L2 5L5 5L5 2ZM26 0L26 7L33 7L33 0ZM27 1L27 6L32 6L32 1ZM28 2L28 5L31 5L31 2ZM0 26L0 33L7 33L7 26ZM1 27L1 32L6 32L6 27ZM2 28L2 31L5 31L5 28Z" fill="#000000"/></g></g></svg>
