<?xml version="1.0" encoding="UTF-8"?>
<svg xmlns="http://www.w3.org/2000/svg" version="1.1" width="400" height="400" viewBox="0 0 400 400"><rect x="0" y="0" width="400" height="400" fill="#fefefe"/><g transform="scale(9.756)"><g transform="translate(4,4)"><path fill-rule="evenodd" d="M8 0L8 4L9 4L9 5L8 5L8 7L9 7L9 8L10 8L10 7L11 7L11 5L12 5L12 7L13 7L13 5L14 5L14 7L15 7L15 8L14 8L14 9L13 9L13 8L12 8L12 9L11 9L11 11L10 11L10 13L9 13L9 10L10 10L10 9L9 9L9 10L8 10L8 13L9 13L9 15L12 15L12 13L11 13L11 11L12 11L12 12L13 12L13 11L14 11L14 9L15 9L15 12L14 12L14 13L13 13L13 14L14 14L14 13L15 13L15 15L16 15L16 14L17 14L17 16L14 16L14 17L13 17L13 16L12 16L12 17L11 17L11 16L10 16L10 17L11 17L11 19L10 19L10 18L9 18L9 16L8 16L8 18L5 18L5 17L4 17L4 16L6 16L6 17L7 17L7 16L6 16L6 15L7 15L7 14L4 14L4 13L7 13L7 12L4 12L4 11L7 11L7 10L6 10L6 9L7 9L7 8L4 8L4 9L5 9L5 10L3 10L3 9L2 9L2 8L0 8L0 10L1 10L1 9L2 9L2 11L3 11L3 12L1 12L1 11L0 11L0 12L1 12L1 14L4 14L4 15L3 15L3 17L2 17L2 15L0 15L0 16L1 16L1 17L2 17L2 18L0 18L0 22L2 22L2 23L3 23L3 25L4 25L4 24L6 24L6 25L7 25L7 24L8 24L8 26L10 26L10 29L9 29L9 27L8 27L8 29L9 29L9 30L10 30L10 29L11 29L11 33L12 33L12 30L14 30L14 29L15 29L15 32L14 32L14 33L15 33L15 32L16 32L16 31L17 31L17 33L18 33L18 32L19 32L19 33L23 33L23 31L24 31L24 33L25 33L25 29L26 29L26 31L27 31L27 29L28 29L28 33L30 33L30 31L32 31L32 30L33 30L33 29L29 29L29 27L31 27L31 28L32 28L32 26L31 26L31 25L32 25L32 24L33 24L33 23L31 23L31 22L32 22L32 21L33 21L33 19L32 19L32 18L31 18L31 17L30 17L30 18L28 18L28 17L29 17L29 16L30 16L30 14L31 14L31 16L32 16L32 17L33 17L33 16L32 16L32 14L31 14L31 13L29 13L29 10L28 10L28 13L27 13L27 11L26 11L26 10L24 10L24 9L25 9L25 3L24 3L24 2L23 2L23 1L25 1L25 0L23 0L23 1L22 1L22 0L21 0L21 1L22 1L22 2L21 2L21 3L19 3L19 2L20 2L20 1L19 1L19 0L18 0L18 1L19 1L19 2L16 2L16 3L15 3L15 4L14 4L14 3L12 3L12 4L9 4L9 3L11 3L11 2L9 2L9 0ZM10 0L10 1L12 1L12 2L13 2L13 0ZM15 0L15 1L14 1L14 2L15 2L15 1L16 1L16 0ZM22 2L22 3L21 3L21 5L22 5L22 6L21 6L21 7L22 7L22 6L23 6L23 9L19 9L19 10L18 10L18 9L17 9L17 7L18 7L18 8L20 8L20 6L19 6L19 7L18 7L18 5L20 5L20 4L19 4L19 3L17 3L17 4L16 4L16 5L15 5L15 7L16 7L16 8L15 8L15 9L17 9L17 10L16 10L16 11L18 11L18 12L19 12L19 11L20 11L20 12L21 12L21 11L22 11L22 10L23 10L23 9L24 9L24 5L23 5L23 4L24 4L24 3L23 3L23 2ZM9 5L9 7L10 7L10 5ZM16 6L16 7L17 7L17 6ZM27 8L27 9L28 9L28 8ZM29 8L29 9L31 9L31 12L32 12L32 13L33 13L33 12L32 12L32 9L33 9L33 8ZM12 10L12 11L13 11L13 10ZM20 10L20 11L21 11L21 10ZM23 11L23 12L22 12L22 13L25 13L25 14L24 14L24 15L25 15L25 16L23 16L23 17L21 17L21 16L20 16L20 17L19 17L19 18L18 18L18 17L17 17L17 19L16 19L16 20L15 20L15 18L16 18L16 17L14 17L14 19L13 19L13 18L12 18L12 19L13 19L13 21L14 21L14 22L15 22L15 21L16 21L16 20L17 20L17 19L18 19L18 21L17 21L17 23L13 23L13 22L12 22L12 23L11 23L11 25L12 25L12 24L13 24L13 25L14 25L14 26L12 26L12 28L11 28L11 29L14 29L14 28L15 28L15 29L17 29L17 30L19 30L19 32L21 32L21 31L20 31L20 30L21 30L21 29L19 29L19 27L21 27L21 26L22 26L22 27L23 27L23 28L22 28L22 29L24 29L24 24L25 24L25 22L26 22L26 24L27 24L27 22L28 22L28 23L29 23L29 22L31 22L31 20L32 20L32 19L30 19L30 21L25 21L25 22L24 22L24 23L23 23L23 19L22 19L22 24L23 24L23 25L21 25L21 24L20 24L20 25L19 25L19 24L18 24L18 25L17 25L17 23L21 23L21 21L19 21L19 20L21 20L21 19L20 19L20 17L21 17L21 18L23 18L23 17L25 17L25 16L27 16L27 17L26 17L26 18L27 18L27 17L28 17L28 15L27 15L27 13L25 13L25 12L26 12L26 11ZM16 12L16 13L17 13L17 12ZM10 13L10 14L11 14L11 13ZM19 13L19 15L18 15L18 16L19 16L19 15L20 15L20 14L21 14L21 13ZM28 13L28 14L29 14L29 13ZM3 18L3 19L4 19L4 20L2 20L2 19L1 19L1 20L2 20L2 21L4 21L4 20L5 20L5 18ZM6 19L6 20L7 20L7 19ZM8 19L8 21L5 21L5 22L3 22L3 23L6 23L6 24L7 24L7 23L10 23L10 21L11 21L11 20L10 20L10 19ZM26 19L26 20L27 20L27 19ZM28 19L28 20L29 20L29 19ZM14 20L14 21L15 21L15 20ZM8 21L8 22L9 22L9 21ZM6 22L6 23L7 23L7 22ZM30 23L30 24L29 24L29 26L30 26L30 25L31 25L31 23ZM0 24L0 25L2 25L2 24ZM9 24L9 25L10 25L10 24ZM14 24L14 25L15 25L15 28L16 28L16 26L17 26L17 29L18 29L18 27L19 27L19 26L17 26L17 25L16 25L16 24ZM20 25L20 26L21 26L21 25ZM25 25L25 28L28 28L28 25ZM26 26L26 27L27 27L27 26ZM8 31L8 33L9 33L9 31ZM32 32L32 33L33 33L33 32ZM0 0L0 7L7 7L7 0ZM1 1L1 6L6 6L6 1ZM2 2L2 5L5 5L5 2ZM26 0L26 7L33 7L33 0ZM27 1L27 6L32 6L32 1ZM28 2L28 5L31 5L31 2ZM0 26L0 33L7 33L7 26ZM1 27L1 32L6 32L6 27ZM2 28L2 31L5 31L5 28Z" fill="#000000"/></g></g></svg>
