<?xml version="1.0" encoding="UTF-8"?>
<svg xmlns="http://www.w3.org/2000/svg" version="1.1" width="400" height="400" viewBox="0 0 400 400"><rect x="0" y="0" width="400" height="400" fill="#fefefe"/><g transform="scale(9.756)"><g transform="translate(4,4)"><path fill-rule="evenodd" d="M8 0L8 4L9 4L9 5L8 5L8 7L9 7L9 8L10 8L10 7L11 7L11 5L12 5L12 7L13 7L13 5L14 5L14 7L15 7L15 8L14 8L14 9L13 9L13 8L12 8L12 9L11 9L11 11L10 11L10 13L8 13L8 12L6 12L6 13L8 13L8 15L9 15L9 14L10 14L10 13L11 13L11 15L10 15L10 17L8 17L8 18L10 18L10 19L9 19L9 20L8 20L8 19L7 19L7 18L6 18L6 17L7 17L7 16L6 16L6 15L7 15L7 14L6 14L6 15L5 15L5 16L3 16L3 15L4 15L4 14L5 14L5 11L4 11L4 10L3 10L3 11L2 11L2 12L0 12L0 15L1 15L1 13L2 13L2 16L1 16L1 17L0 17L0 20L1 20L1 19L2 19L2 18L5 18L5 19L4 19L4 20L3 20L3 21L0 21L0 22L2 22L2 24L0 24L0 25L2 25L2 24L3 24L3 25L4 25L4 23L5 23L5 24L6 24L6 25L8 25L8 26L9 26L9 27L8 27L8 29L9 29L9 30L10 30L10 31L11 31L11 33L12 33L12 31L13 31L13 30L14 30L14 29L15 29L15 31L14 31L14 33L15 33L15 32L16 32L16 31L17 31L17 33L18 33L18 32L19 32L19 33L20 33L20 31L21 31L21 33L22 33L22 32L23 32L23 31L24 31L24 33L25 33L25 32L26 32L26 33L27 33L27 32L26 32L26 31L27 31L27 29L28 29L28 33L30 33L30 31L32 31L32 30L33 30L33 29L29 29L29 27L31 27L31 28L32 28L32 26L31 26L31 25L32 25L32 24L33 24L33 23L31 23L31 22L32 22L32 21L33 21L33 19L32 19L32 18L31 18L31 17L30 17L30 18L29 18L29 19L28 19L28 18L26 18L26 17L29 17L29 16L30 16L30 14L31 14L31 16L32 16L32 17L33 17L33 16L32 16L32 14L31 14L31 13L29 13L29 10L28 10L28 11L26 11L26 10L25 10L25 11L24 11L24 9L25 9L25 5L24 5L24 3L25 3L25 0L23 0L23 1L22 1L22 0L21 0L21 1L22 1L22 2L20 2L20 1L19 1L19 0L18 0L18 1L17 1L17 2L16 2L16 3L15 3L15 4L14 4L14 3L12 3L12 4L9 4L9 3L11 3L11 2L9 2L9 0ZM10 0L10 1L12 1L12 2L13 2L13 0ZM15 0L15 1L14 1L14 2L15 2L15 1L16 1L16 0ZM23 1L23 2L22 2L22 3L20 3L20 2L19 2L19 5L20 5L20 6L19 6L19 7L18 7L18 6L17 6L17 5L18 5L18 3L17 3L17 4L16 4L16 5L15 5L15 7L16 7L16 8L15 8L15 9L14 9L14 11L13 11L13 10L12 10L12 11L11 11L11 13L12 13L12 15L11 15L11 17L10 17L10 18L11 18L11 17L12 17L12 16L13 16L13 17L14 17L14 19L13 19L13 18L12 18L12 19L13 19L13 21L14 21L14 22L15 22L15 21L16 21L16 20L17 20L17 19L18 19L18 21L17 21L17 23L13 23L13 22L12 22L12 23L11 23L11 25L12 25L12 24L13 24L13 25L14 25L14 26L12 26L12 28L11 28L11 29L10 29L10 30L11 30L11 29L14 29L14 28L15 28L15 29L17 29L17 30L19 30L19 31L20 31L20 29L21 29L21 31L22 31L22 29L24 29L24 31L26 31L26 29L24 29L24 24L25 24L25 23L24 23L24 24L23 24L23 20L22 20L22 24L23 24L23 25L21 25L21 21L19 21L19 20L20 20L20 19L21 19L21 18L22 18L22 19L23 19L23 18L22 18L22 17L25 17L25 16L22 16L22 17L19 17L19 18L18 18L18 17L17 17L17 19L16 19L16 20L15 20L15 18L16 18L16 17L14 17L14 16L17 16L17 14L16 14L16 15L15 15L15 13L14 13L14 12L15 12L15 9L17 9L17 10L16 10L16 11L18 11L18 12L20 12L20 13L19 13L19 15L18 15L18 16L21 16L21 15L20 15L20 13L21 13L21 14L22 14L22 15L23 15L23 13L24 13L24 15L26 15L26 16L28 16L28 14L29 14L29 13L24 13L24 12L23 12L23 13L21 13L21 11L22 11L22 9L24 9L24 8L22 8L22 9L21 9L21 7L22 7L22 6L23 6L23 7L24 7L24 5L21 5L21 4L22 4L22 3L23 3L23 2L24 2L24 1ZM9 5L9 7L10 7L10 5ZM16 6L16 7L17 7L17 9L18 9L18 10L19 10L19 9L20 9L20 11L21 11L21 9L20 9L20 7L21 7L21 6L20 6L20 7L19 7L19 8L18 8L18 7L17 7L17 6ZM0 8L0 9L1 9L1 10L0 10L0 11L1 11L1 10L2 10L2 8ZM4 8L4 9L7 9L7 8ZM27 8L27 9L28 9L28 8ZM29 8L29 9L31 9L31 12L32 12L32 13L33 13L33 12L32 12L32 9L33 9L33 8ZM8 9L8 11L9 11L9 10L10 10L10 9ZM6 10L6 11L7 11L7 10ZM3 11L3 14L4 14L4 11ZM12 11L12 12L13 12L13 11ZM25 11L25 12L26 12L26 11ZM16 12L16 13L17 13L17 12ZM13 13L13 14L14 14L14 13ZM26 14L26 15L27 15L27 14ZM2 16L2 17L1 17L1 18L2 18L2 17L3 17L3 16ZM6 19L6 20L5 20L5 21L3 21L3 22L5 22L5 23L6 23L6 24L7 24L7 23L6 23L6 22L7 22L7 21L8 21L8 22L9 22L9 23L8 23L8 24L9 24L9 23L10 23L10 22L9 22L9 21L11 21L11 20L9 20L9 21L8 21L8 20L7 20L7 19ZM26 19L26 20L27 20L27 19ZM30 19L30 21L25 21L25 22L26 22L26 24L27 24L27 23L29 23L29 22L31 22L31 20L32 20L32 19ZM6 20L6 21L7 21L7 20ZM14 20L14 21L15 21L15 20ZM17 23L17 25L16 25L16 24L14 24L14 25L15 25L15 28L16 28L16 26L17 26L17 29L18 29L18 27L19 27L19 26L17 26L17 25L18 25L18 24L19 24L19 25L20 25L20 28L19 28L19 29L20 29L20 28L21 28L21 29L22 29L22 27L23 27L23 26L21 26L21 25L20 25L20 24L19 24L19 23ZM30 23L30 24L29 24L29 26L30 26L30 25L31 25L31 23ZM25 25L25 28L28 28L28 25ZM10 26L10 27L9 27L9 28L10 28L10 27L11 27L11 26ZM26 26L26 27L27 27L27 26ZM8 31L8 33L10 33L10 32L9 32L9 31ZM32 32L32 33L33 33L33 32ZM0 0L0 7L7 7L7 0ZM1 1L1 6L6 6L6 1ZM2 2L2 5L5 5L5 2ZM26 0L26 7L33 7L33 0ZM27 1L27 6L32 6L32 1ZM28 2L28 5L31 5L31 2ZM0 26L0 33L7 33L7 26ZM1 27L1 32L6 32L6 27ZM2 28L2 31L5 31L5 28Z" fill="#000000"/></g></g></svg>
