<?xml version="1.0" encoding="UTF-8"?>
<svg xmlns="http://www.w3.org/2000/svg" version="1.1" width="400" height="400" viewBox="0 0 400 400"><rect x="0" y="0" width="400" height="400" fill="#fefefe"/><g transform="scale(9.756)"><g transform="translate(4,4)"><path fill-rule="evenodd" d="M8 0L8 1L10 1L10 0ZM12 0L12 2L9 2L9 4L10 4L10 5L11 5L11 6L10 6L10 8L9 8L9 6L8 6L8 8L9 8L9 9L7 9L7 8L6 8L6 9L7 9L7 10L6 10L6 11L5 11L5 8L3 8L3 9L4 9L4 10L3 10L3 11L2 11L2 13L1 13L1 15L0 15L0 19L1 19L1 18L2 18L2 17L3 17L3 18L4 18L4 17L5 17L5 18L6 18L6 19L8 19L8 18L6 18L6 17L8 17L8 16L6 16L6 15L7 15L7 14L6 14L6 15L5 15L5 13L7 13L7 12L9 12L9 13L8 13L8 15L10 15L10 14L9 14L9 13L10 13L10 12L11 12L11 14L12 14L12 15L11 15L11 17L12 17L12 18L10 18L10 17L9 17L9 18L10 18L10 19L9 19L9 20L11 20L11 21L10 21L10 22L9 22L9 23L7 23L7 22L5 22L5 23L4 23L4 22L3 22L3 21L4 21L4 20L5 20L5 21L8 21L8 20L5 20L5 19L3 19L3 20L2 20L2 22L3 22L3 23L2 23L2 24L1 24L1 21L0 21L0 25L2 25L2 24L4 24L4 25L7 25L7 24L8 24L8 26L10 26L10 27L9 27L9 28L8 28L8 30L9 30L9 31L8 31L8 33L9 33L9 31L11 31L11 32L10 32L10 33L11 33L11 32L12 32L12 31L13 31L13 32L14 32L14 31L16 31L16 32L15 32L15 33L18 33L18 32L17 32L17 31L18 31L18 29L17 29L17 30L16 30L16 28L15 28L15 27L16 27L16 26L17 26L17 24L18 24L18 23L19 23L19 22L20 22L20 24L19 24L19 25L21 25L21 23L23 23L23 26L22 26L22 28L23 28L23 29L24 29L24 31L22 31L22 30L21 30L21 26L19 26L19 27L18 27L18 28L20 28L20 29L19 29L19 33L21 33L21 32L20 32L20 31L22 31L22 33L23 33L23 32L24 32L24 33L26 33L26 32L27 32L27 33L29 33L29 32L33 32L33 30L32 30L32 31L30 31L30 30L31 30L31 29L32 29L32 28L33 28L33 27L29 27L29 25L30 25L30 26L31 26L31 25L32 25L32 24L33 24L33 22L32 22L32 23L30 23L30 22L29 22L29 21L30 21L30 20L31 20L31 21L32 21L32 19L33 19L33 15L31 15L31 13L30 13L30 12L32 12L32 13L33 13L33 12L32 12L32 11L33 11L33 10L30 10L30 12L29 12L29 11L27 11L27 12L26 12L26 11L25 11L25 12L24 12L24 10L26 10L26 9L27 9L27 8L26 8L26 9L24 9L24 8L25 8L25 4L24 4L24 5L23 5L23 3L22 3L22 2L23 2L23 0L22 0L22 2L21 2L21 0L20 0L20 1L18 1L18 2L21 2L21 4L19 4L19 3L17 3L17 2L16 2L16 4L17 4L17 5L16 5L16 8L15 8L15 6L14 6L14 5L15 5L15 3L14 3L14 2L15 2L15 1L14 1L14 2L13 2L13 0ZM16 0L16 1L17 1L17 0ZM24 0L24 3L25 3L25 0ZM10 3L10 4L11 4L11 5L12 5L12 4L13 4L13 5L14 5L14 4L13 4L13 3L12 3L12 4L11 4L11 3ZM18 4L18 6L17 6L17 8L18 8L18 6L19 6L19 7L20 7L20 6L21 6L21 10L19 10L19 12L20 12L20 13L19 13L19 14L16 14L16 16L15 16L15 18L17 18L17 20L16 20L16 19L15 19L15 20L13 20L13 19L14 19L14 17L13 17L13 19L11 19L11 20L13 20L13 25L14 25L14 27L12 27L12 26L11 26L11 25L10 25L10 26L11 26L11 28L10 28L10 29L9 29L9 30L10 30L10 29L11 29L11 30L12 30L12 29L13 29L13 30L14 30L14 29L13 29L13 28L14 28L14 27L15 27L15 25L16 25L16 24L17 24L17 23L18 23L18 22L19 22L19 20L21 20L21 21L22 21L22 19L23 19L23 20L26 20L26 22L24 22L24 24L28 24L28 23L29 23L29 22L28 22L28 23L27 23L27 20L28 20L28 21L29 21L29 20L30 20L30 19L32 19L32 18L30 18L30 19L28 19L28 15L29 15L29 16L30 16L30 17L31 17L31 16L30 16L30 14L29 14L29 12L28 12L28 14L27 14L27 13L24 13L24 14L23 14L23 16L22 16L22 15L21 15L21 16L20 16L20 15L19 15L19 14L20 14L20 13L22 13L22 11L21 11L21 10L22 10L22 9L23 9L23 8L24 8L24 6L23 6L23 8L22 8L22 4L21 4L21 5L19 5L19 4ZM11 6L11 7L12 7L12 6ZM13 6L13 7L14 7L14 6ZM0 8L0 9L2 9L2 8ZM11 8L11 9L12 9L12 8ZM13 8L13 10L15 10L15 8ZM19 8L19 9L20 9L20 8ZM32 8L32 9L33 9L33 8ZM16 9L16 10L17 10L17 11L18 11L18 9ZM28 9L28 10L29 10L29 9ZM0 10L0 11L1 11L1 10ZM7 10L7 11L6 11L6 12L7 12L7 11L8 11L8 10ZM9 10L9 11L10 11L10 10ZM11 11L11 12L12 12L12 14L13 14L13 13L14 13L14 15L13 15L13 16L14 16L14 15L15 15L15 13L16 13L16 11ZM20 11L20 12L21 12L21 11ZM14 12L14 13L15 13L15 12ZM17 12L17 13L18 13L18 12ZM2 14L2 16L3 16L3 17L4 17L4 16L5 16L5 17L6 17L6 16L5 16L5 15L4 15L4 16L3 16L3 14ZM24 14L24 15L25 15L25 16L26 16L26 18L27 18L27 15L26 15L26 14ZM18 15L18 17L17 17L17 16L16 16L16 17L17 17L17 18L18 18L18 20L17 20L17 21L18 21L18 20L19 20L19 19L22 19L22 18L20 18L20 17L19 17L19 15ZM23 16L23 17L24 17L24 18L23 18L23 19L24 19L24 18L25 18L25 17L24 17L24 16ZM26 19L26 20L27 20L27 19ZM15 20L15 23L14 23L14 25L15 25L15 24L16 24L16 20ZM10 22L10 24L12 24L12 23L11 23L11 22ZM5 23L5 24L7 24L7 23ZM30 24L30 25L31 25L31 24ZM25 25L25 28L28 28L28 25ZM26 26L26 27L27 27L27 26ZM23 27L23 28L24 28L24 27ZM11 28L11 29L12 29L12 28ZM30 28L30 29L28 29L28 30L30 30L30 29L31 29L31 28ZM26 29L26 31L24 31L24 32L26 32L26 31L27 31L27 29ZM28 31L28 32L29 32L29 31ZM0 0L0 7L7 7L7 0ZM1 1L1 6L6 6L6 1ZM2 2L2 5L5 5L5 2ZM26 0L26 7L33 7L33 0ZM27 1L27 6L32 6L32 1ZM28 2L28 5L31 5L31 2ZM0 26L0 33L7 33L7 26ZM1 27L1 32L6 32L6 27ZM2 28L2 31L5 31L5 28Z" fill="#000000"/></g></g></svg>
