<?xml version="1.0" encoding="UTF-8"?>
<svg xmlns="http://www.w3.org/2000/svg" version="1.1" width="400" height="400" viewBox="0 0 400 400"><rect x="0" y="0" width="400" height="400" fill="#fefefe"/><g transform="scale(9.756)"><g transform="translate(4,4)"><path fill-rule="evenodd" d="M9 0L9 1L8 1L8 2L9 2L9 3L8 3L8 4L9 4L9 3L10 3L10 5L8 5L8 7L9 7L9 8L6 8L6 9L5 9L5 8L0 8L0 10L1 10L1 12L0 12L0 13L1 13L1 14L0 14L0 15L2 15L2 16L0 16L0 20L1 20L1 21L0 21L0 25L1 25L1 21L3 21L3 20L4 20L4 21L5 21L5 22L4 22L4 23L3 23L3 22L2 22L2 23L3 23L3 24L4 24L4 25L5 25L5 24L6 24L6 25L8 25L8 27L9 27L9 28L8 28L8 33L10 33L10 32L9 32L9 28L13 28L13 29L11 29L11 30L10 30L10 31L11 31L11 32L12 32L12 31L13 31L13 29L14 29L14 30L15 30L15 31L14 31L14 32L13 32L13 33L14 33L14 32L15 32L15 33L16 33L16 32L17 32L17 33L18 33L18 32L17 32L17 31L16 31L16 30L17 30L17 29L18 29L18 28L20 28L20 29L19 29L19 30L20 30L20 31L21 31L21 32L19 32L19 33L21 33L21 32L24 32L24 33L25 33L25 32L24 32L24 31L25 31L25 30L26 30L26 31L28 31L28 30L31 30L31 31L29 31L29 32L31 32L31 33L32 33L32 32L31 32L31 31L32 31L32 30L31 30L31 29L33 29L33 28L32 28L32 26L33 26L33 23L30 23L30 24L32 24L32 25L30 25L30 26L31 26L31 27L29 27L29 24L28 24L28 23L27 23L27 24L26 24L26 22L28 22L28 21L30 21L30 20L31 20L31 19L32 19L32 20L33 20L33 19L32 19L32 18L33 18L33 17L32 17L32 14L33 14L33 13L32 13L32 10L33 10L33 9L32 9L32 8L31 8L31 9L32 9L32 10L29 10L29 12L28 12L28 13L24 13L24 12L27 12L27 11L28 11L28 8L27 8L27 9L26 9L26 8L24 8L24 7L25 7L25 4L22 4L22 5L21 5L21 4L19 4L19 2L18 2L18 3L17 3L17 4L19 4L19 5L17 5L17 6L16 6L16 5L15 5L15 6L14 6L14 5L13 5L13 4L14 4L14 3L13 3L13 2L14 2L14 1L15 1L15 2L16 2L16 1L15 1L15 0ZM18 0L18 1L20 1L20 3L23 3L23 1L24 1L24 2L25 2L25 0L23 0L23 1L21 1L21 0ZM10 1L10 3L11 3L11 2L12 2L12 1ZM12 3L12 4L13 4L13 3ZM15 3L15 4L16 4L16 3ZM11 5L11 7L12 7L12 5ZM19 5L19 7L18 7L18 6L17 6L17 8L16 8L16 9L15 9L15 7L16 7L16 6L15 6L15 7L14 7L14 6L13 6L13 8L14 8L14 9L13 9L13 10L14 10L14 11L12 11L12 10L11 10L11 9L12 9L12 8L10 8L10 9L9 9L9 10L8 10L8 11L6 11L6 12L7 12L7 13L6 13L6 14L5 14L5 13L4 13L4 12L5 12L5 10L4 10L4 11L3 11L3 10L2 10L2 11L3 11L3 13L4 13L4 14L3 14L3 15L5 15L5 16L3 16L3 17L2 17L2 18L1 18L1 20L2 20L2 18L3 18L3 19L4 19L4 18L3 18L3 17L5 17L5 16L7 16L7 15L6 15L6 14L9 14L9 16L8 16L8 17L6 17L6 18L5 18L5 20L7 20L7 19L10 19L10 18L11 18L11 20L10 20L10 21L9 21L9 23L10 23L10 25L12 25L12 24L11 24L11 23L12 23L12 22L11 22L11 20L14 20L14 21L13 21L13 24L14 24L14 25L13 25L13 28L14 28L14 29L15 29L15 30L16 30L16 29L17 29L17 28L18 28L18 27L20 27L20 28L21 28L21 29L20 29L20 30L21 30L21 29L22 29L22 31L24 31L24 30L25 30L25 29L24 29L24 27L22 27L22 28L21 28L21 25L22 25L22 26L23 26L23 25L22 25L22 24L21 24L21 22L23 22L23 24L24 24L24 22L23 22L23 20L25 20L25 18L26 18L26 17L28 17L28 19L26 19L26 21L25 21L25 22L26 22L26 21L28 21L28 20L30 20L30 19L31 19L31 18L30 18L30 17L31 17L31 16L30 16L30 14L29 14L29 13L31 13L31 12L29 12L29 13L28 13L28 14L29 14L29 15L28 15L28 16L25 16L25 15L24 15L24 14L23 14L23 15L22 15L22 14L21 14L21 13L23 13L23 12L24 12L24 11L25 11L25 9L24 9L24 8L23 8L23 7L24 7L24 5L22 5L22 6L21 6L21 5ZM9 6L9 7L10 7L10 6ZM20 6L20 7L19 7L19 8L17 8L17 9L16 9L16 10L15 10L15 9L14 9L14 10L15 10L15 12L16 12L16 11L18 11L18 12L17 12L17 13L16 13L16 14L15 14L15 13L14 13L14 12L13 12L13 13L14 13L14 14L15 14L15 15L16 15L16 17L14 17L14 16L13 16L13 14L12 14L12 13L11 13L11 12L12 12L12 11L11 11L11 10L10 10L10 11L11 11L11 12L9 12L9 11L8 11L8 12L9 12L9 13L11 13L11 14L10 14L10 15L11 15L11 16L12 16L12 17L11 17L11 18L12 18L12 19L14 19L14 18L15 18L15 21L14 21L14 24L15 24L15 23L16 23L16 24L17 24L17 25L16 25L16 26L15 26L15 25L14 25L14 26L15 26L15 29L16 29L16 28L17 28L17 25L18 25L18 24L17 24L17 23L19 23L19 22L20 22L20 21L21 21L21 20L23 20L23 18L25 18L25 17L19 17L19 16L22 16L22 15L18 15L18 16L17 16L17 14L20 14L20 13L21 13L21 12L23 12L23 11L22 11L22 9L23 9L23 10L24 10L24 9L23 9L23 8L22 8L22 7L23 7L23 6L22 6L22 7L21 7L21 6ZM19 8L19 9L22 9L22 8ZM29 8L29 9L30 9L30 8ZM6 9L6 10L7 10L7 9ZM17 9L17 10L18 10L18 9ZM19 10L19 13L20 13L20 12L21 12L21 10ZM26 10L26 11L27 11L27 10ZM11 14L11 15L12 15L12 14ZM26 14L26 15L27 15L27 14ZM9 16L9 17L10 17L10 16ZM28 16L28 17L29 17L29 16ZM13 17L13 18L14 18L14 17ZM17 17L17 18L16 18L16 19L17 19L17 20L18 20L18 21L17 21L17 22L16 22L16 21L15 21L15 22L16 22L16 23L17 23L17 22L19 22L19 21L20 21L20 20L21 20L21 19L22 19L22 18L21 18L21 19L20 19L20 18L19 18L19 19L20 19L20 20L18 20L18 19L17 19L17 18L18 18L18 17ZM6 18L6 19L7 19L7 18ZM6 21L6 22L5 22L5 23L4 23L4 24L5 24L5 23L6 23L6 24L8 24L8 21ZM32 21L32 22L33 22L33 21ZM6 22L6 23L7 23L7 22ZM20 24L20 25L19 25L19 26L20 26L20 25L21 25L21 24ZM25 25L25 28L28 28L28 25ZM9 26L9 27L10 27L10 26ZM11 26L11 27L12 27L12 26ZM26 26L26 27L27 27L27 26ZM22 28L22 29L23 29L23 28ZM29 28L29 29L31 29L31 28ZM26 29L26 30L28 30L28 29ZM11 30L11 31L12 31L12 30ZM26 32L26 33L28 33L28 32ZM0 0L0 7L7 7L7 0ZM1 1L1 6L6 6L6 1ZM2 2L2 5L5 5L5 2ZM26 0L26 7L33 7L33 0ZM27 1L27 6L32 6L32 1ZM28 2L28 5L31 5L31 2ZM0 26L0 33L7 33L7 26ZM1 27L1 32L6 32L6 27ZM2 28L2 31L5 31L5 28Z" fill="#000000"/></g></g></svg>
