<?xml version="1.0" encoding="UTF-8"?>
<svg xmlns="http://www.w3.org/2000/svg" version="1.1" width="400" height="400" viewBox="0 0 400 400"><rect x="0" y="0" width="400" height="400" fill="#fefefe"/><g transform="scale(9.756)"><g transform="translate(4,4)"><path fill-rule="evenodd" d="M8 0L8 4L9 4L9 5L8 5L8 7L9 7L9 8L10 8L10 7L11 7L11 5L12 5L12 7L13 7L13 5L14 5L14 7L15 7L15 8L14 8L14 9L13 9L13 8L12 8L12 9L11 9L11 11L10 11L10 13L11 13L11 14L10 14L10 15L9 15L9 14L6 14L6 13L9 13L9 12L8 12L8 11L7 11L7 10L6 10L6 9L7 9L7 8L4 8L4 9L3 9L3 10L2 10L2 11L1 11L1 9L2 9L2 8L0 8L0 11L1 11L1 12L0 12L0 15L1 15L1 16L2 16L2 17L1 17L1 20L0 20L0 22L1 22L1 21L2 21L2 19L3 19L3 22L2 22L2 23L3 23L3 25L4 25L4 24L5 24L5 25L7 25L7 24L8 24L8 26L9 26L9 27L8 27L8 29L9 29L9 30L10 30L10 31L11 31L11 33L12 33L12 31L13 31L13 30L14 30L14 29L15 29L15 31L14 31L14 33L15 33L15 32L16 32L16 31L17 31L17 33L18 33L18 32L19 32L19 33L20 33L20 32L19 32L19 30L17 30L17 29L18 29L18 27L19 27L19 26L17 26L17 25L18 25L18 24L19 24L19 25L20 25L20 26L21 26L21 25L23 25L23 24L24 24L24 29L25 29L25 31L24 31L24 33L27 33L27 32L26 32L26 31L27 31L27 29L28 29L28 31L32 31L32 30L33 30L33 29L29 29L29 27L31 27L31 28L32 28L32 26L31 26L31 25L32 25L32 24L33 24L33 23L31 23L31 22L32 22L32 21L33 21L33 19L32 19L32 18L31 18L31 17L30 17L30 18L28 18L28 17L29 17L29 16L30 16L30 14L31 14L31 16L32 16L32 17L33 17L33 16L32 16L32 14L31 14L31 13L29 13L29 10L28 10L28 11L27 11L27 10L26 10L26 11L27 11L27 12L26 12L26 13L23 13L23 11L24 11L24 12L25 12L25 10L24 10L24 9L25 9L25 3L22 3L22 2L23 2L23 1L24 1L24 2L25 2L25 0L23 0L23 1L22 1L22 0L20 0L20 1L19 1L19 3L20 3L20 5L18 5L18 4L17 4L17 3L18 3L18 1L17 1L17 2L16 2L16 3L15 3L15 4L14 4L14 3L12 3L12 4L9 4L9 3L11 3L11 2L9 2L9 0ZM10 0L10 1L12 1L12 2L13 2L13 0ZM15 0L15 1L14 1L14 2L15 2L15 1L16 1L16 0ZM21 1L21 2L20 2L20 3L21 3L21 4L22 4L22 3L21 3L21 2L22 2L22 1ZM16 4L16 5L15 5L15 7L16 7L16 8L15 8L15 9L14 9L14 11L13 11L13 10L12 10L12 11L11 11L11 13L12 13L12 15L11 15L11 16L9 16L9 15L6 15L6 16L7 16L7 17L6 17L6 18L5 18L5 17L2 17L2 18L4 18L4 21L6 21L6 22L5 22L5 24L7 24L7 23L8 23L8 22L9 22L9 23L10 23L10 24L11 24L11 25L10 25L10 27L9 27L9 29L10 29L10 30L11 30L11 29L14 29L14 28L15 28L15 29L17 29L17 26L16 26L16 28L15 28L15 25L14 25L14 24L16 24L16 25L17 25L17 23L20 23L20 22L21 22L21 21L19 21L19 19L20 19L20 20L21 20L21 18L22 18L22 24L23 24L23 18L22 18L22 17L25 17L25 16L23 16L23 15L22 15L22 17L19 17L19 18L18 18L18 17L17 17L17 19L16 19L16 20L15 20L15 18L16 18L16 17L14 17L14 16L17 16L17 14L16 14L16 15L15 15L15 13L14 13L14 12L15 12L15 9L17 9L17 10L16 10L16 11L18 11L18 12L19 12L19 11L20 11L20 12L21 12L21 11L20 11L20 9L21 9L21 8L20 8L20 6L21 6L21 7L22 7L22 6L23 6L23 7L24 7L24 5L20 5L20 6L19 6L19 7L18 7L18 5L17 5L17 4ZM9 5L9 7L10 7L10 5ZM16 6L16 7L17 7L17 9L18 9L18 10L19 10L19 9L20 9L20 8L18 8L18 7L17 7L17 6ZM22 8L22 9L24 9L24 8ZM27 8L27 9L28 9L28 8ZM29 8L29 9L31 9L31 12L32 12L32 13L33 13L33 12L32 12L32 9L33 9L33 8ZM9 9L9 10L10 10L10 9ZM3 10L3 11L2 11L2 12L1 12L1 13L3 13L3 15L2 15L2 14L1 14L1 15L2 15L2 16L3 16L3 15L4 15L4 16L5 16L5 14L4 14L4 10ZM6 11L6 12L7 12L7 11ZM12 11L12 12L13 12L13 11ZM16 12L16 13L17 13L17 12ZM27 12L27 13L26 13L26 16L27 16L27 17L26 17L26 18L27 18L27 17L28 17L28 16L27 16L27 13L28 13L28 15L29 15L29 13L28 13L28 12ZM13 13L13 14L14 14L14 13ZM19 13L19 15L18 15L18 16L19 16L19 15L20 15L20 16L21 16L21 15L20 15L20 14L23 14L23 13ZM24 14L24 15L25 15L25 14ZM8 16L8 17L7 17L7 18L6 18L6 19L7 19L7 20L6 20L6 21L7 21L7 20L8 20L8 21L10 21L10 23L12 23L12 22L13 22L13 23L17 23L17 21L18 21L18 19L17 19L17 20L16 20L16 21L15 21L15 20L14 20L14 21L13 21L13 19L14 19L14 17L13 17L13 16L12 16L12 17L10 17L10 18L11 18L11 21L10 21L10 19L9 19L9 18L8 18L8 17L9 17L9 16ZM7 18L7 19L8 19L8 20L9 20L9 19L8 19L8 18ZM12 18L12 19L13 19L13 18ZM26 19L26 20L28 20L28 19ZM30 19L30 21L25 21L25 22L24 22L24 23L25 23L25 24L26 24L26 23L28 23L28 22L31 22L31 20L32 20L32 19ZM14 21L14 22L15 22L15 21ZM3 22L3 23L4 23L4 22ZM6 22L6 23L7 23L7 22ZM30 23L30 24L29 24L29 26L30 26L30 25L31 25L31 23ZM0 24L0 25L2 25L2 24ZM12 24L12 25L11 25L11 27L12 27L12 26L14 26L14 25L13 25L13 24ZM20 24L20 25L21 25L21 24ZM25 25L25 28L28 28L28 25ZM26 26L26 27L27 27L27 26ZM21 27L21 29L20 29L20 28L19 28L19 29L20 29L20 30L21 30L21 33L22 33L22 31L23 31L23 29L22 29L22 28L23 28L23 27ZM21 29L21 30L22 30L22 29ZM8 31L8 33L10 33L10 32L9 32L9 31ZM32 32L32 33L33 33L33 32ZM0 0L0 7L7 7L7 0ZM1 1L1 6L6 6L6 1ZM2 2L2 5L5 5L5 2ZM26 0L26 7L33 7L33 0ZM27 1L27 6L32 6L32 1ZM28 2L28 5L31 5L31 2ZM0 26L0 33L7 33L7 26ZM1 27L1 32L6 32L6 27ZM2 28L2 31L5 31L5 28Z" fill="#000000"/></g></g></svg>
