<?xml version="1.0" encoding="UTF-8"?>
<svg xmlns="http://www.w3.org/2000/svg" version="1.1" width="400" height="400" viewBox="0 0 400 400"><rect x="0" y="0" width="400" height="400" fill="#fefefe"/><g transform="scale(9.756)"><g transform="translate(4,4)"><path fill-rule="evenodd" d="M9 0L9 1L8 1L8 3L9 3L9 4L8 4L8 8L6 8L6 9L8 9L8 8L10 8L10 10L9 10L9 11L7 11L7 10L5 10L5 9L4 9L4 8L3 8L3 9L2 9L2 8L0 8L0 11L1 11L1 12L0 12L0 14L1 14L1 15L0 15L0 16L2 16L2 14L3 14L3 13L5 13L5 12L6 12L6 13L7 13L7 12L9 12L9 11L11 11L11 10L12 10L12 9L11 9L11 8L10 8L10 7L11 7L11 6L12 6L12 8L13 8L13 10L14 10L14 11L13 11L13 12L12 12L12 13L10 13L10 14L12 14L12 16L10 16L10 17L8 17L8 18L10 18L10 17L13 17L13 19L10 19L10 21L11 21L11 20L13 20L13 21L12 21L12 23L11 23L11 22L9 22L9 19L8 19L8 21L7 21L7 20L6 20L6 19L7 19L7 18L6 18L6 17L7 17L7 16L8 16L8 15L9 15L9 14L8 14L8 15L7 15L7 14L6 14L6 15L5 15L5 16L6 16L6 17L5 17L5 18L4 18L4 19L3 19L3 20L2 20L2 18L3 18L3 17L4 17L4 15L3 15L3 17L0 17L0 18L1 18L1 19L0 19L0 21L1 21L1 22L0 22L0 23L1 23L1 24L0 24L0 25L1 25L1 24L4 24L4 25L8 25L8 27L10 27L10 29L8 29L8 30L12 30L12 29L11 29L11 28L12 28L12 27L13 27L13 28L14 28L14 29L13 29L13 30L14 30L14 32L13 32L13 33L14 33L14 32L16 32L16 33L17 33L17 32L20 32L20 33L26 33L26 32L27 32L27 33L30 33L30 32L28 32L28 31L29 31L29 30L30 30L30 29L29 29L29 27L30 27L30 25L29 25L29 24L28 24L28 23L29 23L29 22L31 22L31 23L33 23L33 21L29 21L29 22L27 22L27 21L26 21L26 23L27 23L27 24L25 24L25 22L24 22L24 27L23 27L23 26L22 26L22 25L23 25L23 22L22 22L22 23L21 23L21 22L19 22L19 21L16 21L16 22L17 22L17 23L16 23L16 24L14 24L14 22L15 22L15 21L14 21L14 20L13 20L13 19L15 19L15 20L16 20L16 19L17 19L17 20L18 20L18 19L19 19L19 18L17 18L17 17L20 17L20 19L21 19L21 20L20 20L20 21L23 21L23 20L24 20L24 21L25 21L25 20L26 20L26 17L27 17L27 15L29 15L29 16L28 16L28 17L29 17L29 16L30 16L30 15L32 15L32 14L33 14L33 9L32 9L32 8L30 8L30 9L29 9L29 8L26 8L26 9L25 9L25 5L24 5L24 2L25 2L25 0L19 0L19 1L20 1L20 2L19 2L19 3L18 3L18 1L17 1L17 0L15 0L15 4L13 4L13 5L14 5L14 7L15 7L15 8L16 8L16 11L15 11L15 9L14 9L14 8L13 8L13 6L12 6L12 5L11 5L11 6L10 6L10 5L9 5L9 4L12 4L12 3L13 3L13 2L14 2L14 0L12 0L12 1L11 1L11 2L9 2L9 1L10 1L10 0ZM22 1L22 2L21 2L21 4L23 4L23 1ZM16 3L16 6L15 6L15 7L16 7L16 8L17 8L17 9L18 9L18 10L20 10L20 12L19 12L19 11L16 11L16 12L19 12L19 13L15 13L15 14L14 14L14 13L13 13L13 15L14 15L14 16L13 16L13 17L14 17L14 18L15 18L15 19L16 19L16 18L15 18L15 17L14 17L14 16L16 16L16 15L17 15L17 14L18 14L18 16L20 16L20 17L21 17L21 16L20 16L20 14L21 14L21 15L23 15L23 14L24 14L24 12L25 12L25 11L26 11L26 10L24 10L24 9L23 9L23 8L22 8L22 10L21 10L21 9L20 9L20 8L21 8L21 7L22 7L22 6L23 6L23 7L24 7L24 5L22 5L22 6L21 6L21 5L20 5L20 4L19 4L19 5L20 5L20 6L19 6L19 7L18 7L18 6L17 6L17 5L18 5L18 3ZM9 6L9 7L10 7L10 6ZM16 6L16 7L17 7L17 8L18 8L18 9L19 9L19 8L18 8L18 7L17 7L17 6ZM20 6L20 7L21 7L21 6ZM1 9L1 11L2 11L2 13L1 13L1 14L2 14L2 13L3 13L3 10L4 10L4 11L5 11L5 10L4 10L4 9L3 9L3 10L2 10L2 9ZM27 9L27 10L28 10L28 11L27 11L27 14L26 14L26 13L25 13L25 15L27 15L27 14L28 14L28 13L29 13L29 14L31 14L31 12L32 12L32 10L31 10L31 11L30 11L30 12L29 12L29 9ZM6 11L6 12L7 12L7 11ZM21 11L21 14L22 14L22 13L23 13L23 12L24 12L24 11ZM19 13L19 14L20 14L20 13ZM6 15L6 16L7 16L7 15ZM22 16L22 17L24 17L24 18L23 18L23 19L25 19L25 16ZM32 16L32 17L33 17L33 16ZM21 18L21 19L22 19L22 18ZM27 18L27 19L28 19L28 20L30 20L30 19L29 19L29 18ZM31 18L31 19L32 19L32 20L33 20L33 18ZM4 19L4 20L3 20L3 21L2 21L2 23L3 23L3 22L4 22L4 24L5 24L5 23L6 23L6 24L8 24L8 25L9 25L9 26L10 26L10 24L11 24L11 26L13 26L13 27L14 27L14 28L15 28L15 29L14 29L14 30L15 30L15 31L16 31L16 32L17 32L17 31L20 31L20 29L21 29L21 26L18 26L18 29L17 29L17 28L15 28L15 27L17 27L17 25L15 25L15 26L14 26L14 25L12 25L12 24L13 24L13 23L12 23L12 24L11 24L11 23L10 23L10 24L8 24L8 23L9 23L9 22L8 22L8 23L6 23L6 22L7 22L7 21L5 21L5 22L4 22L4 20L5 20L5 19ZM17 23L17 24L18 24L18 25L20 25L20 23L19 23L19 24L18 24L18 23ZM25 25L25 28L28 28L28 25ZM31 25L31 27L32 27L32 29L31 29L31 31L33 31L33 27L32 27L32 26L33 26L33 25ZM26 26L26 27L27 27L27 26ZM19 27L19 28L20 28L20 27ZM23 28L23 29L22 29L22 30L21 30L21 31L22 31L22 32L24 32L24 31L23 31L23 30L25 30L25 29L24 29L24 28ZM16 29L16 31L17 31L17 29ZM18 29L18 30L19 30L19 29ZM27 29L27 30L26 30L26 31L25 31L25 32L26 32L26 31L28 31L28 29ZM8 31L8 33L11 33L11 32L12 32L12 31L11 31L11 32L9 32L9 31ZM31 32L31 33L32 33L32 32ZM0 0L0 7L7 7L7 0ZM1 1L1 6L6 6L6 1ZM2 2L2 5L5 5L5 2ZM26 0L26 7L33 7L33 0ZM27 1L27 6L32 6L32 1ZM28 2L28 5L31 5L31 2ZM0 26L0 33L7 33L7 26ZM1 27L1 32L6 32L6 27ZM2 28L2 31L5 31L5 28Z" fill="#000000"/></g></g></svg>
