<?xml version="1.0" encoding="UTF-8"?>
<svg xmlns="http://www.w3.org/2000/svg" version="1.1" width="400" height="400" viewBox="0 0 400 400"><rect x="0" y="0" width="400" height="400" fill="#fefefe"/><g transform="scale(9.756)"><g transform="translate(4,4)"><path fill-rule="evenodd" d="M8 0L8 4L9 4L9 5L8 5L8 7L9 7L9 8L10 8L10 7L11 7L11 5L12 5L12 7L13 7L13 5L14 5L14 7L15 7L15 8L14 8L14 9L13 9L13 8L12 8L12 9L11 9L11 11L10 11L10 13L8 13L8 12L9 12L9 11L8 11L8 12L6 12L6 11L7 11L7 10L8 10L8 9L7 9L7 8L4 8L4 10L2 10L2 8L0 8L0 10L2 10L2 11L0 11L0 12L1 12L1 13L2 13L2 14L3 14L3 13L4 13L4 15L0 15L0 16L2 16L2 17L3 17L3 16L4 16L4 15L5 15L5 14L6 14L6 15L7 15L7 16L6 16L6 17L7 17L7 18L5 18L5 20L6 20L6 21L7 21L7 20L6 20L6 19L8 19L8 22L11 22L11 23L12 23L12 22L13 22L13 23L17 23L17 25L16 25L16 24L14 24L14 25L13 25L13 24L12 24L12 25L11 25L11 24L8 24L8 26L9 26L9 27L8 27L8 29L9 29L9 30L10 30L10 32L9 32L9 31L8 31L8 33L11 33L11 32L13 32L13 30L14 30L14 29L15 29L15 32L14 32L14 33L15 33L15 32L16 32L16 31L17 31L17 33L18 33L18 32L19 32L19 33L20 33L20 32L21 32L21 33L22 33L22 32L23 32L23 31L24 31L24 33L26 33L26 32L25 32L25 31L27 31L27 33L28 33L28 31L32 31L32 30L33 30L33 29L29 29L29 27L31 27L31 28L32 28L32 26L31 26L31 25L32 25L32 24L33 24L33 23L31 23L31 22L32 22L32 21L33 21L33 19L32 19L32 18L31 18L31 17L30 17L30 18L29 18L29 19L28 19L28 18L26 18L26 17L29 17L29 16L30 16L30 14L31 14L31 16L32 16L32 17L33 17L33 16L32 16L32 14L31 14L31 13L29 13L29 10L28 10L28 11L27 11L27 10L26 10L26 11L25 11L25 10L24 10L24 9L25 9L25 8L24 8L24 7L25 7L25 6L24 6L24 7L23 7L23 6L22 6L22 5L21 5L21 3L22 3L22 2L23 2L23 5L25 5L25 0L23 0L23 1L22 1L22 0L20 0L20 1L18 1L18 0L17 0L17 1L18 1L18 2L16 2L16 3L15 3L15 4L14 4L14 3L12 3L12 4L9 4L9 3L11 3L11 2L9 2L9 0ZM10 0L10 1L12 1L12 2L13 2L13 0ZM15 0L15 1L14 1L14 2L15 2L15 1L16 1L16 0ZM20 1L20 2L22 2L22 1ZM23 1L23 2L24 2L24 1ZM17 3L17 4L16 4L16 5L15 5L15 7L16 7L16 8L15 8L15 9L14 9L14 11L13 11L13 10L12 10L12 11L11 11L11 13L10 13L10 14L8 14L8 13L6 13L6 14L8 14L8 15L9 15L9 16L7 16L7 17L12 17L12 16L13 16L13 17L14 17L14 19L13 19L13 18L12 18L12 19L13 19L13 21L14 21L14 22L15 22L15 21L16 21L16 20L17 20L17 19L18 19L18 21L17 21L17 23L19 23L19 24L18 24L18 25L17 25L17 26L16 26L16 28L15 28L15 25L14 25L14 26L13 26L13 27L12 27L12 29L14 29L14 28L15 28L15 29L17 29L17 30L19 30L19 32L20 32L20 29L21 29L21 31L23 31L23 30L24 30L24 31L25 31L25 30L24 30L24 28L22 28L22 29L21 29L21 27L20 27L20 25L21 25L21 26L22 26L22 27L24 27L24 26L22 26L22 25L24 25L24 23L25 23L25 22L26 22L26 23L27 23L27 24L28 24L28 22L31 22L31 20L32 20L32 19L30 19L30 21L25 21L25 22L24 22L24 23L23 23L23 19L22 19L22 25L21 25L21 24L20 24L20 23L21 23L21 21L19 21L19 20L20 20L20 17L21 17L21 14L23 14L23 13L24 13L24 15L25 15L25 13L26 13L26 16L27 16L27 14L29 14L29 13L26 13L26 12L27 12L27 11L26 11L26 12L25 12L25 13L24 13L24 12L23 12L23 11L22 11L22 12L23 12L23 13L21 13L21 10L22 10L22 9L24 9L24 8L22 8L22 9L21 9L21 7L22 7L22 6L21 6L21 7L20 7L20 6L19 6L19 5L20 5L20 3ZM9 5L9 7L10 7L10 5ZM16 6L16 7L17 7L17 9L15 9L15 12L14 12L14 13L13 13L13 14L14 14L14 13L15 13L15 15L16 15L16 14L17 14L17 16L14 16L14 17L16 17L16 18L15 18L15 20L14 20L14 21L15 21L15 20L16 20L16 19L17 19L17 17L18 17L18 18L19 18L19 17L20 17L20 15L19 15L19 13L20 13L20 14L21 14L21 13L20 13L20 11L19 11L19 12L18 12L18 11L16 11L16 10L17 10L17 9L18 9L18 10L19 10L19 9L20 9L20 10L21 10L21 9L20 9L20 8L18 8L18 7L19 7L19 6L18 6L18 7L17 7L17 6ZM27 8L27 9L28 9L28 8ZM29 8L29 9L31 9L31 12L32 12L32 13L33 13L33 12L32 12L32 9L33 9L33 8ZM5 9L5 10L4 10L4 11L5 11L5 10L7 10L7 9ZM9 9L9 10L10 10L10 9ZM12 11L12 12L13 12L13 11ZM2 12L2 13L3 13L3 12ZM16 12L16 13L17 13L17 12ZM11 13L11 15L10 15L10 16L11 16L11 15L12 15L12 13ZM18 15L18 16L19 16L19 15ZM22 15L22 17L25 17L25 16L23 16L23 15ZM28 15L28 16L29 16L29 15ZM0 17L0 19L1 19L1 20L0 20L0 22L1 22L1 20L2 20L2 18L1 18L1 17ZM3 18L3 21L2 21L2 22L3 22L3 23L2 23L2 24L0 24L0 25L2 25L2 24L4 24L4 25L7 25L7 24L6 24L6 23L7 23L7 22L5 22L5 21L4 21L4 18ZM8 18L8 19L9 19L9 18ZM10 19L10 20L9 20L9 21L10 21L10 20L11 20L11 19ZM26 19L26 20L27 20L27 19ZM4 22L4 24L5 24L5 22ZM30 23L30 24L29 24L29 26L30 26L30 25L31 25L31 23ZM19 24L19 25L20 25L20 24ZM9 25L9 26L10 26L10 28L9 28L9 29L10 29L10 30L11 30L11 25ZM25 25L25 28L28 28L28 25ZM17 26L17 29L18 29L18 27L19 27L19 26ZM26 26L26 27L27 27L27 26ZM19 28L19 29L20 29L20 28ZM22 29L22 30L23 30L23 29ZM32 32L32 33L33 33L33 32ZM0 0L0 7L7 7L7 0ZM1 1L1 6L6 6L6 1ZM2 2L2 5L5 5L5 2ZM26 0L26 7L33 7L33 0ZM27 1L27 6L32 6L32 1ZM28 2L28 5L31 5L31 2ZM0 26L0 33L7 33L7 26ZM1 27L1 32L6 32L6 27ZM2 28L2 31L5 31L5 28Z" fill="#000000"/></g></g></svg>
